  0
SECTION
  2
HEADER
  9
$ANGBASE
  50
0.0
  9
$ANGDIR
  70
1
  9
$MEASUREMENT
  70
1
  0
ENDSEC
  0
SECTION
  2
TABLES
  0
TABLE
  2
LTYPE
  70
4
  0
LTYPE
  5
40F
  2
CONTINUOUS
  70
0
  3
Solid line
  72
65
  73
0
  40
0.0
  0
LTYPE
  5
410
  2
DASHDOT
 70
0
  3
Dash Dot ____ _ ____ _
 72
65
 73
4
 40
2.0
 49
1.25
 49
-0.25
 49
0.25
 49
-0.25
  0
LTYPE
  5
411
  2
DASHED
 70
0
  3
Dashed __ __ __ __ __
 72
65
 73
2
 40
0.75
 49
0.5
 49
-0.25
  0
LTYPE
  5
43B
  2
DOTTED
 70
0
  3
Dotted .  .  .  .
 72
65
 73
2
 40
0.2
 49
0.0
 49
-0.2
  0
ENDTAB
  0
TABLE
  2
STYLE
  70
4
  0
STYLE
  2
KICAD
  70
0
  40
0
  41
1
  42
1
  50
0
  71
0
  3
isocp.shx
  0
STYLE
  2
KICADB
  70
0
  40
0
  41
1
  42
1
  50
0
  71
0
  3
isocp.shx
  0
STYLE
  2
KICADI
  70
0
  40
0
  41
1
  42
1
  50
15
  71
0
  3
isocp.shx
  0
STYLE
  2
KICADBI
  70
0
  40
0
  41
1
  42
1
  50
15
  71
0
  3
isocp.shx
  0
ENDTAB
  0
TABLE
  2
LAYER
  70
1
  0
LAYER
  2
BLACK
  70
0
  62
7
  6
CONTINUOUS
  0
ENDTAB
  0
ENDSEC
  0
SECTION
  2
ENTITIES
0
LINE
8
BLACK
6
CONTINUOUS
10
180.979
20
-54.6938
11
180.99
21
-54.6949
0
LINE
8
BLACK
6
CONTINUOUS
10
180.99
20
-54.6949
11
181.004
21
-54.6992
0
LINE
8
BLACK
6
CONTINUOUS
10
181.004
20
-54.6992
11
181.017
21
-54.7061
0
LINE
8
BLACK
6
CONTINUOUS
10
181.017
20
-54.7061
11
181.028
21
-54.7155
0
LINE
8
BLACK
6
CONTINUOUS
10
181.028
20
-54.7155
11
181.038
21
-54.7269
0
LINE
8
BLACK
6
CONTINUOUS
10
181.038
20
-54.7269
11
181.045
21
-54.74
0
LINE
8
BLACK
6
CONTINUOUS
10
181.045
20
-54.74
11
181.049
21
-54.7541
0
LINE
8
BLACK
6
CONTINUOUS
10
181.049
20
-54.7541
11
181.051
21
-54.7688
0
LINE
8
BLACK
6
CONTINUOUS
10
181.051
20
-54.7688
11
181.05
21
-54.7725
0
LINE
8
BLACK
6
CONTINUOUS
10
181.05
20
-54.7725
11
181.05
21
-150.015
0
LINE
8
BLACK
6
CONTINUOUS
10
181.05
20
-150.015
11
181.051
21
-150.019
0
LINE
8
BLACK
6
CONTINUOUS
10
181.051
20
-150.019
11
181.049
21
-150.034
0
LINE
8
BLACK
6
CONTINUOUS
10
181.049
20
-150.034
11
181.045
21
-150.048
0
LINE
8
BLACK
6
CONTINUOUS
10
181.045
20
-150.048
11
181.038
21
-150.061
0
LINE
8
BLACK
6
CONTINUOUS
10
181.038
20
-150.061
11
181.028
21
-150.072
0
LINE
8
BLACK
6
CONTINUOUS
10
181.028
20
-150.072
11
181.017
21
-150.082
0
LINE
8
BLACK
6
CONTINUOUS
10
181.017
20
-150.082
11
181.004
21
-150.089
0
LINE
8
BLACK
6
CONTINUOUS
10
181.004
20
-150.089
11
180.99
21
-150.093
0
LINE
8
BLACK
6
CONTINUOUS
10
180.99
20
-150.093
11
180.979
21
-150.094
0
LINE
8
BLACK
6
CONTINUOUS
10
180.979
20
-150.094
11
180.975
21
-150.094
0
LINE
8
BLACK
6
CONTINUOUS
10
180.975
20
-150.094
11
180.971
21
-150.094
0
LINE
8
BLACK
6
CONTINUOUS
10
180.971
20
-150.094
11
123.829
21
-150.094
0
LINE
8
BLACK
6
CONTINUOUS
10
123.829
20
-150.094
11
123.825
21
-150.094
0
LINE
8
BLACK
6
CONTINUOUS
10
123.825
20
-150.094
11
123.81
21
-150.093
0
LINE
8
BLACK
6
CONTINUOUS
10
123.81
20
-150.093
11
123.796
21
-150.089
0
LINE
8
BLACK
6
CONTINUOUS
10
123.796
20
-150.089
11
123.783
21
-150.082
0
LINE
8
BLACK
6
CONTINUOUS
10
123.783
20
-150.082
11
123.772
21
-150.072
0
LINE
8
BLACK
6
CONTINUOUS
10
123.772
20
-150.072
11
123.762
21
-150.061
0
LINE
8
BLACK
6
CONTINUOUS
10
123.762
20
-150.061
11
123.755
21
-150.048
0
LINE
8
BLACK
6
CONTINUOUS
10
123.755
20
-150.048
11
123.751
21
-150.034
0
LINE
8
BLACK
6
CONTINUOUS
10
123.751
20
-150.034
11
123.75
21
-150.019
0
LINE
8
BLACK
6
CONTINUOUS
10
123.75
20
-150.019
11
123.75
21
-150.015
0
LINE
8
BLACK
6
CONTINUOUS
10
123.75
20
-150.015
11
123.75
21
-54.7725
0
LINE
8
BLACK
6
CONTINUOUS
10
123.75
20
-54.7725
11
123.75
21
-54.7688
0
LINE
8
BLACK
6
CONTINUOUS
10
123.75
20
-54.7688
11
123.751
21
-54.7541
0
LINE
8
BLACK
6
CONTINUOUS
10
123.751
20
-54.7541
11
123.755
21
-54.74
0
LINE
8
BLACK
6
CONTINUOUS
10
123.755
20
-54.74
11
123.762
21
-54.7269
0
LINE
8
BLACK
6
CONTINUOUS
10
123.762
20
-54.7269
11
123.772
21
-54.7155
0
LINE
8
BLACK
6
CONTINUOUS
10
123.772
20
-54.7155
11
123.783
21
-54.7061
0
LINE
8
BLACK
6
CONTINUOUS
10
123.783
20
-54.7061
11
123.796
21
-54.6992
0
LINE
8
BLACK
6
CONTINUOUS
10
123.796
20
-54.6992
11
123.81
21
-54.6949
0
LINE
8
BLACK
6
CONTINUOUS
10
123.81
20
-54.6949
11
123.821
21
-54.6938
0
LINE
8
BLACK
6
CONTINUOUS
10
123.821
20
-54.6938
11
123.825
21
-54.6934
0
LINE
8
BLACK
6
CONTINUOUS
10
123.825
20
-54.6934
11
123.829
21
-54.6938
0
LINE
8
BLACK
6
CONTINUOUS
10
123.829
20
-54.6938
11
180.971
21
-54.6938
0
LINE
8
BLACK
6
CONTINUOUS
10
180.971
20
-54.6938
11
180.975
21
-54.6934
0
LINE
8
BLACK
6
CONTINUOUS
10
180.975
20
-54.6934
11
180.979
21
-54.6938
0
LINE
8
BLACK
6
CONTINUOUS
10
123.9
20
-54.8438
11
123.9
21
-149.944
0
LINE
8
BLACK
6
CONTINUOUS
10
123.9
20
-149.944
11
180.9
21
-149.944
0
LINE
8
BLACK
6
CONTINUOUS
10
180.9
20
-149.944
11
180.9
21
-54.8438
0
LINE
8
BLACK
6
CONTINUOUS
10
180.9
20
-54.8438
11
123.9
21
-54.8438
0
LINE
8
BLACK
6
CONTINUOUS
10
127.357
20
-144.288
11
127.454
21
-144.055
0
LINE
8
BLACK
6
CONTINUOUS
10
127.454
20
-144.055
11
127.594
21
-143.845
0
LINE
8
BLACK
6
CONTINUOUS
10
127.594
20
-143.845
11
127.772
21
-143.667
0
LINE
8
BLACK
6
CONTINUOUS
10
127.772
20
-143.667
11
127.982
21
-143.527
0
LINE
8
BLACK
6
CONTINUOUS
10
127.982
20
-143.527
11
128.214
21
-143.431
0
LINE
8
BLACK
6
CONTINUOUS
10
128.214
20
-143.431
11
128.462
21
-143.382
0
LINE
8
BLACK
6
CONTINUOUS
10
128.462
20
-143.382
11
128.714
21
-143.382
0
LINE
8
BLACK
6
CONTINUOUS
10
128.714
20
-143.382
11
128.961
21
-143.431
0
LINE
8
BLACK
6
CONTINUOUS
10
128.961
20
-143.431
11
129.194
21
-143.527
0
LINE
8
BLACK
6
CONTINUOUS
10
129.194
20
-143.527
11
129.403
21
-143.667
0
LINE
8
BLACK
6
CONTINUOUS
10
129.403
20
-143.667
11
129.581
21
-143.845
0
LINE
8
BLACK
6
CONTINUOUS
10
129.581
20
-143.845
11
129.721
21
-144.055
0
LINE
8
BLACK
6
CONTINUOUS
10
129.721
20
-144.055
11
129.818
21
-144.288
0
LINE
8
BLACK
6
CONTINUOUS
10
129.818
20
-144.288
11
129.867
21
-144.535
0
LINE
8
BLACK
6
CONTINUOUS
10
129.867
20
-144.535
11
129.867
21
-144.787
0
LINE
8
BLACK
6
CONTINUOUS
10
129.867
20
-144.787
11
129.818
21
-145.034
0
LINE
8
BLACK
6
CONTINUOUS
10
129.818
20
-145.034
11
129.721
21
-145.267
0
LINE
8
BLACK
6
CONTINUOUS
10
129.721
20
-145.267
11
129.581
21
-145.477
0
LINE
8
BLACK
6
CONTINUOUS
10
129.581
20
-145.477
11
129.403
21
-145.655
0
LINE
8
BLACK
6
CONTINUOUS
10
129.403
20
-145.655
11
129.194
21
-145.795
0
LINE
8
BLACK
6
CONTINUOUS
10
129.194
20
-145.795
11
128.961
21
-145.891
0
LINE
8
BLACK
6
CONTINUOUS
10
128.961
20
-145.891
11
128.714
21
-145.94
0
LINE
8
BLACK
6
CONTINUOUS
10
128.714
20
-145.94
11
128.462
21
-145.94
0
LINE
8
BLACK
6
CONTINUOUS
10
128.462
20
-145.94
11
128.214
21
-145.891
0
LINE
8
BLACK
6
CONTINUOUS
10
128.214
20
-145.891
11
127.982
21
-145.795
0
LINE
8
BLACK
6
CONTINUOUS
10
127.982
20
-145.795
11
127.772
21
-145.655
0
LINE
8
BLACK
6
CONTINUOUS
10
127.772
20
-145.655
11
127.594
21
-145.477
0
LINE
8
BLACK
6
CONTINUOUS
10
127.594
20
-145.477
11
127.454
21
-145.267
0
LINE
8
BLACK
6
CONTINUOUS
10
127.454
20
-145.267
11
127.357
21
-145.034
0
LINE
8
BLACK
6
CONTINUOUS
10
127.357
20
-145.034
11
127.308
21
-144.787
0
LINE
8
BLACK
6
CONTINUOUS
10
127.308
20
-144.787
11
127.308
21
-144.535
0
LINE
8
BLACK
6
CONTINUOUS
10
127.308
20
-144.535
11
127.357
21
-144.288
0
LINE
8
BLACK
6
CONTINUOUS
10
127.52
20
-144.985
11
127.604
21
-145.187
0
LINE
8
BLACK
6
CONTINUOUS
10
127.604
20
-145.187
11
127.725
21
-145.369
0
LINE
8
BLACK
6
CONTINUOUS
10
127.725
20
-145.369
11
127.88
21
-145.523
0
LINE
8
BLACK
6
CONTINUOUS
10
127.88
20
-145.523
11
128.062
21
-145.645
0
LINE
8
BLACK
6
CONTINUOUS
10
128.062
20
-145.645
11
128.264
21
-145.729
0
LINE
8
BLACK
6
CONTINUOUS
10
128.264
20
-145.729
11
128.478
21
-145.771
0
LINE
8
BLACK
6
CONTINUOUS
10
128.478
20
-145.771
11
128.697
21
-145.771
0
LINE
8
BLACK
6
CONTINUOUS
10
128.697
20
-145.771
11
128.911
21
-145.729
0
LINE
8
BLACK
6
CONTINUOUS
10
128.911
20
-145.729
11
129.114
21
-145.645
0
LINE
8
BLACK
6
CONTINUOUS
10
129.114
20
-145.645
11
129.295
21
-145.523
0
LINE
8
BLACK
6
CONTINUOUS
10
129.295
20
-145.523
11
129.45
21
-145.369
0
LINE
8
BLACK
6
CONTINUOUS
10
129.45
20
-145.369
11
129.572
21
-145.187
0
LINE
8
BLACK
6
CONTINUOUS
10
129.572
20
-145.187
11
129.655
21
-144.985
0
LINE
8
BLACK
6
CONTINUOUS
10
129.655
20
-144.985
11
129.698
21
-144.77
0
LINE
8
BLACK
6
CONTINUOUS
10
129.698
20
-144.77
11
129.698
21
-144.552
0
LINE
8
BLACK
6
CONTINUOUS
10
129.698
20
-144.552
11
129.655
21
-144.337
0
LINE
8
BLACK
6
CONTINUOUS
10
129.655
20
-144.337
11
129.572
21
-144.135
0
LINE
8
BLACK
6
CONTINUOUS
10
129.572
20
-144.135
11
129.45
21
-143.953
0
LINE
8
BLACK
6
CONTINUOUS
10
129.45
20
-143.953
11
129.295
21
-143.799
0
LINE
8
BLACK
6
CONTINUOUS
10
129.295
20
-143.799
11
129.114
21
-143.677
0
LINE
8
BLACK
6
CONTINUOUS
10
129.114
20
-143.677
11
128.911
21
-143.593
0
LINE
8
BLACK
6
CONTINUOUS
10
128.911
20
-143.593
11
128.697
21
-143.551
0
LINE
8
BLACK
6
CONTINUOUS
10
128.697
20
-143.551
11
128.478
21
-143.551
0
LINE
8
BLACK
6
CONTINUOUS
10
128.478
20
-143.551
11
128.264
21
-143.593
0
LINE
8
BLACK
6
CONTINUOUS
10
128.264
20
-143.593
11
128.062
21
-143.677
0
LINE
8
BLACK
6
CONTINUOUS
10
128.062
20
-143.677
11
127.88
21
-143.799
0
LINE
8
BLACK
6
CONTINUOUS
10
127.88
20
-143.799
11
127.725
21
-143.953
0
LINE
8
BLACK
6
CONTINUOUS
10
127.725
20
-143.953
11
127.604
21
-144.135
0
LINE
8
BLACK
6
CONTINUOUS
10
127.604
20
-144.135
11
127.52
21
-144.337
0
LINE
8
BLACK
6
CONTINUOUS
10
127.52
20
-144.337
11
127.477
21
-144.552
0
LINE
8
BLACK
6
CONTINUOUS
10
127.477
20
-144.552
11
127.477
21
-144.77
0
LINE
8
BLACK
6
CONTINUOUS
10
127.477
20
-144.77
11
127.52
21
-144.985
0
LINE
8
BLACK
6
CONTINUOUS
10
174.982
20
-144.288
11
175.079
21
-144.055
0
LINE
8
BLACK
6
CONTINUOUS
10
175.079
20
-144.055
11
175.219
21
-143.845
0
LINE
8
BLACK
6
CONTINUOUS
10
175.219
20
-143.845
11
175.397
21
-143.667
0
LINE
8
BLACK
6
CONTINUOUS
10
175.397
20
-143.667
11
175.607
21
-143.527
0
LINE
8
BLACK
6
CONTINUOUS
10
175.607
20
-143.527
11
175.839
21
-143.431
0
LINE
8
BLACK
6
CONTINUOUS
10
175.839
20
-143.431
11
176.087
21
-143.382
0
LINE
8
BLACK
6
CONTINUOUS
10
176.087
20
-143.382
11
176.339
21
-143.382
0
LINE
8
BLACK
6
CONTINUOUS
10
176.339
20
-143.382
11
176.586
21
-143.431
0
LINE
8
BLACK
6
CONTINUOUS
10
176.586
20
-143.431
11
176.819
21
-143.527
0
LINE
8
BLACK
6
CONTINUOUS
10
176.819
20
-143.527
11
177.028
21
-143.667
0
LINE
8
BLACK
6
CONTINUOUS
10
177.028
20
-143.667
11
177.206
21
-143.845
0
LINE
8
BLACK
6
CONTINUOUS
10
177.206
20
-143.845
11
177.346
21
-144.055
0
LINE
8
BLACK
6
CONTINUOUS
10
177.346
20
-144.055
11
177.443
21
-144.288
0
LINE
8
BLACK
6
CONTINUOUS
10
177.443
20
-144.288
11
177.492
21
-144.535
0
LINE
8
BLACK
6
CONTINUOUS
10
177.492
20
-144.535
11
177.492
21
-144.787
0
LINE
8
BLACK
6
CONTINUOUS
10
177.492
20
-144.787
11
177.443
21
-145.034
0
LINE
8
BLACK
6
CONTINUOUS
10
177.443
20
-145.034
11
177.346
21
-145.267
0
LINE
8
BLACK
6
CONTINUOUS
10
177.346
20
-145.267
11
177.206
21
-145.477
0
LINE
8
BLACK
6
CONTINUOUS
10
177.206
20
-145.477
11
177.028
21
-145.655
0
LINE
8
BLACK
6
CONTINUOUS
10
177.028
20
-145.655
11
176.819
21
-145.795
0
LINE
8
BLACK
6
CONTINUOUS
10
176.819
20
-145.795
11
176.586
21
-145.891
0
LINE
8
BLACK
6
CONTINUOUS
10
176.586
20
-145.891
11
176.339
21
-145.94
0
LINE
8
BLACK
6
CONTINUOUS
10
176.339
20
-145.94
11
176.087
21
-145.94
0
LINE
8
BLACK
6
CONTINUOUS
10
176.087
20
-145.94
11
175.839
21
-145.891
0
LINE
8
BLACK
6
CONTINUOUS
10
175.839
20
-145.891
11
175.607
21
-145.795
0
LINE
8
BLACK
6
CONTINUOUS
10
175.607
20
-145.795
11
175.397
21
-145.655
0
LINE
8
BLACK
6
CONTINUOUS
10
175.397
20
-145.655
11
175.219
21
-145.477
0
LINE
8
BLACK
6
CONTINUOUS
10
175.219
20
-145.477
11
175.079
21
-145.267
0
LINE
8
BLACK
6
CONTINUOUS
10
175.079
20
-145.267
11
174.982
21
-145.034
0
LINE
8
BLACK
6
CONTINUOUS
10
174.982
20
-145.034
11
174.933
21
-144.787
0
LINE
8
BLACK
6
CONTINUOUS
10
174.933
20
-144.787
11
174.933
21
-144.535
0
LINE
8
BLACK
6
CONTINUOUS
10
174.933
20
-144.535
11
174.982
21
-144.288
0
LINE
8
BLACK
6
CONTINUOUS
10
175.145
20
-144.985
11
175.229
21
-145.187
0
LINE
8
BLACK
6
CONTINUOUS
10
175.229
20
-145.187
11
175.35
21
-145.369
0
LINE
8
BLACK
6
CONTINUOUS
10
175.35
20
-145.369
11
175.505
21
-145.523
0
LINE
8
BLACK
6
CONTINUOUS
10
175.505
20
-145.523
11
175.687
21
-145.645
0
LINE
8
BLACK
6
CONTINUOUS
10
175.687
20
-145.645
11
175.889
21
-145.729
0
LINE
8
BLACK
6
CONTINUOUS
10
175.889
20
-145.729
11
176.103
21
-145.771
0
LINE
8
BLACK
6
CONTINUOUS
10
176.103
20
-145.771
11
176.322
21
-145.771
0
LINE
8
BLACK
6
CONTINUOUS
10
176.322
20
-145.771
11
176.536
21
-145.729
0
LINE
8
BLACK
6
CONTINUOUS
10
176.536
20
-145.729
11
176.739
21
-145.645
0
LINE
8
BLACK
6
CONTINUOUS
10
176.739
20
-145.645
11
176.92
21
-145.523
0
LINE
8
BLACK
6
CONTINUOUS
10
176.92
20
-145.523
11
177.075
21
-145.369
0
LINE
8
BLACK
6
CONTINUOUS
10
177.075
20
-145.369
11
177.197
21
-145.187
0
LINE
8
BLACK
6
CONTINUOUS
10
177.197
20
-145.187
11
177.28
21
-144.985
0
LINE
8
BLACK
6
CONTINUOUS
10
177.28
20
-144.985
11
177.323
21
-144.77
0
LINE
8
BLACK
6
CONTINUOUS
10
177.323
20
-144.77
11
177.323
21
-144.552
0
LINE
8
BLACK
6
CONTINUOUS
10
177.323
20
-144.552
11
177.28
21
-144.337
0
LINE
8
BLACK
6
CONTINUOUS
10
177.28
20
-144.337
11
177.197
21
-144.135
0
LINE
8
BLACK
6
CONTINUOUS
10
177.197
20
-144.135
11
177.075
21
-143.953
0
LINE
8
BLACK
6
CONTINUOUS
10
177.075
20
-143.953
11
176.92
21
-143.799
0
LINE
8
BLACK
6
CONTINUOUS
10
176.92
20
-143.799
11
176.739
21
-143.677
0
LINE
8
BLACK
6
CONTINUOUS
10
176.739
20
-143.677
11
176.536
21
-143.593
0
LINE
8
BLACK
6
CONTINUOUS
10
176.536
20
-143.593
11
176.322
21
-143.551
0
LINE
8
BLACK
6
CONTINUOUS
10
176.322
20
-143.551
11
176.103
21
-143.551
0
LINE
8
BLACK
6
CONTINUOUS
10
176.103
20
-143.551
11
175.889
21
-143.593
0
LINE
8
BLACK
6
CONTINUOUS
10
175.889
20
-143.593
11
175.687
21
-143.677
0
LINE
8
BLACK
6
CONTINUOUS
10
175.687
20
-143.677
11
175.505
21
-143.799
0
LINE
8
BLACK
6
CONTINUOUS
10
175.505
20
-143.799
11
175.35
21
-143.953
0
LINE
8
BLACK
6
CONTINUOUS
10
175.35
20
-143.953
11
175.229
21
-144.135
0
LINE
8
BLACK
6
CONTINUOUS
10
175.229
20
-144.135
11
175.145
21
-144.337
0
LINE
8
BLACK
6
CONTINUOUS
10
175.145
20
-144.337
11
175.102
21
-144.552
0
LINE
8
BLACK
6
CONTINUOUS
10
175.102
20
-144.552
11
175.102
21
-144.77
0
LINE
8
BLACK
6
CONTINUOUS
10
175.102
20
-144.77
11
175.145
21
-144.985
0
LINE
8
BLACK
6
CONTINUOUS
10
174.982
20
-59.1581
11
175.079
21
-58.9253
0
LINE
8
BLACK
6
CONTINUOUS
10
175.079
20
-58.9253
11
175.219
21
-58.7157
0
LINE
8
BLACK
6
CONTINUOUS
10
175.219
20
-58.7157
11
175.397
21
-58.5375
0
LINE
8
BLACK
6
CONTINUOUS
10
175.397
20
-58.5375
11
175.607
21
-58.3975
0
LINE
8
BLACK
6
CONTINUOUS
10
175.607
20
-58.3975
11
175.839
21
-58.301
0
LINE
8
BLACK
6
CONTINUOUS
10
175.839
20
-58.301
11
176.087
21
-58.2519
0
LINE
8
BLACK
6
CONTINUOUS
10
176.087
20
-58.2519
11
176.339
21
-58.2519
0
LINE
8
BLACK
6
CONTINUOUS
10
176.339
20
-58.2519
11
176.586
21
-58.301
0
LINE
8
BLACK
6
CONTINUOUS
10
176.586
20
-58.301
11
176.819
21
-58.3975
0
LINE
8
BLACK
6
CONTINUOUS
10
176.819
20
-58.3975
11
177.028
21
-58.5375
0
LINE
8
BLACK
6
CONTINUOUS
10
177.028
20
-58.5375
11
177.206
21
-58.7157
0
LINE
8
BLACK
6
CONTINUOUS
10
177.206
20
-58.7157
11
177.346
21
-58.9253
0
LINE
8
BLACK
6
CONTINUOUS
10
177.346
20
-58.9253
11
177.443
21
-59.1581
0
LINE
8
BLACK
6
CONTINUOUS
10
177.443
20
-59.1581
11
177.492
21
-59.4053
0
LINE
8
BLACK
6
CONTINUOUS
10
177.492
20
-59.4053
11
177.492
21
-59.6573
0
LINE
8
BLACK
6
CONTINUOUS
10
177.492
20
-59.6573
11
177.443
21
-59.9045
0
LINE
8
BLACK
6
CONTINUOUS
10
177.443
20
-59.9045
11
177.346
21
-60.1373
0
LINE
8
BLACK
6
CONTINUOUS
10
177.346
20
-60.1373
11
177.206
21
-60.3469
0
LINE
8
BLACK
6
CONTINUOUS
10
177.206
20
-60.3469
11
177.028
21
-60.5251
0
LINE
8
BLACK
6
CONTINUOUS
10
177.028
20
-60.5251
11
176.819
21
-60.6651
0
LINE
8
BLACK
6
CONTINUOUS
10
176.819
20
-60.6651
11
176.586
21
-60.7616
0
LINE
8
BLACK
6
CONTINUOUS
10
176.586
20
-60.7616
11
176.339
21
-60.8107
0
LINE
8
BLACK
6
CONTINUOUS
10
176.339
20
-60.8107
11
176.087
21
-60.8107
0
LINE
8
BLACK
6
CONTINUOUS
10
176.087
20
-60.8107
11
175.839
21
-60.7616
0
LINE
8
BLACK
6
CONTINUOUS
10
175.839
20
-60.7616
11
175.607
21
-60.6651
0
LINE
8
BLACK
6
CONTINUOUS
10
175.607
20
-60.6651
11
175.397
21
-60.5251
0
LINE
8
BLACK
6
CONTINUOUS
10
175.397
20
-60.5251
11
175.219
21
-60.3469
0
LINE
8
BLACK
6
CONTINUOUS
10
175.219
20
-60.3469
11
175.079
21
-60.1373
0
LINE
8
BLACK
6
CONTINUOUS
10
175.079
20
-60.1373
11
174.982
21
-59.9045
0
LINE
8
BLACK
6
CONTINUOUS
10
174.982
20
-59.9045
11
174.933
21
-59.6573
0
LINE
8
BLACK
6
CONTINUOUS
10
174.933
20
-59.6573
11
174.933
21
-59.4053
0
LINE
8
BLACK
6
CONTINUOUS
10
174.933
20
-59.4053
11
174.982
21
-59.1581
0
LINE
8
BLACK
6
CONTINUOUS
10
175.145
20
-59.8551
11
175.229
21
-60.0572
0
LINE
8
BLACK
6
CONTINUOUS
10
175.229
20
-60.0572
11
175.35
21
-60.239
0
LINE
8
BLACK
6
CONTINUOUS
10
175.35
20
-60.239
11
175.505
21
-60.3937
0
LINE
8
BLACK
6
CONTINUOUS
10
175.505
20
-60.3937
11
175.687
21
-60.5152
0
LINE
8
BLACK
6
CONTINUOUS
10
175.687
20
-60.5152
11
175.889
21
-60.5989
0
LINE
8
BLACK
6
CONTINUOUS
10
175.889
20
-60.5989
11
176.103
21
-60.6416
0
LINE
8
BLACK
6
CONTINUOUS
10
176.103
20
-60.6416
11
176.322
21
-60.6416
0
LINE
8
BLACK
6
CONTINUOUS
10
176.322
20
-60.6416
11
176.536
21
-60.5989
0
LINE
8
BLACK
6
CONTINUOUS
10
176.536
20
-60.5989
11
176.739
21
-60.5152
0
LINE
8
BLACK
6
CONTINUOUS
10
176.739
20
-60.5152
11
176.92
21
-60.3937
0
LINE
8
BLACK
6
CONTINUOUS
10
176.92
20
-60.3937
11
177.075
21
-60.239
0
LINE
8
BLACK
6
CONTINUOUS
10
177.075
20
-60.239
11
177.197
21
-60.0572
0
LINE
8
BLACK
6
CONTINUOUS
10
177.197
20
-60.0572
11
177.28
21
-59.8551
0
LINE
8
BLACK
6
CONTINUOUS
10
177.28
20
-59.8551
11
177.323
21
-59.6407
0
LINE
8
BLACK
6
CONTINUOUS
10
177.323
20
-59.6407
11
177.323
21
-59.4219
0
LINE
8
BLACK
6
CONTINUOUS
10
177.323
20
-59.4219
11
177.28
21
-59.2075
0
LINE
8
BLACK
6
CONTINUOUS
10
177.28
20
-59.2075
11
177.197
21
-59.0054
0
LINE
8
BLACK
6
CONTINUOUS
10
177.197
20
-59.0054
11
177.075
21
-58.8236
0
LINE
8
BLACK
6
CONTINUOUS
10
177.075
20
-58.8236
11
176.92
21
-58.6689
0
LINE
8
BLACK
6
CONTINUOUS
10
176.92
20
-58.6689
11
176.739
21
-58.5474
0
LINE
8
BLACK
6
CONTINUOUS
10
176.739
20
-58.5474
11
176.536
21
-58.4637
0
LINE
8
BLACK
6
CONTINUOUS
10
176.536
20
-58.4637
11
176.322
21
-58.421
0
LINE
8
BLACK
6
CONTINUOUS
10
176.322
20
-58.421
11
176.103
21
-58.421
0
LINE
8
BLACK
6
CONTINUOUS
10
176.103
20
-58.421
11
175.889
21
-58.4637
0
LINE
8
BLACK
6
CONTINUOUS
10
175.889
20
-58.4637
11
175.687
21
-58.5474
0
LINE
8
BLACK
6
CONTINUOUS
10
175.687
20
-58.5474
11
175.505
21
-58.6689
0
LINE
8
BLACK
6
CONTINUOUS
10
175.505
20
-58.6689
11
175.35
21
-58.8236
0
LINE
8
BLACK
6
CONTINUOUS
10
175.35
20
-58.8236
11
175.229
21
-59.0054
0
LINE
8
BLACK
6
CONTINUOUS
10
175.229
20
-59.0054
11
175.145
21
-59.2075
0
LINE
8
BLACK
6
CONTINUOUS
10
175.145
20
-59.2075
11
175.102
21
-59.4219
0
LINE
8
BLACK
6
CONTINUOUS
10
175.102
20
-59.4219
11
175.102
21
-59.6407
0
LINE
8
BLACK
6
CONTINUOUS
10
175.102
20
-59.6407
11
175.145
21
-59.8551
0
LINE
8
BLACK
6
CONTINUOUS
10
127.357
20
-59.1581
11
127.454
21
-58.9253
0
LINE
8
BLACK
6
CONTINUOUS
10
127.454
20
-58.9253
11
127.594
21
-58.7157
0
LINE
8
BLACK
6
CONTINUOUS
10
127.594
20
-58.7157
11
127.772
21
-58.5375
0
LINE
8
BLACK
6
CONTINUOUS
10
127.772
20
-58.5375
11
127.982
21
-58.3975
0
LINE
8
BLACK
6
CONTINUOUS
10
127.982
20
-58.3975
11
128.214
21
-58.301
0
LINE
8
BLACK
6
CONTINUOUS
10
128.214
20
-58.301
11
128.462
21
-58.2519
0
LINE
8
BLACK
6
CONTINUOUS
10
128.462
20
-58.2519
11
128.714
21
-58.2519
0
LINE
8
BLACK
6
CONTINUOUS
10
128.714
20
-58.2519
11
128.961
21
-58.301
0
LINE
8
BLACK
6
CONTINUOUS
10
128.961
20
-58.301
11
129.194
21
-58.3975
0
LINE
8
BLACK
6
CONTINUOUS
10
129.194
20
-58.3975
11
129.403
21
-58.5375
0
LINE
8
BLACK
6
CONTINUOUS
10
129.403
20
-58.5375
11
129.581
21
-58.7157
0
LINE
8
BLACK
6
CONTINUOUS
10
129.581
20
-58.7157
11
129.721
21
-58.9253
0
LINE
8
BLACK
6
CONTINUOUS
10
129.721
20
-58.9253
11
129.818
21
-59.1581
0
LINE
8
BLACK
6
CONTINUOUS
10
129.818
20
-59.1581
11
129.867
21
-59.4053
0
LINE
8
BLACK
6
CONTINUOUS
10
129.867
20
-59.4053
11
129.867
21
-59.6573
0
LINE
8
BLACK
6
CONTINUOUS
10
129.867
20
-59.6573
11
129.818
21
-59.9045
0
LINE
8
BLACK
6
CONTINUOUS
10
129.818
20
-59.9045
11
129.721
21
-60.1373
0
LINE
8
BLACK
6
CONTINUOUS
10
129.721
20
-60.1373
11
129.581
21
-60.3469
0
LINE
8
BLACK
6
CONTINUOUS
10
129.581
20
-60.3469
11
129.403
21
-60.5251
0
LINE
8
BLACK
6
CONTINUOUS
10
129.403
20
-60.5251
11
129.194
21
-60.6651
0
LINE
8
BLACK
6
CONTINUOUS
10
129.194
20
-60.6651
11
128.961
21
-60.7616
0
LINE
8
BLACK
6
CONTINUOUS
10
128.961
20
-60.7616
11
128.714
21
-60.8107
0
LINE
8
BLACK
6
CONTINUOUS
10
128.714
20
-60.8107
11
128.462
21
-60.8107
0
LINE
8
BLACK
6
CONTINUOUS
10
128.462
20
-60.8107
11
128.214
21
-60.7616
0
LINE
8
BLACK
6
CONTINUOUS
10
128.214
20
-60.7616
11
127.982
21
-60.6651
0
LINE
8
BLACK
6
CONTINUOUS
10
127.982
20
-60.6651
11
127.772
21
-60.5251
0
LINE
8
BLACK
6
CONTINUOUS
10
127.772
20
-60.5251
11
127.594
21
-60.3469
0
LINE
8
BLACK
6
CONTINUOUS
10
127.594
20
-60.3469
11
127.454
21
-60.1373
0
LINE
8
BLACK
6
CONTINUOUS
10
127.454
20
-60.1373
11
127.357
21
-59.9045
0
LINE
8
BLACK
6
CONTINUOUS
10
127.357
20
-59.9045
11
127.308
21
-59.6573
0
LINE
8
BLACK
6
CONTINUOUS
10
127.308
20
-59.6573
11
127.308
21
-59.4053
0
LINE
8
BLACK
6
CONTINUOUS
10
127.308
20
-59.4053
11
127.357
21
-59.1581
0
LINE
8
BLACK
6
CONTINUOUS
10
127.52
20
-59.8551
11
127.604
21
-60.0572
0
LINE
8
BLACK
6
CONTINUOUS
10
127.604
20
-60.0572
11
127.725
21
-60.239
0
LINE
8
BLACK
6
CONTINUOUS
10
127.725
20
-60.239
11
127.88
21
-60.3937
0
LINE
8
BLACK
6
CONTINUOUS
10
127.88
20
-60.3937
11
128.062
21
-60.5152
0
LINE
8
BLACK
6
CONTINUOUS
10
128.062
20
-60.5152
11
128.264
21
-60.5989
0
LINE
8
BLACK
6
CONTINUOUS
10
128.264
20
-60.5989
11
128.478
21
-60.6416
0
LINE
8
BLACK
6
CONTINUOUS
10
128.478
20
-60.6416
11
128.697
21
-60.6416
0
LINE
8
BLACK
6
CONTINUOUS
10
128.697
20
-60.6416
11
128.911
21
-60.5989
0
LINE
8
BLACK
6
CONTINUOUS
10
128.911
20
-60.5989
11
129.114
21
-60.5152
0
LINE
8
BLACK
6
CONTINUOUS
10
129.114
20
-60.5152
11
129.295
21
-60.3937
0
LINE
8
BLACK
6
CONTINUOUS
10
129.295
20
-60.3937
11
129.45
21
-60.239
0
LINE
8
BLACK
6
CONTINUOUS
10
129.45
20
-60.239
11
129.572
21
-60.0572
0
LINE
8
BLACK
6
CONTINUOUS
10
129.572
20
-60.0572
11
129.655
21
-59.8551
0
LINE
8
BLACK
6
CONTINUOUS
10
129.655
20
-59.8551
11
129.698
21
-59.6407
0
LINE
8
BLACK
6
CONTINUOUS
10
129.698
20
-59.6407
11
129.698
21
-59.4219
0
LINE
8
BLACK
6
CONTINUOUS
10
129.698
20
-59.4219
11
129.655
21
-59.2075
0
LINE
8
BLACK
6
CONTINUOUS
10
129.655
20
-59.2075
11
129.572
21
-59.0054
0
LINE
8
BLACK
6
CONTINUOUS
10
129.572
20
-59.0054
11
129.45
21
-58.8236
0
LINE
8
BLACK
6
CONTINUOUS
10
129.45
20
-58.8236
11
129.295
21
-58.6689
0
LINE
8
BLACK
6
CONTINUOUS
10
129.295
20
-58.6689
11
129.114
21
-58.5474
0
LINE
8
BLACK
6
CONTINUOUS
10
129.114
20
-58.5474
11
128.911
21
-58.4637
0
LINE
8
BLACK
6
CONTINUOUS
10
128.911
20
-58.4637
11
128.697
21
-58.421
0
LINE
8
BLACK
6
CONTINUOUS
10
128.697
20
-58.421
11
128.478
21
-58.421
0
LINE
8
BLACK
6
CONTINUOUS
10
128.478
20
-58.421
11
128.264
21
-58.4637
0
LINE
8
BLACK
6
CONTINUOUS
10
128.264
20
-58.4637
11
128.062
21
-58.5474
0
LINE
8
BLACK
6
CONTINUOUS
10
128.062
20
-58.5474
11
127.88
21
-58.6689
0
LINE
8
BLACK
6
CONTINUOUS
10
127.88
20
-58.6689
11
127.725
21
-58.8236
0
LINE
8
BLACK
6
CONTINUOUS
10
127.725
20
-58.8236
11
127.604
21
-59.0054
0
LINE
8
BLACK
6
CONTINUOUS
10
127.604
20
-59.0054
11
127.52
21
-59.2075
0
LINE
8
BLACK
6
CONTINUOUS
10
127.52
20
-59.2075
11
127.477
21
-59.4219
0
LINE
8
BLACK
6
CONTINUOUS
10
127.477
20
-59.4219
11
127.477
21
-59.6407
0
LINE
8
BLACK
6
CONTINUOUS
10
127.477
20
-59.6407
11
127.52
21
-59.8551
  0
ENDSEC
  0
EOF
