  0
SECTION
  2
HEADER
  9
$ANGBASE
  50
0.0
  9
$ANGDIR
  70
1
  9
$MEASUREMENT
  70
0
  0
ENDSEC
  0
SECTION
  2
TABLES
  0
TABLE
  2
LTYPE
  70
4
  0
LTYPE
  5
40F
  2
CONTINUOUS
  70
0
  3
Solid line
  72
65
  73
0
  40
0.0
  0
LTYPE
  5
410
  2
DASHDOT
 70
0
  3
Dash Dot ____ _ ____ _
 72
65
 73
4
 40
2.0
 49
1.25
 49
-0.25
 49
0.25
 49
-0.25
  0
LTYPE
  5
411
  2
DASHED
 70
0
  3
Dashed __ __ __ __ __
 72
65
 73
2
 40
0.75
 49
0.5
 49
-0.25
  0
LTYPE
  5
43B
  2
DOTTED
 70
0
  3
Dotted .  .  .  .
 72
65
 73
2
 40
0.2
 49
0.0
 49
-0.2
  0
ENDTAB
  0
TABLE
  2
STYLE
  70
4
  0
STYLE
  2
KICAD
  70
0
  40
0
  41
1
  42
1
  50
0
  71
0
  3
isocp.shx
  0
STYLE
  2
KICADB
  70
0
  40
0
  41
1
  42
1
  50
0
  71
0
  3
isocp.shx
  0
STYLE
  2
KICADI
  70
0
  40
0
  41
1
  42
1
  50
15
  71
0
  3
isocp.shx
  0
STYLE
  2
KICADBI
  70
0
  40
0
  41
1
  42
1
  50
15
  71
0
  3
isocp.shx
  0
ENDTAB
  0
TABLE
  2
LAYER
  70
1
  0
LAYER
  2
BLACK
  70
0
  62
7
  6
CONTINUOUS
  0
ENDTAB
  0
ENDSEC
  0
SECTION
  2
ENTITIES
0
LINE
8
BLACK
6
CONTINUOUS
10
4.03125
20
-5.72073
11
4.03116
21
-5.72072
0
LINE
8
BLACK
6
CONTINUOUS
10
4.03116
20
-5.72072
11
4.03087
21
-5.72069
0
LINE
8
BLACK
6
CONTINUOUS
10
4.03087
20
-5.72069
11
4.0305
21
-5.72058
0
LINE
8
BLACK
6
CONTINUOUS
10
4.0305
20
-5.72058
11
4.03015
21
-5.7204
0
LINE
8
BLACK
6
CONTINUOUS
10
4.03015
20
-5.7204
11
4.02985
21
-5.72015
0
LINE
8
BLACK
6
CONTINUOUS
10
4.02985
20
-5.72015
11
4.02961
21
-5.71985
0
LINE
8
BLACK
6
CONTINUOUS
10
4.02961
20
-5.71985
11
4.02943
21
-5.71951
0
LINE
8
BLACK
6
CONTINUOUS
10
4.02943
20
-5.71951
11
4.02931
21
-5.71914
0
LINE
8
BLACK
6
CONTINUOUS
10
4.02931
20
-5.71914
11
4.02928
21
-5.71875
0
LINE
8
BLACK
6
CONTINUOUS
10
4.02928
20
-5.71875
11
4.02928
21
-5.71866
0
LINE
8
BLACK
6
CONTINUOUS
10
4.02928
20
-5.71866
11
4.02928
21
-1.96885
0
LINE
8
BLACK
6
CONTINUOUS
10
4.02928
20
-1.96885
11
4.02928
21
-1.96875
0
LINE
8
BLACK
6
CONTINUOUS
10
4.02928
20
-1.96875
11
4.02931
21
-1.96837
0
LINE
8
BLACK
6
CONTINUOUS
10
4.02931
20
-1.96837
11
4.02943
21
-1.96799
0
LINE
8
BLACK
6
CONTINUOUS
10
4.02943
20
-1.96799
11
4.02961
21
-1.96765
0
LINE
8
BLACK
6
CONTINUOUS
10
4.02961
20
-1.96765
11
4.02985
21
-1.96735
0
LINE
8
BLACK
6
CONTINUOUS
10
4.02985
20
-1.96735
11
4.03015
21
-1.96711
0
LINE
8
BLACK
6
CONTINUOUS
10
4.03015
20
-1.96711
11
4.0305
21
-1.96692
0
LINE
8
BLACK
6
CONTINUOUS
10
4.0305
20
-1.96692
11
4.03087
21
-1.96681
0
LINE
8
BLACK
6
CONTINUOUS
10
4.03087
20
-1.96681
11
4.03116
21
-1.96678
0
LINE
8
BLACK
6
CONTINUOUS
10
4.03116
20
-1.96678
11
4.03125
21
-1.96677
0
LINE
8
BLACK
6
CONTINUOUS
10
4.03125
20
-1.96677
11
4.03135
21
-1.96678
0
LINE
8
BLACK
6
CONTINUOUS
10
4.03135
20
-1.96678
11
8.46104
21
-1.96678
0
LINE
8
BLACK
6
CONTINUOUS
10
8.46104
20
-1.96678
11
8.46114
21
-1.96679
0
LINE
8
BLACK
6
CONTINUOUS
10
8.46114
20
-1.96679
11
8.46114
21
-1.96679
0
LINE
8
BLACK
6
CONTINUOUS
10
8.46114
20
-1.96679
11
8.47479
21
-1.96813
0
LINE
8
BLACK
6
CONTINUOUS
10
8.47479
20
-1.96813
11
8.47479
21
-1.96813
0
LINE
8
BLACK
6
CONTINUOUS
10
8.47479
20
-1.96813
11
8.47479
21
-1.96813
0
LINE
8
BLACK
6
CONTINUOUS
10
8.47479
20
-1.96813
11
8.47482
21
-1.96813
0
LINE
8
BLACK
6
CONTINUOUS
10
8.47482
20
-1.96813
11
8.47499
21
-1.96817
0
LINE
8
BLACK
6
CONTINUOUS
10
8.47499
20
-1.96817
11
8.47517
21
-1.96821
0
LINE
8
BLACK
6
CONTINUOUS
10
8.47517
20
-1.96821
11
8.48831
21
-1.97217
0
LINE
8
BLACK
6
CONTINUOUS
10
8.48831
20
-1.97217
11
8.48833
21
-1.97218
0
LINE
8
BLACK
6
CONTINUOUS
10
8.48833
20
-1.97218
11
8.4885
21
-1.97225
0
LINE
8
BLACK
6
CONTINUOUS
10
8.4885
20
-1.97225
11
8.48866
21
-1.97232
0
LINE
8
BLACK
6
CONTINUOUS
10
8.48866
20
-1.97232
11
8.50078
21
-1.97876
0
LINE
8
BLACK
6
CONTINUOUS
10
8.50078
20
-1.97876
11
8.50078
21
-1.97876
0
LINE
8
BLACK
6
CONTINUOUS
10
8.50078
20
-1.97876
11
8.50078
21
-1.97876
0
LINE
8
BLACK
6
CONTINUOUS
10
8.50078
20
-1.97876
11
8.5008
21
-1.97877
0
LINE
8
BLACK
6
CONTINUOUS
10
8.5008
20
-1.97877
11
8.50095
21
-1.97887
0
LINE
8
BLACK
6
CONTINUOUS
10
8.50095
20
-1.97887
11
8.5011
21
-1.97897
0
LINE
8
BLACK
6
CONTINUOUS
10
8.5011
20
-1.97897
11
8.51173
21
-1.98765
0
LINE
8
BLACK
6
CONTINUOUS
10
8.51173
20
-1.98765
11
8.51173
21
-1.98765
0
LINE
8
BLACK
6
CONTINUOUS
10
8.51173
20
-1.98765
11
8.51173
21
-1.98765
0
LINE
8
BLACK
6
CONTINUOUS
10
8.51173
20
-1.98765
11
8.51175
21
-1.98766
0
LINE
8
BLACK
6
CONTINUOUS
10
8.51175
20
-1.98766
11
8.51188
21
-1.98779
0
LINE
8
BLACK
6
CONTINUOUS
10
8.51188
20
-1.98779
11
8.51201
21
-1.98792
0
LINE
8
BLACK
6
CONTINUOUS
10
8.51201
20
-1.98792
11
8.52075
21
-1.99849
0
LINE
8
BLACK
6
CONTINUOUS
10
8.52075
20
-1.99849
11
8.52077
21
-1.99851
0
LINE
8
BLACK
6
CONTINUOUS
10
8.52077
20
-1.99851
11
8.52087
21
-1.99866
0
LINE
8
BLACK
6
CONTINUOUS
10
8.52087
20
-1.99866
11
8.52097
21
-1.99881
0
LINE
8
BLACK
6
CONTINUOUS
10
8.52097
20
-1.99881
11
8.52749
21
-2.01088
0
LINE
8
BLACK
6
CONTINUOUS
10
8.52749
20
-2.01088
11
8.52749
21
-2.01088
0
LINE
8
BLACK
6
CONTINUOUS
10
8.52749
20
-2.01088
11
8.52749
21
-2.01088
0
LINE
8
BLACK
6
CONTINUOUS
10
8.52749
20
-2.01088
11
8.52751
21
-2.01091
0
LINE
8
BLACK
6
CONTINUOUS
10
8.52751
20
-2.01091
11
8.52757
21
-2.01107
0
LINE
8
BLACK
6
CONTINUOUS
10
8.52757
20
-2.01107
11
8.52764
21
-2.01123
0
LINE
8
BLACK
6
CONTINUOUS
10
8.52764
20
-2.01123
11
8.5317
21
-2.02434
0
LINE
8
BLACK
6
CONTINUOUS
10
8.5317
20
-2.02434
11
8.53171
21
-2.02437
0
LINE
8
BLACK
6
CONTINUOUS
10
8.53171
20
-2.02437
11
8.53174
21
-2.02454
0
LINE
8
BLACK
6
CONTINUOUS
10
8.53174
20
-2.02454
11
8.53178
21
-2.02472
0
LINE
8
BLACK
6
CONTINUOUS
10
8.53178
20
-2.02472
11
8.53321
21
-2.03837
0
LINE
8
BLACK
6
CONTINUOUS
10
8.53321
20
-2.03837
11
8.53322
21
-2.03839
0
LINE
8
BLACK
6
CONTINUOUS
10
8.53322
20
-2.03839
11
8.53322
21
-2.03848
0
LINE
8
BLACK
6
CONTINUOUS
10
8.53322
20
-2.03848
11
8.53322
21
-2.03857
0
LINE
8
BLACK
6
CONTINUOUS
10
8.53322
20
-2.03857
11
8.53323
21
-2.03896
0
LINE
8
BLACK
6
CONTINUOUS
10
8.53323
20
-2.03896
11
8.53323
21
-2.03897
0
LINE
8
BLACK
6
CONTINUOUS
10
8.53323
20
-2.03897
11
8.53323
21
-4.12491
0
LINE
8
BLACK
6
CONTINUOUS
10
8.53323
20
-4.12491
11
8.53324
21
-4.125
0
LINE
8
BLACK
6
CONTINUOUS
10
8.53324
20
-4.125
11
8.53323
21
-4.1251
0
LINE
8
BLACK
6
CONTINUOUS
10
8.53323
20
-4.1251
11
8.5332
21
-4.12539
0
LINE
8
BLACK
6
CONTINUOUS
10
8.5332
20
-4.12539
11
8.53308
21
-4.12576
0
LINE
8
BLACK
6
CONTINUOUS
10
8.53308
20
-4.12576
11
8.5329
21
-4.1261
0
LINE
8
BLACK
6
CONTINUOUS
10
8.5329
20
-4.1261
11
8.53266
21
-4.1264
0
LINE
8
BLACK
6
CONTINUOUS
10
8.53266
20
-4.1264
11
8.53236
21
-4.12665
0
LINE
8
BLACK
6
CONTINUOUS
10
8.53236
20
-4.12665
11
8.53201
21
-4.12683
0
LINE
8
BLACK
6
CONTINUOUS
10
8.53201
20
-4.12683
11
8.53164
21
-4.12694
0
LINE
8
BLACK
6
CONTINUOUS
10
8.53164
20
-4.12694
11
8.53126
21
-4.12698
0
LINE
8
BLACK
6
CONTINUOUS
10
8.53126
20
-4.12698
11
8.53116
21
-4.12697
0
LINE
8
BLACK
6
CONTINUOUS
10
8.53116
20
-4.12697
11
8.43756
21
-4.12697
0
LINE
8
BLACK
6
CONTINUOUS
10
8.43756
20
-4.12697
11
8.4375
21
-4.12698
0
LINE
8
BLACK
6
CONTINUOUS
10
8.4375
20
-4.12698
11
8.43744
21
-4.12697
0
LINE
8
BLACK
6
CONTINUOUS
10
8.43744
20
-4.12697
11
8.43741
21
-4.12697
0
LINE
8
BLACK
6
CONTINUOUS
10
8.43741
20
-4.12697
11
8.43712
21
-4.12694
0
LINE
8
BLACK
6
CONTINUOUS
10
8.43712
20
-4.12694
11
8.43675
21
-4.12683
0
LINE
8
BLACK
6
CONTINUOUS
10
8.43675
20
-4.12683
11
8.43674
21
-4.12683
0
LINE
8
BLACK
6
CONTINUOUS
10
8.43674
20
-4.12683
11
8.43674
21
-4.12683
0
LINE
8
BLACK
6
CONTINUOUS
10
8.43674
20
-4.12683
11
8.4364
21
-4.12664
0
LINE
8
BLACK
6
CONTINUOUS
10
8.4364
20
-4.12664
11
8.4361
21
-4.1264
0
LINE
8
BLACK
6
CONTINUOUS
10
8.4361
20
-4.1264
11
8.43586
21
-4.1261
0
LINE
8
BLACK
6
CONTINUOUS
10
8.43586
20
-4.1261
11
8.43567
21
-4.12576
0
LINE
8
BLACK
6
CONTINUOUS
10
8.43567
20
-4.12576
11
8.43556
21
-4.12539
0
LINE
8
BLACK
6
CONTINUOUS
10
8.43556
20
-4.12539
11
8.43553
21
-4.1251
0
LINE
8
BLACK
6
CONTINUOUS
10
8.43553
20
-4.1251
11
8.43553
21
-4.12503
0
LINE
8
BLACK
6
CONTINUOUS
10
8.43553
20
-4.12503
11
8.43553
21
-4.125
0
LINE
8
BLACK
6
CONTINUOUS
10
8.43553
20
-4.125
11
8.43553
21
-4.12498
0
LINE
8
BLACK
6
CONTINUOUS
10
8.43553
20
-4.12498
11
8.43553
21
-3.56447
0
LINE
8
BLACK
6
CONTINUOUS
10
8.43553
20
-3.56447
11
7.87697
21
-3.56447
0
LINE
8
BLACK
6
CONTINUOUS
10
7.87697
20
-3.56447
11
7.87697
21
-4.12303
0
LINE
8
BLACK
6
CONTINUOUS
10
7.87697
20
-4.12303
11
8.27335
21
-4.12303
0
LINE
8
BLACK
6
CONTINUOUS
10
8.27335
20
-4.12303
11
8.27344
21
-4.12303
0
LINE
8
BLACK
6
CONTINUOUS
10
8.27344
20
-4.12303
11
8.27354
21
-4.12303
0
LINE
8
BLACK
6
CONTINUOUS
10
8.27354
20
-4.12303
11
8.27383
21
-4.12306
0
LINE
8
BLACK
6
CONTINUOUS
10
8.27383
20
-4.12306
11
8.2742
21
-4.12318
0
LINE
8
BLACK
6
CONTINUOUS
10
8.2742
20
-4.12318
11
8.27454
21
-4.12336
0
LINE
8
BLACK
6
CONTINUOUS
10
8.27454
20
-4.12336
11
8.27484
21
-4.1236
0
LINE
8
BLACK
6
CONTINUOUS
10
8.27484
20
-4.1236
11
8.27509
21
-4.1239
0
LINE
8
BLACK
6
CONTINUOUS
10
8.27509
20
-4.1239
11
8.27527
21
-4.12425
0
LINE
8
BLACK
6
CONTINUOUS
10
8.27527
20
-4.12425
11
8.27538
21
-4.12462
0
LINE
8
BLACK
6
CONTINUOUS
10
8.27538
20
-4.12462
11
8.27542
21
-4.125
0
LINE
8
BLACK
6
CONTINUOUS
10
8.27542
20
-4.125
11
8.27541
21
-4.1251
0
LINE
8
BLACK
6
CONTINUOUS
10
8.27541
20
-4.1251
11
8.27541
21
-4.3124
0
LINE
8
BLACK
6
CONTINUOUS
10
8.27541
20
-4.3124
11
8.27542
21
-4.3125
0
LINE
8
BLACK
6
CONTINUOUS
10
8.27542
20
-4.3125
11
8.27541
21
-4.3126
0
LINE
8
BLACK
6
CONTINUOUS
10
8.27541
20
-4.3126
11
8.27538
21
-4.31289
0
LINE
8
BLACK
6
CONTINUOUS
10
8.27538
20
-4.31289
11
8.27527
21
-4.31326
0
LINE
8
BLACK
6
CONTINUOUS
10
8.27527
20
-4.31326
11
8.27509
21
-4.3136
0
LINE
8
BLACK
6
CONTINUOUS
10
8.27509
20
-4.3136
11
8.27484
21
-4.3139
0
LINE
8
BLACK
6
CONTINUOUS
10
8.27484
20
-4.3139
11
8.27454
21
-4.31414
0
LINE
8
BLACK
6
CONTINUOUS
10
8.27454
20
-4.31414
11
8.2742
21
-4.31433
0
LINE
8
BLACK
6
CONTINUOUS
10
8.2742
20
-4.31433
11
8.27383
21
-4.31444
0
LINE
8
BLACK
6
CONTINUOUS
10
8.27383
20
-4.31444
11
8.27344
21
-4.31448
0
LINE
8
BLACK
6
CONTINUOUS
10
8.27344
20
-4.31448
11
8.27335
21
-4.31447
0
LINE
8
BLACK
6
CONTINUOUS
10
8.27335
20
-4.31447
11
7.87697
21
-4.31447
0
LINE
8
BLACK
6
CONTINUOUS
10
7.87697
20
-4.31447
11
7.87697
21
-4.87303
0
LINE
8
BLACK
6
CONTINUOUS
10
7.87697
20
-4.87303
11
8.43553
21
-4.87303
0
LINE
8
BLACK
6
CONTINUOUS
10
8.43553
20
-4.87303
11
8.43553
21
-4.31253
0
LINE
8
BLACK
6
CONTINUOUS
10
8.43553
20
-4.31253
11
8.43553
21
-4.3125
0
LINE
8
BLACK
6
CONTINUOUS
10
8.43553
20
-4.3125
11
8.43553
21
-4.31248
0
LINE
8
BLACK
6
CONTINUOUS
10
8.43553
20
-4.31248
11
8.43553
21
-4.3124
0
LINE
8
BLACK
6
CONTINUOUS
10
8.43553
20
-4.3124
11
8.43556
21
-4.31211
0
LINE
8
BLACK
6
CONTINUOUS
10
8.43556
20
-4.31211
11
8.43567
21
-4.31174
0
LINE
8
BLACK
6
CONTINUOUS
10
8.43567
20
-4.31174
11
8.43586
21
-4.3114
0
LINE
8
BLACK
6
CONTINUOUS
10
8.43586
20
-4.3114
11
8.4361
21
-4.3111
0
LINE
8
BLACK
6
CONTINUOUS
10
8.4361
20
-4.3111
11
8.4364
21
-4.31086
0
LINE
8
BLACK
6
CONTINUOUS
10
8.4364
20
-4.31086
11
8.43674
21
-4.31067
0
LINE
8
BLACK
6
CONTINUOUS
10
8.43674
20
-4.31067
11
8.43711
21
-4.31056
0
LINE
8
BLACK
6
CONTINUOUS
10
8.43711
20
-4.31056
11
8.4375
21
-4.31052
0
LINE
8
BLACK
6
CONTINUOUS
10
8.4375
20
-4.31052
11
8.43763
21
-4.31054
0
LINE
8
BLACK
6
CONTINUOUS
10
8.43763
20
-4.31054
11
8.53116
21
-4.31054
0
LINE
8
BLACK
6
CONTINUOUS
10
8.53116
20
-4.31054
11
8.53126
21
-4.31053
0
LINE
8
BLACK
6
CONTINUOUS
10
8.53126
20
-4.31053
11
8.53135
21
-4.31054
0
LINE
8
BLACK
6
CONTINUOUS
10
8.53135
20
-4.31054
11
8.53164
21
-4.31056
0
LINE
8
BLACK
6
CONTINUOUS
10
8.53164
20
-4.31056
11
8.53201
21
-4.31068
0
LINE
8
BLACK
6
CONTINUOUS
10
8.53201
20
-4.31068
11
8.53236
21
-4.31086
0
LINE
8
BLACK
6
CONTINUOUS
10
8.53236
20
-4.31086
11
8.53266
21
-4.3111
0
LINE
8
BLACK
6
CONTINUOUS
10
8.53266
20
-4.3111
11
8.5329
21
-4.3114
0
LINE
8
BLACK
6
CONTINUOUS
10
8.5329
20
-4.3114
11
8.53308
21
-4.31175
0
LINE
8
BLACK
6
CONTINUOUS
10
8.53308
20
-4.31175
11
8.5332
21
-4.31212
0
LINE
8
BLACK
6
CONTINUOUS
10
8.5332
20
-4.31212
11
8.53324
21
-4.3125
0
LINE
8
BLACK
6
CONTINUOUS
10
8.53324
20
-4.3125
11
8.53323
21
-4.3126
0
LINE
8
BLACK
6
CONTINUOUS
10
8.53323
20
-4.3126
11
8.53323
21
-5.64854
0
LINE
8
BLACK
6
CONTINUOUS
10
8.53323
20
-5.64854
11
8.53322
21
-5.64863
0
LINE
8
BLACK
6
CONTINUOUS
10
8.53322
20
-5.64863
11
8.53322
21
-5.64863
0
LINE
8
BLACK
6
CONTINUOUS
10
8.53322
20
-5.64863
11
8.53188
21
-5.66229
0
LINE
8
BLACK
6
CONTINUOUS
10
8.53188
20
-5.66229
11
8.53188
21
-5.66229
0
LINE
8
BLACK
6
CONTINUOUS
10
8.53188
20
-5.66229
11
8.53188
21
-5.66229
0
LINE
8
BLACK
6
CONTINUOUS
10
8.53188
20
-5.66229
11
8.53187
21
-5.66232
0
LINE
8
BLACK
6
CONTINUOUS
10
8.53187
20
-5.66232
11
8.53184
21
-5.66249
0
LINE
8
BLACK
6
CONTINUOUS
10
8.53184
20
-5.66249
11
8.5318
21
-5.66267
0
LINE
8
BLACK
6
CONTINUOUS
10
8.5318
20
-5.66267
11
8.52784
21
-5.67581
0
LINE
8
BLACK
6
CONTINUOUS
10
8.52784
20
-5.67581
11
8.52783
21
-5.67583
0
LINE
8
BLACK
6
CONTINUOUS
10
8.52783
20
-5.67583
11
8.52776
21
-5.676
0
LINE
8
BLACK
6
CONTINUOUS
10
8.52776
20
-5.676
11
8.52769
21
-5.67616
0
LINE
8
BLACK
6
CONTINUOUS
10
8.52769
20
-5.67616
11
8.52125
21
-5.68828
0
LINE
8
BLACK
6
CONTINUOUS
10
8.52125
20
-5.68828
11
8.52125
21
-5.68828
0
LINE
8
BLACK
6
CONTINUOUS
10
8.52125
20
-5.68828
11
8.52125
21
-5.68828
0
LINE
8
BLACK
6
CONTINUOUS
10
8.52125
20
-5.68828
11
8.52123
21
-5.6883
0
LINE
8
BLACK
6
CONTINUOUS
10
8.52123
20
-5.6883
11
8.52113
21
-5.68845
0
LINE
8
BLACK
6
CONTINUOUS
10
8.52113
20
-5.68845
11
8.52103
21
-5.6886
0
LINE
8
BLACK
6
CONTINUOUS
10
8.52103
20
-5.6886
11
8.51236
21
-5.69923
0
LINE
8
BLACK
6
CONTINUOUS
10
8.51236
20
-5.69923
11
8.51234
21
-5.69925
0
LINE
8
BLACK
6
CONTINUOUS
10
8.51234
20
-5.69925
11
8.51222
21
-5.69938
0
LINE
8
BLACK
6
CONTINUOUS
10
8.51222
20
-5.69938
11
8.51209
21
-5.6995
0
LINE
8
BLACK
6
CONTINUOUS
10
8.51209
20
-5.6995
11
8.50152
21
-5.70825
0
LINE
8
BLACK
6
CONTINUOUS
10
8.50152
20
-5.70825
11
8.50152
21
-5.70825
0
LINE
8
BLACK
6
CONTINUOUS
10
8.50152
20
-5.70825
11
8.50152
21
-5.70825
0
LINE
8
BLACK
6
CONTINUOUS
10
8.50152
20
-5.70825
11
8.5015
21
-5.70827
0
LINE
8
BLACK
6
CONTINUOUS
10
8.5015
20
-5.70827
11
8.50135
21
-5.70837
0
LINE
8
BLACK
6
CONTINUOUS
10
8.50135
20
-5.70837
11
8.5012
21
-5.70847
0
LINE
8
BLACK
6
CONTINUOUS
10
8.5012
20
-5.70847
11
8.48913
21
-5.71499
0
LINE
8
BLACK
6
CONTINUOUS
10
8.48913
20
-5.71499
11
8.48913
21
-5.71499
0
LINE
8
BLACK
6
CONTINUOUS
10
8.48913
20
-5.71499
11
8.48913
21
-5.71499
0
LINE
8
BLACK
6
CONTINUOUS
10
8.48913
20
-5.71499
11
8.4891
21
-5.71501
0
LINE
8
BLACK
6
CONTINUOUS
10
8.4891
20
-5.71501
11
8.48894
21
-5.71507
0
LINE
8
BLACK
6
CONTINUOUS
10
8.48894
20
-5.71507
11
8.48877
21
-5.71514
0
LINE
8
BLACK
6
CONTINUOUS
10
8.48877
20
-5.71514
11
8.47567
21
-5.7192
0
LINE
8
BLACK
6
CONTINUOUS
10
8.47567
20
-5.7192
11
8.47564
21
-5.71921
0
LINE
8
BLACK
6
CONTINUOUS
10
8.47564
20
-5.71921
11
8.47546
21
-5.71924
0
LINE
8
BLACK
6
CONTINUOUS
10
8.47546
20
-5.71924
11
8.47529
21
-5.71928
0
LINE
8
BLACK
6
CONTINUOUS
10
8.47529
20
-5.71928
11
8.46164
21
-5.72071
0
LINE
8
BLACK
6
CONTINUOUS
10
8.46164
20
-5.72071
11
8.46161
21
-5.72071
0
LINE
8
BLACK
6
CONTINUOUS
10
8.46161
20
-5.72071
11
8.46153
21
-5.72071
0
LINE
8
BLACK
6
CONTINUOUS
10
8.46153
20
-5.72071
11
8.46144
21
-5.72072
0
LINE
8
BLACK
6
CONTINUOUS
10
8.46144
20
-5.72072
11
8.46104
21
-5.72072
0
LINE
8
BLACK
6
CONTINUOUS
10
8.46104
20
-5.72072
11
8.46104
21
-5.72072
0
LINE
8
BLACK
6
CONTINUOUS
10
8.46104
20
-5.72072
11
4.03135
21
-5.72072
0
LINE
8
BLACK
6
CONTINUOUS
10
4.03135
20
-5.72072
11
4.03125
21
-5.72073
0
LINE
8
BLACK
6
CONTINUOUS
10
4.03322
20
-1.97072
11
4.03322
21
-5.71679
0
LINE
8
BLACK
6
CONTINUOUS
10
4.03322
20
-5.71679
11
8.46094
21
-5.71679
0
LINE
8
BLACK
6
CONTINUOUS
10
8.46094
20
-5.71679
11
8.46133
21
-5.71678
0
LINE
8
BLACK
6
CONTINUOUS
10
8.46133
20
-5.71678
11
8.47469
21
-5.71538
0
LINE
8
BLACK
6
CONTINUOUS
10
8.47469
20
-5.71538
11
8.48743
21
-5.71144
0
LINE
8
BLACK
6
CONTINUOUS
10
8.48743
20
-5.71144
11
8.49916
21
-5.70509
0
LINE
8
BLACK
6
CONTINUOUS
10
8.49916
20
-5.70509
11
8.50943
21
-5.69659
0
LINE
8
BLACK
6
CONTINUOUS
10
8.50943
20
-5.69659
11
8.51786
21
-5.68626
0
LINE
8
BLACK
6
CONTINUOUS
10
8.51786
20
-5.68626
11
8.52412
21
-5.67448
0
LINE
8
BLACK
6
CONTINUOUS
10
8.52412
20
-5.67448
11
8.52798
21
-5.66172
0
LINE
8
BLACK
6
CONTINUOUS
10
8.52798
20
-5.66172
11
8.52929
21
-5.64835
0
LINE
8
BLACK
6
CONTINUOUS
10
8.52929
20
-5.64835
11
8.52929
21
-4.31447
0
LINE
8
BLACK
6
CONTINUOUS
10
8.52929
20
-4.31447
11
8.43947
21
-4.31447
0
LINE
8
BLACK
6
CONTINUOUS
10
8.43947
20
-4.31447
11
8.43947
21
-4.8749
0
LINE
8
BLACK
6
CONTINUOUS
10
8.43947
20
-4.8749
11
8.43948
21
-4.875
0
LINE
8
BLACK
6
CONTINUOUS
10
8.43948
20
-4.875
11
8.43947
21
-4.8751
0
LINE
8
BLACK
6
CONTINUOUS
10
8.43947
20
-4.8751
11
8.43947
21
-4.8751
0
LINE
8
BLACK
6
CONTINUOUS
10
8.43947
20
-4.8751
11
8.43944
21
-4.87539
0
LINE
8
BLACK
6
CONTINUOUS
10
8.43944
20
-4.87539
11
8.43933
21
-4.87576
0
LINE
8
BLACK
6
CONTINUOUS
10
8.43933
20
-4.87576
11
8.43914
21
-4.8761
0
LINE
8
BLACK
6
CONTINUOUS
10
8.43914
20
-4.8761
11
8.4389
21
-4.8764
0
LINE
8
BLACK
6
CONTINUOUS
10
8.4389
20
-4.8764
11
8.4386
21
-4.87664
0
LINE
8
BLACK
6
CONTINUOUS
10
8.4386
20
-4.87664
11
8.43826
21
-4.87683
0
LINE
8
BLACK
6
CONTINUOUS
10
8.43826
20
-4.87683
11
8.43789
21
-4.87694
0
LINE
8
BLACK
6
CONTINUOUS
10
8.43789
20
-4.87694
11
8.4375
21
-4.87698
0
LINE
8
BLACK
6
CONTINUOUS
10
8.4375
20
-4.87698
11
8.4374
21
-4.87697
0
LINE
8
BLACK
6
CONTINUOUS
10
8.4374
20
-4.87697
11
7.8751
21
-4.87697
0
LINE
8
BLACK
6
CONTINUOUS
10
7.8751
20
-4.87697
11
7.875
21
-4.87698
0
LINE
8
BLACK
6
CONTINUOUS
10
7.875
20
-4.87698
11
7.87461
21
-4.87694
0
LINE
8
BLACK
6
CONTINUOUS
10
7.87461
20
-4.87694
11
7.87424
21
-4.87683
0
LINE
8
BLACK
6
CONTINUOUS
10
7.87424
20
-4.87683
11
7.8739
21
-4.87664
0
LINE
8
BLACK
6
CONTINUOUS
10
7.8739
20
-4.87664
11
7.8736
21
-4.8764
0
LINE
8
BLACK
6
CONTINUOUS
10
7.8736
20
-4.8764
11
7.87336
21
-4.8761
0
LINE
8
BLACK
6
CONTINUOUS
10
7.87336
20
-4.8761
11
7.87317
21
-4.87576
0
LINE
8
BLACK
6
CONTINUOUS
10
7.87317
20
-4.87576
11
7.87306
21
-4.87539
0
LINE
8
BLACK
6
CONTINUOUS
10
7.87306
20
-4.87539
11
7.87302
21
-4.875
0
LINE
8
BLACK
6
CONTINUOUS
10
7.87302
20
-4.875
11
7.87303
21
-4.8749
0
LINE
8
BLACK
6
CONTINUOUS
10
7.87303
20
-4.8749
11
7.87303
21
-4.3126
0
LINE
8
BLACK
6
CONTINUOUS
10
7.87303
20
-4.3126
11
7.87302
21
-4.3125
0
LINE
8
BLACK
6
CONTINUOUS
10
7.87302
20
-4.3125
11
7.87306
21
-4.31211
0
LINE
8
BLACK
6
CONTINUOUS
10
7.87306
20
-4.31211
11
7.87317
21
-4.31174
0
LINE
8
BLACK
6
CONTINUOUS
10
7.87317
20
-4.31174
11
7.87336
21
-4.3114
0
LINE
8
BLACK
6
CONTINUOUS
10
7.87336
20
-4.3114
11
7.8736
21
-4.3111
0
LINE
8
BLACK
6
CONTINUOUS
10
7.8736
20
-4.3111
11
7.8739
21
-4.31086
0
LINE
8
BLACK
6
CONTINUOUS
10
7.8739
20
-4.31086
11
7.87424
21
-4.31067
0
LINE
8
BLACK
6
CONTINUOUS
10
7.87424
20
-4.31067
11
7.87461
21
-4.31056
0
LINE
8
BLACK
6
CONTINUOUS
10
7.87461
20
-4.31056
11
7.8749
21
-4.31053
0
LINE
8
BLACK
6
CONTINUOUS
10
7.8749
20
-4.31053
11
7.875
21
-4.31052
0
LINE
8
BLACK
6
CONTINUOUS
10
7.875
20
-4.31052
11
7.8751
21
-4.31053
0
LINE
8
BLACK
6
CONTINUOUS
10
7.8751
20
-4.31053
11
8.27148
21
-4.31053
0
LINE
8
BLACK
6
CONTINUOUS
10
8.27148
20
-4.31053
11
8.27148
21
-4.12697
0
LINE
8
BLACK
6
CONTINUOUS
10
8.27148
20
-4.12697
11
7.87506
21
-4.12697
0
LINE
8
BLACK
6
CONTINUOUS
10
7.87506
20
-4.12697
11
7.875
21
-4.12698
0
LINE
8
BLACK
6
CONTINUOUS
10
7.875
20
-4.12698
11
7.87494
21
-4.12697
0
LINE
8
BLACK
6
CONTINUOUS
10
7.87494
20
-4.12697
11
7.8749
21
-4.12697
0
LINE
8
BLACK
6
CONTINUOUS
10
7.8749
20
-4.12697
11
7.87461
21
-4.12694
0
LINE
8
BLACK
6
CONTINUOUS
10
7.87461
20
-4.12694
11
7.87424
21
-4.12683
0
LINE
8
BLACK
6
CONTINUOUS
10
7.87424
20
-4.12683
11
7.8739
21
-4.12665
0
LINE
8
BLACK
6
CONTINUOUS
10
7.8739
20
-4.12665
11
7.8736
21
-4.1264
0
LINE
8
BLACK
6
CONTINUOUS
10
7.8736
20
-4.1264
11
7.87336
21
-4.1261
0
LINE
8
BLACK
6
CONTINUOUS
10
7.87336
20
-4.1261
11
7.87317
21
-4.12576
0
LINE
8
BLACK
6
CONTINUOUS
10
7.87317
20
-4.12576
11
7.87306
21
-4.12539
0
LINE
8
BLACK
6
CONTINUOUS
10
7.87306
20
-4.12539
11
7.87302
21
-4.125
0
LINE
8
BLACK
6
CONTINUOUS
10
7.87302
20
-4.125
11
7.87303
21
-4.12491
0
LINE
8
BLACK
6
CONTINUOUS
10
7.87303
20
-4.12491
11
7.87303
21
-3.5626
0
LINE
8
BLACK
6
CONTINUOUS
10
7.87303
20
-3.5626
11
7.87302
21
-3.5625
0
LINE
8
BLACK
6
CONTINUOUS
10
7.87302
20
-3.5625
11
7.87306
21
-3.56211
0
LINE
8
BLACK
6
CONTINUOUS
10
7.87306
20
-3.56211
11
7.87317
21
-3.56174
0
LINE
8
BLACK
6
CONTINUOUS
10
7.87317
20
-3.56174
11
7.87336
21
-3.5614
0
LINE
8
BLACK
6
CONTINUOUS
10
7.87336
20
-3.5614
11
7.8736
21
-3.5611
0
LINE
8
BLACK
6
CONTINUOUS
10
7.8736
20
-3.5611
11
7.8739
21
-3.56086
0
LINE
8
BLACK
6
CONTINUOUS
10
7.8739
20
-3.56086
11
7.87424
21
-3.56067
0
LINE
8
BLACK
6
CONTINUOUS
10
7.87424
20
-3.56067
11
7.87461
21
-3.56056
0
LINE
8
BLACK
6
CONTINUOUS
10
7.87461
20
-3.56056
11
7.8749
21
-3.56053
0
LINE
8
BLACK
6
CONTINUOUS
10
7.8749
20
-3.56053
11
7.875
21
-3.56052
0
LINE
8
BLACK
6
CONTINUOUS
10
7.875
20
-3.56052
11
7.8751
21
-3.56053
0
LINE
8
BLACK
6
CONTINUOUS
10
7.8751
20
-3.56053
11
8.4374
21
-3.56053
0
LINE
8
BLACK
6
CONTINUOUS
10
8.4374
20
-3.56053
11
8.4375
21
-3.56052
0
LINE
8
BLACK
6
CONTINUOUS
10
8.4375
20
-3.56052
11
8.4376
21
-3.56053
0
LINE
8
BLACK
6
CONTINUOUS
10
8.4376
20
-3.56053
11
8.43789
21
-3.56056
0
LINE
8
BLACK
6
CONTINUOUS
10
8.43789
20
-3.56056
11
8.43826
21
-3.56067
0
LINE
8
BLACK
6
CONTINUOUS
10
8.43826
20
-3.56067
11
8.4386
21
-3.56086
0
LINE
8
BLACK
6
CONTINUOUS
10
8.4386
20
-3.56086
11
8.4389
21
-3.5611
0
LINE
8
BLACK
6
CONTINUOUS
10
8.4389
20
-3.5611
11
8.43914
21
-3.5614
0
LINE
8
BLACK
6
CONTINUOUS
10
8.43914
20
-3.5614
11
8.43933
21
-3.56174
0
LINE
8
BLACK
6
CONTINUOUS
10
8.43933
20
-3.56174
11
8.43944
21
-3.56211
0
LINE
8
BLACK
6
CONTINUOUS
10
8.43944
20
-3.56211
11
8.43948
21
-3.5625
0
LINE
8
BLACK
6
CONTINUOUS
10
8.43948
20
-3.5625
11
8.43947
21
-3.5626
0
LINE
8
BLACK
6
CONTINUOUS
10
8.43947
20
-3.5626
11
8.43947
21
-4.12303
0
LINE
8
BLACK
6
CONTINUOUS
10
8.43947
20
-4.12303
11
8.52929
21
-4.12303
0
LINE
8
BLACK
6
CONTINUOUS
10
8.52929
20
-4.12303
11
8.52929
21
-2.03907
0
LINE
8
BLACK
6
CONTINUOUS
10
8.52929
20
-2.03907
11
8.52929
21
-2.03868
0
LINE
8
BLACK
6
CONTINUOUS
10
8.52929
20
-2.03868
11
8.52788
21
-2.02532
0
LINE
8
BLACK
6
CONTINUOUS
10
8.52788
20
-2.02532
11
8.52394
21
-2.01258
0
LINE
8
BLACK
6
CONTINUOUS
10
8.52394
20
-2.01258
11
8.5176
21
-2.00085
0
LINE
8
BLACK
6
CONTINUOUS
10
8.5176
20
-2.00085
11
8.5091
21
-1.99058
0
LINE
8
BLACK
6
CONTINUOUS
10
8.5091
20
-1.99058
11
8.49876
21
-1.98215
0
LINE
8
BLACK
6
CONTINUOUS
10
8.49876
20
-1.98215
11
8.48699
21
-1.97589
0
LINE
8
BLACK
6
CONTINUOUS
10
8.48699
20
-1.97589
11
8.47422
21
-1.97203
0
LINE
8
BLACK
6
CONTINUOUS
10
8.47422
20
-1.97203
11
8.46085
21
-1.97072
0
LINE
8
BLACK
6
CONTINUOUS
10
8.46085
20
-1.97072
11
4.03322
21
-1.97072
0
LINE
8
BLACK
6
CONTINUOUS
10
5.34385
20
-5.01366
11
5.34414
21
-5.01369
0
LINE
8
BLACK
6
CONTINUOUS
10
5.34414
20
-5.01369
11
5.34451
21
-5.0138
0
LINE
8
BLACK
6
CONTINUOUS
10
5.34451
20
-5.0138
11
5.34485
21
-5.01398
0
LINE
8
BLACK
6
CONTINUOUS
10
5.34485
20
-5.01398
11
5.34515
21
-5.01423
0
LINE
8
BLACK
6
CONTINUOUS
10
5.34515
20
-5.01423
11
5.3454
21
-5.01453
0
LINE
8
BLACK
6
CONTINUOUS
10
5.3454
20
-5.01453
11
5.34558
21
-5.01487
0
LINE
8
BLACK
6
CONTINUOUS
10
5.34558
20
-5.01487
11
5.34569
21
-5.01524
0
LINE
8
BLACK
6
CONTINUOUS
10
5.34569
20
-5.01524
11
5.34573
21
-5.01563
0
LINE
8
BLACK
6
CONTINUOUS
10
5.34573
20
-5.01563
11
5.34572
21
-5.01573
0
LINE
8
BLACK
6
CONTINUOUS
10
5.34572
20
-5.01573
11
5.34572
21
-5.06054
0
LINE
8
BLACK
6
CONTINUOUS
10
5.34572
20
-5.06054
11
5.43736
21
-5.06054
0
LINE
8
BLACK
6
CONTINUOUS
10
5.43736
20
-5.06054
11
5.4375
21
-5.06052
0
LINE
8
BLACK
6
CONTINUOUS
10
5.4375
20
-5.06052
11
5.43789
21
-5.06056
0
LINE
8
BLACK
6
CONTINUOUS
10
5.43789
20
-5.06056
11
5.43826
21
-5.06067
0
LINE
8
BLACK
6
CONTINUOUS
10
5.43826
20
-5.06067
11
5.4386
21
-5.06086
0
LINE
8
BLACK
6
CONTINUOUS
10
5.4386
20
-5.06086
11
5.4389
21
-5.0611
0
LINE
8
BLACK
6
CONTINUOUS
10
5.4389
20
-5.0611
11
5.4389
21
-5.0611
0
LINE
8
BLACK
6
CONTINUOUS
10
5.4389
20
-5.0611
11
5.4389
21
-5.06111
0
LINE
8
BLACK
6
CONTINUOUS
10
5.4389
20
-5.06111
11
5.43915
21
-5.06141
0
LINE
8
BLACK
6
CONTINUOUS
10
5.43915
20
-5.06141
11
5.43933
21
-5.06175
0
LINE
8
BLACK
6
CONTINUOUS
10
5.43933
20
-5.06175
11
5.43944
21
-5.06212
0
LINE
8
BLACK
6
CONTINUOUS
10
5.43944
20
-5.06212
11
5.43948
21
-5.0625
0
LINE
8
BLACK
6
CONTINUOUS
10
5.43948
20
-5.0625
11
5.43947
21
-5.06265
0
LINE
8
BLACK
6
CONTINUOUS
10
5.43947
20
-5.06265
11
5.43947
21
-5.6249
0
LINE
8
BLACK
6
CONTINUOUS
10
5.43947
20
-5.6249
11
5.43948
21
-5.625
0
LINE
8
BLACK
6
CONTINUOUS
10
5.43948
20
-5.625
11
5.43944
21
-5.62539
0
LINE
8
BLACK
6
CONTINUOUS
10
5.43944
20
-5.62539
11
5.43933
21
-5.62576
0
LINE
8
BLACK
6
CONTINUOUS
10
5.43933
20
-5.62576
11
5.43914
21
-5.6261
0
LINE
8
BLACK
6
CONTINUOUS
10
5.43914
20
-5.6261
11
5.4389
21
-5.6264
0
LINE
8
BLACK
6
CONTINUOUS
10
5.4389
20
-5.6264
11
5.4386
21
-5.62664
0
LINE
8
BLACK
6
CONTINUOUS
10
5.4386
20
-5.62664
11
5.43826
21
-5.62683
0
LINE
8
BLACK
6
CONTINUOUS
10
5.43826
20
-5.62683
11
5.43789
21
-5.62694
0
LINE
8
BLACK
6
CONTINUOUS
10
5.43789
20
-5.62694
11
5.4376
21
-5.62697
0
LINE
8
BLACK
6
CONTINUOUS
10
5.4376
20
-5.62697
11
5.4375
21
-5.62698
0
LINE
8
BLACK
6
CONTINUOUS
10
5.4375
20
-5.62698
11
5.4374
21
-5.62697
0
LINE
8
BLACK
6
CONTINUOUS
10
5.4374
20
-5.62697
11
4.1251
21
-5.62697
0
LINE
8
BLACK
6
CONTINUOUS
10
4.1251
20
-5.62697
11
4.125
21
-5.62698
0
LINE
8
BLACK
6
CONTINUOUS
10
4.125
20
-5.62698
11
4.12461
21
-5.62694
0
LINE
8
BLACK
6
CONTINUOUS
10
4.12461
20
-5.62694
11
4.12424
21
-5.62683
0
LINE
8
BLACK
6
CONTINUOUS
10
4.12424
20
-5.62683
11
4.1239
21
-5.62664
0
LINE
8
BLACK
6
CONTINUOUS
10
4.1239
20
-5.62664
11
4.1236
21
-5.6264
0
LINE
8
BLACK
6
CONTINUOUS
10
4.1236
20
-5.6264
11
4.12336
21
-5.6261
0
LINE
8
BLACK
6
CONTINUOUS
10
4.12336
20
-5.6261
11
4.12317
21
-5.62576
0
LINE
8
BLACK
6
CONTINUOUS
10
4.12317
20
-5.62576
11
4.12306
21
-5.62539
0
LINE
8
BLACK
6
CONTINUOUS
10
4.12306
20
-5.62539
11
4.12302
21
-5.625
0
LINE
8
BLACK
6
CONTINUOUS
10
4.12302
20
-5.625
11
4.12303
21
-5.6249
0
LINE
8
BLACK
6
CONTINUOUS
10
4.12303
20
-5.6249
11
4.12303
21
-5.0626
0
LINE
8
BLACK
6
CONTINUOUS
10
4.12303
20
-5.0626
11
4.12302
21
-5.0625
0
LINE
8
BLACK
6
CONTINUOUS
10
4.12302
20
-5.0625
11
4.12306
21
-5.06211
0
LINE
8
BLACK
6
CONTINUOUS
10
4.12306
20
-5.06211
11
4.12317
21
-5.06174
0
LINE
8
BLACK
6
CONTINUOUS
10
4.12317
20
-5.06174
11
4.1233
21
-5.0615
0
LINE
8
BLACK
6
CONTINUOUS
10
4.1233
20
-5.0615
11
4.12336
21
-5.0614
0
LINE
8
BLACK
6
CONTINUOUS
10
4.12336
20
-5.0614
11
4.1236
21
-5.0611
0
LINE
8
BLACK
6
CONTINUOUS
10
4.1236
20
-5.0611
11
4.1239
21
-5.06086
0
LINE
8
BLACK
6
CONTINUOUS
10
4.1239
20
-5.06086
11
4.1239
21
-5.06086
0
LINE
8
BLACK
6
CONTINUOUS
10
4.1239
20
-5.06086
11
4.1239
21
-5.06086
0
LINE
8
BLACK
6
CONTINUOUS
10
4.1239
20
-5.06086
11
4.124
21
-5.0608
0
LINE
8
BLACK
6
CONTINUOUS
10
4.124
20
-5.0608
11
4.12424
21
-5.06067
0
LINE
8
BLACK
6
CONTINUOUS
10
4.12424
20
-5.06067
11
4.12461
21
-5.06056
0
LINE
8
BLACK
6
CONTINUOUS
10
4.12461
20
-5.06056
11
4.125
21
-5.06052
0
LINE
8
BLACK
6
CONTINUOUS
10
4.125
20
-5.06052
11
4.1251
21
-5.06053
0
LINE
8
BLACK
6
CONTINUOUS
10
4.1251
20
-5.06053
11
4.21679
21
-5.06054
0
LINE
8
BLACK
6
CONTINUOUS
10
4.21679
20
-5.06054
11
4.21679
21
-5.01573
0
LINE
8
BLACK
6
CONTINUOUS
10
4.21679
20
-5.01573
11
4.21678
21
-5.01563
0
LINE
8
BLACK
6
CONTINUOUS
10
4.21678
20
-5.01563
11
4.21681
21
-5.01524
0
LINE
8
BLACK
6
CONTINUOUS
10
4.21681
20
-5.01524
11
4.21693
21
-5.01487
0
LINE
8
BLACK
6
CONTINUOUS
10
4.21693
20
-5.01487
11
4.21711
21
-5.01453
0
LINE
8
BLACK
6
CONTINUOUS
10
4.21711
20
-5.01453
11
4.21735
21
-5.01423
0
LINE
8
BLACK
6
CONTINUOUS
10
4.21735
20
-5.01423
11
4.21765
21
-5.01398
0
LINE
8
BLACK
6
CONTINUOUS
10
4.21765
20
-5.01398
11
4.218
21
-5.0138
0
LINE
8
BLACK
6
CONTINUOUS
10
4.218
20
-5.0138
11
4.21837
21
-5.01369
0
LINE
8
BLACK
6
CONTINUOUS
10
4.21837
20
-5.01369
11
4.21866
21
-5.01366
0
LINE
8
BLACK
6
CONTINUOUS
10
4.21866
20
-5.01366
11
4.21875
21
-5.01365
0
LINE
8
BLACK
6
CONTINUOUS
10
4.21875
20
-5.01365
11
4.21885
21
-5.01366
0
LINE
8
BLACK
6
CONTINUOUS
10
4.21885
20
-5.01366
11
4.40616
21
-5.01366
0
LINE
8
BLACK
6
CONTINUOUS
10
4.40616
20
-5.01366
11
4.40625
21
-5.01365
0
LINE
8
BLACK
6
CONTINUOUS
10
4.40625
20
-5.01365
11
4.40635
21
-5.01366
0
LINE
8
BLACK
6
CONTINUOUS
10
4.40635
20
-5.01366
11
4.40664
21
-5.01369
0
LINE
8
BLACK
6
CONTINUOUS
10
4.40664
20
-5.01369
11
4.40701
21
-5.0138
0
LINE
8
BLACK
6
CONTINUOUS
10
4.40701
20
-5.0138
11
4.40735
21
-5.01398
0
LINE
8
BLACK
6
CONTINUOUS
10
4.40735
20
-5.01398
11
4.40765
21
-5.01423
0
LINE
8
BLACK
6
CONTINUOUS
10
4.40765
20
-5.01423
11
4.4079
21
-5.01453
0
LINE
8
BLACK
6
CONTINUOUS
10
4.4079
20
-5.01453
11
4.40808
21
-5.01487
0
LINE
8
BLACK
6
CONTINUOUS
10
4.40808
20
-5.01487
11
4.40819
21
-5.01524
0
LINE
8
BLACK
6
CONTINUOUS
10
4.40819
20
-5.01524
11
4.40823
21
-5.01563
0
LINE
8
BLACK
6
CONTINUOUS
10
4.40823
20
-5.01563
11
4.40822
21
-5.01573
0
LINE
8
BLACK
6
CONTINUOUS
10
4.40822
20
-5.01573
11
4.40822
21
-5.06054
0
LINE
8
BLACK
6
CONTINUOUS
10
4.40822
20
-5.06054
11
5.15429
21
-5.06054
0
LINE
8
BLACK
6
CONTINUOUS
10
5.15429
20
-5.06054
11
5.15429
21
-5.01573
0
LINE
8
BLACK
6
CONTINUOUS
10
5.15429
20
-5.01573
11
5.15428
21
-5.01563
0
LINE
8
BLACK
6
CONTINUOUS
10
5.15428
20
-5.01563
11
5.15431
21
-5.01524
0
LINE
8
BLACK
6
CONTINUOUS
10
5.15431
20
-5.01524
11
5.15443
21
-5.01487
0
LINE
8
BLACK
6
CONTINUOUS
10
5.15443
20
-5.01487
11
5.15461
21
-5.01453
0
LINE
8
BLACK
6
CONTINUOUS
10
5.15461
20
-5.01453
11
5.15486
21
-5.01423
0
LINE
8
BLACK
6
CONTINUOUS
10
5.15486
20
-5.01423
11
5.15516
21
-5.01398
0
LINE
8
BLACK
6
CONTINUOUS
10
5.15516
20
-5.01398
11
5.1555
21
-5.0138
0
LINE
8
BLACK
6
CONTINUOUS
10
5.1555
20
-5.0138
11
5.15587
21
-5.01369
0
LINE
8
BLACK
6
CONTINUOUS
10
5.15587
20
-5.01369
11
5.15616
21
-5.01366
0
LINE
8
BLACK
6
CONTINUOUS
10
5.15616
20
-5.01366
11
5.15625
21
-5.01365
0
LINE
8
BLACK
6
CONTINUOUS
10
5.15625
20
-5.01365
11
5.15635
21
-5.01366
0
LINE
8
BLACK
6
CONTINUOUS
10
5.15635
20
-5.01366
11
5.34366
21
-5.01366
0
LINE
8
BLACK
6
CONTINUOUS
10
5.34366
20
-5.01366
11
5.34375
21
-5.01365
0
LINE
8
BLACK
6
CONTINUOUS
10
5.34375
20
-5.01365
11
5.34385
21
-5.01366
0
LINE
8
BLACK
6
CONTINUOUS
10
5.15822
20
-5.0176
11
5.15822
21
-5.06241
0
LINE
8
BLACK
6
CONTINUOUS
10
5.15822
20
-5.06241
11
5.15823
21
-5.0625
0
LINE
8
BLACK
6
CONTINUOUS
10
5.15823
20
-5.0625
11
5.15822
21
-5.0626
0
LINE
8
BLACK
6
CONTINUOUS
10
5.15822
20
-5.0626
11
5.15822
21
-5.0626
0
LINE
8
BLACK
6
CONTINUOUS
10
5.15822
20
-5.0626
11
5.15819
21
-5.06289
0
LINE
8
BLACK
6
CONTINUOUS
10
5.15819
20
-5.06289
11
5.15808
21
-5.06326
0
LINE
8
BLACK
6
CONTINUOUS
10
5.15808
20
-5.06326
11
5.1579
21
-5.0636
0
LINE
8
BLACK
6
CONTINUOUS
10
5.1579
20
-5.0636
11
5.15765
21
-5.0639
0
LINE
8
BLACK
6
CONTINUOUS
10
5.15765
20
-5.0639
11
5.15735
21
-5.06415
0
LINE
8
BLACK
6
CONTINUOUS
10
5.15735
20
-5.06415
11
5.15701
21
-5.06433
0
LINE
8
BLACK
6
CONTINUOUS
10
5.15701
20
-5.06433
11
5.15664
21
-5.06444
0
LINE
8
BLACK
6
CONTINUOUS
10
5.15664
20
-5.06444
11
5.15625
21
-5.06448
0
LINE
8
BLACK
6
CONTINUOUS
10
5.15625
20
-5.06448
11
5.15616
21
-5.06447
0
LINE
8
BLACK
6
CONTINUOUS
10
5.15616
20
-5.06447
11
4.40635
21
-5.06447
0
LINE
8
BLACK
6
CONTINUOUS
10
4.40635
20
-5.06447
11
4.40625
21
-5.06448
0
LINE
8
BLACK
6
CONTINUOUS
10
4.40625
20
-5.06448
11
4.40587
21
-5.06444
0
LINE
8
BLACK
6
CONTINUOUS
10
4.40587
20
-5.06444
11
4.4055
21
-5.06433
0
LINE
8
BLACK
6
CONTINUOUS
10
4.4055
20
-5.06433
11
4.40515
21
-5.06415
0
LINE
8
BLACK
6
CONTINUOUS
10
4.40515
20
-5.06415
11
4.40486
21
-5.0639
0
LINE
8
BLACK
6
CONTINUOUS
10
4.40486
20
-5.0639
11
4.40485
21
-5.0639
0
LINE
8
BLACK
6
CONTINUOUS
10
4.40485
20
-5.0639
11
4.40461
21
-5.0636
0
LINE
8
BLACK
6
CONTINUOUS
10
4.40461
20
-5.0636
11
4.40443
21
-5.06326
0
LINE
8
BLACK
6
CONTINUOUS
10
4.40443
20
-5.06326
11
4.40431
21
-5.06289
0
LINE
8
BLACK
6
CONTINUOUS
10
4.40431
20
-5.06289
11
4.40428
21
-5.0625
0
LINE
8
BLACK
6
CONTINUOUS
10
4.40428
20
-5.0625
11
4.40429
21
-5.06241
0
LINE
8
BLACK
6
CONTINUOUS
10
4.40429
20
-5.06241
11
4.40429
21
-5.0176
0
LINE
8
BLACK
6
CONTINUOUS
10
4.40429
20
-5.0176
11
4.22072
21
-5.0176
0
LINE
8
BLACK
6
CONTINUOUS
10
4.22072
20
-5.0176
11
4.22072
21
-5.06241
0
LINE
8
BLACK
6
CONTINUOUS
10
4.22072
20
-5.06241
11
4.22073
21
-5.0625
0
LINE
8
BLACK
6
CONTINUOUS
10
4.22073
20
-5.0625
11
4.22072
21
-5.0626
0
LINE
8
BLACK
6
CONTINUOUS
10
4.22072
20
-5.0626
11
4.22072
21
-5.0626
0
LINE
8
BLACK
6
CONTINUOUS
10
4.22072
20
-5.0626
11
4.22069
21
-5.06289
0
LINE
8
BLACK
6
CONTINUOUS
10
4.22069
20
-5.06289
11
4.22058
21
-5.06326
0
LINE
8
BLACK
6
CONTINUOUS
10
4.22058
20
-5.06326
11
4.2204
21
-5.0636
0
LINE
8
BLACK
6
CONTINUOUS
10
4.2204
20
-5.0636
11
4.22015
21
-5.0639
0
LINE
8
BLACK
6
CONTINUOUS
10
4.22015
20
-5.0639
11
4.21985
21
-5.06415
0
LINE
8
BLACK
6
CONTINUOUS
10
4.21985
20
-5.06415
11
4.21951
21
-5.06433
0
LINE
8
BLACK
6
CONTINUOUS
10
4.21951
20
-5.06433
11
4.21914
21
-5.06444
0
LINE
8
BLACK
6
CONTINUOUS
10
4.21914
20
-5.06444
11
4.21875
21
-5.06448
0
LINE
8
BLACK
6
CONTINUOUS
10
4.21875
20
-5.06448
11
4.21866
21
-5.06447
0
LINE
8
BLACK
6
CONTINUOUS
10
4.21866
20
-5.06447
11
4.12697
21
-5.06447
0
LINE
8
BLACK
6
CONTINUOUS
10
4.12697
20
-5.06447
11
4.12697
21
-5.62303
0
LINE
8
BLACK
6
CONTINUOUS
10
4.12697
20
-5.62303
11
5.43553
21
-5.62303
0
LINE
8
BLACK
6
CONTINUOUS
10
5.43553
20
-5.62303
11
5.43553
21
-5.06447
0
LINE
8
BLACK
6
CONTINUOUS
10
5.43553
20
-5.06447
11
5.34385
21
-5.06447
0
LINE
8
BLACK
6
CONTINUOUS
10
5.34385
20
-5.06447
11
5.34375
21
-5.06448
0
LINE
8
BLACK
6
CONTINUOUS
10
5.34375
20
-5.06448
11
5.34337
21
-5.06444
0
LINE
8
BLACK
6
CONTINUOUS
10
5.34337
20
-5.06444
11
5.343
21
-5.06433
0
LINE
8
BLACK
6
CONTINUOUS
10
5.343
20
-5.06433
11
5.34266
21
-5.06415
0
LINE
8
BLACK
6
CONTINUOUS
10
5.34266
20
-5.06415
11
5.34236
21
-5.0639
0
LINE
8
BLACK
6
CONTINUOUS
10
5.34236
20
-5.0639
11
5.34235
21
-5.0639
0
LINE
8
BLACK
6
CONTINUOUS
10
5.34235
20
-5.0639
11
5.34211
21
-5.0636
0
LINE
8
BLACK
6
CONTINUOUS
10
5.34211
20
-5.0636
11
5.34193
21
-5.06326
0
LINE
8
BLACK
6
CONTINUOUS
10
5.34193
20
-5.06326
11
5.34181
21
-5.06289
0
LINE
8
BLACK
6
CONTINUOUS
10
5.34181
20
-5.06289
11
5.34178
21
-5.0625
0
LINE
8
BLACK
6
CONTINUOUS
10
5.34178
20
-5.0625
11
5.34179
21
-5.06241
0
LINE
8
BLACK
6
CONTINUOUS
10
5.34179
20
-5.06241
11
5.34179
21
-5.0176
0
LINE
8
BLACK
6
CONTINUOUS
10
5.34179
20
-5.0176
11
5.15822
21
-5.0176
0
LINE
8
BLACK
6
CONTINUOUS
10
6.9376
20
-5.06053
11
6.93789
21
-5.06056
0
LINE
8
BLACK
6
CONTINUOUS
10
6.93789
20
-5.06056
11
6.93826
21
-5.06067
0
LINE
8
BLACK
6
CONTINUOUS
10
6.93826
20
-5.06067
11
6.9386
21
-5.06086
0
LINE
8
BLACK
6
CONTINUOUS
10
6.9386
20
-5.06086
11
6.9389
21
-5.0611
0
LINE
8
BLACK
6
CONTINUOUS
10
6.9389
20
-5.0611
11
6.93914
21
-5.0614
0
LINE
8
BLACK
6
CONTINUOUS
10
6.93914
20
-5.0614
11
6.93933
21
-5.06174
0
LINE
8
BLACK
6
CONTINUOUS
10
6.93933
20
-5.06174
11
6.93944
21
-5.06211
0
LINE
8
BLACK
6
CONTINUOUS
10
6.93944
20
-5.06211
11
6.93948
21
-5.0625
0
LINE
8
BLACK
6
CONTINUOUS
10
6.93948
20
-5.0625
11
6.93947
21
-5.0626
0
LINE
8
BLACK
6
CONTINUOUS
10
6.93947
20
-5.0626
11
6.93947
21
-5.6249
0
LINE
8
BLACK
6
CONTINUOUS
10
6.93947
20
-5.6249
11
6.93948
21
-5.625
0
LINE
8
BLACK
6
CONTINUOUS
10
6.93948
20
-5.625
11
6.93947
21
-5.6251
0
LINE
8
BLACK
6
CONTINUOUS
10
6.93947
20
-5.6251
11
6.93947
21
-5.6251
0
LINE
8
BLACK
6
CONTINUOUS
10
6.93947
20
-5.6251
11
6.93944
21
-5.62539
0
LINE
8
BLACK
6
CONTINUOUS
10
6.93944
20
-5.62539
11
6.93933
21
-5.62576
0
LINE
8
BLACK
6
CONTINUOUS
10
6.93933
20
-5.62576
11
6.93914
21
-5.6261
0
LINE
8
BLACK
6
CONTINUOUS
10
6.93914
20
-5.6261
11
6.9389
21
-5.6264
0
LINE
8
BLACK
6
CONTINUOUS
10
6.9389
20
-5.6264
11
6.9386
21
-5.62664
0
LINE
8
BLACK
6
CONTINUOUS
10
6.9386
20
-5.62664
11
6.93826
21
-5.62683
0
LINE
8
BLACK
6
CONTINUOUS
10
6.93826
20
-5.62683
11
6.93789
21
-5.62694
0
LINE
8
BLACK
6
CONTINUOUS
10
6.93789
20
-5.62694
11
6.9375
21
-5.62698
0
LINE
8
BLACK
6
CONTINUOUS
10
6.9375
20
-5.62698
11
6.9374
21
-5.62697
0
LINE
8
BLACK
6
CONTINUOUS
10
6.9374
20
-5.62697
11
6.3751
21
-5.62697
0
LINE
8
BLACK
6
CONTINUOUS
10
6.3751
20
-5.62697
11
6.375
21
-5.62698
0
LINE
8
BLACK
6
CONTINUOUS
10
6.375
20
-5.62698
11
6.37461
21
-5.62694
0
LINE
8
BLACK
6
CONTINUOUS
10
6.37461
20
-5.62694
11
6.37424
21
-5.62683
0
LINE
8
BLACK
6
CONTINUOUS
10
6.37424
20
-5.62683
11
6.3739
21
-5.62664
0
LINE
8
BLACK
6
CONTINUOUS
10
6.3739
20
-5.62664
11
6.3736
21
-5.6264
0
LINE
8
BLACK
6
CONTINUOUS
10
6.3736
20
-5.6264
11
6.37336
21
-5.6261
0
LINE
8
BLACK
6
CONTINUOUS
10
6.37336
20
-5.6261
11
6.37317
21
-5.62576
0
LINE
8
BLACK
6
CONTINUOUS
10
6.37317
20
-5.62576
11
6.37306
21
-5.62539
0
LINE
8
BLACK
6
CONTINUOUS
10
6.37306
20
-5.62539
11
6.37302
21
-5.625
0
LINE
8
BLACK
6
CONTINUOUS
10
6.37302
20
-5.625
11
6.37303
21
-5.6249
0
LINE
8
BLACK
6
CONTINUOUS
10
6.37303
20
-5.6249
11
6.37303
21
-5.0626
0
LINE
8
BLACK
6
CONTINUOUS
10
6.37303
20
-5.0626
11
6.37302
21
-5.0625
0
LINE
8
BLACK
6
CONTINUOUS
10
6.37302
20
-5.0625
11
6.37306
21
-5.06211
0
LINE
8
BLACK
6
CONTINUOUS
10
6.37306
20
-5.06211
11
6.37317
21
-5.06174
0
LINE
8
BLACK
6
CONTINUOUS
10
6.37317
20
-5.06174
11
6.37336
21
-5.0614
0
LINE
8
BLACK
6
CONTINUOUS
10
6.37336
20
-5.0614
11
6.3736
21
-5.0611
0
LINE
8
BLACK
6
CONTINUOUS
10
6.3736
20
-5.0611
11
6.3739
21
-5.06086
0
LINE
8
BLACK
6
CONTINUOUS
10
6.3739
20
-5.06086
11
6.37424
21
-5.06067
0
LINE
8
BLACK
6
CONTINUOUS
10
6.37424
20
-5.06067
11
6.37461
21
-5.06056
0
LINE
8
BLACK
6
CONTINUOUS
10
6.37461
20
-5.06056
11
6.3749
21
-5.06053
0
LINE
8
BLACK
6
CONTINUOUS
10
6.3749
20
-5.06053
11
6.375
21
-5.06052
0
LINE
8
BLACK
6
CONTINUOUS
10
6.375
20
-5.06052
11
6.3751
21
-5.06053
0
LINE
8
BLACK
6
CONTINUOUS
10
6.3751
20
-5.06053
11
6.9374
21
-5.06053
0
LINE
8
BLACK
6
CONTINUOUS
10
6.9374
20
-5.06053
11
6.9375
21
-5.06052
0
LINE
8
BLACK
6
CONTINUOUS
10
6.9375
20
-5.06052
11
6.9376
21
-5.06053
0
LINE
8
BLACK
6
CONTINUOUS
10
6.37697
20
-5.06447
11
6.37697
21
-5.62303
0
LINE
8
BLACK
6
CONTINUOUS
10
6.37697
20
-5.62303
11
6.93553
21
-5.62303
0
LINE
8
BLACK
6
CONTINUOUS
10
6.93553
20
-5.62303
11
6.93553
21
-5.06447
0
LINE
8
BLACK
6
CONTINUOUS
10
6.93553
20
-5.06447
11
6.37697
21
-5.06447
0
LINE
8
BLACK
6
CONTINUOUS
10
8.4376
20
-5.06053
11
8.43789
21
-5.06056
0
LINE
8
BLACK
6
CONTINUOUS
10
8.43789
20
-5.06056
11
8.43826
21
-5.06067
0
LINE
8
BLACK
6
CONTINUOUS
10
8.43826
20
-5.06067
11
8.4386
21
-5.06086
0
LINE
8
BLACK
6
CONTINUOUS
10
8.4386
20
-5.06086
11
8.4389
21
-5.0611
0
LINE
8
BLACK
6
CONTINUOUS
10
8.4389
20
-5.0611
11
8.43914
21
-5.0614
0
LINE
8
BLACK
6
CONTINUOUS
10
8.43914
20
-5.0614
11
8.43933
21
-5.06174
0
LINE
8
BLACK
6
CONTINUOUS
10
8.43933
20
-5.06174
11
8.43944
21
-5.06211
0
LINE
8
BLACK
6
CONTINUOUS
10
8.43944
20
-5.06211
11
8.43948
21
-5.0625
0
LINE
8
BLACK
6
CONTINUOUS
10
8.43948
20
-5.0625
11
8.43947
21
-5.0626
0
LINE
8
BLACK
6
CONTINUOUS
10
8.43947
20
-5.0626
11
8.43947
21
-5.6249
0
LINE
8
BLACK
6
CONTINUOUS
10
8.43947
20
-5.6249
11
8.43948
21
-5.625
0
LINE
8
BLACK
6
CONTINUOUS
10
8.43948
20
-5.625
11
8.43947
21
-5.6251
0
LINE
8
BLACK
6
CONTINUOUS
10
8.43947
20
-5.6251
11
8.43947
21
-5.6251
0
LINE
8
BLACK
6
CONTINUOUS
10
8.43947
20
-5.6251
11
8.43944
21
-5.62539
0
LINE
8
BLACK
6
CONTINUOUS
10
8.43944
20
-5.62539
11
8.43933
21
-5.62576
0
LINE
8
BLACK
6
CONTINUOUS
10
8.43933
20
-5.62576
11
8.43914
21
-5.6261
0
LINE
8
BLACK
6
CONTINUOUS
10
8.43914
20
-5.6261
11
8.4389
21
-5.6264
0
LINE
8
BLACK
6
CONTINUOUS
10
8.4389
20
-5.6264
11
8.4386
21
-5.62664
0
LINE
8
BLACK
6
CONTINUOUS
10
8.4386
20
-5.62664
11
8.43826
21
-5.62683
0
LINE
8
BLACK
6
CONTINUOUS
10
8.43826
20
-5.62683
11
8.43789
21
-5.62694
0
LINE
8
BLACK
6
CONTINUOUS
10
8.43789
20
-5.62694
11
8.4375
21
-5.62698
0
LINE
8
BLACK
6
CONTINUOUS
10
8.4375
20
-5.62698
11
8.4374
21
-5.62697
0
LINE
8
BLACK
6
CONTINUOUS
10
8.4374
20
-5.62697
11
7.8751
21
-5.62697
0
LINE
8
BLACK
6
CONTINUOUS
10
7.8751
20
-5.62697
11
7.875
21
-5.62698
0
LINE
8
BLACK
6
CONTINUOUS
10
7.875
20
-5.62698
11
7.87461
21
-5.62694
0
LINE
8
BLACK
6
CONTINUOUS
10
7.87461
20
-5.62694
11
7.87424
21
-5.62683
0
LINE
8
BLACK
6
CONTINUOUS
10
7.87424
20
-5.62683
11
7.8739
21
-5.62664
0
LINE
8
BLACK
6
CONTINUOUS
10
7.8739
20
-5.62664
11
7.8736
21
-5.6264
0
LINE
8
BLACK
6
CONTINUOUS
10
7.8736
20
-5.6264
11
7.87336
21
-5.6261
0
LINE
8
BLACK
6
CONTINUOUS
10
7.87336
20
-5.6261
11
7.87317
21
-5.62576
0
LINE
8
BLACK
6
CONTINUOUS
10
7.87317
20
-5.62576
11
7.87306
21
-5.62539
0
LINE
8
BLACK
6
CONTINUOUS
10
7.87306
20
-5.62539
11
7.87302
21
-5.625
0
LINE
8
BLACK
6
CONTINUOUS
10
7.87302
20
-5.625
11
7.87303
21
-5.6249
0
LINE
8
BLACK
6
CONTINUOUS
10
7.87303
20
-5.6249
11
7.87303
21
-5.0626
0
LINE
8
BLACK
6
CONTINUOUS
10
7.87303
20
-5.0626
11
7.87302
21
-5.0625
0
LINE
8
BLACK
6
CONTINUOUS
10
7.87302
20
-5.0625
11
7.87306
21
-5.06211
0
LINE
8
BLACK
6
CONTINUOUS
10
7.87306
20
-5.06211
11
7.87317
21
-5.06174
0
LINE
8
BLACK
6
CONTINUOUS
10
7.87317
20
-5.06174
11
7.87336
21
-5.0614
0
LINE
8
BLACK
6
CONTINUOUS
10
7.87336
20
-5.0614
11
7.8736
21
-5.0611
0
LINE
8
BLACK
6
CONTINUOUS
10
7.8736
20
-5.0611
11
7.8739
21
-5.06086
0
LINE
8
BLACK
6
CONTINUOUS
10
7.8739
20
-5.06086
11
7.87424
21
-5.06067
0
LINE
8
BLACK
6
CONTINUOUS
10
7.87424
20
-5.06067
11
7.87461
21
-5.06056
0
LINE
8
BLACK
6
CONTINUOUS
10
7.87461
20
-5.06056
11
7.8749
21
-5.06053
0
LINE
8
BLACK
6
CONTINUOUS
10
7.8749
20
-5.06053
11
7.875
21
-5.06052
0
LINE
8
BLACK
6
CONTINUOUS
10
7.875
20
-5.06052
11
7.8751
21
-5.06053
0
LINE
8
BLACK
6
CONTINUOUS
10
7.8751
20
-5.06053
11
8.4374
21
-5.06053
0
LINE
8
BLACK
6
CONTINUOUS
10
8.4374
20
-5.06053
11
8.4375
21
-5.06052
0
LINE
8
BLACK
6
CONTINUOUS
10
8.4375
20
-5.06052
11
8.4376
21
-5.06053
0
LINE
8
BLACK
6
CONTINUOUS
10
7.87697
20
-5.06447
11
7.87697
21
-5.62303
0
LINE
8
BLACK
6
CONTINUOUS
10
7.87697
20
-5.62303
11
8.43553
21
-5.62303
0
LINE
8
BLACK
6
CONTINUOUS
10
8.43553
20
-5.62303
11
8.43553
21
-5.06447
0
LINE
8
BLACK
6
CONTINUOUS
10
8.43553
20
-5.06447
11
7.87697
21
-5.06447
0
LINE
8
BLACK
6
CONTINUOUS
10
7.6876
20
-5.06053
11
7.68789
21
-5.06056
0
LINE
8
BLACK
6
CONTINUOUS
10
7.68789
20
-5.06056
11
7.68826
21
-5.06067
0
LINE
8
BLACK
6
CONTINUOUS
10
7.68826
20
-5.06067
11
7.6886
21
-5.06086
0
LINE
8
BLACK
6
CONTINUOUS
10
7.6886
20
-5.06086
11
7.6889
21
-5.0611
0
LINE
8
BLACK
6
CONTINUOUS
10
7.6889
20
-5.0611
11
7.68914
21
-5.0614
0
LINE
8
BLACK
6
CONTINUOUS
10
7.68914
20
-5.0614
11
7.68933
21
-5.06174
0
LINE
8
BLACK
6
CONTINUOUS
10
7.68933
20
-5.06174
11
7.68944
21
-5.06211
0
LINE
8
BLACK
6
CONTINUOUS
10
7.68944
20
-5.06211
11
7.68948
21
-5.0625
0
LINE
8
BLACK
6
CONTINUOUS
10
7.68948
20
-5.0625
11
7.68947
21
-5.0626
0
LINE
8
BLACK
6
CONTINUOUS
10
7.68947
20
-5.0626
11
7.68947
21
-5.6249
0
LINE
8
BLACK
6
CONTINUOUS
10
7.68947
20
-5.6249
11
7.68948
21
-5.625
0
LINE
8
BLACK
6
CONTINUOUS
10
7.68948
20
-5.625
11
7.68947
21
-5.6251
0
LINE
8
BLACK
6
CONTINUOUS
10
7.68947
20
-5.6251
11
7.68947
21
-5.6251
0
LINE
8
BLACK
6
CONTINUOUS
10
7.68947
20
-5.6251
11
7.68944
21
-5.62539
0
LINE
8
BLACK
6
CONTINUOUS
10
7.68944
20
-5.62539
11
7.68933
21
-5.62576
0
LINE
8
BLACK
6
CONTINUOUS
10
7.68933
20
-5.62576
11
7.68914
21
-5.6261
0
LINE
8
BLACK
6
CONTINUOUS
10
7.68914
20
-5.6261
11
7.6889
21
-5.6264
0
LINE
8
BLACK
6
CONTINUOUS
10
7.6889
20
-5.6264
11
7.6886
21
-5.62664
0
LINE
8
BLACK
6
CONTINUOUS
10
7.6886
20
-5.62664
11
7.68826
21
-5.62683
0
LINE
8
BLACK
6
CONTINUOUS
10
7.68826
20
-5.62683
11
7.68789
21
-5.62694
0
LINE
8
BLACK
6
CONTINUOUS
10
7.68789
20
-5.62694
11
7.6875
21
-5.62698
0
LINE
8
BLACK
6
CONTINUOUS
10
7.6875
20
-5.62698
11
7.6874
21
-5.62697
0
LINE
8
BLACK
6
CONTINUOUS
10
7.6874
20
-5.62697
11
7.1251
21
-5.62697
0
LINE
8
BLACK
6
CONTINUOUS
10
7.1251
20
-5.62697
11
7.125
21
-5.62698
0
LINE
8
BLACK
6
CONTINUOUS
10
7.125
20
-5.62698
11
7.12461
21
-5.62694
0
LINE
8
BLACK
6
CONTINUOUS
10
7.12461
20
-5.62694
11
7.12424
21
-5.62683
0
LINE
8
BLACK
6
CONTINUOUS
10
7.12424
20
-5.62683
11
7.1239
21
-5.62664
0
LINE
8
BLACK
6
CONTINUOUS
10
7.1239
20
-5.62664
11
7.1236
21
-5.6264
0
LINE
8
BLACK
6
CONTINUOUS
10
7.1236
20
-5.6264
11
7.12336
21
-5.6261
0
LINE
8
BLACK
6
CONTINUOUS
10
7.12336
20
-5.6261
11
7.12317
21
-5.62576
0
LINE
8
BLACK
6
CONTINUOUS
10
7.12317
20
-5.62576
11
7.12306
21
-5.62539
0
LINE
8
BLACK
6
CONTINUOUS
10
7.12306
20
-5.62539
11
7.12302
21
-5.625
0
LINE
8
BLACK
6
CONTINUOUS
10
7.12302
20
-5.625
11
7.12303
21
-5.6249
0
LINE
8
BLACK
6
CONTINUOUS
10
7.12303
20
-5.6249
11
7.12303
21
-5.0626
0
LINE
8
BLACK
6
CONTINUOUS
10
7.12303
20
-5.0626
11
7.12302
21
-5.0625
0
LINE
8
BLACK
6
CONTINUOUS
10
7.12302
20
-5.0625
11
7.12306
21
-5.06211
0
LINE
8
BLACK
6
CONTINUOUS
10
7.12306
20
-5.06211
11
7.12317
21
-5.06174
0
LINE
8
BLACK
6
CONTINUOUS
10
7.12317
20
-5.06174
11
7.12336
21
-5.0614
0
LINE
8
BLACK
6
CONTINUOUS
10
7.12336
20
-5.0614
11
7.1236
21
-5.0611
0
LINE
8
BLACK
6
CONTINUOUS
10
7.1236
20
-5.0611
11
7.1239
21
-5.06086
0
LINE
8
BLACK
6
CONTINUOUS
10
7.1239
20
-5.06086
11
7.12424
21
-5.06067
0
LINE
8
BLACK
6
CONTINUOUS
10
7.12424
20
-5.06067
11
7.12461
21
-5.06056
0
LINE
8
BLACK
6
CONTINUOUS
10
7.12461
20
-5.06056
11
7.1249
21
-5.06053
0
LINE
8
BLACK
6
CONTINUOUS
10
7.1249
20
-5.06053
11
7.125
21
-5.06052
0
LINE
8
BLACK
6
CONTINUOUS
10
7.125
20
-5.06052
11
7.1251
21
-5.06053
0
LINE
8
BLACK
6
CONTINUOUS
10
7.1251
20
-5.06053
11
7.6874
21
-5.06053
0
LINE
8
BLACK
6
CONTINUOUS
10
7.6874
20
-5.06053
11
7.6875
21
-5.06052
0
LINE
8
BLACK
6
CONTINUOUS
10
7.6875
20
-5.06052
11
7.6876
21
-5.06053
0
LINE
8
BLACK
6
CONTINUOUS
10
7.12697
20
-5.06447
11
7.12697
21
-5.62303
0
LINE
8
BLACK
6
CONTINUOUS
10
7.12697
20
-5.62303
11
7.68553
21
-5.62303
0
LINE
8
BLACK
6
CONTINUOUS
10
7.68553
20
-5.62303
11
7.68553
21
-5.06447
0
LINE
8
BLACK
6
CONTINUOUS
10
7.68553
20
-5.06447
11
7.12697
21
-5.06447
0
LINE
8
BLACK
6
CONTINUOUS
10
6.1876
20
-5.06053
11
6.18789
21
-5.06056
0
LINE
8
BLACK
6
CONTINUOUS
10
6.18789
20
-5.06056
11
6.18826
21
-5.06067
0
LINE
8
BLACK
6
CONTINUOUS
10
6.18826
20
-5.06067
11
6.1886
21
-5.06086
0
LINE
8
BLACK
6
CONTINUOUS
10
6.1886
20
-5.06086
11
6.1889
21
-5.0611
0
LINE
8
BLACK
6
CONTINUOUS
10
6.1889
20
-5.0611
11
6.18914
21
-5.0614
0
LINE
8
BLACK
6
CONTINUOUS
10
6.18914
20
-5.0614
11
6.18933
21
-5.06174
0
LINE
8
BLACK
6
CONTINUOUS
10
6.18933
20
-5.06174
11
6.18944
21
-5.06211
0
LINE
8
BLACK
6
CONTINUOUS
10
6.18944
20
-5.06211
11
6.18948
21
-5.0625
0
LINE
8
BLACK
6
CONTINUOUS
10
6.18948
20
-5.0625
11
6.18947
21
-5.0626
0
LINE
8
BLACK
6
CONTINUOUS
10
6.18947
20
-5.0626
11
6.18947
21
-5.6249
0
LINE
8
BLACK
6
CONTINUOUS
10
6.18947
20
-5.6249
11
6.18948
21
-5.625
0
LINE
8
BLACK
6
CONTINUOUS
10
6.18948
20
-5.625
11
6.18944
21
-5.62539
0
LINE
8
BLACK
6
CONTINUOUS
10
6.18944
20
-5.62539
11
6.18933
21
-5.62576
0
LINE
8
BLACK
6
CONTINUOUS
10
6.18933
20
-5.62576
11
6.18914
21
-5.6261
0
LINE
8
BLACK
6
CONTINUOUS
10
6.18914
20
-5.6261
11
6.1889
21
-5.6264
0
LINE
8
BLACK
6
CONTINUOUS
10
6.1889
20
-5.6264
11
6.1886
21
-5.62664
0
LINE
8
BLACK
6
CONTINUOUS
10
6.1886
20
-5.62664
11
6.18826
21
-5.62683
0
LINE
8
BLACK
6
CONTINUOUS
10
6.18826
20
-5.62683
11
6.18789
21
-5.62694
0
LINE
8
BLACK
6
CONTINUOUS
10
6.18789
20
-5.62694
11
6.1876
21
-5.62697
0
LINE
8
BLACK
6
CONTINUOUS
10
6.1876
20
-5.62697
11
6.1875
21
-5.62698
0
LINE
8
BLACK
6
CONTINUOUS
10
6.1875
20
-5.62698
11
6.1874
21
-5.62697
0
LINE
8
BLACK
6
CONTINUOUS
10
6.1874
20
-5.62697
11
5.6251
21
-5.62697
0
LINE
8
BLACK
6
CONTINUOUS
10
5.6251
20
-5.62697
11
5.625
21
-5.62698
0
LINE
8
BLACK
6
CONTINUOUS
10
5.625
20
-5.62698
11
5.6249
21
-5.62697
0
LINE
8
BLACK
6
CONTINUOUS
10
5.6249
20
-5.62697
11
5.62461
21
-5.62694
0
LINE
8
BLACK
6
CONTINUOUS
10
5.62461
20
-5.62694
11
5.62424
21
-5.62683
0
LINE
8
BLACK
6
CONTINUOUS
10
5.62424
20
-5.62683
11
5.6239
21
-5.62664
0
LINE
8
BLACK
6
CONTINUOUS
10
5.6239
20
-5.62664
11
5.6236
21
-5.6264
0
LINE
8
BLACK
6
CONTINUOUS
10
5.6236
20
-5.6264
11
5.62336
21
-5.6261
0
LINE
8
BLACK
6
CONTINUOUS
10
5.62336
20
-5.6261
11
5.62317
21
-5.62576
0
LINE
8
BLACK
6
CONTINUOUS
10
5.62317
20
-5.62576
11
5.62306
21
-5.62539
0
LINE
8
BLACK
6
CONTINUOUS
10
5.62306
20
-5.62539
11
5.62302
21
-5.625
0
LINE
8
BLACK
6
CONTINUOUS
10
5.62302
20
-5.625
11
5.62303
21
-5.6249
0
LINE
8
BLACK
6
CONTINUOUS
10
5.62303
20
-5.6249
11
5.62303
21
-5.0626
0
LINE
8
BLACK
6
CONTINUOUS
10
5.62303
20
-5.0626
11
5.62302
21
-5.0625
0
LINE
8
BLACK
6
CONTINUOUS
10
5.62302
20
-5.0625
11
5.62306
21
-5.06211
0
LINE
8
BLACK
6
CONTINUOUS
10
5.62306
20
-5.06211
11
5.62317
21
-5.06174
0
LINE
8
BLACK
6
CONTINUOUS
10
5.62317
20
-5.06174
11
5.62336
21
-5.0614
0
LINE
8
BLACK
6
CONTINUOUS
10
5.62336
20
-5.0614
11
5.6236
21
-5.0611
0
LINE
8
BLACK
6
CONTINUOUS
10
5.6236
20
-5.0611
11
5.6239
21
-5.06086
0
LINE
8
BLACK
6
CONTINUOUS
10
5.6239
20
-5.06086
11
5.62424
21
-5.06067
0
LINE
8
BLACK
6
CONTINUOUS
10
5.62424
20
-5.06067
11
5.62461
21
-5.06056
0
LINE
8
BLACK
6
CONTINUOUS
10
5.62461
20
-5.06056
11
5.6249
21
-5.06053
0
LINE
8
BLACK
6
CONTINUOUS
10
5.6249
20
-5.06053
11
5.625
21
-5.06052
0
LINE
8
BLACK
6
CONTINUOUS
10
5.625
20
-5.06052
11
5.6251
21
-5.06053
0
LINE
8
BLACK
6
CONTINUOUS
10
5.6251
20
-5.06053
11
6.1874
21
-5.06053
0
LINE
8
BLACK
6
CONTINUOUS
10
6.1874
20
-5.06053
11
6.1875
21
-5.06052
0
LINE
8
BLACK
6
CONTINUOUS
10
6.1875
20
-5.06052
11
6.1876
21
-5.06053
0
LINE
8
BLACK
6
CONTINUOUS
10
5.62697
20
-5.06447
11
5.62697
21
-5.62303
0
LINE
8
BLACK
6
CONTINUOUS
10
5.62697
20
-5.62303
11
6.18553
21
-5.62303
0
LINE
8
BLACK
6
CONTINUOUS
10
6.18553
20
-5.62303
11
6.18553
21
-5.06447
0
LINE
8
BLACK
6
CONTINUOUS
10
6.18553
20
-5.06447
11
5.62697
21
-5.06447
0
LINE
8
BLACK
6
CONTINUOUS
10
4.6876
20
-4.31053
11
4.68789
21
-4.31056
0
LINE
8
BLACK
6
CONTINUOUS
10
4.68789
20
-4.31056
11
4.68826
21
-4.31067
0
LINE
8
BLACK
6
CONTINUOUS
10
4.68826
20
-4.31067
11
4.6886
21
-4.31086
0
LINE
8
BLACK
6
CONTINUOUS
10
4.6886
20
-4.31086
11
4.6889
21
-4.3111
0
LINE
8
BLACK
6
CONTINUOUS
10
4.6889
20
-4.3111
11
4.68914
21
-4.3114
0
LINE
8
BLACK
6
CONTINUOUS
10
4.68914
20
-4.3114
11
4.68933
21
-4.31174
0
LINE
8
BLACK
6
CONTINUOUS
10
4.68933
20
-4.31174
11
4.68944
21
-4.31211
0
LINE
8
BLACK
6
CONTINUOUS
10
4.68944
20
-4.31211
11
4.68948
21
-4.3125
0
LINE
8
BLACK
6
CONTINUOUS
10
4.68948
20
-4.3125
11
4.68947
21
-4.3126
0
LINE
8
BLACK
6
CONTINUOUS
10
4.68947
20
-4.3126
11
4.68947
21
-4.8749
0
LINE
8
BLACK
6
CONTINUOUS
10
4.68947
20
-4.8749
11
4.68948
21
-4.875
0
LINE
8
BLACK
6
CONTINUOUS
10
4.68948
20
-4.875
11
4.68947
21
-4.8751
0
LINE
8
BLACK
6
CONTINUOUS
10
4.68947
20
-4.8751
11
4.68947
21
-4.8751
0
LINE
8
BLACK
6
CONTINUOUS
10
4.68947
20
-4.8751
11
4.68944
21
-4.87539
0
LINE
8
BLACK
6
CONTINUOUS
10
4.68944
20
-4.87539
11
4.68933
21
-4.87576
0
LINE
8
BLACK
6
CONTINUOUS
10
4.68933
20
-4.87576
11
4.68914
21
-4.8761
0
LINE
8
BLACK
6
CONTINUOUS
10
4.68914
20
-4.8761
11
4.6889
21
-4.8764
0
LINE
8
BLACK
6
CONTINUOUS
10
4.6889
20
-4.8764
11
4.6886
21
-4.87664
0
LINE
8
BLACK
6
CONTINUOUS
10
4.6886
20
-4.87664
11
4.68826
21
-4.87683
0
LINE
8
BLACK
6
CONTINUOUS
10
4.68826
20
-4.87683
11
4.68789
21
-4.87694
0
LINE
8
BLACK
6
CONTINUOUS
10
4.68789
20
-4.87694
11
4.6875
21
-4.87698
0
LINE
8
BLACK
6
CONTINUOUS
10
4.6875
20
-4.87698
11
4.6874
21
-4.87697
0
LINE
8
BLACK
6
CONTINUOUS
10
4.6874
20
-4.87697
11
4.1251
21
-4.87697
0
LINE
8
BLACK
6
CONTINUOUS
10
4.1251
20
-4.87697
11
4.125
21
-4.87698
0
LINE
8
BLACK
6
CONTINUOUS
10
4.125
20
-4.87698
11
4.12461
21
-4.87694
0
LINE
8
BLACK
6
CONTINUOUS
10
4.12461
20
-4.87694
11
4.12424
21
-4.87683
0
LINE
8
BLACK
6
CONTINUOUS
10
4.12424
20
-4.87683
11
4.1239
21
-4.87664
0
LINE
8
BLACK
6
CONTINUOUS
10
4.1239
20
-4.87664
11
4.1236
21
-4.8764
0
LINE
8
BLACK
6
CONTINUOUS
10
4.1236
20
-4.8764
11
4.12336
21
-4.8761
0
LINE
8
BLACK
6
CONTINUOUS
10
4.12336
20
-4.8761
11
4.12317
21
-4.87576
0
LINE
8
BLACK
6
CONTINUOUS
10
4.12317
20
-4.87576
11
4.12306
21
-4.87539
0
LINE
8
BLACK
6
CONTINUOUS
10
4.12306
20
-4.87539
11
4.12302
21
-4.875
0
LINE
8
BLACK
6
CONTINUOUS
10
4.12302
20
-4.875
11
4.12303
21
-4.8749
0
LINE
8
BLACK
6
CONTINUOUS
10
4.12303
20
-4.8749
11
4.12303
21
-4.3126
0
LINE
8
BLACK
6
CONTINUOUS
10
4.12303
20
-4.3126
11
4.12302
21
-4.3125
0
LINE
8
BLACK
6
CONTINUOUS
10
4.12302
20
-4.3125
11
4.12306
21
-4.31211
0
LINE
8
BLACK
6
CONTINUOUS
10
4.12306
20
-4.31211
11
4.12317
21
-4.31174
0
LINE
8
BLACK
6
CONTINUOUS
10
4.12317
20
-4.31174
11
4.12336
21
-4.3114
0
LINE
8
BLACK
6
CONTINUOUS
10
4.12336
20
-4.3114
11
4.1236
21
-4.3111
0
LINE
8
BLACK
6
CONTINUOUS
10
4.1236
20
-4.3111
11
4.1239
21
-4.31086
0
LINE
8
BLACK
6
CONTINUOUS
10
4.1239
20
-4.31086
11
4.12424
21
-4.31067
0
LINE
8
BLACK
6
CONTINUOUS
10
4.12424
20
-4.31067
11
4.12461
21
-4.31056
0
LINE
8
BLACK
6
CONTINUOUS
10
4.12461
20
-4.31056
11
4.1249
21
-4.31053
0
LINE
8
BLACK
6
CONTINUOUS
10
4.1249
20
-4.31053
11
4.125
21
-4.31052
0
LINE
8
BLACK
6
CONTINUOUS
10
4.125
20
-4.31052
11
4.1251
21
-4.31053
0
LINE
8
BLACK
6
CONTINUOUS
10
4.1251
20
-4.31053
11
4.6874
21
-4.31053
0
LINE
8
BLACK
6
CONTINUOUS
10
4.6874
20
-4.31053
11
4.6875
21
-4.31052
0
LINE
8
BLACK
6
CONTINUOUS
10
4.6875
20
-4.31052
11
4.6876
21
-4.31053
0
LINE
8
BLACK
6
CONTINUOUS
10
4.12697
20
-4.31447
11
4.12697
21
-4.87303
0
LINE
8
BLACK
6
CONTINUOUS
10
4.12697
20
-4.87303
11
4.68553
21
-4.87303
0
LINE
8
BLACK
6
CONTINUOUS
10
4.68553
20
-4.87303
11
4.68553
21
-4.31447
0
LINE
8
BLACK
6
CONTINUOUS
10
4.68553
20
-4.31447
11
4.12697
21
-4.31447
0
LINE
8
BLACK
6
CONTINUOUS
10
7.6876
20
-4.31053
11
7.68789
21
-4.31056
0
LINE
8
BLACK
6
CONTINUOUS
10
7.68789
20
-4.31056
11
7.68826
21
-4.31067
0
LINE
8
BLACK
6
CONTINUOUS
10
7.68826
20
-4.31067
11
7.6886
21
-4.31086
0
LINE
8
BLACK
6
CONTINUOUS
10
7.6886
20
-4.31086
11
7.6889
21
-4.3111
0
LINE
8
BLACK
6
CONTINUOUS
10
7.6889
20
-4.3111
11
7.68914
21
-4.3114
0
LINE
8
BLACK
6
CONTINUOUS
10
7.68914
20
-4.3114
11
7.68933
21
-4.31174
0
LINE
8
BLACK
6
CONTINUOUS
10
7.68933
20
-4.31174
11
7.68944
21
-4.31211
0
LINE
8
BLACK
6
CONTINUOUS
10
7.68944
20
-4.31211
11
7.68948
21
-4.3125
0
LINE
8
BLACK
6
CONTINUOUS
10
7.68948
20
-4.3125
11
7.68947
21
-4.3126
0
LINE
8
BLACK
6
CONTINUOUS
10
7.68947
20
-4.3126
11
7.68947
21
-4.8749
0
LINE
8
BLACK
6
CONTINUOUS
10
7.68947
20
-4.8749
11
7.68948
21
-4.875
0
LINE
8
BLACK
6
CONTINUOUS
10
7.68948
20
-4.875
11
7.68947
21
-4.8751
0
LINE
8
BLACK
6
CONTINUOUS
10
7.68947
20
-4.8751
11
7.68947
21
-4.8751
0
LINE
8
BLACK
6
CONTINUOUS
10
7.68947
20
-4.8751
11
7.68944
21
-4.87539
0
LINE
8
BLACK
6
CONTINUOUS
10
7.68944
20
-4.87539
11
7.68933
21
-4.87576
0
LINE
8
BLACK
6
CONTINUOUS
10
7.68933
20
-4.87576
11
7.68914
21
-4.8761
0
LINE
8
BLACK
6
CONTINUOUS
10
7.68914
20
-4.8761
11
7.6889
21
-4.8764
0
LINE
8
BLACK
6
CONTINUOUS
10
7.6889
20
-4.8764
11
7.6886
21
-4.87664
0
LINE
8
BLACK
6
CONTINUOUS
10
7.6886
20
-4.87664
11
7.68826
21
-4.87683
0
LINE
8
BLACK
6
CONTINUOUS
10
7.68826
20
-4.87683
11
7.68789
21
-4.87694
0
LINE
8
BLACK
6
CONTINUOUS
10
7.68789
20
-4.87694
11
7.6875
21
-4.87698
0
LINE
8
BLACK
6
CONTINUOUS
10
7.6875
20
-4.87698
11
7.6874
21
-4.87697
0
LINE
8
BLACK
6
CONTINUOUS
10
7.6874
20
-4.87697
11
7.1251
21
-4.87697
0
LINE
8
BLACK
6
CONTINUOUS
10
7.1251
20
-4.87697
11
7.125
21
-4.87698
0
LINE
8
BLACK
6
CONTINUOUS
10
7.125
20
-4.87698
11
7.12461
21
-4.87694
0
LINE
8
BLACK
6
CONTINUOUS
10
7.12461
20
-4.87694
11
7.12424
21
-4.87683
0
LINE
8
BLACK
6
CONTINUOUS
10
7.12424
20
-4.87683
11
7.1239
21
-4.87664
0
LINE
8
BLACK
6
CONTINUOUS
10
7.1239
20
-4.87664
11
7.1236
21
-4.8764
0
LINE
8
BLACK
6
CONTINUOUS
10
7.1236
20
-4.8764
11
7.12336
21
-4.8761
0
LINE
8
BLACK
6
CONTINUOUS
10
7.12336
20
-4.8761
11
7.12317
21
-4.87576
0
LINE
8
BLACK
6
CONTINUOUS
10
7.12317
20
-4.87576
11
7.12306
21
-4.87539
0
LINE
8
BLACK
6
CONTINUOUS
10
7.12306
20
-4.87539
11
7.12302
21
-4.875
0
LINE
8
BLACK
6
CONTINUOUS
10
7.12302
20
-4.875
11
7.12303
21
-4.8749
0
LINE
8
BLACK
6
CONTINUOUS
10
7.12303
20
-4.8749
11
7.12303
21
-4.3126
0
LINE
8
BLACK
6
CONTINUOUS
10
7.12303
20
-4.3126
11
7.12302
21
-4.3125
0
LINE
8
BLACK
6
CONTINUOUS
10
7.12302
20
-4.3125
11
7.12306
21
-4.31211
0
LINE
8
BLACK
6
CONTINUOUS
10
7.12306
20
-4.31211
11
7.12317
21
-4.31174
0
LINE
8
BLACK
6
CONTINUOUS
10
7.12317
20
-4.31174
11
7.12336
21
-4.3114
0
LINE
8
BLACK
6
CONTINUOUS
10
7.12336
20
-4.3114
11
7.1236
21
-4.3111
0
LINE
8
BLACK
6
CONTINUOUS
10
7.1236
20
-4.3111
11
7.1239
21
-4.31086
0
LINE
8
BLACK
6
CONTINUOUS
10
7.1239
20
-4.31086
11
7.12424
21
-4.31067
0
LINE
8
BLACK
6
CONTINUOUS
10
7.12424
20
-4.31067
11
7.12461
21
-4.31056
0
LINE
8
BLACK
6
CONTINUOUS
10
7.12461
20
-4.31056
11
7.1249
21
-4.31053
0
LINE
8
BLACK
6
CONTINUOUS
10
7.1249
20
-4.31053
11
7.125
21
-4.31052
0
LINE
8
BLACK
6
CONTINUOUS
10
7.125
20
-4.31052
11
7.1251
21
-4.31053
0
LINE
8
BLACK
6
CONTINUOUS
10
7.1251
20
-4.31053
11
7.6874
21
-4.31053
0
LINE
8
BLACK
6
CONTINUOUS
10
7.6874
20
-4.31053
11
7.6875
21
-4.31052
0
LINE
8
BLACK
6
CONTINUOUS
10
7.6875
20
-4.31052
11
7.6876
21
-4.31053
0
LINE
8
BLACK
6
CONTINUOUS
10
7.12697
20
-4.31447
11
7.12697
21
-4.87303
0
LINE
8
BLACK
6
CONTINUOUS
10
7.12697
20
-4.87303
11
7.68553
21
-4.87303
0
LINE
8
BLACK
6
CONTINUOUS
10
7.68553
20
-4.87303
11
7.68553
21
-4.31447
0
LINE
8
BLACK
6
CONTINUOUS
10
7.68553
20
-4.31447
11
7.12697
21
-4.31447
0
LINE
8
BLACK
6
CONTINUOUS
10
6.1876
20
-4.31053
11
6.18789
21
-4.31056
0
LINE
8
BLACK
6
CONTINUOUS
10
6.18789
20
-4.31056
11
6.18826
21
-4.31067
0
LINE
8
BLACK
6
CONTINUOUS
10
6.18826
20
-4.31067
11
6.1886
21
-4.31086
0
LINE
8
BLACK
6
CONTINUOUS
10
6.1886
20
-4.31086
11
6.1889
21
-4.3111
0
LINE
8
BLACK
6
CONTINUOUS
10
6.1889
20
-4.3111
11
6.18914
21
-4.3114
0
LINE
8
BLACK
6
CONTINUOUS
10
6.18914
20
-4.3114
11
6.18933
21
-4.31174
0
LINE
8
BLACK
6
CONTINUOUS
10
6.18933
20
-4.31174
11
6.18944
21
-4.31211
0
LINE
8
BLACK
6
CONTINUOUS
10
6.18944
20
-4.31211
11
6.18948
21
-4.3125
0
LINE
8
BLACK
6
CONTINUOUS
10
6.18948
20
-4.3125
11
6.18947
21
-4.3126
0
LINE
8
BLACK
6
CONTINUOUS
10
6.18947
20
-4.3126
11
6.18947
21
-4.8749
0
LINE
8
BLACK
6
CONTINUOUS
10
6.18947
20
-4.8749
11
6.18948
21
-4.875
0
LINE
8
BLACK
6
CONTINUOUS
10
6.18948
20
-4.875
11
6.18944
21
-4.87539
0
LINE
8
BLACK
6
CONTINUOUS
10
6.18944
20
-4.87539
11
6.18933
21
-4.87576
0
LINE
8
BLACK
6
CONTINUOUS
10
6.18933
20
-4.87576
11
6.18914
21
-4.8761
0
LINE
8
BLACK
6
CONTINUOUS
10
6.18914
20
-4.8761
11
6.1889
21
-4.8764
0
LINE
8
BLACK
6
CONTINUOUS
10
6.1889
20
-4.8764
11
6.1886
21
-4.87664
0
LINE
8
BLACK
6
CONTINUOUS
10
6.1886
20
-4.87664
11
6.18826
21
-4.87683
0
LINE
8
BLACK
6
CONTINUOUS
10
6.18826
20
-4.87683
11
6.18789
21
-4.87694
0
LINE
8
BLACK
6
CONTINUOUS
10
6.18789
20
-4.87694
11
6.1876
21
-4.87697
0
LINE
8
BLACK
6
CONTINUOUS
10
6.1876
20
-4.87697
11
6.1875
21
-4.87698
0
LINE
8
BLACK
6
CONTINUOUS
10
6.1875
20
-4.87698
11
6.1874
21
-4.87697
0
LINE
8
BLACK
6
CONTINUOUS
10
6.1874
20
-4.87697
11
5.6251
21
-4.87697
0
LINE
8
BLACK
6
CONTINUOUS
10
5.6251
20
-4.87697
11
5.625
21
-4.87698
0
LINE
8
BLACK
6
CONTINUOUS
10
5.625
20
-4.87698
11
5.6249
21
-4.87697
0
LINE
8
BLACK
6
CONTINUOUS
10
5.6249
20
-4.87697
11
5.62461
21
-4.87694
0
LINE
8
BLACK
6
CONTINUOUS
10
5.62461
20
-4.87694
11
5.62424
21
-4.87683
0
LINE
8
BLACK
6
CONTINUOUS
10
5.62424
20
-4.87683
11
5.6239
21
-4.87664
0
LINE
8
BLACK
6
CONTINUOUS
10
5.6239
20
-4.87664
11
5.6236
21
-4.8764
0
LINE
8
BLACK
6
CONTINUOUS
10
5.6236
20
-4.8764
11
5.62336
21
-4.8761
0
LINE
8
BLACK
6
CONTINUOUS
10
5.62336
20
-4.8761
11
5.62317
21
-4.87576
0
LINE
8
BLACK
6
CONTINUOUS
10
5.62317
20
-4.87576
11
5.62306
21
-4.87539
0
LINE
8
BLACK
6
CONTINUOUS
10
5.62306
20
-4.87539
11
5.62302
21
-4.875
0
LINE
8
BLACK
6
CONTINUOUS
10
5.62302
20
-4.875
11
5.62303
21
-4.8749
0
LINE
8
BLACK
6
CONTINUOUS
10
5.62303
20
-4.8749
11
5.62303
21
-4.3126
0
LINE
8
BLACK
6
CONTINUOUS
10
5.62303
20
-4.3126
11
5.62302
21
-4.3125
0
LINE
8
BLACK
6
CONTINUOUS
10
5.62302
20
-4.3125
11
5.62306
21
-4.31211
0
LINE
8
BLACK
6
CONTINUOUS
10
5.62306
20
-4.31211
11
5.62317
21
-4.31174
0
LINE
8
BLACK
6
CONTINUOUS
10
5.62317
20
-4.31174
11
5.62336
21
-4.3114
0
LINE
8
BLACK
6
CONTINUOUS
10
5.62336
20
-4.3114
11
5.6236
21
-4.3111
0
LINE
8
BLACK
6
CONTINUOUS
10
5.6236
20
-4.3111
11
5.6239
21
-4.31086
0
LINE
8
BLACK
6
CONTINUOUS
10
5.6239
20
-4.31086
11
5.62424
21
-4.31067
0
LINE
8
BLACK
6
CONTINUOUS
10
5.62424
20
-4.31067
11
5.62461
21
-4.31056
0
LINE
8
BLACK
6
CONTINUOUS
10
5.62461
20
-4.31056
11
5.6249
21
-4.31053
0
LINE
8
BLACK
6
CONTINUOUS
10
5.6249
20
-4.31053
11
5.625
21
-4.31052
0
LINE
8
BLACK
6
CONTINUOUS
10
5.625
20
-4.31052
11
5.6251
21
-4.31053
0
LINE
8
BLACK
6
CONTINUOUS
10
5.6251
20
-4.31053
11
6.1874
21
-4.31053
0
LINE
8
BLACK
6
CONTINUOUS
10
6.1874
20
-4.31053
11
6.1875
21
-4.31052
0
LINE
8
BLACK
6
CONTINUOUS
10
6.1875
20
-4.31052
11
6.1876
21
-4.31053
0
LINE
8
BLACK
6
CONTINUOUS
10
5.62697
20
-4.31447
11
5.62697
21
-4.87303
0
LINE
8
BLACK
6
CONTINUOUS
10
5.62697
20
-4.87303
11
6.18553
21
-4.87303
0
LINE
8
BLACK
6
CONTINUOUS
10
6.18553
20
-4.87303
11
6.18553
21
-4.31447
0
LINE
8
BLACK
6
CONTINUOUS
10
6.18553
20
-4.31447
11
5.62697
21
-4.31447
0
LINE
8
BLACK
6
CONTINUOUS
10
5.4376
20
-4.31053
11
5.43789
21
-4.31056
0
LINE
8
BLACK
6
CONTINUOUS
10
5.43789
20
-4.31056
11
5.43826
21
-4.31067
0
LINE
8
BLACK
6
CONTINUOUS
10
5.43826
20
-4.31067
11
5.4386
21
-4.31086
0
LINE
8
BLACK
6
CONTINUOUS
10
5.4386
20
-4.31086
11
5.4389
21
-4.3111
0
LINE
8
BLACK
6
CONTINUOUS
10
5.4389
20
-4.3111
11
5.43914
21
-4.3114
0
LINE
8
BLACK
6
CONTINUOUS
10
5.43914
20
-4.3114
11
5.43933
21
-4.31174
0
LINE
8
BLACK
6
CONTINUOUS
10
5.43933
20
-4.31174
11
5.43944
21
-4.31211
0
LINE
8
BLACK
6
CONTINUOUS
10
5.43944
20
-4.31211
11
5.43948
21
-4.3125
0
LINE
8
BLACK
6
CONTINUOUS
10
5.43948
20
-4.3125
11
5.43947
21
-4.3126
0
LINE
8
BLACK
6
CONTINUOUS
10
5.43947
20
-4.3126
11
5.43947
21
-4.8749
0
LINE
8
BLACK
6
CONTINUOUS
10
5.43947
20
-4.8749
11
5.43948
21
-4.875
0
LINE
8
BLACK
6
CONTINUOUS
10
5.43948
20
-4.875
11
5.43944
21
-4.87539
0
LINE
8
BLACK
6
CONTINUOUS
10
5.43944
20
-4.87539
11
5.43933
21
-4.87576
0
LINE
8
BLACK
6
CONTINUOUS
10
5.43933
20
-4.87576
11
5.43914
21
-4.8761
0
LINE
8
BLACK
6
CONTINUOUS
10
5.43914
20
-4.8761
11
5.4389
21
-4.8764
0
LINE
8
BLACK
6
CONTINUOUS
10
5.4389
20
-4.8764
11
5.4386
21
-4.87664
0
LINE
8
BLACK
6
CONTINUOUS
10
5.4386
20
-4.87664
11
5.43826
21
-4.87683
0
LINE
8
BLACK
6
CONTINUOUS
10
5.43826
20
-4.87683
11
5.43789
21
-4.87694
0
LINE
8
BLACK
6
CONTINUOUS
10
5.43789
20
-4.87694
11
5.4376
21
-4.87697
0
LINE
8
BLACK
6
CONTINUOUS
10
5.4376
20
-4.87697
11
5.4375
21
-4.87698
0
LINE
8
BLACK
6
CONTINUOUS
10
5.4375
20
-4.87698
11
5.4374
21
-4.87697
0
LINE
8
BLACK
6
CONTINUOUS
10
5.4374
20
-4.87697
11
4.8751
21
-4.87697
0
LINE
8
BLACK
6
CONTINUOUS
10
4.8751
20
-4.87697
11
4.875
21
-4.87698
0
LINE
8
BLACK
6
CONTINUOUS
10
4.875
20
-4.87698
11
4.8749
21
-4.87697
0
LINE
8
BLACK
6
CONTINUOUS
10
4.8749
20
-4.87697
11
4.87461
21
-4.87694
0
LINE
8
BLACK
6
CONTINUOUS
10
4.87461
20
-4.87694
11
4.87424
21
-4.87683
0
LINE
8
BLACK
6
CONTINUOUS
10
4.87424
20
-4.87683
11
4.8739
21
-4.87664
0
LINE
8
BLACK
6
CONTINUOUS
10
4.8739
20
-4.87664
11
4.8736
21
-4.8764
0
LINE
8
BLACK
6
CONTINUOUS
10
4.8736
20
-4.8764
11
4.87336
21
-4.8761
0
LINE
8
BLACK
6
CONTINUOUS
10
4.87336
20
-4.8761
11
4.87317
21
-4.87576
0
LINE
8
BLACK
6
CONTINUOUS
10
4.87317
20
-4.87576
11
4.87306
21
-4.87539
0
LINE
8
BLACK
6
CONTINUOUS
10
4.87306
20
-4.87539
11
4.87302
21
-4.875
0
LINE
8
BLACK
6
CONTINUOUS
10
4.87302
20
-4.875
11
4.87303
21
-4.8749
0
LINE
8
BLACK
6
CONTINUOUS
10
4.87303
20
-4.8749
11
4.87303
21
-4.3126
0
LINE
8
BLACK
6
CONTINUOUS
10
4.87303
20
-4.3126
11
4.87302
21
-4.3125
0
LINE
8
BLACK
6
CONTINUOUS
10
4.87302
20
-4.3125
11
4.87306
21
-4.31211
0
LINE
8
BLACK
6
CONTINUOUS
10
4.87306
20
-4.31211
11
4.87317
21
-4.31174
0
LINE
8
BLACK
6
CONTINUOUS
10
4.87317
20
-4.31174
11
4.87336
21
-4.3114
0
LINE
8
BLACK
6
CONTINUOUS
10
4.87336
20
-4.3114
11
4.8736
21
-4.3111
0
LINE
8
BLACK
6
CONTINUOUS
10
4.8736
20
-4.3111
11
4.8739
21
-4.31086
0
LINE
8
BLACK
6
CONTINUOUS
10
4.8739
20
-4.31086
11
4.87424
21
-4.31067
0
LINE
8
BLACK
6
CONTINUOUS
10
4.87424
20
-4.31067
11
4.87461
21
-4.31056
0
LINE
8
BLACK
6
CONTINUOUS
10
4.87461
20
-4.31056
11
4.8749
21
-4.31053
0
LINE
8
BLACK
6
CONTINUOUS
10
4.8749
20
-4.31053
11
4.875
21
-4.31052
0
LINE
8
BLACK
6
CONTINUOUS
10
4.875
20
-4.31052
11
4.8751
21
-4.31053
0
LINE
8
BLACK
6
CONTINUOUS
10
4.8751
20
-4.31053
11
5.4374
21
-4.31053
0
LINE
8
BLACK
6
CONTINUOUS
10
5.4374
20
-4.31053
11
5.4375
21
-4.31052
0
LINE
8
BLACK
6
CONTINUOUS
10
5.4375
20
-4.31052
11
5.4376
21
-4.31053
0
LINE
8
BLACK
6
CONTINUOUS
10
4.87697
20
-4.31447
11
4.87697
21
-4.87303
0
LINE
8
BLACK
6
CONTINUOUS
10
4.87697
20
-4.87303
11
5.43553
21
-4.87303
0
LINE
8
BLACK
6
CONTINUOUS
10
5.43553
20
-4.87303
11
5.43553
21
-4.31447
0
LINE
8
BLACK
6
CONTINUOUS
10
5.43553
20
-4.31447
11
4.87697
21
-4.31447
0
LINE
8
BLACK
6
CONTINUOUS
10
6.9376
20
-4.31053
11
6.93789
21
-4.31056
0
LINE
8
BLACK
6
CONTINUOUS
10
6.93789
20
-4.31056
11
6.93826
21
-4.31067
0
LINE
8
BLACK
6
CONTINUOUS
10
6.93826
20
-4.31067
11
6.9386
21
-4.31086
0
LINE
8
BLACK
6
CONTINUOUS
10
6.9386
20
-4.31086
11
6.9389
21
-4.3111
0
LINE
8
BLACK
6
CONTINUOUS
10
6.9389
20
-4.3111
11
6.93914
21
-4.3114
0
LINE
8
BLACK
6
CONTINUOUS
10
6.93914
20
-4.3114
11
6.93933
21
-4.31174
0
LINE
8
BLACK
6
CONTINUOUS
10
6.93933
20
-4.31174
11
6.93944
21
-4.31211
0
LINE
8
BLACK
6
CONTINUOUS
10
6.93944
20
-4.31211
11
6.93948
21
-4.3125
0
LINE
8
BLACK
6
CONTINUOUS
10
6.93948
20
-4.3125
11
6.93947
21
-4.3126
0
LINE
8
BLACK
6
CONTINUOUS
10
6.93947
20
-4.3126
11
6.93947
21
-4.8749
0
LINE
8
BLACK
6
CONTINUOUS
10
6.93947
20
-4.8749
11
6.93948
21
-4.875
0
LINE
8
BLACK
6
CONTINUOUS
10
6.93948
20
-4.875
11
6.93947
21
-4.8751
0
LINE
8
BLACK
6
CONTINUOUS
10
6.93947
20
-4.8751
11
6.93947
21
-4.8751
0
LINE
8
BLACK
6
CONTINUOUS
10
6.93947
20
-4.8751
11
6.93944
21
-4.87539
0
LINE
8
BLACK
6
CONTINUOUS
10
6.93944
20
-4.87539
11
6.93933
21
-4.87576
0
LINE
8
BLACK
6
CONTINUOUS
10
6.93933
20
-4.87576
11
6.93914
21
-4.8761
0
LINE
8
BLACK
6
CONTINUOUS
10
6.93914
20
-4.8761
11
6.9389
21
-4.8764
0
LINE
8
BLACK
6
CONTINUOUS
10
6.9389
20
-4.8764
11
6.9386
21
-4.87664
0
LINE
8
BLACK
6
CONTINUOUS
10
6.9386
20
-4.87664
11
6.93826
21
-4.87683
0
LINE
8
BLACK
6
CONTINUOUS
10
6.93826
20
-4.87683
11
6.93789
21
-4.87694
0
LINE
8
BLACK
6
CONTINUOUS
10
6.93789
20
-4.87694
11
6.9375
21
-4.87698
0
LINE
8
BLACK
6
CONTINUOUS
10
6.9375
20
-4.87698
11
6.9374
21
-4.87697
0
LINE
8
BLACK
6
CONTINUOUS
10
6.9374
20
-4.87697
11
6.3751
21
-4.87697
0
LINE
8
BLACK
6
CONTINUOUS
10
6.3751
20
-4.87697
11
6.375
21
-4.87698
0
LINE
8
BLACK
6
CONTINUOUS
10
6.375
20
-4.87698
11
6.37461
21
-4.87694
0
LINE
8
BLACK
6
CONTINUOUS
10
6.37461
20
-4.87694
11
6.37424
21
-4.87683
0
LINE
8
BLACK
6
CONTINUOUS
10
6.37424
20
-4.87683
11
6.3739
21
-4.87664
0
LINE
8
BLACK
6
CONTINUOUS
10
6.3739
20
-4.87664
11
6.3736
21
-4.8764
0
LINE
8
BLACK
6
CONTINUOUS
10
6.3736
20
-4.8764
11
6.37336
21
-4.8761
0
LINE
8
BLACK
6
CONTINUOUS
10
6.37336
20
-4.8761
11
6.37317
21
-4.87576
0
LINE
8
BLACK
6
CONTINUOUS
10
6.37317
20
-4.87576
11
6.37306
21
-4.87539
0
LINE
8
BLACK
6
CONTINUOUS
10
6.37306
20
-4.87539
11
6.37302
21
-4.875
0
LINE
8
BLACK
6
CONTINUOUS
10
6.37302
20
-4.875
11
6.37303
21
-4.8749
0
LINE
8
BLACK
6
CONTINUOUS
10
6.37303
20
-4.8749
11
6.37303
21
-4.3126
0
LINE
8
BLACK
6
CONTINUOUS
10
6.37303
20
-4.3126
11
6.37302
21
-4.3125
0
LINE
8
BLACK
6
CONTINUOUS
10
6.37302
20
-4.3125
11
6.37306
21
-4.31211
0
LINE
8
BLACK
6
CONTINUOUS
10
6.37306
20
-4.31211
11
6.37317
21
-4.31174
0
LINE
8
BLACK
6
CONTINUOUS
10
6.37317
20
-4.31174
11
6.37336
21
-4.3114
0
LINE
8
BLACK
6
CONTINUOUS
10
6.37336
20
-4.3114
11
6.3736
21
-4.3111
0
LINE
8
BLACK
6
CONTINUOUS
10
6.3736
20
-4.3111
11
6.3739
21
-4.31086
0
LINE
8
BLACK
6
CONTINUOUS
10
6.3739
20
-4.31086
11
6.37424
21
-4.31067
0
LINE
8
BLACK
6
CONTINUOUS
10
6.37424
20
-4.31067
11
6.37461
21
-4.31056
0
LINE
8
BLACK
6
CONTINUOUS
10
6.37461
20
-4.31056
11
6.3749
21
-4.31053
0
LINE
8
BLACK
6
CONTINUOUS
10
6.3749
20
-4.31053
11
6.375
21
-4.31052
0
LINE
8
BLACK
6
CONTINUOUS
10
6.375
20
-4.31052
11
6.3751
21
-4.31053
0
LINE
8
BLACK
6
CONTINUOUS
10
6.3751
20
-4.31053
11
6.9374
21
-4.31053
0
LINE
8
BLACK
6
CONTINUOUS
10
6.9374
20
-4.31053
11
6.9375
21
-4.31052
0
LINE
8
BLACK
6
CONTINUOUS
10
6.9375
20
-4.31052
11
6.9376
21
-4.31053
0
LINE
8
BLACK
6
CONTINUOUS
10
6.37697
20
-4.31447
11
6.37697
21
-4.87303
0
LINE
8
BLACK
6
CONTINUOUS
10
6.37697
20
-4.87303
11
6.93553
21
-4.87303
0
LINE
8
BLACK
6
CONTINUOUS
10
6.93553
20
-4.87303
11
6.93553
21
-4.31447
0
LINE
8
BLACK
6
CONTINUOUS
10
6.93553
20
-4.31447
11
6.37697
21
-4.31447
0
LINE
8
BLACK
6
CONTINUOUS
10
6.1876
20
-3.56053
11
6.18789
21
-3.56056
0
LINE
8
BLACK
6
CONTINUOUS
10
6.18789
20
-3.56056
11
6.18826
21
-3.56067
0
LINE
8
BLACK
6
CONTINUOUS
10
6.18826
20
-3.56067
11
6.1886
21
-3.56086
0
LINE
8
BLACK
6
CONTINUOUS
10
6.1886
20
-3.56086
11
6.1889
21
-3.5611
0
LINE
8
BLACK
6
CONTINUOUS
10
6.1889
20
-3.5611
11
6.18914
21
-3.5614
0
LINE
8
BLACK
6
CONTINUOUS
10
6.18914
20
-3.5614
11
6.18933
21
-3.56174
0
LINE
8
BLACK
6
CONTINUOUS
10
6.18933
20
-3.56174
11
6.18944
21
-3.56211
0
LINE
8
BLACK
6
CONTINUOUS
10
6.18944
20
-3.56211
11
6.18948
21
-3.5625
0
LINE
8
BLACK
6
CONTINUOUS
10
6.18948
20
-3.5625
11
6.18947
21
-3.5626
0
LINE
8
BLACK
6
CONTINUOUS
10
6.18947
20
-3.5626
11
6.18947
21
-4.1249
0
LINE
8
BLACK
6
CONTINUOUS
10
6.18947
20
-4.1249
11
6.18948
21
-4.125
0
LINE
8
BLACK
6
CONTINUOUS
10
6.18948
20
-4.125
11
6.18944
21
-4.12539
0
LINE
8
BLACK
6
CONTINUOUS
10
6.18944
20
-4.12539
11
6.18933
21
-4.12576
0
LINE
8
BLACK
6
CONTINUOUS
10
6.18933
20
-4.12576
11
6.18914
21
-4.1261
0
LINE
8
BLACK
6
CONTINUOUS
10
6.18914
20
-4.1261
11
6.1889
21
-4.1264
0
LINE
8
BLACK
6
CONTINUOUS
10
6.1889
20
-4.1264
11
6.1886
21
-4.12664
0
LINE
8
BLACK
6
CONTINUOUS
10
6.1886
20
-4.12664
11
6.18826
21
-4.12683
0
LINE
8
BLACK
6
CONTINUOUS
10
6.18826
20
-4.12683
11
6.18789
21
-4.12694
0
LINE
8
BLACK
6
CONTINUOUS
10
6.18789
20
-4.12694
11
6.1876
21
-4.12697
0
LINE
8
BLACK
6
CONTINUOUS
10
6.1876
20
-4.12697
11
6.1875
21
-4.12698
0
LINE
8
BLACK
6
CONTINUOUS
10
6.1875
20
-4.12698
11
6.1874
21
-4.12697
0
LINE
8
BLACK
6
CONTINUOUS
10
6.1874
20
-4.12697
11
5.6251
21
-4.12697
0
LINE
8
BLACK
6
CONTINUOUS
10
5.6251
20
-4.12697
11
5.625
21
-4.12698
0
LINE
8
BLACK
6
CONTINUOUS
10
5.625
20
-4.12698
11
5.6249
21
-4.12697
0
LINE
8
BLACK
6
CONTINUOUS
10
5.6249
20
-4.12697
11
5.62461
21
-4.12694
0
LINE
8
BLACK
6
CONTINUOUS
10
5.62461
20
-4.12694
11
5.62424
21
-4.12683
0
LINE
8
BLACK
6
CONTINUOUS
10
5.62424
20
-4.12683
11
5.6239
21
-4.12664
0
LINE
8
BLACK
6
CONTINUOUS
10
5.6239
20
-4.12664
11
5.6236
21
-4.1264
0
LINE
8
BLACK
6
CONTINUOUS
10
5.6236
20
-4.1264
11
5.62336
21
-4.1261
0
LINE
8
BLACK
6
CONTINUOUS
10
5.62336
20
-4.1261
11
5.62317
21
-4.12576
0
LINE
8
BLACK
6
CONTINUOUS
10
5.62317
20
-4.12576
11
5.62306
21
-4.12539
0
LINE
8
BLACK
6
CONTINUOUS
10
5.62306
20
-4.12539
11
5.62302
21
-4.125
0
LINE
8
BLACK
6
CONTINUOUS
10
5.62302
20
-4.125
11
5.62303
21
-4.1249
0
LINE
8
BLACK
6
CONTINUOUS
10
5.62303
20
-4.1249
11
5.62303
21
-3.5626
0
LINE
8
BLACK
6
CONTINUOUS
10
5.62303
20
-3.5626
11
5.62302
21
-3.5625
0
LINE
8
BLACK
6
CONTINUOUS
10
5.62302
20
-3.5625
11
5.62306
21
-3.56211
0
LINE
8
BLACK
6
CONTINUOUS
10
5.62306
20
-3.56211
11
5.62317
21
-3.56174
0
LINE
8
BLACK
6
CONTINUOUS
10
5.62317
20
-3.56174
11
5.62336
21
-3.5614
0
LINE
8
BLACK
6
CONTINUOUS
10
5.62336
20
-3.5614
11
5.6236
21
-3.5611
0
LINE
8
BLACK
6
CONTINUOUS
10
5.6236
20
-3.5611
11
5.6239
21
-3.56086
0
LINE
8
BLACK
6
CONTINUOUS
10
5.6239
20
-3.56086
11
5.62424
21
-3.56067
0
LINE
8
BLACK
6
CONTINUOUS
10
5.62424
20
-3.56067
11
5.62461
21
-3.56056
0
LINE
8
BLACK
6
CONTINUOUS
10
5.62461
20
-3.56056
11
5.6249
21
-3.56053
0
LINE
8
BLACK
6
CONTINUOUS
10
5.6249
20
-3.56053
11
5.625
21
-3.56052
0
LINE
8
BLACK
6
CONTINUOUS
10
5.625
20
-3.56052
11
5.6251
21
-3.56053
0
LINE
8
BLACK
6
CONTINUOUS
10
5.6251
20
-3.56053
11
6.1874
21
-3.56053
0
LINE
8
BLACK
6
CONTINUOUS
10
6.1874
20
-3.56053
11
6.1875
21
-3.56052
0
LINE
8
BLACK
6
CONTINUOUS
10
6.1875
20
-3.56052
11
6.1876
21
-3.56053
0
LINE
8
BLACK
6
CONTINUOUS
10
5.62697
20
-3.56447
11
5.62697
21
-4.12303
0
LINE
8
BLACK
6
CONTINUOUS
10
5.62697
20
-4.12303
11
6.18553
21
-4.12303
0
LINE
8
BLACK
6
CONTINUOUS
10
6.18553
20
-4.12303
11
6.18553
21
-3.56447
0
LINE
8
BLACK
6
CONTINUOUS
10
6.18553
20
-3.56447
11
5.62697
21
-3.56447
0
LINE
8
BLACK
6
CONTINUOUS
10
5.4376
20
-3.56053
11
5.43789
21
-3.56056
0
LINE
8
BLACK
6
CONTINUOUS
10
5.43789
20
-3.56056
11
5.43826
21
-3.56067
0
LINE
8
BLACK
6
CONTINUOUS
10
5.43826
20
-3.56067
11
5.4386
21
-3.56086
0
LINE
8
BLACK
6
CONTINUOUS
10
5.4386
20
-3.56086
11
5.4389
21
-3.5611
0
LINE
8
BLACK
6
CONTINUOUS
10
5.4389
20
-3.5611
11
5.43914
21
-3.5614
0
LINE
8
BLACK
6
CONTINUOUS
10
5.43914
20
-3.5614
11
5.43933
21
-3.56174
0
LINE
8
BLACK
6
CONTINUOUS
10
5.43933
20
-3.56174
11
5.43944
21
-3.56211
0
LINE
8
BLACK
6
CONTINUOUS
10
5.43944
20
-3.56211
11
5.43948
21
-3.5625
0
LINE
8
BLACK
6
CONTINUOUS
10
5.43948
20
-3.5625
11
5.43947
21
-3.5626
0
LINE
8
BLACK
6
CONTINUOUS
10
5.43947
20
-3.5626
11
5.43947
21
-4.1249
0
LINE
8
BLACK
6
CONTINUOUS
10
5.43947
20
-4.1249
11
5.43948
21
-4.125
0
LINE
8
BLACK
6
CONTINUOUS
10
5.43948
20
-4.125
11
5.43944
21
-4.12539
0
LINE
8
BLACK
6
CONTINUOUS
10
5.43944
20
-4.12539
11
5.43933
21
-4.12576
0
LINE
8
BLACK
6
CONTINUOUS
10
5.43933
20
-4.12576
11
5.43914
21
-4.1261
0
LINE
8
BLACK
6
CONTINUOUS
10
5.43914
20
-4.1261
11
5.4389
21
-4.1264
0
LINE
8
BLACK
6
CONTINUOUS
10
5.4389
20
-4.1264
11
5.4386
21
-4.12664
0
LINE
8
BLACK
6
CONTINUOUS
10
5.4386
20
-4.12664
11
5.43826
21
-4.12683
0
LINE
8
BLACK
6
CONTINUOUS
10
5.43826
20
-4.12683
11
5.43789
21
-4.12694
0
LINE
8
BLACK
6
CONTINUOUS
10
5.43789
20
-4.12694
11
5.4376
21
-4.12697
0
LINE
8
BLACK
6
CONTINUOUS
10
5.4376
20
-4.12697
11
5.4375
21
-4.12698
0
LINE
8
BLACK
6
CONTINUOUS
10
5.4375
20
-4.12698
11
5.4374
21
-4.12697
0
LINE
8
BLACK
6
CONTINUOUS
10
5.4374
20
-4.12697
11
4.8751
21
-4.12697
0
LINE
8
BLACK
6
CONTINUOUS
10
4.8751
20
-4.12697
11
4.875
21
-4.12698
0
LINE
8
BLACK
6
CONTINUOUS
10
4.875
20
-4.12698
11
4.8749
21
-4.12697
0
LINE
8
BLACK
6
CONTINUOUS
10
4.8749
20
-4.12697
11
4.87461
21
-4.12694
0
LINE
8
BLACK
6
CONTINUOUS
10
4.87461
20
-4.12694
11
4.87424
21
-4.12683
0
LINE
8
BLACK
6
CONTINUOUS
10
4.87424
20
-4.12683
11
4.8739
21
-4.12664
0
LINE
8
BLACK
6
CONTINUOUS
10
4.8739
20
-4.12664
11
4.8736
21
-4.1264
0
LINE
8
BLACK
6
CONTINUOUS
10
4.8736
20
-4.1264
11
4.87336
21
-4.1261
0
LINE
8
BLACK
6
CONTINUOUS
10
4.87336
20
-4.1261
11
4.87317
21
-4.12576
0
LINE
8
BLACK
6
CONTINUOUS
10
4.87317
20
-4.12576
11
4.87306
21
-4.12539
0
LINE
8
BLACK
6
CONTINUOUS
10
4.87306
20
-4.12539
11
4.87302
21
-4.125
0
LINE
8
BLACK
6
CONTINUOUS
10
4.87302
20
-4.125
11
4.87303
21
-4.1249
0
LINE
8
BLACK
6
CONTINUOUS
10
4.87303
20
-4.1249
11
4.87303
21
-3.5626
0
LINE
8
BLACK
6
CONTINUOUS
10
4.87303
20
-3.5626
11
4.87302
21
-3.5625
0
LINE
8
BLACK
6
CONTINUOUS
10
4.87302
20
-3.5625
11
4.87306
21
-3.56211
0
LINE
8
BLACK
6
CONTINUOUS
10
4.87306
20
-3.56211
11
4.87317
21
-3.56174
0
LINE
8
BLACK
6
CONTINUOUS
10
4.87317
20
-3.56174
11
4.87336
21
-3.5614
0
LINE
8
BLACK
6
CONTINUOUS
10
4.87336
20
-3.5614
11
4.8736
21
-3.5611
0
LINE
8
BLACK
6
CONTINUOUS
10
4.8736
20
-3.5611
11
4.8739
21
-3.56086
0
LINE
8
BLACK
6
CONTINUOUS
10
4.8739
20
-3.56086
11
4.87424
21
-3.56067
0
LINE
8
BLACK
6
CONTINUOUS
10
4.87424
20
-3.56067
11
4.87461
21
-3.56056
0
LINE
8
BLACK
6
CONTINUOUS
10
4.87461
20
-3.56056
11
4.8749
21
-3.56053
0
LINE
8
BLACK
6
CONTINUOUS
10
4.8749
20
-3.56053
11
4.875
21
-3.56052
0
LINE
8
BLACK
6
CONTINUOUS
10
4.875
20
-3.56052
11
4.8751
21
-3.56053
0
LINE
8
BLACK
6
CONTINUOUS
10
4.8751
20
-3.56053
11
5.4374
21
-3.56053
0
LINE
8
BLACK
6
CONTINUOUS
10
5.4374
20
-3.56053
11
5.4375
21
-3.56052
0
LINE
8
BLACK
6
CONTINUOUS
10
5.4375
20
-3.56052
11
5.4376
21
-3.56053
0
LINE
8
BLACK
6
CONTINUOUS
10
4.87697
20
-3.56447
11
4.87697
21
-4.12303
0
LINE
8
BLACK
6
CONTINUOUS
10
4.87697
20
-4.12303
11
5.43553
21
-4.12303
0
LINE
8
BLACK
6
CONTINUOUS
10
5.43553
20
-4.12303
11
5.43553
21
-3.56447
0
LINE
8
BLACK
6
CONTINUOUS
10
5.43553
20
-3.56447
11
4.87697
21
-3.56447
0
LINE
8
BLACK
6
CONTINUOUS
10
7.6876
20
-3.56053
11
7.68789
21
-3.56056
0
LINE
8
BLACK
6
CONTINUOUS
10
7.68789
20
-3.56056
11
7.68826
21
-3.56067
0
LINE
8
BLACK
6
CONTINUOUS
10
7.68826
20
-3.56067
11
7.6886
21
-3.56086
0
LINE
8
BLACK
6
CONTINUOUS
10
7.6886
20
-3.56086
11
7.6889
21
-3.5611
0
LINE
8
BLACK
6
CONTINUOUS
10
7.6889
20
-3.5611
11
7.68914
21
-3.5614
0
LINE
8
BLACK
6
CONTINUOUS
10
7.68914
20
-3.5614
11
7.68933
21
-3.56174
0
LINE
8
BLACK
6
CONTINUOUS
10
7.68933
20
-3.56174
11
7.68944
21
-3.56211
0
LINE
8
BLACK
6
CONTINUOUS
10
7.68944
20
-3.56211
11
7.68948
21
-3.5625
0
LINE
8
BLACK
6
CONTINUOUS
10
7.68948
20
-3.5625
11
7.68947
21
-3.5626
0
LINE
8
BLACK
6
CONTINUOUS
10
7.68947
20
-3.5626
11
7.68947
21
-4.1249
0
LINE
8
BLACK
6
CONTINUOUS
10
7.68947
20
-4.1249
11
7.68948
21
-4.125
0
LINE
8
BLACK
6
CONTINUOUS
10
7.68948
20
-4.125
11
7.68947
21
-4.1251
0
LINE
8
BLACK
6
CONTINUOUS
10
7.68947
20
-4.1251
11
7.68947
21
-4.1251
0
LINE
8
BLACK
6
CONTINUOUS
10
7.68947
20
-4.1251
11
7.68944
21
-4.12539
0
LINE
8
BLACK
6
CONTINUOUS
10
7.68944
20
-4.12539
11
7.68933
21
-4.12576
0
LINE
8
BLACK
6
CONTINUOUS
10
7.68933
20
-4.12576
11
7.68914
21
-4.1261
0
LINE
8
BLACK
6
CONTINUOUS
10
7.68914
20
-4.1261
11
7.6889
21
-4.1264
0
LINE
8
BLACK
6
CONTINUOUS
10
7.6889
20
-4.1264
11
7.6886
21
-4.12664
0
LINE
8
BLACK
6
CONTINUOUS
10
7.6886
20
-4.12664
11
7.68826
21
-4.12683
0
LINE
8
BLACK
6
CONTINUOUS
10
7.68826
20
-4.12683
11
7.68789
21
-4.12694
0
LINE
8
BLACK
6
CONTINUOUS
10
7.68789
20
-4.12694
11
7.6875
21
-4.12698
0
LINE
8
BLACK
6
CONTINUOUS
10
7.6875
20
-4.12698
11
7.6874
21
-4.12697
0
LINE
8
BLACK
6
CONTINUOUS
10
7.6874
20
-4.12697
11
7.1251
21
-4.12697
0
LINE
8
BLACK
6
CONTINUOUS
10
7.1251
20
-4.12697
11
7.125
21
-4.12698
0
LINE
8
BLACK
6
CONTINUOUS
10
7.125
20
-4.12698
11
7.12461
21
-4.12694
0
LINE
8
BLACK
6
CONTINUOUS
10
7.12461
20
-4.12694
11
7.12424
21
-4.12683
0
LINE
8
BLACK
6
CONTINUOUS
10
7.12424
20
-4.12683
11
7.1239
21
-4.12664
0
LINE
8
BLACK
6
CONTINUOUS
10
7.1239
20
-4.12664
11
7.1236
21
-4.1264
0
LINE
8
BLACK
6
CONTINUOUS
10
7.1236
20
-4.1264
11
7.12336
21
-4.1261
0
LINE
8
BLACK
6
CONTINUOUS
10
7.12336
20
-4.1261
11
7.12317
21
-4.12576
0
LINE
8
BLACK
6
CONTINUOUS
10
7.12317
20
-4.12576
11
7.12306
21
-4.12539
0
LINE
8
BLACK
6
CONTINUOUS
10
7.12306
20
-4.12539
11
7.12302
21
-4.125
0
LINE
8
BLACK
6
CONTINUOUS
10
7.12302
20
-4.125
11
7.12303
21
-4.1249
0
LINE
8
BLACK
6
CONTINUOUS
10
7.12303
20
-4.1249
11
7.12303
21
-3.5626
0
LINE
8
BLACK
6
CONTINUOUS
10
7.12303
20
-3.5626
11
7.12302
21
-3.5625
0
LINE
8
BLACK
6
CONTINUOUS
10
7.12302
20
-3.5625
11
7.12306
21
-3.56211
0
LINE
8
BLACK
6
CONTINUOUS
10
7.12306
20
-3.56211
11
7.12317
21
-3.56174
0
LINE
8
BLACK
6
CONTINUOUS
10
7.12317
20
-3.56174
11
7.12336
21
-3.5614
0
LINE
8
BLACK
6
CONTINUOUS
10
7.12336
20
-3.5614
11
7.1236
21
-3.5611
0
LINE
8
BLACK
6
CONTINUOUS
10
7.1236
20
-3.5611
11
7.1239
21
-3.56086
0
LINE
8
BLACK
6
CONTINUOUS
10
7.1239
20
-3.56086
11
7.12424
21
-3.56067
0
LINE
8
BLACK
6
CONTINUOUS
10
7.12424
20
-3.56067
11
7.12461
21
-3.56056
0
LINE
8
BLACK
6
CONTINUOUS
10
7.12461
20
-3.56056
11
7.1249
21
-3.56053
0
LINE
8
BLACK
6
CONTINUOUS
10
7.1249
20
-3.56053
11
7.125
21
-3.56052
0
LINE
8
BLACK
6
CONTINUOUS
10
7.125
20
-3.56052
11
7.1251
21
-3.56053
0
LINE
8
BLACK
6
CONTINUOUS
10
7.1251
20
-3.56053
11
7.6874
21
-3.56053
0
LINE
8
BLACK
6
CONTINUOUS
10
7.6874
20
-3.56053
11
7.6875
21
-3.56052
0
LINE
8
BLACK
6
CONTINUOUS
10
7.6875
20
-3.56052
11
7.6876
21
-3.56053
0
LINE
8
BLACK
6
CONTINUOUS
10
7.12697
20
-3.56447
11
7.12697
21
-4.12303
0
LINE
8
BLACK
6
CONTINUOUS
10
7.12697
20
-4.12303
11
7.68553
21
-4.12303
0
LINE
8
BLACK
6
CONTINUOUS
10
7.68553
20
-4.12303
11
7.68553
21
-3.56447
0
LINE
8
BLACK
6
CONTINUOUS
10
7.68553
20
-3.56447
11
7.12697
21
-3.56447
0
LINE
8
BLACK
6
CONTINUOUS
10
4.6876
20
-3.56053
11
4.68789
21
-3.56056
0
LINE
8
BLACK
6
CONTINUOUS
10
4.68789
20
-3.56056
11
4.68826
21
-3.56067
0
LINE
8
BLACK
6
CONTINUOUS
10
4.68826
20
-3.56067
11
4.6886
21
-3.56086
0
LINE
8
BLACK
6
CONTINUOUS
10
4.6886
20
-3.56086
11
4.6889
21
-3.5611
0
LINE
8
BLACK
6
CONTINUOUS
10
4.6889
20
-3.5611
11
4.68914
21
-3.5614
0
LINE
8
BLACK
6
CONTINUOUS
10
4.68914
20
-3.5614
11
4.68933
21
-3.56174
0
LINE
8
BLACK
6
CONTINUOUS
10
4.68933
20
-3.56174
11
4.68944
21
-3.56211
0
LINE
8
BLACK
6
CONTINUOUS
10
4.68944
20
-3.56211
11
4.68948
21
-3.5625
0
LINE
8
BLACK
6
CONTINUOUS
10
4.68948
20
-3.5625
11
4.68947
21
-3.5626
0
LINE
8
BLACK
6
CONTINUOUS
10
4.68947
20
-3.5626
11
4.68947
21
-4.1249
0
LINE
8
BLACK
6
CONTINUOUS
10
4.68947
20
-4.1249
11
4.68948
21
-4.125
0
LINE
8
BLACK
6
CONTINUOUS
10
4.68948
20
-4.125
11
4.68947
21
-4.1251
0
LINE
8
BLACK
6
CONTINUOUS
10
4.68947
20
-4.1251
11
4.68947
21
-4.1251
0
LINE
8
BLACK
6
CONTINUOUS
10
4.68947
20
-4.1251
11
4.68944
21
-4.12539
0
LINE
8
BLACK
6
CONTINUOUS
10
4.68944
20
-4.12539
11
4.68933
21
-4.12576
0
LINE
8
BLACK
6
CONTINUOUS
10
4.68933
20
-4.12576
11
4.68914
21
-4.1261
0
LINE
8
BLACK
6
CONTINUOUS
10
4.68914
20
-4.1261
11
4.6889
21
-4.1264
0
LINE
8
BLACK
6
CONTINUOUS
10
4.6889
20
-4.1264
11
4.6886
21
-4.12664
0
LINE
8
BLACK
6
CONTINUOUS
10
4.6886
20
-4.12664
11
4.68826
21
-4.12683
0
LINE
8
BLACK
6
CONTINUOUS
10
4.68826
20
-4.12683
11
4.68789
21
-4.12694
0
LINE
8
BLACK
6
CONTINUOUS
10
4.68789
20
-4.12694
11
4.6875
21
-4.12698
0
LINE
8
BLACK
6
CONTINUOUS
10
4.6875
20
-4.12698
11
4.6874
21
-4.12697
0
LINE
8
BLACK
6
CONTINUOUS
10
4.6874
20
-4.12697
11
4.1251
21
-4.12697
0
LINE
8
BLACK
6
CONTINUOUS
10
4.1251
20
-4.12697
11
4.125
21
-4.12698
0
LINE
8
BLACK
6
CONTINUOUS
10
4.125
20
-4.12698
11
4.12461
21
-4.12694
0
LINE
8
BLACK
6
CONTINUOUS
10
4.12461
20
-4.12694
11
4.12424
21
-4.12683
0
LINE
8
BLACK
6
CONTINUOUS
10
4.12424
20
-4.12683
11
4.1239
21
-4.12664
0
LINE
8
BLACK
6
CONTINUOUS
10
4.1239
20
-4.12664
11
4.1236
21
-4.1264
0
LINE
8
BLACK
6
CONTINUOUS
10
4.1236
20
-4.1264
11
4.12336
21
-4.1261
0
LINE
8
BLACK
6
CONTINUOUS
10
4.12336
20
-4.1261
11
4.12317
21
-4.12576
0
LINE
8
BLACK
6
CONTINUOUS
10
4.12317
20
-4.12576
11
4.12306
21
-4.12539
0
LINE
8
BLACK
6
CONTINUOUS
10
4.12306
20
-4.12539
11
4.12302
21
-4.125
0
LINE
8
BLACK
6
CONTINUOUS
10
4.12302
20
-4.125
11
4.12303
21
-4.1249
0
LINE
8
BLACK
6
CONTINUOUS
10
4.12303
20
-4.1249
11
4.12303
21
-3.5626
0
LINE
8
BLACK
6
CONTINUOUS
10
4.12303
20
-3.5626
11
4.12302
21
-3.5625
0
LINE
8
BLACK
6
CONTINUOUS
10
4.12302
20
-3.5625
11
4.12306
21
-3.56211
0
LINE
8
BLACK
6
CONTINUOUS
10
4.12306
20
-3.56211
11
4.12317
21
-3.56174
0
LINE
8
BLACK
6
CONTINUOUS
10
4.12317
20
-3.56174
11
4.12336
21
-3.5614
0
LINE
8
BLACK
6
CONTINUOUS
10
4.12336
20
-3.5614
11
4.1236
21
-3.5611
0
LINE
8
BLACK
6
CONTINUOUS
10
4.1236
20
-3.5611
11
4.1239
21
-3.56086
0
LINE
8
BLACK
6
CONTINUOUS
10
4.1239
20
-3.56086
11
4.12424
21
-3.56067
0
LINE
8
BLACK
6
CONTINUOUS
10
4.12424
20
-3.56067
11
4.12461
21
-3.56056
0
LINE
8
BLACK
6
CONTINUOUS
10
4.12461
20
-3.56056
11
4.1249
21
-3.56053
0
LINE
8
BLACK
6
CONTINUOUS
10
4.1249
20
-3.56053
11
4.125
21
-3.56052
0
LINE
8
BLACK
6
CONTINUOUS
10
4.125
20
-3.56052
11
4.1251
21
-3.56053
0
LINE
8
BLACK
6
CONTINUOUS
10
4.1251
20
-3.56053
11
4.6874
21
-3.56053
0
LINE
8
BLACK
6
CONTINUOUS
10
4.6874
20
-3.56053
11
4.6875
21
-3.56052
0
LINE
8
BLACK
6
CONTINUOUS
10
4.6875
20
-3.56052
11
4.6876
21
-3.56053
0
LINE
8
BLACK
6
CONTINUOUS
10
4.12697
20
-3.56447
11
4.12697
21
-4.12303
0
LINE
8
BLACK
6
CONTINUOUS
10
4.12697
20
-4.12303
11
4.68553
21
-4.12303
0
LINE
8
BLACK
6
CONTINUOUS
10
4.68553
20
-4.12303
11
4.68553
21
-3.56447
0
LINE
8
BLACK
6
CONTINUOUS
10
4.68553
20
-3.56447
11
4.12697
21
-3.56447
0
LINE
8
BLACK
6
CONTINUOUS
10
6.9376
20
-3.56053
11
6.93789
21
-3.56056
0
LINE
8
BLACK
6
CONTINUOUS
10
6.93789
20
-3.56056
11
6.93826
21
-3.56067
0
LINE
8
BLACK
6
CONTINUOUS
10
6.93826
20
-3.56067
11
6.9386
21
-3.56086
0
LINE
8
BLACK
6
CONTINUOUS
10
6.9386
20
-3.56086
11
6.9389
21
-3.5611
0
LINE
8
BLACK
6
CONTINUOUS
10
6.9389
20
-3.5611
11
6.93914
21
-3.5614
0
LINE
8
BLACK
6
CONTINUOUS
10
6.93914
20
-3.5614
11
6.93933
21
-3.56174
0
LINE
8
BLACK
6
CONTINUOUS
10
6.93933
20
-3.56174
11
6.93944
21
-3.56211
0
LINE
8
BLACK
6
CONTINUOUS
10
6.93944
20
-3.56211
11
6.93948
21
-3.5625
0
LINE
8
BLACK
6
CONTINUOUS
10
6.93948
20
-3.5625
11
6.93947
21
-3.5626
0
LINE
8
BLACK
6
CONTINUOUS
10
6.93947
20
-3.5626
11
6.93947
21
-4.1249
0
LINE
8
BLACK
6
CONTINUOUS
10
6.93947
20
-4.1249
11
6.93948
21
-4.125
0
LINE
8
BLACK
6
CONTINUOUS
10
6.93948
20
-4.125
11
6.93947
21
-4.1251
0
LINE
8
BLACK
6
CONTINUOUS
10
6.93947
20
-4.1251
11
6.93947
21
-4.1251
0
LINE
8
BLACK
6
CONTINUOUS
10
6.93947
20
-4.1251
11
6.93944
21
-4.12539
0
LINE
8
BLACK
6
CONTINUOUS
10
6.93944
20
-4.12539
11
6.93933
21
-4.12576
0
LINE
8
BLACK
6
CONTINUOUS
10
6.93933
20
-4.12576
11
6.93914
21
-4.1261
0
LINE
8
BLACK
6
CONTINUOUS
10
6.93914
20
-4.1261
11
6.9389
21
-4.1264
0
LINE
8
BLACK
6
CONTINUOUS
10
6.9389
20
-4.1264
11
6.9386
21
-4.12664
0
LINE
8
BLACK
6
CONTINUOUS
10
6.9386
20
-4.12664
11
6.93826
21
-4.12683
0
LINE
8
BLACK
6
CONTINUOUS
10
6.93826
20
-4.12683
11
6.93789
21
-4.12694
0
LINE
8
BLACK
6
CONTINUOUS
10
6.93789
20
-4.12694
11
6.9375
21
-4.12698
0
LINE
8
BLACK
6
CONTINUOUS
10
6.9375
20
-4.12698
11
6.9374
21
-4.12697
0
LINE
8
BLACK
6
CONTINUOUS
10
6.9374
20
-4.12697
11
6.3751
21
-4.12697
0
LINE
8
BLACK
6
CONTINUOUS
10
6.3751
20
-4.12697
11
6.375
21
-4.12698
0
LINE
8
BLACK
6
CONTINUOUS
10
6.375
20
-4.12698
11
6.37461
21
-4.12694
0
LINE
8
BLACK
6
CONTINUOUS
10
6.37461
20
-4.12694
11
6.37424
21
-4.12683
0
LINE
8
BLACK
6
CONTINUOUS
10
6.37424
20
-4.12683
11
6.3739
21
-4.12664
0
LINE
8
BLACK
6
CONTINUOUS
10
6.3739
20
-4.12664
11
6.3736
21
-4.1264
0
LINE
8
BLACK
6
CONTINUOUS
10
6.3736
20
-4.1264
11
6.37336
21
-4.1261
0
LINE
8
BLACK
6
CONTINUOUS
10
6.37336
20
-4.1261
11
6.37317
21
-4.12576
0
LINE
8
BLACK
6
CONTINUOUS
10
6.37317
20
-4.12576
11
6.37306
21
-4.12539
0
LINE
8
BLACK
6
CONTINUOUS
10
6.37306
20
-4.12539
11
6.37302
21
-4.125
0
LINE
8
BLACK
6
CONTINUOUS
10
6.37302
20
-4.125
11
6.37303
21
-4.1249
0
LINE
8
BLACK
6
CONTINUOUS
10
6.37303
20
-4.1249
11
6.37303
21
-3.5626
0
LINE
8
BLACK
6
CONTINUOUS
10
6.37303
20
-3.5626
11
6.37302
21
-3.5625
0
LINE
8
BLACK
6
CONTINUOUS
10
6.37302
20
-3.5625
11
6.37306
21
-3.56211
0
LINE
8
BLACK
6
CONTINUOUS
10
6.37306
20
-3.56211
11
6.37317
21
-3.56174
0
LINE
8
BLACK
6
CONTINUOUS
10
6.37317
20
-3.56174
11
6.37336
21
-3.5614
0
LINE
8
BLACK
6
CONTINUOUS
10
6.37336
20
-3.5614
11
6.3736
21
-3.5611
0
LINE
8
BLACK
6
CONTINUOUS
10
6.3736
20
-3.5611
11
6.3739
21
-3.56086
0
LINE
8
BLACK
6
CONTINUOUS
10
6.3739
20
-3.56086
11
6.37424
21
-3.56067
0
LINE
8
BLACK
6
CONTINUOUS
10
6.37424
20
-3.56067
11
6.37461
21
-3.56056
0
LINE
8
BLACK
6
CONTINUOUS
10
6.37461
20
-3.56056
11
6.3749
21
-3.56053
0
LINE
8
BLACK
6
CONTINUOUS
10
6.3749
20
-3.56053
11
6.375
21
-3.56052
0
LINE
8
BLACK
6
CONTINUOUS
10
6.375
20
-3.56052
11
6.3751
21
-3.56053
0
LINE
8
BLACK
6
CONTINUOUS
10
6.3751
20
-3.56053
11
6.9374
21
-3.56053
0
LINE
8
BLACK
6
CONTINUOUS
10
6.9374
20
-3.56053
11
6.9375
21
-3.56052
0
LINE
8
BLACK
6
CONTINUOUS
10
6.9375
20
-3.56052
11
6.9376
21
-3.56053
0
LINE
8
BLACK
6
CONTINUOUS
10
6.37697
20
-3.56447
11
6.37697
21
-4.12303
0
LINE
8
BLACK
6
CONTINUOUS
10
6.37697
20
-4.12303
11
6.93553
21
-4.12303
0
LINE
8
BLACK
6
CONTINUOUS
10
6.93553
20
-4.12303
11
6.93553
21
-3.56447
0
LINE
8
BLACK
6
CONTINUOUS
10
6.93553
20
-3.56447
11
6.37697
21
-3.56447
0
LINE
8
BLACK
6
CONTINUOUS
10
4.6876
20
-2.81053
11
4.68789
21
-2.81056
0
LINE
8
BLACK
6
CONTINUOUS
10
4.68789
20
-2.81056
11
4.68826
21
-2.81067
0
LINE
8
BLACK
6
CONTINUOUS
10
4.68826
20
-2.81067
11
4.6886
21
-2.81086
0
LINE
8
BLACK
6
CONTINUOUS
10
4.6886
20
-2.81086
11
4.6889
21
-2.8111
0
LINE
8
BLACK
6
CONTINUOUS
10
4.6889
20
-2.8111
11
4.68914
21
-2.8114
0
LINE
8
BLACK
6
CONTINUOUS
10
4.68914
20
-2.8114
11
4.68933
21
-2.81174
0
LINE
8
BLACK
6
CONTINUOUS
10
4.68933
20
-2.81174
11
4.68944
21
-2.81211
0
LINE
8
BLACK
6
CONTINUOUS
10
4.68944
20
-2.81211
11
4.68948
21
-2.8125
0
LINE
8
BLACK
6
CONTINUOUS
10
4.68948
20
-2.8125
11
4.68947
21
-2.8126
0
LINE
8
BLACK
6
CONTINUOUS
10
4.68947
20
-2.8126
11
4.68947
21
-3.3749
0
LINE
8
BLACK
6
CONTINUOUS
10
4.68947
20
-3.3749
11
4.68948
21
-3.375
0
LINE
8
BLACK
6
CONTINUOUS
10
4.68948
20
-3.375
11
4.68947
21
-3.3751
0
LINE
8
BLACK
6
CONTINUOUS
10
4.68947
20
-3.3751
11
4.68947
21
-3.3751
0
LINE
8
BLACK
6
CONTINUOUS
10
4.68947
20
-3.3751
11
4.68944
21
-3.37539
0
LINE
8
BLACK
6
CONTINUOUS
10
4.68944
20
-3.37539
11
4.68933
21
-3.37576
0
LINE
8
BLACK
6
CONTINUOUS
10
4.68933
20
-3.37576
11
4.68914
21
-3.3761
0
LINE
8
BLACK
6
CONTINUOUS
10
4.68914
20
-3.3761
11
4.6889
21
-3.3764
0
LINE
8
BLACK
6
CONTINUOUS
10
4.6889
20
-3.3764
11
4.6886
21
-3.37664
0
LINE
8
BLACK
6
CONTINUOUS
10
4.6886
20
-3.37664
11
4.68826
21
-3.37683
0
LINE
8
BLACK
6
CONTINUOUS
10
4.68826
20
-3.37683
11
4.68789
21
-3.37694
0
LINE
8
BLACK
6
CONTINUOUS
10
4.68789
20
-3.37694
11
4.6875
21
-3.37698
0
LINE
8
BLACK
6
CONTINUOUS
10
4.6875
20
-3.37698
11
4.6874
21
-3.37697
0
LINE
8
BLACK
6
CONTINUOUS
10
4.6874
20
-3.37697
11
4.1251
21
-3.37697
0
LINE
8
BLACK
6
CONTINUOUS
10
4.1251
20
-3.37697
11
4.125
21
-3.37698
0
LINE
8
BLACK
6
CONTINUOUS
10
4.125
20
-3.37698
11
4.12461
21
-3.37694
0
LINE
8
BLACK
6
CONTINUOUS
10
4.12461
20
-3.37694
11
4.12424
21
-3.37683
0
LINE
8
BLACK
6
CONTINUOUS
10
4.12424
20
-3.37683
11
4.1239
21
-3.37664
0
LINE
8
BLACK
6
CONTINUOUS
10
4.1239
20
-3.37664
11
4.1236
21
-3.3764
0
LINE
8
BLACK
6
CONTINUOUS
10
4.1236
20
-3.3764
11
4.12336
21
-3.3761
0
LINE
8
BLACK
6
CONTINUOUS
10
4.12336
20
-3.3761
11
4.12317
21
-3.37576
0
LINE
8
BLACK
6
CONTINUOUS
10
4.12317
20
-3.37576
11
4.12306
21
-3.37539
0
LINE
8
BLACK
6
CONTINUOUS
10
4.12306
20
-3.37539
11
4.12302
21
-3.375
0
LINE
8
BLACK
6
CONTINUOUS
10
4.12302
20
-3.375
11
4.12303
21
-3.3749
0
LINE
8
BLACK
6
CONTINUOUS
10
4.12303
20
-3.3749
11
4.12303
21
-2.8126
0
LINE
8
BLACK
6
CONTINUOUS
10
4.12303
20
-2.8126
11
4.12302
21
-2.8125
0
LINE
8
BLACK
6
CONTINUOUS
10
4.12302
20
-2.8125
11
4.12306
21
-2.81211
0
LINE
8
BLACK
6
CONTINUOUS
10
4.12306
20
-2.81211
11
4.12317
21
-2.81174
0
LINE
8
BLACK
6
CONTINUOUS
10
4.12317
20
-2.81174
11
4.12336
21
-2.8114
0
LINE
8
BLACK
6
CONTINUOUS
10
4.12336
20
-2.8114
11
4.1236
21
-2.8111
0
LINE
8
BLACK
6
CONTINUOUS
10
4.1236
20
-2.8111
11
4.1239
21
-2.81086
0
LINE
8
BLACK
6
CONTINUOUS
10
4.1239
20
-2.81086
11
4.12424
21
-2.81067
0
LINE
8
BLACK
6
CONTINUOUS
10
4.12424
20
-2.81067
11
4.12461
21
-2.81056
0
LINE
8
BLACK
6
CONTINUOUS
10
4.12461
20
-2.81056
11
4.1249
21
-2.81053
0
LINE
8
BLACK
6
CONTINUOUS
10
4.1249
20
-2.81053
11
4.125
21
-2.81052
0
LINE
8
BLACK
6
CONTINUOUS
10
4.125
20
-2.81052
11
4.1251
21
-2.81053
0
LINE
8
BLACK
6
CONTINUOUS
10
4.1251
20
-2.81053
11
4.6874
21
-2.81053
0
LINE
8
BLACK
6
CONTINUOUS
10
4.6874
20
-2.81053
11
4.6875
21
-2.81052
0
LINE
8
BLACK
6
CONTINUOUS
10
4.6875
20
-2.81052
11
4.6876
21
-2.81053
0
LINE
8
BLACK
6
CONTINUOUS
10
4.12697
20
-2.81447
11
4.12697
21
-3.37303
0
LINE
8
BLACK
6
CONTINUOUS
10
4.12697
20
-3.37303
11
4.68553
21
-3.37303
0
LINE
8
BLACK
6
CONTINUOUS
10
4.68553
20
-3.37303
11
4.68553
21
-2.81447
0
LINE
8
BLACK
6
CONTINUOUS
10
4.68553
20
-2.81447
11
4.12697
21
-2.81447
0
LINE
8
BLACK
6
CONTINUOUS
10
6.9376
20
-2.81053
11
6.93789
21
-2.81056
0
LINE
8
BLACK
6
CONTINUOUS
10
6.93789
20
-2.81056
11
6.93826
21
-2.81067
0
LINE
8
BLACK
6
CONTINUOUS
10
6.93826
20
-2.81067
11
6.9386
21
-2.81086
0
LINE
8
BLACK
6
CONTINUOUS
10
6.9386
20
-2.81086
11
6.9389
21
-2.8111
0
LINE
8
BLACK
6
CONTINUOUS
10
6.9389
20
-2.8111
11
6.93914
21
-2.8114
0
LINE
8
BLACK
6
CONTINUOUS
10
6.93914
20
-2.8114
11
6.93933
21
-2.81174
0
LINE
8
BLACK
6
CONTINUOUS
10
6.93933
20
-2.81174
11
6.93944
21
-2.81211
0
LINE
8
BLACK
6
CONTINUOUS
10
6.93944
20
-2.81211
11
6.93948
21
-2.8125
0
LINE
8
BLACK
6
CONTINUOUS
10
6.93948
20
-2.8125
11
6.93947
21
-2.8126
0
LINE
8
BLACK
6
CONTINUOUS
10
6.93947
20
-2.8126
11
6.93947
21
-3.3749
0
LINE
8
BLACK
6
CONTINUOUS
10
6.93947
20
-3.3749
11
6.93948
21
-3.375
0
LINE
8
BLACK
6
CONTINUOUS
10
6.93948
20
-3.375
11
6.93947
21
-3.3751
0
LINE
8
BLACK
6
CONTINUOUS
10
6.93947
20
-3.3751
11
6.93947
21
-3.3751
0
LINE
8
BLACK
6
CONTINUOUS
10
6.93947
20
-3.3751
11
6.93944
21
-3.37539
0
LINE
8
BLACK
6
CONTINUOUS
10
6.93944
20
-3.37539
11
6.93933
21
-3.37576
0
LINE
8
BLACK
6
CONTINUOUS
10
6.93933
20
-3.37576
11
6.93914
21
-3.3761
0
LINE
8
BLACK
6
CONTINUOUS
10
6.93914
20
-3.3761
11
6.9389
21
-3.3764
0
LINE
8
BLACK
6
CONTINUOUS
10
6.9389
20
-3.3764
11
6.9386
21
-3.37664
0
LINE
8
BLACK
6
CONTINUOUS
10
6.9386
20
-3.37664
11
6.93826
21
-3.37683
0
LINE
8
BLACK
6
CONTINUOUS
10
6.93826
20
-3.37683
11
6.93789
21
-3.37694
0
LINE
8
BLACK
6
CONTINUOUS
10
6.93789
20
-3.37694
11
6.9375
21
-3.37698
0
LINE
8
BLACK
6
CONTINUOUS
10
6.9375
20
-3.37698
11
6.9374
21
-3.37697
0
LINE
8
BLACK
6
CONTINUOUS
10
6.9374
20
-3.37697
11
6.3751
21
-3.37697
0
LINE
8
BLACK
6
CONTINUOUS
10
6.3751
20
-3.37697
11
6.375
21
-3.37698
0
LINE
8
BLACK
6
CONTINUOUS
10
6.375
20
-3.37698
11
6.37461
21
-3.37694
0
LINE
8
BLACK
6
CONTINUOUS
10
6.37461
20
-3.37694
11
6.37424
21
-3.37683
0
LINE
8
BLACK
6
CONTINUOUS
10
6.37424
20
-3.37683
11
6.3739
21
-3.37664
0
LINE
8
BLACK
6
CONTINUOUS
10
6.3739
20
-3.37664
11
6.3736
21
-3.3764
0
LINE
8
BLACK
6
CONTINUOUS
10
6.3736
20
-3.3764
11
6.37336
21
-3.3761
0
LINE
8
BLACK
6
CONTINUOUS
10
6.37336
20
-3.3761
11
6.37317
21
-3.37576
0
LINE
8
BLACK
6
CONTINUOUS
10
6.37317
20
-3.37576
11
6.37306
21
-3.37539
0
LINE
8
BLACK
6
CONTINUOUS
10
6.37306
20
-3.37539
11
6.37302
21
-3.375
0
LINE
8
BLACK
6
CONTINUOUS
10
6.37302
20
-3.375
11
6.37303
21
-3.3749
0
LINE
8
BLACK
6
CONTINUOUS
10
6.37303
20
-3.3749
11
6.37303
21
-2.8126
0
LINE
8
BLACK
6
CONTINUOUS
10
6.37303
20
-2.8126
11
6.37302
21
-2.8125
0
LINE
8
BLACK
6
CONTINUOUS
10
6.37302
20
-2.8125
11
6.37306
21
-2.81211
0
LINE
8
BLACK
6
CONTINUOUS
10
6.37306
20
-2.81211
11
6.37317
21
-2.81174
0
LINE
8
BLACK
6
CONTINUOUS
10
6.37317
20
-2.81174
11
6.37336
21
-2.8114
0
LINE
8
BLACK
6
CONTINUOUS
10
6.37336
20
-2.8114
11
6.3736
21
-2.8111
0
LINE
8
BLACK
6
CONTINUOUS
10
6.3736
20
-2.8111
11
6.3739
21
-2.81086
0
LINE
8
BLACK
6
CONTINUOUS
10
6.3739
20
-2.81086
11
6.37424
21
-2.81067
0
LINE
8
BLACK
6
CONTINUOUS
10
6.37424
20
-2.81067
11
6.37461
21
-2.81056
0
LINE
8
BLACK
6
CONTINUOUS
10
6.37461
20
-2.81056
11
6.3749
21
-2.81053
0
LINE
8
BLACK
6
CONTINUOUS
10
6.3749
20
-2.81053
11
6.375
21
-2.81052
0
LINE
8
BLACK
6
CONTINUOUS
10
6.375
20
-2.81052
11
6.3751
21
-2.81053
0
LINE
8
BLACK
6
CONTINUOUS
10
6.3751
20
-2.81053
11
6.9374
21
-2.81053
0
LINE
8
BLACK
6
CONTINUOUS
10
6.9374
20
-2.81053
11
6.9375
21
-2.81052
0
LINE
8
BLACK
6
CONTINUOUS
10
6.9375
20
-2.81052
11
6.9376
21
-2.81053
0
LINE
8
BLACK
6
CONTINUOUS
10
6.37697
20
-2.81447
11
6.37697
21
-3.37303
0
LINE
8
BLACK
6
CONTINUOUS
10
6.37697
20
-3.37303
11
6.93553
21
-3.37303
0
LINE
8
BLACK
6
CONTINUOUS
10
6.93553
20
-3.37303
11
6.93553
21
-2.81447
0
LINE
8
BLACK
6
CONTINUOUS
10
6.93553
20
-2.81447
11
6.37697
21
-2.81447
0
LINE
8
BLACK
6
CONTINUOUS
10
8.4376
20
-2.81053
11
8.43789
21
-2.81056
0
LINE
8
BLACK
6
CONTINUOUS
10
8.43789
20
-2.81056
11
8.43826
21
-2.81067
0
LINE
8
BLACK
6
CONTINUOUS
10
8.43826
20
-2.81067
11
8.4386
21
-2.81086
0
LINE
8
BLACK
6
CONTINUOUS
10
8.4386
20
-2.81086
11
8.4389
21
-2.8111
0
LINE
8
BLACK
6
CONTINUOUS
10
8.4389
20
-2.8111
11
8.43914
21
-2.8114
0
LINE
8
BLACK
6
CONTINUOUS
10
8.43914
20
-2.8114
11
8.43933
21
-2.81174
0
LINE
8
BLACK
6
CONTINUOUS
10
8.43933
20
-2.81174
11
8.43944
21
-2.81211
0
LINE
8
BLACK
6
CONTINUOUS
10
8.43944
20
-2.81211
11
8.43948
21
-2.8125
0
LINE
8
BLACK
6
CONTINUOUS
10
8.43948
20
-2.8125
11
8.43947
21
-2.8126
0
LINE
8
BLACK
6
CONTINUOUS
10
8.43947
20
-2.8126
11
8.43947
21
-3.3749
0
LINE
8
BLACK
6
CONTINUOUS
10
8.43947
20
-3.3749
11
8.43948
21
-3.375
0
LINE
8
BLACK
6
CONTINUOUS
10
8.43948
20
-3.375
11
8.43947
21
-3.3751
0
LINE
8
BLACK
6
CONTINUOUS
10
8.43947
20
-3.3751
11
8.43947
21
-3.3751
0
LINE
8
BLACK
6
CONTINUOUS
10
8.43947
20
-3.3751
11
8.43944
21
-3.37539
0
LINE
8
BLACK
6
CONTINUOUS
10
8.43944
20
-3.37539
11
8.43933
21
-3.37576
0
LINE
8
BLACK
6
CONTINUOUS
10
8.43933
20
-3.37576
11
8.43914
21
-3.3761
0
LINE
8
BLACK
6
CONTINUOUS
10
8.43914
20
-3.3761
11
8.4389
21
-3.3764
0
LINE
8
BLACK
6
CONTINUOUS
10
8.4389
20
-3.3764
11
8.4386
21
-3.37664
0
LINE
8
BLACK
6
CONTINUOUS
10
8.4386
20
-3.37664
11
8.43826
21
-3.37683
0
LINE
8
BLACK
6
CONTINUOUS
10
8.43826
20
-3.37683
11
8.43789
21
-3.37694
0
LINE
8
BLACK
6
CONTINUOUS
10
8.43789
20
-3.37694
11
8.4375
21
-3.37698
0
LINE
8
BLACK
6
CONTINUOUS
10
8.4375
20
-3.37698
11
8.4374
21
-3.37697
0
LINE
8
BLACK
6
CONTINUOUS
10
8.4374
20
-3.37697
11
7.8751
21
-3.37697
0
LINE
8
BLACK
6
CONTINUOUS
10
7.8751
20
-3.37697
11
7.875
21
-3.37698
0
LINE
8
BLACK
6
CONTINUOUS
10
7.875
20
-3.37698
11
7.87461
21
-3.37694
0
LINE
8
BLACK
6
CONTINUOUS
10
7.87461
20
-3.37694
11
7.87424
21
-3.37683
0
LINE
8
BLACK
6
CONTINUOUS
10
7.87424
20
-3.37683
11
7.8739
21
-3.37664
0
LINE
8
BLACK
6
CONTINUOUS
10
7.8739
20
-3.37664
11
7.8736
21
-3.3764
0
LINE
8
BLACK
6
CONTINUOUS
10
7.8736
20
-3.3764
11
7.87336
21
-3.3761
0
LINE
8
BLACK
6
CONTINUOUS
10
7.87336
20
-3.3761
11
7.87317
21
-3.37576
0
LINE
8
BLACK
6
CONTINUOUS
10
7.87317
20
-3.37576
11
7.87306
21
-3.37539
0
LINE
8
BLACK
6
CONTINUOUS
10
7.87306
20
-3.37539
11
7.87302
21
-3.375
0
LINE
8
BLACK
6
CONTINUOUS
10
7.87302
20
-3.375
11
7.87303
21
-3.3749
0
LINE
8
BLACK
6
CONTINUOUS
10
7.87303
20
-3.3749
11
7.87303
21
-2.8126
0
LINE
8
BLACK
6
CONTINUOUS
10
7.87303
20
-2.8126
11
7.87302
21
-2.8125
0
LINE
8
BLACK
6
CONTINUOUS
10
7.87302
20
-2.8125
11
7.87306
21
-2.81211
0
LINE
8
BLACK
6
CONTINUOUS
10
7.87306
20
-2.81211
11
7.87317
21
-2.81174
0
LINE
8
BLACK
6
CONTINUOUS
10
7.87317
20
-2.81174
11
7.87336
21
-2.8114
0
LINE
8
BLACK
6
CONTINUOUS
10
7.87336
20
-2.8114
11
7.8736
21
-2.8111
0
LINE
8
BLACK
6
CONTINUOUS
10
7.8736
20
-2.8111
11
7.8739
21
-2.81086
0
LINE
8
BLACK
6
CONTINUOUS
10
7.8739
20
-2.81086
11
7.87424
21
-2.81067
0
LINE
8
BLACK
6
CONTINUOUS
10
7.87424
20
-2.81067
11
7.87461
21
-2.81056
0
LINE
8
BLACK
6
CONTINUOUS
10
7.87461
20
-2.81056
11
7.8749
21
-2.81053
0
LINE
8
BLACK
6
CONTINUOUS
10
7.8749
20
-2.81053
11
7.875
21
-2.81052
0
LINE
8
BLACK
6
CONTINUOUS
10
7.875
20
-2.81052
11
7.8751
21
-2.81053
0
LINE
8
BLACK
6
CONTINUOUS
10
7.8751
20
-2.81053
11
8.4374
21
-2.81053
0
LINE
8
BLACK
6
CONTINUOUS
10
8.4374
20
-2.81053
11
8.4375
21
-2.81052
0
LINE
8
BLACK
6
CONTINUOUS
10
8.4375
20
-2.81052
11
8.4376
21
-2.81053
0
LINE
8
BLACK
6
CONTINUOUS
10
7.87697
20
-2.81447
11
7.87697
21
-3.37303
0
LINE
8
BLACK
6
CONTINUOUS
10
7.87697
20
-3.37303
11
8.43553
21
-3.37303
0
LINE
8
BLACK
6
CONTINUOUS
10
8.43553
20
-3.37303
11
8.43553
21
-2.81447
0
LINE
8
BLACK
6
CONTINUOUS
10
8.43553
20
-2.81447
11
7.87697
21
-2.81447
0
LINE
8
BLACK
6
CONTINUOUS
10
7.6876
20
-2.81053
11
7.68789
21
-2.81056
0
LINE
8
BLACK
6
CONTINUOUS
10
7.68789
20
-2.81056
11
7.68826
21
-2.81067
0
LINE
8
BLACK
6
CONTINUOUS
10
7.68826
20
-2.81067
11
7.6886
21
-2.81086
0
LINE
8
BLACK
6
CONTINUOUS
10
7.6886
20
-2.81086
11
7.6889
21
-2.8111
0
LINE
8
BLACK
6
CONTINUOUS
10
7.6889
20
-2.8111
11
7.68914
21
-2.8114
0
LINE
8
BLACK
6
CONTINUOUS
10
7.68914
20
-2.8114
11
7.68933
21
-2.81174
0
LINE
8
BLACK
6
CONTINUOUS
10
7.68933
20
-2.81174
11
7.68944
21
-2.81211
0
LINE
8
BLACK
6
CONTINUOUS
10
7.68944
20
-2.81211
11
7.68948
21
-2.8125
0
LINE
8
BLACK
6
CONTINUOUS
10
7.68948
20
-2.8125
11
7.68947
21
-2.8126
0
LINE
8
BLACK
6
CONTINUOUS
10
7.68947
20
-2.8126
11
7.68947
21
-3.3749
0
LINE
8
BLACK
6
CONTINUOUS
10
7.68947
20
-3.3749
11
7.68948
21
-3.375
0
LINE
8
BLACK
6
CONTINUOUS
10
7.68948
20
-3.375
11
7.68947
21
-3.3751
0
LINE
8
BLACK
6
CONTINUOUS
10
7.68947
20
-3.3751
11
7.68947
21
-3.3751
0
LINE
8
BLACK
6
CONTINUOUS
10
7.68947
20
-3.3751
11
7.68944
21
-3.37539
0
LINE
8
BLACK
6
CONTINUOUS
10
7.68944
20
-3.37539
11
7.68933
21
-3.37576
0
LINE
8
BLACK
6
CONTINUOUS
10
7.68933
20
-3.37576
11
7.68914
21
-3.3761
0
LINE
8
BLACK
6
CONTINUOUS
10
7.68914
20
-3.3761
11
7.6889
21
-3.3764
0
LINE
8
BLACK
6
CONTINUOUS
10
7.6889
20
-3.3764
11
7.6886
21
-3.37664
0
LINE
8
BLACK
6
CONTINUOUS
10
7.6886
20
-3.37664
11
7.68826
21
-3.37683
0
LINE
8
BLACK
6
CONTINUOUS
10
7.68826
20
-3.37683
11
7.68789
21
-3.37694
0
LINE
8
BLACK
6
CONTINUOUS
10
7.68789
20
-3.37694
11
7.6875
21
-3.37698
0
LINE
8
BLACK
6
CONTINUOUS
10
7.6875
20
-3.37698
11
7.6874
21
-3.37697
0
LINE
8
BLACK
6
CONTINUOUS
10
7.6874
20
-3.37697
11
7.1251
21
-3.37697
0
LINE
8
BLACK
6
CONTINUOUS
10
7.1251
20
-3.37697
11
7.125
21
-3.37698
0
LINE
8
BLACK
6
CONTINUOUS
10
7.125
20
-3.37698
11
7.12461
21
-3.37694
0
LINE
8
BLACK
6
CONTINUOUS
10
7.12461
20
-3.37694
11
7.12424
21
-3.37683
0
LINE
8
BLACK
6
CONTINUOUS
10
7.12424
20
-3.37683
11
7.1239
21
-3.37664
0
LINE
8
BLACK
6
CONTINUOUS
10
7.1239
20
-3.37664
11
7.1236
21
-3.3764
0
LINE
8
BLACK
6
CONTINUOUS
10
7.1236
20
-3.3764
11
7.12336
21
-3.3761
0
LINE
8
BLACK
6
CONTINUOUS
10
7.12336
20
-3.3761
11
7.12317
21
-3.37576
0
LINE
8
BLACK
6
CONTINUOUS
10
7.12317
20
-3.37576
11
7.12306
21
-3.37539
0
LINE
8
BLACK
6
CONTINUOUS
10
7.12306
20
-3.37539
11
7.12302
21
-3.375
0
LINE
8
BLACK
6
CONTINUOUS
10
7.12302
20
-3.375
11
7.12303
21
-3.3749
0
LINE
8
BLACK
6
CONTINUOUS
10
7.12303
20
-3.3749
11
7.12303
21
-2.8126
0
LINE
8
BLACK
6
CONTINUOUS
10
7.12303
20
-2.8126
11
7.12302
21
-2.8125
0
LINE
8
BLACK
6
CONTINUOUS
10
7.12302
20
-2.8125
11
7.12306
21
-2.81211
0
LINE
8
BLACK
6
CONTINUOUS
10
7.12306
20
-2.81211
11
7.12317
21
-2.81174
0
LINE
8
BLACK
6
CONTINUOUS
10
7.12317
20
-2.81174
11
7.12336
21
-2.8114
0
LINE
8
BLACK
6
CONTINUOUS
10
7.12336
20
-2.8114
11
7.1236
21
-2.8111
0
LINE
8
BLACK
6
CONTINUOUS
10
7.1236
20
-2.8111
11
7.1239
21
-2.81086
0
LINE
8
BLACK
6
CONTINUOUS
10
7.1239
20
-2.81086
11
7.12424
21
-2.81067
0
LINE
8
BLACK
6
CONTINUOUS
10
7.12424
20
-2.81067
11
7.12461
21
-2.81056
0
LINE
8
BLACK
6
CONTINUOUS
10
7.12461
20
-2.81056
11
7.1249
21
-2.81053
0
LINE
8
BLACK
6
CONTINUOUS
10
7.1249
20
-2.81053
11
7.125
21
-2.81052
0
LINE
8
BLACK
6
CONTINUOUS
10
7.125
20
-2.81052
11
7.1251
21
-2.81053
0
LINE
8
BLACK
6
CONTINUOUS
10
7.1251
20
-2.81053
11
7.6874
21
-2.81053
0
LINE
8
BLACK
6
CONTINUOUS
10
7.6874
20
-2.81053
11
7.6875
21
-2.81052
0
LINE
8
BLACK
6
CONTINUOUS
10
7.6875
20
-2.81052
11
7.6876
21
-2.81053
0
LINE
8
BLACK
6
CONTINUOUS
10
7.12697
20
-2.81447
11
7.12697
21
-3.37303
0
LINE
8
BLACK
6
CONTINUOUS
10
7.12697
20
-3.37303
11
7.68553
21
-3.37303
0
LINE
8
BLACK
6
CONTINUOUS
10
7.68553
20
-3.37303
11
7.68553
21
-2.81447
0
LINE
8
BLACK
6
CONTINUOUS
10
7.68553
20
-2.81447
11
7.12697
21
-2.81447
0
LINE
8
BLACK
6
CONTINUOUS
10
5.4376
20
-2.81053
11
5.43789
21
-2.81056
0
LINE
8
BLACK
6
CONTINUOUS
10
5.43789
20
-2.81056
11
5.43826
21
-2.81067
0
LINE
8
BLACK
6
CONTINUOUS
10
5.43826
20
-2.81067
11
5.4386
21
-2.81086
0
LINE
8
BLACK
6
CONTINUOUS
10
5.4386
20
-2.81086
11
5.4389
21
-2.8111
0
LINE
8
BLACK
6
CONTINUOUS
10
5.4389
20
-2.8111
11
5.43914
21
-2.8114
0
LINE
8
BLACK
6
CONTINUOUS
10
5.43914
20
-2.8114
11
5.43933
21
-2.81174
0
LINE
8
BLACK
6
CONTINUOUS
10
5.43933
20
-2.81174
11
5.43944
21
-2.81211
0
LINE
8
BLACK
6
CONTINUOUS
10
5.43944
20
-2.81211
11
5.43948
21
-2.8125
0
LINE
8
BLACK
6
CONTINUOUS
10
5.43948
20
-2.8125
11
5.43947
21
-2.8126
0
LINE
8
BLACK
6
CONTINUOUS
10
5.43947
20
-2.8126
11
5.43947
21
-3.3749
0
LINE
8
BLACK
6
CONTINUOUS
10
5.43947
20
-3.3749
11
5.43948
21
-3.375
0
LINE
8
BLACK
6
CONTINUOUS
10
5.43948
20
-3.375
11
5.43944
21
-3.37539
0
LINE
8
BLACK
6
CONTINUOUS
10
5.43944
20
-3.37539
11
5.43933
21
-3.37576
0
LINE
8
BLACK
6
CONTINUOUS
10
5.43933
20
-3.37576
11
5.43914
21
-3.3761
0
LINE
8
BLACK
6
CONTINUOUS
10
5.43914
20
-3.3761
11
5.4389
21
-3.3764
0
LINE
8
BLACK
6
CONTINUOUS
10
5.4389
20
-3.3764
11
5.4386
21
-3.37664
0
LINE
8
BLACK
6
CONTINUOUS
10
5.4386
20
-3.37664
11
5.43826
21
-3.37683
0
LINE
8
BLACK
6
CONTINUOUS
10
5.43826
20
-3.37683
11
5.43789
21
-3.37694
0
LINE
8
BLACK
6
CONTINUOUS
10
5.43789
20
-3.37694
11
5.4376
21
-3.37697
0
LINE
8
BLACK
6
CONTINUOUS
10
5.4376
20
-3.37697
11
5.4375
21
-3.37698
0
LINE
8
BLACK
6
CONTINUOUS
10
5.4375
20
-3.37698
11
5.4374
21
-3.37697
0
LINE
8
BLACK
6
CONTINUOUS
10
5.4374
20
-3.37697
11
4.8751
21
-3.37697
0
LINE
8
BLACK
6
CONTINUOUS
10
4.8751
20
-3.37697
11
4.875
21
-3.37698
0
LINE
8
BLACK
6
CONTINUOUS
10
4.875
20
-3.37698
11
4.8749
21
-3.37697
0
LINE
8
BLACK
6
CONTINUOUS
10
4.8749
20
-3.37697
11
4.87461
21
-3.37694
0
LINE
8
BLACK
6
CONTINUOUS
10
4.87461
20
-3.37694
11
4.87424
21
-3.37683
0
LINE
8
BLACK
6
CONTINUOUS
10
4.87424
20
-3.37683
11
4.8739
21
-3.37664
0
LINE
8
BLACK
6
CONTINUOUS
10
4.8739
20
-3.37664
11
4.8736
21
-3.3764
0
LINE
8
BLACK
6
CONTINUOUS
10
4.8736
20
-3.3764
11
4.87336
21
-3.3761
0
LINE
8
BLACK
6
CONTINUOUS
10
4.87336
20
-3.3761
11
4.87317
21
-3.37576
0
LINE
8
BLACK
6
CONTINUOUS
10
4.87317
20
-3.37576
11
4.87306
21
-3.37539
0
LINE
8
BLACK
6
CONTINUOUS
10
4.87306
20
-3.37539
11
4.87302
21
-3.375
0
LINE
8
BLACK
6
CONTINUOUS
10
4.87302
20
-3.375
11
4.87303
21
-3.3749
0
LINE
8
BLACK
6
CONTINUOUS
10
4.87303
20
-3.3749
11
4.87303
21
-2.8126
0
LINE
8
BLACK
6
CONTINUOUS
10
4.87303
20
-2.8126
11
4.87302
21
-2.8125
0
LINE
8
BLACK
6
CONTINUOUS
10
4.87302
20
-2.8125
11
4.87306
21
-2.81211
0
LINE
8
BLACK
6
CONTINUOUS
10
4.87306
20
-2.81211
11
4.87317
21
-2.81174
0
LINE
8
BLACK
6
CONTINUOUS
10
4.87317
20
-2.81174
11
4.87336
21
-2.8114
0
LINE
8
BLACK
6
CONTINUOUS
10
4.87336
20
-2.8114
11
4.8736
21
-2.8111
0
LINE
8
BLACK
6
CONTINUOUS
10
4.8736
20
-2.8111
11
4.8739
21
-2.81086
0
LINE
8
BLACK
6
CONTINUOUS
10
4.8739
20
-2.81086
11
4.87424
21
-2.81067
0
LINE
8
BLACK
6
CONTINUOUS
10
4.87424
20
-2.81067
11
4.87461
21
-2.81056
0
LINE
8
BLACK
6
CONTINUOUS
10
4.87461
20
-2.81056
11
4.8749
21
-2.81053
0
LINE
8
BLACK
6
CONTINUOUS
10
4.8749
20
-2.81053
11
4.875
21
-2.81052
0
LINE
8
BLACK
6
CONTINUOUS
10
4.875
20
-2.81052
11
4.8751
21
-2.81053
0
LINE
8
BLACK
6
CONTINUOUS
10
4.8751
20
-2.81053
11
5.4374
21
-2.81053
0
LINE
8
BLACK
6
CONTINUOUS
10
5.4374
20
-2.81053
11
5.4375
21
-2.81052
0
LINE
8
BLACK
6
CONTINUOUS
10
5.4375
20
-2.81052
11
5.4376
21
-2.81053
0
LINE
8
BLACK
6
CONTINUOUS
10
4.87697
20
-2.81447
11
4.87697
21
-3.37303
0
LINE
8
BLACK
6
CONTINUOUS
10
4.87697
20
-3.37303
11
5.43553
21
-3.37303
0
LINE
8
BLACK
6
CONTINUOUS
10
5.43553
20
-3.37303
11
5.43553
21
-2.81447
0
LINE
8
BLACK
6
CONTINUOUS
10
5.43553
20
-2.81447
11
4.87697
21
-2.81447
0
LINE
8
BLACK
6
CONTINUOUS
10
6.1876
20
-2.81053
11
6.18789
21
-2.81056
0
LINE
8
BLACK
6
CONTINUOUS
10
6.18789
20
-2.81056
11
6.18826
21
-2.81067
0
LINE
8
BLACK
6
CONTINUOUS
10
6.18826
20
-2.81067
11
6.1886
21
-2.81086
0
LINE
8
BLACK
6
CONTINUOUS
10
6.1886
20
-2.81086
11
6.1889
21
-2.8111
0
LINE
8
BLACK
6
CONTINUOUS
10
6.1889
20
-2.8111
11
6.18914
21
-2.8114
0
LINE
8
BLACK
6
CONTINUOUS
10
6.18914
20
-2.8114
11
6.18933
21
-2.81174
0
LINE
8
BLACK
6
CONTINUOUS
10
6.18933
20
-2.81174
11
6.18944
21
-2.81211
0
LINE
8
BLACK
6
CONTINUOUS
10
6.18944
20
-2.81211
11
6.18948
21
-2.8125
0
LINE
8
BLACK
6
CONTINUOUS
10
6.18948
20
-2.8125
11
6.18947
21
-2.8126
0
LINE
8
BLACK
6
CONTINUOUS
10
6.18947
20
-2.8126
11
6.18947
21
-3.3749
0
LINE
8
BLACK
6
CONTINUOUS
10
6.18947
20
-3.3749
11
6.18948
21
-3.375
0
LINE
8
BLACK
6
CONTINUOUS
10
6.18948
20
-3.375
11
6.18944
21
-3.37539
0
LINE
8
BLACK
6
CONTINUOUS
10
6.18944
20
-3.37539
11
6.18933
21
-3.37576
0
LINE
8
BLACK
6
CONTINUOUS
10
6.18933
20
-3.37576
11
6.18914
21
-3.3761
0
LINE
8
BLACK
6
CONTINUOUS
10
6.18914
20
-3.3761
11
6.1889
21
-3.3764
0
LINE
8
BLACK
6
CONTINUOUS
10
6.1889
20
-3.3764
11
6.1886
21
-3.37664
0
LINE
8
BLACK
6
CONTINUOUS
10
6.1886
20
-3.37664
11
6.18826
21
-3.37683
0
LINE
8
BLACK
6
CONTINUOUS
10
6.18826
20
-3.37683
11
6.18789
21
-3.37694
0
LINE
8
BLACK
6
CONTINUOUS
10
6.18789
20
-3.37694
11
6.1876
21
-3.37697
0
LINE
8
BLACK
6
CONTINUOUS
10
6.1876
20
-3.37697
11
6.1875
21
-3.37698
0
LINE
8
BLACK
6
CONTINUOUS
10
6.1875
20
-3.37698
11
6.1874
21
-3.37697
0
LINE
8
BLACK
6
CONTINUOUS
10
6.1874
20
-3.37697
11
5.6251
21
-3.37697
0
LINE
8
BLACK
6
CONTINUOUS
10
5.6251
20
-3.37697
11
5.625
21
-3.37698
0
LINE
8
BLACK
6
CONTINUOUS
10
5.625
20
-3.37698
11
5.6249
21
-3.37697
0
LINE
8
BLACK
6
CONTINUOUS
10
5.6249
20
-3.37697
11
5.62461
21
-3.37694
0
LINE
8
BLACK
6
CONTINUOUS
10
5.62461
20
-3.37694
11
5.62424
21
-3.37683
0
LINE
8
BLACK
6
CONTINUOUS
10
5.62424
20
-3.37683
11
5.6239
21
-3.37664
0
LINE
8
BLACK
6
CONTINUOUS
10
5.6239
20
-3.37664
11
5.6236
21
-3.3764
0
LINE
8
BLACK
6
CONTINUOUS
10
5.6236
20
-3.3764
11
5.62336
21
-3.3761
0
LINE
8
BLACK
6
CONTINUOUS
10
5.62336
20
-3.3761
11
5.62317
21
-3.37576
0
LINE
8
BLACK
6
CONTINUOUS
10
5.62317
20
-3.37576
11
5.62306
21
-3.37539
0
LINE
8
BLACK
6
CONTINUOUS
10
5.62306
20
-3.37539
11
5.62302
21
-3.375
0
LINE
8
BLACK
6
CONTINUOUS
10
5.62302
20
-3.375
11
5.62303
21
-3.3749
0
LINE
8
BLACK
6
CONTINUOUS
10
5.62303
20
-3.3749
11
5.62303
21
-2.8126
0
LINE
8
BLACK
6
CONTINUOUS
10
5.62303
20
-2.8126
11
5.62302
21
-2.8125
0
LINE
8
BLACK
6
CONTINUOUS
10
5.62302
20
-2.8125
11
5.62306
21
-2.81211
0
LINE
8
BLACK
6
CONTINUOUS
10
5.62306
20
-2.81211
11
5.62317
21
-2.81174
0
LINE
8
BLACK
6
CONTINUOUS
10
5.62317
20
-2.81174
11
5.62336
21
-2.8114
0
LINE
8
BLACK
6
CONTINUOUS
10
5.62336
20
-2.8114
11
5.6236
21
-2.8111
0
LINE
8
BLACK
6
CONTINUOUS
10
5.6236
20
-2.8111
11
5.6239
21
-2.81086
0
LINE
8
BLACK
6
CONTINUOUS
10
5.6239
20
-2.81086
11
5.62424
21
-2.81067
0
LINE
8
BLACK
6
CONTINUOUS
10
5.62424
20
-2.81067
11
5.62461
21
-2.81056
0
LINE
8
BLACK
6
CONTINUOUS
10
5.62461
20
-2.81056
11
5.6249
21
-2.81053
0
LINE
8
BLACK
6
CONTINUOUS
10
5.6249
20
-2.81053
11
5.625
21
-2.81052
0
LINE
8
BLACK
6
CONTINUOUS
10
5.625
20
-2.81052
11
5.6251
21
-2.81053
0
LINE
8
BLACK
6
CONTINUOUS
10
5.6251
20
-2.81053
11
6.1874
21
-2.81053
0
LINE
8
BLACK
6
CONTINUOUS
10
6.1874
20
-2.81053
11
6.1875
21
-2.81052
0
LINE
8
BLACK
6
CONTINUOUS
10
6.1875
20
-2.81052
11
6.1876
21
-2.81053
0
LINE
8
BLACK
6
CONTINUOUS
10
5.62697
20
-2.81447
11
5.62697
21
-3.37303
0
LINE
8
BLACK
6
CONTINUOUS
10
5.62697
20
-3.37303
11
6.18553
21
-3.37303
0
LINE
8
BLACK
6
CONTINUOUS
10
6.18553
20
-3.37303
11
6.18553
21
-2.81447
0
LINE
8
BLACK
6
CONTINUOUS
10
6.18553
20
-2.81447
11
5.62697
21
-2.81447
0
LINE
8
BLACK
6
CONTINUOUS
10
4.6876
20
-2.06053
11
4.68789
21
-2.06056
0
LINE
8
BLACK
6
CONTINUOUS
10
4.68789
20
-2.06056
11
4.68826
21
-2.06067
0
LINE
8
BLACK
6
CONTINUOUS
10
4.68826
20
-2.06067
11
4.6886
21
-2.06086
0
LINE
8
BLACK
6
CONTINUOUS
10
4.6886
20
-2.06086
11
4.6889
21
-2.0611
0
LINE
8
BLACK
6
CONTINUOUS
10
4.6889
20
-2.0611
11
4.68914
21
-2.0614
0
LINE
8
BLACK
6
CONTINUOUS
10
4.68914
20
-2.0614
11
4.68933
21
-2.06174
0
LINE
8
BLACK
6
CONTINUOUS
10
4.68933
20
-2.06174
11
4.68944
21
-2.06211
0
LINE
8
BLACK
6
CONTINUOUS
10
4.68944
20
-2.06211
11
4.68948
21
-2.0625
0
LINE
8
BLACK
6
CONTINUOUS
10
4.68948
20
-2.0625
11
4.68947
21
-2.0626
0
LINE
8
BLACK
6
CONTINUOUS
10
4.68947
20
-2.0626
11
4.68947
21
-2.6249
0
LINE
8
BLACK
6
CONTINUOUS
10
4.68947
20
-2.6249
11
4.68948
21
-2.625
0
LINE
8
BLACK
6
CONTINUOUS
10
4.68948
20
-2.625
11
4.68947
21
-2.6251
0
LINE
8
BLACK
6
CONTINUOUS
10
4.68947
20
-2.6251
11
4.68947
21
-2.6251
0
LINE
8
BLACK
6
CONTINUOUS
10
4.68947
20
-2.6251
11
4.68944
21
-2.62539
0
LINE
8
BLACK
6
CONTINUOUS
10
4.68944
20
-2.62539
11
4.68933
21
-2.62576
0
LINE
8
BLACK
6
CONTINUOUS
10
4.68933
20
-2.62576
11
4.68914
21
-2.6261
0
LINE
8
BLACK
6
CONTINUOUS
10
4.68914
20
-2.6261
11
4.6889
21
-2.6264
0
LINE
8
BLACK
6
CONTINUOUS
10
4.6889
20
-2.6264
11
4.6886
21
-2.62664
0
LINE
8
BLACK
6
CONTINUOUS
10
4.6886
20
-2.62664
11
4.68826
21
-2.62683
0
LINE
8
BLACK
6
CONTINUOUS
10
4.68826
20
-2.62683
11
4.68789
21
-2.62694
0
LINE
8
BLACK
6
CONTINUOUS
10
4.68789
20
-2.62694
11
4.6875
21
-2.62698
0
LINE
8
BLACK
6
CONTINUOUS
10
4.6875
20
-2.62698
11
4.6874
21
-2.62697
0
LINE
8
BLACK
6
CONTINUOUS
10
4.6874
20
-2.62697
11
4.1251
21
-2.62697
0
LINE
8
BLACK
6
CONTINUOUS
10
4.1251
20
-2.62697
11
4.125
21
-2.62698
0
LINE
8
BLACK
6
CONTINUOUS
10
4.125
20
-2.62698
11
4.12461
21
-2.62694
0
LINE
8
BLACK
6
CONTINUOUS
10
4.12461
20
-2.62694
11
4.12424
21
-2.62683
0
LINE
8
BLACK
6
CONTINUOUS
10
4.12424
20
-2.62683
11
4.1239
21
-2.62664
0
LINE
8
BLACK
6
CONTINUOUS
10
4.1239
20
-2.62664
11
4.1236
21
-2.6264
0
LINE
8
BLACK
6
CONTINUOUS
10
4.1236
20
-2.6264
11
4.12336
21
-2.6261
0
LINE
8
BLACK
6
CONTINUOUS
10
4.12336
20
-2.6261
11
4.12317
21
-2.62576
0
LINE
8
BLACK
6
CONTINUOUS
10
4.12317
20
-2.62576
11
4.12306
21
-2.62539
0
LINE
8
BLACK
6
CONTINUOUS
10
4.12306
20
-2.62539
11
4.12302
21
-2.625
0
LINE
8
BLACK
6
CONTINUOUS
10
4.12302
20
-2.625
11
4.12303
21
-2.6249
0
LINE
8
BLACK
6
CONTINUOUS
10
4.12303
20
-2.6249
11
4.12303
21
-2.0626
0
LINE
8
BLACK
6
CONTINUOUS
10
4.12303
20
-2.0626
11
4.12302
21
-2.0625
0
LINE
8
BLACK
6
CONTINUOUS
10
4.12302
20
-2.0625
11
4.12306
21
-2.06211
0
LINE
8
BLACK
6
CONTINUOUS
10
4.12306
20
-2.06211
11
4.12317
21
-2.06174
0
LINE
8
BLACK
6
CONTINUOUS
10
4.12317
20
-2.06174
11
4.12336
21
-2.0614
0
LINE
8
BLACK
6
CONTINUOUS
10
4.12336
20
-2.0614
11
4.1236
21
-2.0611
0
LINE
8
BLACK
6
CONTINUOUS
10
4.1236
20
-2.0611
11
4.1239
21
-2.06086
0
LINE
8
BLACK
6
CONTINUOUS
10
4.1239
20
-2.06086
11
4.12424
21
-2.06067
0
LINE
8
BLACK
6
CONTINUOUS
10
4.12424
20
-2.06067
11
4.12461
21
-2.06056
0
LINE
8
BLACK
6
CONTINUOUS
10
4.12461
20
-2.06056
11
4.1249
21
-2.06053
0
LINE
8
BLACK
6
CONTINUOUS
10
4.1249
20
-2.06053
11
4.125
21
-2.06052
0
LINE
8
BLACK
6
CONTINUOUS
10
4.125
20
-2.06052
11
4.1251
21
-2.06053
0
LINE
8
BLACK
6
CONTINUOUS
10
4.1251
20
-2.06053
11
4.6874
21
-2.06053
0
LINE
8
BLACK
6
CONTINUOUS
10
4.6874
20
-2.06053
11
4.6875
21
-2.06052
0
LINE
8
BLACK
6
CONTINUOUS
10
4.6875
20
-2.06052
11
4.6876
21
-2.06053
0
LINE
8
BLACK
6
CONTINUOUS
10
4.12697
20
-2.06447
11
4.12697
21
-2.62303
0
LINE
8
BLACK
6
CONTINUOUS
10
4.12697
20
-2.62303
11
4.68553
21
-2.62303
0
LINE
8
BLACK
6
CONTINUOUS
10
4.68553
20
-2.62303
11
4.68553
21
-2.06447
0
LINE
8
BLACK
6
CONTINUOUS
10
4.68553
20
-2.06447
11
4.12697
21
-2.06447
0
LINE
8
BLACK
6
CONTINUOUS
10
5.4376
20
-2.06053
11
5.43789
21
-2.06056
0
LINE
8
BLACK
6
CONTINUOUS
10
5.43789
20
-2.06056
11
5.43826
21
-2.06067
0
LINE
8
BLACK
6
CONTINUOUS
10
5.43826
20
-2.06067
11
5.4386
21
-2.06086
0
LINE
8
BLACK
6
CONTINUOUS
10
5.4386
20
-2.06086
11
5.4389
21
-2.0611
0
LINE
8
BLACK
6
CONTINUOUS
10
5.4389
20
-2.0611
11
5.43914
21
-2.0614
0
LINE
8
BLACK
6
CONTINUOUS
10
5.43914
20
-2.0614
11
5.43933
21
-2.06174
0
LINE
8
BLACK
6
CONTINUOUS
10
5.43933
20
-2.06174
11
5.43944
21
-2.06211
0
LINE
8
BLACK
6
CONTINUOUS
10
5.43944
20
-2.06211
11
5.43948
21
-2.0625
0
LINE
8
BLACK
6
CONTINUOUS
10
5.43948
20
-2.0625
11
5.43947
21
-2.0626
0
LINE
8
BLACK
6
CONTINUOUS
10
5.43947
20
-2.0626
11
5.43947
21
-2.6249
0
LINE
8
BLACK
6
CONTINUOUS
10
5.43947
20
-2.6249
11
5.43948
21
-2.625
0
LINE
8
BLACK
6
CONTINUOUS
10
5.43948
20
-2.625
11
5.43944
21
-2.62539
0
LINE
8
BLACK
6
CONTINUOUS
10
5.43944
20
-2.62539
11
5.43933
21
-2.62576
0
LINE
8
BLACK
6
CONTINUOUS
10
5.43933
20
-2.62576
11
5.43914
21
-2.6261
0
LINE
8
BLACK
6
CONTINUOUS
10
5.43914
20
-2.6261
11
5.4389
21
-2.6264
0
LINE
8
BLACK
6
CONTINUOUS
10
5.4389
20
-2.6264
11
5.4386
21
-2.62664
0
LINE
8
BLACK
6
CONTINUOUS
10
5.4386
20
-2.62664
11
5.43826
21
-2.62683
0
LINE
8
BLACK
6
CONTINUOUS
10
5.43826
20
-2.62683
11
5.43789
21
-2.62694
0
LINE
8
BLACK
6
CONTINUOUS
10
5.43789
20
-2.62694
11
5.4376
21
-2.62697
0
LINE
8
BLACK
6
CONTINUOUS
10
5.4376
20
-2.62697
11
5.4375
21
-2.62698
0
LINE
8
BLACK
6
CONTINUOUS
10
5.4375
20
-2.62698
11
5.4374
21
-2.62697
0
LINE
8
BLACK
6
CONTINUOUS
10
5.4374
20
-2.62697
11
4.8751
21
-2.62697
0
LINE
8
BLACK
6
CONTINUOUS
10
4.8751
20
-2.62697
11
4.875
21
-2.62698
0
LINE
8
BLACK
6
CONTINUOUS
10
4.875
20
-2.62698
11
4.8749
21
-2.62697
0
LINE
8
BLACK
6
CONTINUOUS
10
4.8749
20
-2.62697
11
4.87461
21
-2.62694
0
LINE
8
BLACK
6
CONTINUOUS
10
4.87461
20
-2.62694
11
4.87424
21
-2.62683
0
LINE
8
BLACK
6
CONTINUOUS
10
4.87424
20
-2.62683
11
4.8739
21
-2.62664
0
LINE
8
BLACK
6
CONTINUOUS
10
4.8739
20
-2.62664
11
4.8736
21
-2.6264
0
LINE
8
BLACK
6
CONTINUOUS
10
4.8736
20
-2.6264
11
4.87336
21
-2.6261
0
LINE
8
BLACK
6
CONTINUOUS
10
4.87336
20
-2.6261
11
4.87317
21
-2.62576
0
LINE
8
BLACK
6
CONTINUOUS
10
4.87317
20
-2.62576
11
4.87306
21
-2.62539
0
LINE
8
BLACK
6
CONTINUOUS
10
4.87306
20
-2.62539
11
4.87302
21
-2.625
0
LINE
8
BLACK
6
CONTINUOUS
10
4.87302
20
-2.625
11
4.87303
21
-2.6249
0
LINE
8
BLACK
6
CONTINUOUS
10
4.87303
20
-2.6249
11
4.87303
21
-2.0626
0
LINE
8
BLACK
6
CONTINUOUS
10
4.87303
20
-2.0626
11
4.87302
21
-2.0625
0
LINE
8
BLACK
6
CONTINUOUS
10
4.87302
20
-2.0625
11
4.87306
21
-2.06211
0
LINE
8
BLACK
6
CONTINUOUS
10
4.87306
20
-2.06211
11
4.87317
21
-2.06174
0
LINE
8
BLACK
6
CONTINUOUS
10
4.87317
20
-2.06174
11
4.87336
21
-2.0614
0
LINE
8
BLACK
6
CONTINUOUS
10
4.87336
20
-2.0614
11
4.8736
21
-2.0611
0
LINE
8
BLACK
6
CONTINUOUS
10
4.8736
20
-2.0611
11
4.8739
21
-2.06086
0
LINE
8
BLACK
6
CONTINUOUS
10
4.8739
20
-2.06086
11
4.87424
21
-2.06067
0
LINE
8
BLACK
6
CONTINUOUS
10
4.87424
20
-2.06067
11
4.87461
21
-2.06056
0
LINE
8
BLACK
6
CONTINUOUS
10
4.87461
20
-2.06056
11
4.8749
21
-2.06053
0
LINE
8
BLACK
6
CONTINUOUS
10
4.8749
20
-2.06053
11
4.875
21
-2.06052
0
LINE
8
BLACK
6
CONTINUOUS
10
4.875
20
-2.06052
11
4.8751
21
-2.06053
0
LINE
8
BLACK
6
CONTINUOUS
10
4.8751
20
-2.06053
11
5.4374
21
-2.06053
0
LINE
8
BLACK
6
CONTINUOUS
10
5.4374
20
-2.06053
11
5.4375
21
-2.06052
0
LINE
8
BLACK
6
CONTINUOUS
10
5.4375
20
-2.06052
11
5.4376
21
-2.06053
0
LINE
8
BLACK
6
CONTINUOUS
10
4.87697
20
-2.06447
11
4.87697
21
-2.62303
0
LINE
8
BLACK
6
CONTINUOUS
10
4.87697
20
-2.62303
11
5.43553
21
-2.62303
0
LINE
8
BLACK
6
CONTINUOUS
10
5.43553
20
-2.62303
11
5.43553
21
-2.06447
0
LINE
8
BLACK
6
CONTINUOUS
10
5.43553
20
-2.06447
11
4.87697
21
-2.06447
0
LINE
8
BLACK
6
CONTINUOUS
10
6.9376
20
-2.06053
11
6.93789
21
-2.06056
0
LINE
8
BLACK
6
CONTINUOUS
10
6.93789
20
-2.06056
11
6.93826
21
-2.06067
0
LINE
8
BLACK
6
CONTINUOUS
10
6.93826
20
-2.06067
11
6.9386
21
-2.06086
0
LINE
8
BLACK
6
CONTINUOUS
10
6.9386
20
-2.06086
11
6.9389
21
-2.0611
0
LINE
8
BLACK
6
CONTINUOUS
10
6.9389
20
-2.0611
11
6.93914
21
-2.0614
0
LINE
8
BLACK
6
CONTINUOUS
10
6.93914
20
-2.0614
11
6.93933
21
-2.06174
0
LINE
8
BLACK
6
CONTINUOUS
10
6.93933
20
-2.06174
11
6.93944
21
-2.06211
0
LINE
8
BLACK
6
CONTINUOUS
10
6.93944
20
-2.06211
11
6.93948
21
-2.0625
0
LINE
8
BLACK
6
CONTINUOUS
10
6.93948
20
-2.0625
11
6.93947
21
-2.0626
0
LINE
8
BLACK
6
CONTINUOUS
10
6.93947
20
-2.0626
11
6.93947
21
-2.6249
0
LINE
8
BLACK
6
CONTINUOUS
10
6.93947
20
-2.6249
11
6.93948
21
-2.625
0
LINE
8
BLACK
6
CONTINUOUS
10
6.93948
20
-2.625
11
6.93947
21
-2.6251
0
LINE
8
BLACK
6
CONTINUOUS
10
6.93947
20
-2.6251
11
6.93947
21
-2.6251
0
LINE
8
BLACK
6
CONTINUOUS
10
6.93947
20
-2.6251
11
6.93944
21
-2.62539
0
LINE
8
BLACK
6
CONTINUOUS
10
6.93944
20
-2.62539
11
6.93933
21
-2.62576
0
LINE
8
BLACK
6
CONTINUOUS
10
6.93933
20
-2.62576
11
6.93914
21
-2.6261
0
LINE
8
BLACK
6
CONTINUOUS
10
6.93914
20
-2.6261
11
6.9389
21
-2.6264
0
LINE
8
BLACK
6
CONTINUOUS
10
6.9389
20
-2.6264
11
6.9386
21
-2.62664
0
LINE
8
BLACK
6
CONTINUOUS
10
6.9386
20
-2.62664
11
6.93826
21
-2.62683
0
LINE
8
BLACK
6
CONTINUOUS
10
6.93826
20
-2.62683
11
6.93789
21
-2.62694
0
LINE
8
BLACK
6
CONTINUOUS
10
6.93789
20
-2.62694
11
6.9375
21
-2.62698
0
LINE
8
BLACK
6
CONTINUOUS
10
6.9375
20
-2.62698
11
6.9374
21
-2.62697
0
LINE
8
BLACK
6
CONTINUOUS
10
6.9374
20
-2.62697
11
6.3751
21
-2.62697
0
LINE
8
BLACK
6
CONTINUOUS
10
6.3751
20
-2.62697
11
6.375
21
-2.62698
0
LINE
8
BLACK
6
CONTINUOUS
10
6.375
20
-2.62698
11
6.37461
21
-2.62694
0
LINE
8
BLACK
6
CONTINUOUS
10
6.37461
20
-2.62694
11
6.37424
21
-2.62683
0
LINE
8
BLACK
6
CONTINUOUS
10
6.37424
20
-2.62683
11
6.3739
21
-2.62664
0
LINE
8
BLACK
6
CONTINUOUS
10
6.3739
20
-2.62664
11
6.3736
21
-2.6264
0
LINE
8
BLACK
6
CONTINUOUS
10
6.3736
20
-2.6264
11
6.37336
21
-2.6261
0
LINE
8
BLACK
6
CONTINUOUS
10
6.37336
20
-2.6261
11
6.37317
21
-2.62576
0
LINE
8
BLACK
6
CONTINUOUS
10
6.37317
20
-2.62576
11
6.37306
21
-2.62539
0
LINE
8
BLACK
6
CONTINUOUS
10
6.37306
20
-2.62539
11
6.37302
21
-2.625
0
LINE
8
BLACK
6
CONTINUOUS
10
6.37302
20
-2.625
11
6.37303
21
-2.6249
0
LINE
8
BLACK
6
CONTINUOUS
10
6.37303
20
-2.6249
11
6.37303
21
-2.0626
0
LINE
8
BLACK
6
CONTINUOUS
10
6.37303
20
-2.0626
11
6.37302
21
-2.0625
0
LINE
8
BLACK
6
CONTINUOUS
10
6.37302
20
-2.0625
11
6.37306
21
-2.06211
0
LINE
8
BLACK
6
CONTINUOUS
10
6.37306
20
-2.06211
11
6.37317
21
-2.06174
0
LINE
8
BLACK
6
CONTINUOUS
10
6.37317
20
-2.06174
11
6.37336
21
-2.0614
0
LINE
8
BLACK
6
CONTINUOUS
10
6.37336
20
-2.0614
11
6.3736
21
-2.0611
0
LINE
8
BLACK
6
CONTINUOUS
10
6.3736
20
-2.0611
11
6.3739
21
-2.06086
0
LINE
8
BLACK
6
CONTINUOUS
10
6.3739
20
-2.06086
11
6.37424
21
-2.06067
0
LINE
8
BLACK
6
CONTINUOUS
10
6.37424
20
-2.06067
11
6.37461
21
-2.06056
0
LINE
8
BLACK
6
CONTINUOUS
10
6.37461
20
-2.06056
11
6.3749
21
-2.06053
0
LINE
8
BLACK
6
CONTINUOUS
10
6.3749
20
-2.06053
11
6.375
21
-2.06052
0
LINE
8
BLACK
6
CONTINUOUS
10
6.375
20
-2.06052
11
6.3751
21
-2.06053
0
LINE
8
BLACK
6
CONTINUOUS
10
6.3751
20
-2.06053
11
6.9374
21
-2.06053
0
LINE
8
BLACK
6
CONTINUOUS
10
6.9374
20
-2.06053
11
6.9375
21
-2.06052
0
LINE
8
BLACK
6
CONTINUOUS
10
6.9375
20
-2.06052
11
6.9376
21
-2.06053
0
LINE
8
BLACK
6
CONTINUOUS
10
6.37697
20
-2.06447
11
6.37697
21
-2.62303
0
LINE
8
BLACK
6
CONTINUOUS
10
6.37697
20
-2.62303
11
6.93553
21
-2.62303
0
LINE
8
BLACK
6
CONTINUOUS
10
6.93553
20
-2.62303
11
6.93553
21
-2.06447
0
LINE
8
BLACK
6
CONTINUOUS
10
6.93553
20
-2.06447
11
6.37697
21
-2.06447
0
LINE
8
BLACK
6
CONTINUOUS
10
6.1876
20
-2.06053
11
6.18789
21
-2.06056
0
LINE
8
BLACK
6
CONTINUOUS
10
6.18789
20
-2.06056
11
6.18826
21
-2.06067
0
LINE
8
BLACK
6
CONTINUOUS
10
6.18826
20
-2.06067
11
6.1886
21
-2.06086
0
LINE
8
BLACK
6
CONTINUOUS
10
6.1886
20
-2.06086
11
6.1889
21
-2.0611
0
LINE
8
BLACK
6
CONTINUOUS
10
6.1889
20
-2.0611
11
6.18914
21
-2.0614
0
LINE
8
BLACK
6
CONTINUOUS
10
6.18914
20
-2.0614
11
6.18933
21
-2.06174
0
LINE
8
BLACK
6
CONTINUOUS
10
6.18933
20
-2.06174
11
6.18944
21
-2.06211
0
LINE
8
BLACK
6
CONTINUOUS
10
6.18944
20
-2.06211
11
6.18948
21
-2.0625
0
LINE
8
BLACK
6
CONTINUOUS
10
6.18948
20
-2.0625
11
6.18947
21
-2.0626
0
LINE
8
BLACK
6
CONTINUOUS
10
6.18947
20
-2.0626
11
6.18947
21
-2.6249
0
LINE
8
BLACK
6
CONTINUOUS
10
6.18947
20
-2.6249
11
6.18948
21
-2.625
0
LINE
8
BLACK
6
CONTINUOUS
10
6.18948
20
-2.625
11
6.18944
21
-2.62539
0
LINE
8
BLACK
6
CONTINUOUS
10
6.18944
20
-2.62539
11
6.18933
21
-2.62576
0
LINE
8
BLACK
6
CONTINUOUS
10
6.18933
20
-2.62576
11
6.18914
21
-2.6261
0
LINE
8
BLACK
6
CONTINUOUS
10
6.18914
20
-2.6261
11
6.1889
21
-2.6264
0
LINE
8
BLACK
6
CONTINUOUS
10
6.1889
20
-2.6264
11
6.1886
21
-2.62664
0
LINE
8
BLACK
6
CONTINUOUS
10
6.1886
20
-2.62664
11
6.18826
21
-2.62683
0
LINE
8
BLACK
6
CONTINUOUS
10
6.18826
20
-2.62683
11
6.18789
21
-2.62694
0
LINE
8
BLACK
6
CONTINUOUS
10
6.18789
20
-2.62694
11
6.1876
21
-2.62697
0
LINE
8
BLACK
6
CONTINUOUS
10
6.1876
20
-2.62697
11
6.1875
21
-2.62698
0
LINE
8
BLACK
6
CONTINUOUS
10
6.1875
20
-2.62698
11
6.1874
21
-2.62697
0
LINE
8
BLACK
6
CONTINUOUS
10
6.1874
20
-2.62697
11
5.6251
21
-2.62697
0
LINE
8
BLACK
6
CONTINUOUS
10
5.6251
20
-2.62697
11
5.625
21
-2.62698
0
LINE
8
BLACK
6
CONTINUOUS
10
5.625
20
-2.62698
11
5.6249
21
-2.62697
0
LINE
8
BLACK
6
CONTINUOUS
10
5.6249
20
-2.62697
11
5.62461
21
-2.62694
0
LINE
8
BLACK
6
CONTINUOUS
10
5.62461
20
-2.62694
11
5.62424
21
-2.62683
0
LINE
8
BLACK
6
CONTINUOUS
10
5.62424
20
-2.62683
11
5.6239
21
-2.62664
0
LINE
8
BLACK
6
CONTINUOUS
10
5.6239
20
-2.62664
11
5.6236
21
-2.6264
0
LINE
8
BLACK
6
CONTINUOUS
10
5.6236
20
-2.6264
11
5.62336
21
-2.6261
0
LINE
8
BLACK
6
CONTINUOUS
10
5.62336
20
-2.6261
11
5.62317
21
-2.62576
0
LINE
8
BLACK
6
CONTINUOUS
10
5.62317
20
-2.62576
11
5.62306
21
-2.62539
0
LINE
8
BLACK
6
CONTINUOUS
10
5.62306
20
-2.62539
11
5.62302
21
-2.625
0
LINE
8
BLACK
6
CONTINUOUS
10
5.62302
20
-2.625
11
5.62303
21
-2.6249
0
LINE
8
BLACK
6
CONTINUOUS
10
5.62303
20
-2.6249
11
5.62303
21
-2.0626
0
LINE
8
BLACK
6
CONTINUOUS
10
5.62303
20
-2.0626
11
5.62302
21
-2.0625
0
LINE
8
BLACK
6
CONTINUOUS
10
5.62302
20
-2.0625
11
5.62306
21
-2.06211
0
LINE
8
BLACK
6
CONTINUOUS
10
5.62306
20
-2.06211
11
5.62317
21
-2.06174
0
LINE
8
BLACK
6
CONTINUOUS
10
5.62317
20
-2.06174
11
5.62336
21
-2.0614
0
LINE
8
BLACK
6
CONTINUOUS
10
5.62336
20
-2.0614
11
5.6236
21
-2.0611
0
LINE
8
BLACK
6
CONTINUOUS
10
5.6236
20
-2.0611
11
5.6239
21
-2.06086
0
LINE
8
BLACK
6
CONTINUOUS
10
5.6239
20
-2.06086
11
5.62424
21
-2.06067
0
LINE
8
BLACK
6
CONTINUOUS
10
5.62424
20
-2.06067
11
5.62461
21
-2.06056
0
LINE
8
BLACK
6
CONTINUOUS
10
5.62461
20
-2.06056
11
5.6249
21
-2.06053
0
LINE
8
BLACK
6
CONTINUOUS
10
5.6249
20
-2.06053
11
5.625
21
-2.06052
0
LINE
8
BLACK
6
CONTINUOUS
10
5.625
20
-2.06052
11
5.6251
21
-2.06053
0
LINE
8
BLACK
6
CONTINUOUS
10
5.6251
20
-2.06053
11
6.1874
21
-2.06053
0
LINE
8
BLACK
6
CONTINUOUS
10
6.1874
20
-2.06053
11
6.1875
21
-2.06052
0
LINE
8
BLACK
6
CONTINUOUS
10
6.1875
20
-2.06052
11
6.1876
21
-2.06053
0
LINE
8
BLACK
6
CONTINUOUS
10
5.62697
20
-2.06447
11
5.62697
21
-2.62303
0
LINE
8
BLACK
6
CONTINUOUS
10
5.62697
20
-2.62303
11
6.18553
21
-2.62303
0
LINE
8
BLACK
6
CONTINUOUS
10
6.18553
20
-2.62303
11
6.18553
21
-2.06447
0
LINE
8
BLACK
6
CONTINUOUS
10
6.18553
20
-2.06447
11
5.62697
21
-2.06447
0
LINE
8
BLACK
6
CONTINUOUS
10
8.4376
20
-2.06053
11
8.43789
21
-2.06056
0
LINE
8
BLACK
6
CONTINUOUS
10
8.43789
20
-2.06056
11
8.43826
21
-2.06067
0
LINE
8
BLACK
6
CONTINUOUS
10
8.43826
20
-2.06067
11
8.4386
21
-2.06086
0
LINE
8
BLACK
6
CONTINUOUS
10
8.4386
20
-2.06086
11
8.4389
21
-2.0611
0
LINE
8
BLACK
6
CONTINUOUS
10
8.4389
20
-2.0611
11
8.43914
21
-2.0614
0
LINE
8
BLACK
6
CONTINUOUS
10
8.43914
20
-2.0614
11
8.43933
21
-2.06174
0
LINE
8
BLACK
6
CONTINUOUS
10
8.43933
20
-2.06174
11
8.43944
21
-2.06211
0
LINE
8
BLACK
6
CONTINUOUS
10
8.43944
20
-2.06211
11
8.43948
21
-2.0625
0
LINE
8
BLACK
6
CONTINUOUS
10
8.43948
20
-2.0625
11
8.43947
21
-2.0626
0
LINE
8
BLACK
6
CONTINUOUS
10
8.43947
20
-2.0626
11
8.43947
21
-2.6249
0
LINE
8
BLACK
6
CONTINUOUS
10
8.43947
20
-2.6249
11
8.43948
21
-2.625
0
LINE
8
BLACK
6
CONTINUOUS
10
8.43948
20
-2.625
11
8.43947
21
-2.6251
0
LINE
8
BLACK
6
CONTINUOUS
10
8.43947
20
-2.6251
11
8.43947
21
-2.6251
0
LINE
8
BLACK
6
CONTINUOUS
10
8.43947
20
-2.6251
11
8.43944
21
-2.62539
0
LINE
8
BLACK
6
CONTINUOUS
10
8.43944
20
-2.62539
11
8.43933
21
-2.62576
0
LINE
8
BLACK
6
CONTINUOUS
10
8.43933
20
-2.62576
11
8.43914
21
-2.6261
0
LINE
8
BLACK
6
CONTINUOUS
10
8.43914
20
-2.6261
11
8.4389
21
-2.6264
0
LINE
8
BLACK
6
CONTINUOUS
10
8.4389
20
-2.6264
11
8.4386
21
-2.62664
0
LINE
8
BLACK
6
CONTINUOUS
10
8.4386
20
-2.62664
11
8.43826
21
-2.62683
0
LINE
8
BLACK
6
CONTINUOUS
10
8.43826
20
-2.62683
11
8.43789
21
-2.62694
0
LINE
8
BLACK
6
CONTINUOUS
10
8.43789
20
-2.62694
11
8.4375
21
-2.62698
0
LINE
8
BLACK
6
CONTINUOUS
10
8.4375
20
-2.62698
11
8.4374
21
-2.62697
0
LINE
8
BLACK
6
CONTINUOUS
10
8.4374
20
-2.62697
11
7.8751
21
-2.62697
0
LINE
8
BLACK
6
CONTINUOUS
10
7.8751
20
-2.62697
11
7.875
21
-2.62698
0
LINE
8
BLACK
6
CONTINUOUS
10
7.875
20
-2.62698
11
7.87461
21
-2.62694
0
LINE
8
BLACK
6
CONTINUOUS
10
7.87461
20
-2.62694
11
7.87424
21
-2.62683
0
LINE
8
BLACK
6
CONTINUOUS
10
7.87424
20
-2.62683
11
7.8739
21
-2.62664
0
LINE
8
BLACK
6
CONTINUOUS
10
7.8739
20
-2.62664
11
7.8736
21
-2.6264
0
LINE
8
BLACK
6
CONTINUOUS
10
7.8736
20
-2.6264
11
7.87336
21
-2.6261
0
LINE
8
BLACK
6
CONTINUOUS
10
7.87336
20
-2.6261
11
7.87317
21
-2.62576
0
LINE
8
BLACK
6
CONTINUOUS
10
7.87317
20
-2.62576
11
7.87306
21
-2.62539
0
LINE
8
BLACK
6
CONTINUOUS
10
7.87306
20
-2.62539
11
7.87302
21
-2.625
0
LINE
8
BLACK
6
CONTINUOUS
10
7.87302
20
-2.625
11
7.87303
21
-2.6249
0
LINE
8
BLACK
6
CONTINUOUS
10
7.87303
20
-2.6249
11
7.87303
21
-2.0626
0
LINE
8
BLACK
6
CONTINUOUS
10
7.87303
20
-2.0626
11
7.87302
21
-2.0625
0
LINE
8
BLACK
6
CONTINUOUS
10
7.87302
20
-2.0625
11
7.87306
21
-2.06211
0
LINE
8
BLACK
6
CONTINUOUS
10
7.87306
20
-2.06211
11
7.87317
21
-2.06174
0
LINE
8
BLACK
6
CONTINUOUS
10
7.87317
20
-2.06174
11
7.87336
21
-2.0614
0
LINE
8
BLACK
6
CONTINUOUS
10
7.87336
20
-2.0614
11
7.8736
21
-2.0611
0
LINE
8
BLACK
6
CONTINUOUS
10
7.8736
20
-2.0611
11
7.8739
21
-2.06086
0
LINE
8
BLACK
6
CONTINUOUS
10
7.8739
20
-2.06086
11
7.87424
21
-2.06067
0
LINE
8
BLACK
6
CONTINUOUS
10
7.87424
20
-2.06067
11
7.87461
21
-2.06056
0
LINE
8
BLACK
6
CONTINUOUS
10
7.87461
20
-2.06056
11
7.8749
21
-2.06053
0
LINE
8
BLACK
6
CONTINUOUS
10
7.8749
20
-2.06053
11
7.875
21
-2.06052
0
LINE
8
BLACK
6
CONTINUOUS
10
7.875
20
-2.06052
11
7.8751
21
-2.06053
0
LINE
8
BLACK
6
CONTINUOUS
10
7.8751
20
-2.06053
11
8.4374
21
-2.06053
0
LINE
8
BLACK
6
CONTINUOUS
10
8.4374
20
-2.06053
11
8.4375
21
-2.06052
0
LINE
8
BLACK
6
CONTINUOUS
10
8.4375
20
-2.06052
11
8.4376
21
-2.06053
0
LINE
8
BLACK
6
CONTINUOUS
10
7.87697
20
-2.06447
11
7.87697
21
-2.62303
0
LINE
8
BLACK
6
CONTINUOUS
10
7.87697
20
-2.62303
11
8.43553
21
-2.62303
0
LINE
8
BLACK
6
CONTINUOUS
10
8.43553
20
-2.62303
11
8.43553
21
-2.06447
0
LINE
8
BLACK
6
CONTINUOUS
10
8.43553
20
-2.06447
11
7.87697
21
-2.06447
0
LINE
8
BLACK
6
CONTINUOUS
10
7.6876
20
-2.06053
11
7.68789
21
-2.06056
0
LINE
8
BLACK
6
CONTINUOUS
10
7.68789
20
-2.06056
11
7.68826
21
-2.06067
0
LINE
8
BLACK
6
CONTINUOUS
10
7.68826
20
-2.06067
11
7.6886
21
-2.06086
0
LINE
8
BLACK
6
CONTINUOUS
10
7.6886
20
-2.06086
11
7.6889
21
-2.0611
0
LINE
8
BLACK
6
CONTINUOUS
10
7.6889
20
-2.0611
11
7.68914
21
-2.0614
0
LINE
8
BLACK
6
CONTINUOUS
10
7.68914
20
-2.0614
11
7.68933
21
-2.06174
0
LINE
8
BLACK
6
CONTINUOUS
10
7.68933
20
-2.06174
11
7.68944
21
-2.06211
0
LINE
8
BLACK
6
CONTINUOUS
10
7.68944
20
-2.06211
11
7.68948
21
-2.0625
0
LINE
8
BLACK
6
CONTINUOUS
10
7.68948
20
-2.0625
11
7.68947
21
-2.0626
0
LINE
8
BLACK
6
CONTINUOUS
10
7.68947
20
-2.0626
11
7.68947
21
-2.6249
0
LINE
8
BLACK
6
CONTINUOUS
10
7.68947
20
-2.6249
11
7.68948
21
-2.625
0
LINE
8
BLACK
6
CONTINUOUS
10
7.68948
20
-2.625
11
7.68947
21
-2.6251
0
LINE
8
BLACK
6
CONTINUOUS
10
7.68947
20
-2.6251
11
7.68947
21
-2.6251
0
LINE
8
BLACK
6
CONTINUOUS
10
7.68947
20
-2.6251
11
7.68944
21
-2.62539
0
LINE
8
BLACK
6
CONTINUOUS
10
7.68944
20
-2.62539
11
7.68933
21
-2.62576
0
LINE
8
BLACK
6
CONTINUOUS
10
7.68933
20
-2.62576
11
7.68914
21
-2.6261
0
LINE
8
BLACK
6
CONTINUOUS
10
7.68914
20
-2.6261
11
7.6889
21
-2.6264
0
LINE
8
BLACK
6
CONTINUOUS
10
7.6889
20
-2.6264
11
7.6886
21
-2.62664
0
LINE
8
BLACK
6
CONTINUOUS
10
7.6886
20
-2.62664
11
7.68826
21
-2.62683
0
LINE
8
BLACK
6
CONTINUOUS
10
7.68826
20
-2.62683
11
7.68789
21
-2.62694
0
LINE
8
BLACK
6
CONTINUOUS
10
7.68789
20
-2.62694
11
7.6875
21
-2.62698
0
LINE
8
BLACK
6
CONTINUOUS
10
7.6875
20
-2.62698
11
7.6874
21
-2.62697
0
LINE
8
BLACK
6
CONTINUOUS
10
7.6874
20
-2.62697
11
7.1251
21
-2.62697
0
LINE
8
BLACK
6
CONTINUOUS
10
7.1251
20
-2.62697
11
7.125
21
-2.62698
0
LINE
8
BLACK
6
CONTINUOUS
10
7.125
20
-2.62698
11
7.12461
21
-2.62694
0
LINE
8
BLACK
6
CONTINUOUS
10
7.12461
20
-2.62694
11
7.12424
21
-2.62683
0
LINE
8
BLACK
6
CONTINUOUS
10
7.12424
20
-2.62683
11
7.1239
21
-2.62664
0
LINE
8
BLACK
6
CONTINUOUS
10
7.1239
20
-2.62664
11
7.1236
21
-2.6264
0
LINE
8
BLACK
6
CONTINUOUS
10
7.1236
20
-2.6264
11
7.12336
21
-2.6261
0
LINE
8
BLACK
6
CONTINUOUS
10
7.12336
20
-2.6261
11
7.12317
21
-2.62576
0
LINE
8
BLACK
6
CONTINUOUS
10
7.12317
20
-2.62576
11
7.12306
21
-2.62539
0
LINE
8
BLACK
6
CONTINUOUS
10
7.12306
20
-2.62539
11
7.12302
21
-2.625
0
LINE
8
BLACK
6
CONTINUOUS
10
7.12302
20
-2.625
11
7.12303
21
-2.6249
0
LINE
8
BLACK
6
CONTINUOUS
10
7.12303
20
-2.6249
11
7.12303
21
-2.0626
0
LINE
8
BLACK
6
CONTINUOUS
10
7.12303
20
-2.0626
11
7.12302
21
-2.0625
0
LINE
8
BLACK
6
CONTINUOUS
10
7.12302
20
-2.0625
11
7.12306
21
-2.06211
0
LINE
8
BLACK
6
CONTINUOUS
10
7.12306
20
-2.06211
11
7.12317
21
-2.06174
0
LINE
8
BLACK
6
CONTINUOUS
10
7.12317
20
-2.06174
11
7.12336
21
-2.0614
0
LINE
8
BLACK
6
CONTINUOUS
10
7.12336
20
-2.0614
11
7.1236
21
-2.0611
0
LINE
8
BLACK
6
CONTINUOUS
10
7.1236
20
-2.0611
11
7.1239
21
-2.06086
0
LINE
8
BLACK
6
CONTINUOUS
10
7.1239
20
-2.06086
11
7.12424
21
-2.06067
0
LINE
8
BLACK
6
CONTINUOUS
10
7.12424
20
-2.06067
11
7.12461
21
-2.06056
0
LINE
8
BLACK
6
CONTINUOUS
10
7.12461
20
-2.06056
11
7.1249
21
-2.06053
0
LINE
8
BLACK
6
CONTINUOUS
10
7.1249
20
-2.06053
11
7.125
21
-2.06052
0
LINE
8
BLACK
6
CONTINUOUS
10
7.125
20
-2.06052
11
7.1251
21
-2.06053
0
LINE
8
BLACK
6
CONTINUOUS
10
7.1251
20
-2.06053
11
7.6874
21
-2.06053
0
LINE
8
BLACK
6
CONTINUOUS
10
7.6874
20
-2.06053
11
7.6875
21
-2.06052
0
LINE
8
BLACK
6
CONTINUOUS
10
7.6875
20
-2.06052
11
7.6876
21
-2.06053
0
LINE
8
BLACK
6
CONTINUOUS
10
7.12697
20
-2.06447
11
7.12697
21
-2.62303
0
LINE
8
BLACK
6
CONTINUOUS
10
7.12697
20
-2.62303
11
7.68553
21
-2.62303
0
LINE
8
BLACK
6
CONTINUOUS
10
7.68553
20
-2.62303
11
7.68553
21
-2.06447
0
LINE
8
BLACK
6
CONTINUOUS
10
7.68553
20
-2.06447
11
7.12697
21
-2.06447
  0
ENDSEC
  0
EOF
