%TF.GenerationSoftware,KiCad,Pcbnew,(6.0.7-1)-1*%
%TF.CreationDate,2022-11-07T11:39:17+01:00*%
%TF.ProjectId,frog-mini,66726f67-2d6d-4696-9e69-2e6b69636164,rev?*%
%TF.SameCoordinates,Original*%
%TF.FileFunction,Drillmap*%
%TF.FilePolarity,Positive*%
%FSLAX45Y45*%
G04 Gerber Fmt 4.5, Leading zero omitted, Abs format (unit mm)*
G04 Created by KiCad (PCBNEW (6.0.7-1)-1) date 2022-11-07 11:39:17*
%MOMM*%
%LPD*%
G01*
G04 APERTURE LIST*
%ADD10C,0.150000*%
%ADD11C,0.100000*%
%ADD12C,0.200000*%
G04 APERTURE END LIST*
D10*
X7798552Y-12562371D02*
X7798595Y-12693382D01*
X10179804Y-12562371D02*
X10179804Y-12693379D01*
X7322302Y-12693379D02*
X7322302Y-12562371D01*
X9703603Y-12693379D02*
X9703554Y-12562371D01*
X9703554Y-12562371D02*
X10179804Y-12562371D01*
X7322302Y-12562371D02*
X7798552Y-12562371D01*
D11*
X16133005Y-5061444D02*
X10894188Y-5061423D01*
D10*
X16621140Y-12193321D02*
X16621140Y-10788383D01*
X6596070Y-8383310D02*
X5191133Y-8383310D01*
X23741119Y-10288295D02*
X22336181Y-10288295D01*
X10406098Y-5073377D02*
X10406098Y-6478314D01*
X21836129Y-12693353D02*
X21836129Y-14098290D01*
X-523909Y-5073347D02*
X881029Y-5073347D01*
D12*
X19705214Y-14819212D02*
G75*
G03*
X19432498Y-14644211I-272654J-124898D01*
G01*
D10*
X3286095Y-14098302D02*
X3286095Y-12693365D01*
X881029Y-8883363D02*
X881029Y-10288301D01*
X3286095Y-12693365D02*
X4691033Y-12693365D01*
D12*
X16721679Y-14386611D02*
G75*
G03*
X16646684Y-14311611I-74999J1D01*
G01*
D10*
X10406075Y-12693382D02*
X10406075Y-14098320D01*
D12*
X-742964Y-6615168D02*
X-552501Y-6802689D01*
D10*
X4691057Y-8883375D02*
X4691057Y-10288313D01*
D12*
X2420746Y-14311610D02*
G75*
G03*
X2148028Y-14486611I-6J-299990D01*
G01*
D10*
X27551147Y-6873382D02*
X27551147Y-6978338D01*
X7096147Y-10788395D02*
X8501084Y-10788395D01*
X21836105Y-6478285D02*
X20431167Y-6478285D01*
D12*
X27579737Y-6802668D02*
G75*
G03*
X27551147Y-6873382I69143J-69092D01*
G01*
D10*
X18526154Y-6478291D02*
X18526154Y-5073353D01*
X10406075Y-14098320D02*
X7096123Y-14098314D01*
X18026077Y-6478297D02*
X16621140Y-6478297D01*
D12*
X16721679Y-14544211D02*
G75*
G03*
X16821684Y-14644211I100001J1D01*
G01*
D10*
X21836105Y-5073347D02*
X21836105Y-6478285D01*
X7096147Y-5073371D02*
X8501084Y-5073371D01*
X23741119Y-12193303D02*
X22336181Y-12193303D01*
D12*
X2105028Y-4349211D02*
X2014964Y-4549211D01*
D10*
X26146209Y-10288283D02*
X26146209Y-8883346D01*
X3286119Y-8883375D02*
X4691057Y-8883375D01*
X16621140Y-8383305D02*
X16621140Y-6978367D01*
X27551170Y-14098273D02*
X26146233Y-14098273D01*
X2786043Y-10788377D02*
X2786043Y-12193315D01*
D12*
X1998651Y-14819211D02*
X2148028Y-14486611D01*
X16721684Y-14386611D02*
X16721684Y-14544211D01*
D10*
X4691057Y-8383305D02*
X3286119Y-8383305D01*
D12*
X-742964Y-14173500D02*
X-634965Y-14282321D01*
D10*
X27551147Y-6478267D02*
X26146209Y-6478267D01*
D12*
X27797746Y-5066032D02*
G75*
G03*
X27768457Y-4995322I-99996J2D01*
G01*
D10*
X4691057Y-10788383D02*
X4691057Y-12193321D01*
X22336205Y-12693347D02*
X23741142Y-12693347D01*
X24241219Y-14098278D02*
X24241219Y-12693341D01*
X4691057Y-5073359D02*
X4691057Y-6478297D01*
X-523932Y-12693353D02*
X881005Y-12693353D01*
X21836105Y-10788371D02*
X21836105Y-12193309D01*
D12*
X25994746Y-14311610D02*
G75*
G03*
X25722028Y-14486611I-6J-299990D01*
G01*
X6150444Y-14486611D02*
X6299821Y-14819211D01*
D10*
X5191133Y-6978373D02*
X6596070Y-6978373D01*
D12*
X8114746Y-4724213D02*
G75*
G03*
X8387464Y-4549211I4J299993D01*
G01*
X9182838Y-14311608D02*
G75*
G03*
X9107838Y-14386611I2J-75002D01*
G01*
D10*
X18526154Y-5073353D02*
X19931091Y-5073353D01*
X4691057Y-10288313D02*
X3286119Y-10288313D01*
X5191133Y-8883381D02*
X6596070Y-8883381D01*
X20431167Y-12193309D02*
X20431167Y-10788371D01*
X16621140Y-5073359D02*
X18026077Y-5073359D01*
X23741119Y-6478279D02*
X22336181Y-6478279D01*
X18026077Y-10288313D02*
X16621140Y-10288313D01*
X24241195Y-5073336D02*
X25646133Y-5073336D01*
X23741119Y-6978349D02*
X23741119Y-8383287D01*
X10406098Y-12193338D02*
X9001161Y-12193338D01*
X5191109Y-14098308D02*
X5191109Y-12693370D01*
X23741142Y-12693347D02*
X23741142Y-14098284D01*
X10406098Y-10288330D02*
X9001161Y-10288330D01*
X8501084Y-6478308D02*
X7096147Y-6478308D01*
D12*
X15734746Y-4724211D02*
X9385746Y-4724211D01*
X1303839Y-14486611D02*
G75*
G03*
X1031121Y-14311611I-272707J-124983D01*
G01*
D10*
X-523909Y-6478285D02*
X-523909Y-5073347D01*
X3286119Y-10288313D02*
X3286119Y-8883375D01*
X6596070Y-10788389D02*
X6596070Y-12193326D01*
X19931091Y-6978361D02*
X19931091Y-8383299D01*
X9001161Y-10288330D02*
X9001161Y-8883393D01*
X21836105Y-12193309D02*
X20431167Y-12193309D01*
X881029Y-6478285D02*
X-523909Y-6478285D01*
X10406098Y-8883393D02*
X10406098Y-10288330D01*
X3286119Y-6978367D02*
X4691057Y-6978367D01*
D12*
X20672746Y-14311611D02*
X24605121Y-14311611D01*
D10*
X1381105Y-6978361D02*
X2786043Y-6978361D01*
D12*
X9113028Y-4549211D02*
X9022964Y-4349211D01*
D10*
X26146209Y-8883346D02*
X27551147Y-8883346D01*
X5191133Y-5073365D02*
X6596070Y-5073365D01*
X27551170Y-12693335D02*
X27551170Y-14098273D01*
X5191133Y-12193326D02*
X5191133Y-10788389D01*
X10406098Y-6978385D02*
X10406098Y-8383322D01*
X4691057Y-6478297D02*
X3286119Y-6478297D01*
X7096147Y-8383316D02*
X7096147Y-6978379D01*
X19931091Y-8883369D02*
X19931091Y-10288307D01*
D12*
X27456325Y-4724611D02*
X26530746Y-4724211D01*
D10*
X19704936Y-12562354D02*
X19704936Y-12693362D01*
X25646156Y-12693341D02*
X25646156Y-14098278D01*
X9001161Y-5073377D02*
X10406098Y-5073377D01*
X8501084Y-6978379D02*
X8501084Y-8383316D01*
X-523932Y-14098290D02*
X-523932Y-12693353D01*
X5191133Y-10288319D02*
X5191133Y-8883381D01*
X25646133Y-6478273D02*
X24241195Y-6478273D01*
X26146209Y-6478267D02*
X26146209Y-5073330D01*
X10406072Y-12693379D02*
X10179804Y-12693379D01*
X-523909Y-6978355D02*
X-523909Y-6873399D01*
D12*
X25994746Y-14311611D02*
X27589746Y-14311611D01*
X25259746Y-4724211D02*
X17005746Y-4724211D01*
D10*
X1381105Y-8383299D02*
X1381105Y-6978361D01*
X22336181Y-6478279D02*
X22336181Y-5073341D01*
X3286119Y-10788383D02*
X4691057Y-10788383D01*
X8501084Y-5073371D02*
X8501084Y-6478308D01*
X22336181Y-12193303D02*
X22336181Y-10788365D01*
X26146233Y-14098273D02*
X26146233Y-12693335D01*
D12*
X-501543Y-4753500D02*
X-742964Y-4994922D01*
X27768457Y-4995322D02*
X27527035Y-4753900D01*
D10*
X16621140Y-10288313D02*
X16621140Y-8883375D01*
X25646133Y-10788360D02*
X25646133Y-12193297D01*
X25646133Y-10288289D02*
X24241195Y-10288289D01*
X24241195Y-6978343D02*
X25646133Y-6978343D01*
X19931091Y-10288307D02*
X18526154Y-10288307D01*
X6596047Y-14098308D02*
X5191109Y-14098308D01*
D12*
X9113028Y-4549211D02*
G75*
G03*
X9385746Y-4724211I272712J124991D01*
G01*
X7117974Y-14644211D02*
X9007838Y-14644211D01*
D10*
X-523909Y-10393257D02*
X-523909Y-10288301D01*
X27551147Y-8383275D02*
X27551147Y-8883346D01*
X20431167Y-10288301D02*
X20431167Y-8883363D01*
X4691057Y-6978367D02*
X4691057Y-8383305D01*
X27551147Y-10288283D02*
X27551147Y-10393239D01*
X22336181Y-8883357D02*
X23741119Y-8883357D01*
D12*
X26258028Y-4549211D02*
X26167964Y-4349211D01*
D10*
X24241195Y-10288289D02*
X24241195Y-8883352D01*
X6596070Y-5073365D02*
X6596070Y-6478302D01*
X19931091Y-5073353D02*
X19931091Y-6478291D01*
X19931091Y-10788377D02*
X19931091Y-12193315D01*
D12*
X-772254Y-14102789D02*
G75*
G03*
X-742964Y-14173500I99999J0D01*
G01*
D10*
X1381105Y-5073353D02*
X2786043Y-5073353D01*
D12*
X27797746Y-6544857D02*
X27797746Y-5066032D01*
X20672746Y-14311610D02*
G75*
G03*
X20400028Y-14486611I-6J-299990D01*
G01*
X15734746Y-4724213D02*
G75*
G03*
X16007464Y-4549211I4J299993D01*
G01*
D10*
X9001161Y-8383322D02*
X9001161Y-6978385D01*
D12*
X16733028Y-4549211D02*
X16642964Y-4349211D01*
D10*
X16621140Y-8883375D02*
X18026077Y-8883375D01*
D12*
X-552501Y-10463968D02*
X-742964Y-10651488D01*
D11*
X10894188Y-5061423D02*
X10894188Y-14110173D01*
D10*
X23741142Y-14098284D02*
X22336205Y-14098284D01*
D12*
X-742964Y-4994922D02*
G75*
G03*
X-772254Y-5065632I70710J-70710D01*
G01*
D10*
X7096147Y-8883387D02*
X8501084Y-8883387D01*
D12*
X-742964Y-10651488D02*
G75*
G03*
X-772254Y-10722199I70710J-70710D01*
G01*
D10*
X5191133Y-6478302D02*
X5191133Y-5073365D01*
X-523909Y-8883363D02*
X-523909Y-8383293D01*
D12*
X16821684Y-14644211D02*
X19432498Y-14644211D01*
D10*
X20431167Y-6478285D02*
X20431167Y-5073347D01*
D12*
X9007838Y-14644208D02*
G75*
G03*
X9107838Y-14544211I2J99998D01*
G01*
D10*
X26146233Y-12693335D02*
X27551170Y-12693335D01*
X21836105Y-8383293D02*
X20431167Y-8383293D01*
X9001161Y-10788401D02*
X10406098Y-10788401D01*
X19704936Y-12693362D02*
X19931115Y-12693359D01*
X-523909Y-10788371D02*
X881029Y-10788371D01*
X20431191Y-12693353D02*
X21836129Y-12693353D01*
X20431167Y-6978355D02*
X21836105Y-6978355D01*
D12*
X2740528Y-4549211D02*
G75*
G03*
X3013246Y-4724211I272712J124991D01*
G01*
X2740528Y-4549211D02*
X2650464Y-4349211D01*
X1453216Y-14819211D02*
G75*
G03*
X1998651Y-14819211I272718J125000D01*
G01*
D10*
X9001161Y-12193338D02*
X9001161Y-10788401D01*
X22336181Y-6978349D02*
X23741119Y-6978349D01*
X10406098Y-6478314D02*
X9001161Y-6478314D01*
D12*
X26167964Y-4349211D02*
G75*
G03*
X25622528Y-4349211I-272718J-125000D01*
G01*
D10*
X5191133Y-10788389D02*
X6596070Y-10788389D01*
D12*
X-523909Y-6873399D02*
G75*
G03*
X-552501Y-6802689I-97733J1617D01*
G01*
D10*
X18026077Y-8383305D02*
X16621140Y-8383305D01*
X22336181Y-10788365D02*
X23741119Y-10788365D01*
D12*
X-772254Y-5065632D02*
X-772254Y-6544457D01*
X9182838Y-14311611D02*
X16646684Y-14311611D01*
X-772254Y-10722199D02*
X-772254Y-14102789D01*
D10*
X1381082Y-12693359D02*
X2786019Y-12693359D01*
X1381082Y-14098296D02*
X1381082Y-12693359D01*
X5191109Y-12693370D02*
X6596047Y-12693370D01*
X18526154Y-8383299D02*
X18526154Y-6978361D01*
X8501084Y-8383316D02*
X7096147Y-8383316D01*
D12*
X27768456Y-14173500D02*
G75*
G03*
X27797746Y-14102789I-70706J70710D01*
G01*
D10*
X27551147Y-10288283D02*
X26146209Y-10288283D01*
X24241195Y-10788360D02*
X25646133Y-10788360D01*
D12*
X25622528Y-4349211D02*
X25532464Y-4549211D01*
D10*
X3286119Y-6478297D02*
X3286119Y-5073359D01*
X9001161Y-6978385D02*
X10406098Y-6978385D01*
X18026077Y-6978367D02*
X18026077Y-8383305D01*
X4691033Y-12693365D02*
X4691033Y-14098302D01*
X20431167Y-10788371D02*
X21836105Y-10788371D01*
X26146209Y-10788354D02*
X27551147Y-10788354D01*
X881029Y-12193309D02*
X-523909Y-12193309D01*
X22336181Y-10288295D02*
X22336181Y-8883357D01*
X18526154Y-10288307D02*
X18526154Y-8883369D01*
X16847433Y-12693362D02*
X16847433Y-12562354D01*
X25646133Y-8383281D02*
X24241195Y-8383281D01*
X26146209Y-8383275D02*
X26146209Y-6978338D01*
X20431167Y-8383293D02*
X20431167Y-6978355D01*
X25646133Y-12193297D02*
X24241195Y-12193297D01*
X22336181Y-5073341D02*
X23741119Y-5073341D01*
D12*
X27660457Y-14282321D02*
X27768457Y-14173500D01*
X27589746Y-14311609D02*
G75*
G03*
X27660457Y-14282321I-6J100019D01*
G01*
X20250652Y-14819211D02*
X20400028Y-14486611D01*
D10*
X-523909Y-6978355D02*
X881029Y-6978355D01*
X6596070Y-6978373D02*
X6596070Y-8383310D01*
D12*
X2420746Y-14311611D02*
X5877726Y-14311611D01*
D10*
X18026077Y-5073359D02*
X18026077Y-6478297D01*
D12*
X16097528Y-4349211D02*
X16007464Y-4549211D01*
D10*
X4691057Y-12193321D02*
X3286119Y-12193321D01*
X6596070Y-6478302D02*
X5191133Y-6478302D01*
X27551147Y-10788354D02*
X27551147Y-12193291D01*
D11*
X10894188Y-14110173D02*
X16133005Y-14110194D01*
D10*
X6596070Y-10288319D02*
X5191133Y-10288319D01*
D12*
X27799490Y-10722181D02*
G75*
G03*
X27770202Y-10651471I-100000J1D01*
G01*
X-430832Y-4724211D02*
G75*
G03*
X-501543Y-4753500I2J-100006D01*
G01*
D10*
X10406098Y-10788401D02*
X10406098Y-12193338D01*
X9001161Y-8883393D02*
X10406098Y-8883393D01*
X1381105Y-10288307D02*
X1381105Y-8883369D01*
X22336205Y-14098284D02*
X22336205Y-12693347D01*
X2786043Y-10288307D02*
X1381105Y-10288307D01*
X27551147Y-5073330D02*
X27551147Y-6478267D01*
X1381105Y-12193315D02*
X1381105Y-10788377D01*
X2786043Y-5073353D02*
X2786043Y-6478291D01*
X6596070Y-8883381D02*
X6596070Y-10288319D01*
X26146209Y-6978338D02*
X27551147Y-6978338D01*
X7096147Y-6478308D02*
X7096147Y-5073371D01*
D12*
X9022964Y-4349211D02*
G75*
G03*
X8477528Y-4349211I-272718J-125000D01*
G01*
X8114746Y-4724211D02*
X3013246Y-4724211D01*
D10*
X16621140Y-6978367D02*
X18026077Y-6978367D01*
D12*
X6299821Y-14819211D02*
G75*
G03*
X6845257Y-14819211I272718J125000D01*
G01*
D10*
X7798595Y-12693382D02*
X9703603Y-12693379D01*
D12*
X27768457Y-6615568D02*
G75*
G03*
X27797746Y-6544857I-70708J70709D01*
G01*
D10*
X7096123Y-12693376D02*
X7322302Y-12693379D01*
D12*
X25259746Y-4724213D02*
G75*
G03*
X25532464Y-4549211I4J299993D01*
G01*
D10*
X16847433Y-12562354D02*
X17323684Y-12562354D01*
X16621163Y-14098302D02*
X16621163Y-12693365D01*
X7096123Y-14098314D02*
X7096123Y-12693376D01*
X881029Y-5073347D02*
X881029Y-6478285D01*
X3286119Y-5073359D02*
X4691057Y-5073359D01*
X2786019Y-14098296D02*
X1381082Y-14098296D01*
X19931091Y-8383299D02*
X18526154Y-8383299D01*
X8501084Y-10288324D02*
X7096147Y-10288324D01*
D12*
X1742246Y-4724211D02*
X-430832Y-4724211D01*
D10*
X881029Y-10288301D02*
X-523909Y-10288301D01*
D12*
X1303839Y-14486611D02*
X1453216Y-14819211D01*
D10*
X9001161Y-6478314D02*
X9001161Y-5073377D01*
X1381105Y-8883369D02*
X2786043Y-8883369D01*
X26146209Y-5073330D02*
X27551147Y-5073330D01*
X18526154Y-8883369D02*
X19931091Y-8883369D01*
X19931115Y-12693359D02*
X19931115Y-14098296D01*
X18026077Y-8883375D02*
X18026077Y-10288313D01*
X21836105Y-6978355D02*
X21836105Y-8383293D01*
X27551147Y-12193291D02*
X26146209Y-12193291D01*
X2786043Y-12193315D02*
X1381105Y-12193315D01*
X21836129Y-14098290D02*
X20431191Y-14098290D01*
X21836105Y-8883363D02*
X21836105Y-10288301D01*
X25646133Y-6978343D02*
X25646133Y-8383281D01*
X3286119Y-12193321D02*
X3286119Y-10788383D01*
D12*
X6150447Y-14486610D02*
G75*
G03*
X5877726Y-14311611I-272717J-125000D01*
G01*
D10*
X19228685Y-12562354D02*
X19704936Y-12562354D01*
X19931091Y-12193315D02*
X18526154Y-12193315D01*
X23741119Y-8883357D02*
X23741119Y-10288295D01*
X7096147Y-6978379D02*
X8501084Y-6978379D01*
D12*
X26258028Y-4549211D02*
G75*
G03*
X26530746Y-4724211I272712J124991D01*
G01*
X7117974Y-14644211D02*
G75*
G03*
X6845257Y-14819211I-65J-299899D01*
G01*
X9107838Y-14544211D02*
X9107838Y-14386611D01*
D10*
X24241195Y-12193297D02*
X24241195Y-10788360D01*
X881005Y-14098290D02*
X-523932Y-14098290D01*
X8501084Y-12193332D02*
X7096147Y-12193332D01*
X18526154Y-12193315D02*
X18526154Y-10788377D01*
D12*
X27797746Y-14102789D02*
X27799492Y-10722181D01*
D10*
X26146209Y-12193291D02*
X26146209Y-10788354D01*
D12*
X27579739Y-6802671D02*
X27768457Y-6615568D01*
D10*
X24241219Y-12693341D02*
X25646156Y-12693341D01*
X881029Y-10788371D02*
X881029Y-12193309D01*
X10406098Y-8383322D02*
X9001161Y-8383322D01*
D12*
X27527037Y-4753899D02*
G75*
G03*
X27456325Y-4724611I-70717J-70732D01*
G01*
X-772254Y-6544457D02*
G75*
G03*
X-742964Y-6615168I99999J0D01*
G01*
D10*
X8501084Y-8883387D02*
X8501084Y-10288324D01*
X5191133Y-8383310D02*
X5191133Y-6978373D01*
X18026077Y-12193321D02*
X16621140Y-12193321D01*
D12*
X25572651Y-14819211D02*
X25722028Y-14486611D01*
D10*
X2786019Y-12693359D02*
X2786019Y-14098296D01*
D12*
X19705216Y-14819211D02*
G75*
G03*
X20250652Y-14819211I272718J125000D01*
G01*
X25027216Y-14819211D02*
G75*
G03*
X25572651Y-14819211I272718J125000D01*
G01*
X16733028Y-4549211D02*
G75*
G03*
X17005746Y-4724211I272712J124991D01*
G01*
D10*
X881029Y-8383293D02*
X-523909Y-8383293D01*
X-523909Y-12193309D02*
X-523909Y-10788371D01*
X7096147Y-12193332D02*
X7096147Y-10788395D01*
D12*
X24877839Y-14486611D02*
X25027216Y-14819211D01*
D10*
X20431191Y-14098290D02*
X20431191Y-12693353D01*
X23741119Y-10788365D02*
X23741119Y-12193303D01*
D12*
X24877835Y-14486612D02*
G75*
G03*
X24605121Y-14311611I-272705J-124978D01*
G01*
D10*
X25646133Y-8883352D02*
X25646133Y-10288289D01*
X16621140Y-10788383D02*
X18026077Y-10788383D01*
X2786043Y-8883369D02*
X2786043Y-10288307D01*
X4691033Y-14098302D02*
X3286095Y-14098302D01*
X16621140Y-6478297D02*
X16621140Y-5073359D01*
D12*
X2650464Y-4349211D02*
G75*
G03*
X2105028Y-4349211I-272718J-125000D01*
G01*
D10*
X17323635Y-12693362D02*
X19228643Y-12693365D01*
X23741119Y-8383287D02*
X22336181Y-8383287D01*
X1381105Y-10788377D02*
X2786043Y-10788377D01*
D12*
X8477528Y-4349211D02*
X8387464Y-4549211D01*
D10*
X2786043Y-6478291D02*
X1381105Y-6478291D01*
X2786043Y-6978361D02*
X2786043Y-8383299D01*
X1381105Y-6478291D02*
X1381105Y-5073353D01*
X3286119Y-8383305D02*
X3286119Y-6978367D01*
D12*
X-552501Y-10463968D02*
G75*
G03*
X-523909Y-10393257I-69141J69094D01*
G01*
D10*
X20431167Y-8883363D02*
X21836105Y-8883363D01*
X21836105Y-10288301D02*
X20431167Y-10288301D01*
X7096147Y-10288324D02*
X7096147Y-8883387D01*
X24241195Y-8883352D02*
X25646133Y-8883352D01*
X27551147Y-8383275D02*
X26146209Y-8383275D01*
X16847433Y-12693362D02*
X16621166Y-12693362D01*
X18526154Y-6978361D02*
X19931091Y-6978361D01*
X19228643Y-12693365D02*
X19228685Y-12562354D01*
X17323684Y-12562354D02*
X17323635Y-12693362D01*
X20431167Y-5073347D02*
X21836105Y-5073347D01*
X23741119Y-5073341D02*
X23741119Y-6478279D01*
X25646156Y-14098278D02*
X24241219Y-14098278D01*
X18026077Y-10788383D02*
X18026077Y-12193321D01*
X6596070Y-12193326D02*
X5191133Y-12193326D01*
X19931115Y-14098296D02*
X16621163Y-14098302D01*
X8501084Y-10788395D02*
X8501084Y-12193332D01*
X881029Y-6978355D02*
X881029Y-8383293D01*
X25646133Y-5073336D02*
X25646133Y-6478273D01*
D12*
X-634965Y-14282321D02*
G75*
G03*
X-564254Y-14311611I70724J70742D01*
G01*
D11*
X16133005Y-5061444D02*
X16133005Y-14110194D01*
D10*
X24241195Y-8383281D02*
X24241195Y-6978343D01*
X-523909Y-8883363D02*
X881029Y-8883363D01*
X881005Y-12693353D02*
X881005Y-14098290D01*
X19931091Y-6478291D02*
X18526154Y-6478291D01*
D12*
X-564254Y-14311611D02*
X1031121Y-14311611D01*
D10*
X6596047Y-12693370D02*
X6596047Y-14098308D01*
D12*
X16642964Y-4349211D02*
G75*
G03*
X16097528Y-4349211I-272718J-125000D01*
G01*
X27551149Y-10393239D02*
G75*
G03*
X27579739Y-10463950I97731J-1621D01*
G01*
D10*
X22336181Y-8383287D02*
X22336181Y-6978349D01*
X24241195Y-6478273D02*
X24241195Y-5073336D01*
D12*
X27770202Y-10651471D02*
X27579739Y-10463950D01*
D10*
X18526154Y-10788377D02*
X19931091Y-10788377D01*
D12*
X1742246Y-4724211D02*
G75*
G03*
X2014964Y-4549211I7J299989D01*
G01*
D10*
X2786043Y-8383299D02*
X1381105Y-8383299D01*
D12*
X-524635Y-15314687D02*
X-524635Y-15114687D01*
X-477016Y-15114687D01*
X-448444Y-15124211D01*
X-429397Y-15143258D01*
X-419873Y-15162306D01*
X-410349Y-15200401D01*
X-410349Y-15228973D01*
X-419873Y-15267068D01*
X-429397Y-15286115D01*
X-448444Y-15305163D01*
X-477016Y-15314687D01*
X-524635Y-15314687D01*
X-324635Y-15314687D02*
X-324635Y-15181354D01*
X-324635Y-15219449D02*
X-315111Y-15200401D01*
X-305587Y-15190877D01*
X-286540Y-15181354D01*
X-267492Y-15181354D01*
X-200825Y-15314687D02*
X-200825Y-15181354D01*
X-200825Y-15114687D02*
X-210349Y-15124211D01*
X-200825Y-15133735D01*
X-191301Y-15124211D01*
X-200825Y-15114687D01*
X-200825Y-15133735D01*
X-77016Y-15314687D02*
X-96063Y-15305163D01*
X-105587Y-15286115D01*
X-105587Y-15114687D01*
X27746Y-15314687D02*
X8699Y-15305163D01*
X-825Y-15286115D01*
X-825Y-15114687D01*
X256318Y-15314687D02*
X256318Y-15114687D01*
X322984Y-15257544D01*
X389651Y-15114687D01*
X389651Y-15314687D01*
X570603Y-15314687D02*
X570603Y-15209925D01*
X561080Y-15190877D01*
X542032Y-15181354D01*
X503937Y-15181354D01*
X484889Y-15190877D01*
X570603Y-15305163D02*
X551556Y-15314687D01*
X503937Y-15314687D01*
X484889Y-15305163D01*
X475365Y-15286115D01*
X475365Y-15267068D01*
X484889Y-15248020D01*
X503937Y-15238496D01*
X551556Y-15238496D01*
X570603Y-15228973D01*
X665841Y-15181354D02*
X665841Y-15381354D01*
X665841Y-15190877D02*
X684889Y-15181354D01*
X722984Y-15181354D01*
X742032Y-15190877D01*
X751556Y-15200401D01*
X761079Y-15219449D01*
X761079Y-15276592D01*
X751556Y-15295639D01*
X742032Y-15305163D01*
X722984Y-15314687D01*
X684889Y-15314687D01*
X665841Y-15305163D01*
X846794Y-15295639D02*
X856318Y-15305163D01*
X846794Y-15314687D01*
X837270Y-15305163D01*
X846794Y-15295639D01*
X846794Y-15314687D01*
X846794Y-15190877D02*
X856318Y-15200401D01*
X846794Y-15209925D01*
X837270Y-15200401D01*
X846794Y-15190877D01*
X846794Y-15209925D01*
M02*
