G04 #@! TF.GenerationSoftware,KiCad,Pcbnew,(6.0.7-1)-1*
G04 #@! TF.CreationDate,2022-11-07T11:39:14+01:00*
G04 #@! TF.ProjectId,frog-mini,66726f67-2d6d-4696-9e69-2e6b69636164,rev?*
G04 #@! TF.SameCoordinates,Original*
G04 #@! TF.FileFunction,Profile,NP*
%FSLAX46Y46*%
G04 Gerber Fmt 4.6, Leading zero omitted, Abs format (unit mm)*
G04 Created by KiCad (PCBNEW (6.0.7-1)-1) date 2022-11-07 11:39:14*
%MOMM*%
%LPD*%
G01*
G04 APERTURE LIST*
G04 #@! TA.AperFunction,Profile*
%ADD10C,0.150000*%
G04 #@! TD*
G04 #@! TA.AperFunction,Profile*
%ADD11C,0.100000*%
G04 #@! TD*
G04 #@! TA.AperFunction,Profile*
%ADD12C,0.200000*%
G04 #@! TD*
G04 APERTURE END LIST*
D10*
X77985524Y-125623715D02*
X77985949Y-126933823D01*
X101798044Y-125623715D02*
X101798044Y-126933793D01*
X73223020Y-126933793D02*
X73223020Y-125623715D01*
X97036029Y-126933793D02*
X97035540Y-125623715D01*
X97035540Y-125623715D02*
X101798044Y-125623715D01*
X73223020Y-125623715D02*
X77985524Y-125623715D01*
D11*
X161330049Y-50614440D02*
X108941884Y-50614233D01*
D10*
X166211396Y-121933206D02*
X166211396Y-107883831D01*
X65960704Y-83833105D02*
X51911329Y-83833105D01*
X237411188Y-102882949D02*
X223361813Y-102882949D01*
X104060982Y-50733768D02*
X104060982Y-64783143D01*
X218361285Y-126933528D02*
X218361285Y-140982903D01*
X-5239088Y-50733473D02*
X8810287Y-50733473D01*
D12*
X197052136Y-148192119D02*
G75*
G03*
X194324981Y-146442108I-2726536J-1248981D01*
G01*
D10*
X32860954Y-140983021D02*
X32860954Y-126933646D01*
X8810287Y-88833633D02*
X8810287Y-102883008D01*
X32860954Y-126933646D02*
X46910329Y-126933646D01*
D12*
X167216792Y-143866108D02*
G75*
G03*
X166466837Y-143116108I-749992J8D01*
G01*
D10*
X104060746Y-126933823D02*
X104060746Y-140983198D01*
D12*
X-7429645Y-66151679D02*
X-5525012Y-68026886D01*
D10*
X46910565Y-88833751D02*
X46910565Y-102883126D01*
D12*
X24207462Y-143116101D02*
G75*
G03*
X21480284Y-144866108I-62J-2999899D01*
G01*
D10*
X275511466Y-68733816D02*
X275511466Y-69783376D01*
X70961468Y-107883949D02*
X85010843Y-107883949D01*
X218361049Y-64782848D02*
X204311674Y-64782848D01*
D12*
X275797366Y-68026685D02*
G75*
G03*
X275511466Y-68733816I691434J-690915D01*
G01*
D10*
X185261535Y-64782907D02*
X185261535Y-50733532D01*
X104060746Y-140983198D02*
X70961232Y-140983139D01*
X180260771Y-64782966D02*
X166211396Y-64782966D01*
D12*
X167216792Y-145442108D02*
G75*
G03*
X168216837Y-146442108I1000008J8D01*
G01*
D10*
X218361049Y-50733473D02*
X218361049Y-64782848D01*
X70961468Y-50733709D02*
X85010843Y-50733709D01*
X237411188Y-121933029D02*
X223361813Y-121933029D01*
D12*
X21050284Y-43492108D02*
X20149640Y-45492108D01*
D10*
X261462091Y-102882831D02*
X261462091Y-88833456D01*
X32861190Y-88833751D02*
X46910565Y-88833751D01*
X166211396Y-83833046D02*
X166211396Y-69783671D01*
X275511702Y-140982726D02*
X261462327Y-140982726D01*
X27860426Y-107883772D02*
X27860426Y-121933147D01*
D12*
X19986515Y-148192108D02*
X21480284Y-144866108D01*
X167216837Y-143866108D02*
X167216837Y-145442108D01*
D10*
X46910565Y-83833046D02*
X32861190Y-83833046D01*
D12*
X-7429645Y-141735001D02*
X-6349645Y-142823215D01*
D10*
X275511466Y-64782671D02*
X261462091Y-64782671D01*
D12*
X277977458Y-50660322D02*
G75*
G03*
X277684569Y-49953215I-999958J22D01*
G01*
D10*
X46910565Y-107883831D02*
X46910565Y-121933206D01*
X223362049Y-126933469D02*
X237411424Y-126933469D01*
X242412188Y-140982785D02*
X242412188Y-126933410D01*
X46910565Y-50733591D02*
X46910565Y-64782966D01*
X-5239324Y-126933528D02*
X8810051Y-126933528D01*
X218361049Y-107883713D02*
X218361049Y-121933088D01*
D12*
X259947462Y-143116101D02*
G75*
G03*
X257220284Y-144866108I-62J-2999899D01*
G01*
X61504442Y-144866108D02*
X62998211Y-148192108D01*
D10*
X51911329Y-69783730D02*
X65960704Y-69783730D01*
D12*
X81147462Y-47242127D02*
G75*
G03*
X83874640Y-45492108I38J2999927D01*
G01*
X91828382Y-143116082D02*
G75*
G03*
X91078382Y-143866108I18J-750018D01*
G01*
D10*
X185261535Y-50733532D02*
X199310910Y-50733532D01*
X46910565Y-102883126D02*
X32861190Y-102883126D01*
X51911329Y-88833810D02*
X65960704Y-88833810D01*
X204311674Y-121933088D02*
X204311674Y-107883713D01*
X166211396Y-50733591D02*
X180260771Y-50733591D01*
X237411188Y-64782789D02*
X223361813Y-64782789D01*
X180260771Y-102883126D02*
X166211396Y-102883126D01*
X242411952Y-50733355D02*
X256461327Y-50733355D01*
X237411188Y-69783494D02*
X237411188Y-83832869D01*
X104060982Y-121933383D02*
X90011607Y-121933383D01*
X51911093Y-140983080D02*
X51911093Y-126933705D01*
X237411424Y-126933469D02*
X237411424Y-140982844D01*
X104060982Y-102883303D02*
X90011607Y-102883303D01*
X85010843Y-64783084D02*
X70961468Y-64783084D01*
D12*
X157347462Y-47242108D02*
X93857462Y-47242108D01*
X13038390Y-144866108D02*
G75*
G03*
X10311212Y-143116108I-2727070J-1249832D01*
G01*
D10*
X-5239088Y-64782848D02*
X-5239088Y-50733473D01*
X32861190Y-102883126D02*
X32861190Y-88833751D01*
X65960704Y-107883890D02*
X65960704Y-121933265D01*
X199310910Y-69783612D02*
X199310910Y-83832987D01*
X90011607Y-102883303D02*
X90011607Y-88833928D01*
X218361049Y-121933088D02*
X204311674Y-121933088D01*
X8810287Y-64782848D02*
X-5239088Y-64782848D01*
X104060982Y-88833928D02*
X104060982Y-102883303D01*
X32861190Y-69783671D02*
X46910565Y-69783671D01*
D12*
X206727462Y-143116108D02*
X246051212Y-143116108D01*
D10*
X13811051Y-69783612D02*
X27860426Y-69783612D01*
D12*
X91130284Y-45492108D02*
X90229640Y-43492108D01*
D10*
X261462091Y-88833456D02*
X275511466Y-88833456D01*
X51911329Y-50733650D02*
X65960704Y-50733650D01*
X275511702Y-126933351D02*
X275511702Y-140982726D01*
X51911329Y-121933265D02*
X51911329Y-107883890D01*
X104060982Y-69783848D02*
X104060982Y-83833223D01*
X46910565Y-64782966D02*
X32861190Y-64782966D01*
X70961468Y-83833164D02*
X70961468Y-69783789D01*
X199310910Y-88833692D02*
X199310910Y-102883067D01*
D12*
X274563248Y-47246108D02*
X265307462Y-47242108D01*
D10*
X197049358Y-125623538D02*
X197049358Y-126933616D01*
X256461563Y-126933410D02*
X256461563Y-140982785D01*
X90011607Y-50733768D02*
X104060982Y-50733768D01*
X85010843Y-69783789D02*
X85010843Y-83833164D01*
X-5239324Y-140982903D02*
X-5239324Y-126933528D01*
X51911329Y-102883185D02*
X51911329Y-88833810D01*
X256461327Y-64782730D02*
X242411952Y-64782730D01*
X261462091Y-64782671D02*
X261462091Y-50733296D01*
X104060717Y-126933793D02*
X101798044Y-126933793D01*
X-5239088Y-69783553D02*
X-5239088Y-68733993D01*
D12*
X259947462Y-143116108D02*
X275897462Y-143116108D01*
X252597462Y-47242108D02*
X170057462Y-47242108D01*
D10*
X13811051Y-83832987D02*
X13811051Y-69783612D01*
X223361813Y-64782789D02*
X223361813Y-50733414D01*
X32861190Y-107883831D02*
X46910565Y-107883831D01*
X85010843Y-50733709D02*
X85010843Y-64783084D01*
X223361813Y-121933029D02*
X223361813Y-107883654D01*
X261462327Y-140982726D02*
X261462327Y-126933351D01*
D12*
X-5015431Y-47535001D02*
X-7429645Y-49949215D01*
X277684569Y-49953215D02*
X275270355Y-47539001D01*
D10*
X166211396Y-102883126D02*
X166211396Y-88833751D01*
X256461327Y-107883595D02*
X256461327Y-121932970D01*
X256461327Y-102882890D02*
X242411952Y-102882890D01*
X242411952Y-69783435D02*
X256461327Y-69783435D01*
X199310910Y-102883067D02*
X185261535Y-102883067D01*
X65960468Y-140983080D02*
X51911093Y-140983080D01*
D12*
X91130282Y-45492109D02*
G75*
G03*
X93857462Y-47242108I2727118J1249909D01*
G01*
X71179745Y-146442108D02*
X90078382Y-146442108D01*
D10*
X-5239088Y-103932568D02*
X-5239088Y-102883008D01*
X275511466Y-83832751D02*
X275511466Y-88833456D01*
X204311674Y-102883008D02*
X204311674Y-88833633D01*
X46910565Y-69783671D02*
X46910565Y-83833046D01*
X275511466Y-102882831D02*
X275511466Y-103932391D01*
X223361813Y-88833574D02*
X237411188Y-88833574D01*
D12*
X262580284Y-45492108D02*
X261679640Y-43492108D01*
D10*
X242411952Y-102882890D02*
X242411952Y-88833515D01*
X65960704Y-50733650D02*
X65960704Y-64783025D01*
X199310910Y-50733532D02*
X199310910Y-64782907D01*
X199310910Y-107883772D02*
X199310910Y-121933147D01*
D12*
X-7722538Y-141027894D02*
G75*
G03*
X-7429645Y-141735001I999994J-3D01*
G01*
D10*
X13811051Y-50733532D02*
X27860426Y-50733532D01*
D12*
X277977462Y-65448572D02*
X277977462Y-50660322D01*
X206727462Y-143116101D02*
G75*
G03*
X204000284Y-144866108I-62J-2999899D01*
G01*
X157347462Y-47242127D02*
G75*
G03*
X160074640Y-45492108I38J2999927D01*
G01*
D10*
X90011607Y-83833223D02*
X90011607Y-69783848D01*
D12*
X167330284Y-45492108D02*
X166429640Y-43492108D01*
D10*
X166211396Y-88833751D02*
X180260771Y-88833751D01*
D12*
X-5525012Y-104639675D02*
X-7429645Y-106514882D01*
D11*
X108941884Y-50614233D02*
X108941884Y-141101733D01*
D10*
X237411424Y-140982844D02*
X223362049Y-140982844D01*
D12*
X-7429645Y-49949215D02*
G75*
G03*
X-7722538Y-50656322I707101J-707104D01*
G01*
D10*
X70961468Y-88833869D02*
X85010843Y-88833869D01*
D12*
X-7429645Y-106514882D02*
G75*
G03*
X-7722538Y-107221989I707101J-707104D01*
G01*
D10*
X51911329Y-64783025D02*
X51911329Y-50733650D01*
X-5239088Y-88833633D02*
X-5239088Y-83832928D01*
D12*
X168216837Y-146442108D02*
X194324981Y-146442108D01*
D10*
X204311674Y-64782848D02*
X204311674Y-50733473D01*
D12*
X90078382Y-146442082D02*
G75*
G03*
X91078382Y-145442108I18J999982D01*
G01*
D10*
X261462327Y-126933351D02*
X275511702Y-126933351D01*
X218361049Y-83832928D02*
X204311674Y-83832928D01*
X90011607Y-107884008D02*
X104060982Y-107884008D01*
X197049358Y-126933616D02*
X199311146Y-126933587D01*
X-5239088Y-107883713D02*
X8810287Y-107883713D01*
X204311910Y-126933528D02*
X218361285Y-126933528D01*
X204311674Y-69783553D02*
X218361049Y-69783553D01*
D12*
X27405282Y-45492109D02*
G75*
G03*
X30132462Y-47242108I2727118J1249909D01*
G01*
X27405284Y-45492108D02*
X26504640Y-43492108D01*
X14532159Y-148192108D02*
G75*
G03*
X19986515Y-148192108I2727178J1250000D01*
G01*
D10*
X90011607Y-121933383D02*
X90011607Y-107884008D01*
X223361813Y-69783494D02*
X237411188Y-69783494D01*
X104060982Y-64783143D02*
X90011607Y-64783143D01*
D12*
X261679640Y-43492108D02*
G75*
G03*
X256225284Y-43492108I-2727178J-1250000D01*
G01*
D10*
X51911329Y-107883890D02*
X65960704Y-107883890D01*
D12*
X-5239088Y-68733993D02*
G75*
G03*
X-5525012Y-68026886I-977333J16169D01*
G01*
D10*
X180260771Y-83833046D02*
X166211396Y-83833046D01*
X223361813Y-107883654D02*
X237411188Y-107883654D01*
D12*
X-7722538Y-50656322D02*
X-7722538Y-65444572D01*
X91828382Y-143116108D02*
X166466837Y-143116108D01*
X-7722538Y-107221989D02*
X-7722538Y-141027894D01*
D10*
X13810815Y-126933587D02*
X27860190Y-126933587D01*
X13810815Y-140982962D02*
X13810815Y-126933587D01*
X51911093Y-126933705D02*
X65960468Y-126933705D01*
X185261535Y-83832987D02*
X185261535Y-69783612D01*
X85010843Y-83833164D02*
X70961468Y-83833164D01*
D12*
X277684564Y-141734996D02*
G75*
G03*
X277977462Y-141027894I-707064J707096D01*
G01*
D10*
X275511466Y-102882831D02*
X261462091Y-102882831D01*
X242411952Y-107883595D02*
X256461327Y-107883595D01*
D12*
X256225284Y-43492108D02*
X255324640Y-45492108D01*
D10*
X32861190Y-64782966D02*
X32861190Y-50733591D01*
X90011607Y-69783848D02*
X104060982Y-69783848D01*
X180260771Y-69783671D02*
X180260771Y-83833046D01*
X46910329Y-126933646D02*
X46910329Y-140983021D01*
X204311674Y-107883713D02*
X218361049Y-107883713D01*
X261462091Y-107883536D02*
X275511466Y-107883536D01*
X8810287Y-121933088D02*
X-5239088Y-121933088D01*
X223361813Y-102882949D02*
X223361813Y-88833574D01*
X185261535Y-102883067D02*
X185261535Y-88833692D01*
X168474334Y-126933616D02*
X168474334Y-125623538D01*
X256461327Y-83832810D02*
X242411952Y-83832810D01*
X261462091Y-83832751D02*
X261462091Y-69783376D01*
X204311674Y-83832928D02*
X204311674Y-69783553D01*
X256461327Y-121932970D02*
X242411952Y-121932970D01*
X223361813Y-50733414D02*
X237411188Y-50733414D01*
D12*
X276604569Y-142823215D02*
X277684569Y-141735001D01*
X275897462Y-143116091D02*
G75*
G03*
X276604569Y-142823215I-62J1000191D01*
G01*
X202506515Y-148192108D02*
X204000284Y-144866108D01*
D10*
X-5239088Y-69783553D02*
X8810287Y-69783553D01*
X65960704Y-69783730D02*
X65960704Y-83833105D01*
D12*
X24207462Y-143116108D02*
X58777264Y-143116108D01*
D10*
X180260771Y-50733591D02*
X180260771Y-64782966D01*
D12*
X160975284Y-43492108D02*
X160074640Y-45492108D01*
D10*
X46910565Y-121933206D02*
X32861190Y-121933206D01*
X65960704Y-64783025D02*
X51911329Y-64783025D01*
X275511466Y-107883536D02*
X275511466Y-121932911D01*
D11*
X108941884Y-141101733D02*
X161330049Y-141101940D01*
D10*
X65960704Y-102883185D02*
X51911329Y-102883185D01*
D12*
X277994903Y-107221812D02*
G75*
G03*
X277702023Y-106514705I-1000003J12D01*
G01*
X-4308324Y-47242108D02*
G75*
G03*
X-5015431Y-47535001I24J-1000060D01*
G01*
D10*
X104060982Y-107884008D02*
X104060982Y-121933383D01*
X90011607Y-88833928D02*
X104060982Y-88833928D01*
X13811051Y-102883067D02*
X13811051Y-88833692D01*
X223362049Y-140982844D02*
X223362049Y-126933469D01*
X27860426Y-102883067D02*
X13811051Y-102883067D01*
X275511466Y-50733296D02*
X275511466Y-64782671D01*
X13811051Y-121933147D02*
X13811051Y-107883772D01*
X27860426Y-50733532D02*
X27860426Y-64782907D01*
X65960704Y-88833810D02*
X65960704Y-102883185D01*
X261462091Y-69783376D02*
X275511466Y-69783376D01*
X70961468Y-64783084D02*
X70961468Y-50733709D01*
D12*
X90229640Y-43492108D02*
G75*
G03*
X84775284Y-43492108I-2727178J-1250000D01*
G01*
X81147462Y-47242108D02*
X30132462Y-47242108D01*
D10*
X166211396Y-69783671D02*
X180260771Y-69783671D01*
D12*
X62998211Y-148192108D02*
G75*
G03*
X68452567Y-148192108I2727178J1250000D01*
G01*
D10*
X77985949Y-126933823D02*
X97036029Y-126933793D01*
D12*
X277684575Y-66155685D02*
G75*
G03*
X277977462Y-65448572I-707075J707085D01*
G01*
D10*
X70961232Y-126933764D02*
X73223020Y-126933793D01*
D12*
X252597462Y-47242127D02*
G75*
G03*
X255324640Y-45492108I38J2999927D01*
G01*
D10*
X168474334Y-125623538D02*
X173236838Y-125623538D01*
X166211632Y-140983021D02*
X166211632Y-126933646D01*
X70961232Y-140983139D02*
X70961232Y-126933764D01*
X8810287Y-50733473D02*
X8810287Y-64782848D01*
X32861190Y-50733591D02*
X46910565Y-50733591D01*
X27860190Y-140982962D02*
X13810815Y-140982962D01*
X199310910Y-83832987D02*
X185261535Y-83832987D01*
X85010843Y-102883244D02*
X70961468Y-102883244D01*
D12*
X17422462Y-47242108D02*
X-4308324Y-47242108D01*
D10*
X8810287Y-102883008D02*
X-5239088Y-102883008D01*
D12*
X13038390Y-144866108D02*
X14532159Y-148192108D01*
D10*
X90011607Y-64783143D02*
X90011607Y-50733768D01*
X13811051Y-88833692D02*
X27860426Y-88833692D01*
X261462091Y-50733296D02*
X275511466Y-50733296D01*
X185261535Y-88833692D02*
X199310910Y-88833692D01*
X199311146Y-126933587D02*
X199311146Y-140982962D01*
X180260771Y-88833751D02*
X180260771Y-102883126D01*
X218361049Y-69783553D02*
X218361049Y-83832928D01*
X275511466Y-121932911D02*
X261462091Y-121932911D01*
X27860426Y-121933147D02*
X13811051Y-121933147D01*
X218361285Y-140982903D02*
X204311910Y-140982903D01*
X218361049Y-88833633D02*
X218361049Y-102883008D01*
X256461327Y-69783435D02*
X256461327Y-83832810D01*
X32861190Y-121933206D02*
X32861190Y-107883831D01*
D12*
X61504468Y-144866096D02*
G75*
G03*
X58777264Y-143116108I-2727168J-1250004D01*
G01*
D10*
X192286854Y-125623538D02*
X197049358Y-125623538D01*
X199310910Y-121933147D02*
X185261535Y-121933147D01*
X237411188Y-88833574D02*
X237411188Y-102882949D01*
X70961468Y-69783789D02*
X85010843Y-69783789D01*
D12*
X262580282Y-45492109D02*
G75*
G03*
X265307462Y-47242108I2727118J1249909D01*
G01*
X71179745Y-146442106D02*
G75*
G03*
X68452567Y-148192108I-645J-2998994D01*
G01*
X91078382Y-145442108D02*
X91078382Y-143866108D01*
D10*
X242411952Y-121932970D02*
X242411952Y-107883595D01*
X8810051Y-140982903D02*
X-5239324Y-140982903D01*
X85010843Y-121933324D02*
X70961468Y-121933324D01*
X185261535Y-121933147D02*
X185261535Y-107883772D01*
D12*
X277977462Y-141027894D02*
X277994916Y-107221812D01*
D10*
X261462091Y-121932911D02*
X261462091Y-107883536D01*
D12*
X275797390Y-68026709D02*
X277684569Y-66155679D01*
D10*
X242412188Y-126933410D02*
X256461563Y-126933410D01*
X8810287Y-107883713D02*
X8810287Y-121933088D01*
X104060982Y-83833223D02*
X90011607Y-83833223D01*
D12*
X275270371Y-47538985D02*
G75*
G03*
X274563248Y-47246108I-707171J-707315D01*
G01*
X-7722538Y-65444572D02*
G75*
G03*
X-7429645Y-66151679I999994J-3D01*
G01*
D10*
X85010843Y-88833869D02*
X85010843Y-102883244D01*
X51911329Y-83833105D02*
X51911329Y-69783730D01*
X180260771Y-121933206D02*
X166211396Y-121933206D01*
D12*
X255726515Y-148192108D02*
X257220284Y-144866108D01*
D10*
X27860190Y-126933587D02*
X27860190Y-140982962D01*
D12*
X197052159Y-148192108D02*
G75*
G03*
X202506515Y-148192108I2727178J1250000D01*
G01*
X250272159Y-148192108D02*
G75*
G03*
X255726515Y-148192108I2727178J1250000D01*
G01*
X167330282Y-45492109D02*
G75*
G03*
X170057462Y-47242108I2727118J1249909D01*
G01*
D10*
X8810287Y-83832928D02*
X-5239088Y-83832928D01*
X-5239088Y-121933088D02*
X-5239088Y-107883713D01*
X70961468Y-121933324D02*
X70961468Y-107883949D01*
D12*
X248778390Y-144866108D02*
X250272159Y-148192108D01*
D10*
X204311910Y-140982903D02*
X204311910Y-126933528D01*
X237411188Y-107883654D02*
X237411188Y-121933029D01*
D12*
X248778352Y-144866125D02*
G75*
G03*
X246051212Y-143116108I-2727052J-1249775D01*
G01*
D10*
X256461327Y-88833515D02*
X256461327Y-102882890D01*
X166211396Y-107883831D02*
X180260771Y-107883831D01*
X27860426Y-88833692D02*
X27860426Y-102883067D01*
X46910329Y-140983021D02*
X32860954Y-140983021D01*
X166211396Y-64782966D02*
X166211396Y-50733591D01*
D12*
X26504640Y-43492108D02*
G75*
G03*
X21050284Y-43492108I-2727178J-1250000D01*
G01*
D10*
X173236349Y-126933616D02*
X192286429Y-126933646D01*
X237411188Y-83832869D02*
X223361813Y-83832869D01*
X13811051Y-107883772D02*
X27860426Y-107883772D01*
D12*
X84775284Y-43492108D02*
X83874640Y-45492108D01*
D10*
X27860426Y-64782907D02*
X13811051Y-64782907D01*
X27860426Y-69783612D02*
X27860426Y-83832987D01*
X13811051Y-64782907D02*
X13811051Y-50733532D01*
X32861190Y-83833046D02*
X32861190Y-69783671D01*
D12*
X-5525012Y-104639675D02*
G75*
G03*
X-5239088Y-103932568I-691409J690938D01*
G01*
D10*
X204311674Y-88833633D02*
X218361049Y-88833633D01*
X218361049Y-102883008D02*
X204311674Y-102883008D01*
X70961468Y-102883244D02*
X70961468Y-88833869D01*
X242411952Y-88833515D02*
X256461327Y-88833515D01*
X275511466Y-83832751D02*
X261462091Y-83832751D01*
X168474334Y-126933616D02*
X166211661Y-126933616D01*
X185261535Y-69783612D02*
X199310910Y-69783612D01*
X192286429Y-126933646D02*
X192286854Y-125623538D01*
X173236838Y-125623538D02*
X173236349Y-126933616D01*
X204311674Y-50733473D02*
X218361049Y-50733473D01*
X237411188Y-50733414D02*
X237411188Y-64782789D01*
X256461563Y-140982785D02*
X242412188Y-140982785D01*
X180260771Y-107883831D02*
X180260771Y-121933206D01*
X65960704Y-121933265D02*
X51911329Y-121933265D01*
X199311146Y-140982962D02*
X166211632Y-140983021D01*
X85010843Y-107883949D02*
X85010843Y-121933324D01*
X8810287Y-69783553D02*
X8810287Y-83832928D01*
X256461327Y-50733355D02*
X256461327Y-64782730D01*
D12*
X-6349645Y-142823215D02*
G75*
G03*
X-5642538Y-143116108I707235J707417D01*
G01*
D11*
X161330049Y-50614440D02*
X161330049Y-141101940D01*
D10*
X242411952Y-83832810D02*
X242411952Y-69783435D01*
X-5239088Y-88833633D02*
X8810287Y-88833633D01*
X8810051Y-126933528D02*
X8810051Y-140982903D01*
X199310910Y-64782907D02*
X185261535Y-64782907D01*
D12*
X-5642538Y-143116108D02*
X10311212Y-143116108D01*
D10*
X65960468Y-126933705D02*
X65960468Y-140983080D01*
D12*
X166429640Y-43492108D02*
G75*
G03*
X160975284Y-43492108I-2727178J-1250000D01*
G01*
X275511495Y-103932391D02*
G75*
G03*
X275797390Y-104639498I977305J-16209D01*
G01*
D10*
X223361813Y-83832869D02*
X223361813Y-69783494D01*
X242411952Y-64782730D02*
X242411952Y-50733355D01*
D12*
X277702023Y-106514705D02*
X275797390Y-104639498D01*
D10*
X185261535Y-107883772D02*
X199310910Y-107883772D01*
D12*
X17422462Y-47242111D02*
G75*
G03*
X20149640Y-45492108I68J2999891D01*
G01*
D10*
X27860426Y-83832987D02*
X13811051Y-83832987D01*
M02*
