  0
SECTION
  2
HEADER
  9
$ANGBASE
  50
0.0
  9
$ANGDIR
  70
1
  9
$MEASUREMENT
  70
1
  0
ENDSEC
  0
SECTION
  2
TABLES
  0
TABLE
  2
LTYPE
  70
4
  0
LTYPE
  5
40F
  2
CONTINUOUS
  70
0
  3
Solid line
  72
65
  73
0
  40
0.0
  0
LTYPE
  5
410
  2
DASHDOT
 70
0
  3
Dash Dot ____ _ ____ _
 72
65
 73
4
 40
2.0
 49
1.25
 49
-0.25
 49
0.25
 49
-0.25
  0
LTYPE
  5
411
  2
DASHED
 70
0
  3
Dashed __ __ __ __ __
 72
65
 73
2
 40
0.75
 49
0.5
 49
-0.25
  0
LTYPE
  5
43B
  2
DOTTED
 70
0
  3
Dotted .  .  .  .
 72
65
 73
2
 40
0.2
 49
0.0
 49
-0.2
  0
ENDTAB
  0
TABLE
  2
STYLE
  70
4
  0
STYLE
  2
KICAD
  70
0
  40
0
  41
1
  42
1
  50
0
  71
0
  3
isocp.shx
  0
STYLE
  2
KICADB
  70
0
  40
0
  41
1
  42
1
  50
0
  71
0
  3
isocp.shx
  0
STYLE
  2
KICADI
  70
0
  40
0
  41
1
  42
1
  50
15
  71
0
  3
isocp.shx
  0
STYLE
  2
KICADBI
  70
0
  40
0
  41
1
  42
1
  50
15
  71
0
  3
isocp.shx
  0
ENDTAB
  0
TABLE
  2
LAYER
  70
1
  0
LAYER
  2
BLACK
  70
0
  62
7
  6
CONTINUOUS
  0
ENDTAB
  0
ENDSEC
  0
SECTION
  2
ENTITIES
0
LINE
8
BLACK
6
CONTINUOUS
10
103.602
20
-39.8
11
103.602
21
-135.05
0
LINE
8
BLACK
6
CONTINUOUS
10
31.4177
20
-135.05
11
-8.73346
21
-135.05
0
LINE
8
BLACK
6
CONTINUOUS
10
-10.7335
20
-133.05
11
-10.7335
21
-41.8
0
ARC
8
BLACK
10
-8.73346
20
-41.8
40
2
50
90
51
180
0
CIRCLE
8
BLACK
10
36.8659
20
-37.6421
40
1.1
0
CIRCLE
8
BLACK
10
36.9659
20
-137.142
40
1.1
0
ARC
8
BLACK
10
-8.73346
20
-133.05
40
2
50
-180
51
-90
0
ARC
8
BLACK
10
31.4177
20
-137.05
40
2
50
-0
51
90
0
LINE
8
BLACK
6
CONTINUOUS
10
33.4177
20
-137.15
11
33.4177
21
-137.05
0
ARC
8
BLACK
10
36.9177
20
-137.15
40
3.5
50
180
51
360
0
LINE
8
BLACK
6
CONTINUOUS
10
40.4177
20
-137.05
11
40.4177
21
-137.15
0
ARC
8
BLACK
10
42.4177
20
-137.05
40
2
50
90
51
180
0
LINE
8
BLACK
6
CONTINUOUS
10
103.602
20
-135.05
11
42.4177
21
-135.05
0
LINE
8
BLACK
6
CONTINUOUS
10
42.3954
20
-39.8
11
103.602
21
-39.8
0
ARC
8
BLACK
10
42.4177
20
-37.8001
40
2
50
180
51
269.361
0
LINE
8
BLACK
6
CONTINUOUS
10
40.4177
20
-37.7001
11
40.4177
21
-37.8001
0
ARC
8
BLACK
10
36.9177
20
-37.7001
40
3.5
50
-0
51
180
0
LINE
8
BLACK
6
CONTINUOUS
10
33.4177
20
-37.8001
11
33.4177
21
-37.7001
0
ARC
8
BLACK
10
31.4177
20
-37.8001
40
2
50
-89.3607
51
2.79329e-05
0
LINE
8
BLACK
6
CONTINUOUS
10
-8.73346
20
-39.8
11
31.44
21
-39.8
0
LINE
8
BLACK
6
CONTINUOUS
10
5.95312
20
-42.1481
11
-8.33437
21
-42.1481
0
LINE
8
BLACK
6
CONTINUOUS
10
-8.33437
20
-42.1481
11
-8.33437
21
-56.4356
0
LINE
8
BLACK
6
CONTINUOUS
10
44.0531
20
-61.1981
11
29.7656
21
-61.1981
0
LINE
8
BLACK
6
CONTINUOUS
10
10.7156
20
-75.4856
11
25.0031
21
-75.4856
0
LINE
8
BLACK
6
CONTINUOUS
10
82.1531
20
-42.1481
11
82.1531
21
-56.4356
0
LINE
8
BLACK
6
CONTINUOUS
10
82.1531
20
-56.4356
11
67.8656
21
-56.4356
0
LINE
8
BLACK
6
CONTINUOUS
10
-8.33437
20
-113.586
11
5.95312
21
-113.586
0
LINE
8
BLACK
6
CONTINUOUS
10
5.95312
20
-99.2981
11
-8.33437
21
-99.2981
0
LINE
8
BLACK
6
CONTINUOUS
10
48.8156
20
-56.4356
11
48.8156
21
-42.1481
0
LINE
8
BLACK
6
CONTINUOUS
10
48.8156
20
-42.1481
11
63.1031
21
-42.1481
0
LINE
8
BLACK
6
CONTINUOUS
10
44.0531
20
-42.1481
11
29.7656
21
-42.1481
0
LINE
8
BLACK
6
CONTINUOUS
10
29.7656
20
-42.1481
11
29.7656
21
-56.4356
0
LINE
8
BLACK
6
CONTINUOUS
10
29.7656
20
-56.4356
11
44.0531
21
-56.4356
0
LINE
8
BLACK
6
CONTINUOUS
10
44.0531
20
-56.4356
11
44.0531
21
-42.1481
0
LINE
8
BLACK
6
CONTINUOUS
10
25.0031
20
-42.1481
11
10.7156
21
-42.1481
0
LINE
8
BLACK
6
CONTINUOUS
10
10.7156
20
-42.1481
11
10.7156
21
-56.4356
0
LINE
8
BLACK
6
CONTINUOUS
10
67.8656
20
-56.4356
11
67.8656
21
-42.1481
0
LINE
8
BLACK
6
CONTINUOUS
10
67.8656
20
-42.1481
11
82.1531
21
-42.1481
0
LINE
8
BLACK
6
CONTINUOUS
10
-8.33437
20
-56.4356
11
5.95312
21
-56.4356
0
LINE
8
BLACK
6
CONTINUOUS
10
-8.33437
20
-75.4856
11
5.95312
21
-75.4856
0
LINE
8
BLACK
6
CONTINUOUS
10
10.7156
20
-56.4356
11
25.0031
21
-56.4356
0
LINE
8
BLACK
6
CONTINUOUS
10
25.0031
20
-56.4356
11
25.0031
21
-42.1481
0
LINE
8
BLACK
6
CONTINUOUS
10
5.95312
20
-56.4356
11
5.95312
21
-42.1481
0
LINE
8
BLACK
6
CONTINUOUS
10
101.203
20
-132.636
11
101.203
21
-118.348
0
LINE
8
BLACK
6
CONTINUOUS
10
70.2468
20
-118.348
11
67.8655
21
-118.348
0
LINE
8
BLACK
6
CONTINUOUS
10
75.0093
20
-117.158
11
75.0093
21
-118.348
0
LINE
8
BLACK
6
CONTINUOUS
10
98.8218
20
-117.158
11
98.8218
21
-118.348
0
LINE
8
BLACK
6
CONTINUOUS
10
70.2468
20
-118.348
11
70.2468
21
-117.158
0
LINE
8
BLACK
6
CONTINUOUS
10
101.203
20
-118.348
11
98.8218
21
-118.348
0
LINE
8
BLACK
6
CONTINUOUS
10
94.0593
20
-118.348
11
94.0593
21
-117.158
0
LINE
8
BLACK
6
CONTINUOUS
10
101.203
20
-61.1981
11
86.9156
21
-61.1981
0
LINE
8
BLACK
6
CONTINUOUS
10
82.1531
20
-61.1981
11
82.1531
21
-75.4856
0
LINE
8
BLACK
6
CONTINUOUS
10
86.9156
20
-75.4856
11
101.203
21
-75.4856
0
LINE
8
BLACK
6
CONTINUOUS
10
48.8156
20
-61.1981
11
63.1031
21
-61.1981
0
LINE
8
BLACK
6
CONTINUOUS
10
86.9156
20
-80.2481
11
86.9156
21
-94.5356
0
LINE
8
BLACK
6
CONTINUOUS
10
29.7656
20
-61.1981
11
29.7656
21
-75.4856
0
LINE
8
BLACK
6
CONTINUOUS
10
101.203
20
-75.4856
11
101.203
21
-61.1981
0
LINE
8
BLACK
6
CONTINUOUS
10
-8.33437
20
-61.1981
11
-8.33437
21
-75.4856
0
LINE
8
BLACK
6
CONTINUOUS
10
-8.33437
20
-94.5357
11
5.95312
21
-94.5357
0
LINE
8
BLACK
6
CONTINUOUS
10
29.7656
20
-94.5356
11
44.0531
21
-94.5356
0
LINE
8
BLACK
6
CONTINUOUS
10
25.0031
20
-94.5356
11
25.0031
21
-80.2481
0
LINE
8
BLACK
6
CONTINUOUS
10
101.203
20
-42.1481
11
86.9156
21
-42.1481
0
LINE
8
BLACK
6
CONTINUOUS
10
10.7156
20
-80.2481
11
10.7156
21
-94.5356
0
LINE
8
BLACK
6
CONTINUOUS
10
5.95312
20
-94.5356
11
5.95312
21
-80.2481
0
LINE
8
BLACK
6
CONTINUOUS
10
5.95312
20
-75.4856
11
5.95312
21
-61.1981
0
LINE
8
BLACK
6
CONTINUOUS
10
67.8656
20
-99.2981
11
82.1531
21
-99.2981
0
LINE
8
BLACK
6
CONTINUOUS
10
29.7656
20
-132.636
11
44.0531
21
-132.636
0
LINE
8
BLACK
6
CONTINUOUS
10
10.7156
20
-113.586
11
25.0031
21
-113.586
0
LINE
8
BLACK
6
CONTINUOUS
10
82.1531
20
-99.2981
11
82.1531
21
-113.586
0
LINE
8
BLACK
6
CONTINUOUS
10
101.203
20
-113.586
11
101.203
21
-99.2981
0
LINE
8
BLACK
6
CONTINUOUS
10
63.1031
20
-99.2981
11
63.1031
21
-113.586
0
LINE
8
BLACK
6
CONTINUOUS
10
29.7656
20
-80.2481
11
29.7656
21
-94.5356
0
LINE
8
BLACK
6
CONTINUOUS
10
29.7656
20
-99.2981
11
29.7656
21
-113.586
0
LINE
8
BLACK
6
CONTINUOUS
10
82.1531
20
-94.5356
11
67.8656
21
-94.5356
0
LINE
8
BLACK
6
CONTINUOUS
10
86.9156
20
-99.2981
11
86.9156
21
-113.586
0
LINE
8
BLACK
6
CONTINUOUS
10
101.203
20
-94.5356
11
101.203
21
-80.2481
0
LINE
8
BLACK
6
CONTINUOUS
10
29.7656
20
-113.586
11
44.0531
21
-113.586
0
LINE
8
BLACK
6
CONTINUOUS
10
94.0593
20
-118.348
11
75.0093
21
-118.348
0
LINE
8
BLACK
6
CONTINUOUS
10
63.1031
20
-113.586
11
48.8156
21
-113.586
0
LINE
8
BLACK
6
CONTINUOUS
10
10.7156
20
-118.348
11
10.7156
21
-132.636
0
LINE
8
BLACK
6
CONTINUOUS
10
44.0531
20
-113.586
11
44.0531
21
-99.2981
0
LINE
8
BLACK
6
CONTINUOUS
10
44.0531
20
-132.636
11
44.0531
21
-118.348
0
LINE
8
BLACK
6
CONTINUOUS
10
25.0031
20
-113.586
11
25.0031
21
-99.2981
0
LINE
8
BLACK
6
CONTINUOUS
10
48.8156
20
-132.636
11
48.8156
21
-118.348
0
LINE
8
BLACK
6
CONTINUOUS
10
67.8656
20
-113.586
11
67.8656
21
-99.2981
0
LINE
8
BLACK
6
CONTINUOUS
10
63.1031
20
-132.636
11
48.8156
21
-132.636
0
LINE
8
BLACK
6
CONTINUOUS
10
82.1531
20
-113.586
11
67.8656
21
-113.586
0
LINE
8
BLACK
6
CONTINUOUS
10
10.7156
20
-132.636
11
25.0031
21
-132.636
0
LINE
8
BLACK
6
CONTINUOUS
10
48.8156
20
-99.2981
11
63.1031
21
-99.2981
0
LINE
8
BLACK
6
CONTINUOUS
10
25.0031
20
-132.636
11
25.0031
21
-118.348
0
LINE
8
BLACK
6
CONTINUOUS
10
48.8156
20
-113.586
11
48.8156
21
-99.2981
0
LINE
8
BLACK
6
CONTINUOUS
10
48.8156
20
-94.5356
11
48.8156
21
-80.2481
0
LINE
8
BLACK
6
CONTINUOUS
10
63.1031
20
-80.2481
11
63.1031
21
-94.5356
0
LINE
8
BLACK
6
CONTINUOUS
10
48.8156
20
-80.2481
11
63.1031
21
-80.2481
0
LINE
8
BLACK
6
CONTINUOUS
10
25.0031
20
-99.2981
11
10.7156
21
-99.2981
0
LINE
8
BLACK
6
CONTINUOUS
10
63.1031
20
-56.4356
11
48.8156
21
-56.4356
0
LINE
8
BLACK
6
CONTINUOUS
10
101.203
20
-99.2981
11
86.9156
21
-99.2981
0
LINE
8
BLACK
6
CONTINUOUS
10
44.0531
20
-99.2981
11
29.7656
21
-99.2981
0
LINE
8
BLACK
6
CONTINUOUS
10
82.1531
20
-80.2481
11
82.1531
21
-94.5356
0
LINE
8
BLACK
6
CONTINUOUS
10
25.0031
20
-80.2481
11
10.7156
21
-80.2481
0
LINE
8
BLACK
6
CONTINUOUS
10
63.1031
20
-42.1481
11
63.1031
21
-56.4356
0
LINE
8
BLACK
6
CONTINUOUS
10
67.8656
20
-132.636
11
67.8656
21
-118.348
0
LINE
8
BLACK
6
CONTINUOUS
10
86.9156
20
-42.1481
11
86.9156
21
-56.4356
0
LINE
8
BLACK
6
CONTINUOUS
10
86.9156
20
-56.4356
11
101.203
21
-56.4356
0
LINE
8
BLACK
6
CONTINUOUS
10
67.8656
20
-132.636
11
101.203
21
-132.636
0
LINE
8
BLACK
6
CONTINUOUS
10
86.9156
20
-61.1981
11
86.9156
21
-75.4856
0
LINE
8
BLACK
6
CONTINUOUS
10
67.8656
20
-61.1981
11
82.1531
21
-61.1981
0
LINE
8
BLACK
6
CONTINUOUS
10
63.1031
20
-75.4856
11
48.8156
21
-75.4856
0
LINE
8
BLACK
6
CONTINUOUS
10
5.95312
20
-132.636
11
5.95312
21
-118.348
0
LINE
8
BLACK
6
CONTINUOUS
10
63.1031
20
-118.348
11
63.1031
21
-132.636
0
LINE
8
BLACK
6
CONTINUOUS
10
94.0593
20
-117.158
11
98.8218
21
-117.158
0
LINE
8
BLACK
6
CONTINUOUS
10
86.9156
20
-113.586
11
101.203
21
-113.586
0
LINE
8
BLACK
6
CONTINUOUS
10
10.7156
20
-99.2981
11
10.7156
21
-113.586
0
LINE
8
BLACK
6
CONTINUOUS
10
29.7656
20
-118.348
11
29.7656
21
-132.636
0
LINE
8
BLACK
6
CONTINUOUS
10
25.0031
20
-118.348
11
10.7156
21
-118.348
0
LINE
8
BLACK
6
CONTINUOUS
10
44.0531
20
-118.348
11
29.7656
21
-118.348
0
LINE
8
BLACK
6
CONTINUOUS
10
70.2468
20
-117.158
11
75.0093
21
-117.158
0
LINE
8
BLACK
6
CONTINUOUS
10
-8.33437
20
-118.348
11
-8.33437
21
-132.636
0
LINE
8
BLACK
6
CONTINUOUS
10
5.95312
20
-118.348
11
-8.33437
21
-118.348
0
LINE
8
BLACK
6
CONTINUOUS
10
-8.33437
20
-132.636
11
5.95312
21
-132.636
0
LINE
8
BLACK
6
CONTINUOUS
10
5.95312
20
-61.1981
11
-8.33437
21
-61.1981
0
LINE
8
BLACK
6
CONTINUOUS
10
-8.33437
20
-80.2481
11
-8.33437
21
-94.5356
0
LINE
8
BLACK
6
CONTINUOUS
10
5.95312
20
-80.2481
11
-8.33437
21
-80.2481
0
LINE
8
BLACK
6
CONTINUOUS
10
101.203
20
-56.4356
11
101.203
21
-42.1481
0
LINE
8
BLACK
6
CONTINUOUS
10
63.1031
20
-61.1981
11
63.1031
21
-75.4856
0
LINE
8
BLACK
6
CONTINUOUS
10
67.8656
20
-80.2481
11
82.1531
21
-80.2481
0
LINE
8
BLACK
6
CONTINUOUS
10
44.0531
20
-80.2481
11
29.7656
21
-80.2481
0
LINE
8
BLACK
6
CONTINUOUS
10
48.8156
20
-75.4856
11
48.8156
21
-61.1981
0
LINE
8
BLACK
6
CONTINUOUS
10
67.8656
20
-94.5356
11
67.8656
21
-80.2481
0
LINE
8
BLACK
6
CONTINUOUS
10
101.203
20
-80.2481
11
86.9156
21
-80.2481
0
LINE
8
BLACK
6
CONTINUOUS
10
44.0531
20
-94.5356
11
44.0531
21
-80.2481
0
LINE
8
BLACK
6
CONTINUOUS
10
86.9156
20
-94.5356
11
101.203
21
-94.5356
0
LINE
8
BLACK
6
CONTINUOUS
10
63.1031
20
-94.5356
11
48.8156
21
-94.5356
0
LINE
8
BLACK
6
CONTINUOUS
10
67.8656
20
-75.4856
11
67.8656
21
-61.1981
0
LINE
8
BLACK
6
CONTINUOUS
10
25.0031
20
-61.1981
11
10.7156
21
-61.1981
0
LINE
8
BLACK
6
CONTINUOUS
10
10.7156
20
-61.1981
11
10.7156
21
-75.4856
0
LINE
8
BLACK
6
CONTINUOUS
10
5.95312
20
-113.586
11
5.95312
21
-99.2981
0
LINE
8
BLACK
6
CONTINUOUS
10
-8.33437
20
-99.2981
11
-8.33437
21
-113.586
0
LINE
8
BLACK
6
CONTINUOUS
10
10.7156
20
-94.5356
11
25.0031
21
-94.5356
0
LINE
8
BLACK
6
CONTINUOUS
10
44.0531
20
-75.4856
11
44.0531
21
-61.1981
0
LINE
8
BLACK
6
CONTINUOUS
10
29.7656
20
-75.4856
11
44.0531
21
-75.4856
0
LINE
8
BLACK
6
CONTINUOUS
10
25.0031
20
-75.4856
11
25.0031
21
-61.1981
0
LINE
8
BLACK
6
CONTINUOUS
10
82.1531
20
-75.4856
11
67.8656
21
-75.4856
0
LINE
8
BLACK
6
CONTINUOUS
10
48.8156
20
-118.348
11
63.1031
21
-118.348
  0
ENDSEC
  0
EOF
