  0
SECTION
  2
HEADER
  9
$ANGBASE
  50
0.0
  9
$ANGDIR
  70
1
  9
$MEASUREMENT
  70
1
  0
ENDSEC
  0
SECTION
  2
TABLES
  0
TABLE
  2
LTYPE
  70
4
  0
LTYPE
  5
40F
  2
CONTINUOUS
  70
0
  3
Solid line
  72
65
  73
0
  40
0.0
  0
LTYPE
  5
410
  2
DASHDOT
 70
0
  3
Dash Dot ____ _ ____ _
 72
65
 73
4
 40
2.0
 49
1.25
 49
-0.25
 49
0.25
 49
-0.25
  0
LTYPE
  5
411
  2
DASHED
 70
0
  3
Dashed __ __ __ __ __
 72
65
 73
2
 40
0.75
 49
0.5
 49
-0.25
  0
LTYPE
  5
43B
  2
DOTTED
 70
0
  3
Dotted .  .  .  .
 72
65
 73
2
 40
0.2
 49
0.0
 49
-0.2
  0
ENDTAB
  0
TABLE
  2
STYLE
  70
4
  0
STYLE
  2
KICAD
  70
0
  40
0
  41
1
  42
1
  50
0
  71
0
  3
isocp.shx
  0
STYLE
  2
KICADB
  70
0
  40
0
  41
1
  42
1
  50
0
  71
0
  3
isocp.shx
  0
STYLE
  2
KICADI
  70
0
  40
0
  41
1
  42
1
  50
15
  71
0
  3
isocp.shx
  0
STYLE
  2
KICADBI
  70
0
  40
0
  41
1
  42
1
  50
15
  71
0
  3
isocp.shx
  0
ENDTAB
  0
TABLE
  2
LAYER
  70
1
  0
LAYER
  2
BLACK
  70
0
  62
7
  6
CONTINUOUS
  0
ENDTAB
  0
ENDSEC
  0
SECTION
  2
ENTITIES
0
LINE
8
BLACK
6
CONTINUOUS
10
214.313
20
-104.775
11
216.694
21
-104.775
0
LINE
8
BLACK
6
CONTINUOUS
10
214.313
20
-109.538
11
216.694
21
-109.538
0
LINE
8
BLACK
6
CONTINUOUS
10
210.145
20
-104.775
11
210.145
21
-109.537
0
LINE
8
BLACK
6
CONTINUOUS
10
102.394
20
-145.256
11
214.908
21
-145.256
0
LINE
8
BLACK
6
CONTINUOUS
10
102.394
20
-50.0063
11
102.394
21
-145.256
0
LINE
8
BLACK
6
CONTINUOUS
10
214.908
20
-50.0063
11
102.394
21
-50.0063
0
LINE
8
BLACK
6
CONTINUOUS
10
104.775
20
-142.875
11
104.775
21
-128.588
0
LINE
8
BLACK
6
CONTINUOUS
10
138.112
20
-142.875
11
138.112
21
-128.588
0
LINE
8
BLACK
6
CONTINUOUS
10
135.731
20
-128.588
11
135.731
21
-127.397
0
LINE
8
BLACK
6
CONTINUOUS
10
107.156
20
-127.397
11
107.156
21
-128.588
0
LINE
8
BLACK
6
CONTINUOUS
10
130.969
20
-127.397
11
130.969
21
-128.588
0
LINE
8
BLACK
6
CONTINUOUS
10
135.731
20
-128.588
11
138.113
21
-128.588
0
LINE
8
BLACK
6
CONTINUOUS
10
111.919
20
-127.397
11
107.156
21
-127.397
0
LINE
8
BLACK
6
CONTINUOUS
10
104.775
20
-128.588
11
107.156
21
-128.588
0
LINE
8
BLACK
6
CONTINUOUS
10
138.112
20
-142.875
11
104.775
21
-142.875
0
LINE
8
BLACK
6
CONTINUOUS
10
142.875
20
-128.588
11
142.875
21
-142.875
0
LINE
8
BLACK
6
CONTINUOUS
10
176.213
20
-142.875
11
161.925
21
-142.875
0
LINE
8
BLACK
6
CONTINUOUS
10
111.919
20
-128.588
11
111.919
21
-127.397
0
LINE
8
BLACK
6
CONTINUOUS
10
135.731
20
-127.397
11
130.969
21
-127.397
0
LINE
8
BLACK
6
CONTINUOUS
10
180.975
20
-128.588
11
195.262
21
-128.588
0
LINE
8
BLACK
6
CONTINUOUS
10
176.213
20
-128.588
11
176.213
21
-142.875
0
LINE
8
BLACK
6
CONTINUOUS
10
157.162
20
-128.588
11
142.875
21
-128.588
0
LINE
8
BLACK
6
CONTINUOUS
10
161.925
20
-128.588
11
176.213
21
-128.588
0
LINE
8
BLACK
6
CONTINUOUS
10
200.025
20
-142.875
11
200.025
21
-128.588
0
LINE
8
BLACK
6
CONTINUOUS
10
180.975
20
-142.875
11
180.975
21
-128.588
0
LINE
8
BLACK
6
CONTINUOUS
10
195.262
20
-142.875
11
180.975
21
-142.875
0
LINE
8
BLACK
6
CONTINUOUS
10
142.875
20
-142.875
11
157.162
21
-142.875
0
LINE
8
BLACK
6
CONTINUOUS
10
157.162
20
-142.875
11
157.162
21
-128.588
0
LINE
8
BLACK
6
CONTINUOUS
10
161.925
20
-142.875
11
161.925
21
-128.588
0
LINE
8
BLACK
6
CONTINUOUS
10
195.262
20
-128.588
11
195.262
21
-142.875
0
LINE
8
BLACK
6
CONTINUOUS
10
111.919
20
-128.588
11
130.969
21
-128.588
0
LINE
8
BLACK
6
CONTINUOUS
10
104.775
20
-104.775
11
104.775
21
-90.4875
0
LINE
8
BLACK
6
CONTINUOUS
10
123.825
20
-104.775
11
138.112
21
-104.775
0
LINE
8
BLACK
6
CONTINUOUS
10
176.213
20
-90.4875
11
176.213
21
-104.775
0
LINE
8
BLACK
6
CONTINUOUS
10
104.775
20
-123.825
11
104.775
21
-109.537
0
LINE
8
BLACK
6
CONTINUOUS
10
195.262
20
-109.537
11
195.262
21
-123.825
0
LINE
8
BLACK
6
CONTINUOUS
10
119.062
20
-123.825
11
104.775
21
-123.825
0
LINE
8
BLACK
6
CONTINUOUS
10
104.775
20
-109.537
11
119.062
21
-109.537
0
LINE
8
BLACK
6
CONTINUOUS
10
157.162
20
-123.825
11
157.162
21
-109.537
0
LINE
8
BLACK
6
CONTINUOUS
10
157.162
20
-109.537
11
142.875
21
-109.537
0
LINE
8
BLACK
6
CONTINUOUS
10
123.825
20
-123.825
11
138.112
21
-123.825
0
LINE
8
BLACK
6
CONTINUOUS
10
138.112
20
-123.825
11
138.112
21
-109.537
0
LINE
8
BLACK
6
CONTINUOUS
10
180.975
20
-123.825
11
180.975
21
-109.537
0
LINE
8
BLACK
6
CONTINUOUS
10
161.925
20
-123.825
11
161.925
21
-109.537
0
LINE
8
BLACK
6
CONTINUOUS
10
142.875
20
-123.825
11
157.162
21
-123.825
0
LINE
8
BLACK
6
CONTINUOUS
10
176.213
20
-123.825
11
161.925
21
-123.825
0
LINE
8
BLACK
6
CONTINUOUS
10
119.062
20
-109.537
11
119.062
21
-123.825
0
LINE
8
BLACK
6
CONTINUOUS
10
176.213
20
-109.537
11
176.213
21
-123.825
0
LINE
8
BLACK
6
CONTINUOUS
10
142.875
20
-109.537
11
142.875
21
-123.825
0
LINE
8
BLACK
6
CONTINUOUS
10
123.825
20
-109.537
11
123.825
21
-123.825
0
LINE
8
BLACK
6
CONTINUOUS
10
161.925
20
-109.537
11
176.213
21
-109.537
0
LINE
8
BLACK
6
CONTINUOUS
10
180.975
20
-109.537
11
195.262
21
-109.537
0
LINE
8
BLACK
6
CONTINUOUS
10
195.262
20
-123.825
11
180.975
21
-123.825
0
LINE
8
BLACK
6
CONTINUOUS
10
138.112
20
-109.537
11
123.825
21
-109.537
0
LINE
8
BLACK
6
CONTINUOUS
10
200.025
20
-123.825
11
200.025
21
-109.537
0
LINE
8
BLACK
6
CONTINUOUS
10
119.062
20
-104.775
11
104.775
21
-104.775
0
LINE
8
BLACK
6
CONTINUOUS
10
161.925
20
-104.775
11
161.925
21
-90.4875
0
LINE
8
BLACK
6
CONTINUOUS
10
104.775
20
-90.4875
11
119.062
21
-90.4875
0
LINE
8
BLACK
6
CONTINUOUS
10
180.975
20
-90.4875
11
195.262
21
-90.4875
0
LINE
8
BLACK
6
CONTINUOUS
10
123.825
20
-90.4875
11
123.825
21
-104.775
0
LINE
8
BLACK
6
CONTINUOUS
10
157.162
20
-90.4875
11
142.875
21
-90.4875
0
LINE
8
BLACK
6
CONTINUOUS
10
142.875
20
-90.4875
11
142.875
21
-104.775
0
LINE
8
BLACK
6
CONTINUOUS
10
157.162
20
-104.775
11
157.162
21
-90.4875
0
LINE
8
BLACK
6
CONTINUOUS
10
138.112
20
-104.775
11
138.112
21
-90.4875
0
LINE
8
BLACK
6
CONTINUOUS
10
142.875
20
-104.775
11
157.162
21
-104.775
0
LINE
8
BLACK
6
CONTINUOUS
10
200.025
20
-104.775
11
200.025
21
-90.4875
0
LINE
8
BLACK
6
CONTINUOUS
10
195.262
20
-90.4875
11
195.262
21
-104.775
0
LINE
8
BLACK
6
CONTINUOUS
10
119.062
20
-85.725
11
104.775
21
-85.725
0
LINE
8
BLACK
6
CONTINUOUS
10
104.775
20
-71.4375
11
119.062
21
-71.4375
0
LINE
8
BLACK
6
CONTINUOUS
10
161.925
20
-85.725
11
161.925
21
-71.4375
0
LINE
8
BLACK
6
CONTINUOUS
10
195.262
20
-71.4375
11
195.262
21
-85.725
0
LINE
8
BLACK
6
CONTINUOUS
10
200.025
20
-85.725
11
200.025
21
-71.4375
0
LINE
8
BLACK
6
CONTINUOUS
10
123.825
20
-71.4375
11
123.825
21
-85.725
0
LINE
8
BLACK
6
CONTINUOUS
10
200.025
20
-66.675
11
200.025
21
-52.3875
0
LINE
8
BLACK
6
CONTINUOUS
10
180.975
20
-66.675
11
180.975
21
-52.3875
0
LINE
8
BLACK
6
CONTINUOUS
10
195.262
20
-66.675
11
180.975
21
-66.675
0
LINE
8
BLACK
6
CONTINUOUS
10
195.262
20
-52.3875
11
195.262
21
-66.675
0
LINE
8
BLACK
6
CONTINUOUS
10
180.975
20
-52.3875
11
195.262
21
-52.3875
0
LINE
8
BLACK
6
CONTINUOUS
10
161.925
20
-66.675
11
161.925
21
-52.3875
0
LINE
8
BLACK
6
CONTINUOUS
10
176.213
20
-66.675
11
161.925
21
-66.675
0
LINE
8
BLACK
6
CONTINUOUS
10
176.213
20
-52.3875
11
176.213
21
-66.675
0
LINE
8
BLACK
6
CONTINUOUS
10
161.925
20
-52.3875
11
176.213
21
-52.3875
0
LINE
8
BLACK
6
CONTINUOUS
10
157.162
20
-52.3875
11
142.875
21
-52.3875
0
LINE
8
BLACK
6
CONTINUOUS
10
157.162
20
-66.675
11
157.162
21
-52.3875
0
LINE
8
BLACK
6
CONTINUOUS
10
142.875
20
-66.675
11
157.162
21
-66.675
0
LINE
8
BLACK
6
CONTINUOUS
10
142.875
20
-52.3875
11
142.875
21
-66.675
0
LINE
8
BLACK
6
CONTINUOUS
10
138.112
20
-52.3875
11
123.825
21
-52.3875
0
LINE
8
BLACK
6
CONTINUOUS
10
138.112
20
-66.675
11
138.112
21
-52.3875
0
LINE
8
BLACK
6
CONTINUOUS
10
123.825
20
-66.675
11
138.112
21
-66.675
0
LINE
8
BLACK
6
CONTINUOUS
10
123.825
20
-52.3875
11
123.825
21
-66.675
0
LINE
8
BLACK
6
CONTINUOUS
10
104.775
20
-66.675
11
104.775
21
-52.3875
0
LINE
8
BLACK
6
CONTINUOUS
10
119.062
20
-66.675
11
104.775
21
-66.675
0
LINE
8
BLACK
6
CONTINUOUS
10
119.062
20
-52.3875
11
119.062
21
-66.675
0
LINE
8
BLACK
6
CONTINUOUS
10
104.775
20
-52.3875
11
119.062
21
-52.3875
0
LINE
8
BLACK
6
CONTINUOUS
10
180.975
20
-104.775
11
180.975
21
-90.4875
0
LINE
8
BLACK
6
CONTINUOUS
10
176.213
20
-104.775
11
161.925
21
-104.775
0
LINE
8
BLACK
6
CONTINUOUS
10
195.262
20
-104.775
11
180.975
21
-104.775
0
LINE
8
BLACK
6
CONTINUOUS
10
161.925
20
-90.4875
11
176.213
21
-90.4875
0
LINE
8
BLACK
6
CONTINUOUS
10
138.112
20
-90.4875
11
123.825
21
-90.4875
0
LINE
8
BLACK
6
CONTINUOUS
10
119.062
20
-90.4875
11
119.062
21
-104.775
0
LINE
8
BLACK
6
CONTINUOUS
10
123.825
20
-85.725
11
138.112
21
-85.725
0
LINE
8
BLACK
6
CONTINUOUS
10
157.162
20
-85.725
11
157.162
21
-71.4375
0
LINE
8
BLACK
6
CONTINUOUS
10
142.875
20
-71.4375
11
142.875
21
-85.725
0
LINE
8
BLACK
6
CONTINUOUS
10
142.875
20
-85.725
11
157.162
21
-85.725
0
LINE
8
BLACK
6
CONTINUOUS
10
104.775
20
-85.725
11
104.775
21
-71.4375
0
LINE
8
BLACK
6
CONTINUOUS
10
176.213
20
-71.4375
11
176.213
21
-85.725
0
LINE
8
BLACK
6
CONTINUOUS
10
157.162
20
-71.4375
11
142.875
21
-71.4375
0
LINE
8
BLACK
6
CONTINUOUS
10
180.975
20
-71.4375
11
195.262
21
-71.4375
0
LINE
8
BLACK
6
CONTINUOUS
10
138.112
20
-85.725
11
138.112
21
-71.4375
0
LINE
8
BLACK
6
CONTINUOUS
10
138.112
20
-71.4375
11
123.825
21
-71.4375
0
LINE
8
BLACK
6
CONTINUOUS
10
119.062
20
-71.4375
11
119.062
21
-85.725
0
LINE
8
BLACK
6
CONTINUOUS
10
195.262
20
-85.725
11
180.975
21
-85.725
0
LINE
8
BLACK
6
CONTINUOUS
10
161.925
20
-71.4375
11
176.213
21
-71.4375
0
LINE
8
BLACK
6
CONTINUOUS
10
180.975
20
-85.725
11
180.975
21
-71.4375
0
LINE
8
BLACK
6
CONTINUOUS
10
176.213
20
-85.725
11
161.925
21
-85.725
0
LINE
8
BLACK
6
CONTINUOUS
10
200.025
20
-90.4875
11
214.312
21
-90.4875
0
LINE
8
BLACK
6
CONTINUOUS
10
214.312
20
-90.4875
11
214.312
21
-104.775
0
LINE
8
BLACK
6
CONTINUOUS
10
210.145
20
-104.775
11
200.025
21
-104.775
0
LINE
8
BLACK
6
CONTINUOUS
10
214.312
20
-71.4375
11
214.312
21
-85.725
0
LINE
8
BLACK
6
CONTINUOUS
10
214.312
20
-85.725
11
200.025
21
-85.725
0
LINE
8
BLACK
6
CONTINUOUS
10
214.312
20
-66.675
11
200.025
21
-66.675
0
LINE
8
BLACK
6
CONTINUOUS
10
214.312
20
-52.3875
11
214.312
21
-66.675
0
LINE
8
BLACK
6
CONTINUOUS
10
200.025
20
-52.3875
11
214.312
21
-52.3875
0
LINE
8
BLACK
6
CONTINUOUS
10
200.025
20
-71.4375
11
214.312
21
-71.4375
0
LINE
8
BLACK
6
CONTINUOUS
10
214.312
20
-142.875
11
200.025
21
-142.875
0
LINE
8
BLACK
6
CONTINUOUS
10
200.025
20
-128.588
11
214.312
21
-128.588
0
LINE
8
BLACK
6
CONTINUOUS
10
214.312
20
-128.588
11
214.312
21
-142.875
0
LINE
8
BLACK
6
CONTINUOUS
10
200.025
20
-109.537
11
210.145
21
-109.537
0
LINE
8
BLACK
6
CONTINUOUS
10
214.312
20
-123.825
11
200.025
21
-123.825
0
LINE
8
BLACK
6
CONTINUOUS
10
214.312
20
-109.537
11
214.312
21
-123.825
0
LINE
8
BLACK
6
CONTINUOUS
10
216.694
20
-109.538
11
216.694
21
-143.47
0
LINE
8
BLACK
6
CONTINUOUS
10
216.694
20
-51.7922
11
216.694
21
-104.775
0
ARC
8
BLACK
10
214.908
20
-143.47
40
1.78594
50
-90
51
-0
0
ARC
8
BLACK
10
214.908
20
-51.7922
40
1.78594
50
-0
51
90
  0
ENDSEC
  0
EOF
