  0
SECTION
  2
HEADER
  9
$ANGBASE
  50
0.0
  9
$ANGDIR
  70
1
  9
$MEASUREMENT
  70
1
  0
ENDSEC
  0
SECTION
  2
TABLES
  0
TABLE
  2
LTYPE
  70
4
  0
LTYPE
  5
40F
  2
CONTINUOUS
  70
0
  3
Solid line
  72
65
  73
0
  40
0.0
  0
LTYPE
  5
410
  2
DASHDOT
 70
0
  3
Dash Dot ____ _ ____ _
 72
65
 73
4
 40
2.0
 49
1.25
 49
-0.25
 49
0.25
 49
-0.25
  0
LTYPE
  5
411
  2
DASHED
 70
0
  3
Dashed __ __ __ __ __
 72
65
 73
2
 40
0.75
 49
0.5
 49
-0.25
  0
LTYPE
  5
43B
  2
DOTTED
 70
0
  3
Dotted .  .  .  .
 72
65
 73
2
 40
0.2
 49
0.0
 49
-0.2
  0
ENDTAB
  0
TABLE
  2
STYLE
  70
4
  0
STYLE
  2
KICAD
  70
0
  40
0
  41
1
  42
1
  50
0
  71
0
  3
isocp.shx
  0
STYLE
  2
KICADB
  70
0
  40
0
  41
1
  42
1
  50
0
  71
0
  3
isocp.shx
  0
STYLE
  2
KICADI
  70
0
  40
0
  41
1
  42
1
  50
15
  71
0
  3
isocp.shx
  0
STYLE
  2
KICADBI
  70
0
  40
0
  41
1
  42
1
  50
15
  71
0
  3
isocp.shx
  0
ENDTAB
  0
TABLE
  2
LAYER
  70
1
  0
LAYER
  2
BLACK
  70
0
  62
7
  6
CONTINUOUS
  0
ENDTAB
  0
ENDSEC
  0
SECTION
  2
ENTITIES
0
LINE
8
BLACK
6
CONTINUOUS
10
163.116
20
-118.348
11
165.497
21
-118.348
0
LINE
8
BLACK
6
CONTINUOUS
10
170.259
20
-118.348
11
189.309
21
-118.348
0
LINE
8
BLACK
6
CONTINUOUS
10
196.453
20
-42.1481
11
182.166
21
-42.1481
0
LINE
8
BLACK
6
CONTINUOUS
10
215.503
20
-42.1481
11
201.216
21
-42.1481
0
LINE
8
BLACK
6
CONTINUOUS
10
220.266
20
-56.4356
11
220.266
21
-42.1481
0
LINE
8
BLACK
6
CONTINUOUS
10
239.316
20
-56.4356
11
239.316
21
-42.1481
0
LINE
8
BLACK
6
CONTINUOUS
10
258.366
20
-56.4356
11
258.366
21
-42.1481
0
LINE
8
BLACK
6
CONTINUOUS
10
182.166
20
-61.1981
11
182.166
21
-75.4856
0
LINE
8
BLACK
6
CONTINUOUS
10
258.366
20
-75.4856
11
258.366
21
-61.1981
0
LINE
8
BLACK
6
CONTINUOUS
10
253.603
20
-61.1981
11
253.603
21
-75.4856
0
LINE
8
BLACK
6
CONTINUOUS
10
272.653
20
-75.4856
11
258.366
21
-75.4856
0
LINE
8
BLACK
6
CONTINUOUS
10
272.653
20
-61.1981
11
272.653
21
-75.4856
0
LINE
8
BLACK
6
CONTINUOUS
10
220.266
20
-75.4856
11
220.266
21
-61.1981
0
LINE
8
BLACK
6
CONTINUOUS
10
163.116
20
-61.1981
11
177.403
21
-61.1981
0
LINE
8
BLACK
6
CONTINUOUS
10
177.403
20
-75.4856
11
163.116
21
-75.4856
0
LINE
8
BLACK
6
CONTINUOUS
10
234.553
20
-75.4856
11
220.266
21
-75.4856
0
LINE
8
BLACK
6
CONTINUOUS
10
239.316
20
-75.4856
11
239.316
21
-61.1981
0
LINE
8
BLACK
6
CONTINUOUS
10
220.266
20
-61.1981
11
234.553
21
-61.1981
0
LINE
8
BLACK
6
CONTINUOUS
10
253.603
20
-75.4856
11
239.316
21
-75.4856
0
LINE
8
BLACK
6
CONTINUOUS
10
177.403
20
-61.1981
11
177.403
21
-75.4856
0
LINE
8
BLACK
6
CONTINUOUS
10
196.453
20
-61.1981
11
182.166
21
-61.1981
0
LINE
8
BLACK
6
CONTINUOUS
10
196.453
20
-75.4856
11
196.453
21
-61.1981
0
LINE
8
BLACK
6
CONTINUOUS
10
239.316
20
-61.1981
11
253.603
21
-61.1981
0
LINE
8
BLACK
6
CONTINUOUS
10
215.503
20
-61.1981
11
201.216
21
-61.1981
0
LINE
8
BLACK
6
CONTINUOUS
10
258.366
20
-61.1981
11
272.653
21
-61.1981
0
LINE
8
BLACK
6
CONTINUOUS
10
234.553
20
-61.1981
11
234.553
21
-75.4856
0
LINE
8
BLACK
6
CONTINUOUS
10
163.116
20
-75.4856
11
163.116
21
-61.1981
0
LINE
8
BLACK
6
CONTINUOUS
10
201.216
20
-75.4856
11
215.503
21
-75.4856
0
LINE
8
BLACK
6
CONTINUOUS
10
201.216
20
-61.1981
11
201.216
21
-75.4856
0
LINE
8
BLACK
6
CONTINUOUS
10
215.503
20
-75.4856
11
215.503
21
-61.1981
0
LINE
8
BLACK
6
CONTINUOUS
10
182.166
20
-75.4856
11
196.453
21
-75.4856
0
LINE
8
BLACK
6
CONTINUOUS
10
177.403
20
-80.2481
11
177.403
21
-94.5356
0
LINE
8
BLACK
6
CONTINUOUS
10
196.453
20
-80.2481
11
182.166
21
-80.2481
0
LINE
8
BLACK
6
CONTINUOUS
10
220.266
20
-80.2481
11
234.553
21
-80.2481
0
LINE
8
BLACK
6
CONTINUOUS
10
253.603
20
-94.5356
11
239.316
21
-94.5356
0
LINE
8
BLACK
6
CONTINUOUS
10
234.553
20
-94.5356
11
220.266
21
-94.5356
0
LINE
8
BLACK
6
CONTINUOUS
10
239.316
20
-94.5356
11
239.316
21
-80.2481
0
LINE
8
BLACK
6
CONTINUOUS
10
234.553
20
-80.2481
11
234.553
21
-94.5356
0
LINE
8
BLACK
6
CONTINUOUS
10
258.366
20
-80.2481
11
272.653
21
-80.2481
0
LINE
8
BLACK
6
CONTINUOUS
10
182.166
20
-94.5356
11
196.453
21
-94.5356
0
LINE
8
BLACK
6
CONTINUOUS
10
163.116
20
-94.5356
11
163.116
21
-80.2481
0
LINE
8
BLACK
6
CONTINUOUS
10
253.603
20
-80.2481
11
253.603
21
-94.5356
0
LINE
8
BLACK
6
CONTINUOUS
10
258.366
20
-94.5356
11
258.366
21
-80.2481
0
LINE
8
BLACK
6
CONTINUOUS
10
201.216
20
-94.5356
11
215.503
21
-94.5356
0
LINE
8
BLACK
6
CONTINUOUS
10
196.453
20
-94.5356
11
196.453
21
-80.2481
0
LINE
8
BLACK
6
CONTINUOUS
10
272.653
20
-94.5356
11
258.366
21
-94.5357
0
LINE
8
BLACK
6
CONTINUOUS
10
215.503
20
-94.5356
11
215.503
21
-80.2481
0
LINE
8
BLACK
6
CONTINUOUS
10
201.216
20
-80.2481
11
201.216
21
-94.5356
0
LINE
8
BLACK
6
CONTINUOUS
10
215.503
20
-80.2481
11
201.216
21
-80.2481
0
LINE
8
BLACK
6
CONTINUOUS
10
182.166
20
-80.2481
11
182.166
21
-94.5356
0
LINE
8
BLACK
6
CONTINUOUS
10
239.316
20
-80.2481
11
253.603
21
-80.2481
0
LINE
8
BLACK
6
CONTINUOUS
10
272.653
20
-80.2481
11
272.653
21
-94.5356
0
LINE
8
BLACK
6
CONTINUOUS
10
163.116
20
-80.2481
11
177.403
21
-80.2481
0
LINE
8
BLACK
6
CONTINUOUS
10
220.266
20
-94.5356
11
220.266
21
-80.2481
0
LINE
8
BLACK
6
CONTINUOUS
10
177.403
20
-94.5356
11
163.116
21
-94.5356
0
LINE
8
BLACK
6
CONTINUOUS
10
258.366
20
-113.586
11
258.366
21
-99.2981
0
LINE
8
BLACK
6
CONTINUOUS
10
196.453
20
-99.2981
11
182.166
21
-99.2981
0
LINE
8
BLACK
6
CONTINUOUS
10
253.603
20
-113.586
11
239.316
21
-113.586
0
LINE
8
BLACK
6
CONTINUOUS
10
239.316
20
-99.2981
11
253.603
21
-99.2981
0
LINE
8
BLACK
6
CONTINUOUS
10
220.266
20
-99.2981
11
234.553
21
-99.2981
0
LINE
8
BLACK
6
CONTINUOUS
10
182.166
20
-99.2981
11
182.166
21
-113.586
0
LINE
8
BLACK
6
CONTINUOUS
10
201.216
20
-99.2981
11
201.216
21
-113.586
0
LINE
8
BLACK
6
CONTINUOUS
10
234.553
20
-99.2981
11
234.553
21
-113.586
0
LINE
8
BLACK
6
CONTINUOUS
10
177.403
20
-99.2981
11
177.403
21
-113.586
0
LINE
8
BLACK
6
CONTINUOUS
10
234.553
20
-113.586
11
220.266
21
-113.586
0
LINE
8
BLACK
6
CONTINUOUS
10
201.216
20
-113.586
11
215.503
21
-113.586
0
LINE
8
BLACK
6
CONTINUOUS
10
220.266
20
-113.586
11
220.266
21
-99.2981
0
LINE
8
BLACK
6
CONTINUOUS
10
239.316
20
-113.586
11
239.316
21
-99.2981
0
LINE
8
BLACK
6
CONTINUOUS
10
272.653
20
-99.2981
11
272.653
21
-113.586
0
LINE
8
BLACK
6
CONTINUOUS
10
196.453
20
-113.586
11
196.453
21
-99.2981
0
LINE
8
BLACK
6
CONTINUOUS
10
272.653
20
-113.586
11
258.366
21
-113.586
0
LINE
8
BLACK
6
CONTINUOUS
10
182.166
20
-113.586
11
196.453
21
-113.586
0
LINE
8
BLACK
6
CONTINUOUS
10
215.503
20
-99.2981
11
201.216
21
-99.2981
0
LINE
8
BLACK
6
CONTINUOUS
10
215.503
20
-113.586
11
215.503
21
-99.2981
0
LINE
8
BLACK
6
CONTINUOUS
10
163.116
20
-99.2981
11
177.403
21
-99.2981
0
LINE
8
BLACK
6
CONTINUOUS
10
177.403
20
-113.586
11
163.116
21
-113.586
0
LINE
8
BLACK
6
CONTINUOUS
10
253.603
20
-99.2981
11
253.603
21
-113.586
0
LINE
8
BLACK
6
CONTINUOUS
10
163.116
20
-113.586
11
163.116
21
-99.2981
0
LINE
8
BLACK
6
CONTINUOUS
10
258.366
20
-99.2981
11
272.653
21
-99.2981
0
LINE
8
BLACK
6
CONTINUOUS
10
201.216
20
-132.636
11
215.503
21
-132.636
0
LINE
8
BLACK
6
CONTINUOUS
10
234.553
20
-118.348
11
234.553
21
-132.636
0
LINE
8
BLACK
6
CONTINUOUS
10
234.553
20
-132.636
11
220.266
21
-132.636
0
LINE
8
BLACK
6
CONTINUOUS
10
215.503
20
-118.348
11
201.216
21
-118.348
0
LINE
8
BLACK
6
CONTINUOUS
10
253.603
20
-132.636
11
239.316
21
-132.636
0
LINE
8
BLACK
6
CONTINUOUS
10
272.653
20
-132.636
11
258.366
21
-132.636
0
LINE
8
BLACK
6
CONTINUOUS
10
220.266
20
-132.636
11
220.266
21
-118.348
0
LINE
8
BLACK
6
CONTINUOUS
10
239.316
20
-132.636
11
239.316
21
-118.348
0
LINE
8
BLACK
6
CONTINUOUS
10
272.653
20
-118.348
11
272.653
21
-132.636
0
LINE
8
BLACK
6
CONTINUOUS
10
196.453
20
-132.636
11
196.453
21
-118.348
0
LINE
8
BLACK
6
CONTINUOUS
10
253.603
20
-118.348
11
253.603
21
-132.636
0
LINE
8
BLACK
6
CONTINUOUS
10
258.366
20
-132.636
11
258.366
21
-118.348
0
LINE
8
BLACK
6
CONTINUOUS
10
163.116
20
-132.636
11
163.116
21
-118.348
0
LINE
8
BLACK
6
CONTINUOUS
10
215.503
20
-132.636
11
215.503
21
-118.348
0
LINE
8
BLACK
6
CONTINUOUS
10
239.316
20
-118.348
11
253.603
21
-118.348
0
LINE
8
BLACK
6
CONTINUOUS
10
220.266
20
-118.348
11
234.553
21
-118.348
0
LINE
8
BLACK
6
CONTINUOUS
10
201.216
20
-118.348
11
201.216
21
-132.636
0
LINE
8
BLACK
6
CONTINUOUS
10
258.366
20
-118.348
11
272.653
21
-118.348
0
LINE
8
BLACK
6
CONTINUOUS
10
196.453
20
-132.636
11
163.116
21
-132.636
0
LINE
8
BLACK
6
CONTINUOUS
10
5.95312
20
-42.1481
11
-8.33437
21
-42.1481
0
LINE
8
BLACK
6
CONTINUOUS
10
-8.33437
20
-42.1481
11
-8.33437
21
-56.4356
0
LINE
8
BLACK
6
CONTINUOUS
10
44.0531
20
-61.1981
11
29.7656
21
-61.1981
0
LINE
8
BLACK
6
CONTINUOUS
10
10.7156
20
-75.4856
11
25.0031
21
-75.4856
0
LINE
8
BLACK
6
CONTINUOUS
10
82.1531
20
-42.1481
11
82.1531
21
-56.4356
0
LINE
8
BLACK
6
CONTINUOUS
10
82.1531
20
-56.4356
11
67.8656
21
-56.4356
0
LINE
8
BLACK
6
CONTINUOUS
10
-8.33437
20
-113.586
11
5.95312
21
-113.586
0
LINE
8
BLACK
6
CONTINUOUS
10
5.95312
20
-99.2981
11
-8.33437
21
-99.2981
0
LINE
8
BLACK
6
CONTINUOUS
10
48.8156
20
-56.4356
11
48.8156
21
-42.1481
0
LINE
8
BLACK
6
CONTINUOUS
10
48.8156
20
-42.1481
11
63.1031
21
-42.1481
0
LINE
8
BLACK
6
CONTINUOUS
10
44.0531
20
-42.1481
11
29.7656
21
-42.1481
0
LINE
8
BLACK
6
CONTINUOUS
10
29.7656
20
-42.1481
11
29.7656
21
-56.4356
0
LINE
8
BLACK
6
CONTINUOUS
10
29.7656
20
-56.4356
11
44.0531
21
-56.4356
0
LINE
8
BLACK
6
CONTINUOUS
10
44.0531
20
-56.4356
11
44.0531
21
-42.1481
0
LINE
8
BLACK
6
CONTINUOUS
10
25.0031
20
-42.1481
11
10.7156
21
-42.1481
0
LINE
8
BLACK
6
CONTINUOUS
10
10.7156
20
-42.1481
11
10.7156
21
-56.4356
0
LINE
8
BLACK
6
CONTINUOUS
10
67.8656
20
-56.4356
11
67.8656
21
-42.1481
0
LINE
8
BLACK
6
CONTINUOUS
10
67.8656
20
-42.1481
11
82.1531
21
-42.1481
0
LINE
8
BLACK
6
CONTINUOUS
10
-8.33437
20
-56.4356
11
5.95312
21
-56.4356
0
LINE
8
BLACK
6
CONTINUOUS
10
-8.33437
20
-75.4856
11
5.95312
21
-75.4856
0
LINE
8
BLACK
6
CONTINUOUS
10
10.7156
20
-56.4356
11
25.0031
21
-56.4356
0
LINE
8
BLACK
6
CONTINUOUS
10
25.0031
20
-56.4356
11
25.0031
21
-42.1481
0
LINE
8
BLACK
6
CONTINUOUS
10
5.95312
20
-56.4356
11
5.95312
21
-42.1481
0
LINE
8
BLACK
6
CONTINUOUS
10
70.2468
20
-118.348
11
67.8656
21
-118.348
0
LINE
8
BLACK
6
CONTINUOUS
10
75.0093
20
-117.158
11
75.0093
21
-118.348
0
LINE
8
BLACK
6
CONTINUOUS
10
98.8218
20
-117.158
11
98.8218
21
-118.348
0
LINE
8
BLACK
6
CONTINUOUS
10
70.2468
20
-118.348
11
70.2468
21
-117.158
0
LINE
8
BLACK
6
CONTINUOUS
10
101.203
20
-118.348
11
98.8218
21
-118.348
0
LINE
8
BLACK
6
CONTINUOUS
10
94.0593
20
-118.348
11
94.0593
21
-117.158
0
LINE
8
BLACK
6
CONTINUOUS
10
101.203
20
-61.1981
11
86.9156
21
-61.1981
0
LINE
8
BLACK
6
CONTINUOUS
10
82.1531
20
-61.1981
11
82.1531
21
-75.4856
0
LINE
8
BLACK
6
CONTINUOUS
10
86.9156
20
-75.4856
11
101.203
21
-75.4856
0
LINE
8
BLACK
6
CONTINUOUS
10
48.8156
20
-61.1981
11
63.1031
21
-61.1981
0
LINE
8
BLACK
6
CONTINUOUS
10
86.9156
20
-80.2481
11
86.9156
21
-94.5356
0
LINE
8
BLACK
6
CONTINUOUS
10
29.7656
20
-61.1981
11
29.7656
21
-75.4856
0
LINE
8
BLACK
6
CONTINUOUS
10
101.203
20
-75.4856
11
101.203
21
-61.1981
0
LINE
8
BLACK
6
CONTINUOUS
10
-8.33437
20
-61.1981
11
-8.33437
21
-75.4856
0
LINE
8
BLACK
6
CONTINUOUS
10
-8.33437
20
-94.5356
11
5.95312
21
-94.5357
0
LINE
8
BLACK
6
CONTINUOUS
10
29.7656
20
-94.5356
11
44.0531
21
-94.5356
0
LINE
8
BLACK
6
CONTINUOUS
10
25.0031
20
-94.5356
11
25.0031
21
-80.2481
0
LINE
8
BLACK
6
CONTINUOUS
10
101.203
20
-42.1481
11
86.9156
21
-42.1481
0
LINE
8
BLACK
6
CONTINUOUS
10
10.7156
20
-80.2481
11
10.7156
21
-94.5356
0
LINE
8
BLACK
6
CONTINUOUS
10
5.95312
20
-94.5357
11
5.95312
21
-80.2481
0
LINE
8
BLACK
6
CONTINUOUS
10
5.95312
20
-75.4856
11
5.95312
21
-61.1981
0
LINE
8
BLACK
6
CONTINUOUS
10
67.8656
20
-99.2981
11
82.1531
21
-99.2981
0
LINE
8
BLACK
6
CONTINUOUS
10
29.7656
20
-132.636
11
44.0531
21
-132.636
0
LINE
8
BLACK
6
CONTINUOUS
10
10.7156
20
-113.586
11
25.0031
21
-113.586
0
LINE
8
BLACK
6
CONTINUOUS
10
82.1531
20
-99.2981
11
82.1531
21
-113.586
0
LINE
8
BLACK
6
CONTINUOUS
10
101.203
20
-113.586
11
101.203
21
-99.2981
0
LINE
8
BLACK
6
CONTINUOUS
10
63.1031
20
-99.2981
11
63.1031
21
-113.586
0
LINE
8
BLACK
6
CONTINUOUS
10
29.7656
20
-80.2481
11
29.7656
21
-94.5356
0
LINE
8
BLACK
6
CONTINUOUS
10
29.7656
20
-99.2981
11
29.7656
21
-113.586
0
LINE
8
BLACK
6
CONTINUOUS
10
82.1531
20
-94.5356
11
67.8656
21
-94.5356
0
LINE
8
BLACK
6
CONTINUOUS
10
86.9156
20
-99.2981
11
86.9156
21
-113.586
0
LINE
8
BLACK
6
CONTINUOUS
10
101.203
20
-94.5356
11
101.203
21
-80.2481
0
LINE
8
BLACK
6
CONTINUOUS
10
29.7656
20
-113.586
11
44.0531
21
-113.586
0
LINE
8
BLACK
6
CONTINUOUS
10
94.0593
20
-118.348
11
75.0093
21
-118.348
0
LINE
8
BLACK
6
CONTINUOUS
10
63.1031
20
-113.586
11
48.8156
21
-113.586
0
LINE
8
BLACK
6
CONTINUOUS
10
10.7156
20
-118.348
11
10.7156
21
-132.636
0
LINE
8
BLACK
6
CONTINUOUS
10
44.0531
20
-113.586
11
44.0531
21
-99.2981
0
LINE
8
BLACK
6
CONTINUOUS
10
44.0531
20
-132.636
11
44.0531
21
-118.348
0
LINE
8
BLACK
6
CONTINUOUS
10
25.0031
20
-113.586
11
25.0031
21
-99.2981
0
LINE
8
BLACK
6
CONTINUOUS
10
48.8156
20
-132.636
11
48.8156
21
-118.348
0
LINE
8
BLACK
6
CONTINUOUS
10
67.8656
20
-113.586
11
67.8656
21
-99.2981
0
LINE
8
BLACK
6
CONTINUOUS
10
63.1031
20
-132.636
11
48.8156
21
-132.636
0
LINE
8
BLACK
6
CONTINUOUS
10
82.1531
20
-113.586
11
67.8656
21
-113.586
0
LINE
8
BLACK
6
CONTINUOUS
10
10.7156
20
-132.636
11
25.0031
21
-132.636
0
LINE
8
BLACK
6
CONTINUOUS
10
48.8156
20
-99.2981
11
63.1031
21
-99.2981
0
LINE
8
BLACK
6
CONTINUOUS
10
25.0031
20
-132.636
11
25.0031
21
-118.348
0
LINE
8
BLACK
6
CONTINUOUS
10
48.8156
20
-113.586
11
48.8156
21
-99.2981
0
LINE
8
BLACK
6
CONTINUOUS
10
48.8156
20
-94.5356
11
48.8156
21
-80.2481
0
LINE
8
BLACK
6
CONTINUOUS
10
63.1031
20
-80.2481
11
63.1031
21
-94.5356
0
LINE
8
BLACK
6
CONTINUOUS
10
48.8156
20
-80.2481
11
63.1031
21
-80.2481
0
LINE
8
BLACK
6
CONTINUOUS
10
25.0031
20
-99.2981
11
10.7156
21
-99.2981
0
LINE
8
BLACK
6
CONTINUOUS
10
63.1031
20
-56.4356
11
48.8156
21
-56.4356
0
LINE
8
BLACK
6
CONTINUOUS
10
101.203
20
-99.2981
11
86.9156
21
-99.2981
0
LINE
8
BLACK
6
CONTINUOUS
10
44.0531
20
-99.2981
11
29.7656
21
-99.2981
0
LINE
8
BLACK
6
CONTINUOUS
10
82.1531
20
-80.2481
11
82.1531
21
-94.5356
0
LINE
8
BLACK
6
CONTINUOUS
10
25.0031
20
-80.2481
11
10.7156
21
-80.2481
0
LINE
8
BLACK
6
CONTINUOUS
10
63.1031
20
-42.1481
11
63.1031
21
-56.4356
0
LINE
8
BLACK
6
CONTINUOUS
10
67.8656
20
-132.636
11
67.8656
21
-118.348
0
LINE
8
BLACK
6
CONTINUOUS
10
86.9156
20
-42.1481
11
86.9156
21
-56.4356
0
LINE
8
BLACK
6
CONTINUOUS
10
86.9156
20
-56.4356
11
101.203
21
-56.4356
0
LINE
8
BLACK
6
CONTINUOUS
10
67.8656
20
-132.636
11
101.203
21
-132.636
0
LINE
8
BLACK
6
CONTINUOUS
10
86.9156
20
-61.1981
11
86.9156
21
-75.4856
0
LINE
8
BLACK
6
CONTINUOUS
10
67.8656
20
-61.1981
11
82.1531
21
-61.1981
0
LINE
8
BLACK
6
CONTINUOUS
10
63.1031
20
-75.4856
11
48.8156
21
-75.4856
0
LINE
8
BLACK
6
CONTINUOUS
10
5.95312
20
-132.636
11
5.95312
21
-118.348
0
LINE
8
BLACK
6
CONTINUOUS
10
63.1031
20
-118.348
11
63.1031
21
-132.636
0
LINE
8
BLACK
6
CONTINUOUS
10
94.0593
20
-117.158
11
98.8218
21
-117.158
0
LINE
8
BLACK
6
CONTINUOUS
10
86.9156
20
-113.586
11
101.203
21
-113.586
0
LINE
8
BLACK
6
CONTINUOUS
10
10.7156
20
-99.2981
11
10.7156
21
-113.586
0
LINE
8
BLACK
6
CONTINUOUS
10
29.7656
20
-118.348
11
29.7656
21
-132.636
0
LINE
8
BLACK
6
CONTINUOUS
10
25.0031
20
-118.348
11
10.7156
21
-118.348
0
LINE
8
BLACK
6
CONTINUOUS
10
44.0531
20
-118.348
11
29.7656
21
-118.348
0
LINE
8
BLACK
6
CONTINUOUS
10
70.2468
20
-117.158
11
75.0093
21
-117.158
0
LINE
8
BLACK
6
CONTINUOUS
10
-8.33437
20
-118.348
11
-8.33437
21
-132.636
0
LINE
8
BLACK
6
CONTINUOUS
10
5.95312
20
-118.348
11
-8.33437
21
-118.348
0
LINE
8
BLACK
6
CONTINUOUS
10
-8.33437
20
-132.636
11
5.95312
21
-132.636
0
LINE
8
BLACK
6
CONTINUOUS
10
5.95312
20
-61.1981
11
-8.33437
21
-61.1981
0
LINE
8
BLACK
6
CONTINUOUS
10
-8.33437
20
-80.2481
11
-8.33437
21
-94.5356
0
LINE
8
BLACK
6
CONTINUOUS
10
5.95312
20
-80.2481
11
-8.33437
21
-80.2481
0
LINE
8
BLACK
6
CONTINUOUS
10
63.1031
20
-61.1981
11
63.1031
21
-75.4856
0
LINE
8
BLACK
6
CONTINUOUS
10
67.8656
20
-80.2481
11
82.1531
21
-80.2481
0
LINE
8
BLACK
6
CONTINUOUS
10
44.0531
20
-80.2481
11
29.7656
21
-80.2481
0
LINE
8
BLACK
6
CONTINUOUS
10
48.8156
20
-75.4856
11
48.8156
21
-61.1981
0
LINE
8
BLACK
6
CONTINUOUS
10
67.8656
20
-94.5356
11
67.8656
21
-80.2481
0
LINE
8
BLACK
6
CONTINUOUS
10
101.203
20
-80.2481
11
86.9156
21
-80.2481
0
LINE
8
BLACK
6
CONTINUOUS
10
44.0531
20
-94.5356
11
44.0531
21
-80.2481
0
LINE
8
BLACK
6
CONTINUOUS
10
86.9156
20
-94.5356
11
101.203
21
-94.5356
0
LINE
8
BLACK
6
CONTINUOUS
10
63.1031
20
-94.5356
11
48.8156
21
-94.5356
0
LINE
8
BLACK
6
CONTINUOUS
10
67.8656
20
-75.4856
11
67.8656
21
-61.1981
0
LINE
8
BLACK
6
CONTINUOUS
10
25.0031
20
-61.1981
11
10.7156
21
-61.1981
0
LINE
8
BLACK
6
CONTINUOUS
10
10.7156
20
-61.1981
11
10.7156
21
-75.4856
0
LINE
8
BLACK
6
CONTINUOUS
10
5.95312
20
-113.586
11
5.95312
21
-99.2981
0
LINE
8
BLACK
6
CONTINUOUS
10
-8.33437
20
-99.2981
11
-8.33437
21
-113.586
0
LINE
8
BLACK
6
CONTINUOUS
10
25.0031
20
-75.4856
11
25.0031
21
-61.1981
0
LINE
8
BLACK
6
CONTINUOUS
10
82.1531
20
-75.4856
11
67.8656
21
-75.4856
0
LINE
8
BLACK
6
CONTINUOUS
10
48.8156
20
-118.348
11
63.1031
21
-118.348
0
LINE
8
BLACK
6
CONTINUOUS
10
10.7156
20
-94.5356
11
25.0031
21
-94.5356
0
LINE
8
BLACK
6
CONTINUOUS
10
44.0531
20
-75.4856
11
44.0531
21
-61.1981
0
LINE
8
BLACK
6
CONTINUOUS
10
29.7656
20
-75.4856
11
44.0531
21
-75.4856
0
LINE
8
BLACK
6
CONTINUOUS
10
158.354
20
-42.1483
11
105.966
21
-42.1481
0
LINE
8
BLACK
6
CONTINUOUS
10
189.309
20
-117.158
11
189.309
21
-118.348
0
LINE
8
BLACK
6
CONTINUOUS
10
220.266
20
-42.1481
11
234.553
21
-42.1481
0
LINE
8
BLACK
6
CONTINUOUS
10
105.684
20
-36.7921
11
105.684
21
-36.2921
0
ARC
8
BLACK
10
-9.66591
20
-40.7921
40
2
50
-270
51
-180
0
LINE
8
BLACK
6
CONTINUOUS
10
201.216
20
-42.1481
11
201.216
21
-56.4356
0
ARC
8
BLACK
10
198.134
20
-138.492
40
0.999982
50
-180.001
51
-90.0007
0
LINE
8
BLACK
6
CONTINUOUS
10
272.653
20
-42.1481
11
272.653
21
-56.4356
0
LINE
8
BLACK
6
CONTINUOUS
10
182.166
20
-42.1481
11
182.166
21
-56.4356
0
LINE
8
BLACK
6
CONTINUOUS
10
272.653
20
-56.4356
11
258.366
21
-56.4356
0
LINE
8
BLACK
6
CONTINUOUS
10
66.2341
20
-139.492
11
15.2341
21
-139.492
0
ARC
8
BLACK
10
103.684
20
-137.992
40
2.00002
50
0.000515665
51
90.0004
0
LINE
8
BLACK
6
CONTINUOUS
10
196.453
20
-56.4356
11
196.453
21
-42.1481
0
LINE
8
BLACK
6
CONTINUOUS
10
234.553
20
-42.1481
11
234.553
21
-56.4356
0
LINE
8
BLACK
6
CONTINUOUS
10
195.134
20
-135.992
11
160.684
21
-135.992
0
ARC
8
BLACK
10
106.684
20
-138.492
40
0.999982
50
-180.001
51
-90.0007
0
ARC
8
BLACK
10
106.684
20
-36.2921
40
1.00001
50
90.0007
51
179.999
0
LINE
8
BLACK
6
CONTINUOUS
10
215.503
20
-56.4356
11
215.503
21
-42.1481
0
ARC
8
BLACK
10
12.2341
20
-137.992
40
2.00002
50
0.000515665
51
90.0004
0
LINE
8
BLACK
6
CONTINUOUS
10
74.7341
20
-38.7921
11
103.684
21
-38.7921
0
LINE
8
BLACK
6
CONTINUOUS
10
67.2341
20
-137.992
11
67.2341
21
-138.492
0
LINE
8
BLACK
6
CONTINUOUS
10
106.684
20
-35.2921
11
157.684
21
-35.2921
0
LINE
8
BLACK
6
CONTINUOUS
10
276.034
20
-40.7921
11
276.034
21
-133.992
0
LINE
8
BLACK
6
CONTINUOUS
10
253.603
20
-56.4356
11
239.316
21
-56.4356
0
LINE
8
BLACK
6
CONTINUOUS
10
157.684
20
-139.492
11
106.684
21
-139.492
0
LINE
8
BLACK
6
CONTINUOUS
10
201.216
20
-56.4356
11
215.503
21
-56.4356
0
ARC
8
BLACK
10
-9.66591
20
-133.992
40
2
50
-180
51
-90
0
LINE
8
BLACK
6
CONTINUOUS
10
14.2341
20
-138.492
11
14.2341
21
-137.992
0
ARC
8
BLACK
10
71.7341
20
-36.2921
40
1.00002
50
0.00103134
51
90.0007
0
LINE
8
BLACK
6
CONTINUOUS
10
160.684
20
-38.7921
11
189.634
21
-38.7921
0
LINE
8
BLACK
6
CONTINUOUS
10
20.7341
20
-35.2921
11
71.7341
21
-35.2921
0
LINE
8
BLACK
6
CONTINUOUS
10
105.966
20
-42.1481
11
105.966
21
-132.636
0
LINE
8
BLACK
6
CONTINUOUS
10
194.072
20
-118.348
11
194.072
21
-117.158
0
LINE
8
BLACK
6
CONTINUOUS
10
158.684
20
-36.2921
11
158.684
21
-36.7921
0
LINE
8
BLACK
6
CONTINUOUS
10
234.553
20
-56.4356
11
220.266
21
-56.4356
0
LINE
8
BLACK
6
CONTINUOUS
10
177.403
20
-56.4356
11
163.116
21
-56.4356
0
ARC
8
BLACK
10
189.634
20
-36.7921
40
1.99999
50
-90.0004
51
0.000515665
0
LINE
8
BLACK
6
CONTINUOUS
10
170.259
20
-117.158
11
165.497
21
-117.158
0
LINE
8
BLACK
6
CONTINUOUS
10
177.403
20
-42.1481
11
177.403
21
-56.4356
0
ARC
8
BLACK
10
160.684
20
-137.992
40
2.00001
50
90.0004
51
179.999
0
LINE
8
BLACK
6
CONTINUOUS
10
258.366
20
-42.1481
11
272.653
21
-42.1481
0
LINE
8
BLACK
6
CONTINUOUS
10
253.603
20
-42.1481
11
253.603
21
-56.4356
0
ARC
8
BLACK
10
252.134
20
-137.992
40
2.00001
50
90.0004
51
179.999
0
ARC
8
BLACK
10
249.134
20
-138.492
40
0.999987
50
-90.0007
51
0.00103134
0
ARC
8
BLACK
10
243.634
20
-36.2921
40
1.00002
50
0.00103134
51
90.0007
0
LINE
8
BLACK
6
CONTINUOUS
10
101.203
20
-132.636
11
101.203
21
-118.348
0
LINE
8
BLACK
6
CONTINUOUS
10
249.134
20
-139.492
11
198.134
21
-139.492
0
LINE
8
BLACK
6
CONTINUOUS
10
165.497
20
-117.158
11
165.497
21
-118.348
0
LINE
8
BLACK
6
CONTINUOUS
10
-9.66591
20
-38.7921
11
17.7341
21
-38.7921
0
LINE
8
BLACK
6
CONTINUOUS
10
12.2341
20
-135.992
11
-9.66591
21
-135.992
0
LINE
8
BLACK
6
CONTINUOUS
10
103.684
20
-135.992
11
69.2341
21
-135.992
0
ARC
8
BLACK
10
74.7341
20
-36.7921
40
1.99998
50
-180.001
51
-90.0004
0
ARC
8
BLACK
10
103.684
20
-36.7921
40
1.99999
50
-90.0004
51
0.000515665
0
ARC
8
BLACK
10
20.7341
20
-36.2921
40
1.00001
50
90.0007
51
179.999
0
LINE
8
BLACK
6
CONTINUOUS
10
105.684
20
-138.492
11
105.684
21
-137.992
0
LINE
8
BLACK
6
CONTINUOUS
10
194.072
20
-117.158
11
189.309
21
-117.158
0
LINE
8
BLACK
6
CONTINUOUS
10
105.966
20
-132.636
11
158.354
21
-132.636
0
ARC
8
BLACK
10
15.2341
20
-138.492
40
0.999982
50
-180.001
51
-90.0007
0
LINE
8
BLACK
6
CONTINUOUS
10
192.634
20
-35.2921
11
243.634
21
-35.2921
0
ARC
8
BLACK
10
274.034
20
-40.7921
40
2.00002
50
0.000515665
51
90.0004
0
LINE
8
BLACK
6
CONTINUOUS
10
244.634
20
-36.2921
11
244.634
21
-36.7921
0
LINE
8
BLACK
6
CONTINUOUS
10
72.7341
20
-36.2921
11
72.7341
21
-36.7921
0
LINE
8
BLACK
6
CONTINUOUS
10
182.166
20
-56.4356
11
196.453
21
-56.4356
0
ARC
8
BLACK
10
192.634
20
-36.2921
40
1.00001
50
90.0007
51
179.999
0
LINE
8
BLACK
6
CONTINUOUS
10
170.259
20
-118.348
11
170.259
21
-117.158
0
LINE
8
BLACK
6
CONTINUOUS
10
246.634
20
-38.7921
11
274.034
21
-38.7921
0
LINE
8
BLACK
6
CONTINUOUS
10
250.134
20
-137.992
11
250.134
21
-138.492
0
ARC
8
BLACK
10
69.2341
20
-137.992
40
2.00001
50
90.0004
51
179.999
0
LINE
8
BLACK
6
CONTINUOUS
10
-11.6659
20
-133.992
11
-11.6659
21
-40.7921
0
ARC
8
BLACK
10
157.684
20
-36.2921
40
1.00002
50
0.00103134
51
90.0007
0
LINE
8
BLACK
6
CONTINUOUS
10
19.7341
20
-36.7921
11
19.7341
21
-36.2921
0
LINE
8
BLACK
6
CONTINUOUS
10
158.684
20
-137.992
11
158.684
21
-138.492
0
ARC
8
BLACK
10
195.134
20
-137.992
40
2.00002
50
0.000515665
51
90.0004
0
LINE
8
BLACK
6
CONTINUOUS
10
191.634
20
-36.7921
11
191.634
21
-36.2921
0
ARC
8
BLACK
10
157.684
20
-138.492
40
0.999987
50
-90.0007
51
0.00103134
0
LINE
8
BLACK
6
CONTINUOUS
10
163.116
20
-42.1481
11
177.403
21
-42.1481
0
ARC
8
BLACK
10
246.634
20
-36.7921
40
1.99998
50
-180.001
51
-90.0004
0
LINE
8
BLACK
6
CONTINUOUS
10
101.203
20
-42.1481
11
101.203
21
-56.4356
0
ARC
8
BLACK
10
66.2341
20
-138.492
40
0.999987
50
-90.0007
51
0.00103134
0
LINE
8
BLACK
6
CONTINUOUS
10
239.316
20
-42.1481
11
253.603
21
-42.1481
0
LINE
8
BLACK
6
CONTINUOUS
10
194.072
20
-118.348
11
196.453
21
-118.348
0
ARC
8
BLACK
10
17.7341
20
-36.7921
40
2
50
-90.0001
51
-5.72959e-05
0
LINE
8
BLACK
6
CONTINUOUS
10
158.354
20
-42.1483
11
158.354
21
-132.636
0
ARC
8
BLACK
10
274.034
20
-133.992
40
1.99999
50
-90.0004
51
0.000515665
0
LINE
8
BLACK
6
CONTINUOUS
10
197.134
20
-138.492
11
197.134
21
-137.992
0
LINE
8
BLACK
6
CONTINUOUS
10
274.034
20
-135.992
11
252.134
21
-135.992
0
LINE
8
BLACK
6
CONTINUOUS
10
163.116
20
-42.1481
11
163.116
21
-56.4356
0
ARC
8
BLACK
10
160.684
20
-36.7921
40
1.99998
50
-180.001
51
-90.0004
  0
ENDSEC
  0
EOF
