  0
SECTION
  2
HEADER
  9
$ANGBASE
  50
0.0
  9
$ANGDIR
  70
1
  9
$MEASUREMENT
  70
1
  0
ENDSEC
  0
SECTION
  2
TABLES
  0
TABLE
  2
LTYPE
  70
4
  0
LTYPE
  5
40F
  2
CONTINUOUS
  70
0
  3
Solid line
  72
65
  73
0
  40
0.0
  0
LTYPE
  5
410
  2
DASHDOT
 70
0
  3
Dash Dot ____ _ ____ _
 72
65
 73
4
 40
2.0
 49
1.25
 49
-0.25
 49
0.25
 49
-0.25
  0
LTYPE
  5
411
  2
DASHED
 70
0
  3
Dashed __ __ __ __ __
 72
65
 73
2
 40
0.75
 49
0.5
 49
-0.25
  0
LTYPE
  5
43B
  2
DOTTED
 70
0
  3
Dotted .  .  .  .
 72
65
 73
2
 40
0.2
 49
0.0
 49
-0.2
  0
ENDTAB
  0
TABLE
  2
STYLE
  70
4
  0
STYLE
  2
KICAD
  70
0
  40
0
  41
1
  42
1
  50
0
  71
0
  3
isocp.shx
  0
STYLE
  2
KICADB
  70
0
  40
0
  41
1
  42
1
  50
0
  71
0
  3
isocp.shx
  0
STYLE
  2
KICADI
  70
0
  40
0
  41
1
  42
1
  50
15
  71
0
  3
isocp.shx
  0
STYLE
  2
KICADBI
  70
0
  40
0
  41
1
  42
1
  50
15
  71
0
  3
isocp.shx
  0
ENDTAB
  0
TABLE
  2
LAYER
  70
1
  0
LAYER
  2
BLACK
  70
0
  62
7
  6
CONTINUOUS
  0
ENDTAB
  0
ENDSEC
  0
SECTION
  2
ENTITIES
0
LINE
8
BLACK
6
CONTINUOUS
10
216.694
20
-109.657
11
216.694
21
-143.47
0
LINE
8
BLACK
6
CONTINUOUS
10
102.394
20
-145.256
11
214.908
21
-145.256
0
LINE
8
BLACK
6
CONTINUOUS
10
210.146
20
-109.657
11
210.146
21
-104.656
0
LINE
8
BLACK
6
CONTINUOUS
10
195.144
20
-104.656
11
181.095
21
-104.656
0
LINE
8
BLACK
6
CONTINUOUS
10
200.145
20
-128.707
11
214.195
21
-128.707
0
LINE
8
BLACK
6
CONTINUOUS
10
118.944
20
-109.657
11
118.944
21
-123.707
0
LINE
8
BLACK
6
CONTINUOUS
10
214.194
20
-85.6062
11
200.145
21
-85.6062
0
LINE
8
BLACK
6
CONTINUOUS
10
176.094
20
-71.557
11
176.094
21
-85.6064
0
LINE
8
BLACK
6
CONTINUOUS
10
176.094
20
-109.657
11
176.094
21
-123.707
0
LINE
8
BLACK
6
CONTINUOUS
10
118.944
20
-104.657
11
104.894
21
-104.657
0
LINE
8
BLACK
6
CONTINUOUS
10
214.194
20
-123.706
11
200.145
21
-123.706
0
LINE
8
BLACK
6
CONTINUOUS
10
104.895
20
-142.757
11
104.895
21
-128.707
0
LINE
8
BLACK
6
CONTINUOUS
10
130.97
20
-127.397
11
135.732
21
-127.397
0
LINE
8
BLACK
6
CONTINUOUS
10
200.145
20
-52.5068
11
214.194
21
-52.5068
0
LINE
8
BLACK
6
CONTINUOUS
10
157.044
20
-85.6064
11
142.995
21
-85.6064
0
LINE
8
BLACK
6
CONTINUOUS
10
195.144
20
-90.607
11
195.144
21
-104.656
0
LINE
8
BLACK
6
CONTINUOUS
10
181.095
20
-123.706
11
181.095
21
-109.657
0
LINE
8
BLACK
6
CONTINUOUS
10
200.145
20
-66.5562
11
200.145
21
-52.5068
0
LINE
8
BLACK
6
CONTINUOUS
10
157.044
20
-142.756
11
142.995
21
-142.756
0
LINE
8
BLACK
6
CONTINUOUS
10
142.995
20
-128.707
11
157.044
21
-128.707
0
LINE
8
BLACK
6
CONTINUOUS
10
142.995
20
-66.5563
11
142.995
21
-52.507
0
LINE
8
BLACK
6
CONTINUOUS
10
181.095
20
-52.5068
11
195.144
21
-52.5068
0
LINE
8
BLACK
6
CONTINUOUS
10
216.694
20
-51.7922
11
216.694
21
-104.656
0
LINE
8
BLACK
6
CONTINUOUS
10
176.094
20
-128.707
11
176.094
21
-142.756
0
LINE
8
BLACK
6
CONTINUOUS
10
200.145
20
-71.5569
11
214.194
21
-71.5569
0
LINE
8
BLACK
6
CONTINUOUS
10
214.195
20
-128.707
11
214.195
21
-142.756
0
LINE
8
BLACK
6
CONTINUOUS
10
137.994
20
-52.507
11
137.994
21
-66.5564
0
LINE
8
BLACK
6
CONTINUOUS
10
157.044
20
-90.6071
11
157.044
21
-104.656
0
LINE
8
BLACK
6
CONTINUOUS
10
118.944
20
-90.6072
11
118.944
21
-104.657
0
LINE
8
BLACK
6
CONTINUOUS
10
118.944
20
-85.6065
11
104.894
21
-85.6065
0
LINE
8
BLACK
6
CONTINUOUS
10
157.044
20
-52.507
11
157.044
21
-66.5563
0
LINE
8
BLACK
6
CONTINUOUS
10
137.994
20
-66.5564
11
123.944
21
-66.5564
0
LINE
8
BLACK
6
CONTINUOUS
10
195.144
20
-142.756
11
181.095
21
-142.756
0
LINE
8
BLACK
6
CONTINUOUS
10
118.944
20
-52.5071
11
118.944
21
-66.5565
0
LINE
8
BLACK
6
CONTINUOUS
10
104.894
20
-85.6065
11
104.894
21
-71.5572
0
LINE
8
BLACK
6
CONTINUOUS
10
137.994
20
-109.657
11
137.994
21
-123.707
0
LINE
8
BLACK
6
CONTINUOUS
10
200.145
20
-90.6069
11
214.194
21
-90.6069
0
LINE
8
BLACK
6
CONTINUOUS
10
176.094
20
-66.5563
11
162.045
21
-66.5563
0
LINE
8
BLACK
6
CONTINUOUS
10
137.994
20
-142.756
11
104.895
21
-142.757
0
LINE
8
BLACK
6
CONTINUOUS
10
107.157
20
-128.707
11
104.895
21
-128.707
0
LINE
8
BLACK
6
CONTINUOUS
10
162.045
20
-71.557
11
176.094
21
-71.557
0
LINE
8
BLACK
6
CONTINUOUS
10
111.919
20
-128.707
11
130.969
21
-128.707
0
LINE
8
BLACK
6
CONTINUOUS
10
214.908
20
-50.0063
11
102.394
21
-50.0063
0
LINE
8
BLACK
6
CONTINUOUS
10
200.145
20
-123.706
11
200.145
21
-109.657
0
LINE
8
BLACK
6
CONTINUOUS
10
142.995
20
-142.756
11
142.995
21
-128.707
0
LINE
8
BLACK
6
CONTINUOUS
10
181.095
20
-128.707
11
195.144
21
-128.707
0
LINE
8
BLACK
6
CONTINUOUS
10
181.095
20
-71.5569
11
195.144
21
-71.5569
0
LINE
8
BLACK
6
CONTINUOUS
10
157.044
20
-71.557
11
157.044
21
-85.6064
0
LINE
8
BLACK
6
CONTINUOUS
10
162.045
20
-109.657
11
176.094
21
-109.657
0
LINE
8
BLACK
6
CONTINUOUS
10
104.894
20
-104.657
11
104.894
21
-90.6072
0
LINE
8
BLACK
6
CONTINUOUS
10
130.969
20
-128.707
11
130.97
21
-127.397
0
LINE
8
BLACK
6
CONTINUOUS
10
123.944
20
-85.6065
11
123.944
21
-71.5571
0
LINE
8
BLACK
6
CONTINUOUS
10
123.944
20
-109.657
11
137.994
21
-109.657
0
LINE
8
BLACK
6
CONTINUOUS
10
157.044
20
-123.707
11
142.995
21
-123.707
0
LINE
8
BLACK
6
CONTINUOUS
10
195.144
20
-128.707
11
195.144
21
-142.756
0
LINE
8
BLACK
6
CONTINUOUS
10
195.144
20
-123.706
11
181.095
21
-123.706
0
LINE
8
BLACK
6
CONTINUOUS
10
104.894
20
-90.6072
11
118.944
21
-90.6072
0
LINE
8
BLACK
6
CONTINUOUS
10
176.094
20
-90.6071
11
176.094
21
-104.656
0
LINE
8
BLACK
6
CONTINUOUS
10
107.157
20
-128.707
11
107.157
21
-127.397
0
LINE
8
BLACK
6
CONTINUOUS
10
176.094
20
-142.756
11
162.045
21
-142.756
0
LINE
8
BLACK
6
CONTINUOUS
10
162.045
20
-52.5069
11
176.094
21
-52.5069
0
LINE
8
BLACK
6
CONTINUOUS
10
135.732
20
-128.707
11
137.994
21
-128.707
0
LINE
8
BLACK
6
CONTINUOUS
10
142.995
20
-104.656
11
142.995
21
-90.6071
0
LINE
8
BLACK
6
CONTINUOUS
10
181.095
20
-109.657
11
195.144
21
-109.657
0
LINE
8
BLACK
6
CONTINUOUS
10
195.144
20
-52.5068
11
195.144
21
-66.5562
0
LINE
8
BLACK
6
CONTINUOUS
10
137.994
20
-71.5571
11
137.994
21
-85.6065
0
LINE
8
BLACK
6
CONTINUOUS
10
104.894
20
-52.5071
11
118.944
21
-52.5071
0
LINE
8
BLACK
6
CONTINUOUS
10
104.894
20
-66.5565
11
104.894
21
-52.5071
0
LINE
8
BLACK
6
CONTINUOUS
10
162.045
20
-142.756
11
162.045
21
-128.707
0
LINE
8
BLACK
6
CONTINUOUS
10
214.194
20
-104.656
11
216.694
21
-104.656
0
LINE
8
BLACK
6
CONTINUOUS
10
118.944
20
-71.5572
11
118.944
21
-85.6065
0
LINE
8
BLACK
6
CONTINUOUS
10
176.094
20
-123.707
11
162.045
21
-123.707
0
LINE
8
BLACK
6
CONTINUOUS
10
181.095
20
-66.5562
11
181.095
21
-52.5068
0
LINE
8
BLACK
6
CONTINUOUS
10
135.732
20
-127.397
11
135.732
21
-128.707
0
LINE
8
BLACK
6
CONTINUOUS
10
181.095
20
-104.656
11
181.095
21
-90.607
0
LINE
8
BLACK
6
CONTINUOUS
10
157.044
20
-109.657
11
157.044
21
-123.707
0
LINE
8
BLACK
6
CONTINUOUS
10
123.944
20
-104.657
11
123.944
21
-90.6072
0
LINE
8
BLACK
6
CONTINUOUS
10
123.944
20
-52.507
11
137.994
21
-52.507
0
LINE
8
BLACK
6
CONTINUOUS
10
162.045
20
-123.707
11
162.045
21
-109.657
0
LINE
8
BLACK
6
CONTINUOUS
10
214.194
20
-109.657
11
216.694
21
-109.657
0
LINE
8
BLACK
6
CONTINUOUS
10
210.146
20
-104.656
11
200.145
21
-104.656
0
LINE
8
BLACK
6
CONTINUOUS
10
157.044
20
-128.707
11
157.044
21
-142.756
0
LINE
8
BLACK
6
CONTINUOUS
10
107.157
20
-127.397
11
111.92
21
-127.397
0
LINE
8
BLACK
6
CONTINUOUS
10
142.995
20
-123.707
11
142.995
21
-109.657
0
LINE
8
BLACK
6
CONTINUOUS
10
142.995
20
-71.557
11
157.044
21
-71.557
0
LINE
8
BLACK
6
CONTINUOUS
10
181.095
20
-142.756
11
181.095
21
-128.707
0
ARC
8
BLACK
10
214.908
20
-51.7922
40
1.78591
50
-0.000994533
51
90.0002
0
LINE
8
BLACK
6
CONTINUOUS
10
111.92
20
-127.397
11
111.919
21
-128.707
0
LINE
8
BLACK
6
CONTINUOUS
10
137.994
20
-85.6065
11
123.944
21
-85.6065
0
LINE
8
BLACK
6
CONTINUOUS
10
200.145
20
-142.756
11
200.145
21
-128.707
0
LINE
8
BLACK
6
CONTINUOUS
10
104.894
20
-123.707
11
104.894
21
-109.657
0
ARC
8
BLACK
10
214.908
20
-143.47
40
1.78593
50
-90.0002
51
-0.0010587
0
LINE
8
BLACK
6
CONTINUOUS
10
176.094
20
-104.656
11
162.045
21
-104.656
0
LINE
8
BLACK
6
CONTINUOUS
10
102.394
20
-50.0063
11
102.394
21
-145.256
0
LINE
8
BLACK
6
CONTINUOUS
10
195.144
20
-109.657
11
195.144
21
-123.706
0
LINE
8
BLACK
6
CONTINUOUS
10
214.194
20
-109.657
11
214.194
21
-123.706
0
LINE
8
BLACK
6
CONTINUOUS
10
200.145
20
-109.657
11
210.146
21
-109.657
0
LINE
8
BLACK
6
CONTINUOUS
10
162.045
20
-85.6064
11
162.045
21
-71.557
0
LINE
8
BLACK
6
CONTINUOUS
10
214.195
20
-142.756
11
200.145
21
-142.756
0
LINE
8
BLACK
6
CONTINUOUS
10
214.194
20
-71.5569
11
214.194
21
-85.6062
0
LINE
8
BLACK
6
CONTINUOUS
10
142.995
20
-52.507
11
157.044
21
-52.507
0
LINE
8
BLACK
6
CONTINUOUS
10
142.995
20
-90.6071
11
157.044
21
-90.6071
0
LINE
8
BLACK
6
CONTINUOUS
10
162.045
20
-128.707
11
176.094
21
-128.707
0
LINE
8
BLACK
6
CONTINUOUS
10
200.145
20
-85.6062
11
200.145
21
-71.5569
0
LINE
8
BLACK
6
CONTINUOUS
10
176.094
20
-85.6064
11
162.045
21
-85.6064
0
LINE
8
BLACK
6
CONTINUOUS
10
214.194
20
-66.5562
11
200.145
21
-66.5562
0
LINE
8
BLACK
6
CONTINUOUS
10
137.994
20
-123.707
11
123.944
21
-123.707
0
LINE
8
BLACK
6
CONTINUOUS
10
200.145
20
-104.656
11
200.145
21
-90.6069
0
LINE
8
BLACK
6
CONTINUOUS
10
137.994
20
-104.657
11
123.944
21
-104.657
0
LINE
8
BLACK
6
CONTINUOUS
10
157.044
20
-66.5563
11
142.995
21
-66.5563
0
LINE
8
BLACK
6
CONTINUOUS
10
181.095
20
-90.607
11
195.144
21
-90.607
0
LINE
8
BLACK
6
CONTINUOUS
10
123.944
20
-71.5571
11
137.994
21
-71.5571
0
LINE
8
BLACK
6
CONTINUOUS
10
104.894
20
-109.657
11
118.944
21
-109.657
0
LINE
8
BLACK
6
CONTINUOUS
10
214.194
20
-52.5068
11
214.194
21
-66.5562
0
LINE
8
BLACK
6
CONTINUOUS
10
142.995
20
-109.657
11
157.044
21
-109.657
0
LINE
8
BLACK
6
CONTINUOUS
10
195.144
20
-66.5562
11
181.095
21
-66.5562
0
LINE
8
BLACK
6
CONTINUOUS
10
118.944
20
-123.707
11
104.894
21
-123.707
0
LINE
8
BLACK
6
CONTINUOUS
10
118.944
20
-66.5565
11
104.894
21
-66.5565
0
LINE
8
BLACK
6
CONTINUOUS
10
142.995
20
-85.6064
11
142.995
21
-71.557
0
LINE
8
BLACK
6
CONTINUOUS
10
123.944
20
-66.5564
11
123.944
21
-52.507
0
LINE
8
BLACK
6
CONTINUOUS
10
176.094
20
-52.5069
11
176.094
21
-66.5563
0
LINE
8
BLACK
6
CONTINUOUS
10
181.095
20
-85.6063
11
181.095
21
-71.5569
0
LINE
8
BLACK
6
CONTINUOUS
10
104.894
20
-71.5572
11
118.944
21
-71.5572
0
LINE
8
BLACK
6
CONTINUOUS
10
162.045
20
-66.5563
11
162.045
21
-52.5069
0
LINE
8
BLACK
6
CONTINUOUS
10
195.144
20
-85.6063
11
181.095
21
-85.6063
0
LINE
8
BLACK
6
CONTINUOUS
10
162.045
20
-90.6071
11
176.094
21
-90.6071
0
LINE
8
BLACK
6
CONTINUOUS
10
137.994
20
-90.6072
11
137.994
21
-104.657
0
LINE
8
BLACK
6
CONTINUOUS
10
162.045
20
-104.656
11
162.045
21
-90.6071
0
LINE
8
BLACK
6
CONTINUOUS
10
137.994
20
-128.707
11
137.994
21
-142.756
0
LINE
8
BLACK
6
CONTINUOUS
10
123.944
20
-123.707
11
123.944
21
-109.657
0
LINE
8
BLACK
6
CONTINUOUS
10
157.044
20
-104.656
11
142.995
21
-104.656
0
LINE
8
BLACK
6
CONTINUOUS
10
123.944
20
-90.6072
11
137.994
21
-90.6072
0
LINE
8
BLACK
6
CONTINUOUS
10
214.194
20
-90.6069
11
214.194
21
-104.656
0
LINE
8
BLACK
6
CONTINUOUS
10
195.144
20
-71.5569
11
195.144
21
-85.6063
  0
ENDSEC
  0
EOF
