  0
SECTION
  2
HEADER
  9
$ANGBASE
  50
0.0
  9
$ANGDIR
  70
1
  9
$MEASUREMENT
  70
1
  0
ENDSEC
  0
SECTION
  2
TABLES
  0
TABLE
  2
LTYPE
  70
4
  0
LTYPE
  5
40F
  2
CONTINUOUS
  70
0
  3
Solid line
  72
65
  73
0
  40
0.0
  0
LTYPE
  5
410
  2
DASHDOT
 70
0
  3
Dash Dot ____ _ ____ _
 72
65
 73
4
 40
2.0
 49
1.25
 49
-0.25
 49
0.25
 49
-0.25
  0
LTYPE
  5
411
  2
DASHED
 70
0
  3
Dashed __ __ __ __ __
 72
65
 73
2
 40
0.75
 49
0.5
 49
-0.25
  0
LTYPE
  5
43B
  2
DOTTED
 70
0
  3
Dotted .  .  .  .
 72
65
 73
2
 40
0.2
 49
0.0
 49
-0.2
  0
ENDTAB
  0
TABLE
  2
STYLE
  70
4
  0
STYLE
  2
KICAD
  70
0
  40
0
  41
1
  42
1
  50
0
  71
0
  3
isocp.shx
  0
STYLE
  2
KICADB
  70
0
  40
0
  41
1
  42
1
  50
0
  71
0
  3
isocp.shx
  0
STYLE
  2
KICADI
  70
0
  40
0
  41
1
  42
1
  50
15
  71
0
  3
isocp.shx
  0
STYLE
  2
KICADBI
  70
0
  40
0
  41
1
  42
1
  50
15
  71
0
  3
isocp.shx
  0
ENDTAB
  0
TABLE
  2
LAYER
  70
1
  0
LAYER
  2
BLACK
  70
0
  62
7
  6
CONTINUOUS
  0
ENDTAB
  0
ENDSEC
  0
SECTION
  2
ENTITIES
0
LINE
8
BLACK
6
CONTINUOUS
10
216.694
20
-109.538
11
216.694
21
-143.47
0
LINE
8
BLACK
6
CONTINUOUS
10
104.18
20
-65.9609
11
104.18
21
-53.1021
0
LINE
8
BLACK
6
CONTINUOUS
10
102.394
20
-145.256
11
214.908
21
-145.256
0
LINE
8
BLACK
6
CONTINUOUS
10
104.18
20
-53.1021
11
119.777
21
-53.1021
0
LINE
8
BLACK
6
CONTINUOUS
10
138.827
20
-142.161
11
123.23
21
-142.161
0
LINE
8
BLACK
6
CONTINUOUS
10
199.431
20
-65.9609
11
199.431
21
-53.1021
0
LINE
8
BLACK
6
CONTINUOUS
10
138.827
20
-110.252
11
138.827
21
-123.111
0
LINE
8
BLACK
6
CONTINUOUS
10
123.23
20
-123.111
11
123.23
21
-110.252
0
LINE
8
BLACK
6
CONTINUOUS
10
195.978
20
-129.302
11
195.978
21
-142.161
0
LINE
8
BLACK
6
CONTINUOUS
10
176.928
20
-104.061
11
161.33
21
-104.061
0
LINE
8
BLACK
6
CONTINUOUS
10
180.38
20
-123.111
11
180.38
21
-110.252
0
LINE
8
BLACK
6
CONTINUOUS
10
176.928
20
-110.252
11
176.928
21
-123.111
0
LINE
8
BLACK
6
CONTINUOUS
10
161.33
20
-53.1021
11
176.928
21
-53.1021
0
LINE
8
BLACK
6
CONTINUOUS
10
119.777
20
-129.302
11
119.777
21
-142.161
0
LINE
8
BLACK
6
CONTINUOUS
10
142.28
20
-65.9609
11
142.28
21
-53.1021
0
LINE
8
BLACK
6
CONTINUOUS
10
176.928
20
-142.161
11
161.33
21
-142.161
0
LINE
8
BLACK
6
CONTINUOUS
10
195.978
20
-110.252
11
195.978
21
-123.111
0
LINE
8
BLACK
6
CONTINUOUS
10
195.978
20
-104.061
11
180.38
21
-104.061
0
LINE
8
BLACK
6
CONTINUOUS
10
176.928
20
-65.9609
11
161.33
21
-65.9609
0
LINE
8
BLACK
6
CONTINUOUS
10
195.978
20
-65.9609
11
180.38
21
-65.9609
0
LINE
8
BLACK
6
CONTINUOUS
10
209.908
20
-104.061
11
209.908
21
-110.252
0
LINE
8
BLACK
6
CONTINUOUS
10
215.028
20
-72.1522
11
215.028
21
-85.011
0
LINE
8
BLACK
6
CONTINUOUS
10
123.23
20
-91.2023
11
138.827
21
-91.2023
0
LINE
8
BLACK
6
CONTINUOUS
10
119.777
20
-110.252
11
119.777
21
-123.111
0
LINE
8
BLACK
6
CONTINUOUS
10
180.38
20
-53.1021
11
195.978
21
-53.1021
0
LINE
8
BLACK
6
CONTINUOUS
10
215.028
20
-104.775
11
216.694
21
-104.775
0
LINE
8
BLACK
6
CONTINUOUS
10
195.978
20
-72.1522
11
195.978
21
-85.011
0
LINE
8
BLACK
6
CONTINUOUS
10
199.431
20
-72.1522
11
215.028
21
-72.1522
0
LINE
8
BLACK
6
CONTINUOUS
10
102.394
20
-50.0063
11
102.394
21
-145.256
0
LINE
8
BLACK
6
CONTINUOUS
10
138.827
20
-129.302
11
138.827
21
-142.161
0
LINE
8
BLACK
6
CONTINUOUS
10
157.878
20
-72.1522
11
157.878
21
-85.011
0
LINE
8
BLACK
6
CONTINUOUS
10
142.28
20
-72.1522
11
157.878
21
-72.1522
0
LINE
8
BLACK
6
CONTINUOUS
10
104.18
20
-110.252
11
119.777
21
-110.252
0
LINE
8
BLACK
6
CONTINUOUS
10
123.23
20
-85.011
11
123.23
21
-72.1522
0
LINE
8
BLACK
6
CONTINUOUS
10
215.028
20
-109.538
11
215.028
21
-123.111
0
LINE
8
BLACK
6
CONTINUOUS
10
157.878
20
-129.302
11
157.878
21
-142.161
0
LINE
8
BLACK
6
CONTINUOUS
10
104.18
20
-142.161
11
104.18
21
-129.302
0
LINE
8
BLACK
6
CONTINUOUS
10
161.33
20
-110.252
11
176.928
21
-110.252
0
LINE
8
BLACK
6
CONTINUOUS
10
161.33
20
-123.111
11
161.33
21
-110.252
0
LINE
8
BLACK
6
CONTINUOUS
10
176.928
20
-72.1522
11
176.928
21
-85.011
0
LINE
8
BLACK
6
CONTINUOUS
10
199.431
20
-110.252
11
209.908
21
-110.252
0
LINE
8
BLACK
6
CONTINUOUS
10
161.33
20
-142.161
11
161.33
21
-129.302
0
LINE
8
BLACK
6
CONTINUOUS
10
161.33
20
-85.011
11
161.33
21
-72.1522
0
LINE
8
BLACK
6
CONTINUOUS
10
180.38
20
-85.011
11
180.38
21
-72.1522
0
LINE
8
BLACK
6
CONTINUOUS
10
142.28
20
-129.302
11
157.878
21
-129.302
0
LINE
8
BLACK
6
CONTINUOUS
10
157.878
20
-142.161
11
142.28
21
-142.161
0
LINE
8
BLACK
6
CONTINUOUS
10
214.908
20
-50.0063
11
102.394
21
-50.0063
0
LINE
8
BLACK
6
CONTINUOUS
10
176.928
20
-91.2023
11
176.928
21
-104.061
0
LINE
8
BLACK
6
CONTINUOUS
10
180.38
20
-129.302
11
195.978
21
-129.302
0
LINE
8
BLACK
6
CONTINUOUS
10
180.38
20
-104.061
11
180.38
21
-91.2023
0
LINE
8
BLACK
6
CONTINUOUS
10
161.33
20
-104.061
11
161.33
21
-91.2023
0
LINE
8
BLACK
6
CONTINUOUS
10
123.23
20
-104.061
11
123.23
21
-91.2023
0
LINE
8
BLACK
6
CONTINUOUS
10
138.827
20
-104.061
11
123.23
21
-104.061
0
LINE
8
BLACK
6
CONTINUOUS
10
123.23
20
-65.9609
11
123.23
21
-53.1021
0
LINE
8
BLACK
6
CONTINUOUS
10
215.028
20
-65.9609
11
199.431
21
-65.9609
0
LINE
8
BLACK
6
CONTINUOUS
10
199.431
20
-85.011
11
199.431
21
-72.1522
0
LINE
8
BLACK
6
CONTINUOUS
10
209.908
20
-104.061
11
199.431
21
-104.061
0
LINE
8
BLACK
6
CONTINUOUS
10
138.827
20
-65.9609
11
123.23
21
-65.9609
0
LINE
8
BLACK
6
CONTINUOUS
10
138.827
20
-123.111
11
123.23
21
-123.111
0
LINE
8
BLACK
6
CONTINUOUS
10
199.431
20
-142.161
11
199.431
21
-129.302
0
LINE
8
BLACK
6
CONTINUOUS
10
157.878
20
-110.252
11
157.878
21
-123.111
0
LINE
8
BLACK
6
CONTINUOUS
10
104.18
20
-123.111
11
104.18
21
-110.252
0
LINE
8
BLACK
6
CONTINUOUS
10
123.23
20
-110.252
11
138.827
21
-110.252
0
LINE
8
BLACK
6
CONTINUOUS
10
104.18
20
-104.061
11
104.18
21
-91.2023
0
LINE
8
BLACK
6
CONTINUOUS
10
104.18
20
-85.011
11
104.18
21
-72.1522
0
LINE
8
BLACK
6
CONTINUOUS
10
157.878
20
-123.111
11
142.28
21
-123.111
0
LINE
8
BLACK
6
CONTINUOUS
10
180.38
20
-142.161
11
180.38
21
-129.302
0
LINE
8
BLACK
6
CONTINUOUS
10
142.28
20
-123.111
11
142.28
21
-110.252
0
LINE
8
BLACK
6
CONTINUOUS
10
215.028
20
-85.011
11
199.431
21
-85.011
0
LINE
8
BLACK
6
CONTINUOUS
10
215.028
20
-53.1021
11
215.028
21
-65.9609
0
LINE
8
BLACK
6
CONTINUOUS
10
142.28
20
-53.1021
11
157.878
21
-53.1021
0
LINE
8
BLACK
6
CONTINUOUS
10
119.777
20
-85.011
11
104.18
21
-85.011
0
LINE
8
BLACK
6
CONTINUOUS
10
180.38
20
-110.252
11
195.978
21
-110.252
0
LINE
8
BLACK
6
CONTINUOUS
10
215.028
20
-109.538
11
216.694
21
-109.538
0
LINE
8
BLACK
6
CONTINUOUS
10
138.827
20
-85.011
11
123.23
21
-85.011
0
LINE
8
BLACK
6
CONTINUOUS
10
195.978
20
-53.1021
11
195.978
21
-65.9609
0
LINE
8
BLACK
6
CONTINUOUS
10
180.38
20
-65.9609
11
180.38
21
-53.1021
0
LINE
8
BLACK
6
CONTINUOUS
10
119.777
20
-65.9609
11
104.18
21
-65.9609
0
LINE
8
BLACK
6
CONTINUOUS
10
123.23
20
-72.1522
11
138.827
21
-72.1522
0
LINE
8
BLACK
6
CONTINUOUS
10
142.28
20
-91.2023
11
157.878
21
-91.2023
0
LINE
8
BLACK
6
CONTINUOUS
10
104.18
20
-129.302
11
119.777
21
-129.302
0
LINE
8
BLACK
6
CONTINUOUS
10
138.827
20
-72.1522
11
138.827
21
-85.011
0
LINE
8
BLACK
6
CONTINUOUS
10
176.928
20
-129.302
11
176.928
21
-142.161
0
LINE
8
BLACK
6
CONTINUOUS
10
199.431
20
-91.2023
11
215.028
21
-91.2023
0
LINE
8
BLACK
6
CONTINUOUS
10
161.33
20
-129.302
11
176.928
21
-129.302
0
LINE
8
BLACK
6
CONTINUOUS
10
199.431
20
-129.302
11
215.028
21
-129.302
0
LINE
8
BLACK
6
CONTINUOUS
10
142.28
20
-142.161
11
142.28
21
-129.302
0
LINE
8
BLACK
6
CONTINUOUS
10
157.878
20
-53.1021
11
157.878
21
-65.9609
0
LINE
8
BLACK
6
CONTINUOUS
10
215.028
20
-123.111
11
199.431
21
-123.111
0
LINE
8
BLACK
6
CONTINUOUS
10
119.777
20
-91.2023
11
119.777
21
-104.061
0
LINE
8
BLACK
6
CONTINUOUS
10
161.33
20
-72.1522
11
176.928
21
-72.1522
0
LINE
8
BLACK
6
CONTINUOUS
10
195.978
20
-91.2023
11
195.978
21
-104.061
0
LINE
8
BLACK
6
CONTINUOUS
10
142.28
20
-110.252
11
157.878
21
-110.252
0
ARC
8
BLACK
10
214.908
20
-51.7922
40
1.78591
50
-0.000994533
51
90.0002
0
LINE
8
BLACK
6
CONTINUOUS
10
195.978
20
-85.011
11
180.38
21
-85.011
0
LINE
8
BLACK
6
CONTINUOUS
10
142.28
20
-85.011
11
142.28
21
-72.1522
0
LINE
8
BLACK
6
CONTINUOUS
10
180.38
20
-72.1522
11
195.978
21
-72.1522
0
LINE
8
BLACK
6
CONTINUOUS
10
104.18
20
-91.2023
11
119.777
21
-91.2023
0
LINE
8
BLACK
6
CONTINUOUS
10
215.028
20
-129.302
11
215.028
21
-142.161
0
LINE
8
BLACK
6
CONTINUOUS
10
123.23
20
-142.161
11
123.23
21
-129.302
0
LINE
8
BLACK
6
CONTINUOUS
10
157.878
20
-85.011
11
142.28
21
-85.011
0
LINE
8
BLACK
6
CONTINUOUS
10
119.777
20
-104.061
11
104.18
21
-104.061
0
LINE
8
BLACK
6
CONTINUOUS
10
161.33
20
-65.9609
11
161.33
21
-53.1021
0
LINE
8
BLACK
6
CONTINUOUS
10
195.978
20
-142.161
11
180.38
21
-142.161
0
LINE
8
BLACK
6
CONTINUOUS
10
180.38
20
-91.2023
11
195.978
21
-91.2023
0
LINE
8
BLACK
6
CONTINUOUS
10
123.23
20
-53.1021
11
138.827
21
-53.1021
0
ARC
8
BLACK
10
214.908
20
-143.47
40
1.78593
50
-90.0002
51
-0.0010587
0
LINE
8
BLACK
6
CONTINUOUS
10
215.028
20
-142.161
11
199.431
21
-142.161
0
LINE
8
BLACK
6
CONTINUOUS
10
142.28
20
-104.061
11
142.28
21
-91.2023
0
LINE
8
BLACK
6
CONTINUOUS
10
161.33
20
-91.2023
11
176.928
21
-91.2023
0
LINE
8
BLACK
6
CONTINUOUS
10
138.827
20
-53.1021
11
138.827
21
-65.9609
0
LINE
8
BLACK
6
CONTINUOUS
10
176.928
20
-123.111
11
161.33
21
-123.111
0
LINE
8
BLACK
6
CONTINUOUS
10
119.777
20
-72.1522
11
119.777
21
-85.011
0
LINE
8
BLACK
6
CONTINUOUS
10
104.18
20
-72.1522
11
119.777
21
-72.1522
0
LINE
8
BLACK
6
CONTINUOUS
10
176.928
20
-53.1021
11
176.928
21
-65.9609
0
LINE
8
BLACK
6
CONTINUOUS
10
195.978
20
-123.111
11
180.38
21
-123.111
0
LINE
8
BLACK
6
CONTINUOUS
10
199.431
20
-123.111
11
199.431
21
-110.252
0
LINE
8
BLACK
6
CONTINUOUS
10
119.777
20
-53.1021
11
119.777
21
-65.9609
0
LINE
8
BLACK
6
CONTINUOUS
10
216.694
20
-51.7922
11
216.694
21
-104.775
0
LINE
8
BLACK
6
CONTINUOUS
10
157.878
20
-91.2023
11
157.878
21
-104.061
0
LINE
8
BLACK
6
CONTINUOUS
10
157.878
20
-65.9609
11
142.28
21
-65.9609
0
LINE
8
BLACK
6
CONTINUOUS
10
138.827
20
-91.2023
11
138.827
21
-104.061
0
LINE
8
BLACK
6
CONTINUOUS
10
199.431
20
-104.061
11
199.431
21
-91.2023
0
LINE
8
BLACK
6
CONTINUOUS
10
199.431
20
-53.1021
11
215.028
21
-53.1021
0
LINE
8
BLACK
6
CONTINUOUS
10
176.928
20
-85.011
11
161.33
21
-85.011
0
LINE
8
BLACK
6
CONTINUOUS
10
119.777
20
-142.161
11
104.18
21
-142.161
0
LINE
8
BLACK
6
CONTINUOUS
10
119.777
20
-123.111
11
104.18
21
-123.111
0
LINE
8
BLACK
6
CONTINUOUS
10
215.028
20
-91.2023
11
215.028
21
-104.775
0
LINE
8
BLACK
6
CONTINUOUS
10
123.23
20
-129.302
11
138.827
21
-129.302
0
LINE
8
BLACK
6
CONTINUOUS
10
157.878
20
-104.061
11
142.28
21
-104.061
  0
ENDSEC
  0
EOF
