  0
SECTION
  2
HEADER
  9
$ANGBASE
  50
0.0
  9
$ANGDIR
  70
1
  9
$MEASUREMENT
  70
1
  0
ENDSEC
  0
SECTION
  2
TABLES
  0
TABLE
  2
LTYPE
  70
4
  0
LTYPE
  5
40F
  2
CONTINUOUS
  70
0
  3
Solid line
  72
65
  73
0
  40
0.0
  0
LTYPE
  5
410
  2
DASHDOT
 70
0
  3
Dash Dot ____ _ ____ _
 72
65
 73
4
 40
2.0
 49
1.25
 49
-0.25
 49
0.25
 49
-0.25
  0
LTYPE
  5
411
  2
DASHED
 70
0
  3
Dashed __ __ __ __ __
 72
65
 73
2
 40
0.75
 49
0.5
 49
-0.25
  0
LTYPE
  5
43B
  2
DOTTED
 70
0
  3
Dotted .  .  .  .
 72
65
 73
2
 40
0.2
 49
0.0
 49
-0.2
  0
ENDTAB
  0
TABLE
  2
STYLE
  70
4
  0
STYLE
  2
KICAD
  70
0
  40
0
  41
1
  42
1
  50
0
  71
0
  3
isocp.shx
  0
STYLE
  2
KICADB
  70
0
  40
0
  41
1
  42
1
  50
0
  71
0
  3
isocp.shx
  0
STYLE
  2
KICADI
  70
0
  40
0
  41
1
  42
1
  50
15
  71
0
  3
isocp.shx
  0
STYLE
  2
KICADBI
  70
0
  40
0
  41
1
  42
1
  50
15
  71
0
  3
isocp.shx
  0
ENDTAB
  0
TABLE
  2
LAYER
  70
1
  0
LAYER
  2
BLACK
  70
0
  62
7
  6
CONTINUOUS
  0
ENDTAB
  0
ENDSEC
  0
SECTION
  2
ENTITIES
0
LINE
8
BLACK
6
CONTINUOUS
10
275.511
20
-102.883
11
275.511
21
-103.932
0
LINE
8
BLACK
6
CONTINUOUS
10
277.702
20
-106.515
11
275.797
21
-104.639
0
ARC
8
BLACK
10
276.489
20
-103.949
40
0.977467
50
-180.948
51
-135.02
0
ARC
8
BLACK
10
276.995
20
-107.222
40
0.999994
50
-0.000171888
51
45.0001
0
LINE
8
BLACK
6
CONTINUOUS
10
275.511
20
-68.7338
11
275.511
21
-69.7834
0
LINE
8
BLACK
6
CONTINUOUS
10
275.797
20
-68.0267
11
277.685
21
-66.1557
0
ARC
8
BLACK
10
276.489
20
-68.7176
40
0.977467
50
-224.98
51
-179.052
0
ARC
8
BLACK
10
276.977
20
-65.4486
40
0.999994
50
-45.0001
51
0.000171888
0
LINE
8
BLACK
6
CONTINUOUS
10
-5.23909
20
-103.933
11
-5.23909
21
-102.883
0
LINE
8
BLACK
6
CONTINUOUS
10
-5.52501
20
-104.64
11
-7.42964
21
-106.515
0
ARC
8
BLACK
10
-6.21642
20
-103.949
40
0.977467
50
-44.9805
51
0.947815
0
ARC
8
BLACK
10
-6.72254
20
-107.222
40
0.999994
50
-225
51
-180
0
LINE
8
BLACK
6
CONTINUOUS
10
277.977
20
-65.4486
11
277.977
21
-50.6603
0
LINE
8
BLACK
6
CONTINUOUS
10
275.511
20
-83.8328
11
275.511
21
-88.8335
0
LINE
8
BLACK
6
CONTINUOUS
10
-5.23909
20
-121.933
11
-5.23909
21
-107.884
0
LINE
8
BLACK
6
CONTINUOUS
10
-5.23909
20
-69.7836
11
-5.23909
21
-68.734
0
LINE
8
BLACK
6
CONTINUOUS
10
-5.23909
20
-88.8336
11
-5.23909
21
-83.8329
0
LINE
8
BLACK
6
CONTINUOUS
10
-7.42964
20
-66.1517
11
-5.52501
21
-68.0269
0
ARC
8
BLACK
10
-6.21642
20
-68.7178
40
0.977466
50
-0.947875
51
44.9805
0
ARC
8
BLACK
10
-6.72254
20
-65.4446
40
1
50
-180
51
-135
0
LINE
8
BLACK
6
CONTINUOUS
10
-7.72254
20
-50.6563
11
-7.72254
21
-65.4446
0
LINE
8
BLACK
6
CONTINUOUS
10
-7.72254
20
-107.222
11
-7.72254
21
-141.028
0
LINE
8
BLACK
6
CONTINUOUS
10
77.9855
20
-125.624
11
77.9859
21
-126.934
0
LINE
8
BLACK
6
CONTINUOUS
10
101.798
20
-125.624
11
101.798
21
-126.934
0
LINE
8
BLACK
6
CONTINUOUS
10
73.223
20
-126.934
11
73.223
21
-125.624
0
LINE
8
BLACK
6
CONTINUOUS
10
97.036
20
-126.934
11
97.0355
21
-125.624
0
LINE
8
BLACK
6
CONTINUOUS
10
97.0355
20
-125.624
11
101.798
21
-125.624
0
LINE
8
BLACK
6
CONTINUOUS
10
73.223
20
-125.624
11
77.9855
21
-125.624
0
LINE
8
BLACK
6
CONTINUOUS
10
161.33
20
-50.6144
11
108.942
21
-50.6142
0
LINE
8
BLACK
6
CONTINUOUS
10
166.211
20
-121.933
11
166.211
21
-107.884
0
LINE
8
BLACK
6
CONTINUOUS
10
65.9607
20
-83.8331
11
51.9113
21
-83.8331
0
LINE
8
BLACK
6
CONTINUOUS
10
237.411
20
-102.883
11
223.362
21
-102.883
0
LINE
8
BLACK
6
CONTINUOUS
10
104.061
20
-50.7338
11
104.061
21
-64.7831
0
LINE
8
BLACK
6
CONTINUOUS
10
218.361
20
-126.934
11
218.361
21
-140.983
0
LINE
8
BLACK
6
CONTINUOUS
10
-5.23909
20
-50.7335
11
8.81029
21
-50.7335
0
LINE
8
BLACK
6
CONTINUOUS
10
32.861
20
-140.983
11
32.861
21
-126.934
0
LINE
8
BLACK
6
CONTINUOUS
10
8.81029
20
-88.8336
11
8.81029
21
-102.883
0
LINE
8
BLACK
6
CONTINUOUS
10
32.861
20
-126.934
11
46.9103
21
-126.934
0
LINE
8
BLACK
6
CONTINUOUS
10
104.061
20
-126.934
11
104.061
21
-140.983
0
LINE
8
BLACK
6
CONTINUOUS
10
46.9106
20
-88.8338
11
46.9106
21
-102.883
0
ARC
8
BLACK
10
24.2074
20
-146.116
40
2.9999
50
89.9989
51
155.377
0
LINE
8
BLACK
6
CONTINUOUS
10
70.9615
20
-107.884
11
85.0108
21
-107.884
0
LINE
8
BLACK
6
CONTINUOUS
10
218.361
20
-64.7828
11
204.312
21
-64.7828
0
LINE
8
BLACK
6
CONTINUOUS
10
185.262
20
-64.7829
11
185.262
21
-50.7335
0
LINE
8
BLACK
6
CONTINUOUS
10
104.061
20
-140.983
11
70.9612
21
-140.983
0
LINE
8
BLACK
6
CONTINUOUS
10
180.261
20
-64.783
11
166.211
21
-64.783
0
LINE
8
BLACK
6
CONTINUOUS
10
218.361
20
-50.7335
11
218.361
21
-64.7828
0
LINE
8
BLACK
6
CONTINUOUS
10
70.9615
20
-50.7337
11
85.0108
21
-50.7337
0
LINE
8
BLACK
6
CONTINUOUS
10
237.411
20
-121.933
11
223.362
21
-121.933
0
LINE
8
BLACK
6
CONTINUOUS
10
21.0503
20
-43.4921
11
20.1496
21
-45.4921
0
LINE
8
BLACK
6
CONTINUOUS
10
261.462
20
-102.883
11
261.462
21
-88.8335
0
LINE
8
BLACK
6
CONTINUOUS
10
32.8612
20
-88.8338
11
46.9106
21
-88.8338
0
LINE
8
BLACK
6
CONTINUOUS
10
166.211
20
-83.833
11
166.211
21
-69.7837
0
LINE
8
BLACK
6
CONTINUOUS
10
275.512
20
-140.983
11
261.462
21
-140.983
0
LINE
8
BLACK
6
CONTINUOUS
10
27.8604
20
-107.884
11
27.8604
21
-121.933
0
LINE
8
BLACK
6
CONTINUOUS
10
19.9865
20
-148.192
11
21.4803
21
-144.866
0
LINE
8
BLACK
6
CONTINUOUS
10
46.9106
20
-83.833
11
32.8612
21
-83.833
0
LINE
8
BLACK
6
CONTINUOUS
10
-7.42964
20
-141.735
11
-6.34964
21
-142.823
0
LINE
8
BLACK
6
CONTINUOUS
10
275.511
20
-64.7827
11
261.462
21
-64.7827
0
ARC
8
BLACK
10
276.978
20
-50.6603
40
0.999956
50
-0.00126056
51
45.0008
0
LINE
8
BLACK
6
CONTINUOUS
10
46.9106
20
-107.884
11
46.9106
21
-121.933
0
LINE
8
BLACK
6
CONTINUOUS
10
223.362
20
-126.933
11
237.411
21
-126.933
0
LINE
8
BLACK
6
CONTINUOUS
10
242.412
20
-140.983
11
242.412
21
-126.933
0
LINE
8
BLACK
6
CONTINUOUS
10
46.9106
20
-50.7336
11
46.9106
21
-64.783
0
LINE
8
BLACK
6
CONTINUOUS
10
-5.23932
20
-126.934
11
8.81005
21
-126.934
0
LINE
8
BLACK
6
CONTINUOUS
10
218.361
20
-107.884
11
218.361
21
-121.933
0
ARC
8
BLACK
10
259.947
20
-146.116
40
2.9999
50
89.9989
51
155.377
0
LINE
8
BLACK
6
CONTINUOUS
10
61.5044
20
-144.866
11
62.9982
21
-148.192
0
LINE
8
BLACK
6
CONTINUOUS
10
51.9113
20
-69.7837
11
65.9607
21
-69.7837
0
ARC
8
BLACK
10
81.1475
20
-44.2422
40
2.99992
50
-90.0008
51
-24.623
0
CIRCLE
8
BLACK
10
258.952
20
-44.7421
40
1.5
0
LINE
8
BLACK
6
CONTINUOUS
10
185.262
20
-50.7335
11
199.311
21
-50.7335
0
LINE
8
BLACK
6
CONTINUOUS
10
46.9106
20
-102.883
11
32.8612
21
-102.883
0
LINE
8
BLACK
6
CONTINUOUS
10
51.9113
20
-88.8338
11
65.9607
21
-88.8338
0
LINE
8
BLACK
6
CONTINUOUS
10
204.312
20
-121.933
11
204.312
21
-107.884
0
LINE
8
BLACK
6
CONTINUOUS
10
166.211
20
-50.7336
11
180.261
21
-50.7336
0
LINE
8
BLACK
6
CONTINUOUS
10
237.411
20
-64.7828
11
223.362
21
-64.7828
0
LINE
8
BLACK
6
CONTINUOUS
10
180.261
20
-102.883
11
166.211
21
-102.883
0
LINE
8
BLACK
6
CONTINUOUS
10
242.412
20
-50.7334
11
256.461
21
-50.7334
0
LINE
8
BLACK
6
CONTINUOUS
10
237.411
20
-69.7835
11
237.411
21
-83.8329
0
LINE
8
BLACK
6
CONTINUOUS
10
104.061
20
-121.933
11
90.0116
21
-121.933
0
LINE
8
BLACK
6
CONTINUOUS
10
51.9111
20
-140.983
11
51.9111
21
-126.934
0
LINE
8
BLACK
6
CONTINUOUS
10
237.411
20
-126.933
11
237.411
21
-140.983
0
LINE
8
BLACK
6
CONTINUOUS
10
104.061
20
-102.883
11
90.0116
21
-102.883
0
LINE
8
BLACK
6
CONTINUOUS
10
85.0108
20
-64.7831
11
70.9615
21
-64.7831
0
LINE
8
BLACK
6
CONTINUOUS
10
157.347
20
-47.2421
11
93.8575
21
-47.2421
0
ARC
8
BLACK
10
10.3113
20
-146.116
40
2.99989
50
24.6232
51
90.0017
0
LINE
8
BLACK
6
CONTINUOUS
10
-5.23909
20
-64.7828
11
-5.23909
21
-50.7335
0
LINE
8
BLACK
6
CONTINUOUS
10
32.8612
20
-102.883
11
32.8612
21
-88.8338
0
LINE
8
BLACK
6
CONTINUOUS
10
65.9607
20
-107.884
11
65.9607
21
-121.933
0
LINE
8
BLACK
6
CONTINUOUS
10
199.311
20
-69.7836
11
199.311
21
-83.833
0
LINE
8
BLACK
6
CONTINUOUS
10
90.0116
20
-102.883
11
90.0116
21
-88.8339
0
LINE
8
BLACK
6
CONTINUOUS
10
218.361
20
-121.933
11
204.312
21
-121.933
0
LINE
8
BLACK
6
CONTINUOUS
10
8.81029
20
-64.7828
11
-5.23909
21
-64.7828
0
LINE
8
BLACK
6
CONTINUOUS
10
104.061
20
-88.8339
11
104.061
21
-102.883
0
LINE
8
BLACK
6
CONTINUOUS
10
32.8612
20
-69.7837
11
46.9106
21
-69.7837
0
LINE
8
BLACK
6
CONTINUOUS
10
206.727
20
-143.116
11
246.051
21
-143.116
0
LINE
8
BLACK
6
CONTINUOUS
10
13.8111
20
-69.7836
11
27.8604
21
-69.7836
0
LINE
8
BLACK
6
CONTINUOUS
10
91.1303
20
-45.4921
11
90.2296
21
-43.4921
0
LINE
8
BLACK
6
CONTINUOUS
10
261.462
20
-88.8335
11
275.511
21
-88.8335
0
LINE
8
BLACK
6
CONTINUOUS
10
51.9113
20
-50.7336
11
65.9607
21
-50.7336
0
LINE
8
BLACK
6
CONTINUOUS
10
275.512
20
-126.933
11
275.512
21
-140.983
0
LINE
8
BLACK
6
CONTINUOUS
10
51.9113
20
-121.933
11
51.9113
21
-107.884
0
LINE
8
BLACK
6
CONTINUOUS
10
104.061
20
-69.7838
11
104.061
21
-83.8332
0
LINE
8
BLACK
6
CONTINUOUS
10
46.9106
20
-64.783
11
32.8612
21
-64.783
0
LINE
8
BLACK
6
CONTINUOUS
10
70.9615
20
-83.8332
11
70.9615
21
-69.7838
0
LINE
8
BLACK
6
CONTINUOUS
10
199.311
20
-88.8337
11
199.311
21
-102.883
0
LINE
8
BLACK
6
CONTINUOUS
10
274.563
20
-47.2461
11
265.307
21
-47.2421
0
LINE
8
BLACK
6
CONTINUOUS
10
197.049
20
-125.624
11
197.049
21
-126.934
0
LINE
8
BLACK
6
CONTINUOUS
10
256.462
20
-126.933
11
256.462
21
-140.983
0
LINE
8
BLACK
6
CONTINUOUS
10
90.0116
20
-50.7338
11
104.061
21
-50.7338
0
LINE
8
BLACK
6
CONTINUOUS
10
85.0108
20
-69.7838
11
85.0108
21
-83.8332
0
LINE
8
BLACK
6
CONTINUOUS
10
-5.23932
20
-140.983
11
-5.23932
21
-126.934
0
LINE
8
BLACK
6
CONTINUOUS
10
51.9113
20
-102.883
11
51.9113
21
-88.8338
0
LINE
8
BLACK
6
CONTINUOUS
10
256.461
20
-64.7827
11
242.412
21
-64.7827
0
LINE
8
BLACK
6
CONTINUOUS
10
261.462
20
-64.7827
11
261.462
21
-50.7333
0
LINE
8
BLACK
6
CONTINUOUS
10
104.061
20
-126.934
11
101.798
21
-126.934
0
LINE
8
BLACK
6
CONTINUOUS
10
259.947
20
-143.116
11
275.897
21
-143.116
0
LINE
8
BLACK
6
CONTINUOUS
10
252.597
20
-47.2421
11
170.057
21
-47.2421
0
CIRCLE
8
BLACK
10
23.7775
20
-44.7421
40
1.5
0
LINE
8
BLACK
6
CONTINUOUS
10
13.8111
20
-83.833
11
13.8111
21
-69.7836
0
LINE
8
BLACK
6
CONTINUOUS
10
223.362
20
-64.7828
11
223.362
21
-50.7334
0
LINE
8
BLACK
6
CONTINUOUS
10
68.4526
20
-148.192
11
69.9463
21
-144.866
0
LINE
8
BLACK
6
CONTINUOUS
10
32.8612
20
-107.884
11
46.9106
21
-107.884
0
LINE
8
BLACK
6
CONTINUOUS
10
85.0108
20
-50.7337
11
85.0108
21
-64.7831
0
LINE
8
BLACK
6
CONTINUOUS
10
223.362
20
-121.933
11
223.362
21
-107.884
0
LINE
8
BLACK
6
CONTINUOUS
10
261.462
20
-140.983
11
261.462
21
-126.933
0
LINE
8
BLACK
6
CONTINUOUS
10
-5.01543
20
-47.535
11
-7.42964
21
-49.9492
0
LINE
8
BLACK
6
CONTINUOUS
10
277.685
20
-49.9532
11
275.27
21
-47.539
0
LINE
8
BLACK
6
CONTINUOUS
10
166.211
20
-102.883
11
166.211
21
-88.8338
0
LINE
8
BLACK
6
CONTINUOUS
10
256.461
20
-107.884
11
256.461
21
-121.933
0
LINE
8
BLACK
6
CONTINUOUS
10
256.461
20
-102.883
11
242.412
21
-102.883
0
LINE
8
BLACK
6
CONTINUOUS
10
242.412
20
-69.7834
11
256.461
21
-69.7834
0
LINE
8
BLACK
6
CONTINUOUS
10
199.311
20
-102.883
11
185.262
21
-102.883
0
LINE
8
BLACK
6
CONTINUOUS
10
65.9605
20
-140.983
11
51.9111
21
-140.983
0
ARC
8
BLACK
10
93.8574
20
-44.2422
40
2.99991
50
-155.377
51
-89.9989
0
LINE
8
BLACK
6
CONTINUOUS
10
204.312
20
-102.883
11
204.312
21
-88.8336
0
LINE
8
BLACK
6
CONTINUOUS
10
46.9106
20
-69.7837
11
46.9106
21
-83.833
0
LINE
8
BLACK
6
CONTINUOUS
10
223.362
20
-88.8336
11
237.411
21
-88.8336
0
LINE
8
BLACK
6
CONTINUOUS
10
262.58
20
-45.4921
11
261.68
21
-43.4921
0
LINE
8
BLACK
6
CONTINUOUS
10
242.412
20
-102.883
11
242.412
21
-88.8335
0
LINE
8
BLACK
6
CONTINUOUS
10
65.9607
20
-50.7336
11
65.9607
21
-64.783
0
LINE
8
BLACK
6
CONTINUOUS
10
199.311
20
-50.7335
11
199.311
21
-64.7829
0
LINE
8
BLACK
6
CONTINUOUS
10
199.311
20
-107.884
11
199.311
21
-121.933
0
ARC
8
BLACK
10
-6.72254
20
-141.028
40
0.999999
50
-180
51
-135
0
LINE
8
BLACK
6
CONTINUOUS
10
13.8111
20
-50.7335
11
27.8604
21
-50.7335
0
ARC
8
BLACK
10
206.727
20
-146.116
40
2.9999
50
89.9989
51
155.377
0
ARC
8
BLACK
10
157.348
20
-44.2422
40
2.99992
50
-90.0008
51
-24.623
0
LINE
8
BLACK
6
CONTINUOUS
10
90.0116
20
-83.8332
11
90.0116
21
-69.7838
0
LINE
8
BLACK
6
CONTINUOUS
10
167.33
20
-45.4921
11
166.43
21
-43.4921
0
LINE
8
BLACK
6
CONTINUOUS
10
166.211
20
-88.8338
11
180.261
21
-88.8338
0
LINE
8
BLACK
6
CONTINUOUS
10
108.942
20
-50.6142
11
108.942
21
-141.102
0
LINE
8
BLACK
6
CONTINUOUS
10
237.411
20
-140.983
11
223.362
21
-140.983
0
ARC
8
BLACK
10
-6.72254
20
-50.6563
40
0.999994
50
-225
51
-180
0
LINE
8
BLACK
6
CONTINUOUS
10
70.9615
20
-88.8339
11
85.0108
21
-88.8339
0
CIRCLE
8
BLACK
10
252.999
20
-146.942
40
1.5
0
LINE
8
BLACK
6
CONTINUOUS
10
51.9113
20
-64.783
11
51.9113
21
-50.7336
0
LINE
8
BLACK
6
CONTINUOUS
10
204.312
20
-64.7828
11
204.312
21
-50.7335
0
LINE
8
BLACK
6
CONTINUOUS
10
261.462
20
-126.933
11
275.512
21
-126.933
0
LINE
8
BLACK
6
CONTINUOUS
10
218.361
20
-83.8329
11
204.312
21
-83.8329
0
LINE
8
BLACK
6
CONTINUOUS
10
90.0116
20
-107.884
11
104.061
21
-107.884
0
LINE
8
BLACK
6
CONTINUOUS
10
197.049
20
-126.934
11
199.311
21
-126.934
0
LINE
8
BLACK
6
CONTINUOUS
10
-5.23909
20
-107.884
11
8.81029
21
-107.884
0
LINE
8
BLACK
6
CONTINUOUS
10
204.312
20
-126.934
11
218.361
21
-126.934
0
LINE
8
BLACK
6
CONTINUOUS
10
204.312
20
-69.7836
11
218.361
21
-69.7836
0
ARC
8
BLACK
10
30.1324
20
-44.2422
40
2.99991
50
-155.377
51
-89.9989
0
LINE
8
BLACK
6
CONTINUOUS
10
27.4053
20
-45.4921
11
26.5046
21
-43.4921
0
ARC
8
BLACK
10
17.2593
20
-146.942
40
3
50
-155.376
51
-24.6243
0
LINE
8
BLACK
6
CONTINUOUS
10
90.0116
20
-121.933
11
90.0116
21
-107.884
0
LINE
8
BLACK
6
CONTINUOUS
10
223.362
20
-69.7835
11
237.411
21
-69.7835
0
LINE
8
BLACK
6
CONTINUOUS
10
104.061
20
-64.7831
11
90.0116
21
-64.7831
0
ARC
8
BLACK
10
258.952
20
-44.7421
40
3
50
24.6243
51
155.376
0
LINE
8
BLACK
6
CONTINUOUS
10
51.9113
20
-107.884
11
65.9607
21
-107.884
0
LINE
8
BLACK
6
CONTINUOUS
10
180.261
20
-83.833
11
166.211
21
-83.833
0
LINE
8
BLACK
6
CONTINUOUS
10
223.362
20
-107.884
11
237.411
21
-107.884
0
LINE
8
BLACK
6
CONTINUOUS
10
72.6735
20
-143.116
11
192.831
21
-143.116
0
ARC
8
BLACK
10
192.831
20
-146.116
40
2.99989
50
24.6232
51
90.0017
0
LINE
8
BLACK
6
CONTINUOUS
10
13.8108
20
-126.934
11
27.8602
21
-126.934
0
LINE
8
BLACK
6
CONTINUOUS
10
13.8108
20
-140.983
11
13.8108
21
-126.934
0
LINE
8
BLACK
6
CONTINUOUS
10
51.9111
20
-126.934
11
65.9605
21
-126.934
0
LINE
8
BLACK
6
CONTINUOUS
10
185.262
20
-83.833
11
185.262
21
-69.7836
0
LINE
8
BLACK
6
CONTINUOUS
10
85.0108
20
-83.8332
11
70.9615
21
-83.8332
0
ARC
8
BLACK
10
276.977
20
-141.028
40
1.00006
50
-44.9974
51
0.000343754
0
LINE
8
BLACK
6
CONTINUOUS
10
275.511
20
-102.883
11
261.462
21
-102.883
0
LINE
8
BLACK
6
CONTINUOUS
10
242.412
20
-107.884
11
256.461
21
-107.884
0
LINE
8
BLACK
6
CONTINUOUS
10
256.225
20
-43.4921
11
255.325
21
-45.4921
0
LINE
8
BLACK
6
CONTINUOUS
10
32.8612
20
-64.783
11
32.8612
21
-50.7336
0
LINE
8
BLACK
6
CONTINUOUS
10
90.0116
20
-69.7838
11
104.061
21
-69.7838
0
LINE
8
BLACK
6
CONTINUOUS
10
180.261
20
-69.7837
11
180.261
21
-83.833
0
LINE
8
BLACK
6
CONTINUOUS
10
46.9103
20
-126.934
11
46.9103
21
-140.983
0
LINE
8
BLACK
6
CONTINUOUS
10
204.312
20
-107.884
11
218.361
21
-107.884
0
LINE
8
BLACK
6
CONTINUOUS
10
261.462
20
-107.884
11
275.511
21
-107.884
0
LINE
8
BLACK
6
CONTINUOUS
10
8.81029
20
-121.933
11
-5.23909
21
-121.933
0
LINE
8
BLACK
6
CONTINUOUS
10
223.362
20
-102.883
11
223.362
21
-88.8336
0
LINE
8
BLACK
6
CONTINUOUS
10
185.262
20
-102.883
11
185.262
21
-88.8337
0
LINE
8
BLACK
6
CONTINUOUS
10
168.474
20
-126.934
11
168.474
21
-125.624
0
LINE
8
BLACK
6
CONTINUOUS
10
256.461
20
-83.8328
11
242.412
21
-83.8328
0
LINE
8
BLACK
6
CONTINUOUS
10
261.462
20
-83.8328
11
261.462
21
-69.7834
0
LINE
8
BLACK
6
CONTINUOUS
10
204.312
20
-83.8329
11
204.312
21
-69.7836
0
LINE
8
BLACK
6
CONTINUOUS
10
256.461
20
-121.933
11
242.412
21
-121.933
0
LINE
8
BLACK
6
CONTINUOUS
10
223.362
20
-50.7334
11
237.411
21
-50.7334
0
LINE
8
BLACK
6
CONTINUOUS
10
276.605
20
-142.823
11
277.685
21
-141.735
0
ARC
8
BLACK
10
275.897
20
-142.116
40
1.00033
50
-89.9909
51
-45.006
0
LINE
8
BLACK
6
CONTINUOUS
10
202.507
20
-148.192
11
204
21
-144.866
0
LINE
8
BLACK
6
CONTINUOUS
10
-5.23909
20
-69.7836
11
8.81029
21
-69.7836
0
LINE
8
BLACK
6
CONTINUOUS
10
65.9607
20
-69.7837
11
65.9607
21
-83.8331
0
LINE
8
BLACK
6
CONTINUOUS
10
24.2075
20
-143.116
11
58.7773
21
-143.116
0
LINE
8
BLACK
6
CONTINUOUS
10
180.261
20
-50.7336
11
180.261
21
-64.783
0
LINE
8
BLACK
6
CONTINUOUS
10
160.975
20
-43.4921
11
160.075
21
-45.4921
0
LINE
8
BLACK
6
CONTINUOUS
10
46.9106
20
-121.933
11
32.8612
21
-121.933
0
LINE
8
BLACK
6
CONTINUOUS
10
65.9607
20
-64.783
11
51.9113
21
-64.783
0
LINE
8
BLACK
6
CONTINUOUS
10
275.511
20
-107.884
11
275.511
21
-121.933
0
LINE
8
BLACK
6
CONTINUOUS
10
108.942
20
-141.102
11
161.33
21
-141.102
0
LINE
8
BLACK
6
CONTINUOUS
10
65.9607
20
-102.883
11
51.9113
21
-102.883
0
ARC
8
BLACK
10
-4.3083
20
-48.2422
40
1.00006
50
90.0014
51
134.999
0
LINE
8
BLACK
6
CONTINUOUS
10
104.061
20
-107.884
11
104.061
21
-121.933
0
LINE
8
BLACK
6
CONTINUOUS
10
90.0116
20
-88.8339
11
104.061
21
-88.8339
0
LINE
8
BLACK
6
CONTINUOUS
10
13.8111
20
-102.883
11
13.8111
21
-88.8337
0
LINE
8
BLACK
6
CONTINUOUS
10
223.362
20
-140.983
11
223.362
21
-126.933
0
LINE
8
BLACK
6
CONTINUOUS
10
27.8604
20
-102.883
11
13.8111
21
-102.883
0
LINE
8
BLACK
6
CONTINUOUS
10
275.511
20
-50.7333
11
275.511
21
-64.7827
0
LINE
8
BLACK
6
CONTINUOUS
10
13.8111
20
-121.933
11
13.8111
21
-107.884
0
LINE
8
BLACK
6
CONTINUOUS
10
27.8604
20
-50.7335
11
27.8604
21
-64.7829
0
LINE
8
BLACK
6
CONTINUOUS
10
65.9607
20
-88.8338
11
65.9607
21
-102.883
0
LINE
8
BLACK
6
CONTINUOUS
10
261.462
20
-69.7834
11
275.511
21
-69.7834
0
LINE
8
BLACK
6
CONTINUOUS
10
70.9615
20
-64.7831
11
70.9615
21
-50.7337
0
ARC
8
BLACK
10
87.5025
20
-44.7421
40
3
50
24.6243
51
155.376
0
LINE
8
BLACK
6
CONTINUOUS
10
81.1475
20
-47.2421
11
30.1325
21
-47.2421
0
LINE
8
BLACK
6
CONTINUOUS
10
166.211
20
-69.7837
11
180.261
21
-69.7837
0
ARC
8
BLACK
10
65.7254
20
-146.942
40
3
50
-155.376
51
-24.6243
0
LINE
8
BLACK
6
CONTINUOUS
10
77.9859
20
-126.934
11
97.036
21
-126.934
0
LINE
8
BLACK
6
CONTINUOUS
10
70.9612
20
-126.934
11
73.223
21
-126.934
0
ARC
8
BLACK
10
252.598
20
-44.2422
40
2.99992
50
-90.0008
51
-24.623
0
LINE
8
BLACK
6
CONTINUOUS
10
168.474
20
-125.624
11
173.237
21
-125.624
0
LINE
8
BLACK
6
CONTINUOUS
10
166.212
20
-140.983
11
166.212
21
-126.934
0
LINE
8
BLACK
6
CONTINUOUS
10
70.9612
20
-140.983
11
70.9612
21
-126.934
0
LINE
8
BLACK
6
CONTINUOUS
10
8.81029
20
-50.7335
11
8.81029
21
-64.7828
0
LINE
8
BLACK
6
CONTINUOUS
10
32.8612
20
-50.7336
11
46.9106
21
-50.7336
0
LINE
8
BLACK
6
CONTINUOUS
10
27.8602
20
-140.983
11
13.8108
21
-140.983
0
LINE
8
BLACK
6
CONTINUOUS
10
199.311
20
-83.833
11
185.262
21
-83.833
0
LINE
8
BLACK
6
CONTINUOUS
10
85.0108
20
-102.883
11
70.9615
21
-102.883
0
LINE
8
BLACK
6
CONTINUOUS
10
17.4225
20
-47.2421
11
-4.30832
21
-47.2421
0
LINE
8
BLACK
6
CONTINUOUS
10
8.81029
20
-102.883
11
-5.23909
21
-102.883
0
CIRCLE
8
BLACK
10
87.5025
20
-44.7421
40
1.5
0
LINE
8
BLACK
6
CONTINUOUS
10
13.0384
20
-144.866
11
14.5322
21
-148.192
0
LINE
8
BLACK
6
CONTINUOUS
10
90.0116
20
-64.7831
11
90.0116
21
-50.7338
0
LINE
8
BLACK
6
CONTINUOUS
10
13.8111
20
-88.8337
11
27.8604
21
-88.8337
0
LINE
8
BLACK
6
CONTINUOUS
10
261.462
20
-50.7333
11
275.511
21
-50.7333
0
LINE
8
BLACK
6
CONTINUOUS
10
185.262
20
-88.8337
11
199.311
21
-88.8337
0
LINE
8
BLACK
6
CONTINUOUS
10
199.311
20
-126.934
11
199.311
21
-140.983
0
LINE
8
BLACK
6
CONTINUOUS
10
180.261
20
-88.8338
11
180.261
21
-102.883
0
LINE
8
BLACK
6
CONTINUOUS
10
218.361
20
-69.7836
11
218.361
21
-83.8329
0
LINE
8
BLACK
6
CONTINUOUS
10
275.511
20
-121.933
11
261.462
21
-121.933
0
LINE
8
BLACK
6
CONTINUOUS
10
27.8604
20
-121.933
11
13.8111
21
-121.933
0
LINE
8
BLACK
6
CONTINUOUS
10
218.361
20
-140.983
11
204.312
21
-140.983
0
LINE
8
BLACK
6
CONTINUOUS
10
218.361
20
-88.8336
11
218.361
21
-102.883
0
LINE
8
BLACK
6
CONTINUOUS
10
256.461
20
-69.7834
11
256.461
21
-83.8328
0
LINE
8
BLACK
6
CONTINUOUS
10
32.8612
20
-121.933
11
32.8612
21
-107.884
0
ARC
8
BLACK
10
58.7773
20
-146.116
40
2.99989
50
24.6228
51
90.0007
0
LINE
8
BLACK
6
CONTINUOUS
10
192.287
20
-125.624
11
197.049
21
-125.624
0
LINE
8
BLACK
6
CONTINUOUS
10
199.311
20
-121.933
11
185.262
21
-121.933
0
LINE
8
BLACK
6
CONTINUOUS
10
237.411
20
-88.8336
11
237.411
21
-102.883
0
LINE
8
BLACK
6
CONTINUOUS
10
70.9615
20
-69.7838
11
85.0108
21
-69.7838
0
CIRCLE
8
BLACK
10
17.2556
20
-146.942
40
1.5
0
ARC
8
BLACK
10
265.307
20
-44.2422
40
2.99991
50
-155.377
51
-89.9989
0
LINE
8
BLACK
6
CONTINUOUS
10
242.412
20
-121.933
11
242.412
21
-107.884
0
LINE
8
BLACK
6
CONTINUOUS
10
8.81005
20
-140.983
11
-5.23932
21
-140.983
0
LINE
8
BLACK
6
CONTINUOUS
10
85.0108
20
-121.933
11
70.9615
21
-121.933
0
LINE
8
BLACK
6
CONTINUOUS
10
185.262
20
-121.933
11
185.262
21
-107.884
0
LINE
8
BLACK
6
CONTINUOUS
10
277.977
20
-141.028
11
277.995
21
-107.222
0
CIRCLE
8
BLACK
10
65.721
20
-146.942
40
1.5
0
LINE
8
BLACK
6
CONTINUOUS
10
261.462
20
-121.933
11
261.462
21
-107.884
0
LINE
8
BLACK
6
CONTINUOUS
10
242.412
20
-126.933
11
256.462
21
-126.933
0
LINE
8
BLACK
6
CONTINUOUS
10
8.81029
20
-107.884
11
8.81029
21
-121.933
0
LINE
8
BLACK
6
CONTINUOUS
10
104.061
20
-83.8332
11
90.0116
21
-83.8332
0
ARC
8
BLACK
10
274.563
20
-48.2461
40
0.999992
50
44.9979
51
89.9974
0
LINE
8
BLACK
6
CONTINUOUS
10
85.0108
20
-88.8339
11
85.0108
21
-102.883
0
LINE
8
BLACK
6
CONTINUOUS
10
51.9113
20
-83.8331
11
51.9113
21
-69.7837
0
LINE
8
BLACK
6
CONTINUOUS
10
180.261
20
-121.933
11
166.211
21
-121.933
0
LINE
8
BLACK
6
CONTINUOUS
10
255.727
20
-148.192
11
257.22
21
-144.866
0
LINE
8
BLACK
6
CONTINUOUS
10
27.8602
20
-126.934
11
27.8602
21
-140.983
0
ARC
8
BLACK
10
199.779
20
-146.942
40
3
50
-155.376
51
-24.6243
0
ARC
8
BLACK
10
252.999
20
-146.942
40
3
50
-155.376
51
-24.6243
0
ARC
8
BLACK
10
170.057
20
-44.2422
40
2.99991
50
-155.377
51
-89.9989
0
CIRCLE
8
BLACK
10
199.777
20
-146.942
40
1.5
0
LINE
8
BLACK
6
CONTINUOUS
10
8.81029
20
-83.8329
11
-5.23909
21
-83.8329
0
LINE
8
BLACK
6
CONTINUOUS
10
70.9615
20
-121.933
11
70.9615
21
-107.884
0
LINE
8
BLACK
6
CONTINUOUS
10
248.778
20
-144.866
11
250.272
21
-148.192
0
LINE
8
BLACK
6
CONTINUOUS
10
204.312
20
-140.983
11
204.312
21
-126.934
0
LINE
8
BLACK
6
CONTINUOUS
10
237.411
20
-107.884
11
237.411
21
-121.933
0
ARC
8
BLACK
10
246.051
20
-146.116
40
2.99989
50
24.6232
51
90.0017
0
LINE
8
BLACK
6
CONTINUOUS
10
256.461
20
-88.8335
11
256.461
21
-102.883
0
LINE
8
BLACK
6
CONTINUOUS
10
166.211
20
-107.884
11
180.261
21
-107.884
0
LINE
8
BLACK
6
CONTINUOUS
10
27.8604
20
-88.8337
11
27.8604
21
-102.883
0
LINE
8
BLACK
6
CONTINUOUS
10
46.9103
20
-140.983
11
32.861
21
-140.983
0
LINE
8
BLACK
6
CONTINUOUS
10
166.211
20
-64.783
11
166.211
21
-50.7336
0
ARC
8
BLACK
10
23.7775
20
-44.7421
40
3
50
24.6243
51
155.376
0
LINE
8
BLACK
6
CONTINUOUS
10
173.236
20
-126.934
11
192.286
21
-126.934
0
LINE
8
BLACK
6
CONTINUOUS
10
237.411
20
-83.8329
11
223.362
21
-83.8329
0
LINE
8
BLACK
6
CONTINUOUS
10
13.8111
20
-107.884
11
27.8604
21
-107.884
0
LINE
8
BLACK
6
CONTINUOUS
10
84.7753
20
-43.4921
11
83.8746
21
-45.4921
0
LINE
8
BLACK
6
CONTINUOUS
10
195.558
20
-144.866
11
197.052
21
-148.192
0
LINE
8
BLACK
6
CONTINUOUS
10
27.8604
20
-64.7829
11
13.8111
21
-64.7829
0
LINE
8
BLACK
6
CONTINUOUS
10
27.8604
20
-69.7836
11
27.8604
21
-83.833
0
LINE
8
BLACK
6
CONTINUOUS
10
13.8111
20
-64.7829
11
13.8111
21
-50.7335
0
LINE
8
BLACK
6
CONTINUOUS
10
32.8612
20
-83.833
11
32.8612
21
-69.7837
0
LINE
8
BLACK
6
CONTINUOUS
10
204.312
20
-88.8336
11
218.361
21
-88.8336
0
LINE
8
BLACK
6
CONTINUOUS
10
218.361
20
-102.883
11
204.312
21
-102.883
0
LINE
8
BLACK
6
CONTINUOUS
10
70.9615
20
-102.883
11
70.9615
21
-88.8339
0
LINE
8
BLACK
6
CONTINUOUS
10
242.412
20
-88.8335
11
256.461
21
-88.8335
0
LINE
8
BLACK
6
CONTINUOUS
10
275.511
20
-83.8328
11
261.462
21
-83.8328
0
LINE
8
BLACK
6
CONTINUOUS
10
168.474
20
-126.934
11
166.212
21
-126.934
0
LINE
8
BLACK
6
CONTINUOUS
10
185.262
20
-69.7836
11
199.311
21
-69.7836
0
LINE
8
BLACK
6
CONTINUOUS
10
192.286
20
-126.934
11
192.287
21
-125.624
0
LINE
8
BLACK
6
CONTINUOUS
10
173.237
20
-125.624
11
173.236
21
-126.934
0
LINE
8
BLACK
6
CONTINUOUS
10
204.312
20
-50.7335
11
218.361
21
-50.7335
0
LINE
8
BLACK
6
CONTINUOUS
10
237.411
20
-50.7334
11
237.411
21
-64.7828
0
LINE
8
BLACK
6
CONTINUOUS
10
256.462
20
-140.983
11
242.412
21
-140.983
0
LINE
8
BLACK
6
CONTINUOUS
10
180.261
20
-107.884
11
180.261
21
-121.933
0
LINE
8
BLACK
6
CONTINUOUS
10
65.9607
20
-121.933
11
51.9113
21
-121.933
0
LINE
8
BLACK
6
CONTINUOUS
10
199.311
20
-140.983
11
166.212
21
-140.983
0
LINE
8
BLACK
6
CONTINUOUS
10
85.0108
20
-107.884
11
85.0108
21
-121.933
0
LINE
8
BLACK
6
CONTINUOUS
10
8.81029
20
-69.7836
11
8.81029
21
-83.8329
0
ARC
8
BLACK
10
72.6734
20
-146.116
40
2.99985
50
89.9979
51
155.377
0
LINE
8
BLACK
6
CONTINUOUS
10
256.461
20
-50.7334
11
256.461
21
-64.7827
0
ARC
8
BLACK
10
-5.64241
20
-142.116
40
1.00031
50
-134.993
51
-90.0073
0
LINE
8
BLACK
6
CONTINUOUS
10
161.33
20
-50.6144
11
161.33
21
-141.102
0
CIRCLE
8
BLACK
10
163.702
20
-44.7421
40
1.5
0
LINE
8
BLACK
6
CONTINUOUS
10
242.412
20
-83.8328
11
242.412
21
-69.7834
0
LINE
8
BLACK
6
CONTINUOUS
10
-5.23909
20
-88.8336
11
8.81029
21
-88.8336
0
LINE
8
BLACK
6
CONTINUOUS
10
8.81005
20
-126.934
11
8.81005
21
-140.983
0
LINE
8
BLACK
6
CONTINUOUS
10
199.311
20
-64.7829
11
185.262
21
-64.7829
0
LINE
8
BLACK
6
CONTINUOUS
10
-5.64254
20
-143.116
11
10.3112
21
-143.116
0
LINE
8
BLACK
6
CONTINUOUS
10
65.9605
20
-126.934
11
65.9605
21
-140.983
0
ARC
8
BLACK
10
163.702
20
-44.7421
40
3
50
24.6243
51
155.376
0
LINE
8
BLACK
6
CONTINUOUS
10
223.362
20
-83.8329
11
223.362
21
-69.7835
0
LINE
8
BLACK
6
CONTINUOUS
10
242.412
20
-64.7827
11
242.412
21
-50.7334
0
LINE
8
BLACK
6
CONTINUOUS
10
185.262
20
-107.884
11
199.311
21
-107.884
0
ARC
8
BLACK
10
17.4225
20
-44.2422
40
2.99989
50
-90.0014
51
-24.6229
0
LINE
8
BLACK
6
CONTINUOUS
10
27.8604
20
-83.833
11
13.8111
21
-83.833
  0
ENDSEC
  0
EOF
