  0
SECTION
  2
HEADER
  9
$ANGBASE
  50
0.0
  9
$ANGDIR
  70
1
  9
$MEASUREMENT
  70
1
  0
ENDSEC
  0
SECTION
  2
TABLES
  0
TABLE
  2
LTYPE
  70
4
  0
LTYPE
  5
40F
  2
CONTINUOUS
  70
0
  3
Solid line
  72
65
  73
0
  40
0.0
  0
LTYPE
  5
410
  2
DASHDOT
 70
0
  3
Dash Dot ____ _ ____ _
 72
65
 73
4
 40
2.0
 49
1.25
 49
-0.25
 49
0.25
 49
-0.25
  0
LTYPE
  5
411
  2
DASHED
 70
0
  3
Dashed __ __ __ __ __
 72
65
 73
2
 40
0.75
 49
0.5
 49
-0.25
  0
LTYPE
  5
43B
  2
DOTTED
 70
0
  3
Dotted .  .  .  .
 72
65
 73
2
 40
0.2
 49
0.0
 49
-0.2
  0
ENDTAB
  0
TABLE
  2
STYLE
  70
4
  0
STYLE
  2
KICAD
  70
0
  40
0
  41
1
  42
1
  50
0
  71
0
  3
isocp.shx
  0
STYLE
  2
KICADB
  70
0
  40
0
  41
1
  42
1
  50
0
  71
0
  3
isocp.shx
  0
STYLE
  2
KICADI
  70
0
  40
0
  41
1
  42
1
  50
15
  71
0
  3
isocp.shx
  0
STYLE
  2
KICADBI
  70
0
  40
0
  41
1
  42
1
  50
15
  71
0
  3
isocp.shx
  0
ENDTAB
  0
TABLE
  2
LAYER
  70
1
  0
LAYER
  2
BLACK
  70
0
  62
7
  6
CONTINUOUS
  0
ENDTAB
  0
ENDSEC
  0
SECTION
  2
ENTITIES
0
LINE
8
BLACK
6
CONTINUOUS
10
275.035
20
-99.2982
11
275.035
21
-133.231
0
LINE
8
BLACK
6
CONTINUOUS
10
-8.92987
20
-135.017
11
273.249
21
-135.017
0
ARC
8
BLACK
10
-8.92987
20
-41.5529
40
1.78594
50
-270
51
-180
0
ARC
8
BLACK
10
-8.92987
20
-133.231
40
1.78594
50
-180
51
-90
0
LINE
8
BLACK
6
CONTINUOUS
10
-10.7158
20
-41.5529
11
-10.7158
21
-94.5357
0
LINE
8
BLACK
6
CONTINUOUS
10
-10.7158
20
-99.2982
11
-10.7158
21
-133.231
0
LINE
8
BLACK
6
CONTINUOUS
10
158.354
20
-42.1483
11
105.966
21
-42.1481
0
LINE
8
BLACK
6
CONTINUOUS
10
200.621
20
-93.8216
11
200.621
21
-80.9628
0
LINE
8
BLACK
6
CONTINUOUS
10
235.268
20
-119.063
11
235.268
21
-131.922
0
LINE
8
BLACK
6
CONTINUOUS
10
273.369
20
-131.922
11
257.771
21
-131.922
0
LINE
8
BLACK
6
CONTINUOUS
10
197.168
20
-112.872
11
181.571
21
-112.872
0
LINE
8
BLACK
6
CONTINUOUS
10
44.6479
20
-119.063
11
44.6479
21
-131.922
0
LINE
8
BLACK
6
CONTINUOUS
10
273.369
20
-94.5357
11
275.035
21
-94.5357
0
LINE
8
BLACK
6
CONTINUOUS
10
82.7481
20
-74.7716
11
67.1508
21
-74.7716
0
LINE
8
BLACK
6
CONTINUOUS
10
101.798
20
-80.9628
11
101.798
21
-93.8216
0
LINE
8
BLACK
6
CONTINUOUS
10
10.0006
20
-80.9628
11
25.5978
21
-80.9628
0
LINE
8
BLACK
6
CONTINUOUS
10
6.54774
20
-42.8627
11
6.54774
21
-55.7215
0
LINE
8
BLACK
6
CONTINUOUS
10
254.319
20
-131.922
11
238.721
21
-131.922
0
LINE
8
BLACK
6
CONTINUOUS
10
44.6479
20
-61.9128
11
44.6479
21
-74.7716
0
LINE
8
BLACK
6
CONTINUOUS
10
273.369
20
-74.7716
11
257.771
21
-74.7716
0
LINE
8
BLACK
6
CONTINUOUS
10
63.698
20
-61.9128
11
63.698
21
-74.7716
0
LINE
8
BLACK
6
CONTINUOUS
10
200.621
20
-61.9128
11
216.218
21
-61.9128
0
LINE
8
BLACK
6
CONTINUOUS
10
86.2009
20
-93.8216
11
86.2009
21
-80.9628
0
LINE
8
BLACK
6
CONTINUOUS
10
197.168
20
-55.7215
11
181.571
21
-55.7215
0
LINE
8
BLACK
6
CONTINUOUS
10
63.698
20
-131.922
11
48.1007
21
-131.922
0
LINE
8
BLACK
6
CONTINUOUS
10
200.621
20
-55.7215
11
200.621
21
-42.8627
0
LINE
8
BLACK
6
CONTINUOUS
10
-9.04952
20
-131.922
11
-9.04952
21
-119.063
0
LINE
8
BLACK
6
CONTINUOUS
10
82.7481
20
-100.013
11
82.7481
21
-112.872
0
LINE
8
BLACK
6
CONTINUOUS
10
162.521
20
-55.7215
11
162.521
21
-42.8627
0
LINE
8
BLACK
6
CONTINUOUS
10
162.521
20
-131.922
11
162.521
21
-119.063
0
LINE
8
BLACK
6
CONTINUOUS
10
216.218
20
-61.9128
11
216.218
21
-74.7716
0
LINE
8
BLACK
6
CONTINUOUS
10
235.268
20
-93.8216
11
219.671
21
-93.8216
0
LINE
8
BLACK
6
CONTINUOUS
10
257.771
20
-93.8216
11
257.771
21
-80.9628
0
LINE
8
BLACK
6
CONTINUOUS
10
48.1007
20
-93.8216
11
48.1007
21
-80.9628
0
LINE
8
BLACK
6
CONTINUOUS
10
181.571
20
-131.922
11
181.571
21
-119.063
0
LINE
8
BLACK
6
CONTINUOUS
10
6.54774
20
-74.7716
11
-9.04952
21
-74.7716
0
LINE
8
BLACK
6
CONTINUOUS
10
200.621
20
-80.9628
11
216.218
21
-80.9628
0
LINE
8
BLACK
6
CONTINUOUS
10
44.6479
20
-80.9628
11
44.6479
21
-93.8216
0
LINE
8
BLACK
6
CONTINUOUS
10
86.2009
20
-42.8627
11
101.798
21
-42.8627
0
LINE
8
BLACK
6
CONTINUOUS
10
6.54774
20
-55.7215
11
-9.04952
21
-55.7215
0
LINE
8
BLACK
6
CONTINUOUS
10
101.798
20
-42.8627
11
101.798
21
-55.7215
0
LINE
8
BLACK
6
CONTINUOUS
10
254.319
20
-119.063
11
254.319
21
-131.922
0
LINE
8
BLACK
6
CONTINUOUS
10
219.671
20
-100.013
11
235.268
21
-100.013
0
LINE
8
BLACK
6
CONTINUOUS
10
67.1508
20
-80.9628
11
82.7481
21
-80.9628
0
LINE
8
BLACK
6
CONTINUOUS
10
235.268
20
-55.7215
11
219.671
21
-55.7215
0
LINE
8
BLACK
6
CONTINUOUS
10
181.571
20
-61.9128
11
197.168
21
-61.9128
0
LINE
8
BLACK
6
CONTINUOUS
10
219.671
20
-80.9628
11
235.268
21
-80.9628
0
LINE
8
BLACK
6
CONTINUOUS
10
238.721
20
-74.7716
11
238.721
21
-61.9128
0
LINE
8
BLACK
6
CONTINUOUS
10
67.1508
20
-131.922
11
67.1508
21
-119.063
0
LINE
8
BLACK
6
CONTINUOUS
10
29.0506
20
-61.9128
11
44.6479
21
-61.9128
0
LINE
8
BLACK
6
CONTINUOUS
10
162.521
20
-74.7716
11
162.521
21
-61.9128
0
LINE
8
BLACK
6
CONTINUOUS
10
44.6479
20
-55.7215
11
29.0506
21
-55.7215
0
LINE
8
BLACK
6
CONTINUOUS
10
-9.04952
20
-112.872
11
-9.04952
21
-99.2982
0
LINE
8
BLACK
6
CONTINUOUS
10
238.721
20
-61.9128
11
254.319
21
-61.9128
0
LINE
8
BLACK
6
CONTINUOUS
10
25.5978
20
-131.922
11
10.0006
21
-131.922
0
LINE
8
BLACK
6
CONTINUOUS
10
29.0506
20
-119.063
11
44.6479
21
-119.063
0
LINE
8
BLACK
6
CONTINUOUS
10
86.2009
20
-119.063
11
101.798
21
-119.063
0
LINE
8
BLACK
6
CONTINUOUS
10
63.698
20
-74.7716
11
48.1007
21
-74.7716
0
LINE
8
BLACK
6
CONTINUOUS
10
-9.04952
20
-55.7215
11
-9.04952
21
-42.8627
0
LINE
8
BLACK
6
CONTINUOUS
10
238.721
20
-112.872
11
238.721
21
-100.013
0
LINE
8
BLACK
6
CONTINUOUS
10
10.0006
20
-55.7215
11
10.0006
21
-42.8627
0
LINE
8
BLACK
6
CONTINUOUS
10
-10.7157
20
-94.5357
11
-9.04952
21
-94.5357
0
LINE
8
BLACK
6
CONTINUOUS
10
216.218
20
-100.013
11
216.218
21
-112.872
0
LINE
8
BLACK
6
CONTINUOUS
10
197.168
20
-93.8216
11
181.571
21
-93.8216
0
LINE
8
BLACK
6
CONTINUOUS
10
67.1508
20
-100.013
11
82.7481
21
-100.013
0
LINE
8
BLACK
6
CONTINUOUS
10
273.369
20
-55.7215
11
257.771
21
-55.7215
0
LINE
8
BLACK
6
CONTINUOUS
10
-9.04952
20
-80.9628
11
6.54774
21
-80.9628
0
LINE
8
BLACK
6
CONTINUOUS
10
219.671
20
-119.063
11
235.268
21
-119.063
0
LINE
8
BLACK
6
CONTINUOUS
10
6.54774
20
-131.922
11
-9.04952
21
-131.922
0
LINE
8
BLACK
6
CONTINUOUS
10
162.521
20
-119.063
11
178.118
21
-119.063
0
LINE
8
BLACK
6
CONTINUOUS
10
29.0506
20
-74.7716
11
29.0506
21
-61.9128
0
LINE
8
BLACK
6
CONTINUOUS
10
181.571
20
-119.063
11
197.168
21
-119.063
0
LINE
8
BLACK
6
CONTINUOUS
10
25.5978
20
-80.9628
11
25.5978
21
-93.8216
0
LINE
8
BLACK
6
CONTINUOUS
10
101.798
20
-100.013
11
101.798
21
-112.872
0
LINE
8
BLACK
6
CONTINUOUS
10
197.168
20
-119.063
11
197.168
21
-131.922
0
LINE
8
BLACK
6
CONTINUOUS
10
219.671
20
-55.7215
11
219.671
21
-42.8627
0
LINE
8
BLACK
6
CONTINUOUS
10
10.0006
20
-93.8216
11
10.0006
21
-80.9628
0
ARC
8
BLACK
10
273.249
20
-41.5529
40
1.78594
50
-3.20816e-05
51
90
0
LINE
8
BLACK
6
CONTINUOUS
10
48.1007
20
-74.7716
11
48.1007
21
-61.9128
0
LINE
8
BLACK
6
CONTINUOUS
10
82.7481
20
-80.9628
11
82.7481
21
-93.8216
0
LINE
8
BLACK
6
CONTINUOUS
10
101.798
20
-131.922
11
86.2009
21
-131.922
0
LINE
8
BLACK
6
CONTINUOUS
10
178.118
20
-42.8627
11
178.118
21
-55.7215
0
LINE
8
BLACK
6
CONTINUOUS
10
216.218
20
-55.7215
11
200.621
21
-55.7215
0
LINE
8
BLACK
6
CONTINUOUS
10
-9.04952
20
-94.5357
11
-9.04952
21
-80.9628
0
LINE
8
BLACK
6
CONTINUOUS
10
254.319
20
-100.013
11
254.319
21
-112.872
0
LINE
8
BLACK
6
CONTINUOUS
10
219.671
20
-112.872
11
219.671
21
-100.013
0
LINE
8
BLACK
6
CONTINUOUS
10
235.268
20
-112.872
11
219.671
21
-112.872
0
LINE
8
BLACK
6
CONTINUOUS
10
257.771
20
-112.872
11
257.771
21
-100.013
0
LINE
8
BLACK
6
CONTINUOUS
10
82.7481
20
-61.9128
11
82.7481
21
-74.7716
0
LINE
8
BLACK
6
CONTINUOUS
10
178.118
20
-55.7215
11
162.521
21
-55.7215
0
LINE
8
BLACK
6
CONTINUOUS
10
101.798
20
-61.9128
11
101.798
21
-74.7716
0
LINE
8
BLACK
6
CONTINUOUS
10
63.698
20
-112.872
11
48.1007
21
-112.872
0
LINE
8
BLACK
6
CONTINUOUS
10
82.7481
20
-55.7215
11
67.1508
21
-55.7215
0
LINE
8
BLACK
6
CONTINUOUS
10
86.2009
20
-80.9628
11
101.798
21
-80.9628
0
LINE
8
BLACK
6
CONTINUOUS
10
101.798
20
-93.8216
11
86.2009
21
-93.8216
0
LINE
8
BLACK
6
CONTINUOUS
10
29.0506
20
-80.9628
11
44.6479
21
-80.9628
0
LINE
8
BLACK
6
CONTINUOUS
10
63.698
20
-119.063
11
63.698
21
-131.922
0
LINE
8
BLACK
6
CONTINUOUS
10
6.54774
20
-93.8216
11
-3.92981
21
-93.8216
0
LINE
8
BLACK
6
CONTINUOUS
10
82.7481
20
-131.922
11
67.1508
21
-131.922
0
LINE
8
BLACK
6
CONTINUOUS
10
25.5978
20
-100.013
11
25.5978
21
-112.872
0
LINE
8
BLACK
6
CONTINUOUS
10
178.118
20
-61.9128
11
178.118
21
-74.7716
0
LINE
8
BLACK
6
CONTINUOUS
10
48.1007
20
-119.063
11
63.698
21
-119.063
0
LINE
8
BLACK
6
CONTINUOUS
10
216.218
20
-42.8627
11
216.218
21
-55.7215
0
LINE
8
BLACK
6
CONTINUOUS
10
-3.92981
20
-100.013
11
-3.92981
21
-93.8216
0
LINE
8
BLACK
6
CONTINUOUS
10
67.1508
20
-93.8216
11
67.1508
21
-80.9628
0
LINE
8
BLACK
6
CONTINUOUS
10
10.0006
20
-42.8627
11
25.5978
21
-42.8627
0
LINE
8
BLACK
6
CONTINUOUS
10
105.966
20
-42.1481
11
105.966
21
-132.636
0
LINE
8
BLACK
6
CONTINUOUS
10
178.118
20
-80.9628
11
178.118
21
-93.8216
0
LINE
8
BLACK
6
CONTINUOUS
10
86.2009
20
-100.013
11
101.798
21
-100.013
0
LINE
8
BLACK
6
CONTINUOUS
10
235.268
20
-131.922
11
219.671
21
-131.922
0
LINE
8
BLACK
6
CONTINUOUS
10
238.721
20
-100.013
11
254.319
21
-100.013
0
LINE
8
BLACK
6
CONTINUOUS
10
44.6479
20
-93.8216
11
29.0506
21
-93.8216
0
LINE
8
BLACK
6
CONTINUOUS
10
273.369
20
-99.2982
11
275.035
21
-99.2982
0
LINE
8
BLACK
6
CONTINUOUS
10
238.721
20
-131.922
11
238.721
21
-119.063
0
LINE
8
BLACK
6
CONTINUOUS
10
254.319
20
-55.7215
11
238.721
21
-55.7215
0
LINE
8
BLACK
6
CONTINUOUS
10
257.771
20
-80.9628
11
273.369
21
-80.9628
0
LINE
8
BLACK
6
CONTINUOUS
10
273.369
20
-42.8627
11
273.369
21
-55.7215
0
LINE
8
BLACK
6
CONTINUOUS
10
48.1007
20
-100.013
11
63.698
21
-100.013
0
LINE
8
BLACK
6
CONTINUOUS
10
48.1007
20
-80.9628
11
63.698
21
-80.9628
0
LINE
8
BLACK
6
CONTINUOUS
10
273.369
20
-119.063
11
273.369
21
-131.922
0
LINE
8
BLACK
6
CONTINUOUS
10
219.671
20
-131.922
11
219.671
21
-119.063
0
LINE
8
BLACK
6
CONTINUOUS
10
10.0006
20
-119.063
11
25.5978
21
-119.063
0
LINE
8
BLACK
6
CONTINUOUS
10
44.6479
20
-100.013
11
44.6479
21
-112.872
0
LINE
8
BLACK
6
CONTINUOUS
10
216.218
20
-74.7716
11
200.621
21
-74.7716
0
LINE
8
BLACK
6
CONTINUOUS
10
6.54774
20
-100.013
11
6.54774
21
-112.872
0
LINE
8
BLACK
6
CONTINUOUS
10
273.369
20
-61.9128
11
273.369
21
-74.7716
0
LINE
8
BLACK
6
CONTINUOUS
10
44.6479
20
-74.7716
11
29.0506
21
-74.7716
0
LINE
8
BLACK
6
CONTINUOUS
10
48.1007
20
-131.922
11
48.1007
21
-119.063
0
LINE
8
BLACK
6
CONTINUOUS
10
197.168
20
-100.013
11
197.168
21
-112.872
0
LINE
8
BLACK
6
CONTINUOUS
10
29.0506
20
-55.7215
11
29.0506
21
-42.8627
0
LINE
8
BLACK
6
CONTINUOUS
10
67.1508
20
-55.7215
11
67.1508
21
-42.8627
0
LINE
8
BLACK
6
CONTINUOUS
10
29.0506
20
-93.8216
11
29.0506
21
-80.9628
0
LINE
8
BLACK
6
CONTINUOUS
10
25.5978
20
-93.8216
11
10.0006
21
-93.8216
0
LINE
8
BLACK
6
CONTINUOUS
10
-9.04952
20
-42.8627
11
6.54774
21
-42.8627
0
LINE
8
BLACK
6
CONTINUOUS
10
181.571
20
-74.7716
11
181.571
21
-61.9128
0
LINE
8
BLACK
6
CONTINUOUS
10
29.0506
20
-131.922
11
29.0506
21
-119.063
0
LINE
8
BLACK
6
CONTINUOUS
10
10.0006
20
-74.7716
11
10.0006
21
-61.9128
0
LINE
8
BLACK
6
CONTINUOUS
10
257.771
20
-74.7716
11
257.771
21
-61.9128
0
LINE
8
BLACK
6
CONTINUOUS
10
82.7481
20
-119.063
11
82.7481
21
-131.922
0
LINE
8
BLACK
6
CONTINUOUS
10
238.721
20
-93.8216
11
238.721
21
-80.9628
0
LINE
8
BLACK
6
CONTINUOUS
10
235.268
20
-80.9628
11
235.268
21
-93.8216
0
LINE
8
BLACK
6
CONTINUOUS
10
-3.92981
20
-100.013
11
6.54774
21
-100.013
0
LINE
8
BLACK
6
CONTINUOUS
10
67.1508
20
-112.872
11
67.1508
21
-100.013
0
LINE
8
BLACK
6
CONTINUOUS
10
235.268
20
-100.013
11
235.268
21
-112.872
0
LINE
8
BLACK
6
CONTINUOUS
10
6.54774
20
-80.9628
11
6.54774
21
-93.8216
0
LINE
8
BLACK
6
CONTINUOUS
10
238.721
20
-55.7215
11
238.721
21
-42.8627
0
LINE
8
BLACK
6
CONTINUOUS
10
178.118
20
-93.8216
11
162.521
21
-93.8216
0
LINE
8
BLACK
6
CONTINUOUS
10
10.0006
20
-131.922
11
10.0006
21
-119.063
0
LINE
8
BLACK
6
CONTINUOUS
10
254.319
20
-42.8627
11
254.319
21
-55.7215
0
LINE
8
BLACK
6
CONTINUOUS
10
216.218
20
-93.8216
11
200.621
21
-93.8216
0
LINE
8
BLACK
6
CONTINUOUS
10
254.319
20
-112.872
11
238.721
21
-112.872
0
LINE
8
BLACK
6
CONTINUOUS
10
82.7481
20
-93.8216
11
67.1508
21
-93.8216
0
LINE
8
BLACK
6
CONTINUOUS
10
48.1007
20
-55.7215
11
48.1007
21
-42.8627
0
LINE
8
BLACK
6
CONTINUOUS
10
44.6479
20
-131.922
11
29.0506
21
-131.922
0
LINE
8
BLACK
6
CONTINUOUS
10
178.118
20
-112.872
11
162.521
21
-112.872
0
LINE
8
BLACK
6
CONTINUOUS
10
257.771
20
-42.8627
11
273.369
21
-42.8627
0
LINE
8
BLACK
6
CONTINUOUS
10
162.521
20
-42.8627
11
178.118
21
-42.8627
0
LINE
8
BLACK
6
CONTINUOUS
10
200.621
20
-42.8627
11
216.218
21
-42.8627
0
LINE
8
BLACK
6
CONTINUOUS
10
200.621
20
-74.7716
11
200.621
21
-61.9128
0
LINE
8
BLACK
6
CONTINUOUS
10
48.1007
20
-112.872
11
48.1007
21
-100.013
0
LINE
8
BLACK
6
CONTINUOUS
10
29.0506
20
-112.872
11
29.0506
21
-100.013
0
LINE
8
BLACK
6
CONTINUOUS
10
86.2009
20
-74.7716
11
86.2009
21
-61.9128
0
LINE
8
BLACK
6
CONTINUOUS
10
219.671
20
-74.7716
11
219.671
21
-61.9128
0
LINE
8
BLACK
6
CONTINUOUS
10
105.966
20
-132.636
11
158.354
21
-132.636
0
LINE
8
BLACK
6
CONTINUOUS
10
101.798
20
-112.872
11
86.2009
21
-112.872
0
LINE
8
BLACK
6
CONTINUOUS
10
63.698
20
-55.7215
11
48.1007
21
-55.7215
0
LINE
8
BLACK
6
CONTINUOUS
10
273.369
20
-80.9628
11
273.369
21
-94.5357
0
LINE
8
BLACK
6
CONTINUOUS
10
67.1508
20
-119.063
11
82.7481
21
-119.063
0
LINE
8
BLACK
6
CONTINUOUS
10
6.54774
20
-119.063
11
6.54774
21
-131.922
0
LINE
8
BLACK
6
CONTINUOUS
10
219.671
20
-93.8216
11
219.671
21
-80.9628
0
LINE
8
BLACK
6
CONTINUOUS
10
63.698
20
-100.013
11
63.698
21
-112.872
0
LINE
8
BLACK
6
CONTINUOUS
10
25.5978
20
-119.063
11
25.5978
21
-131.922
0
LINE
8
BLACK
6
CONTINUOUS
10
10.0006
20
-61.9128
11
25.5978
21
-61.9128
0
LINE
8
BLACK
6
CONTINUOUS
10
235.268
20
-42.8627
11
235.268
21
-55.7215
0
LINE
8
BLACK
6
CONTINUOUS
10
162.521
20
-93.8216
11
162.521
21
-80.9628
0
LINE
8
BLACK
6
CONTINUOUS
10
25.5978
20
-42.8627
11
25.5978
21
-55.7215
0
LINE
8
BLACK
6
CONTINUOUS
10
44.6479
20
-112.872
11
29.0506
21
-112.872
0
LINE
8
BLACK
6
CONTINUOUS
10
101.798
20
-55.7215
11
86.2009
21
-55.7215
0
LINE
8
BLACK
6
CONTINUOUS
10
-9.04952
20
-61.9128
11
6.54774
21
-61.9128
0
LINE
8
BLACK
6
CONTINUOUS
10
200.621
20
-100.013
11
216.218
21
-100.013
0
LINE
8
BLACK
6
CONTINUOUS
10
235.268
20
-74.7716
11
219.671
21
-74.7716
0
LINE
8
BLACK
6
CONTINUOUS
10
273.249
20
-39.7669
11
-8.92987
21
-39.7669
0
LINE
8
BLACK
6
CONTINUOUS
10
216.218
20
-80.9628
11
216.218
21
-93.8216
0
LINE
8
BLACK
6
CONTINUOUS
10
48.1007
20
-42.8627
11
63.698
21
-42.8627
0
LINE
8
BLACK
6
CONTINUOUS
10
275.035
20
-41.5529
11
275.035
21
-94.5357
0
LINE
8
BLACK
6
CONTINUOUS
10
86.2009
20
-131.922
11
86.2009
21
-119.063
0
LINE
8
BLACK
6
CONTINUOUS
10
82.7481
20
-42.8627
11
82.7481
21
-55.7215
0
LINE
8
BLACK
6
CONTINUOUS
10
25.5978
20
-55.7215
11
10.0006
21
-55.7215
0
LINE
8
BLACK
6
CONTINUOUS
10
86.2009
20
-61.9128
11
101.798
21
-61.9128
0
LINE
8
BLACK
6
CONTINUOUS
10
268.249
20
-93.8216
11
268.249
21
-100.013
0
LINE
8
BLACK
6
CONTINUOUS
10
235.268
20
-61.9128
11
235.268
21
-74.7716
0
LINE
8
BLACK
6
CONTINUOUS
10
197.168
20
-42.8627
11
197.168
21
-55.7215
0
LINE
8
BLACK
6
CONTINUOUS
10
254.319
20
-80.9628
11
254.319
21
-93.8216
0
LINE
8
BLACK
6
CONTINUOUS
10
-9.04952
20
-119.063
11
6.54774
21
-119.063
0
LINE
8
BLACK
6
CONTINUOUS
10
238.721
20
-42.8627
11
254.319
21
-42.8627
0
LINE
8
BLACK
6
CONTINUOUS
10
257.771
20
-61.9128
11
273.369
21
-61.9128
0
LINE
8
BLACK
6
CONTINUOUS
10
25.5978
20
-74.7716
11
10.0006
21
-74.7716
0
LINE
8
BLACK
6
CONTINUOUS
10
181.571
20
-55.7215
11
181.571
21
-42.8627
0
LINE
8
BLACK
6
CONTINUOUS
10
181.571
20
-42.8627
11
197.168
21
-42.8627
0
LINE
8
BLACK
6
CONTINUOUS
10
10.0006
20
-100.013
11
25.5978
21
-100.013
0
LINE
8
BLACK
6
CONTINUOUS
10
25.5978
20
-112.872
11
10.0006
21
-112.872
0
LINE
8
BLACK
6
CONTINUOUS
10
63.698
20
-93.8216
11
48.1007
21
-93.8216
0
LINE
8
BLACK
6
CONTINUOUS
10
254.319
20
-61.9128
11
254.319
21
-74.7716
0
LINE
8
BLACK
6
CONTINUOUS
10
257.771
20
-119.063
11
273.369
21
-119.063
0
LINE
8
BLACK
6
CONTINUOUS
10
44.6479
20
-42.8627
11
44.6479
21
-55.7215
0
LINE
8
BLACK
6
CONTINUOUS
10
162.521
20
-112.872
11
162.521
21
-100.013
0
LINE
8
BLACK
6
CONTINUOUS
10
82.7481
20
-112.872
11
67.1508
21
-112.872
0
LINE
8
BLACK
6
CONTINUOUS
10
67.1508
20
-42.8627
11
82.7481
21
-42.8627
0
LINE
8
BLACK
6
CONTINUOUS
10
181.571
20
-80.9628
11
197.168
21
-80.9628
0
LINE
8
BLACK
6
CONTINUOUS
10
181.571
20
-100.013
11
197.168
21
-100.013
0
LINE
8
BLACK
6
CONTINUOUS
10
63.698
20
-42.8627
11
63.698
21
-55.7215
0
LINE
8
BLACK
6
CONTINUOUS
10
238.721
20
-80.9628
11
254.319
21
-80.9628
0
LINE
8
BLACK
6
CONTINUOUS
10
101.798
20
-119.063
11
101.798
21
-131.922
0
LINE
8
BLACK
6
CONTINUOUS
10
178.118
20
-131.922
11
162.521
21
-131.922
0
LINE
8
BLACK
6
CONTINUOUS
10
257.771
20
-100.013
11
268.249
21
-100.013
0
LINE
8
BLACK
6
CONTINUOUS
10
101.798
20
-74.7716
11
86.2009
21
-74.7716
0
LINE
8
BLACK
6
CONTINUOUS
10
197.168
20
-80.9628
11
197.168
21
-93.8216
0
LINE
8
BLACK
6
CONTINUOUS
10
25.5978
20
-61.9128
11
25.5978
21
-74.7716
0
ARC
8
BLACK
10
273.249
20
-133.231
40
1.78594
50
-90
51
3.20816e-05
0
LINE
8
BLACK
6
CONTINUOUS
10
216.218
20
-131.922
11
200.621
21
-131.922
0
LINE
8
BLACK
6
CONTINUOUS
10
216.218
20
-119.063
11
216.218
21
-131.922
0
LINE
8
BLACK
6
CONTINUOUS
10
197.168
20
-74.7716
11
181.571
21
-74.7716
0
LINE
8
BLACK
6
CONTINUOUS
10
48.1007
20
-61.9128
11
63.698
21
-61.9128
0
LINE
8
BLACK
6
CONTINUOUS
10
29.0506
20
-100.013
11
44.6479
21
-100.013
0
LINE
8
BLACK
6
CONTINUOUS
10
219.671
20
-61.9128
11
235.268
21
-61.9128
0
LINE
8
BLACK
6
CONTINUOUS
10
257.771
20
-131.922
11
257.771
21
-119.063
0
LINE
8
BLACK
6
CONTINUOUS
10
6.54774
20
-112.872
11
-9.04952
21
-112.872
0
LINE
8
BLACK
6
CONTINUOUS
10
86.2009
20
-112.872
11
86.2009
21
-100.013
0
LINE
8
BLACK
6
CONTINUOUS
10
6.54774
20
-61.9128
11
6.54774
21
-74.7716
0
LINE
8
BLACK
6
CONTINUOUS
10
86.2009
20
-55.7215
11
86.2009
21
-42.8627
0
LINE
8
BLACK
6
CONTINUOUS
10
162.521
20
-100.013
11
178.118
21
-100.013
0
LINE
8
BLACK
6
CONTINUOUS
10
238.721
20
-119.063
11
254.319
21
-119.063
0
LINE
8
BLACK
6
CONTINUOUS
10
67.1508
20
-61.9128
11
82.7481
21
-61.9128
0
LINE
8
BLACK
6
CONTINUOUS
10
268.249
20
-93.8216
11
257.771
21
-93.8216
0
LINE
8
BLACK
6
CONTINUOUS
10
197.168
20
-131.922
11
181.571
21
-131.922
0
LINE
8
BLACK
6
CONTINUOUS
10
257.771
20
-55.7215
11
257.771
21
-42.8627
0
LINE
8
BLACK
6
CONTINUOUS
10
254.319
20
-93.8216
11
238.721
21
-93.8216
0
LINE
8
BLACK
6
CONTINUOUS
10
273.369
20
-112.872
11
257.771
21
-112.872
0
LINE
8
BLACK
6
CONTINUOUS
10
181.571
20
-112.872
11
181.571
21
-100.013
0
LINE
8
BLACK
6
CONTINUOUS
10
162.521
20
-61.9128
11
178.118
21
-61.9128
0
LINE
8
BLACK
6
CONTINUOUS
10
273.369
20
-99.2982
11
273.369
21
-112.872
0
LINE
8
BLACK
6
CONTINUOUS
10
254.319
20
-74.7716
11
238.721
21
-74.7716
0
LINE
8
BLACK
6
CONTINUOUS
10
178.118
20
-74.7716
11
162.521
21
-74.7716
0
LINE
8
BLACK
6
CONTINUOUS
10
63.698
20
-80.9628
11
63.698
21
-93.8216
0
LINE
8
BLACK
6
CONTINUOUS
10
219.671
20
-42.8627
11
235.268
21
-42.8627
0
LINE
8
BLACK
6
CONTINUOUS
10
158.354
20
-42.1483
11
158.354
21
-132.636
0
LINE
8
BLACK
6
CONTINUOUS
10
67.1508
20
-74.7716
11
67.1508
21
-61.9128
0
LINE
8
BLACK
6
CONTINUOUS
10
200.621
20
-112.872
11
200.621
21
-100.013
0
LINE
8
BLACK
6
CONTINUOUS
10
178.118
20
-119.063
11
178.118
21
-131.922
0
LINE
8
BLACK
6
CONTINUOUS
10
178.118
20
-100.013
11
178.118
21
-112.872
0
LINE
8
BLACK
6
CONTINUOUS
10
216.218
20
-112.872
11
200.621
21
-112.872
0
LINE
8
BLACK
6
CONTINUOUS
10
181.571
20
-93.8216
11
181.571
21
-80.9628
0
LINE
8
BLACK
6
CONTINUOUS
10
200.621
20
-131.922
11
200.621
21
-119.063
0
LINE
8
BLACK
6
CONTINUOUS
10
10.0006
20
-112.872
11
10.0006
21
-100.013
0
LINE
8
BLACK
6
CONTINUOUS
10
-10.7157
20
-99.2982
11
-9.04952
21
-99.2982
0
LINE
8
BLACK
6
CONTINUOUS
10
197.168
20
-61.9128
11
197.168
21
-74.7716
0
LINE
8
BLACK
6
CONTINUOUS
10
-9.04952
20
-74.7716
11
-9.04952
21
-61.9128
0
LINE
8
BLACK
6
CONTINUOUS
10
29.0506
20
-42.8627
11
44.6479
21
-42.8627
0
LINE
8
BLACK
6
CONTINUOUS
10
162.521
20
-80.9628
11
178.118
21
-80.9628
0
LINE
8
BLACK
6
CONTINUOUS
10
200.621
20
-119.063
11
216.218
21
-119.063
  0
ENDSEC
  0
EOF
