  0
SECTION
  2
HEADER
  9
$ANGBASE
  50
0.0
  9
$ANGDIR
  70
1
  9
$MEASUREMENT
  70
1
  0
ENDSEC
  0
SECTION
  2
TABLES
  0
TABLE
  2
LTYPE
  70
4
  0
LTYPE
  5
40F
  2
CONTINUOUS
  70
0
  3
Solid line
  72
65
  73
0
  40
0.0
  0
LTYPE
  5
410
  2
DASHDOT
 70
0
  3
Dash Dot ____ _ ____ _
 72
65
 73
4
 40
2.0
 49
1.25
 49
-0.25
 49
0.25
 49
-0.25
  0
LTYPE
  5
411
  2
DASHED
 70
0
  3
Dashed __ __ __ __ __
 72
65
 73
2
 40
0.75
 49
0.5
 49
-0.25
  0
LTYPE
  5
43B
  2
DOTTED
 70
0
  3
Dotted .  .  .  .
 72
65
 73
2
 40
0.2
 49
0.0
 49
-0.2
  0
ENDTAB
  0
TABLE
  2
STYLE
  70
4
  0
STYLE
  2
KICAD
  70
0
  40
0
  41
1
  42
1
  50
0
  71
0
  3
isocp.shx
  0
STYLE
  2
KICADB
  70
0
  40
0
  41
1
  42
1
  50
0
  71
0
  3
isocp.shx
  0
STYLE
  2
KICADI
  70
0
  40
0
  41
1
  42
1
  50
15
  71
0
  3
isocp.shx
  0
STYLE
  2
KICADBI
  70
0
  40
0
  41
1
  42
1
  50
15
  71
0
  3
isocp.shx
  0
ENDTAB
  0
TABLE
  2
LAYER
  70
1
  0
LAYER
  2
BLACK
  70
0
  62
7
  6
CONTINUOUS
  0
ENDTAB
  0
ENDSEC
  0
SECTION
  2
ENTITIES
0
LINE
8
BLACK
6
CONTINUOUS
10
275.036
20
-99.4177
11
275.035
21
-133.231
0
LINE
8
BLACK
6
CONTINUOUS
10
-8.92987
20
-135.017
11
273.249
21
-135.017
0
LINE
8
BLACK
6
CONTINUOUS
10
75.0093
20
-117.158
11
75.0097
21
-118.468
0
LINE
8
BLACK
6
CONTINUOUS
10
98.8218
20
-117.158
11
98.8218
21
-118.468
0
LINE
8
BLACK
6
CONTINUOUS
10
70.2468
20
-118.468
11
70.2468
21
-117.158
0
LINE
8
BLACK
6
CONTINUOUS
10
94.0598
20
-118.468
11
94.0593
21
-117.158
0
ARC
8
BLACK
10
-8.92987
20
-41.5529
40
1.78594
50
-270
51
-180
0
LINE
8
BLACK
6
CONTINUOUS
10
-4.16736
20
-94.417
11
-4.16736
21
-99.4176
0
LINE
8
BLACK
6
CONTINUOUS
10
-8.21535
20
-99.4176
11
-10.7158
21
-99.4177
0
LINE
8
BLACK
6
CONTINUOUS
10
94.0593
20
-117.158
11
98.8218
21
-117.158
0
LINE
8
BLACK
6
CONTINUOUS
10
-8.21535
20
-94.4169
11
-10.7158
21
-94.417
0
LINE
8
BLACK
6
CONTINUOUS
10
70.2468
20
-117.158
11
75.0093
21
-117.158
0
ARC
8
BLACK
10
-8.92987
20
-133.231
40
1.78594
50
-180
51
-90
0
LINE
8
BLACK
6
CONTINUOUS
10
-10.7158
20
-41.5529
11
-10.7158
21
-94.417
0
LINE
8
BLACK
6
CONTINUOUS
10
-10.7158
20
-99.4177
11
-10.7158
21
-133.231
0
LINE
8
BLACK
6
CONTINUOUS
10
158.354
20
-42.1483
11
105.966
21
-42.1481
0
LINE
8
BLACK
6
CONTINUOUS
10
163.235
20
-113.467
11
163.235
21
-99.4177
0
LINE
8
BLACK
6
CONTINUOUS
10
62.9844
20
-75.367
11
48.9351
21
-75.367
0
LINE
8
BLACK
6
CONTINUOUS
10
234.435
20
-94.4168
11
220.386
21
-94.4168
0
LINE
8
BLACK
6
CONTINUOUS
10
101.085
20
-42.2677
11
101.085
21
-56.317
0
LINE
8
BLACK
6
CONTINUOUS
10
215.385
20
-118.467
11
215.385
21
-132.517
0
LINE
8
BLACK
6
CONTINUOUS
10
-8.21535
20
-42.2674
11
5.83403
21
-42.2674
0
LINE
8
BLACK
6
CONTINUOUS
10
29.8847
20
-132.517
11
29.8847
21
-118.468
0
LINE
8
BLACK
6
CONTINUOUS
10
5.83403
20
-80.3675
11
5.83403
21
-94.4169
0
LINE
8
BLACK
6
CONTINUOUS
10
29.8847
20
-118.468
11
43.9341
21
-118.468
0
LINE
8
BLACK
6
CONTINUOUS
10
101.084
20
-118.468
11
101.084
21
-132.517
0
LINE
8
BLACK
6
CONTINUOUS
10
43.9343
20
-80.3676
11
43.9343
21
-94.417
0
LINE
8
BLACK
6
CONTINUOUS
10
67.9852
20
-99.4178
11
82.0346
21
-99.4178
0
LINE
8
BLACK
6
CONTINUOUS
10
215.385
20
-56.3167
11
201.335
21
-56.3167
0
LINE
8
BLACK
6
CONTINUOUS
10
182.285
20
-56.3168
11
182.285
21
-42.2674
0
LINE
8
BLACK
6
CONTINUOUS
10
101.084
20
-132.517
11
67.985
21
-132.517
0
LINE
8
BLACK
6
CONTINUOUS
10
177.285
20
-56.3169
11
163.235
21
-56.3169
0
LINE
8
BLACK
6
CONTINUOUS
10
215.385
20
-42.2674
11
215.385
21
-56.3167
0
LINE
8
BLACK
6
CONTINUOUS
10
67.9852
20
-42.2676
11
82.0346
21
-42.2676
0
LINE
8
BLACK
6
CONTINUOUS
10
234.435
20
-113.467
11
220.386
21
-113.467
0
LINE
8
BLACK
6
CONTINUOUS
10
258.486
20
-94.4167
11
258.486
21
-80.3673
0
LINE
8
BLACK
6
CONTINUOUS
10
29.8849
20
-80.3676
11
43.9343
21
-80.3676
0
LINE
8
BLACK
6
CONTINUOUS
10
163.235
20
-75.3669
11
163.235
21
-61.3176
0
LINE
8
BLACK
6
CONTINUOUS
10
272.535
20
-132.517
11
258.486
21
-132.517
0
LINE
8
BLACK
6
CONTINUOUS
10
24.8842
20
-99.4177
11
24.8842
21
-113.467
0
LINE
8
BLACK
6
CONTINUOUS
10
43.9343
20
-75.3669
11
29.8849
21
-75.3669
0
LINE
8
BLACK
6
CONTINUOUS
10
272.535
20
-56.3166
11
258.486
21
-56.3166
0
LINE
8
BLACK
6
CONTINUOUS
10
43.9343
20
-99.4177
11
43.9343
21
-113.467
0
LINE
8
BLACK
6
CONTINUOUS
10
220.386
20
-118.467
11
234.435
21
-118.467
0
LINE
8
BLACK
6
CONTINUOUS
10
268.487
20
-99.4174
11
268.487
21
-94.4168
0
LINE
8
BLACK
6
CONTINUOUS
10
239.436
20
-132.517
11
239.436
21
-118.467
0
LINE
8
BLACK
6
CONTINUOUS
10
43.9343
20
-42.2675
11
43.9343
21
-56.3169
0
LINE
8
BLACK
6
CONTINUOUS
10
-8.21558
20
-118.467
11
5.83379
21
-118.467
0
LINE
8
BLACK
6
CONTINUOUS
10
215.385
20
-99.4176
11
215.385
21
-113.467
0
LINE
8
BLACK
6
CONTINUOUS
10
48.9351
20
-61.3176
11
62.9844
21
-61.3176
0
LINE
8
BLACK
6
CONTINUOUS
10
182.285
20
-42.2674
11
196.335
21
-42.2674
0
LINE
8
BLACK
6
CONTINUOUS
10
43.9343
20
-94.417
11
29.8849
21
-94.417
0
LINE
8
BLACK
6
CONTINUOUS
10
48.9351
20
-80.3677
11
62.9844
21
-80.3677
0
LINE
8
BLACK
6
CONTINUOUS
10
201.335
20
-113.467
11
201.335
21
-99.4176
0
LINE
8
BLACK
6
CONTINUOUS
10
163.235
20
-42.2675
11
177.285
21
-42.2675
0
LINE
8
BLACK
6
CONTINUOUS
10
234.435
20
-56.3167
11
220.386
21
-56.3167
0
LINE
8
BLACK
6
CONTINUOUS
10
177.285
20
-94.417
11
163.235
21
-94.417
0
LINE
8
BLACK
6
CONTINUOUS
10
239.436
20
-42.2672
11
253.485
21
-42.2672
0
LINE
8
BLACK
6
CONTINUOUS
10
234.435
20
-61.3174
11
234.435
21
-75.3668
0
LINE
8
BLACK
6
CONTINUOUS
10
101.085
20
-113.467
11
87.0353
21
-113.467
0
LINE
8
BLACK
6
CONTINUOUS
10
48.9348
20
-132.517
11
48.9348
21
-118.468
0
LINE
8
BLACK
6
CONTINUOUS
10
234.435
20
-118.467
11
234.435
21
-132.517
0
LINE
8
BLACK
6
CONTINUOUS
10
101.085
20
-94.4172
11
87.0353
21
-94.4172
0
LINE
8
BLACK
6
CONTINUOUS
10
82.0346
20
-56.317
11
67.9852
21
-56.317
0
LINE
8
BLACK
6
CONTINUOUS
10
-8.21535
20
-56.3167
11
-8.21535
21
-42.2674
0
LINE
8
BLACK
6
CONTINUOUS
10
29.8849
20
-94.417
11
29.8849
21
-80.3676
0
LINE
8
BLACK
6
CONTINUOUS
10
62.9844
20
-99.4178
11
62.9844
21
-113.467
0
LINE
8
BLACK
6
CONTINUOUS
10
196.335
20
-61.3175
11
196.335
21
-75.3669
0
LINE
8
BLACK
6
CONTINUOUS
10
87.0353
20
-94.4172
11
87.0353
21
-80.3678
0
LINE
8
BLACK
6
CONTINUOUS
10
215.385
20
-113.467
11
201.335
21
-113.467
0
LINE
8
BLACK
6
CONTINUOUS
10
5.83403
20
-56.3167
11
-8.21535
21
-56.3167
0
LINE
8
BLACK
6
CONTINUOUS
10
101.085
20
-80.3678
11
101.085
21
-94.4172
0
LINE
8
BLACK
6
CONTINUOUS
10
29.8849
20
-61.3176
11
43.9343
21
-61.3176
0
LINE
8
BLACK
6
CONTINUOUS
10
10.8348
20
-61.3175
11
24.8842
21
-61.3175
0
LINE
8
BLACK
6
CONTINUOUS
10
258.486
20
-80.3673
11
272.535
21
-80.3673
0
LINE
8
BLACK
6
CONTINUOUS
10
48.9351
20
-42.2675
11
62.9844
21
-42.2675
0
LINE
8
BLACK
6
CONTINUOUS
10
272.535
20
-118.467
11
272.535
21
-132.517
0
LINE
8
BLACK
6
CONTINUOUS
10
48.9351
20
-113.467
11
48.9351
21
-99.4178
0
LINE
8
BLACK
6
CONTINUOUS
10
101.085
20
-61.3177
11
101.085
21
-75.3671
0
LINE
8
BLACK
6
CONTINUOUS
10
43.9343
20
-56.3169
11
29.8849
21
-56.3169
0
LINE
8
BLACK
6
CONTINUOUS
10
67.9852
20
-75.3671
11
67.9852
21
-61.3177
0
LINE
8
BLACK
6
CONTINUOUS
10
196.335
20
-80.3676
11
196.335
21
-94.417
0
ARC
8
BLACK
10
273.249
20
-41.5529
40
1.78598
50
0.00141158
51
89.9994
0
LINE
8
BLACK
6
CONTINUOUS
10
194.073
20
-117.157
11
194.073
21
-118.468
0
LINE
8
BLACK
6
CONTINUOUS
10
253.485
20
-118.467
11
253.485
21
-132.517
0
LINE
8
BLACK
6
CONTINUOUS
10
87.0353
20
-42.2677
11
101.085
21
-42.2677
0
LINE
8
BLACK
6
CONTINUOUS
10
82.0346
20
-61.3177
11
82.0346
21
-75.3671
0
LINE
8
BLACK
6
CONTINUOUS
10
-8.21558
20
-132.517
11
-8.21558
21
-118.467
0
LINE
8
BLACK
6
CONTINUOUS
10
48.9351
20
-94.4171
11
48.9351
21
-80.3677
0
LINE
8
BLACK
6
CONTINUOUS
10
253.485
20
-56.3166
11
239.436
21
-56.3166
0
LINE
8
BLACK
6
CONTINUOUS
10
258.486
20
-56.3166
11
258.486
21
-42.2672
0
LINE
8
BLACK
6
CONTINUOUS
10
101.084
20
-118.468
11
98.8218
21
-118.468
0
LINE
8
BLACK
6
CONTINUOUS
10
10.8348
20
-75.3669
11
10.8348
21
-61.3175
0
LINE
8
BLACK
6
CONTINUOUS
10
220.386
20
-56.3167
11
220.386
21
-42.2673
0
LINE
8
BLACK
6
CONTINUOUS
10
29.8849
20
-99.4177
11
43.9343
21
-99.4177
0
LINE
8
BLACK
6
CONTINUOUS
10
82.0346
20
-42.2676
11
82.0346
21
-56.317
0
LINE
8
BLACK
6
CONTINUOUS
10
220.386
20
-113.467
11
220.386
21
-99.4175
0
LINE
8
BLACK
6
CONTINUOUS
10
258.486
20
-132.517
11
258.486
21
-118.467
0
LINE
8
BLACK
6
CONTINUOUS
10
163.235
20
-94.417
11
163.235
21
-80.3676
0
LINE
8
BLACK
6
CONTINUOUS
10
253.485
20
-99.4175
11
253.485
21
-113.467
0
LINE
8
BLACK
6
CONTINUOUS
10
253.485
20
-94.4168
11
239.436
21
-94.4168
0
LINE
8
BLACK
6
CONTINUOUS
10
239.436
20
-61.3173
11
253.485
21
-61.3173
0
LINE
8
BLACK
6
CONTINUOUS
10
196.335
20
-94.417
11
182.285
21
-94.417
0
LINE
8
BLACK
6
CONTINUOUS
10
62.9842
20
-132.517
11
48.9348
21
-132.517
0
LINE
8
BLACK
6
CONTINUOUS
10
272.535
20
-61.3173
11
272.535
21
-75.3666
0
LINE
8
BLACK
6
CONTINUOUS
10
201.335
20
-94.4169
11
201.335
21
-80.3675
0
LINE
8
BLACK
6
CONTINUOUS
10
43.9343
20
-61.3176
11
43.9343
21
-75.3669
0
LINE
8
BLACK
6
CONTINUOUS
10
220.386
20
-80.3675
11
234.435
21
-80.3675
0
LINE
8
BLACK
6
CONTINUOUS
10
239.436
20
-94.4168
11
239.436
21
-80.3674
0
LINE
8
BLACK
6
CONTINUOUS
10
62.9844
20
-42.2675
11
62.9844
21
-56.3169
0
LINE
8
BLACK
6
CONTINUOUS
10
196.335
20
-42.2674
11
196.335
21
-56.3168
0
LINE
8
BLACK
6
CONTINUOUS
10
196.335
20
-99.4177
11
196.335
21
-113.467
0
LINE
8
BLACK
6
CONTINUOUS
10
10.8348
20
-42.2674
11
24.8842
21
-42.2674
0
LINE
8
BLACK
6
CONTINUOUS
10
272.535
20
-80.3673
11
272.535
21
-94.4167
0
LINE
8
BLACK
6
CONTINUOUS
10
87.0353
20
-75.3671
11
87.0353
21
-61.3177
0
LINE
8
BLACK
6
CONTINUOUS
10
163.235
20
-80.3676
11
177.285
21
-80.3676
0
LINE
8
BLACK
6
CONTINUOUS
10
105.966
20
-42.1481
11
105.966
21
-132.636
0
LINE
8
BLACK
6
CONTINUOUS
10
234.435
20
-132.517
11
220.386
21
-132.517
0
LINE
8
BLACK
6
CONTINUOUS
10
-8.21535
20
-75.3668
11
-8.21535
21
-61.3174
0
LINE
8
BLACK
6
CONTINUOUS
10
67.9852
20
-80.3678
11
82.0346
21
-80.3678
0
LINE
8
BLACK
6
CONTINUOUS
10
48.9351
20
-56.3169
11
48.9351
21
-42.2675
0
LINE
8
BLACK
6
CONTINUOUS
10
201.335
20
-56.3167
11
201.335
21
-42.2674
0
LINE
8
BLACK
6
CONTINUOUS
10
258.486
20
-118.467
11
272.535
21
-118.467
0
LINE
8
BLACK
6
CONTINUOUS
10
215.385
20
-75.3668
11
201.335
21
-75.3668
0
LINE
8
BLACK
6
CONTINUOUS
10
87.0353
20
-99.4179
11
101.085
21
-99.4179
0
LINE
8
BLACK
6
CONTINUOUS
10
194.073
20
-118.468
11
196.335
21
-118.467
0
LINE
8
BLACK
6
CONTINUOUS
10
-4.16736
20
-99.4176
11
5.83403
21
-99.4176
0
LINE
8
BLACK
6
CONTINUOUS
10
201.336
20
-118.467
11
215.385
21
-118.467
0
LINE
8
BLACK
6
CONTINUOUS
10
201.335
20
-61.3174
11
215.385
21
-61.3174
0
LINE
8
BLACK
6
CONTINUOUS
10
87.0353
20
-113.467
11
87.0353
21
-99.4179
0
LINE
8
BLACK
6
CONTINUOUS
10
220.386
20
-61.3174
11
234.435
21
-61.3174
0
LINE
8
BLACK
6
CONTINUOUS
10
101.085
20
-56.317
11
87.0353
21
-56.317
0
LINE
8
BLACK
6
CONTINUOUS
10
48.9351
20
-99.4178
11
62.9844
21
-99.4178
0
LINE
8
BLACK
6
CONTINUOUS
10
177.285
20
-75.3669
11
163.235
21
-75.3669
0
LINE
8
BLACK
6
CONTINUOUS
10
220.386
20
-99.4175
11
234.435
21
-99.4175
0
LINE
8
BLACK
6
CONTINUOUS
10
10.8346
20
-118.467
11
24.8839
21
-118.467
0
LINE
8
BLACK
6
CONTINUOUS
10
10.8346
20
-132.517
11
10.8346
21
-118.467
0
LINE
8
BLACK
6
CONTINUOUS
10
48.9348
20
-118.468
11
62.9842
21
-118.468
0
LINE
8
BLACK
6
CONTINUOUS
10
182.285
20
-75.3669
11
182.285
21
-61.3175
0
LINE
8
BLACK
6
CONTINUOUS
10
82.0346
20
-75.3671
11
67.9852
21
-75.3671
0
LINE
8
BLACK
6
CONTINUOUS
10
268.487
20
-94.4168
11
258.486
21
-94.4167
0
LINE
8
BLACK
6
CONTINUOUS
10
239.436
20
-99.4175
11
253.485
21
-99.4175
0
LINE
8
BLACK
6
CONTINUOUS
10
29.8849
20
-56.3169
11
29.8849
21
-42.2675
0
LINE
8
BLACK
6
CONTINUOUS
10
87.0353
20
-61.3177
11
101.085
21
-61.3177
0
LINE
8
BLACK
6
CONTINUOUS
10
177.285
20
-61.3176
11
177.285
21
-75.3669
0
LINE
8
BLACK
6
CONTINUOUS
10
43.9341
20
-118.468
11
43.9341
21
-132.517
0
LINE
8
BLACK
6
CONTINUOUS
10
201.335
20
-99.4176
11
215.385
21
-99.4176
0
LINE
8
BLACK
6
CONTINUOUS
10
258.486
20
-99.4174
11
268.487
21
-99.4174
0
LINE
8
BLACK
6
CONTINUOUS
10
5.83403
20
-113.467
11
-8.21535
21
-113.467
0
LINE
8
BLACK
6
CONTINUOUS
10
220.386
20
-94.4168
11
220.386
21
-80.3675
0
LINE
8
BLACK
6
CONTINUOUS
10
182.285
20
-94.417
11
182.285
21
-80.3676
0
LINE
8
BLACK
6
CONTINUOUS
10
165.498
20
-118.468
11
165.498
21
-117.157
0
LINE
8
BLACK
6
CONTINUOUS
10
253.485
20
-75.3667
11
239.436
21
-75.3667
0
LINE
8
BLACK
6
CONTINUOUS
10
258.486
20
-75.3666
11
258.486
21
-61.3173
0
LINE
8
BLACK
6
CONTINUOUS
10
201.335
20
-75.3668
11
201.335
21
-61.3174
0
LINE
8
BLACK
6
CONTINUOUS
10
253.485
20
-113.467
11
239.436
21
-113.467
0
LINE
8
BLACK
6
CONTINUOUS
10
220.386
20
-42.2673
11
234.435
21
-42.2673
0
LINE
8
BLACK
6
CONTINUOUS
10
-8.21535
20
-61.3174
11
5.83403
21
-61.3174
0
LINE
8
BLACK
6
CONTINUOUS
10
62.9844
20
-61.3176
11
62.9844
21
-75.367
0
LINE
8
BLACK
6
CONTINUOUS
10
177.285
20
-42.2675
11
177.285
21
-56.3169
0
LINE
8
BLACK
6
CONTINUOUS
10
43.9343
20
-113.467
11
29.8849
21
-113.467
0
LINE
8
BLACK
6
CONTINUOUS
10
62.9844
20
-56.3169
11
48.9351
21
-56.3169
0
LINE
8
BLACK
6
CONTINUOUS
10
272.535
20
-99.4174
11
272.535
21
-113.467
0
LINE
8
BLACK
6
CONTINUOUS
10
105.966
20
-132.636
11
158.354
21
-132.636
0
LINE
8
BLACK
6
CONTINUOUS
10
62.9844
20
-94.4171
11
48.9351
21
-94.4171
0
LINE
8
BLACK
6
CONTINUOUS
10
101.085
20
-99.4179
11
101.085
21
-113.467
0
LINE
8
BLACK
6
CONTINUOUS
10
87.0353
20
-80.3678
11
101.085
21
-80.3678
0
LINE
8
BLACK
6
CONTINUOUS
10
10.8348
20
-94.417
11
10.8348
21
-80.3676
0
LINE
8
BLACK
6
CONTINUOUS
10
220.386
20
-132.517
11
220.386
21
-118.467
0
LINE
8
BLACK
6
CONTINUOUS
10
24.8842
20
-94.417
11
10.8348
21
-94.417
0
LINE
8
BLACK
6
CONTINUOUS
10
272.535
20
-42.2672
11
272.535
21
-56.3166
0
LINE
8
BLACK
6
CONTINUOUS
10
10.8348
20
-113.467
11
10.8348
21
-99.4177
0
LINE
8
BLACK
6
CONTINUOUS
10
24.8842
20
-42.2674
11
24.8842
21
-56.3168
0
LINE
8
BLACK
6
CONTINUOUS
10
62.9844
20
-80.3677
11
62.9844
21
-94.4171
0
LINE
8
BLACK
6
CONTINUOUS
10
258.486
20
-61.3173
11
272.535
21
-61.3173
0
LINE
8
BLACK
6
CONTINUOUS
10
67.9852
20
-56.317
11
67.9852
21
-42.2676
0
LINE
8
BLACK
6
CONTINUOUS
10
163.235
20
-61.3176
11
177.285
21
-61.3176
0
LINE
8
BLACK
6
CONTINUOUS
10
75.0097
20
-118.468
11
94.0598
21
-118.468
0
LINE
8
BLACK
6
CONTINUOUS
10
67.985
20
-118.468
11
70.2468
21
-118.468
0
LINE
8
BLACK
6
CONTINUOUS
10
165.498
20
-117.157
11
170.261
21
-117.157
0
LINE
8
BLACK
6
CONTINUOUS
10
163.235
20
-132.517
11
163.235
21
-118.468
0
LINE
8
BLACK
6
CONTINUOUS
10
273.249
20
-39.7669
11
-8.92987
21
-39.7669
0
LINE
8
BLACK
6
CONTINUOUS
10
67.985
20
-132.517
11
67.985
21
-118.468
0
LINE
8
BLACK
6
CONTINUOUS
10
275.035
20
-41.5529
11
275.035
21
-94.417
0
LINE
8
BLACK
6
CONTINUOUS
10
5.83403
20
-42.2674
11
5.83403
21
-56.3167
0
LINE
8
BLACK
6
CONTINUOUS
10
29.8849
20
-42.2675
11
43.9343
21
-42.2675
0
LINE
8
BLACK
6
CONTINUOUS
10
24.8839
20
-132.517
11
10.8346
21
-132.517
0
LINE
8
BLACK
6
CONTINUOUS
10
196.335
20
-75.3669
11
182.285
21
-75.3669
0
LINE
8
BLACK
6
CONTINUOUS
10
82.0346
20
-94.4171
11
67.9852
21
-94.4171
0
LINE
8
BLACK
6
CONTINUOUS
10
5.83403
20
-94.4169
11
-4.16736
21
-94.417
0
LINE
8
BLACK
6
CONTINUOUS
10
-8.21535
20
-113.467
11
-8.21535
21
-99.4176
0
LINE
8
BLACK
6
CONTINUOUS
10
87.0353
20
-56.317
11
87.0353
21
-42.2677
0
LINE
8
BLACK
6
CONTINUOUS
10
10.8348
20
-80.3676
11
24.8842
21
-80.3676
0
LINE
8
BLACK
6
CONTINUOUS
10
258.486
20
-42.2672
11
272.535
21
-42.2672
0
LINE
8
BLACK
6
CONTINUOUS
10
182.285
20
-80.3676
11
196.335
21
-80.3676
0
LINE
8
BLACK
6
CONTINUOUS
10
196.335
20
-118.467
11
196.335
21
-132.517
0
LINE
8
BLACK
6
CONTINUOUS
10
177.285
20
-80.3676
11
177.285
21
-94.417
0
LINE
8
BLACK
6
CONTINUOUS
10
215.385
20
-61.3174
11
215.385
21
-75.3668
0
LINE
8
BLACK
6
CONTINUOUS
10
272.535
20
-113.467
11
258.486
21
-113.467
0
LINE
8
BLACK
6
CONTINUOUS
10
24.8842
20
-113.467
11
10.8348
21
-113.467
0
LINE
8
BLACK
6
CONTINUOUS
10
215.385
20
-132.517
11
201.336
21
-132.517
0
LINE
8
BLACK
6
CONTINUOUS
10
215.385
20
-80.3675
11
215.385
21
-94.4169
0
LINE
8
BLACK
6
CONTINUOUS
10
253.485
20
-61.3173
11
253.485
21
-75.3667
0
LINE
8
BLACK
6
CONTINUOUS
10
29.8849
20
-113.467
11
29.8849
21
-99.4177
0
LINE
8
BLACK
6
CONTINUOUS
10
189.311
20
-117.157
11
194.073
21
-117.157
0
LINE
8
BLACK
6
CONTINUOUS
10
196.335
20
-113.467
11
182.285
21
-113.467
0
LINE
8
BLACK
6
CONTINUOUS
10
234.435
20
-80.3675
11
234.435
21
-94.4168
0
LINE
8
BLACK
6
CONTINUOUS
10
67.9852
20
-61.3177
11
82.0346
21
-61.3177
0
LINE
8
BLACK
6
CONTINUOUS
10
272.535
20
-99.4174
11
275.036
21
-99.4177
0
LINE
8
BLACK
6
CONTINUOUS
10
239.436
20
-113.467
11
239.436
21
-99.4175
0
LINE
8
BLACK
6
CONTINUOUS
10
5.83379
20
-132.517
11
-8.21558
21
-132.517
0
LINE
8
BLACK
6
CONTINUOUS
10
82.0346
20
-113.467
11
67.9852
21
-113.467
0
LINE
8
BLACK
6
CONTINUOUS
10
182.285
20
-113.467
11
182.285
21
-99.4177
0
LINE
8
BLACK
6
CONTINUOUS
10
258.486
20
-113.467
11
258.486
21
-99.4174
0
LINE
8
BLACK
6
CONTINUOUS
10
239.436
20
-118.467
11
253.485
21
-118.467
0
LINE
8
BLACK
6
CONTINUOUS
10
5.83403
20
-99.4176
11
5.83403
21
-113.467
0
LINE
8
BLACK
6
CONTINUOUS
10
101.085
20
-75.3671
11
87.0353
21
-75.3671
0
LINE
8
BLACK
6
CONTINUOUS
10
82.0346
20
-80.3678
11
82.0346
21
-94.4171
0
LINE
8
BLACK
6
CONTINUOUS
10
48.9351
20
-75.367
11
48.9351
21
-61.3176
0
LINE
8
BLACK
6
CONTINUOUS
10
177.285
20
-113.467
11
163.235
21
-113.467
0
ARC
8
BLACK
10
273.249
20
-133.231
40
1.78596
50
-89.9994
51
0.00134741
0
LINE
8
BLACK
6
CONTINUOUS
10
24.8839
20
-118.467
11
24.8839
21
-132.517
0
LINE
8
BLACK
6
CONTINUOUS
10
272.535
20
-94.4167
11
275.035
21
-94.417
0
LINE
8
BLACK
6
CONTINUOUS
10
5.83403
20
-75.3668
11
-8.21535
21
-75.3668
0
LINE
8
BLACK
6
CONTINUOUS
10
67.9852
20
-113.467
11
67.9852
21
-99.4178
0
LINE
8
BLACK
6
CONTINUOUS
10
201.336
20
-132.517
11
201.336
21
-118.467
0
LINE
8
BLACK
6
CONTINUOUS
10
234.435
20
-99.4175
11
234.435
21
-113.467
0
LINE
8
BLACK
6
CONTINUOUS
10
253.485
20
-80.3674
11
253.485
21
-94.4168
0
LINE
8
BLACK
6
CONTINUOUS
10
163.235
20
-99.4177
11
177.285
21
-99.4177
0
LINE
8
BLACK
6
CONTINUOUS
10
24.8842
20
-80.3676
11
24.8842
21
-94.417
0
LINE
8
BLACK
6
CONTINUOUS
10
43.9341
20
-132.517
11
29.8847
21
-132.517
0
LINE
8
BLACK
6
CONTINUOUS
10
163.235
20
-56.3169
11
163.235
21
-42.2675
0
LINE
8
BLACK
6
CONTINUOUS
10
170.26
20
-118.468
11
189.31
21
-118.468
0
LINE
8
BLACK
6
CONTINUOUS
10
234.435
20
-75.3668
11
220.386
21
-75.3668
0
LINE
8
BLACK
6
CONTINUOUS
10
10.8348
20
-99.4177
11
24.8842
21
-99.4177
0
LINE
8
BLACK
6
CONTINUOUS
10
24.8842
20
-56.3168
11
10.8348
21
-56.3168
0
LINE
8
BLACK
6
CONTINUOUS
10
24.8842
20
-61.3175
11
24.8842
21
-75.3669
0
LINE
8
BLACK
6
CONTINUOUS
10
10.8348
20
-56.3168
11
10.8348
21
-42.2674
0
LINE
8
BLACK
6
CONTINUOUS
10
29.8849
20
-75.3669
11
29.8849
21
-61.3176
0
LINE
8
BLACK
6
CONTINUOUS
10
201.335
20
-80.3675
11
215.385
21
-80.3675
0
LINE
8
BLACK
6
CONTINUOUS
10
215.385
20
-94.4169
11
201.335
21
-94.4169
0
LINE
8
BLACK
6
CONTINUOUS
10
67.9852
20
-94.4171
11
67.9852
21
-80.3678
0
LINE
8
BLACK
6
CONTINUOUS
10
239.436
20
-80.3674
11
253.485
21
-80.3674
0
LINE
8
BLACK
6
CONTINUOUS
10
-8.21535
20
-94.4169
11
-8.21535
21
-80.3675
0
LINE
8
BLACK
6
CONTINUOUS
10
272.535
20
-75.3666
11
258.486
21
-75.3666
0
LINE
8
BLACK
6
CONTINUOUS
10
165.498
20
-118.468
11
163.235
21
-118.468
0
LINE
8
BLACK
6
CONTINUOUS
10
182.285
20
-61.3175
11
196.335
21
-61.3175
0
LINE
8
BLACK
6
CONTINUOUS
10
189.31
20
-118.468
11
189.311
21
-117.157
0
LINE
8
BLACK
6
CONTINUOUS
10
170.261
20
-117.157
11
170.26
21
-118.468
0
LINE
8
BLACK
6
CONTINUOUS
10
201.335
20
-42.2674
11
215.385
21
-42.2674
0
LINE
8
BLACK
6
CONTINUOUS
10
234.435
20
-42.2673
11
234.435
21
-56.3167
0
LINE
8
BLACK
6
CONTINUOUS
10
253.485
20
-132.517
11
239.436
21
-132.517
0
LINE
8
BLACK
6
CONTINUOUS
10
177.285
20
-99.4177
11
177.285
21
-113.467
0
LINE
8
BLACK
6
CONTINUOUS
10
62.9844
20
-113.467
11
48.9351
21
-113.467
0
LINE
8
BLACK
6
CONTINUOUS
10
196.335
20
-132.517
11
163.235
21
-132.517
0
LINE
8
BLACK
6
CONTINUOUS
10
82.0346
20
-99.4178
11
82.0346
21
-113.467
0
LINE
8
BLACK
6
CONTINUOUS
10
5.83403
20
-61.3174
11
5.83403
21
-75.3668
0
LINE
8
BLACK
6
CONTINUOUS
10
253.485
20
-42.2672
11
253.485
21
-56.3166
0
LINE
8
BLACK
6
CONTINUOUS
10
158.354
20
-42.1483
11
158.354
21
-132.636
0
LINE
8
BLACK
6
CONTINUOUS
10
239.436
20
-75.3667
11
239.436
21
-61.3173
0
LINE
8
BLACK
6
CONTINUOUS
10
-8.21535
20
-80.3675
11
5.83403
21
-80.3675
0
LINE
8
BLACK
6
CONTINUOUS
10
5.83379
20
-118.467
11
5.83379
21
-132.517
0
LINE
8
BLACK
6
CONTINUOUS
10
196.335
20
-56.3168
11
182.285
21
-56.3168
0
LINE
8
BLACK
6
CONTINUOUS
10
62.9842
20
-118.468
11
62.9842
21
-132.517
0
LINE
8
BLACK
6
CONTINUOUS
10
220.386
20
-75.3668
11
220.386
21
-61.3174
0
LINE
8
BLACK
6
CONTINUOUS
10
239.436
20
-56.3166
11
239.436
21
-42.2672
0
LINE
8
BLACK
6
CONTINUOUS
10
182.285
20
-99.4177
11
196.335
21
-99.4177
0
LINE
8
BLACK
6
CONTINUOUS
10
24.8842
20
-75.3669
11
10.8348
21
-75.3669
  0
ENDSEC
  0
EOF
