%TF.GenerationSoftware,KiCad,Pcbnew,(5.1.9-0-10_14)*%
%TF.CreationDate,2021-01-31T09:35:54+01:00*%
%TF.ProjectId,plate,706c6174-652e-46b6-9963-61645f706362,rev?*%
%TF.SameCoordinates,Original*%
%TF.FileFunction,Profile,NP*%
%FSLAX46Y46*%
G04 Gerber Fmt 4.6, Leading zero omitted, Abs format (unit mm)*
G04 Created by KiCad (PCBNEW (5.1.9-0-10_14)) date 2021-01-31 09:35:54*
%MOMM*%
%LPD*%
G01*
G04 APERTURE LIST*
%TA.AperFunction,Profile*%
%ADD10C,0.100000*%
%TD*%
G04 APERTURE END LIST*
D10*
X102393836Y-145256372D02*
X214907993Y-145256372D01*
X102393836Y-50006292D02*
X102393836Y-145256372D01*
X214907993Y-50006292D02*
X102393836Y-50006292D01*
X104775000Y-142875000D02*
X104775000Y-128587500D01*
X138112500Y-142875000D02*
X138112500Y-128587500D01*
X135731364Y-128587608D02*
X135731364Y-127396982D01*
X107156340Y-127396982D02*
X107156340Y-128587608D01*
X130968860Y-127396982D02*
X130968860Y-128587608D01*
X135731364Y-128587608D02*
X138112616Y-128587608D01*
X111918844Y-127396982D02*
X107156340Y-127396982D01*
X104775000Y-128587500D02*
X107156340Y-128587608D01*
X138112500Y-142875000D02*
X104775000Y-142875000D01*
X142875000Y-128587500D02*
X142875000Y-142875000D01*
X176212500Y-142875000D02*
X161925000Y-142875000D01*
X111918844Y-128587608D02*
X111918844Y-127396982D01*
X135731364Y-127396982D02*
X130968860Y-127396982D01*
X180975000Y-128587500D02*
X195262500Y-128587500D01*
X176212500Y-128587500D02*
X176212500Y-142875000D01*
X157162500Y-128587500D02*
X142875000Y-128587500D01*
X161925000Y-128587500D02*
X176212500Y-128587500D01*
X200025000Y-142875000D02*
X200025000Y-128587500D01*
X180975000Y-142875000D02*
X180975000Y-128587500D01*
X195262500Y-142875000D02*
X180975000Y-142875000D01*
X142875000Y-142875000D02*
X157162500Y-142875000D01*
X157162500Y-142875000D02*
X157162500Y-128587500D01*
X161925000Y-142875000D02*
X161925000Y-128587500D01*
X195262500Y-128587500D02*
X195262500Y-142875000D01*
X111918844Y-128587608D02*
X130968860Y-128587608D01*
X104775000Y-104775000D02*
X104775000Y-90487500D01*
X123825000Y-104775000D02*
X138112500Y-104775000D01*
X176212500Y-90487500D02*
X176212500Y-104775000D01*
X104775000Y-123825000D02*
X104775000Y-109537500D01*
X195262500Y-109537500D02*
X195262500Y-123825000D01*
X119062500Y-123825000D02*
X104775000Y-123825000D01*
X104775000Y-109537500D02*
X119062500Y-109537500D01*
X157162500Y-123825000D02*
X157162500Y-109537500D01*
X157162500Y-109537500D02*
X142875000Y-109537500D01*
X123825000Y-123825000D02*
X138112500Y-123825000D01*
X138112500Y-123825000D02*
X138112500Y-109537500D01*
X180975000Y-123825000D02*
X180975000Y-109537500D01*
X161925000Y-123825000D02*
X161925000Y-109537500D01*
X142875000Y-123825000D02*
X157162500Y-123825000D01*
X176212500Y-123825000D02*
X161925000Y-123825000D01*
X119062500Y-109537500D02*
X119062500Y-123825000D01*
X176212500Y-109537500D02*
X176212500Y-123825000D01*
X142875000Y-109537500D02*
X142875000Y-123825000D01*
X123825000Y-109537500D02*
X123825000Y-123825000D01*
X161925000Y-109537500D02*
X176212500Y-109537500D01*
X180975000Y-109537500D02*
X195262500Y-109537500D01*
X195262500Y-123825000D02*
X180975000Y-123825000D01*
X138112500Y-109537500D02*
X123825000Y-109537500D01*
X200025000Y-123825000D02*
X200025000Y-109537500D01*
X119062500Y-104775000D02*
X104775000Y-104775000D01*
X161925000Y-104775000D02*
X161925000Y-90487500D01*
X104775000Y-90487500D02*
X119062500Y-90487500D01*
X180975000Y-90487500D02*
X195262500Y-90487500D01*
X123825000Y-90487500D02*
X123825000Y-104775000D01*
X157162500Y-90487500D02*
X142875000Y-90487500D01*
X142875000Y-90487500D02*
X142875000Y-104775000D01*
X157162500Y-104775000D02*
X157162500Y-90487500D01*
X138112500Y-104775000D02*
X138112500Y-90487500D01*
X142875000Y-104775000D02*
X157162500Y-104775000D01*
X200025000Y-104775000D02*
X200025000Y-90487500D01*
X195262500Y-90487500D02*
X195262500Y-104775000D01*
X119062500Y-85725000D02*
X104775000Y-85725000D01*
X104775000Y-71437500D02*
X119062500Y-71437500D01*
X161925000Y-85725000D02*
X161925000Y-71437500D01*
X195262500Y-71437500D02*
X195262500Y-85725000D01*
X200025000Y-85725000D02*
X200025000Y-71437500D01*
X123825000Y-71437500D02*
X123825000Y-85725000D01*
X200025000Y-66675000D02*
X200025000Y-52387500D01*
X180975000Y-66675000D02*
X180975000Y-52387500D01*
X195262500Y-66675000D02*
X180975000Y-66675000D01*
X195262500Y-52387500D02*
X195262500Y-66675000D01*
X180975000Y-52387500D02*
X195262500Y-52387500D01*
X161925000Y-66675000D02*
X161925000Y-52387500D01*
X176212500Y-66675000D02*
X161925000Y-66675000D01*
X176212500Y-52387500D02*
X176212500Y-66675000D01*
X161925000Y-52387500D02*
X176212500Y-52387500D01*
X157162500Y-52387500D02*
X142875000Y-52387500D01*
X157162500Y-66675000D02*
X157162500Y-52387500D01*
X142875000Y-66675000D02*
X157162500Y-66675000D01*
X142875000Y-52387500D02*
X142875000Y-66675000D01*
X138112500Y-52387500D02*
X123825000Y-52387500D01*
X138112500Y-66675000D02*
X138112500Y-52387500D01*
X123825000Y-66675000D02*
X138112500Y-66675000D01*
X123825000Y-52387500D02*
X123825000Y-66675000D01*
X104775000Y-66675000D02*
X104775000Y-52387500D01*
X119062500Y-66675000D02*
X104775000Y-66675000D01*
X119062500Y-52387500D02*
X119062500Y-66675000D01*
X104775000Y-52387500D02*
X119062500Y-52387500D01*
X180975000Y-104775000D02*
X180975000Y-90487500D01*
X176212500Y-104775000D02*
X161925000Y-104775000D01*
X195262500Y-104775000D02*
X180975000Y-104775000D01*
X161925000Y-90487500D02*
X176212500Y-90487500D01*
X138112500Y-90487500D02*
X123825000Y-90487500D01*
X119062500Y-90487500D02*
X119062500Y-104775000D01*
X123825000Y-85725000D02*
X138112500Y-85725000D01*
X157162500Y-85725000D02*
X157162500Y-71437500D01*
X142875000Y-71437500D02*
X142875000Y-85725000D01*
X142875000Y-85725000D02*
X157162500Y-85725000D01*
X104775000Y-85725000D02*
X104775000Y-71437500D01*
X176212500Y-71437500D02*
X176212500Y-85725000D01*
X157162500Y-71437500D02*
X142875000Y-71437500D01*
X180975000Y-71437500D02*
X195262500Y-71437500D01*
X138112500Y-85725000D02*
X138112500Y-71437500D01*
X138112500Y-71437500D02*
X123825000Y-71437500D01*
X119062500Y-71437500D02*
X119062500Y-85725000D01*
X195262500Y-85725000D02*
X180975000Y-85725000D01*
X161925000Y-71437500D02*
X176212500Y-71437500D01*
X180975000Y-85725000D02*
X180975000Y-71437500D01*
X176212500Y-85725000D02*
X161925000Y-85725000D01*
X200025000Y-90487500D02*
X214312500Y-90487500D01*
X214312500Y-90487500D02*
X214312500Y-104775000D01*
X214312500Y-104775000D02*
X200025000Y-104775000D01*
X214312500Y-71437500D02*
X214312500Y-85725000D01*
X214312500Y-85725000D02*
X200025000Y-85725000D01*
X214312500Y-66675000D02*
X200025000Y-66675000D01*
X214312500Y-52387500D02*
X214312500Y-66675000D01*
X200025000Y-52387500D02*
X214312500Y-52387500D01*
X200025000Y-71437500D02*
X214312500Y-71437500D01*
X214312500Y-142875000D02*
X200025000Y-142875000D01*
X200025000Y-128587500D02*
X214312500Y-128587500D01*
X214312500Y-128587500D02*
X214312500Y-142875000D01*
X200025000Y-109537500D02*
X214312500Y-109537500D01*
X214312500Y-123825000D02*
X200025000Y-123825000D01*
X214312500Y-109537500D02*
X214312500Y-123825000D01*
X211931428Y-108942279D02*
G75*
G02*
X211931428Y-105370401I0J1785939D01*
G01*
X211931250Y-108942279D02*
X216693750Y-108942279D01*
X216693750Y-105370401D02*
X211931250Y-105370401D01*
X216693932Y-108942279D02*
X216693932Y-143470433D01*
X216693932Y-51792231D02*
X216693932Y-105370401D01*
X216693932Y-143470433D02*
G75*
G02*
X214907993Y-145256372I-1785939J0D01*
G01*
X214907993Y-50006292D02*
G75*
G02*
X216693932Y-51792231I0J-1785939D01*
G01*
M02*
