G04 #@! TF.GenerationSoftware,KiCad,Pcbnew,(5.1.9-0-10_14)*
G04 #@! TF.CreationDate,2021-03-19T17:22:40+01:00*
G04 #@! TF.ProjectId,plate,706c6174-652e-46b6-9963-61645f706362,rev?*
G04 #@! TF.SameCoordinates,Original*
G04 #@! TF.FileFunction,Copper,L2,Bot*
G04 #@! TF.FilePolarity,Positive*
%FSLAX46Y46*%
G04 Gerber Fmt 4.6, Leading zero omitted, Abs format (unit mm)*
G04 Created by KiCad (PCBNEW (5.1.9-0-10_14)) date 2021-03-19 17:22:40*
%MOMM*%
%LPD*%
G01*
G04 APERTURE LIST*
G04 #@! TA.AperFunction,NonConductor*
%ADD10C,0.254000*%
G04 #@! TD*
G04 #@! TA.AperFunction,NonConductor*
%ADD11C,0.100000*%
G04 #@! TD*
G04 APERTURE END LIST*
D10*
X215121195Y-50715482D02*
X215326276Y-50777399D01*
X215515428Y-50877973D01*
X215681437Y-51013367D01*
X215817988Y-51178429D01*
X215919881Y-51366877D01*
X215983227Y-51571514D01*
X216008932Y-51816083D01*
X216008933Y-104090088D01*
X214997500Y-104090088D01*
X214997500Y-90521147D01*
X215000814Y-90487500D01*
X214987588Y-90353217D01*
X214948419Y-90224094D01*
X214884812Y-90105093D01*
X214799211Y-90000789D01*
X214694907Y-89915188D01*
X214575906Y-89851581D01*
X214446783Y-89812412D01*
X214346147Y-89802500D01*
X214312500Y-89799186D01*
X214278853Y-89802500D01*
X200058647Y-89802500D01*
X200025000Y-89799186D01*
X199991353Y-89802500D01*
X199890717Y-89812412D01*
X199761594Y-89851581D01*
X199642593Y-89915188D01*
X199538289Y-90000789D01*
X199452688Y-90105093D01*
X199389081Y-90224094D01*
X199349912Y-90353217D01*
X199336686Y-90487500D01*
X199340001Y-90521157D01*
X199340000Y-104741441D01*
X199336686Y-104775088D01*
X199349912Y-104909371D01*
X199389081Y-105038494D01*
X199452688Y-105157495D01*
X199538289Y-105261799D01*
X199642593Y-105347400D01*
X199761594Y-105411007D01*
X199890717Y-105450176D01*
X199991353Y-105460088D01*
X199992247Y-105460088D01*
X200025000Y-105463314D01*
X200057753Y-105460088D01*
X209460489Y-105460088D01*
X209460490Y-108852500D01*
X200058647Y-108852500D01*
X200025000Y-108849186D01*
X199991353Y-108852500D01*
X199890717Y-108862412D01*
X199761594Y-108901581D01*
X199642593Y-108965188D01*
X199538289Y-109050789D01*
X199452688Y-109155093D01*
X199389081Y-109274094D01*
X199349912Y-109403217D01*
X199336686Y-109537500D01*
X199340001Y-109571157D01*
X199340000Y-123791353D01*
X199336686Y-123825000D01*
X199349912Y-123959283D01*
X199389081Y-124088406D01*
X199452688Y-124207407D01*
X199538289Y-124311711D01*
X199642593Y-124397312D01*
X199761594Y-124460919D01*
X199890717Y-124500088D01*
X200025000Y-124513314D01*
X200058647Y-124510000D01*
X214278853Y-124510000D01*
X214312500Y-124513314D01*
X214446783Y-124500088D01*
X214575906Y-124460919D01*
X214694907Y-124397312D01*
X214799211Y-124311711D01*
X214884812Y-124207407D01*
X214948419Y-124088406D01*
X214987588Y-123959283D01*
X214997500Y-123858647D01*
X214997500Y-123858646D01*
X215000814Y-123825000D01*
X214997500Y-123791353D01*
X214997500Y-110222592D01*
X216008932Y-110222592D01*
X216008933Y-143436918D01*
X215984742Y-143683637D01*
X215922825Y-143888716D01*
X215822253Y-144077865D01*
X215686857Y-144243877D01*
X215521793Y-144380430D01*
X215333349Y-144482320D01*
X215128711Y-144545667D01*
X214884141Y-144571372D01*
X103078836Y-144571372D01*
X103078836Y-142875000D01*
X104086686Y-142875000D01*
X104099912Y-143009283D01*
X104139081Y-143138406D01*
X104202688Y-143257407D01*
X104288289Y-143361711D01*
X104339316Y-143403588D01*
X104392593Y-143447312D01*
X104511594Y-143510919D01*
X104640717Y-143550088D01*
X104775000Y-143563314D01*
X104808647Y-143560000D01*
X138078853Y-143560000D01*
X138112500Y-143563314D01*
X138146147Y-143560000D01*
X138246783Y-143550088D01*
X138375906Y-143510919D01*
X138494907Y-143447312D01*
X138599211Y-143361711D01*
X138684812Y-143257407D01*
X138748419Y-143138406D01*
X138787588Y-143009283D01*
X138800814Y-142875000D01*
X138797500Y-142841353D01*
X138797500Y-128622433D01*
X138800930Y-128587608D01*
X138800920Y-128587500D01*
X142186686Y-128587500D01*
X142190000Y-128621147D01*
X142190001Y-142841343D01*
X142186686Y-142875000D01*
X142199912Y-143009283D01*
X142239081Y-143138406D01*
X142302688Y-143257407D01*
X142388289Y-143361711D01*
X142492593Y-143447312D01*
X142611594Y-143510919D01*
X142740717Y-143550088D01*
X142841353Y-143560000D01*
X142875000Y-143563314D01*
X142908647Y-143560000D01*
X157128853Y-143560000D01*
X157162500Y-143563314D01*
X157196147Y-143560000D01*
X157296783Y-143550088D01*
X157425906Y-143510919D01*
X157544907Y-143447312D01*
X157649211Y-143361711D01*
X157734812Y-143257407D01*
X157798419Y-143138406D01*
X157837588Y-143009283D01*
X157850814Y-142875000D01*
X157847500Y-142841353D01*
X157847500Y-128621147D01*
X157850814Y-128587500D01*
X161236686Y-128587500D01*
X161240001Y-128621157D01*
X161240000Y-142841353D01*
X161236686Y-142875000D01*
X161249912Y-143009283D01*
X161289081Y-143138406D01*
X161352688Y-143257407D01*
X161438289Y-143361711D01*
X161489316Y-143403588D01*
X161542593Y-143447312D01*
X161661594Y-143510919D01*
X161790717Y-143550088D01*
X161925000Y-143563314D01*
X161958647Y-143560000D01*
X176178853Y-143560000D01*
X176212500Y-143563314D01*
X176346783Y-143550088D01*
X176475906Y-143510919D01*
X176594907Y-143447312D01*
X176699211Y-143361711D01*
X176784812Y-143257407D01*
X176848419Y-143138406D01*
X176887588Y-143009283D01*
X176897500Y-142908647D01*
X176897500Y-142908646D01*
X176900814Y-142875000D01*
X176897500Y-142841353D01*
X176897500Y-128621147D01*
X176900814Y-128587500D01*
X180286686Y-128587500D01*
X180290001Y-128621157D01*
X180290000Y-142841353D01*
X180286686Y-142875000D01*
X180299912Y-143009283D01*
X180339081Y-143138406D01*
X180402688Y-143257407D01*
X180488289Y-143361711D01*
X180539316Y-143403588D01*
X180592593Y-143447312D01*
X180711594Y-143510919D01*
X180840717Y-143550088D01*
X180975000Y-143563314D01*
X181008647Y-143560000D01*
X195228853Y-143560000D01*
X195262500Y-143563314D01*
X195396783Y-143550088D01*
X195525906Y-143510919D01*
X195644907Y-143447312D01*
X195749211Y-143361711D01*
X195834812Y-143257407D01*
X195898419Y-143138406D01*
X195937588Y-143009283D01*
X195947500Y-142908647D01*
X195947500Y-142908646D01*
X195950814Y-142875000D01*
X195947500Y-142841353D01*
X195947500Y-128621147D01*
X195950814Y-128587500D01*
X199336686Y-128587500D01*
X199340001Y-128621157D01*
X199340000Y-142841353D01*
X199336686Y-142875000D01*
X199349912Y-143009283D01*
X199389081Y-143138406D01*
X199452688Y-143257407D01*
X199538289Y-143361711D01*
X199589316Y-143403588D01*
X199642593Y-143447312D01*
X199761594Y-143510919D01*
X199890717Y-143550088D01*
X200025000Y-143563314D01*
X200058647Y-143560000D01*
X214278853Y-143560000D01*
X214312500Y-143563314D01*
X214446783Y-143550088D01*
X214575906Y-143510919D01*
X214694907Y-143447312D01*
X214799211Y-143361711D01*
X214884812Y-143257407D01*
X214948419Y-143138406D01*
X214987588Y-143009283D01*
X214997500Y-142908647D01*
X214997500Y-142908646D01*
X215000814Y-142875000D01*
X214997500Y-142841353D01*
X214997500Y-128621147D01*
X215000814Y-128587500D01*
X214987588Y-128453217D01*
X214948419Y-128324094D01*
X214884812Y-128205093D01*
X214799211Y-128100789D01*
X214694907Y-128015188D01*
X214575906Y-127951581D01*
X214446783Y-127912412D01*
X214346147Y-127902500D01*
X214312500Y-127899186D01*
X214278853Y-127902500D01*
X200058647Y-127902500D01*
X200025000Y-127899186D01*
X199991353Y-127902500D01*
X199890717Y-127912412D01*
X199761594Y-127951581D01*
X199642593Y-128015188D01*
X199538289Y-128100789D01*
X199452688Y-128205093D01*
X199389081Y-128324094D01*
X199349912Y-128453217D01*
X199336686Y-128587500D01*
X195950814Y-128587500D01*
X195937588Y-128453217D01*
X195898419Y-128324094D01*
X195834812Y-128205093D01*
X195749211Y-128100789D01*
X195644907Y-128015188D01*
X195525906Y-127951581D01*
X195396783Y-127912412D01*
X195296147Y-127902500D01*
X195262500Y-127899186D01*
X195228853Y-127902500D01*
X181008647Y-127902500D01*
X180975000Y-127899186D01*
X180941353Y-127902500D01*
X180840717Y-127912412D01*
X180711594Y-127951581D01*
X180592593Y-128015188D01*
X180488289Y-128100789D01*
X180402688Y-128205093D01*
X180339081Y-128324094D01*
X180299912Y-128453217D01*
X180286686Y-128587500D01*
X176900814Y-128587500D01*
X176887588Y-128453217D01*
X176848419Y-128324094D01*
X176784812Y-128205093D01*
X176699211Y-128100789D01*
X176594907Y-128015188D01*
X176475906Y-127951581D01*
X176346783Y-127912412D01*
X176246147Y-127902500D01*
X176212500Y-127899186D01*
X176178853Y-127902500D01*
X161958647Y-127902500D01*
X161925000Y-127899186D01*
X161891353Y-127902500D01*
X161790717Y-127912412D01*
X161661594Y-127951581D01*
X161542593Y-128015188D01*
X161438289Y-128100789D01*
X161352688Y-128205093D01*
X161289081Y-128324094D01*
X161249912Y-128453217D01*
X161236686Y-128587500D01*
X157850814Y-128587500D01*
X157837588Y-128453217D01*
X157798419Y-128324094D01*
X157734812Y-128205093D01*
X157649211Y-128100789D01*
X157544907Y-128015188D01*
X157425906Y-127951581D01*
X157296783Y-127912412D01*
X157196147Y-127902500D01*
X157162500Y-127899186D01*
X157128853Y-127902500D01*
X142908647Y-127902500D01*
X142875000Y-127899186D01*
X142841353Y-127902500D01*
X142740717Y-127912412D01*
X142611594Y-127951581D01*
X142492593Y-128015188D01*
X142388289Y-128100789D01*
X142302688Y-128205093D01*
X142239081Y-128324094D01*
X142199912Y-128453217D01*
X142186686Y-128587500D01*
X138800920Y-128587500D01*
X138787704Y-128453325D01*
X138748535Y-128324202D01*
X138684928Y-128205201D01*
X138599327Y-128100897D01*
X138599243Y-128100828D01*
X138599211Y-128100789D01*
X138494907Y-128015188D01*
X138375906Y-127951581D01*
X138246783Y-127912412D01*
X138112500Y-127899186D01*
X138077757Y-127902608D01*
X136416364Y-127902608D01*
X136416364Y-127430629D01*
X136419678Y-127396982D01*
X136406452Y-127262699D01*
X136367283Y-127133576D01*
X136303676Y-127014575D01*
X136218075Y-126910271D01*
X136113771Y-126824670D01*
X135994770Y-126761063D01*
X135865647Y-126721894D01*
X135765011Y-126711982D01*
X135731364Y-126708668D01*
X135697717Y-126711982D01*
X131002507Y-126711982D01*
X130968860Y-126708668D01*
X130935213Y-126711982D01*
X130834577Y-126721894D01*
X130705454Y-126761063D01*
X130586453Y-126824670D01*
X130482149Y-126910271D01*
X130396548Y-127014575D01*
X130332941Y-127133576D01*
X130293772Y-127262699D01*
X130280546Y-127396982D01*
X130283860Y-127430629D01*
X130283860Y-127902608D01*
X112603844Y-127902608D01*
X112603844Y-127430629D01*
X112607158Y-127396982D01*
X112593932Y-127262699D01*
X112554763Y-127133576D01*
X112491156Y-127014575D01*
X112405555Y-126910271D01*
X112301251Y-126824670D01*
X112182250Y-126761063D01*
X112053127Y-126721894D01*
X111952491Y-126711982D01*
X111918844Y-126708668D01*
X111885197Y-126711982D01*
X107189987Y-126711982D01*
X107156340Y-126708668D01*
X107122693Y-126711982D01*
X107022057Y-126721894D01*
X106892934Y-126761063D01*
X106773933Y-126824670D01*
X106669629Y-126910271D01*
X106584028Y-127014575D01*
X106520421Y-127133576D01*
X106481252Y-127262699D01*
X106468026Y-127396982D01*
X106471340Y-127430629D01*
X106471340Y-127902577D01*
X104808668Y-127902502D01*
X104775000Y-127899186D01*
X104700114Y-127906562D01*
X104640748Y-127912406D01*
X104640733Y-127912411D01*
X104640718Y-127912412D01*
X104569344Y-127934063D01*
X104511623Y-127951570D01*
X104511612Y-127951576D01*
X104511595Y-127951581D01*
X104449547Y-127984746D01*
X104392619Y-128015171D01*
X104392606Y-128015181D01*
X104392594Y-128015188D01*
X104343455Y-128055516D01*
X104288312Y-128100767D01*
X104288302Y-128100779D01*
X104288290Y-128100789D01*
X104243056Y-128155906D01*
X104202706Y-128205068D01*
X104202699Y-128205080D01*
X104202689Y-128205093D01*
X104172275Y-128261993D01*
X104139093Y-128324066D01*
X104139088Y-128324083D01*
X104139082Y-128324094D01*
X104121581Y-128381786D01*
X104099919Y-128453187D01*
X104099918Y-128453202D01*
X104099913Y-128453217D01*
X104093297Y-128520388D01*
X104086687Y-128587469D01*
X104090001Y-128621134D01*
X104090000Y-142841353D01*
X104086686Y-142875000D01*
X103078836Y-142875000D01*
X103078836Y-109537500D01*
X104086686Y-109537500D01*
X104090001Y-109571157D01*
X104090000Y-123791353D01*
X104086686Y-123825000D01*
X104099912Y-123959283D01*
X104139081Y-124088406D01*
X104202688Y-124207407D01*
X104288289Y-124311711D01*
X104392593Y-124397312D01*
X104511594Y-124460919D01*
X104640717Y-124500088D01*
X104775000Y-124513314D01*
X104808647Y-124510000D01*
X119028853Y-124510000D01*
X119062500Y-124513314D01*
X119196783Y-124500088D01*
X119325906Y-124460919D01*
X119444907Y-124397312D01*
X119549211Y-124311711D01*
X119634812Y-124207407D01*
X119698419Y-124088406D01*
X119737588Y-123959283D01*
X119747500Y-123858647D01*
X119747500Y-123858646D01*
X119750814Y-123825000D01*
X119747500Y-123791353D01*
X119747500Y-109571147D01*
X119750814Y-109537500D01*
X123136686Y-109537500D01*
X123140000Y-109571147D01*
X123140001Y-123791343D01*
X123136686Y-123825000D01*
X123149912Y-123959283D01*
X123189081Y-124088406D01*
X123252688Y-124207407D01*
X123338289Y-124311711D01*
X123442593Y-124397312D01*
X123561594Y-124460919D01*
X123690717Y-124500088D01*
X123791353Y-124510000D01*
X123825000Y-124513314D01*
X123858647Y-124510000D01*
X138078853Y-124510000D01*
X138112500Y-124513314D01*
X138146147Y-124510000D01*
X138246783Y-124500088D01*
X138375906Y-124460919D01*
X138494907Y-124397312D01*
X138599211Y-124311711D01*
X138684812Y-124207407D01*
X138748419Y-124088406D01*
X138787588Y-123959283D01*
X138800814Y-123825000D01*
X138797500Y-123791353D01*
X138797500Y-109571147D01*
X138800814Y-109537500D01*
X142186686Y-109537500D01*
X142190000Y-109571147D01*
X142190001Y-123791343D01*
X142186686Y-123825000D01*
X142199912Y-123959283D01*
X142239081Y-124088406D01*
X142302688Y-124207407D01*
X142388289Y-124311711D01*
X142492593Y-124397312D01*
X142611594Y-124460919D01*
X142740717Y-124500088D01*
X142841353Y-124510000D01*
X142875000Y-124513314D01*
X142908647Y-124510000D01*
X157128853Y-124510000D01*
X157162500Y-124513314D01*
X157196147Y-124510000D01*
X157296783Y-124500088D01*
X157425906Y-124460919D01*
X157544907Y-124397312D01*
X157649211Y-124311711D01*
X157734812Y-124207407D01*
X157798419Y-124088406D01*
X157837588Y-123959283D01*
X157850814Y-123825000D01*
X157847500Y-123791353D01*
X157847500Y-109571147D01*
X157850814Y-109537500D01*
X161236686Y-109537500D01*
X161240001Y-109571157D01*
X161240000Y-123791353D01*
X161236686Y-123825000D01*
X161249912Y-123959283D01*
X161289081Y-124088406D01*
X161352688Y-124207407D01*
X161438289Y-124311711D01*
X161542593Y-124397312D01*
X161661594Y-124460919D01*
X161790717Y-124500088D01*
X161925000Y-124513314D01*
X161958647Y-124510000D01*
X176178853Y-124510000D01*
X176212500Y-124513314D01*
X176346783Y-124500088D01*
X176475906Y-124460919D01*
X176594907Y-124397312D01*
X176699211Y-124311711D01*
X176784812Y-124207407D01*
X176848419Y-124088406D01*
X176887588Y-123959283D01*
X176897500Y-123858647D01*
X176897500Y-123858646D01*
X176900814Y-123825000D01*
X176897500Y-123791353D01*
X176897500Y-109571147D01*
X176900814Y-109537500D01*
X180286686Y-109537500D01*
X180290001Y-109571157D01*
X180290000Y-123791353D01*
X180286686Y-123825000D01*
X180299912Y-123959283D01*
X180339081Y-124088406D01*
X180402688Y-124207407D01*
X180488289Y-124311711D01*
X180592593Y-124397312D01*
X180711594Y-124460919D01*
X180840717Y-124500088D01*
X180975000Y-124513314D01*
X181008647Y-124510000D01*
X195228853Y-124510000D01*
X195262500Y-124513314D01*
X195396783Y-124500088D01*
X195525906Y-124460919D01*
X195644907Y-124397312D01*
X195749211Y-124311711D01*
X195834812Y-124207407D01*
X195898419Y-124088406D01*
X195937588Y-123959283D01*
X195947500Y-123858647D01*
X195947500Y-123858646D01*
X195950814Y-123825000D01*
X195947500Y-123791353D01*
X195947500Y-109571147D01*
X195950814Y-109537500D01*
X195937588Y-109403217D01*
X195898419Y-109274094D01*
X195834812Y-109155093D01*
X195749211Y-109050789D01*
X195644907Y-108965188D01*
X195525906Y-108901581D01*
X195396783Y-108862412D01*
X195296147Y-108852500D01*
X195262500Y-108849186D01*
X195228853Y-108852500D01*
X181008647Y-108852500D01*
X180975000Y-108849186D01*
X180941353Y-108852500D01*
X180840717Y-108862412D01*
X180711594Y-108901581D01*
X180592593Y-108965188D01*
X180488289Y-109050789D01*
X180402688Y-109155093D01*
X180339081Y-109274094D01*
X180299912Y-109403217D01*
X180286686Y-109537500D01*
X176900814Y-109537500D01*
X176887588Y-109403217D01*
X176848419Y-109274094D01*
X176784812Y-109155093D01*
X176699211Y-109050789D01*
X176594907Y-108965188D01*
X176475906Y-108901581D01*
X176346783Y-108862412D01*
X176246147Y-108852500D01*
X176212500Y-108849186D01*
X176178853Y-108852500D01*
X161958647Y-108852500D01*
X161925000Y-108849186D01*
X161891353Y-108852500D01*
X161790717Y-108862412D01*
X161661594Y-108901581D01*
X161542593Y-108965188D01*
X161438289Y-109050789D01*
X161352688Y-109155093D01*
X161289081Y-109274094D01*
X161249912Y-109403217D01*
X161236686Y-109537500D01*
X157850814Y-109537500D01*
X157837588Y-109403217D01*
X157798419Y-109274094D01*
X157734812Y-109155093D01*
X157649211Y-109050789D01*
X157544907Y-108965188D01*
X157425906Y-108901581D01*
X157296783Y-108862412D01*
X157196147Y-108852500D01*
X157162500Y-108849186D01*
X157128853Y-108852500D01*
X142908647Y-108852500D01*
X142875000Y-108849186D01*
X142841353Y-108852500D01*
X142740717Y-108862412D01*
X142611594Y-108901581D01*
X142492593Y-108965188D01*
X142388289Y-109050789D01*
X142302688Y-109155093D01*
X142239081Y-109274094D01*
X142199912Y-109403217D01*
X142186686Y-109537500D01*
X138800814Y-109537500D01*
X138787588Y-109403217D01*
X138748419Y-109274094D01*
X138684812Y-109155093D01*
X138599211Y-109050789D01*
X138494907Y-108965188D01*
X138375906Y-108901581D01*
X138246783Y-108862412D01*
X138146147Y-108852500D01*
X138112500Y-108849186D01*
X138078853Y-108852500D01*
X123858647Y-108852500D01*
X123825000Y-108849186D01*
X123791353Y-108852500D01*
X123690717Y-108862412D01*
X123561594Y-108901581D01*
X123442593Y-108965188D01*
X123338289Y-109050789D01*
X123252688Y-109155093D01*
X123189081Y-109274094D01*
X123149912Y-109403217D01*
X123136686Y-109537500D01*
X119750814Y-109537500D01*
X119737588Y-109403217D01*
X119698419Y-109274094D01*
X119634812Y-109155093D01*
X119549211Y-109050789D01*
X119444907Y-108965188D01*
X119325906Y-108901581D01*
X119196783Y-108862412D01*
X119096147Y-108852500D01*
X119062500Y-108849186D01*
X119028853Y-108852500D01*
X104808647Y-108852500D01*
X104775000Y-108849186D01*
X104741353Y-108852500D01*
X104640717Y-108862412D01*
X104511594Y-108901581D01*
X104392593Y-108965188D01*
X104288289Y-109050789D01*
X104202688Y-109155093D01*
X104139081Y-109274094D01*
X104099912Y-109403217D01*
X104086686Y-109537500D01*
X103078836Y-109537500D01*
X103078836Y-90487500D01*
X104086686Y-90487500D01*
X104090001Y-90521157D01*
X104090000Y-104741353D01*
X104086686Y-104775000D01*
X104099912Y-104909283D01*
X104139081Y-105038406D01*
X104202688Y-105157407D01*
X104288289Y-105261711D01*
X104392593Y-105347312D01*
X104511594Y-105410919D01*
X104640717Y-105450088D01*
X104775000Y-105463314D01*
X104808647Y-105460000D01*
X119028853Y-105460000D01*
X119062500Y-105463314D01*
X119196783Y-105450088D01*
X119325906Y-105410919D01*
X119444907Y-105347312D01*
X119549211Y-105261711D01*
X119634812Y-105157407D01*
X119698419Y-105038406D01*
X119737588Y-104909283D01*
X119747500Y-104808647D01*
X119747500Y-104808646D01*
X119750814Y-104775000D01*
X119747500Y-104741353D01*
X119747500Y-90521147D01*
X119750814Y-90487500D01*
X123136686Y-90487500D01*
X123140000Y-90521147D01*
X123140001Y-104741343D01*
X123136686Y-104775000D01*
X123149912Y-104909283D01*
X123189081Y-105038406D01*
X123252688Y-105157407D01*
X123338289Y-105261711D01*
X123442593Y-105347312D01*
X123561594Y-105410919D01*
X123690717Y-105450088D01*
X123791353Y-105460000D01*
X123825000Y-105463314D01*
X123858647Y-105460000D01*
X138078853Y-105460000D01*
X138112500Y-105463314D01*
X138146147Y-105460000D01*
X138246783Y-105450088D01*
X138375906Y-105410919D01*
X138494907Y-105347312D01*
X138599211Y-105261711D01*
X138684812Y-105157407D01*
X138748419Y-105038406D01*
X138787588Y-104909283D01*
X138800814Y-104775000D01*
X138797500Y-104741353D01*
X138797500Y-90521147D01*
X138800814Y-90487500D01*
X142186686Y-90487500D01*
X142190000Y-90521147D01*
X142190001Y-104741343D01*
X142186686Y-104775000D01*
X142199912Y-104909283D01*
X142239081Y-105038406D01*
X142302688Y-105157407D01*
X142388289Y-105261711D01*
X142492593Y-105347312D01*
X142611594Y-105410919D01*
X142740717Y-105450088D01*
X142841353Y-105460000D01*
X142875000Y-105463314D01*
X142908647Y-105460000D01*
X157128853Y-105460000D01*
X157162500Y-105463314D01*
X157196147Y-105460000D01*
X157296783Y-105450088D01*
X157425906Y-105410919D01*
X157544907Y-105347312D01*
X157649211Y-105261711D01*
X157734812Y-105157407D01*
X157798419Y-105038406D01*
X157837588Y-104909283D01*
X157850814Y-104775000D01*
X157847500Y-104741353D01*
X157847500Y-90521147D01*
X157850814Y-90487500D01*
X161236686Y-90487500D01*
X161240001Y-90521157D01*
X161240000Y-104741353D01*
X161236686Y-104775000D01*
X161249912Y-104909283D01*
X161289081Y-105038406D01*
X161352688Y-105157407D01*
X161438289Y-105261711D01*
X161542593Y-105347312D01*
X161661594Y-105410919D01*
X161790717Y-105450088D01*
X161925000Y-105463314D01*
X161958647Y-105460000D01*
X176178853Y-105460000D01*
X176212500Y-105463314D01*
X176346783Y-105450088D01*
X176475906Y-105410919D01*
X176594907Y-105347312D01*
X176699211Y-105261711D01*
X176784812Y-105157407D01*
X176848419Y-105038406D01*
X176887588Y-104909283D01*
X176897500Y-104808647D01*
X176897500Y-104808646D01*
X176900814Y-104775000D01*
X176897500Y-104741353D01*
X176897500Y-90521147D01*
X176900814Y-90487500D01*
X180286686Y-90487500D01*
X180290001Y-90521157D01*
X180290000Y-104741353D01*
X180286686Y-104775000D01*
X180299912Y-104909283D01*
X180339081Y-105038406D01*
X180402688Y-105157407D01*
X180488289Y-105261711D01*
X180592593Y-105347312D01*
X180711594Y-105410919D01*
X180840717Y-105450088D01*
X180975000Y-105463314D01*
X181008647Y-105460000D01*
X195228853Y-105460000D01*
X195262500Y-105463314D01*
X195396783Y-105450088D01*
X195525906Y-105410919D01*
X195644907Y-105347312D01*
X195749211Y-105261711D01*
X195834812Y-105157407D01*
X195898419Y-105038406D01*
X195937588Y-104909283D01*
X195947500Y-104808647D01*
X195947500Y-104808646D01*
X195950814Y-104775000D01*
X195947500Y-104741353D01*
X195947500Y-90521147D01*
X195950814Y-90487500D01*
X195937588Y-90353217D01*
X195898419Y-90224094D01*
X195834812Y-90105093D01*
X195749211Y-90000789D01*
X195644907Y-89915188D01*
X195525906Y-89851581D01*
X195396783Y-89812412D01*
X195296147Y-89802500D01*
X195262500Y-89799186D01*
X195228853Y-89802500D01*
X181008647Y-89802500D01*
X180975000Y-89799186D01*
X180941353Y-89802500D01*
X180840717Y-89812412D01*
X180711594Y-89851581D01*
X180592593Y-89915188D01*
X180488289Y-90000789D01*
X180402688Y-90105093D01*
X180339081Y-90224094D01*
X180299912Y-90353217D01*
X180286686Y-90487500D01*
X176900814Y-90487500D01*
X176887588Y-90353217D01*
X176848419Y-90224094D01*
X176784812Y-90105093D01*
X176699211Y-90000789D01*
X176594907Y-89915188D01*
X176475906Y-89851581D01*
X176346783Y-89812412D01*
X176246147Y-89802500D01*
X176212500Y-89799186D01*
X176178853Y-89802500D01*
X161958647Y-89802500D01*
X161925000Y-89799186D01*
X161891353Y-89802500D01*
X161790717Y-89812412D01*
X161661594Y-89851581D01*
X161542593Y-89915188D01*
X161438289Y-90000789D01*
X161352688Y-90105093D01*
X161289081Y-90224094D01*
X161249912Y-90353217D01*
X161236686Y-90487500D01*
X157850814Y-90487500D01*
X157837588Y-90353217D01*
X157798419Y-90224094D01*
X157734812Y-90105093D01*
X157649211Y-90000789D01*
X157544907Y-89915188D01*
X157425906Y-89851581D01*
X157296783Y-89812412D01*
X157196147Y-89802500D01*
X157162500Y-89799186D01*
X157128853Y-89802500D01*
X142908647Y-89802500D01*
X142875000Y-89799186D01*
X142841353Y-89802500D01*
X142740717Y-89812412D01*
X142611594Y-89851581D01*
X142492593Y-89915188D01*
X142388289Y-90000789D01*
X142302688Y-90105093D01*
X142239081Y-90224094D01*
X142199912Y-90353217D01*
X142186686Y-90487500D01*
X138800814Y-90487500D01*
X138787588Y-90353217D01*
X138748419Y-90224094D01*
X138684812Y-90105093D01*
X138599211Y-90000789D01*
X138494907Y-89915188D01*
X138375906Y-89851581D01*
X138246783Y-89812412D01*
X138146147Y-89802500D01*
X138112500Y-89799186D01*
X138078853Y-89802500D01*
X123858647Y-89802500D01*
X123825000Y-89799186D01*
X123791353Y-89802500D01*
X123690717Y-89812412D01*
X123561594Y-89851581D01*
X123442593Y-89915188D01*
X123338289Y-90000789D01*
X123252688Y-90105093D01*
X123189081Y-90224094D01*
X123149912Y-90353217D01*
X123136686Y-90487500D01*
X119750814Y-90487500D01*
X119737588Y-90353217D01*
X119698419Y-90224094D01*
X119634812Y-90105093D01*
X119549211Y-90000789D01*
X119444907Y-89915188D01*
X119325906Y-89851581D01*
X119196783Y-89812412D01*
X119096147Y-89802500D01*
X119062500Y-89799186D01*
X119028853Y-89802500D01*
X104808647Y-89802500D01*
X104775000Y-89799186D01*
X104741353Y-89802500D01*
X104640717Y-89812412D01*
X104511594Y-89851581D01*
X104392593Y-89915188D01*
X104288289Y-90000789D01*
X104202688Y-90105093D01*
X104139081Y-90224094D01*
X104099912Y-90353217D01*
X104086686Y-90487500D01*
X103078836Y-90487500D01*
X103078836Y-71437500D01*
X104086686Y-71437500D01*
X104090001Y-71471157D01*
X104090000Y-85691353D01*
X104086686Y-85725000D01*
X104099912Y-85859283D01*
X104139081Y-85988406D01*
X104202688Y-86107407D01*
X104288289Y-86211711D01*
X104392593Y-86297312D01*
X104511594Y-86360919D01*
X104640717Y-86400088D01*
X104775000Y-86413314D01*
X104808647Y-86410000D01*
X119028853Y-86410000D01*
X119062500Y-86413314D01*
X119196783Y-86400088D01*
X119325906Y-86360919D01*
X119444907Y-86297312D01*
X119549211Y-86211711D01*
X119634812Y-86107407D01*
X119698419Y-85988406D01*
X119737588Y-85859283D01*
X119747500Y-85758647D01*
X119747500Y-85758646D01*
X119750814Y-85725000D01*
X119747500Y-85691353D01*
X119747500Y-71471147D01*
X119750814Y-71437500D01*
X123136686Y-71437500D01*
X123140000Y-71471147D01*
X123140001Y-85691343D01*
X123136686Y-85725000D01*
X123149912Y-85859283D01*
X123189081Y-85988406D01*
X123252688Y-86107407D01*
X123338289Y-86211711D01*
X123442593Y-86297312D01*
X123561594Y-86360919D01*
X123690717Y-86400088D01*
X123791353Y-86410000D01*
X123825000Y-86413314D01*
X123858647Y-86410000D01*
X138078853Y-86410000D01*
X138112500Y-86413314D01*
X138146147Y-86410000D01*
X138246783Y-86400088D01*
X138375906Y-86360919D01*
X138494907Y-86297312D01*
X138599211Y-86211711D01*
X138684812Y-86107407D01*
X138748419Y-85988406D01*
X138787588Y-85859283D01*
X138800814Y-85725000D01*
X138797500Y-85691353D01*
X138797500Y-71471147D01*
X138800814Y-71437500D01*
X142186686Y-71437500D01*
X142190000Y-71471147D01*
X142190001Y-85691343D01*
X142186686Y-85725000D01*
X142199912Y-85859283D01*
X142239081Y-85988406D01*
X142302688Y-86107407D01*
X142388289Y-86211711D01*
X142492593Y-86297312D01*
X142611594Y-86360919D01*
X142740717Y-86400088D01*
X142841353Y-86410000D01*
X142875000Y-86413314D01*
X142908647Y-86410000D01*
X157128853Y-86410000D01*
X157162500Y-86413314D01*
X157196147Y-86410000D01*
X157296783Y-86400088D01*
X157425906Y-86360919D01*
X157544907Y-86297312D01*
X157649211Y-86211711D01*
X157734812Y-86107407D01*
X157798419Y-85988406D01*
X157837588Y-85859283D01*
X157850814Y-85725000D01*
X157847500Y-85691353D01*
X157847500Y-71471147D01*
X157850814Y-71437500D01*
X161236686Y-71437500D01*
X161240001Y-71471157D01*
X161240000Y-85691353D01*
X161236686Y-85725000D01*
X161249912Y-85859283D01*
X161289081Y-85988406D01*
X161352688Y-86107407D01*
X161438289Y-86211711D01*
X161542593Y-86297312D01*
X161661594Y-86360919D01*
X161790717Y-86400088D01*
X161925000Y-86413314D01*
X161958647Y-86410000D01*
X176178853Y-86410000D01*
X176212500Y-86413314D01*
X176346783Y-86400088D01*
X176475906Y-86360919D01*
X176594907Y-86297312D01*
X176699211Y-86211711D01*
X176784812Y-86107407D01*
X176848419Y-85988406D01*
X176887588Y-85859283D01*
X176897500Y-85758647D01*
X176897500Y-85758646D01*
X176900814Y-85725000D01*
X176897500Y-85691353D01*
X176897500Y-71471147D01*
X176900814Y-71437500D01*
X180286686Y-71437500D01*
X180290001Y-71471157D01*
X180290000Y-85691353D01*
X180286686Y-85725000D01*
X180299912Y-85859283D01*
X180339081Y-85988406D01*
X180402688Y-86107407D01*
X180488289Y-86211711D01*
X180592593Y-86297312D01*
X180711594Y-86360919D01*
X180840717Y-86400088D01*
X180975000Y-86413314D01*
X181008647Y-86410000D01*
X195228853Y-86410000D01*
X195262500Y-86413314D01*
X195396783Y-86400088D01*
X195525906Y-86360919D01*
X195644907Y-86297312D01*
X195749211Y-86211711D01*
X195834812Y-86107407D01*
X195898419Y-85988406D01*
X195937588Y-85859283D01*
X195947500Y-85758647D01*
X195947500Y-85758646D01*
X195950814Y-85725000D01*
X195947500Y-85691353D01*
X195947500Y-71471147D01*
X195950814Y-71437500D01*
X199336686Y-71437500D01*
X199340001Y-71471157D01*
X199340000Y-85691353D01*
X199336686Y-85725000D01*
X199349912Y-85859283D01*
X199389081Y-85988406D01*
X199452688Y-86107407D01*
X199538289Y-86211711D01*
X199642593Y-86297312D01*
X199761594Y-86360919D01*
X199890717Y-86400088D01*
X200025000Y-86413314D01*
X200058647Y-86410000D01*
X214278853Y-86410000D01*
X214312500Y-86413314D01*
X214446783Y-86400088D01*
X214575906Y-86360919D01*
X214694907Y-86297312D01*
X214799211Y-86211711D01*
X214884812Y-86107407D01*
X214948419Y-85988406D01*
X214987588Y-85859283D01*
X214997500Y-85758647D01*
X214997500Y-85758646D01*
X215000814Y-85725000D01*
X214997500Y-85691353D01*
X214997500Y-71471147D01*
X215000814Y-71437500D01*
X214987588Y-71303217D01*
X214948419Y-71174094D01*
X214884812Y-71055093D01*
X214799211Y-70950789D01*
X214694907Y-70865188D01*
X214575906Y-70801581D01*
X214446783Y-70762412D01*
X214346147Y-70752500D01*
X214312500Y-70749186D01*
X214278853Y-70752500D01*
X200058647Y-70752500D01*
X200025000Y-70749186D01*
X199991353Y-70752500D01*
X199890717Y-70762412D01*
X199761594Y-70801581D01*
X199642593Y-70865188D01*
X199538289Y-70950789D01*
X199452688Y-71055093D01*
X199389081Y-71174094D01*
X199349912Y-71303217D01*
X199336686Y-71437500D01*
X195950814Y-71437500D01*
X195937588Y-71303217D01*
X195898419Y-71174094D01*
X195834812Y-71055093D01*
X195749211Y-70950789D01*
X195644907Y-70865188D01*
X195525906Y-70801581D01*
X195396783Y-70762412D01*
X195296147Y-70752500D01*
X195262500Y-70749186D01*
X195228853Y-70752500D01*
X181008647Y-70752500D01*
X180975000Y-70749186D01*
X180941353Y-70752500D01*
X180840717Y-70762412D01*
X180711594Y-70801581D01*
X180592593Y-70865188D01*
X180488289Y-70950789D01*
X180402688Y-71055093D01*
X180339081Y-71174094D01*
X180299912Y-71303217D01*
X180286686Y-71437500D01*
X176900814Y-71437500D01*
X176887588Y-71303217D01*
X176848419Y-71174094D01*
X176784812Y-71055093D01*
X176699211Y-70950789D01*
X176594907Y-70865188D01*
X176475906Y-70801581D01*
X176346783Y-70762412D01*
X176246147Y-70752500D01*
X176212500Y-70749186D01*
X176178853Y-70752500D01*
X161958647Y-70752500D01*
X161925000Y-70749186D01*
X161891353Y-70752500D01*
X161790717Y-70762412D01*
X161661594Y-70801581D01*
X161542593Y-70865188D01*
X161438289Y-70950789D01*
X161352688Y-71055093D01*
X161289081Y-71174094D01*
X161249912Y-71303217D01*
X161236686Y-71437500D01*
X157850814Y-71437500D01*
X157837588Y-71303217D01*
X157798419Y-71174094D01*
X157734812Y-71055093D01*
X157649211Y-70950789D01*
X157544907Y-70865188D01*
X157425906Y-70801581D01*
X157296783Y-70762412D01*
X157196147Y-70752500D01*
X157162500Y-70749186D01*
X157128853Y-70752500D01*
X142908647Y-70752500D01*
X142875000Y-70749186D01*
X142841353Y-70752500D01*
X142740717Y-70762412D01*
X142611594Y-70801581D01*
X142492593Y-70865188D01*
X142388289Y-70950789D01*
X142302688Y-71055093D01*
X142239081Y-71174094D01*
X142199912Y-71303217D01*
X142186686Y-71437500D01*
X138800814Y-71437500D01*
X138787588Y-71303217D01*
X138748419Y-71174094D01*
X138684812Y-71055093D01*
X138599211Y-70950789D01*
X138494907Y-70865188D01*
X138375906Y-70801581D01*
X138246783Y-70762412D01*
X138146147Y-70752500D01*
X138112500Y-70749186D01*
X138078853Y-70752500D01*
X123858647Y-70752500D01*
X123825000Y-70749186D01*
X123791353Y-70752500D01*
X123690717Y-70762412D01*
X123561594Y-70801581D01*
X123442593Y-70865188D01*
X123338289Y-70950789D01*
X123252688Y-71055093D01*
X123189081Y-71174094D01*
X123149912Y-71303217D01*
X123136686Y-71437500D01*
X119750814Y-71437500D01*
X119737588Y-71303217D01*
X119698419Y-71174094D01*
X119634812Y-71055093D01*
X119549211Y-70950789D01*
X119444907Y-70865188D01*
X119325906Y-70801581D01*
X119196783Y-70762412D01*
X119096147Y-70752500D01*
X119062500Y-70749186D01*
X119028853Y-70752500D01*
X104808647Y-70752500D01*
X104775000Y-70749186D01*
X104741353Y-70752500D01*
X104640717Y-70762412D01*
X104511594Y-70801581D01*
X104392593Y-70865188D01*
X104288289Y-70950789D01*
X104202688Y-71055093D01*
X104139081Y-71174094D01*
X104099912Y-71303217D01*
X104086686Y-71437500D01*
X103078836Y-71437500D01*
X103078836Y-52387500D01*
X104086686Y-52387500D01*
X104090001Y-52421157D01*
X104090000Y-66641353D01*
X104086686Y-66675000D01*
X104099912Y-66809283D01*
X104139081Y-66938406D01*
X104202688Y-67057407D01*
X104288289Y-67161711D01*
X104392593Y-67247312D01*
X104511594Y-67310919D01*
X104640717Y-67350088D01*
X104775000Y-67363314D01*
X104808647Y-67360000D01*
X119028853Y-67360000D01*
X119062500Y-67363314D01*
X119196783Y-67350088D01*
X119325906Y-67310919D01*
X119444907Y-67247312D01*
X119549211Y-67161711D01*
X119634812Y-67057407D01*
X119698419Y-66938406D01*
X119737588Y-66809283D01*
X119747500Y-66708647D01*
X119747500Y-66708646D01*
X119750814Y-66675000D01*
X119747500Y-66641353D01*
X119747500Y-52421147D01*
X119750814Y-52387500D01*
X123136686Y-52387500D01*
X123140000Y-52421147D01*
X123140001Y-66641343D01*
X123136686Y-66675000D01*
X123149912Y-66809283D01*
X123189081Y-66938406D01*
X123252688Y-67057407D01*
X123338289Y-67161711D01*
X123442593Y-67247312D01*
X123561594Y-67310919D01*
X123690717Y-67350088D01*
X123791353Y-67360000D01*
X123825000Y-67363314D01*
X123858647Y-67360000D01*
X138078853Y-67360000D01*
X138112500Y-67363314D01*
X138146147Y-67360000D01*
X138246783Y-67350088D01*
X138375906Y-67310919D01*
X138494907Y-67247312D01*
X138599211Y-67161711D01*
X138684812Y-67057407D01*
X138748419Y-66938406D01*
X138787588Y-66809283D01*
X138800814Y-66675000D01*
X138797500Y-66641353D01*
X138797500Y-52421147D01*
X138800814Y-52387500D01*
X142186686Y-52387500D01*
X142190000Y-52421147D01*
X142190001Y-66641343D01*
X142186686Y-66675000D01*
X142199912Y-66809283D01*
X142239081Y-66938406D01*
X142302688Y-67057407D01*
X142388289Y-67161711D01*
X142492593Y-67247312D01*
X142611594Y-67310919D01*
X142740717Y-67350088D01*
X142841353Y-67360000D01*
X142875000Y-67363314D01*
X142908647Y-67360000D01*
X157128853Y-67360000D01*
X157162500Y-67363314D01*
X157196147Y-67360000D01*
X157296783Y-67350088D01*
X157425906Y-67310919D01*
X157544907Y-67247312D01*
X157649211Y-67161711D01*
X157734812Y-67057407D01*
X157798419Y-66938406D01*
X157837588Y-66809283D01*
X157850814Y-66675000D01*
X157847500Y-66641353D01*
X157847500Y-52421147D01*
X157850814Y-52387500D01*
X161236686Y-52387500D01*
X161240001Y-52421157D01*
X161240000Y-66641353D01*
X161236686Y-66675000D01*
X161249912Y-66809283D01*
X161289081Y-66938406D01*
X161352688Y-67057407D01*
X161438289Y-67161711D01*
X161542593Y-67247312D01*
X161661594Y-67310919D01*
X161790717Y-67350088D01*
X161925000Y-67363314D01*
X161958647Y-67360000D01*
X176178853Y-67360000D01*
X176212500Y-67363314D01*
X176346783Y-67350088D01*
X176475906Y-67310919D01*
X176594907Y-67247312D01*
X176699211Y-67161711D01*
X176784812Y-67057407D01*
X176848419Y-66938406D01*
X176887588Y-66809283D01*
X176897500Y-66708647D01*
X176897500Y-66708646D01*
X176900814Y-66675000D01*
X176897500Y-66641353D01*
X176897500Y-52421147D01*
X176900814Y-52387500D01*
X180286686Y-52387500D01*
X180290001Y-52421157D01*
X180290000Y-66641353D01*
X180286686Y-66675000D01*
X180299912Y-66809283D01*
X180339081Y-66938406D01*
X180402688Y-67057407D01*
X180488289Y-67161711D01*
X180592593Y-67247312D01*
X180711594Y-67310919D01*
X180840717Y-67350088D01*
X180975000Y-67363314D01*
X181008647Y-67360000D01*
X195228853Y-67360000D01*
X195262500Y-67363314D01*
X195396783Y-67350088D01*
X195525906Y-67310919D01*
X195644907Y-67247312D01*
X195749211Y-67161711D01*
X195834812Y-67057407D01*
X195898419Y-66938406D01*
X195937588Y-66809283D01*
X195947500Y-66708647D01*
X195947500Y-66708646D01*
X195950814Y-66675000D01*
X195947500Y-66641353D01*
X195947500Y-52421147D01*
X195950814Y-52387500D01*
X199336686Y-52387500D01*
X199340001Y-52421157D01*
X199340000Y-66641353D01*
X199336686Y-66675000D01*
X199349912Y-66809283D01*
X199389081Y-66938406D01*
X199452688Y-67057407D01*
X199538289Y-67161711D01*
X199642593Y-67247312D01*
X199761594Y-67310919D01*
X199890717Y-67350088D01*
X200025000Y-67363314D01*
X200058647Y-67360000D01*
X214278853Y-67360000D01*
X214312500Y-67363314D01*
X214446783Y-67350088D01*
X214575906Y-67310919D01*
X214694907Y-67247312D01*
X214799211Y-67161711D01*
X214884812Y-67057407D01*
X214948419Y-66938406D01*
X214987588Y-66809283D01*
X214997500Y-66708647D01*
X214997500Y-66708646D01*
X215000814Y-66675000D01*
X214997500Y-66641353D01*
X214997500Y-52421147D01*
X215000814Y-52387500D01*
X214987588Y-52253217D01*
X214948419Y-52124094D01*
X214884812Y-52005093D01*
X214799211Y-51900789D01*
X214694907Y-51815188D01*
X214575906Y-51751581D01*
X214446783Y-51712412D01*
X214346147Y-51702500D01*
X214312500Y-51699186D01*
X214278853Y-51702500D01*
X200058647Y-51702500D01*
X200025000Y-51699186D01*
X199991353Y-51702500D01*
X199890717Y-51712412D01*
X199761594Y-51751581D01*
X199642593Y-51815188D01*
X199538289Y-51900789D01*
X199452688Y-52005093D01*
X199389081Y-52124094D01*
X199349912Y-52253217D01*
X199336686Y-52387500D01*
X195950814Y-52387500D01*
X195937588Y-52253217D01*
X195898419Y-52124094D01*
X195834812Y-52005093D01*
X195749211Y-51900789D01*
X195644907Y-51815188D01*
X195525906Y-51751581D01*
X195396783Y-51712412D01*
X195296147Y-51702500D01*
X195262500Y-51699186D01*
X195228853Y-51702500D01*
X181008647Y-51702500D01*
X180975000Y-51699186D01*
X180941353Y-51702500D01*
X180840717Y-51712412D01*
X180711594Y-51751581D01*
X180592593Y-51815188D01*
X180488289Y-51900789D01*
X180402688Y-52005093D01*
X180339081Y-52124094D01*
X180299912Y-52253217D01*
X180286686Y-52387500D01*
X176900814Y-52387500D01*
X176887588Y-52253217D01*
X176848419Y-52124094D01*
X176784812Y-52005093D01*
X176699211Y-51900789D01*
X176594907Y-51815188D01*
X176475906Y-51751581D01*
X176346783Y-51712412D01*
X176246147Y-51702500D01*
X176212500Y-51699186D01*
X176178853Y-51702500D01*
X161958647Y-51702500D01*
X161925000Y-51699186D01*
X161891353Y-51702500D01*
X161790717Y-51712412D01*
X161661594Y-51751581D01*
X161542593Y-51815188D01*
X161438289Y-51900789D01*
X161352688Y-52005093D01*
X161289081Y-52124094D01*
X161249912Y-52253217D01*
X161236686Y-52387500D01*
X157850814Y-52387500D01*
X157837588Y-52253217D01*
X157798419Y-52124094D01*
X157734812Y-52005093D01*
X157649211Y-51900789D01*
X157544907Y-51815188D01*
X157425906Y-51751581D01*
X157296783Y-51712412D01*
X157196147Y-51702500D01*
X157162500Y-51699186D01*
X157128853Y-51702500D01*
X142908647Y-51702500D01*
X142875000Y-51699186D01*
X142841353Y-51702500D01*
X142740717Y-51712412D01*
X142611594Y-51751581D01*
X142492593Y-51815188D01*
X142388289Y-51900789D01*
X142302688Y-52005093D01*
X142239081Y-52124094D01*
X142199912Y-52253217D01*
X142186686Y-52387500D01*
X138800814Y-52387500D01*
X138787588Y-52253217D01*
X138748419Y-52124094D01*
X138684812Y-52005093D01*
X138599211Y-51900789D01*
X138494907Y-51815188D01*
X138375906Y-51751581D01*
X138246783Y-51712412D01*
X138146147Y-51702500D01*
X138112500Y-51699186D01*
X138078853Y-51702500D01*
X123858647Y-51702500D01*
X123825000Y-51699186D01*
X123791353Y-51702500D01*
X123690717Y-51712412D01*
X123561594Y-51751581D01*
X123442593Y-51815188D01*
X123338289Y-51900789D01*
X123252688Y-52005093D01*
X123189081Y-52124094D01*
X123149912Y-52253217D01*
X123136686Y-52387500D01*
X119750814Y-52387500D01*
X119737588Y-52253217D01*
X119698419Y-52124094D01*
X119634812Y-52005093D01*
X119549211Y-51900789D01*
X119444907Y-51815188D01*
X119325906Y-51751581D01*
X119196783Y-51712412D01*
X119096147Y-51702500D01*
X119062500Y-51699186D01*
X119028853Y-51702500D01*
X104808647Y-51702500D01*
X104775000Y-51699186D01*
X104741353Y-51702500D01*
X104640717Y-51712412D01*
X104511594Y-51751581D01*
X104392593Y-51815188D01*
X104288289Y-51900789D01*
X104202688Y-52005093D01*
X104139081Y-52124094D01*
X104099912Y-52253217D01*
X104086686Y-52387500D01*
X103078836Y-52387500D01*
X103078836Y-50691292D01*
X214874489Y-50691292D01*
X215121195Y-50715482D01*
G04 #@! TA.AperFunction,NonConductor*
D11*
G36*
X215121195Y-50715482D02*
G01*
X215326276Y-50777399D01*
X215515428Y-50877973D01*
X215681437Y-51013367D01*
X215817988Y-51178429D01*
X215919881Y-51366877D01*
X215983227Y-51571514D01*
X216008932Y-51816083D01*
X216008933Y-104090088D01*
X214997500Y-104090088D01*
X214997500Y-90521147D01*
X215000814Y-90487500D01*
X214987588Y-90353217D01*
X214948419Y-90224094D01*
X214884812Y-90105093D01*
X214799211Y-90000789D01*
X214694907Y-89915188D01*
X214575906Y-89851581D01*
X214446783Y-89812412D01*
X214346147Y-89802500D01*
X214312500Y-89799186D01*
X214278853Y-89802500D01*
X200058647Y-89802500D01*
X200025000Y-89799186D01*
X199991353Y-89802500D01*
X199890717Y-89812412D01*
X199761594Y-89851581D01*
X199642593Y-89915188D01*
X199538289Y-90000789D01*
X199452688Y-90105093D01*
X199389081Y-90224094D01*
X199349912Y-90353217D01*
X199336686Y-90487500D01*
X199340001Y-90521157D01*
X199340000Y-104741441D01*
X199336686Y-104775088D01*
X199349912Y-104909371D01*
X199389081Y-105038494D01*
X199452688Y-105157495D01*
X199538289Y-105261799D01*
X199642593Y-105347400D01*
X199761594Y-105411007D01*
X199890717Y-105450176D01*
X199991353Y-105460088D01*
X199992247Y-105460088D01*
X200025000Y-105463314D01*
X200057753Y-105460088D01*
X209460489Y-105460088D01*
X209460490Y-108852500D01*
X200058647Y-108852500D01*
X200025000Y-108849186D01*
X199991353Y-108852500D01*
X199890717Y-108862412D01*
X199761594Y-108901581D01*
X199642593Y-108965188D01*
X199538289Y-109050789D01*
X199452688Y-109155093D01*
X199389081Y-109274094D01*
X199349912Y-109403217D01*
X199336686Y-109537500D01*
X199340001Y-109571157D01*
X199340000Y-123791353D01*
X199336686Y-123825000D01*
X199349912Y-123959283D01*
X199389081Y-124088406D01*
X199452688Y-124207407D01*
X199538289Y-124311711D01*
X199642593Y-124397312D01*
X199761594Y-124460919D01*
X199890717Y-124500088D01*
X200025000Y-124513314D01*
X200058647Y-124510000D01*
X214278853Y-124510000D01*
X214312500Y-124513314D01*
X214446783Y-124500088D01*
X214575906Y-124460919D01*
X214694907Y-124397312D01*
X214799211Y-124311711D01*
X214884812Y-124207407D01*
X214948419Y-124088406D01*
X214987588Y-123959283D01*
X214997500Y-123858647D01*
X214997500Y-123858646D01*
X215000814Y-123825000D01*
X214997500Y-123791353D01*
X214997500Y-110222592D01*
X216008932Y-110222592D01*
X216008933Y-143436918D01*
X215984742Y-143683637D01*
X215922825Y-143888716D01*
X215822253Y-144077865D01*
X215686857Y-144243877D01*
X215521793Y-144380430D01*
X215333349Y-144482320D01*
X215128711Y-144545667D01*
X214884141Y-144571372D01*
X103078836Y-144571372D01*
X103078836Y-142875000D01*
X104086686Y-142875000D01*
X104099912Y-143009283D01*
X104139081Y-143138406D01*
X104202688Y-143257407D01*
X104288289Y-143361711D01*
X104339316Y-143403588D01*
X104392593Y-143447312D01*
X104511594Y-143510919D01*
X104640717Y-143550088D01*
X104775000Y-143563314D01*
X104808647Y-143560000D01*
X138078853Y-143560000D01*
X138112500Y-143563314D01*
X138146147Y-143560000D01*
X138246783Y-143550088D01*
X138375906Y-143510919D01*
X138494907Y-143447312D01*
X138599211Y-143361711D01*
X138684812Y-143257407D01*
X138748419Y-143138406D01*
X138787588Y-143009283D01*
X138800814Y-142875000D01*
X138797500Y-142841353D01*
X138797500Y-128622433D01*
X138800930Y-128587608D01*
X138800920Y-128587500D01*
X142186686Y-128587500D01*
X142190000Y-128621147D01*
X142190001Y-142841343D01*
X142186686Y-142875000D01*
X142199912Y-143009283D01*
X142239081Y-143138406D01*
X142302688Y-143257407D01*
X142388289Y-143361711D01*
X142492593Y-143447312D01*
X142611594Y-143510919D01*
X142740717Y-143550088D01*
X142841353Y-143560000D01*
X142875000Y-143563314D01*
X142908647Y-143560000D01*
X157128853Y-143560000D01*
X157162500Y-143563314D01*
X157196147Y-143560000D01*
X157296783Y-143550088D01*
X157425906Y-143510919D01*
X157544907Y-143447312D01*
X157649211Y-143361711D01*
X157734812Y-143257407D01*
X157798419Y-143138406D01*
X157837588Y-143009283D01*
X157850814Y-142875000D01*
X157847500Y-142841353D01*
X157847500Y-128621147D01*
X157850814Y-128587500D01*
X161236686Y-128587500D01*
X161240001Y-128621157D01*
X161240000Y-142841353D01*
X161236686Y-142875000D01*
X161249912Y-143009283D01*
X161289081Y-143138406D01*
X161352688Y-143257407D01*
X161438289Y-143361711D01*
X161489316Y-143403588D01*
X161542593Y-143447312D01*
X161661594Y-143510919D01*
X161790717Y-143550088D01*
X161925000Y-143563314D01*
X161958647Y-143560000D01*
X176178853Y-143560000D01*
X176212500Y-143563314D01*
X176346783Y-143550088D01*
X176475906Y-143510919D01*
X176594907Y-143447312D01*
X176699211Y-143361711D01*
X176784812Y-143257407D01*
X176848419Y-143138406D01*
X176887588Y-143009283D01*
X176897500Y-142908647D01*
X176897500Y-142908646D01*
X176900814Y-142875000D01*
X176897500Y-142841353D01*
X176897500Y-128621147D01*
X176900814Y-128587500D01*
X180286686Y-128587500D01*
X180290001Y-128621157D01*
X180290000Y-142841353D01*
X180286686Y-142875000D01*
X180299912Y-143009283D01*
X180339081Y-143138406D01*
X180402688Y-143257407D01*
X180488289Y-143361711D01*
X180539316Y-143403588D01*
X180592593Y-143447312D01*
X180711594Y-143510919D01*
X180840717Y-143550088D01*
X180975000Y-143563314D01*
X181008647Y-143560000D01*
X195228853Y-143560000D01*
X195262500Y-143563314D01*
X195396783Y-143550088D01*
X195525906Y-143510919D01*
X195644907Y-143447312D01*
X195749211Y-143361711D01*
X195834812Y-143257407D01*
X195898419Y-143138406D01*
X195937588Y-143009283D01*
X195947500Y-142908647D01*
X195947500Y-142908646D01*
X195950814Y-142875000D01*
X195947500Y-142841353D01*
X195947500Y-128621147D01*
X195950814Y-128587500D01*
X199336686Y-128587500D01*
X199340001Y-128621157D01*
X199340000Y-142841353D01*
X199336686Y-142875000D01*
X199349912Y-143009283D01*
X199389081Y-143138406D01*
X199452688Y-143257407D01*
X199538289Y-143361711D01*
X199589316Y-143403588D01*
X199642593Y-143447312D01*
X199761594Y-143510919D01*
X199890717Y-143550088D01*
X200025000Y-143563314D01*
X200058647Y-143560000D01*
X214278853Y-143560000D01*
X214312500Y-143563314D01*
X214446783Y-143550088D01*
X214575906Y-143510919D01*
X214694907Y-143447312D01*
X214799211Y-143361711D01*
X214884812Y-143257407D01*
X214948419Y-143138406D01*
X214987588Y-143009283D01*
X214997500Y-142908647D01*
X214997500Y-142908646D01*
X215000814Y-142875000D01*
X214997500Y-142841353D01*
X214997500Y-128621147D01*
X215000814Y-128587500D01*
X214987588Y-128453217D01*
X214948419Y-128324094D01*
X214884812Y-128205093D01*
X214799211Y-128100789D01*
X214694907Y-128015188D01*
X214575906Y-127951581D01*
X214446783Y-127912412D01*
X214346147Y-127902500D01*
X214312500Y-127899186D01*
X214278853Y-127902500D01*
X200058647Y-127902500D01*
X200025000Y-127899186D01*
X199991353Y-127902500D01*
X199890717Y-127912412D01*
X199761594Y-127951581D01*
X199642593Y-128015188D01*
X199538289Y-128100789D01*
X199452688Y-128205093D01*
X199389081Y-128324094D01*
X199349912Y-128453217D01*
X199336686Y-128587500D01*
X195950814Y-128587500D01*
X195937588Y-128453217D01*
X195898419Y-128324094D01*
X195834812Y-128205093D01*
X195749211Y-128100789D01*
X195644907Y-128015188D01*
X195525906Y-127951581D01*
X195396783Y-127912412D01*
X195296147Y-127902500D01*
X195262500Y-127899186D01*
X195228853Y-127902500D01*
X181008647Y-127902500D01*
X180975000Y-127899186D01*
X180941353Y-127902500D01*
X180840717Y-127912412D01*
X180711594Y-127951581D01*
X180592593Y-128015188D01*
X180488289Y-128100789D01*
X180402688Y-128205093D01*
X180339081Y-128324094D01*
X180299912Y-128453217D01*
X180286686Y-128587500D01*
X176900814Y-128587500D01*
X176887588Y-128453217D01*
X176848419Y-128324094D01*
X176784812Y-128205093D01*
X176699211Y-128100789D01*
X176594907Y-128015188D01*
X176475906Y-127951581D01*
X176346783Y-127912412D01*
X176246147Y-127902500D01*
X176212500Y-127899186D01*
X176178853Y-127902500D01*
X161958647Y-127902500D01*
X161925000Y-127899186D01*
X161891353Y-127902500D01*
X161790717Y-127912412D01*
X161661594Y-127951581D01*
X161542593Y-128015188D01*
X161438289Y-128100789D01*
X161352688Y-128205093D01*
X161289081Y-128324094D01*
X161249912Y-128453217D01*
X161236686Y-128587500D01*
X157850814Y-128587500D01*
X157837588Y-128453217D01*
X157798419Y-128324094D01*
X157734812Y-128205093D01*
X157649211Y-128100789D01*
X157544907Y-128015188D01*
X157425906Y-127951581D01*
X157296783Y-127912412D01*
X157196147Y-127902500D01*
X157162500Y-127899186D01*
X157128853Y-127902500D01*
X142908647Y-127902500D01*
X142875000Y-127899186D01*
X142841353Y-127902500D01*
X142740717Y-127912412D01*
X142611594Y-127951581D01*
X142492593Y-128015188D01*
X142388289Y-128100789D01*
X142302688Y-128205093D01*
X142239081Y-128324094D01*
X142199912Y-128453217D01*
X142186686Y-128587500D01*
X138800920Y-128587500D01*
X138787704Y-128453325D01*
X138748535Y-128324202D01*
X138684928Y-128205201D01*
X138599327Y-128100897D01*
X138599243Y-128100828D01*
X138599211Y-128100789D01*
X138494907Y-128015188D01*
X138375906Y-127951581D01*
X138246783Y-127912412D01*
X138112500Y-127899186D01*
X138077757Y-127902608D01*
X136416364Y-127902608D01*
X136416364Y-127430629D01*
X136419678Y-127396982D01*
X136406452Y-127262699D01*
X136367283Y-127133576D01*
X136303676Y-127014575D01*
X136218075Y-126910271D01*
X136113771Y-126824670D01*
X135994770Y-126761063D01*
X135865647Y-126721894D01*
X135765011Y-126711982D01*
X135731364Y-126708668D01*
X135697717Y-126711982D01*
X131002507Y-126711982D01*
X130968860Y-126708668D01*
X130935213Y-126711982D01*
X130834577Y-126721894D01*
X130705454Y-126761063D01*
X130586453Y-126824670D01*
X130482149Y-126910271D01*
X130396548Y-127014575D01*
X130332941Y-127133576D01*
X130293772Y-127262699D01*
X130280546Y-127396982D01*
X130283860Y-127430629D01*
X130283860Y-127902608D01*
X112603844Y-127902608D01*
X112603844Y-127430629D01*
X112607158Y-127396982D01*
X112593932Y-127262699D01*
X112554763Y-127133576D01*
X112491156Y-127014575D01*
X112405555Y-126910271D01*
X112301251Y-126824670D01*
X112182250Y-126761063D01*
X112053127Y-126721894D01*
X111952491Y-126711982D01*
X111918844Y-126708668D01*
X111885197Y-126711982D01*
X107189987Y-126711982D01*
X107156340Y-126708668D01*
X107122693Y-126711982D01*
X107022057Y-126721894D01*
X106892934Y-126761063D01*
X106773933Y-126824670D01*
X106669629Y-126910271D01*
X106584028Y-127014575D01*
X106520421Y-127133576D01*
X106481252Y-127262699D01*
X106468026Y-127396982D01*
X106471340Y-127430629D01*
X106471340Y-127902577D01*
X104808668Y-127902502D01*
X104775000Y-127899186D01*
X104700114Y-127906562D01*
X104640748Y-127912406D01*
X104640733Y-127912411D01*
X104640718Y-127912412D01*
X104569344Y-127934063D01*
X104511623Y-127951570D01*
X104511612Y-127951576D01*
X104511595Y-127951581D01*
X104449547Y-127984746D01*
X104392619Y-128015171D01*
X104392606Y-128015181D01*
X104392594Y-128015188D01*
X104343455Y-128055516D01*
X104288312Y-128100767D01*
X104288302Y-128100779D01*
X104288290Y-128100789D01*
X104243056Y-128155906D01*
X104202706Y-128205068D01*
X104202699Y-128205080D01*
X104202689Y-128205093D01*
X104172275Y-128261993D01*
X104139093Y-128324066D01*
X104139088Y-128324083D01*
X104139082Y-128324094D01*
X104121581Y-128381786D01*
X104099919Y-128453187D01*
X104099918Y-128453202D01*
X104099913Y-128453217D01*
X104093297Y-128520388D01*
X104086687Y-128587469D01*
X104090001Y-128621134D01*
X104090000Y-142841353D01*
X104086686Y-142875000D01*
X103078836Y-142875000D01*
X103078836Y-109537500D01*
X104086686Y-109537500D01*
X104090001Y-109571157D01*
X104090000Y-123791353D01*
X104086686Y-123825000D01*
X104099912Y-123959283D01*
X104139081Y-124088406D01*
X104202688Y-124207407D01*
X104288289Y-124311711D01*
X104392593Y-124397312D01*
X104511594Y-124460919D01*
X104640717Y-124500088D01*
X104775000Y-124513314D01*
X104808647Y-124510000D01*
X119028853Y-124510000D01*
X119062500Y-124513314D01*
X119196783Y-124500088D01*
X119325906Y-124460919D01*
X119444907Y-124397312D01*
X119549211Y-124311711D01*
X119634812Y-124207407D01*
X119698419Y-124088406D01*
X119737588Y-123959283D01*
X119747500Y-123858647D01*
X119747500Y-123858646D01*
X119750814Y-123825000D01*
X119747500Y-123791353D01*
X119747500Y-109571147D01*
X119750814Y-109537500D01*
X123136686Y-109537500D01*
X123140000Y-109571147D01*
X123140001Y-123791343D01*
X123136686Y-123825000D01*
X123149912Y-123959283D01*
X123189081Y-124088406D01*
X123252688Y-124207407D01*
X123338289Y-124311711D01*
X123442593Y-124397312D01*
X123561594Y-124460919D01*
X123690717Y-124500088D01*
X123791353Y-124510000D01*
X123825000Y-124513314D01*
X123858647Y-124510000D01*
X138078853Y-124510000D01*
X138112500Y-124513314D01*
X138146147Y-124510000D01*
X138246783Y-124500088D01*
X138375906Y-124460919D01*
X138494907Y-124397312D01*
X138599211Y-124311711D01*
X138684812Y-124207407D01*
X138748419Y-124088406D01*
X138787588Y-123959283D01*
X138800814Y-123825000D01*
X138797500Y-123791353D01*
X138797500Y-109571147D01*
X138800814Y-109537500D01*
X142186686Y-109537500D01*
X142190000Y-109571147D01*
X142190001Y-123791343D01*
X142186686Y-123825000D01*
X142199912Y-123959283D01*
X142239081Y-124088406D01*
X142302688Y-124207407D01*
X142388289Y-124311711D01*
X142492593Y-124397312D01*
X142611594Y-124460919D01*
X142740717Y-124500088D01*
X142841353Y-124510000D01*
X142875000Y-124513314D01*
X142908647Y-124510000D01*
X157128853Y-124510000D01*
X157162500Y-124513314D01*
X157196147Y-124510000D01*
X157296783Y-124500088D01*
X157425906Y-124460919D01*
X157544907Y-124397312D01*
X157649211Y-124311711D01*
X157734812Y-124207407D01*
X157798419Y-124088406D01*
X157837588Y-123959283D01*
X157850814Y-123825000D01*
X157847500Y-123791353D01*
X157847500Y-109571147D01*
X157850814Y-109537500D01*
X161236686Y-109537500D01*
X161240001Y-109571157D01*
X161240000Y-123791353D01*
X161236686Y-123825000D01*
X161249912Y-123959283D01*
X161289081Y-124088406D01*
X161352688Y-124207407D01*
X161438289Y-124311711D01*
X161542593Y-124397312D01*
X161661594Y-124460919D01*
X161790717Y-124500088D01*
X161925000Y-124513314D01*
X161958647Y-124510000D01*
X176178853Y-124510000D01*
X176212500Y-124513314D01*
X176346783Y-124500088D01*
X176475906Y-124460919D01*
X176594907Y-124397312D01*
X176699211Y-124311711D01*
X176784812Y-124207407D01*
X176848419Y-124088406D01*
X176887588Y-123959283D01*
X176897500Y-123858647D01*
X176897500Y-123858646D01*
X176900814Y-123825000D01*
X176897500Y-123791353D01*
X176897500Y-109571147D01*
X176900814Y-109537500D01*
X180286686Y-109537500D01*
X180290001Y-109571157D01*
X180290000Y-123791353D01*
X180286686Y-123825000D01*
X180299912Y-123959283D01*
X180339081Y-124088406D01*
X180402688Y-124207407D01*
X180488289Y-124311711D01*
X180592593Y-124397312D01*
X180711594Y-124460919D01*
X180840717Y-124500088D01*
X180975000Y-124513314D01*
X181008647Y-124510000D01*
X195228853Y-124510000D01*
X195262500Y-124513314D01*
X195396783Y-124500088D01*
X195525906Y-124460919D01*
X195644907Y-124397312D01*
X195749211Y-124311711D01*
X195834812Y-124207407D01*
X195898419Y-124088406D01*
X195937588Y-123959283D01*
X195947500Y-123858647D01*
X195947500Y-123858646D01*
X195950814Y-123825000D01*
X195947500Y-123791353D01*
X195947500Y-109571147D01*
X195950814Y-109537500D01*
X195937588Y-109403217D01*
X195898419Y-109274094D01*
X195834812Y-109155093D01*
X195749211Y-109050789D01*
X195644907Y-108965188D01*
X195525906Y-108901581D01*
X195396783Y-108862412D01*
X195296147Y-108852500D01*
X195262500Y-108849186D01*
X195228853Y-108852500D01*
X181008647Y-108852500D01*
X180975000Y-108849186D01*
X180941353Y-108852500D01*
X180840717Y-108862412D01*
X180711594Y-108901581D01*
X180592593Y-108965188D01*
X180488289Y-109050789D01*
X180402688Y-109155093D01*
X180339081Y-109274094D01*
X180299912Y-109403217D01*
X180286686Y-109537500D01*
X176900814Y-109537500D01*
X176887588Y-109403217D01*
X176848419Y-109274094D01*
X176784812Y-109155093D01*
X176699211Y-109050789D01*
X176594907Y-108965188D01*
X176475906Y-108901581D01*
X176346783Y-108862412D01*
X176246147Y-108852500D01*
X176212500Y-108849186D01*
X176178853Y-108852500D01*
X161958647Y-108852500D01*
X161925000Y-108849186D01*
X161891353Y-108852500D01*
X161790717Y-108862412D01*
X161661594Y-108901581D01*
X161542593Y-108965188D01*
X161438289Y-109050789D01*
X161352688Y-109155093D01*
X161289081Y-109274094D01*
X161249912Y-109403217D01*
X161236686Y-109537500D01*
X157850814Y-109537500D01*
X157837588Y-109403217D01*
X157798419Y-109274094D01*
X157734812Y-109155093D01*
X157649211Y-109050789D01*
X157544907Y-108965188D01*
X157425906Y-108901581D01*
X157296783Y-108862412D01*
X157196147Y-108852500D01*
X157162500Y-108849186D01*
X157128853Y-108852500D01*
X142908647Y-108852500D01*
X142875000Y-108849186D01*
X142841353Y-108852500D01*
X142740717Y-108862412D01*
X142611594Y-108901581D01*
X142492593Y-108965188D01*
X142388289Y-109050789D01*
X142302688Y-109155093D01*
X142239081Y-109274094D01*
X142199912Y-109403217D01*
X142186686Y-109537500D01*
X138800814Y-109537500D01*
X138787588Y-109403217D01*
X138748419Y-109274094D01*
X138684812Y-109155093D01*
X138599211Y-109050789D01*
X138494907Y-108965188D01*
X138375906Y-108901581D01*
X138246783Y-108862412D01*
X138146147Y-108852500D01*
X138112500Y-108849186D01*
X138078853Y-108852500D01*
X123858647Y-108852500D01*
X123825000Y-108849186D01*
X123791353Y-108852500D01*
X123690717Y-108862412D01*
X123561594Y-108901581D01*
X123442593Y-108965188D01*
X123338289Y-109050789D01*
X123252688Y-109155093D01*
X123189081Y-109274094D01*
X123149912Y-109403217D01*
X123136686Y-109537500D01*
X119750814Y-109537500D01*
X119737588Y-109403217D01*
X119698419Y-109274094D01*
X119634812Y-109155093D01*
X119549211Y-109050789D01*
X119444907Y-108965188D01*
X119325906Y-108901581D01*
X119196783Y-108862412D01*
X119096147Y-108852500D01*
X119062500Y-108849186D01*
X119028853Y-108852500D01*
X104808647Y-108852500D01*
X104775000Y-108849186D01*
X104741353Y-108852500D01*
X104640717Y-108862412D01*
X104511594Y-108901581D01*
X104392593Y-108965188D01*
X104288289Y-109050789D01*
X104202688Y-109155093D01*
X104139081Y-109274094D01*
X104099912Y-109403217D01*
X104086686Y-109537500D01*
X103078836Y-109537500D01*
X103078836Y-90487500D01*
X104086686Y-90487500D01*
X104090001Y-90521157D01*
X104090000Y-104741353D01*
X104086686Y-104775000D01*
X104099912Y-104909283D01*
X104139081Y-105038406D01*
X104202688Y-105157407D01*
X104288289Y-105261711D01*
X104392593Y-105347312D01*
X104511594Y-105410919D01*
X104640717Y-105450088D01*
X104775000Y-105463314D01*
X104808647Y-105460000D01*
X119028853Y-105460000D01*
X119062500Y-105463314D01*
X119196783Y-105450088D01*
X119325906Y-105410919D01*
X119444907Y-105347312D01*
X119549211Y-105261711D01*
X119634812Y-105157407D01*
X119698419Y-105038406D01*
X119737588Y-104909283D01*
X119747500Y-104808647D01*
X119747500Y-104808646D01*
X119750814Y-104775000D01*
X119747500Y-104741353D01*
X119747500Y-90521147D01*
X119750814Y-90487500D01*
X123136686Y-90487500D01*
X123140000Y-90521147D01*
X123140001Y-104741343D01*
X123136686Y-104775000D01*
X123149912Y-104909283D01*
X123189081Y-105038406D01*
X123252688Y-105157407D01*
X123338289Y-105261711D01*
X123442593Y-105347312D01*
X123561594Y-105410919D01*
X123690717Y-105450088D01*
X123791353Y-105460000D01*
X123825000Y-105463314D01*
X123858647Y-105460000D01*
X138078853Y-105460000D01*
X138112500Y-105463314D01*
X138146147Y-105460000D01*
X138246783Y-105450088D01*
X138375906Y-105410919D01*
X138494907Y-105347312D01*
X138599211Y-105261711D01*
X138684812Y-105157407D01*
X138748419Y-105038406D01*
X138787588Y-104909283D01*
X138800814Y-104775000D01*
X138797500Y-104741353D01*
X138797500Y-90521147D01*
X138800814Y-90487500D01*
X142186686Y-90487500D01*
X142190000Y-90521147D01*
X142190001Y-104741343D01*
X142186686Y-104775000D01*
X142199912Y-104909283D01*
X142239081Y-105038406D01*
X142302688Y-105157407D01*
X142388289Y-105261711D01*
X142492593Y-105347312D01*
X142611594Y-105410919D01*
X142740717Y-105450088D01*
X142841353Y-105460000D01*
X142875000Y-105463314D01*
X142908647Y-105460000D01*
X157128853Y-105460000D01*
X157162500Y-105463314D01*
X157196147Y-105460000D01*
X157296783Y-105450088D01*
X157425906Y-105410919D01*
X157544907Y-105347312D01*
X157649211Y-105261711D01*
X157734812Y-105157407D01*
X157798419Y-105038406D01*
X157837588Y-104909283D01*
X157850814Y-104775000D01*
X157847500Y-104741353D01*
X157847500Y-90521147D01*
X157850814Y-90487500D01*
X161236686Y-90487500D01*
X161240001Y-90521157D01*
X161240000Y-104741353D01*
X161236686Y-104775000D01*
X161249912Y-104909283D01*
X161289081Y-105038406D01*
X161352688Y-105157407D01*
X161438289Y-105261711D01*
X161542593Y-105347312D01*
X161661594Y-105410919D01*
X161790717Y-105450088D01*
X161925000Y-105463314D01*
X161958647Y-105460000D01*
X176178853Y-105460000D01*
X176212500Y-105463314D01*
X176346783Y-105450088D01*
X176475906Y-105410919D01*
X176594907Y-105347312D01*
X176699211Y-105261711D01*
X176784812Y-105157407D01*
X176848419Y-105038406D01*
X176887588Y-104909283D01*
X176897500Y-104808647D01*
X176897500Y-104808646D01*
X176900814Y-104775000D01*
X176897500Y-104741353D01*
X176897500Y-90521147D01*
X176900814Y-90487500D01*
X180286686Y-90487500D01*
X180290001Y-90521157D01*
X180290000Y-104741353D01*
X180286686Y-104775000D01*
X180299912Y-104909283D01*
X180339081Y-105038406D01*
X180402688Y-105157407D01*
X180488289Y-105261711D01*
X180592593Y-105347312D01*
X180711594Y-105410919D01*
X180840717Y-105450088D01*
X180975000Y-105463314D01*
X181008647Y-105460000D01*
X195228853Y-105460000D01*
X195262500Y-105463314D01*
X195396783Y-105450088D01*
X195525906Y-105410919D01*
X195644907Y-105347312D01*
X195749211Y-105261711D01*
X195834812Y-105157407D01*
X195898419Y-105038406D01*
X195937588Y-104909283D01*
X195947500Y-104808647D01*
X195947500Y-104808646D01*
X195950814Y-104775000D01*
X195947500Y-104741353D01*
X195947500Y-90521147D01*
X195950814Y-90487500D01*
X195937588Y-90353217D01*
X195898419Y-90224094D01*
X195834812Y-90105093D01*
X195749211Y-90000789D01*
X195644907Y-89915188D01*
X195525906Y-89851581D01*
X195396783Y-89812412D01*
X195296147Y-89802500D01*
X195262500Y-89799186D01*
X195228853Y-89802500D01*
X181008647Y-89802500D01*
X180975000Y-89799186D01*
X180941353Y-89802500D01*
X180840717Y-89812412D01*
X180711594Y-89851581D01*
X180592593Y-89915188D01*
X180488289Y-90000789D01*
X180402688Y-90105093D01*
X180339081Y-90224094D01*
X180299912Y-90353217D01*
X180286686Y-90487500D01*
X176900814Y-90487500D01*
X176887588Y-90353217D01*
X176848419Y-90224094D01*
X176784812Y-90105093D01*
X176699211Y-90000789D01*
X176594907Y-89915188D01*
X176475906Y-89851581D01*
X176346783Y-89812412D01*
X176246147Y-89802500D01*
X176212500Y-89799186D01*
X176178853Y-89802500D01*
X161958647Y-89802500D01*
X161925000Y-89799186D01*
X161891353Y-89802500D01*
X161790717Y-89812412D01*
X161661594Y-89851581D01*
X161542593Y-89915188D01*
X161438289Y-90000789D01*
X161352688Y-90105093D01*
X161289081Y-90224094D01*
X161249912Y-90353217D01*
X161236686Y-90487500D01*
X157850814Y-90487500D01*
X157837588Y-90353217D01*
X157798419Y-90224094D01*
X157734812Y-90105093D01*
X157649211Y-90000789D01*
X157544907Y-89915188D01*
X157425906Y-89851581D01*
X157296783Y-89812412D01*
X157196147Y-89802500D01*
X157162500Y-89799186D01*
X157128853Y-89802500D01*
X142908647Y-89802500D01*
X142875000Y-89799186D01*
X142841353Y-89802500D01*
X142740717Y-89812412D01*
X142611594Y-89851581D01*
X142492593Y-89915188D01*
X142388289Y-90000789D01*
X142302688Y-90105093D01*
X142239081Y-90224094D01*
X142199912Y-90353217D01*
X142186686Y-90487500D01*
X138800814Y-90487500D01*
X138787588Y-90353217D01*
X138748419Y-90224094D01*
X138684812Y-90105093D01*
X138599211Y-90000789D01*
X138494907Y-89915188D01*
X138375906Y-89851581D01*
X138246783Y-89812412D01*
X138146147Y-89802500D01*
X138112500Y-89799186D01*
X138078853Y-89802500D01*
X123858647Y-89802500D01*
X123825000Y-89799186D01*
X123791353Y-89802500D01*
X123690717Y-89812412D01*
X123561594Y-89851581D01*
X123442593Y-89915188D01*
X123338289Y-90000789D01*
X123252688Y-90105093D01*
X123189081Y-90224094D01*
X123149912Y-90353217D01*
X123136686Y-90487500D01*
X119750814Y-90487500D01*
X119737588Y-90353217D01*
X119698419Y-90224094D01*
X119634812Y-90105093D01*
X119549211Y-90000789D01*
X119444907Y-89915188D01*
X119325906Y-89851581D01*
X119196783Y-89812412D01*
X119096147Y-89802500D01*
X119062500Y-89799186D01*
X119028853Y-89802500D01*
X104808647Y-89802500D01*
X104775000Y-89799186D01*
X104741353Y-89802500D01*
X104640717Y-89812412D01*
X104511594Y-89851581D01*
X104392593Y-89915188D01*
X104288289Y-90000789D01*
X104202688Y-90105093D01*
X104139081Y-90224094D01*
X104099912Y-90353217D01*
X104086686Y-90487500D01*
X103078836Y-90487500D01*
X103078836Y-71437500D01*
X104086686Y-71437500D01*
X104090001Y-71471157D01*
X104090000Y-85691353D01*
X104086686Y-85725000D01*
X104099912Y-85859283D01*
X104139081Y-85988406D01*
X104202688Y-86107407D01*
X104288289Y-86211711D01*
X104392593Y-86297312D01*
X104511594Y-86360919D01*
X104640717Y-86400088D01*
X104775000Y-86413314D01*
X104808647Y-86410000D01*
X119028853Y-86410000D01*
X119062500Y-86413314D01*
X119196783Y-86400088D01*
X119325906Y-86360919D01*
X119444907Y-86297312D01*
X119549211Y-86211711D01*
X119634812Y-86107407D01*
X119698419Y-85988406D01*
X119737588Y-85859283D01*
X119747500Y-85758647D01*
X119747500Y-85758646D01*
X119750814Y-85725000D01*
X119747500Y-85691353D01*
X119747500Y-71471147D01*
X119750814Y-71437500D01*
X123136686Y-71437500D01*
X123140000Y-71471147D01*
X123140001Y-85691343D01*
X123136686Y-85725000D01*
X123149912Y-85859283D01*
X123189081Y-85988406D01*
X123252688Y-86107407D01*
X123338289Y-86211711D01*
X123442593Y-86297312D01*
X123561594Y-86360919D01*
X123690717Y-86400088D01*
X123791353Y-86410000D01*
X123825000Y-86413314D01*
X123858647Y-86410000D01*
X138078853Y-86410000D01*
X138112500Y-86413314D01*
X138146147Y-86410000D01*
X138246783Y-86400088D01*
X138375906Y-86360919D01*
X138494907Y-86297312D01*
X138599211Y-86211711D01*
X138684812Y-86107407D01*
X138748419Y-85988406D01*
X138787588Y-85859283D01*
X138800814Y-85725000D01*
X138797500Y-85691353D01*
X138797500Y-71471147D01*
X138800814Y-71437500D01*
X142186686Y-71437500D01*
X142190000Y-71471147D01*
X142190001Y-85691343D01*
X142186686Y-85725000D01*
X142199912Y-85859283D01*
X142239081Y-85988406D01*
X142302688Y-86107407D01*
X142388289Y-86211711D01*
X142492593Y-86297312D01*
X142611594Y-86360919D01*
X142740717Y-86400088D01*
X142841353Y-86410000D01*
X142875000Y-86413314D01*
X142908647Y-86410000D01*
X157128853Y-86410000D01*
X157162500Y-86413314D01*
X157196147Y-86410000D01*
X157296783Y-86400088D01*
X157425906Y-86360919D01*
X157544907Y-86297312D01*
X157649211Y-86211711D01*
X157734812Y-86107407D01*
X157798419Y-85988406D01*
X157837588Y-85859283D01*
X157850814Y-85725000D01*
X157847500Y-85691353D01*
X157847500Y-71471147D01*
X157850814Y-71437500D01*
X161236686Y-71437500D01*
X161240001Y-71471157D01*
X161240000Y-85691353D01*
X161236686Y-85725000D01*
X161249912Y-85859283D01*
X161289081Y-85988406D01*
X161352688Y-86107407D01*
X161438289Y-86211711D01*
X161542593Y-86297312D01*
X161661594Y-86360919D01*
X161790717Y-86400088D01*
X161925000Y-86413314D01*
X161958647Y-86410000D01*
X176178853Y-86410000D01*
X176212500Y-86413314D01*
X176346783Y-86400088D01*
X176475906Y-86360919D01*
X176594907Y-86297312D01*
X176699211Y-86211711D01*
X176784812Y-86107407D01*
X176848419Y-85988406D01*
X176887588Y-85859283D01*
X176897500Y-85758647D01*
X176897500Y-85758646D01*
X176900814Y-85725000D01*
X176897500Y-85691353D01*
X176897500Y-71471147D01*
X176900814Y-71437500D01*
X180286686Y-71437500D01*
X180290001Y-71471157D01*
X180290000Y-85691353D01*
X180286686Y-85725000D01*
X180299912Y-85859283D01*
X180339081Y-85988406D01*
X180402688Y-86107407D01*
X180488289Y-86211711D01*
X180592593Y-86297312D01*
X180711594Y-86360919D01*
X180840717Y-86400088D01*
X180975000Y-86413314D01*
X181008647Y-86410000D01*
X195228853Y-86410000D01*
X195262500Y-86413314D01*
X195396783Y-86400088D01*
X195525906Y-86360919D01*
X195644907Y-86297312D01*
X195749211Y-86211711D01*
X195834812Y-86107407D01*
X195898419Y-85988406D01*
X195937588Y-85859283D01*
X195947500Y-85758647D01*
X195947500Y-85758646D01*
X195950814Y-85725000D01*
X195947500Y-85691353D01*
X195947500Y-71471147D01*
X195950814Y-71437500D01*
X199336686Y-71437500D01*
X199340001Y-71471157D01*
X199340000Y-85691353D01*
X199336686Y-85725000D01*
X199349912Y-85859283D01*
X199389081Y-85988406D01*
X199452688Y-86107407D01*
X199538289Y-86211711D01*
X199642593Y-86297312D01*
X199761594Y-86360919D01*
X199890717Y-86400088D01*
X200025000Y-86413314D01*
X200058647Y-86410000D01*
X214278853Y-86410000D01*
X214312500Y-86413314D01*
X214446783Y-86400088D01*
X214575906Y-86360919D01*
X214694907Y-86297312D01*
X214799211Y-86211711D01*
X214884812Y-86107407D01*
X214948419Y-85988406D01*
X214987588Y-85859283D01*
X214997500Y-85758647D01*
X214997500Y-85758646D01*
X215000814Y-85725000D01*
X214997500Y-85691353D01*
X214997500Y-71471147D01*
X215000814Y-71437500D01*
X214987588Y-71303217D01*
X214948419Y-71174094D01*
X214884812Y-71055093D01*
X214799211Y-70950789D01*
X214694907Y-70865188D01*
X214575906Y-70801581D01*
X214446783Y-70762412D01*
X214346147Y-70752500D01*
X214312500Y-70749186D01*
X214278853Y-70752500D01*
X200058647Y-70752500D01*
X200025000Y-70749186D01*
X199991353Y-70752500D01*
X199890717Y-70762412D01*
X199761594Y-70801581D01*
X199642593Y-70865188D01*
X199538289Y-70950789D01*
X199452688Y-71055093D01*
X199389081Y-71174094D01*
X199349912Y-71303217D01*
X199336686Y-71437500D01*
X195950814Y-71437500D01*
X195937588Y-71303217D01*
X195898419Y-71174094D01*
X195834812Y-71055093D01*
X195749211Y-70950789D01*
X195644907Y-70865188D01*
X195525906Y-70801581D01*
X195396783Y-70762412D01*
X195296147Y-70752500D01*
X195262500Y-70749186D01*
X195228853Y-70752500D01*
X181008647Y-70752500D01*
X180975000Y-70749186D01*
X180941353Y-70752500D01*
X180840717Y-70762412D01*
X180711594Y-70801581D01*
X180592593Y-70865188D01*
X180488289Y-70950789D01*
X180402688Y-71055093D01*
X180339081Y-71174094D01*
X180299912Y-71303217D01*
X180286686Y-71437500D01*
X176900814Y-71437500D01*
X176887588Y-71303217D01*
X176848419Y-71174094D01*
X176784812Y-71055093D01*
X176699211Y-70950789D01*
X176594907Y-70865188D01*
X176475906Y-70801581D01*
X176346783Y-70762412D01*
X176246147Y-70752500D01*
X176212500Y-70749186D01*
X176178853Y-70752500D01*
X161958647Y-70752500D01*
X161925000Y-70749186D01*
X161891353Y-70752500D01*
X161790717Y-70762412D01*
X161661594Y-70801581D01*
X161542593Y-70865188D01*
X161438289Y-70950789D01*
X161352688Y-71055093D01*
X161289081Y-71174094D01*
X161249912Y-71303217D01*
X161236686Y-71437500D01*
X157850814Y-71437500D01*
X157837588Y-71303217D01*
X157798419Y-71174094D01*
X157734812Y-71055093D01*
X157649211Y-70950789D01*
X157544907Y-70865188D01*
X157425906Y-70801581D01*
X157296783Y-70762412D01*
X157196147Y-70752500D01*
X157162500Y-70749186D01*
X157128853Y-70752500D01*
X142908647Y-70752500D01*
X142875000Y-70749186D01*
X142841353Y-70752500D01*
X142740717Y-70762412D01*
X142611594Y-70801581D01*
X142492593Y-70865188D01*
X142388289Y-70950789D01*
X142302688Y-71055093D01*
X142239081Y-71174094D01*
X142199912Y-71303217D01*
X142186686Y-71437500D01*
X138800814Y-71437500D01*
X138787588Y-71303217D01*
X138748419Y-71174094D01*
X138684812Y-71055093D01*
X138599211Y-70950789D01*
X138494907Y-70865188D01*
X138375906Y-70801581D01*
X138246783Y-70762412D01*
X138146147Y-70752500D01*
X138112500Y-70749186D01*
X138078853Y-70752500D01*
X123858647Y-70752500D01*
X123825000Y-70749186D01*
X123791353Y-70752500D01*
X123690717Y-70762412D01*
X123561594Y-70801581D01*
X123442593Y-70865188D01*
X123338289Y-70950789D01*
X123252688Y-71055093D01*
X123189081Y-71174094D01*
X123149912Y-71303217D01*
X123136686Y-71437500D01*
X119750814Y-71437500D01*
X119737588Y-71303217D01*
X119698419Y-71174094D01*
X119634812Y-71055093D01*
X119549211Y-70950789D01*
X119444907Y-70865188D01*
X119325906Y-70801581D01*
X119196783Y-70762412D01*
X119096147Y-70752500D01*
X119062500Y-70749186D01*
X119028853Y-70752500D01*
X104808647Y-70752500D01*
X104775000Y-70749186D01*
X104741353Y-70752500D01*
X104640717Y-70762412D01*
X104511594Y-70801581D01*
X104392593Y-70865188D01*
X104288289Y-70950789D01*
X104202688Y-71055093D01*
X104139081Y-71174094D01*
X104099912Y-71303217D01*
X104086686Y-71437500D01*
X103078836Y-71437500D01*
X103078836Y-52387500D01*
X104086686Y-52387500D01*
X104090001Y-52421157D01*
X104090000Y-66641353D01*
X104086686Y-66675000D01*
X104099912Y-66809283D01*
X104139081Y-66938406D01*
X104202688Y-67057407D01*
X104288289Y-67161711D01*
X104392593Y-67247312D01*
X104511594Y-67310919D01*
X104640717Y-67350088D01*
X104775000Y-67363314D01*
X104808647Y-67360000D01*
X119028853Y-67360000D01*
X119062500Y-67363314D01*
X119196783Y-67350088D01*
X119325906Y-67310919D01*
X119444907Y-67247312D01*
X119549211Y-67161711D01*
X119634812Y-67057407D01*
X119698419Y-66938406D01*
X119737588Y-66809283D01*
X119747500Y-66708647D01*
X119747500Y-66708646D01*
X119750814Y-66675000D01*
X119747500Y-66641353D01*
X119747500Y-52421147D01*
X119750814Y-52387500D01*
X123136686Y-52387500D01*
X123140000Y-52421147D01*
X123140001Y-66641343D01*
X123136686Y-66675000D01*
X123149912Y-66809283D01*
X123189081Y-66938406D01*
X123252688Y-67057407D01*
X123338289Y-67161711D01*
X123442593Y-67247312D01*
X123561594Y-67310919D01*
X123690717Y-67350088D01*
X123791353Y-67360000D01*
X123825000Y-67363314D01*
X123858647Y-67360000D01*
X138078853Y-67360000D01*
X138112500Y-67363314D01*
X138146147Y-67360000D01*
X138246783Y-67350088D01*
X138375906Y-67310919D01*
X138494907Y-67247312D01*
X138599211Y-67161711D01*
X138684812Y-67057407D01*
X138748419Y-66938406D01*
X138787588Y-66809283D01*
X138800814Y-66675000D01*
X138797500Y-66641353D01*
X138797500Y-52421147D01*
X138800814Y-52387500D01*
X142186686Y-52387500D01*
X142190000Y-52421147D01*
X142190001Y-66641343D01*
X142186686Y-66675000D01*
X142199912Y-66809283D01*
X142239081Y-66938406D01*
X142302688Y-67057407D01*
X142388289Y-67161711D01*
X142492593Y-67247312D01*
X142611594Y-67310919D01*
X142740717Y-67350088D01*
X142841353Y-67360000D01*
X142875000Y-67363314D01*
X142908647Y-67360000D01*
X157128853Y-67360000D01*
X157162500Y-67363314D01*
X157196147Y-67360000D01*
X157296783Y-67350088D01*
X157425906Y-67310919D01*
X157544907Y-67247312D01*
X157649211Y-67161711D01*
X157734812Y-67057407D01*
X157798419Y-66938406D01*
X157837588Y-66809283D01*
X157850814Y-66675000D01*
X157847500Y-66641353D01*
X157847500Y-52421147D01*
X157850814Y-52387500D01*
X161236686Y-52387500D01*
X161240001Y-52421157D01*
X161240000Y-66641353D01*
X161236686Y-66675000D01*
X161249912Y-66809283D01*
X161289081Y-66938406D01*
X161352688Y-67057407D01*
X161438289Y-67161711D01*
X161542593Y-67247312D01*
X161661594Y-67310919D01*
X161790717Y-67350088D01*
X161925000Y-67363314D01*
X161958647Y-67360000D01*
X176178853Y-67360000D01*
X176212500Y-67363314D01*
X176346783Y-67350088D01*
X176475906Y-67310919D01*
X176594907Y-67247312D01*
X176699211Y-67161711D01*
X176784812Y-67057407D01*
X176848419Y-66938406D01*
X176887588Y-66809283D01*
X176897500Y-66708647D01*
X176897500Y-66708646D01*
X176900814Y-66675000D01*
X176897500Y-66641353D01*
X176897500Y-52421147D01*
X176900814Y-52387500D01*
X180286686Y-52387500D01*
X180290001Y-52421157D01*
X180290000Y-66641353D01*
X180286686Y-66675000D01*
X180299912Y-66809283D01*
X180339081Y-66938406D01*
X180402688Y-67057407D01*
X180488289Y-67161711D01*
X180592593Y-67247312D01*
X180711594Y-67310919D01*
X180840717Y-67350088D01*
X180975000Y-67363314D01*
X181008647Y-67360000D01*
X195228853Y-67360000D01*
X195262500Y-67363314D01*
X195396783Y-67350088D01*
X195525906Y-67310919D01*
X195644907Y-67247312D01*
X195749211Y-67161711D01*
X195834812Y-67057407D01*
X195898419Y-66938406D01*
X195937588Y-66809283D01*
X195947500Y-66708647D01*
X195947500Y-66708646D01*
X195950814Y-66675000D01*
X195947500Y-66641353D01*
X195947500Y-52421147D01*
X195950814Y-52387500D01*
X199336686Y-52387500D01*
X199340001Y-52421157D01*
X199340000Y-66641353D01*
X199336686Y-66675000D01*
X199349912Y-66809283D01*
X199389081Y-66938406D01*
X199452688Y-67057407D01*
X199538289Y-67161711D01*
X199642593Y-67247312D01*
X199761594Y-67310919D01*
X199890717Y-67350088D01*
X200025000Y-67363314D01*
X200058647Y-67360000D01*
X214278853Y-67360000D01*
X214312500Y-67363314D01*
X214446783Y-67350088D01*
X214575906Y-67310919D01*
X214694907Y-67247312D01*
X214799211Y-67161711D01*
X214884812Y-67057407D01*
X214948419Y-66938406D01*
X214987588Y-66809283D01*
X214997500Y-66708647D01*
X214997500Y-66708646D01*
X215000814Y-66675000D01*
X214997500Y-66641353D01*
X214997500Y-52421147D01*
X215000814Y-52387500D01*
X214987588Y-52253217D01*
X214948419Y-52124094D01*
X214884812Y-52005093D01*
X214799211Y-51900789D01*
X214694907Y-51815188D01*
X214575906Y-51751581D01*
X214446783Y-51712412D01*
X214346147Y-51702500D01*
X214312500Y-51699186D01*
X214278853Y-51702500D01*
X200058647Y-51702500D01*
X200025000Y-51699186D01*
X199991353Y-51702500D01*
X199890717Y-51712412D01*
X199761594Y-51751581D01*
X199642593Y-51815188D01*
X199538289Y-51900789D01*
X199452688Y-52005093D01*
X199389081Y-52124094D01*
X199349912Y-52253217D01*
X199336686Y-52387500D01*
X195950814Y-52387500D01*
X195937588Y-52253217D01*
X195898419Y-52124094D01*
X195834812Y-52005093D01*
X195749211Y-51900789D01*
X195644907Y-51815188D01*
X195525906Y-51751581D01*
X195396783Y-51712412D01*
X195296147Y-51702500D01*
X195262500Y-51699186D01*
X195228853Y-51702500D01*
X181008647Y-51702500D01*
X180975000Y-51699186D01*
X180941353Y-51702500D01*
X180840717Y-51712412D01*
X180711594Y-51751581D01*
X180592593Y-51815188D01*
X180488289Y-51900789D01*
X180402688Y-52005093D01*
X180339081Y-52124094D01*
X180299912Y-52253217D01*
X180286686Y-52387500D01*
X176900814Y-52387500D01*
X176887588Y-52253217D01*
X176848419Y-52124094D01*
X176784812Y-52005093D01*
X176699211Y-51900789D01*
X176594907Y-51815188D01*
X176475906Y-51751581D01*
X176346783Y-51712412D01*
X176246147Y-51702500D01*
X176212500Y-51699186D01*
X176178853Y-51702500D01*
X161958647Y-51702500D01*
X161925000Y-51699186D01*
X161891353Y-51702500D01*
X161790717Y-51712412D01*
X161661594Y-51751581D01*
X161542593Y-51815188D01*
X161438289Y-51900789D01*
X161352688Y-52005093D01*
X161289081Y-52124094D01*
X161249912Y-52253217D01*
X161236686Y-52387500D01*
X157850814Y-52387500D01*
X157837588Y-52253217D01*
X157798419Y-52124094D01*
X157734812Y-52005093D01*
X157649211Y-51900789D01*
X157544907Y-51815188D01*
X157425906Y-51751581D01*
X157296783Y-51712412D01*
X157196147Y-51702500D01*
X157162500Y-51699186D01*
X157128853Y-51702500D01*
X142908647Y-51702500D01*
X142875000Y-51699186D01*
X142841353Y-51702500D01*
X142740717Y-51712412D01*
X142611594Y-51751581D01*
X142492593Y-51815188D01*
X142388289Y-51900789D01*
X142302688Y-52005093D01*
X142239081Y-52124094D01*
X142199912Y-52253217D01*
X142186686Y-52387500D01*
X138800814Y-52387500D01*
X138787588Y-52253217D01*
X138748419Y-52124094D01*
X138684812Y-52005093D01*
X138599211Y-51900789D01*
X138494907Y-51815188D01*
X138375906Y-51751581D01*
X138246783Y-51712412D01*
X138146147Y-51702500D01*
X138112500Y-51699186D01*
X138078853Y-51702500D01*
X123858647Y-51702500D01*
X123825000Y-51699186D01*
X123791353Y-51702500D01*
X123690717Y-51712412D01*
X123561594Y-51751581D01*
X123442593Y-51815188D01*
X123338289Y-51900789D01*
X123252688Y-52005093D01*
X123189081Y-52124094D01*
X123149912Y-52253217D01*
X123136686Y-52387500D01*
X119750814Y-52387500D01*
X119737588Y-52253217D01*
X119698419Y-52124094D01*
X119634812Y-52005093D01*
X119549211Y-51900789D01*
X119444907Y-51815188D01*
X119325906Y-51751581D01*
X119196783Y-51712412D01*
X119096147Y-51702500D01*
X119062500Y-51699186D01*
X119028853Y-51702500D01*
X104808647Y-51702500D01*
X104775000Y-51699186D01*
X104741353Y-51702500D01*
X104640717Y-51712412D01*
X104511594Y-51751581D01*
X104392593Y-51815188D01*
X104288289Y-51900789D01*
X104202688Y-52005093D01*
X104139081Y-52124094D01*
X104099912Y-52253217D01*
X104086686Y-52387500D01*
X103078836Y-52387500D01*
X103078836Y-50691292D01*
X214874489Y-50691292D01*
X215121195Y-50715482D01*
G37*
G04 #@! TD.AperFunction*
M02*
