G04 #@! TF.GenerationSoftware,KiCad,Pcbnew,(5.1.10-1-10_14)*
G04 #@! TF.CreationDate,2021-10-16T17:37:56+02:00*
G04 #@! TF.ProjectId,lumberjack,6c756d62-6572-46a6-9163-6b2e6b696361,1.4*
G04 #@! TF.SameCoordinates,Original*
G04 #@! TF.FileFunction,Legend,Bot*
G04 #@! TF.FilePolarity,Positive*
%FSLAX46Y46*%
G04 Gerber Fmt 4.6, Leading zero omitted, Abs format (unit mm)*
G04 Created by KiCad (PCBNEW (5.1.10-1-10_14)) date 2021-10-16 17:37:56*
%MOMM*%
%LPD*%
G01*
G04 APERTURE LIST*
%ADD10C,0.150000*%
%ADD11C,0.100000*%
%ADD12C,0.120000*%
G04 APERTURE END LIST*
D10*
X37713052Y-83003402D02*
G75*
G03*
X37713052Y-83003402I-2600933J0D01*
G01*
D11*
X33067584Y-86196956D02*
X33350427Y-85914114D01*
X33242677Y-85806364D01*
X33202271Y-85792895D01*
X33175334Y-85792895D01*
X33134928Y-85806364D01*
X33094521Y-85846770D01*
X33081053Y-85887176D01*
X33081053Y-85914114D01*
X33094521Y-85954520D01*
X33202271Y-86062269D01*
X33013709Y-85577396D02*
X32959834Y-85523521D01*
X32919428Y-85510053D01*
X32865554Y-85510053D01*
X32798210Y-85550459D01*
X32703929Y-85644740D01*
X32663523Y-85712083D01*
X32663523Y-85765958D01*
X32676992Y-85806364D01*
X32730866Y-85860239D01*
X32771273Y-85873708D01*
X32825147Y-85873708D01*
X32892491Y-85833301D01*
X32986772Y-85739021D01*
X33027178Y-85671677D01*
X33027178Y-85617802D01*
X33013709Y-85577396D01*
X32515367Y-85617802D02*
X32461492Y-85590865D01*
X32394149Y-85523521D01*
X32380680Y-85483115D01*
X32380680Y-85456178D01*
X32394149Y-85415772D01*
X32421086Y-85388834D01*
X32461492Y-85375366D01*
X32488430Y-85375366D01*
X32528836Y-85388834D01*
X32596179Y-85429240D01*
X32636586Y-85442709D01*
X32663523Y-85442709D01*
X32703929Y-85429240D01*
X32730867Y-85402303D01*
X32744335Y-85361897D01*
X32744335Y-85334959D01*
X32730866Y-85294553D01*
X32663523Y-85227210D01*
X32609648Y-85200272D01*
X32542305Y-85105992D02*
X32380680Y-84944367D01*
X32178650Y-85308022D02*
X32461492Y-85025179D01*
D10*
X272607489Y-82975932D02*
G75*
G03*
X272607489Y-82975932I-2600933J0D01*
G01*
D11*
X273200110Y-85020466D02*
X272917268Y-84737623D01*
X272809518Y-84845373D01*
X272796049Y-84885779D01*
X272796049Y-84912716D01*
X272809518Y-84953122D01*
X272849924Y-84993529D01*
X272890330Y-85006997D01*
X272917268Y-85006997D01*
X272957674Y-84993529D01*
X273065423Y-84885779D01*
X272580550Y-85074341D02*
X272526675Y-85128216D01*
X272513207Y-85168622D01*
X272513207Y-85222496D01*
X272553613Y-85289840D01*
X272647894Y-85384121D01*
X272715237Y-85424527D01*
X272769112Y-85424527D01*
X272809518Y-85411058D01*
X272863393Y-85357184D01*
X272876862Y-85316777D01*
X272876862Y-85262903D01*
X272836455Y-85195559D01*
X272742175Y-85101278D01*
X272674831Y-85060872D01*
X272620956Y-85060872D01*
X272580550Y-85074341D01*
X272620956Y-85572683D02*
X272594019Y-85626558D01*
X272526675Y-85693901D01*
X272486269Y-85707370D01*
X272459332Y-85707370D01*
X272418926Y-85693901D01*
X272391988Y-85666964D01*
X272378520Y-85626558D01*
X272378520Y-85599620D01*
X272391988Y-85559214D01*
X272432394Y-85491871D01*
X272445863Y-85451464D01*
X272445863Y-85424527D01*
X272432394Y-85384121D01*
X272405457Y-85357183D01*
X272365051Y-85343715D01*
X272338113Y-85343715D01*
X272297707Y-85357184D01*
X272230364Y-85424527D01*
X272203426Y-85478402D01*
X272109146Y-85545745D02*
X271947521Y-85707370D01*
X272311176Y-85909400D02*
X272028333Y-85626558D01*
X203594355Y-142538402D02*
X203311513Y-142255559D01*
X203203763Y-142363309D01*
X203190294Y-142403715D01*
X203190294Y-142430652D01*
X203203763Y-142471058D01*
X203244169Y-142511465D01*
X203284575Y-142524933D01*
X203311513Y-142524933D01*
X203351919Y-142511465D01*
X203459668Y-142403715D01*
X202974795Y-142592277D02*
X202920920Y-142646152D01*
X202907452Y-142686558D01*
X202907452Y-142740432D01*
X202947858Y-142807776D01*
X203042139Y-142902057D01*
X203109482Y-142942463D01*
X203163357Y-142942463D01*
X203203763Y-142928994D01*
X203257638Y-142875120D01*
X203271107Y-142834713D01*
X203271107Y-142780839D01*
X203230700Y-142713495D01*
X203136420Y-142619214D01*
X203069076Y-142578808D01*
X203015201Y-142578808D01*
X202974795Y-142592277D01*
X203015201Y-143090619D02*
X202988264Y-143144494D01*
X202920920Y-143211837D01*
X202880514Y-143225306D01*
X202853577Y-143225306D01*
X202813171Y-143211837D01*
X202786233Y-143184900D01*
X202772765Y-143144494D01*
X202772765Y-143117556D01*
X202786233Y-143077150D01*
X202826639Y-143009807D01*
X202840108Y-142969400D01*
X202840108Y-142942463D01*
X202826639Y-142902057D01*
X202799702Y-142875120D01*
X202759296Y-142861651D01*
X202732358Y-142861651D01*
X202691952Y-142875120D01*
X202624609Y-142942463D01*
X202597671Y-142996338D01*
X202503391Y-143063681D02*
X202341766Y-143225306D01*
X202705421Y-143427336D02*
X202422578Y-143144494D01*
D10*
X203001734Y-140493868D02*
G75*
G03*
X203001734Y-140493868I-2600933J0D01*
G01*
X32000000Y-55200000D02*
X32000000Y-64600000D01*
X32000000Y-64600000D02*
X24200000Y-64600000D01*
X32000000Y-55200000D02*
X24200000Y-55200000D01*
X24200000Y-64600000D02*
X24200000Y-55200000D01*
D12*
X23508000Y-58460000D02*
X23508000Y-57560000D01*
X32698000Y-58460000D02*
X32698000Y-57560000D01*
X23508000Y-54860000D02*
X23508000Y-52130000D01*
X32698000Y-54860000D02*
X32698000Y-52130000D01*
X23508000Y-52130000D02*
X32698000Y-52130000D01*
G36*
X239300000Y-146600000D02*
G01*
X242300000Y-146600000D01*
X242300000Y-146000000D01*
X239300000Y-146000000D01*
X239300000Y-146600000D01*
G37*
X239300000Y-146600000D02*
X242300000Y-146600000D01*
X242300000Y-146000000D01*
X239300000Y-146000000D01*
X239300000Y-146600000D01*
D11*
G36*
X247400000Y-146600000D02*
G01*
X248000000Y-146000000D01*
X247700000Y-146000000D01*
X247400000Y-146600000D01*
G37*
X247400000Y-146600000D02*
X248000000Y-146000000D01*
X247700000Y-146000000D01*
X247400000Y-146600000D01*
G36*
X247400000Y-146600000D02*
G01*
X248000000Y-147200000D01*
X248000000Y-146900000D01*
X247400000Y-146600000D01*
G37*
X247400000Y-146600000D02*
X248000000Y-147200000D01*
X248000000Y-146900000D01*
X247400000Y-146600000D01*
G36*
X247400000Y-146600000D02*
G01*
X246800000Y-147200000D01*
X247100000Y-147200000D01*
X247400000Y-146600000D01*
G37*
X247400000Y-146600000D02*
X246800000Y-147200000D01*
X247100000Y-147200000D01*
X247400000Y-146600000D01*
G36*
X247400000Y-146600000D02*
G01*
X246800000Y-146000000D01*
X246800000Y-146300000D01*
X247400000Y-146600000D01*
G37*
X247400000Y-146600000D02*
X246800000Y-146000000D01*
X246800000Y-146300000D01*
X247400000Y-146600000D01*
D12*
X53940000Y-68690000D02*
X51440000Y-68690000D01*
X51440000Y-68690000D02*
X51440000Y-69740000D01*
X51440000Y-69740000D02*
X50450000Y-69740000D01*
X53940000Y-74910000D02*
X51440000Y-74910000D01*
X51440000Y-74910000D02*
X51440000Y-73860000D01*
X55910000Y-69860000D02*
X55910000Y-73740000D01*
D10*
X28436333Y-65646380D02*
X28436333Y-66360666D01*
X28483952Y-66503523D01*
X28579190Y-66598761D01*
X28722047Y-66646380D01*
X28817285Y-66646380D01*
X27436333Y-66646380D02*
X28007761Y-66646380D01*
X27722047Y-66646380D02*
X27722047Y-65646380D01*
X27817285Y-65789238D01*
X27912523Y-65884476D01*
X28007761Y-65932095D01*
X48697380Y-71466666D02*
X49411666Y-71466666D01*
X49554523Y-71419047D01*
X49649761Y-71323809D01*
X49697380Y-71180952D01*
X49697380Y-71085714D01*
X48697380Y-71847619D02*
X48697380Y-72466666D01*
X49078333Y-72133333D01*
X49078333Y-72276190D01*
X49125952Y-72371428D01*
X49173571Y-72419047D01*
X49268809Y-72466666D01*
X49506904Y-72466666D01*
X49602142Y-72419047D01*
X49649761Y-72371428D01*
X49697380Y-72276190D01*
X49697380Y-71990476D01*
X49649761Y-71895238D01*
X49602142Y-71847619D01*
X56657380Y-71085714D02*
X57371666Y-71085714D01*
X57514523Y-71038095D01*
X57609761Y-70942857D01*
X57657380Y-70800000D01*
X57657380Y-70704761D01*
X57609761Y-71514285D02*
X57657380Y-71657142D01*
X57657380Y-71895238D01*
X57609761Y-71990476D01*
X57562142Y-72038095D01*
X57466904Y-72085714D01*
X57371666Y-72085714D01*
X57276428Y-72038095D01*
X57228809Y-71990476D01*
X57181190Y-71895238D01*
X57133571Y-71704761D01*
X57085952Y-71609523D01*
X57038333Y-71561904D01*
X56943095Y-71514285D01*
X56847857Y-71514285D01*
X56752619Y-71561904D01*
X56705000Y-71609523D01*
X56657380Y-71704761D01*
X56657380Y-71942857D01*
X56705000Y-72085714D01*
X56657380Y-72371428D02*
X56657380Y-72942857D01*
X57657380Y-72657142D02*
X56657380Y-72657142D01*
M02*
