G04 #@! TF.GenerationSoftware,KiCad,Pcbnew,(5.1.9-0-10_14)*
G04 #@! TF.CreationDate,2021-02-05T23:02:02+01:00*
G04 #@! TF.ProjectId,lumberjack,6c756d62-6572-46a6-9163-6b2e6b696361,1.2*
G04 #@! TF.SameCoordinates,Original*
G04 #@! TF.FileFunction,Paste,Bot*
G04 #@! TF.FilePolarity,Positive*
%FSLAX46Y46*%
G04 Gerber Fmt 4.6, Leading zero omitted, Abs format (unit mm)*
G04 Created by KiCad (PCBNEW (5.1.9-0-10_14)) date 2021-02-05 23:02:02*
%MOMM*%
%LPD*%
G01*
G04 APERTURE LIST*
G04 APERTURE END LIST*
G36*
G01*
X25354711Y-72018812D02*
X26604711Y-72018812D01*
G75*
G02*
X26754711Y-72168812I0J-150000D01*
G01*
X26754711Y-72468812D01*
G75*
G02*
X26604711Y-72618812I-150000J0D01*
G01*
X25354711Y-72618812D01*
G75*
G02*
X25204711Y-72468812I0J150000D01*
G01*
X25204711Y-72168812D01*
G75*
G02*
X25354711Y-72018812I150000J0D01*
G01*
G37*
G36*
G01*
X25354711Y-73018812D02*
X26604711Y-73018812D01*
G75*
G02*
X26754711Y-73168812I0J-150000D01*
G01*
X26754711Y-73468812D01*
G75*
G02*
X26604711Y-73618812I-150000J0D01*
G01*
X25354711Y-73618812D01*
G75*
G02*
X25204711Y-73468812I0J150000D01*
G01*
X25204711Y-73168812D01*
G75*
G02*
X25354711Y-73018812I150000J0D01*
G01*
G37*
G36*
G01*
X25354711Y-74018812D02*
X26604711Y-74018812D01*
G75*
G02*
X26754711Y-74168812I0J-150000D01*
G01*
X26754711Y-74468812D01*
G75*
G02*
X26604711Y-74618812I-150000J0D01*
G01*
X25354711Y-74618812D01*
G75*
G02*
X25204711Y-74468812I0J150000D01*
G01*
X25204711Y-74168812D01*
G75*
G02*
X25354711Y-74018812I150000J0D01*
G01*
G37*
G36*
G01*
X25354711Y-75018812D02*
X26604711Y-75018812D01*
G75*
G02*
X26754711Y-75168812I0J-150000D01*
G01*
X26754711Y-75468812D01*
G75*
G02*
X26604711Y-75618812I-150000J0D01*
G01*
X25354711Y-75618812D01*
G75*
G02*
X25204711Y-75468812I0J150000D01*
G01*
X25204711Y-75168812D01*
G75*
G02*
X25354711Y-75018812I150000J0D01*
G01*
G37*
G36*
G01*
X29204710Y-70418812D02*
X30504712Y-70418812D01*
G75*
G02*
X30754711Y-70668811I0J-249999D01*
G01*
X30754711Y-71368813D01*
G75*
G02*
X30504712Y-71618812I-249999J0D01*
G01*
X29204710Y-71618812D01*
G75*
G02*
X28954711Y-71368813I0J249999D01*
G01*
X28954711Y-70668811D01*
G75*
G02*
X29204710Y-70418812I249999J0D01*
G01*
G37*
G36*
G01*
X29204710Y-76018812D02*
X30504712Y-76018812D01*
G75*
G02*
X30754711Y-76268811I0J-249999D01*
G01*
X30754711Y-76968813D01*
G75*
G02*
X30504712Y-77218812I-249999J0D01*
G01*
X29204710Y-77218812D01*
G75*
G02*
X28954711Y-76968813I0J249999D01*
G01*
X28954711Y-76268811D01*
G75*
G02*
X29204710Y-76018812I249999J0D01*
G01*
G37*
M02*
