M48
; DRILL file {KiCad (5.1.4-0-10_14)} date 2020 October 23, Friday 19:22:46
; FORMAT={-:-/ absolute / inch / decimal}
; #@! TF.CreationDate,2020-10-23T19:22:46+02:00
; #@! TF.GenerationSoftware,Kicad,Pcbnew,(5.1.4-0-10_14)
; #@! TF.FileFunction,Plated,1,2,PTH
FMAT,2
INCH
T1C0.0157
T2C0.0236
T3C0.0276
T4C0.0280
T5C0.0315
T6C0.0354
T7C0.0394
T8C0.0433
T9C0.0590
T10C0.0630
%
G90
G05
T1
X5.5781Y-4.7109
T2
X5.7769Y-5.0156
X5.8359Y-5.0156
T3
X6.1047Y-4.1953
X6.3047Y-4.1953
X5.6719Y-2.2969
X5.8719Y-2.2969
X6.1047Y-4.2891
X6.3047Y-4.2891
X6.1641Y-2.2969
X6.3641Y-2.2969
X1.0459Y-2.4844
X1.0774Y-2.4155
X1.1089Y-2.4844
X1.1404Y-2.4155
X1.1719Y-2.4844
X6.0813Y-4.6406
X6.2813Y-4.6406
X6.0813Y-4.7344
X6.2813Y-4.7344
T4
X6.0469Y-4.4297
X6.2477Y-4.4769
T5
X6.6094Y-2.7891
X6.9094Y-2.7891
X5.0906Y-3.4922
X5.3906Y-3.4922
X6.7031Y-4.7813
X6.6094Y-3.4922
X6.6094Y-5.1328
X6.9094Y-5.1328
X6.7031Y-3.1406
X7.0031Y-3.1406
X6.0844Y-5.0391
X6.2813Y-5.0391
X5.0906Y-3.0234
X5.3906Y-3.0234
X6.9094Y-3.4922
X5.0906Y-4.6641
X5.3906Y-4.6641
X6.6094Y-4.6641
X6.9094Y-4.6641
X6.0516Y-2.7188
X6.0516Y-2.8188
X6.0516Y-2.9188
X6.0516Y-3.0188
X6.0516Y-3.1188
X6.0516Y-3.2188
X6.0516Y-3.3188
X6.0516Y-3.4188
X6.0516Y-3.5188
X6.0516Y-3.6188
X6.0516Y-3.7188
X6.0516Y-3.8188
X6.0516Y-3.9188
X6.0516Y-4.0188
X7.0031Y-4.7813
X6.3516Y-2.7188
X6.3516Y-2.8188
X6.3516Y-2.9188
X6.3516Y-3.0188
X6.3516Y-3.1188
X6.3516Y-3.2188
X6.3516Y-3.3188
X6.3516Y-3.4188
X6.3516Y-3.5188
X6.3516Y-3.6188
X6.3516Y-3.7188
X4.9969Y-3.375
X5.2969Y-3.375
X6.7031Y-5.25
X7.0031Y-5.25
X6.0844Y-4.9219
X6.2813Y-4.9219
X4.9969Y-4.0781
X5.2969Y-4.0781
X5.0906Y-4.1953
X5.3906Y-4.1953
X6.6094Y-3.0234
X6.9094Y-3.0234
X6.7031Y-4.5469
X7.0031Y-4.5469
X5.9531Y-5.2734
X5.9531Y-5.5734
X5.0906Y-4.4297
X5.3906Y-4.4297
X4.9969Y-4.5469
X5.2969Y-4.5469
X4.9969Y-5.25
X5.2969Y-5.25
X6.9094Y-4.8984
X6.1875Y-5.3672
X6.1875Y-5.6672
X6.6094Y-4.8984
X6.7031Y-5.0156
X7.0031Y-5.0156
X6.3047Y-5.2734
X6.3047Y-5.5734
X6.4219Y-5.3672
X6.4219Y-5.6672
X6.7031Y-5.4844
X7.0031Y-5.4844
X5.6953Y-4.5234
X5.8594Y-3.7312
X4.9969Y-3.9609
X5.2969Y-3.9609
X4.9969Y-4.3125
X5.2969Y-4.3125
X6.6094Y-5.3672
X6.9094Y-5.3672
X6.7031Y-3.6094
X7.0031Y-3.6094
X4.9969Y-3.8438
X5.2969Y-3.8438
X5.6953Y-4.8234
X5.8594Y-3.5391
X6.3516Y-3.8188
X6.3516Y-3.9188
X6.3516Y-4.0188
X5.0906Y-3.2578
X5.3906Y-3.2578
X5.8125Y-4.5234
X5.8125Y-4.8234
X4.9969Y-4.7813
X5.2969Y-4.7813
X5.0906Y-5.1328
X5.3906Y-5.1328
X4.9969Y-5.0156
X5.2969Y-5.0156
X6.6094Y-2.5547
X6.9094Y-2.5547
X5.0906Y-2.7891
X5.3906Y-2.7891
X5.0906Y-4.8984
X5.3906Y-4.8984
X4.9969Y-2.6719
X5.2969Y-2.6719
X6.6094Y-3.2578
X6.9094Y-3.2578
X5.8359Y-5.3672
X5.8359Y-5.6672
X6.7031Y-3.375
X7.0031Y-3.375
X5.0906Y-2.5547
X6.9094Y-3.7266
X6.7031Y-2.9063
X7.0031Y-2.9063
X6.6094Y-4.4297
X6.9094Y-4.4297
X5.0906Y-5.3672
X5.3906Y-5.3672
X6.7031Y-2.6719
X5.3906Y-2.5547
X4.9969Y-3.1406
X5.2969Y-3.1406
X6.6094Y-3.7266
X5.7188Y-5.2734
X5.7188Y-5.5734
X5.6016Y-5.3672
X5.6016Y-5.6672
X6.6094Y-4.1953
X6.9094Y-4.1953
X4.9969Y-2.9063
X5.2969Y-2.9063
X7.0031Y-2.6719
X5.0906Y-3.7266
X6.7031Y-4.0781
X5.6719Y-3.5906
X6.7031Y-4.3125
X7.0031Y-4.3125
X7.0031Y-4.0781
X5.6719Y-3.7031
X5.6719Y-3.8016
X4.9969Y-3.6094
X4.9969Y-5.4844
X5.2969Y-5.4844
X5.6719Y-3.4922
X5.2969Y-3.6094
X6.7031Y-3.8438
X5.3906Y-3.7266
X6.0703Y-5.2734
X6.6094Y-3.9609
X6.9094Y-3.9609
X7.0031Y-3.8438
X6.0703Y-5.5734
T6
X5.7188Y-2.5078
X5.8188Y-2.5078
X6.2109Y-2.5078
X6.3109Y-2.5078
T7
X5.6719Y-3.1641
X5.6719Y-3.2641
X5.7719Y-3.1641
X5.7719Y-3.2641
X5.8719Y-3.1641
X5.8719Y-3.2641
T8
X5.6719Y-3.9628
X5.6719Y-4.2188
X5.849Y-3.9628
X5.6719Y-2.9766
X5.849Y-2.7207
X5.849Y-4.2188
X5.6719Y-2.7207
X5.849Y-2.9766
T9
X7.35Y-3.9313
X7.6Y-3.8313
X9.6Y-3.9313
X9.85Y-3.8313
X7.725Y-5.4313
X7.975Y-5.3313
X0.6Y-5.4313
X0.85Y-5.3313
X8.1Y-4.6813
X8.35Y-4.5813
X10.35Y-4.6813
X10.6Y-4.5813
X1.4Y-3.4813
X1.65Y-3.3813
X2.1Y-4.6813
X2.35Y-4.5813
X10.35Y-5.4313
X10.6Y-5.3313
X8.85Y-3.9313
X3.6Y-3.1813
X3.85Y-3.0813
X7.35Y-4.6813
X9.6Y-2.4313
X9.85Y-2.3313
X2.1Y-5.4313
X2.35Y-5.3313
X7.6Y-4.5813
X8.35Y-3.0813
X4.35Y-3.9313
X4.6Y-3.8313
X2.85Y-2.4313
X3.1Y-2.3313
X8.1Y-3.1813
X8.85Y-4.6813
X9.1Y-4.5813
X4.35Y-4.6813
X9.1Y-3.0813
X9.1Y-3.8313
X3.1Y-4.5813
X9.6Y-5.4313
X9.85Y-5.3313
X8.1Y-3.9313
X8.35Y-3.8313
X4.6Y-4.5813
X2.85Y-4.6813
X4.35Y-5.4313
X2.35Y-3.0813
X2.1Y-3.1813
X11.1Y-2.4313
X11.35Y-2.3313
X11.1Y-5.4313
X11.35Y-5.3313
X4.6Y-5.3313
X9.6Y-3.1813
X9.85Y-3.0813
X0.6Y-3.1813
X10.35Y-3.1813
X10.6Y-3.0813
X0.85Y-3.0813
X4.35Y-3.1813
X4.6Y-3.0813
X7.35Y-5.4313
X7.6Y-5.3313
X8.85Y-3.1813
X0.6Y-4.6813
X0.85Y-4.5813
X11.1Y-3.9313
X11.35Y-3.8313
X2.85Y-3.1813
X1.6Y-4.5813
X8.85Y-5.4313
X9.1Y-5.3313
X2.85Y-3.9313
X3.1Y-3.8313
X8.1Y-5.4313
X8.35Y-5.3313
X1.35Y-4.6813
X8.1Y-2.4313
X8.35Y-2.3313
X3.1Y-3.0813
X3.6Y-4.6813
X3.85Y-4.5813
X0.6Y-3.9313
X0.85Y-3.8313
X10.35Y-2.4313
X10.6Y-2.3313
X3.6Y-2.4313
X3.85Y-2.3313
X1.4Y-2.7313
X1.65Y-2.6313
X8.85Y-2.4313
X9.1Y-2.3313
X2.35Y-2.3313
X1.35Y-3.9313
X10.35Y-3.9313
X10.6Y-3.8313
X7.35Y-2.4313
X1.6Y-3.8313
X7.6Y-2.3313
X4.35Y-2.4313
X4.6Y-2.3313
X11.1Y-4.6813
X11.35Y-4.5813
X7.35Y-3.1813
X7.6Y-3.0813
X2.1Y-2.4313
X9.6Y-4.6813
X9.85Y-4.5813
X3.6Y-3.9313
X3.85Y-3.8313
X11.35Y-3.0813
X3.1Y-5.3313
X0.6Y-2.4312
X0.85Y-2.3312
X3.6Y-5.4313
X3.85Y-5.3313
X1.35Y-5.4313
X1.6Y-5.3313
X2.1Y-3.9313
X2.35Y-3.8313
X11.1Y-3.1813
X2.85Y-5.4313
X3.975Y-5.4313
X4.225Y-5.3313
T10
X0.9553Y-2.2304
X0.9553Y-2.4155
X1.2624Y-2.2304
X1.2624Y-2.4155
T0
M30
