G04 #@! TF.GenerationSoftware,KiCad,Pcbnew,(5.1.4-0-10_14)*
G04 #@! TF.CreationDate,2020-10-21T22:58:48+02:00*
G04 #@! TF.ProjectId,lumberjack,6c756d62-6572-46a6-9163-6b2e6b696361,rev?*
G04 #@! TF.SameCoordinates,Original*
G04 #@! TF.FileFunction,Legend,Top*
G04 #@! TF.FilePolarity,Positive*
%FSLAX46Y46*%
G04 Gerber Fmt 4.6, Leading zero omitted, Abs format (unit mm)*
G04 Created by KiCad (PCBNEW (5.1.4-0-10_14)) date 2020-10-21 22:58:48*
%MOMM*%
%LPD*%
G04 APERTURE LIST*
%ADD10C,0.120000*%
%ADD11C,0.203200*%
%ADD12C,0.150000*%
G04 APERTURE END LIST*
D10*
X169568266Y-117347287D02*
X169568266Y-119587287D01*
X169568266Y-119587287D02*
X173808266Y-119587287D01*
X173808266Y-119587287D02*
X173808266Y-117347287D01*
X173808266Y-117347287D02*
X169568266Y-117347287D01*
X168918266Y-118467287D02*
X169568266Y-118467287D01*
X174458266Y-118467287D02*
X173808266Y-118467287D01*
X170288266Y-117347287D02*
X170288266Y-119587287D01*
X170408266Y-117347287D02*
X170408266Y-119587287D01*
X170168266Y-117347287D02*
X170168266Y-119587287D01*
X171949518Y-66745682D02*
X171949518Y-68985682D01*
X171949518Y-68985682D02*
X176189518Y-68985682D01*
X176189518Y-68985682D02*
X176189518Y-66745682D01*
X176189518Y-66745682D02*
X171949518Y-66745682D01*
X171299518Y-67865682D02*
X171949518Y-67865682D01*
X176839518Y-67865682D02*
X176189518Y-67865682D01*
X172669518Y-66745682D02*
X172669518Y-68985682D01*
X172789518Y-66745682D02*
X172789518Y-68985682D01*
X172549518Y-66745682D02*
X172549518Y-68985682D01*
X132250738Y-74938812D02*
X132250738Y-72698812D01*
X132010738Y-74938812D02*
X132010738Y-72698812D01*
X132130738Y-74938812D02*
X132130738Y-72698812D01*
X127960738Y-73818812D02*
X128610738Y-73818812D01*
X133500738Y-73818812D02*
X132850738Y-73818812D01*
X128610738Y-74938812D02*
X132850738Y-74938812D01*
X128610738Y-72698812D02*
X128610738Y-74938812D01*
X132850738Y-72698812D02*
X128610738Y-72698812D01*
X132850738Y-74938812D02*
X132850738Y-72698812D01*
X149602937Y-127396982D02*
G75*
G03X149602937Y-127396982I-2120000J0D01*
G01*
X147482937Y-126556982D02*
X147482937Y-125316982D01*
X147482937Y-129476982D02*
X147482937Y-128236982D01*
X147442937Y-126556982D02*
X147442937Y-125316982D01*
X147442937Y-129476982D02*
X147442937Y-128236982D01*
X147402937Y-126556982D02*
X147402937Y-125317982D01*
X147402937Y-129475982D02*
X147402937Y-128236982D01*
X147362937Y-129473982D02*
X147362937Y-128236982D01*
X147362937Y-126556982D02*
X147362937Y-125319982D01*
X147322937Y-129470982D02*
X147322937Y-128236982D01*
X147322937Y-126556982D02*
X147322937Y-125322982D01*
X147282937Y-129467982D02*
X147282937Y-128236982D01*
X147282937Y-126556982D02*
X147282937Y-125325982D01*
X147242937Y-129463982D02*
X147242937Y-128236982D01*
X147242937Y-126556982D02*
X147242937Y-125329982D01*
X147202937Y-129458982D02*
X147202937Y-128236982D01*
X147202937Y-126556982D02*
X147202937Y-125334982D01*
X147162937Y-129452982D02*
X147162937Y-128236982D01*
X147162937Y-126556982D02*
X147162937Y-125340982D01*
X147122937Y-129446982D02*
X147122937Y-128236982D01*
X147122937Y-126556982D02*
X147122937Y-125346982D01*
X147082937Y-129438982D02*
X147082937Y-128236982D01*
X147082937Y-126556982D02*
X147082937Y-125354982D01*
X147042937Y-129430982D02*
X147042937Y-128236982D01*
X147042937Y-126556982D02*
X147042937Y-125362982D01*
X147002937Y-129421982D02*
X147002937Y-128236982D01*
X147002937Y-126556982D02*
X147002937Y-125371982D01*
X146962937Y-129412982D02*
X146962937Y-128236982D01*
X146962937Y-126556982D02*
X146962937Y-125380982D01*
X146922937Y-129401982D02*
X146922937Y-128236982D01*
X146922937Y-126556982D02*
X146922937Y-125391982D01*
X146882937Y-129390982D02*
X146882937Y-128236982D01*
X146882937Y-126556982D02*
X146882937Y-125402982D01*
X146842937Y-129378982D02*
X146842937Y-128236982D01*
X146842937Y-126556982D02*
X146842937Y-125414982D01*
X146802937Y-129364982D02*
X146802937Y-128236982D01*
X146802937Y-126556982D02*
X146802937Y-125428982D01*
X146761937Y-129350982D02*
X146761937Y-128236982D01*
X146761937Y-126556982D02*
X146761937Y-125442982D01*
X146721937Y-129336982D02*
X146721937Y-128236982D01*
X146721937Y-126556982D02*
X146721937Y-125456982D01*
X146681937Y-129320982D02*
X146681937Y-128236982D01*
X146681937Y-126556982D02*
X146681937Y-125472982D01*
X146641937Y-129303982D02*
X146641937Y-128236982D01*
X146641937Y-126556982D02*
X146641937Y-125489982D01*
X146601937Y-129285982D02*
X146601937Y-128236982D01*
X146601937Y-126556982D02*
X146601937Y-125507982D01*
X146561937Y-129266982D02*
X146561937Y-128236982D01*
X146561937Y-126556982D02*
X146561937Y-125526982D01*
X146521937Y-129247982D02*
X146521937Y-128236982D01*
X146521937Y-126556982D02*
X146521937Y-125545982D01*
X146481937Y-129226982D02*
X146481937Y-128236982D01*
X146481937Y-126556982D02*
X146481937Y-125566982D01*
X146441937Y-129204982D02*
X146441937Y-128236982D01*
X146441937Y-126556982D02*
X146441937Y-125588982D01*
X146401937Y-129181982D02*
X146401937Y-128236982D01*
X146401937Y-126556982D02*
X146401937Y-125611982D01*
X146361937Y-129156982D02*
X146361937Y-128236982D01*
X146361937Y-126556982D02*
X146361937Y-125636982D01*
X146321937Y-129131982D02*
X146321937Y-128236982D01*
X146321937Y-126556982D02*
X146321937Y-125661982D01*
X146281937Y-129104982D02*
X146281937Y-128236982D01*
X146281937Y-126556982D02*
X146281937Y-125688982D01*
X146241937Y-129076982D02*
X146241937Y-128236982D01*
X146241937Y-126556982D02*
X146241937Y-125716982D01*
X146201937Y-129046982D02*
X146201937Y-128236982D01*
X146201937Y-126556982D02*
X146201937Y-125746982D01*
X146161937Y-129015982D02*
X146161937Y-128236982D01*
X146161937Y-126556982D02*
X146161937Y-125777982D01*
X146121937Y-128983982D02*
X146121937Y-128236982D01*
X146121937Y-126556982D02*
X146121937Y-125809982D01*
X146081937Y-128948982D02*
X146081937Y-128236982D01*
X146081937Y-126556982D02*
X146081937Y-125844982D01*
X146041937Y-128912982D02*
X146041937Y-128236982D01*
X146041937Y-126556982D02*
X146041937Y-125880982D01*
X146001937Y-128874982D02*
X146001937Y-128236982D01*
X146001937Y-126556982D02*
X146001937Y-125918982D01*
X145961937Y-128834982D02*
X145961937Y-128236982D01*
X145961937Y-126556982D02*
X145961937Y-125958982D01*
X145921937Y-128792982D02*
X145921937Y-128236982D01*
X145921937Y-126556982D02*
X145921937Y-126000982D01*
X145881937Y-128747982D02*
X145881937Y-126045982D01*
X145841937Y-128700982D02*
X145841937Y-126092982D01*
X145801937Y-128650982D02*
X145801937Y-126142982D01*
X145761937Y-128596982D02*
X145761937Y-126196982D01*
X145721937Y-128538982D02*
X145721937Y-126254982D01*
X145681937Y-128476982D02*
X145681937Y-126316982D01*
X145641937Y-128409982D02*
X145641937Y-126383982D01*
X145601937Y-128336982D02*
X145601937Y-126456982D01*
X145561937Y-128255982D02*
X145561937Y-126537982D01*
X145521937Y-128164982D02*
X145521937Y-126628982D01*
X145481937Y-128060982D02*
X145481937Y-126732982D01*
X145441937Y-127933982D02*
X145441937Y-126859982D01*
X145401937Y-127766982D02*
X145401937Y-127026982D01*
X149752738Y-128591982D02*
X149352738Y-128591982D01*
X149552738Y-128791982D02*
X149552738Y-128391982D01*
X154773884Y-123945730D02*
X159313884Y-123945730D01*
X154773884Y-126085730D02*
X159313884Y-126085730D01*
X154773884Y-123945730D02*
X154773884Y-123960730D01*
X154773884Y-126070730D02*
X154773884Y-126085730D01*
X159313884Y-123945730D02*
X159313884Y-123960730D01*
X159313884Y-126070730D02*
X159313884Y-126085730D01*
X159313884Y-129047295D02*
X159313884Y-129062295D01*
X159313884Y-126922295D02*
X159313884Y-126937295D01*
X154773884Y-129047295D02*
X154773884Y-129062295D01*
X154773884Y-126922295D02*
X154773884Y-126937295D01*
X154773884Y-129062295D02*
X159313884Y-129062295D01*
X154773884Y-126922295D02*
X159313884Y-126922295D01*
X143145746Y-94680454D02*
X143145746Y-95938454D01*
X144985746Y-94680454D02*
X144985746Y-95938454D01*
X144985746Y-89322637D02*
X144985746Y-90580637D01*
X143145746Y-89322637D02*
X143145746Y-90580637D01*
X151190754Y-111514157D02*
X152901754Y-111514157D01*
X154279754Y-111514157D02*
X161090754Y-111514157D01*
X151190754Y-114714157D02*
X158002754Y-114714157D01*
X159379754Y-114714157D02*
X161090754Y-114714157D01*
X151190754Y-111514157D02*
X151190754Y-114714157D01*
X161090754Y-111514157D02*
X161090754Y-114714157D01*
X142735746Y-79037255D02*
X142735746Y-84237255D01*
X147875746Y-79037255D02*
X142735746Y-79037255D01*
X150475746Y-84237255D02*
X142735746Y-84237255D01*
X147875746Y-79037255D02*
X147875746Y-81637255D01*
X147875746Y-81637255D02*
X150475746Y-81637255D01*
X150475746Y-81637255D02*
X150475746Y-84237255D01*
X149145746Y-79037255D02*
X150475746Y-79037255D01*
X150475746Y-79037255D02*
X150475746Y-80367255D01*
X157355610Y-64777099D02*
G75*
G03X160587945Y-64934007I1672335J1078608D01*
G01*
X157355610Y-62619883D02*
G75*
G02X160587945Y-62462975I1672335J-1078608D01*
G01*
X157986815Y-64778328D02*
G75*
G03X160068906Y-64778491I1041130J1079837D01*
G01*
X157986815Y-62618654D02*
G75*
G02X160068906Y-62618491I1041130J-1079837D01*
G01*
X160587945Y-64934491D02*
X160587945Y-64778491D01*
X160587945Y-62618491D02*
X160587945Y-62462491D01*
X155083884Y-118791974D02*
X158923884Y-118791974D01*
X155083884Y-116951974D02*
X158923884Y-116951974D01*
X159519197Y-109862279D02*
X155679197Y-109862279D01*
X159519197Y-108022279D02*
X155679197Y-108022279D01*
X159519197Y-107481027D02*
X155679197Y-107481027D01*
X159519197Y-105641027D02*
X155679197Y-105641027D01*
X158923884Y-119333226D02*
X155083884Y-119333226D01*
X158923884Y-121173226D02*
X155083884Y-121173226D01*
X161027319Y-59260674D02*
X157187319Y-59260674D01*
X161027319Y-57420674D02*
X157187319Y-57420674D01*
X149565746Y-74604751D02*
X149565746Y-70104751D01*
X145565746Y-75854751D02*
X147065746Y-75854751D01*
X143065746Y-70104751D02*
X143065746Y-74604751D01*
X147065746Y-68854751D02*
X145565746Y-68854751D01*
X147065746Y-100406340D02*
X145565746Y-100406340D01*
X143065746Y-101656340D02*
X143065746Y-106156340D01*
X145565746Y-107406340D02*
X147065746Y-107406340D01*
X149565746Y-106156340D02*
X149565746Y-101656340D01*
X151353250Y-89132263D02*
X151353250Y-95532263D01*
X146303250Y-89132263D02*
X146303250Y-95532263D01*
X146303250Y-89132263D02*
G75*
G02X151353250Y-89132263I2525000J0D01*
G01*
X146303250Y-95532263D02*
G75*
G03X151353250Y-95532263I2525000J0D01*
G01*
X158519823Y-67726308D02*
G75*
G02X156519823Y-67726308I-1000000J0D01*
G01*
X156519823Y-67726308D02*
X154869823Y-67726308D01*
X154869823Y-67726308D02*
X154869823Y-103406308D01*
X154869823Y-103406308D02*
X160169823Y-103406308D01*
X160169823Y-103406308D02*
X160169823Y-67726308D01*
X160169823Y-67726308D02*
X158519823Y-67726308D01*
X148757624Y-116585409D02*
X146517624Y-116585409D01*
X146517624Y-116585409D02*
X146517624Y-120825409D01*
X146517624Y-120825409D02*
X148757624Y-120825409D01*
X148757624Y-120825409D02*
X148757624Y-116585409D01*
X147637624Y-115935409D02*
X147637624Y-116585409D01*
X147637624Y-121475409D02*
X147637624Y-120825409D01*
X148757624Y-117305409D02*
X146517624Y-117305409D01*
X148757624Y-117425409D02*
X146517624Y-117425409D01*
X148757624Y-117185409D02*
X146517624Y-117185409D01*
X145781059Y-117185409D02*
X143541059Y-117185409D01*
X145781059Y-117425409D02*
X143541059Y-117425409D01*
X145781059Y-117305409D02*
X143541059Y-117305409D01*
X144661059Y-121475409D02*
X144661059Y-120825409D01*
X144661059Y-115935409D02*
X144661059Y-116585409D01*
X145781059Y-120825409D02*
X145781059Y-116585409D01*
X143541059Y-120825409D02*
X145781059Y-120825409D01*
X143541059Y-116585409D02*
X143541059Y-120825409D01*
X145781059Y-116585409D02*
X143541059Y-116585409D01*
X135231990Y-66009117D02*
X135231990Y-63769117D01*
X135231990Y-63769117D02*
X130991990Y-63769117D01*
X130991990Y-63769117D02*
X130991990Y-66009117D01*
X130991990Y-66009117D02*
X135231990Y-66009117D01*
X135881990Y-64889117D02*
X135231990Y-64889117D01*
X130341990Y-64889117D02*
X130991990Y-64889117D01*
X134511990Y-66009117D02*
X134511990Y-63769117D01*
X134391990Y-66009117D02*
X134391990Y-63769117D01*
X134631990Y-66009117D02*
X134631990Y-63769117D01*
X132850738Y-68985682D02*
X132850738Y-66745682D01*
X132850738Y-66745682D02*
X128610738Y-66745682D01*
X128610738Y-66745682D02*
X128610738Y-68985682D01*
X128610738Y-68985682D02*
X132850738Y-68985682D01*
X133500738Y-67865682D02*
X132850738Y-67865682D01*
X127960738Y-67865682D02*
X128610738Y-67865682D01*
X132130738Y-68985682D02*
X132130738Y-66745682D01*
X132010738Y-68985682D02*
X132010738Y-66745682D01*
X132250738Y-68985682D02*
X132250738Y-66745682D01*
X134631990Y-71962247D02*
X134631990Y-69722247D01*
X134391990Y-71962247D02*
X134391990Y-69722247D01*
X134511990Y-71962247D02*
X134511990Y-69722247D01*
X130341990Y-70842247D02*
X130991990Y-70842247D01*
X135881990Y-70842247D02*
X135231990Y-70842247D01*
X130991990Y-71962247D02*
X135231990Y-71962247D01*
X130991990Y-69722247D02*
X130991990Y-71962247D01*
X135231990Y-69722247D02*
X130991990Y-69722247D01*
X135231990Y-71962247D02*
X135231990Y-69722247D01*
X135231990Y-77915377D02*
X135231990Y-75675377D01*
X135231990Y-75675377D02*
X130991990Y-75675377D01*
X130991990Y-75675377D02*
X130991990Y-77915377D01*
X130991990Y-77915377D02*
X135231990Y-77915377D01*
X135881990Y-76795377D02*
X135231990Y-76795377D01*
X130341990Y-76795377D02*
X130991990Y-76795377D01*
X134511990Y-77915377D02*
X134511990Y-75675377D01*
X134391990Y-77915377D02*
X134391990Y-75675377D01*
X134631990Y-77915377D02*
X134631990Y-75675377D01*
X169568266Y-63769117D02*
X169568266Y-66009117D01*
X169568266Y-66009117D02*
X173808266Y-66009117D01*
X173808266Y-66009117D02*
X173808266Y-63769117D01*
X173808266Y-63769117D02*
X169568266Y-63769117D01*
X168918266Y-64889117D02*
X169568266Y-64889117D01*
X174458266Y-64889117D02*
X173808266Y-64889117D01*
X170288266Y-63769117D02*
X170288266Y-66009117D01*
X170408266Y-63769117D02*
X170408266Y-66009117D01*
X170168266Y-63769117D02*
X170168266Y-66009117D01*
X170168266Y-69722247D02*
X170168266Y-71962247D01*
X170408266Y-69722247D02*
X170408266Y-71962247D01*
X170288266Y-69722247D02*
X170288266Y-71962247D01*
X174458266Y-70842247D02*
X173808266Y-70842247D01*
X168918266Y-70842247D02*
X169568266Y-70842247D01*
X173808266Y-69722247D02*
X169568266Y-69722247D01*
X173808266Y-71962247D02*
X173808266Y-69722247D01*
X169568266Y-71962247D02*
X173808266Y-71962247D01*
X169568266Y-69722247D02*
X169568266Y-71962247D01*
X171949518Y-72698812D02*
X171949518Y-74938812D01*
X171949518Y-74938812D02*
X176189518Y-74938812D01*
X176189518Y-74938812D02*
X176189518Y-72698812D01*
X176189518Y-72698812D02*
X171949518Y-72698812D01*
X171299518Y-73818812D02*
X171949518Y-73818812D01*
X176839518Y-73818812D02*
X176189518Y-73818812D01*
X172669518Y-72698812D02*
X172669518Y-74938812D01*
X172789518Y-72698812D02*
X172789518Y-74938812D01*
X172549518Y-72698812D02*
X172549518Y-74938812D01*
X135231990Y-83868507D02*
X135231990Y-81628507D01*
X135231990Y-81628507D02*
X130991990Y-81628507D01*
X130991990Y-81628507D02*
X130991990Y-83868507D01*
X130991990Y-83868507D02*
X135231990Y-83868507D01*
X135881990Y-82748507D02*
X135231990Y-82748507D01*
X130341990Y-82748507D02*
X130991990Y-82748507D01*
X134511990Y-83868507D02*
X134511990Y-81628507D01*
X134391990Y-83868507D02*
X134391990Y-81628507D01*
X134631990Y-83868507D02*
X134631990Y-81628507D01*
X132850738Y-86845072D02*
X132850738Y-84605072D01*
X132850738Y-84605072D02*
X128610738Y-84605072D01*
X128610738Y-84605072D02*
X128610738Y-86845072D01*
X128610738Y-86845072D02*
X132850738Y-86845072D01*
X133500738Y-85725072D02*
X132850738Y-85725072D01*
X127960738Y-85725072D02*
X128610738Y-85725072D01*
X132130738Y-86845072D02*
X132130738Y-84605072D01*
X132010738Y-86845072D02*
X132010738Y-84605072D01*
X132250738Y-86845072D02*
X132250738Y-84605072D01*
X134631990Y-89821637D02*
X134631990Y-87581637D01*
X134391990Y-89821637D02*
X134391990Y-87581637D01*
X134511990Y-89821637D02*
X134511990Y-87581637D01*
X130341990Y-88701637D02*
X130991990Y-88701637D01*
X135881990Y-88701637D02*
X135231990Y-88701637D01*
X130991990Y-89821637D02*
X135231990Y-89821637D01*
X130991990Y-87581637D02*
X130991990Y-89821637D01*
X135231990Y-87581637D02*
X130991990Y-87581637D01*
X135231990Y-89821637D02*
X135231990Y-87581637D01*
X132250738Y-92798202D02*
X132250738Y-90558202D01*
X132010738Y-92798202D02*
X132010738Y-90558202D01*
X132130738Y-92798202D02*
X132130738Y-90558202D01*
X127960738Y-91678202D02*
X128610738Y-91678202D01*
X133500738Y-91678202D02*
X132850738Y-91678202D01*
X128610738Y-92798202D02*
X132850738Y-92798202D01*
X128610738Y-90558202D02*
X128610738Y-92798202D01*
X132850738Y-90558202D02*
X128610738Y-90558202D01*
X132850738Y-92798202D02*
X132850738Y-90558202D01*
X132850738Y-80891942D02*
X132850738Y-78651942D01*
X132850738Y-78651942D02*
X128610738Y-78651942D01*
X128610738Y-78651942D02*
X128610738Y-80891942D01*
X128610738Y-80891942D02*
X132850738Y-80891942D01*
X133500738Y-79771942D02*
X132850738Y-79771942D01*
X127960738Y-79771942D02*
X128610738Y-79771942D01*
X132130738Y-80891942D02*
X132130738Y-78651942D01*
X132010738Y-80891942D02*
X132010738Y-78651942D01*
X132250738Y-80891942D02*
X132250738Y-78651942D01*
X170168266Y-81628507D02*
X170168266Y-83868507D01*
X170408266Y-81628507D02*
X170408266Y-83868507D01*
X170288266Y-81628507D02*
X170288266Y-83868507D01*
X174458266Y-82748507D02*
X173808266Y-82748507D01*
X168918266Y-82748507D02*
X169568266Y-82748507D01*
X173808266Y-81628507D02*
X169568266Y-81628507D01*
X173808266Y-83868507D02*
X173808266Y-81628507D01*
X169568266Y-83868507D02*
X173808266Y-83868507D01*
X169568266Y-81628507D02*
X169568266Y-83868507D01*
X171949518Y-84605072D02*
X171949518Y-86845072D01*
X171949518Y-86845072D02*
X176189518Y-86845072D01*
X176189518Y-86845072D02*
X176189518Y-84605072D01*
X176189518Y-84605072D02*
X171949518Y-84605072D01*
X171299518Y-85725072D02*
X171949518Y-85725072D01*
X176839518Y-85725072D02*
X176189518Y-85725072D01*
X172669518Y-84605072D02*
X172669518Y-86845072D01*
X172789518Y-84605072D02*
X172789518Y-86845072D01*
X172549518Y-84605072D02*
X172549518Y-86845072D01*
X169568266Y-87581637D02*
X169568266Y-89821637D01*
X169568266Y-89821637D02*
X173808266Y-89821637D01*
X173808266Y-89821637D02*
X173808266Y-87581637D01*
X173808266Y-87581637D02*
X169568266Y-87581637D01*
X168918266Y-88701637D02*
X169568266Y-88701637D01*
X174458266Y-88701637D02*
X173808266Y-88701637D01*
X170288266Y-87581637D02*
X170288266Y-89821637D01*
X170408266Y-87581637D02*
X170408266Y-89821637D01*
X170168266Y-87581637D02*
X170168266Y-89821637D01*
X171949518Y-90558202D02*
X171949518Y-92798202D01*
X171949518Y-92798202D02*
X176189518Y-92798202D01*
X176189518Y-92798202D02*
X176189518Y-90558202D01*
X176189518Y-90558202D02*
X171949518Y-90558202D01*
X171299518Y-91678202D02*
X171949518Y-91678202D01*
X176839518Y-91678202D02*
X176189518Y-91678202D01*
X172669518Y-90558202D02*
X172669518Y-92798202D01*
X172789518Y-90558202D02*
X172789518Y-92798202D01*
X172549518Y-90558202D02*
X172549518Y-92798202D01*
X134631990Y-101727897D02*
X134631990Y-99487897D01*
X134391990Y-101727897D02*
X134391990Y-99487897D01*
X134511990Y-101727897D02*
X134511990Y-99487897D01*
X130341990Y-100607897D02*
X130991990Y-100607897D01*
X135881990Y-100607897D02*
X135231990Y-100607897D01*
X130991990Y-101727897D02*
X135231990Y-101727897D01*
X130991990Y-99487897D02*
X130991990Y-101727897D01*
X135231990Y-99487897D02*
X130991990Y-99487897D01*
X135231990Y-101727897D02*
X135231990Y-99487897D01*
X132250738Y-104704462D02*
X132250738Y-102464462D01*
X132010738Y-104704462D02*
X132010738Y-102464462D01*
X132130738Y-104704462D02*
X132130738Y-102464462D01*
X127960738Y-103584462D02*
X128610738Y-103584462D01*
X133500738Y-103584462D02*
X132850738Y-103584462D01*
X128610738Y-104704462D02*
X132850738Y-104704462D01*
X128610738Y-102464462D02*
X128610738Y-104704462D01*
X132850738Y-102464462D02*
X128610738Y-102464462D01*
X132850738Y-104704462D02*
X132850738Y-102464462D01*
X134631990Y-107681027D02*
X134631990Y-105441027D01*
X134391990Y-107681027D02*
X134391990Y-105441027D01*
X134511990Y-107681027D02*
X134511990Y-105441027D01*
X130341990Y-106561027D02*
X130991990Y-106561027D01*
X135881990Y-106561027D02*
X135231990Y-106561027D01*
X130991990Y-107681027D02*
X135231990Y-107681027D01*
X130991990Y-105441027D02*
X130991990Y-107681027D01*
X135231990Y-105441027D02*
X130991990Y-105441027D01*
X135231990Y-107681027D02*
X135231990Y-105441027D01*
X135231990Y-95774767D02*
X135231990Y-93534767D01*
X135231990Y-93534767D02*
X130991990Y-93534767D01*
X130991990Y-93534767D02*
X130991990Y-95774767D01*
X130991990Y-95774767D02*
X135231990Y-95774767D01*
X135881990Y-94654767D02*
X135231990Y-94654767D01*
X130341990Y-94654767D02*
X130991990Y-94654767D01*
X134511990Y-95774767D02*
X134511990Y-93534767D01*
X134391990Y-95774767D02*
X134391990Y-93534767D01*
X134631990Y-95774767D02*
X134631990Y-93534767D01*
X132850738Y-98751332D02*
X132850738Y-96511332D01*
X132850738Y-96511332D02*
X128610738Y-96511332D01*
X128610738Y-96511332D02*
X128610738Y-98751332D01*
X128610738Y-98751332D02*
X132850738Y-98751332D01*
X133500738Y-97631332D02*
X132850738Y-97631332D01*
X127960738Y-97631332D02*
X128610738Y-97631332D01*
X132130738Y-98751332D02*
X132130738Y-96511332D01*
X132010738Y-98751332D02*
X132010738Y-96511332D01*
X132250738Y-98751332D02*
X132250738Y-96511332D01*
X169568266Y-99487897D02*
X169568266Y-101727897D01*
X169568266Y-101727897D02*
X173808266Y-101727897D01*
X173808266Y-101727897D02*
X173808266Y-99487897D01*
X173808266Y-99487897D02*
X169568266Y-99487897D01*
X168918266Y-100607897D02*
X169568266Y-100607897D01*
X174458266Y-100607897D02*
X173808266Y-100607897D01*
X170288266Y-99487897D02*
X170288266Y-101727897D01*
X170408266Y-99487897D02*
X170408266Y-101727897D01*
X170168266Y-99487897D02*
X170168266Y-101727897D01*
X171949518Y-102464462D02*
X171949518Y-104704462D01*
X171949518Y-104704462D02*
X176189518Y-104704462D01*
X176189518Y-104704462D02*
X176189518Y-102464462D01*
X176189518Y-102464462D02*
X171949518Y-102464462D01*
X171299518Y-103584462D02*
X171949518Y-103584462D01*
X176839518Y-103584462D02*
X176189518Y-103584462D01*
X172669518Y-102464462D02*
X172669518Y-104704462D01*
X172789518Y-102464462D02*
X172789518Y-104704462D01*
X172549518Y-102464462D02*
X172549518Y-104704462D01*
X169568266Y-105441027D02*
X169568266Y-107681027D01*
X169568266Y-107681027D02*
X173808266Y-107681027D01*
X173808266Y-107681027D02*
X173808266Y-105441027D01*
X173808266Y-105441027D02*
X169568266Y-105441027D01*
X168918266Y-106561027D02*
X169568266Y-106561027D01*
X174458266Y-106561027D02*
X173808266Y-106561027D01*
X170288266Y-105441027D02*
X170288266Y-107681027D01*
X170408266Y-105441027D02*
X170408266Y-107681027D01*
X170168266Y-105441027D02*
X170168266Y-107681027D01*
X169568266Y-93534767D02*
X169568266Y-95774767D01*
X169568266Y-95774767D02*
X173808266Y-95774767D01*
X173808266Y-95774767D02*
X173808266Y-93534767D01*
X173808266Y-93534767D02*
X169568266Y-93534767D01*
X168918266Y-94654767D02*
X169568266Y-94654767D01*
X174458266Y-94654767D02*
X173808266Y-94654767D01*
X170288266Y-93534767D02*
X170288266Y-95774767D01*
X170408266Y-93534767D02*
X170408266Y-95774767D01*
X170168266Y-93534767D02*
X170168266Y-95774767D01*
X135231990Y-119587287D02*
X135231990Y-117347287D01*
X135231990Y-117347287D02*
X130991990Y-117347287D01*
X130991990Y-117347287D02*
X130991990Y-119587287D01*
X130991990Y-119587287D02*
X135231990Y-119587287D01*
X135881990Y-118467287D02*
X135231990Y-118467287D01*
X130341990Y-118467287D02*
X130991990Y-118467287D01*
X134511990Y-119587287D02*
X134511990Y-117347287D01*
X134391990Y-119587287D02*
X134391990Y-117347287D01*
X134631990Y-119587287D02*
X134631990Y-117347287D01*
X132250738Y-122563852D02*
X132250738Y-120323852D01*
X132010738Y-122563852D02*
X132010738Y-120323852D01*
X132130738Y-122563852D02*
X132130738Y-120323852D01*
X127960738Y-121443852D02*
X128610738Y-121443852D01*
X133500738Y-121443852D02*
X132850738Y-121443852D01*
X128610738Y-122563852D02*
X132850738Y-122563852D01*
X128610738Y-120323852D02*
X128610738Y-122563852D01*
X132850738Y-120323852D02*
X128610738Y-120323852D01*
X132850738Y-122563852D02*
X132850738Y-120323852D01*
X132250738Y-110657592D02*
X132250738Y-108417592D01*
X132010738Y-110657592D02*
X132010738Y-108417592D01*
X132130738Y-110657592D02*
X132130738Y-108417592D01*
X127960738Y-109537592D02*
X128610738Y-109537592D01*
X133500738Y-109537592D02*
X132850738Y-109537592D01*
X128610738Y-110657592D02*
X132850738Y-110657592D01*
X128610738Y-108417592D02*
X128610738Y-110657592D01*
X132850738Y-108417592D02*
X128610738Y-108417592D01*
X132850738Y-110657592D02*
X132850738Y-108417592D01*
X135231990Y-113634157D02*
X135231990Y-111394157D01*
X135231990Y-111394157D02*
X130991990Y-111394157D01*
X130991990Y-111394157D02*
X130991990Y-113634157D01*
X130991990Y-113634157D02*
X135231990Y-113634157D01*
X135881990Y-112514157D02*
X135231990Y-112514157D01*
X130341990Y-112514157D02*
X130991990Y-112514157D01*
X134511990Y-113634157D02*
X134511990Y-111394157D01*
X134391990Y-113634157D02*
X134391990Y-111394157D01*
X134631990Y-113634157D02*
X134631990Y-111394157D01*
X132850738Y-116610722D02*
X132850738Y-114370722D01*
X132850738Y-114370722D02*
X128610738Y-114370722D01*
X128610738Y-114370722D02*
X128610738Y-116610722D01*
X128610738Y-116610722D02*
X132850738Y-116610722D01*
X133500738Y-115490722D02*
X132850738Y-115490722D01*
X127960738Y-115490722D02*
X128610738Y-115490722D01*
X132130738Y-116610722D02*
X132130738Y-114370722D01*
X132010738Y-116610722D02*
X132010738Y-114370722D01*
X132250738Y-116610722D02*
X132250738Y-114370722D01*
X171949518Y-120323852D02*
X171949518Y-122563852D01*
X171949518Y-122563852D02*
X176189518Y-122563852D01*
X176189518Y-122563852D02*
X176189518Y-120323852D01*
X176189518Y-120323852D02*
X171949518Y-120323852D01*
X171299518Y-121443852D02*
X171949518Y-121443852D01*
X176839518Y-121443852D02*
X176189518Y-121443852D01*
X172669518Y-120323852D02*
X172669518Y-122563852D01*
X172789518Y-120323852D02*
X172789518Y-122563852D01*
X172549518Y-120323852D02*
X172549518Y-122563852D01*
X171949518Y-108417592D02*
X171949518Y-110657592D01*
X171949518Y-110657592D02*
X176189518Y-110657592D01*
X176189518Y-110657592D02*
X176189518Y-108417592D01*
X176189518Y-108417592D02*
X171949518Y-108417592D01*
X171299518Y-109537592D02*
X171949518Y-109537592D01*
X176839518Y-109537592D02*
X176189518Y-109537592D01*
X172669518Y-108417592D02*
X172669518Y-110657592D01*
X172789518Y-108417592D02*
X172789518Y-110657592D01*
X172549518Y-108417592D02*
X172549518Y-110657592D01*
X169568266Y-111394157D02*
X169568266Y-113634157D01*
X169568266Y-113634157D02*
X173808266Y-113634157D01*
X173808266Y-113634157D02*
X173808266Y-111394157D01*
X173808266Y-111394157D02*
X169568266Y-111394157D01*
X168918266Y-112514157D02*
X169568266Y-112514157D01*
X174458266Y-112514157D02*
X173808266Y-112514157D01*
X170288266Y-111394157D02*
X170288266Y-113634157D01*
X170408266Y-111394157D02*
X170408266Y-113634157D01*
X170168266Y-111394157D02*
X170168266Y-113634157D01*
X134631990Y-137446677D02*
X134631990Y-135206677D01*
X134391990Y-137446677D02*
X134391990Y-135206677D01*
X134511990Y-137446677D02*
X134511990Y-135206677D01*
X130341990Y-136326677D02*
X130991990Y-136326677D01*
X135881990Y-136326677D02*
X135231990Y-136326677D01*
X130991990Y-137446677D02*
X135231990Y-137446677D01*
X130991990Y-135206677D02*
X130991990Y-137446677D01*
X135231990Y-135206677D02*
X130991990Y-135206677D01*
X135231990Y-137446677D02*
X135231990Y-135206677D01*
X134631990Y-125540417D02*
X134631990Y-123300417D01*
X134391990Y-125540417D02*
X134391990Y-123300417D01*
X134511990Y-125540417D02*
X134511990Y-123300417D01*
X130341990Y-124420417D02*
X130991990Y-124420417D01*
X135881990Y-124420417D02*
X135231990Y-124420417D01*
X130991990Y-125540417D02*
X135231990Y-125540417D01*
X130991990Y-123300417D02*
X130991990Y-125540417D01*
X135231990Y-123300417D02*
X130991990Y-123300417D01*
X135231990Y-125540417D02*
X135231990Y-123300417D01*
X132250738Y-128516982D02*
X132250738Y-126276982D01*
X132010738Y-128516982D02*
X132010738Y-126276982D01*
X132130738Y-128516982D02*
X132130738Y-126276982D01*
X127960738Y-127396982D02*
X128610738Y-127396982D01*
X133500738Y-127396982D02*
X132850738Y-127396982D01*
X128610738Y-128516982D02*
X132850738Y-128516982D01*
X128610738Y-126276982D02*
X128610738Y-128516982D01*
X132850738Y-126276982D02*
X128610738Y-126276982D01*
X132850738Y-128516982D02*
X132850738Y-126276982D01*
X134631990Y-131493547D02*
X134631990Y-129253547D01*
X134391990Y-131493547D02*
X134391990Y-129253547D01*
X134511990Y-131493547D02*
X134511990Y-129253547D01*
X130341990Y-130373547D02*
X130991990Y-130373547D01*
X135881990Y-130373547D02*
X135231990Y-130373547D01*
X130991990Y-131493547D02*
X135231990Y-131493547D01*
X130991990Y-129253547D02*
X130991990Y-131493547D01*
X135231990Y-129253547D02*
X130991990Y-129253547D01*
X135231990Y-131493547D02*
X135231990Y-129253547D01*
X170168266Y-135206677D02*
X170168266Y-137446677D01*
X170408266Y-135206677D02*
X170408266Y-137446677D01*
X170288266Y-135206677D02*
X170288266Y-137446677D01*
X174458266Y-136326677D02*
X173808266Y-136326677D01*
X168918266Y-136326677D02*
X169568266Y-136326677D01*
X173808266Y-135206677D02*
X169568266Y-135206677D01*
X173808266Y-137446677D02*
X173808266Y-135206677D01*
X169568266Y-137446677D02*
X173808266Y-137446677D01*
X169568266Y-135206677D02*
X169568266Y-137446677D01*
X170168266Y-123300417D02*
X170168266Y-125540417D01*
X170408266Y-123300417D02*
X170408266Y-125540417D01*
X170288266Y-123300417D02*
X170288266Y-125540417D01*
X174458266Y-124420417D02*
X173808266Y-124420417D01*
X168918266Y-124420417D02*
X169568266Y-124420417D01*
X173808266Y-123300417D02*
X169568266Y-123300417D01*
X173808266Y-125540417D02*
X173808266Y-123300417D01*
X169568266Y-125540417D02*
X173808266Y-125540417D01*
X169568266Y-123300417D02*
X169568266Y-125540417D01*
X172549518Y-126276982D02*
X172549518Y-128516982D01*
X172789518Y-126276982D02*
X172789518Y-128516982D01*
X172669518Y-126276982D02*
X172669518Y-128516982D01*
X176839518Y-127396982D02*
X176189518Y-127396982D01*
X171299518Y-127396982D02*
X171949518Y-127396982D01*
X176189518Y-126276982D02*
X171949518Y-126276982D01*
X176189518Y-128516982D02*
X176189518Y-126276982D01*
X171949518Y-128516982D02*
X176189518Y-128516982D01*
X171949518Y-126276982D02*
X171949518Y-128516982D01*
X170168266Y-129253547D02*
X170168266Y-131493547D01*
X170408266Y-129253547D02*
X170408266Y-131493547D01*
X170288266Y-129253547D02*
X170288266Y-131493547D01*
X174458266Y-130373547D02*
X173808266Y-130373547D01*
X168918266Y-130373547D02*
X169568266Y-130373547D01*
X173808266Y-129253547D02*
X169568266Y-129253547D01*
X173808266Y-131493547D02*
X173808266Y-129253547D01*
X169568266Y-131493547D02*
X173808266Y-131493547D01*
X169568266Y-129253547D02*
X169568266Y-131493547D01*
X132850738Y-140423242D02*
X132850738Y-138183242D01*
X132850738Y-138183242D02*
X128610738Y-138183242D01*
X128610738Y-138183242D02*
X128610738Y-140423242D01*
X128610738Y-140423242D02*
X132850738Y-140423242D01*
X133500738Y-139303242D02*
X132850738Y-139303242D01*
X127960738Y-139303242D02*
X128610738Y-139303242D01*
X132130738Y-140423242D02*
X132130738Y-138183242D01*
X132010738Y-140423242D02*
X132010738Y-138183242D01*
X132250738Y-140423242D02*
X132250738Y-138183242D01*
X143399807Y-138016677D02*
X141159807Y-138016677D01*
X141159807Y-138016677D02*
X141159807Y-142256677D01*
X141159807Y-142256677D02*
X143399807Y-142256677D01*
X143399807Y-142256677D02*
X143399807Y-138016677D01*
X142279807Y-137366677D02*
X142279807Y-138016677D01*
X142279807Y-142906677D02*
X142279807Y-142256677D01*
X143399807Y-138736677D02*
X141159807Y-138736677D01*
X143399807Y-138856677D02*
X141159807Y-138856677D01*
X143399807Y-138616677D02*
X141159807Y-138616677D01*
X146376372Y-135635425D02*
X144136372Y-135635425D01*
X144136372Y-135635425D02*
X144136372Y-139875425D01*
X144136372Y-139875425D02*
X146376372Y-139875425D01*
X146376372Y-139875425D02*
X146376372Y-135635425D01*
X145256372Y-134985425D02*
X145256372Y-135635425D01*
X145256372Y-140525425D02*
X145256372Y-139875425D01*
X146376372Y-136355425D02*
X144136372Y-136355425D01*
X146376372Y-136475425D02*
X144136372Y-136475425D01*
X146376372Y-136235425D02*
X144136372Y-136235425D01*
X149352937Y-138016677D02*
X147112937Y-138016677D01*
X147112937Y-138016677D02*
X147112937Y-142256677D01*
X147112937Y-142256677D02*
X149352937Y-142256677D01*
X149352937Y-142256677D02*
X149352937Y-138016677D01*
X148232937Y-137366677D02*
X148232937Y-138016677D01*
X148232937Y-142906677D02*
X148232937Y-142256677D01*
X149352937Y-138736677D02*
X147112937Y-138736677D01*
X149352937Y-138856677D02*
X147112937Y-138856677D01*
X149352937Y-138616677D02*
X147112937Y-138616677D01*
X171949518Y-138183242D02*
X171949518Y-140423242D01*
X171949518Y-140423242D02*
X176189518Y-140423242D01*
X176189518Y-140423242D02*
X176189518Y-138183242D01*
X176189518Y-138183242D02*
X171949518Y-138183242D01*
X171299518Y-139303242D02*
X171949518Y-139303242D01*
X176839518Y-139303242D02*
X176189518Y-139303242D01*
X172669518Y-138183242D02*
X172669518Y-140423242D01*
X172789518Y-138183242D02*
X172789518Y-140423242D01*
X172549518Y-138183242D02*
X172549518Y-140423242D01*
X164235762Y-138016677D02*
X161995762Y-138016677D01*
X161995762Y-138016677D02*
X161995762Y-142256677D01*
X161995762Y-142256677D02*
X164235762Y-142256677D01*
X164235762Y-142256677D02*
X164235762Y-138016677D01*
X163115762Y-137366677D02*
X163115762Y-138016677D01*
X163115762Y-142906677D02*
X163115762Y-142256677D01*
X164235762Y-138736677D02*
X161995762Y-138736677D01*
X164235762Y-138856677D02*
X161995762Y-138856677D01*
X164235762Y-138616677D02*
X161995762Y-138616677D01*
X161259197Y-135635425D02*
X159019197Y-135635425D01*
X159019197Y-135635425D02*
X159019197Y-139875425D01*
X159019197Y-139875425D02*
X161259197Y-139875425D01*
X161259197Y-139875425D02*
X161259197Y-135635425D01*
X160139197Y-134985425D02*
X160139197Y-135635425D01*
X160139197Y-140525425D02*
X160139197Y-139875425D01*
X161259197Y-136355425D02*
X159019197Y-136355425D01*
X161259197Y-136475425D02*
X159019197Y-136475425D01*
X161259197Y-136235425D02*
X159019197Y-136235425D01*
X158282632Y-138016677D02*
X156042632Y-138016677D01*
X156042632Y-138016677D02*
X156042632Y-142256677D01*
X156042632Y-142256677D02*
X158282632Y-142256677D01*
X158282632Y-142256677D02*
X158282632Y-138016677D01*
X157162632Y-137366677D02*
X157162632Y-138016677D01*
X157162632Y-142906677D02*
X157162632Y-142256677D01*
X158282632Y-138736677D02*
X156042632Y-138736677D01*
X158282632Y-138856677D02*
X156042632Y-138856677D01*
X158282632Y-138616677D02*
X156042632Y-138616677D01*
X144854037Y-64777099D02*
G75*
G03X148086372Y-64934007I1672335J1078608D01*
G01*
X144854037Y-62619883D02*
G75*
G02X148086372Y-62462975I1672335J-1078608D01*
G01*
X145485242Y-64778328D02*
G75*
G03X147567333Y-64778491I1041130J1079837D01*
G01*
X145485242Y-62618654D02*
G75*
G02X147567333Y-62618491I1041130J-1079837D01*
G01*
X148086372Y-64934491D02*
X148086372Y-64778491D01*
X148086372Y-62618491D02*
X148086372Y-62462491D01*
X148525746Y-59260674D02*
X144685746Y-59260674D01*
X148525746Y-57420674D02*
X144685746Y-57420674D01*
X132250738Y-134470112D02*
X132250738Y-132230112D01*
X132010738Y-134470112D02*
X132010738Y-132230112D01*
X132130738Y-134470112D02*
X132130738Y-132230112D01*
X127960738Y-133350112D02*
X128610738Y-133350112D01*
X133500738Y-133350112D02*
X132850738Y-133350112D01*
X128610738Y-134470112D02*
X132850738Y-134470112D01*
X128610738Y-132230112D02*
X128610738Y-134470112D01*
X132850738Y-132230112D02*
X128610738Y-132230112D01*
X132850738Y-134470112D02*
X132850738Y-132230112D01*
X152329502Y-135635425D02*
X150089502Y-135635425D01*
X150089502Y-135635425D02*
X150089502Y-139875425D01*
X150089502Y-139875425D02*
X152329502Y-139875425D01*
X152329502Y-139875425D02*
X152329502Y-135635425D01*
X151209502Y-134985425D02*
X151209502Y-135635425D01*
X151209502Y-140525425D02*
X151209502Y-139875425D01*
X152329502Y-136355425D02*
X150089502Y-136355425D01*
X152329502Y-136475425D02*
X150089502Y-136475425D01*
X152329502Y-136235425D02*
X150089502Y-136235425D01*
X170168266Y-75675377D02*
X170168266Y-77915377D01*
X170408266Y-75675377D02*
X170408266Y-77915377D01*
X170288266Y-75675377D02*
X170288266Y-77915377D01*
X174458266Y-76795377D02*
X173808266Y-76795377D01*
X168918266Y-76795377D02*
X169568266Y-76795377D01*
X173808266Y-75675377D02*
X169568266Y-75675377D01*
X173808266Y-77915377D02*
X173808266Y-75675377D01*
X169568266Y-77915377D02*
X173808266Y-77915377D01*
X169568266Y-75675377D02*
X169568266Y-77915377D01*
X171949518Y-78651942D02*
X171949518Y-80891942D01*
X171949518Y-80891942D02*
X176189518Y-80891942D01*
X176189518Y-80891942D02*
X176189518Y-78651942D01*
X176189518Y-78651942D02*
X171949518Y-78651942D01*
X171299518Y-79771942D02*
X171949518Y-79771942D01*
X176839518Y-79771942D02*
X176189518Y-79771942D01*
X172669518Y-78651942D02*
X172669518Y-80891942D01*
X172789518Y-78651942D02*
X172789518Y-80891942D01*
X172549518Y-78651942D02*
X172549518Y-80891942D01*
X172549518Y-96511332D02*
X172549518Y-98751332D01*
X172789518Y-96511332D02*
X172789518Y-98751332D01*
X172669518Y-96511332D02*
X172669518Y-98751332D01*
X176839518Y-97631332D02*
X176189518Y-97631332D01*
X171299518Y-97631332D02*
X171949518Y-97631332D01*
X176189518Y-96511332D02*
X171949518Y-96511332D01*
X176189518Y-98751332D02*
X176189518Y-96511332D01*
X171949518Y-98751332D02*
X176189518Y-98751332D01*
X171949518Y-96511332D02*
X171949518Y-98751332D01*
X171949518Y-114370722D02*
X171949518Y-116610722D01*
X171949518Y-116610722D02*
X176189518Y-116610722D01*
X176189518Y-116610722D02*
X176189518Y-114370722D01*
X176189518Y-114370722D02*
X171949518Y-114370722D01*
X171299518Y-115490722D02*
X171949518Y-115490722D01*
X176839518Y-115490722D02*
X176189518Y-115490722D01*
X172669518Y-114370722D02*
X172669518Y-116610722D01*
X172789518Y-114370722D02*
X172789518Y-116610722D01*
X172549518Y-114370722D02*
X172549518Y-116610722D01*
X172549518Y-132230112D02*
X172549518Y-134470112D01*
X172789518Y-132230112D02*
X172789518Y-134470112D01*
X172669518Y-132230112D02*
X172669518Y-134470112D01*
X176839518Y-133350112D02*
X176189518Y-133350112D01*
X171299518Y-133350112D02*
X171949518Y-133350112D01*
X176189518Y-132230112D02*
X171949518Y-132230112D01*
X176189518Y-134470112D02*
X176189518Y-132230112D01*
X171949518Y-134470112D02*
X176189518Y-134470112D01*
X171949518Y-132230112D02*
X171949518Y-134470112D01*
X155306067Y-135635425D02*
X153066067Y-135635425D01*
X153066067Y-135635425D02*
X153066067Y-139875425D01*
X153066067Y-139875425D02*
X155306067Y-139875425D01*
X155306067Y-139875425D02*
X155306067Y-135635425D01*
X154186067Y-134985425D02*
X154186067Y-135635425D01*
X154186067Y-140525425D02*
X154186067Y-139875425D01*
X155306067Y-136355425D02*
X153066067Y-136355425D01*
X155306067Y-136475425D02*
X153066067Y-136475425D01*
X155306067Y-136235425D02*
X153066067Y-136235425D01*
D11*
X283065097Y-87918343D02*
X283065097Y-86648343D01*
X283573097Y-87555486D01*
X284081097Y-86648343D01*
X284081097Y-87918343D01*
X284661668Y-86648343D02*
X285677668Y-87918343D01*
X285677668Y-86648343D02*
X284661668Y-87918343D01*
X286113097Y-86648343D02*
X287056525Y-86648343D01*
X286548525Y-87132153D01*
X286766240Y-87132153D01*
X286911382Y-87192629D01*
X286983954Y-87253105D01*
X287056525Y-87374058D01*
X287056525Y-87676439D01*
X286983954Y-87797391D01*
X286911382Y-87857867D01*
X286766240Y-87918343D01*
X286330811Y-87918343D01*
X286185668Y-87857867D01*
X286113097Y-87797391D01*
X287637097Y-86769296D02*
X287709668Y-86708820D01*
X287854811Y-86648343D01*
X288217668Y-86648343D01*
X288362811Y-86708820D01*
X288435382Y-86769296D01*
X288507954Y-86890248D01*
X288507954Y-87011200D01*
X288435382Y-87192629D01*
X287564525Y-87918343D01*
X288507954Y-87918343D01*
D12*
X163687415Y-118919667D02*
X163687415Y-117919667D01*
X163925510Y-117919667D01*
X164068367Y-117967287D01*
X164163605Y-118062525D01*
X164211224Y-118157763D01*
X164258843Y-118348239D01*
X164258843Y-118491096D01*
X164211224Y-118681572D01*
X164163605Y-118776810D01*
X164068367Y-118872048D01*
X163925510Y-118919667D01*
X163687415Y-118919667D01*
X164592177Y-117919667D02*
X165211224Y-117919667D01*
X164877891Y-118300620D01*
X165020748Y-118300620D01*
X165115986Y-118348239D01*
X165163605Y-118395858D01*
X165211224Y-118491096D01*
X165211224Y-118729191D01*
X165163605Y-118824429D01*
X165115986Y-118872048D01*
X165020748Y-118919667D01*
X164735034Y-118919667D01*
X164639796Y-118872048D01*
X164592177Y-118824429D01*
X166068367Y-118253001D02*
X166068367Y-118919667D01*
X165830272Y-117872048D02*
X165592177Y-118586334D01*
X166211224Y-118586334D01*
X166068667Y-68318062D02*
X166068667Y-67318062D01*
X166306762Y-67318062D01*
X166449619Y-67365682D01*
X166544857Y-67460920D01*
X166592476Y-67556158D01*
X166640095Y-67746634D01*
X166640095Y-67889491D01*
X166592476Y-68079967D01*
X166544857Y-68175205D01*
X166449619Y-68270443D01*
X166306762Y-68318062D01*
X166068667Y-68318062D01*
X166973429Y-67318062D02*
X167592476Y-67318062D01*
X167259143Y-67699015D01*
X167402000Y-67699015D01*
X167497238Y-67746634D01*
X167544857Y-67794253D01*
X167592476Y-67889491D01*
X167592476Y-68127586D01*
X167544857Y-68222824D01*
X167497238Y-68270443D01*
X167402000Y-68318062D01*
X167116286Y-68318062D01*
X167021048Y-68270443D01*
X166973429Y-68222824D01*
X167925810Y-67318062D02*
X168592476Y-67318062D01*
X168163905Y-68318062D01*
X135707704Y-74271192D02*
X135707704Y-73271192D01*
X135945799Y-73271192D01*
X136088656Y-73318812D01*
X136183894Y-73414050D01*
X136231513Y-73509288D01*
X136279132Y-73699764D01*
X136279132Y-73842621D01*
X136231513Y-74033097D01*
X136183894Y-74128335D01*
X136088656Y-74223573D01*
X135945799Y-74271192D01*
X135707704Y-74271192D01*
X137231513Y-74271192D02*
X136660085Y-74271192D01*
X136945799Y-74271192D02*
X136945799Y-73271192D01*
X136850561Y-73414050D01*
X136755323Y-73509288D01*
X136660085Y-73556907D01*
X137707704Y-74271192D02*
X137898180Y-74271192D01*
X137993418Y-74223573D01*
X138041037Y-74175954D01*
X138136275Y-74033097D01*
X138183894Y-73842621D01*
X138183894Y-73461669D01*
X138136275Y-73366431D01*
X138088656Y-73318812D01*
X137993418Y-73271192D01*
X137802942Y-73271192D01*
X137707704Y-73318812D01*
X137660085Y-73366431D01*
X137612466Y-73461669D01*
X137612466Y-73699764D01*
X137660085Y-73795002D01*
X137707704Y-73842621D01*
X137802942Y-73890240D01*
X137993418Y-73890240D01*
X138088656Y-73842621D01*
X138136275Y-73795002D01*
X138183894Y-73699764D01*
D11*
X225915049Y-126018375D02*
X225915049Y-124748375D01*
X226423049Y-125655518D01*
X226931049Y-124748375D01*
X226931049Y-126018375D01*
X227511620Y-124748375D02*
X228527620Y-126018375D01*
X228527620Y-124748375D02*
X227511620Y-126018375D01*
X229761334Y-125171709D02*
X229761334Y-126018375D01*
X229398477Y-124687899D02*
X229035620Y-125595042D01*
X229979049Y-125595042D01*
X230414477Y-124748375D02*
X231430477Y-124748375D01*
X230777334Y-126018375D01*
X244965065Y-87918343D02*
X244965065Y-86648343D01*
X245473065Y-87555486D01*
X245981065Y-86648343D01*
X245981065Y-87918343D01*
X246561636Y-86648343D02*
X247577636Y-87918343D01*
X247577636Y-86648343D02*
X246561636Y-87918343D01*
X248811350Y-87071677D02*
X248811350Y-87918343D01*
X248448493Y-86587867D02*
X248085636Y-87495010D01*
X249029065Y-87495010D01*
X250262779Y-87071677D02*
X250262779Y-87918343D01*
X249899922Y-86587867D02*
X249537065Y-87495010D01*
X250480493Y-87495010D01*
X244965065Y-68868327D02*
X244965065Y-67598327D01*
X245473065Y-68505470D01*
X245981065Y-67598327D01*
X245981065Y-68868327D01*
X246561636Y-67598327D02*
X247577636Y-68868327D01*
X247577636Y-67598327D02*
X246561636Y-68868327D01*
X248811350Y-68021661D02*
X248811350Y-68868327D01*
X248448493Y-67537851D02*
X248085636Y-68444994D01*
X249029065Y-68444994D01*
X249464493Y-67598327D02*
X250407922Y-67598327D01*
X249899922Y-68082137D01*
X250117636Y-68082137D01*
X250262779Y-68142613D01*
X250335350Y-68203089D01*
X250407922Y-68324042D01*
X250407922Y-68626423D01*
X250335350Y-68747375D01*
X250262779Y-68807851D01*
X250117636Y-68868327D01*
X249682208Y-68868327D01*
X249537065Y-68807851D01*
X249464493Y-68747375D01*
X264015081Y-87918343D02*
X264015081Y-86648343D01*
X264523081Y-87555486D01*
X265031081Y-86648343D01*
X265031081Y-87918343D01*
X265611652Y-86648343D02*
X266627652Y-87918343D01*
X266627652Y-86648343D02*
X265611652Y-87918343D01*
X267063081Y-86648343D02*
X268006509Y-86648343D01*
X267498509Y-87132153D01*
X267716224Y-87132153D01*
X267861366Y-87192629D01*
X267933938Y-87253105D01*
X268006509Y-87374058D01*
X268006509Y-87676439D01*
X267933938Y-87797391D01*
X267861366Y-87857867D01*
X267716224Y-87918343D01*
X267280795Y-87918343D01*
X267135652Y-87857867D01*
X267063081Y-87797391D01*
X268877366Y-87192629D02*
X268732224Y-87132153D01*
X268659652Y-87071677D01*
X268587081Y-86950724D01*
X268587081Y-86890248D01*
X268659652Y-86769296D01*
X268732224Y-86708820D01*
X268877366Y-86648343D01*
X269167652Y-86648343D01*
X269312795Y-86708820D01*
X269385366Y-86769296D01*
X269457938Y-86890248D01*
X269457938Y-86950724D01*
X269385366Y-87071677D01*
X269312795Y-87132153D01*
X269167652Y-87192629D01*
X268877366Y-87192629D01*
X268732224Y-87253105D01*
X268659652Y-87313581D01*
X268587081Y-87434534D01*
X268587081Y-87676439D01*
X268659652Y-87797391D01*
X268732224Y-87857867D01*
X268877366Y-87918343D01*
X269167652Y-87918343D01*
X269312795Y-87857867D01*
X269385366Y-87797391D01*
X269457938Y-87676439D01*
X269457938Y-87434534D01*
X269385366Y-87313581D01*
X269312795Y-87253105D01*
X269167652Y-87192629D01*
X244965065Y-106968359D02*
X244965065Y-105698359D01*
X245473065Y-106605502D01*
X245981065Y-105698359D01*
X245981065Y-106968359D01*
X246561636Y-105698359D02*
X247577636Y-106968359D01*
X247577636Y-105698359D02*
X246561636Y-106968359D01*
X248811350Y-106121693D02*
X248811350Y-106968359D01*
X248448493Y-105637883D02*
X248085636Y-106545026D01*
X249029065Y-106545026D01*
X250335350Y-105698359D02*
X249609636Y-105698359D01*
X249537065Y-106303121D01*
X249609636Y-106242645D01*
X249754779Y-106182169D01*
X250117636Y-106182169D01*
X250262779Y-106242645D01*
X250335350Y-106303121D01*
X250407922Y-106424074D01*
X250407922Y-106726455D01*
X250335350Y-106847407D01*
X250262779Y-106907883D01*
X250117636Y-106968359D01*
X249754779Y-106968359D01*
X249609636Y-106907883D01*
X249537065Y-106847407D01*
X111614953Y-106968359D02*
X111614953Y-105698359D01*
X112122953Y-106605502D01*
X112630953Y-105698359D01*
X112630953Y-106968359D01*
X113211524Y-105698359D02*
X114227524Y-106968359D01*
X114227524Y-105698359D02*
X113211524Y-106968359D01*
X114735524Y-105819312D02*
X114808096Y-105758836D01*
X114953238Y-105698359D01*
X115316096Y-105698359D01*
X115461238Y-105758836D01*
X115533810Y-105819312D01*
X115606381Y-105940264D01*
X115606381Y-106061216D01*
X115533810Y-106242645D01*
X114662953Y-106968359D01*
X115606381Y-106968359D01*
X116477238Y-106242645D02*
X116332096Y-106182169D01*
X116259524Y-106121693D01*
X116186953Y-106000740D01*
X116186953Y-105940264D01*
X116259524Y-105819312D01*
X116332096Y-105758836D01*
X116477238Y-105698359D01*
X116767524Y-105698359D01*
X116912667Y-105758836D01*
X116985238Y-105819312D01*
X117057810Y-105940264D01*
X117057810Y-106000740D01*
X116985238Y-106121693D01*
X116912667Y-106182169D01*
X116767524Y-106242645D01*
X116477238Y-106242645D01*
X116332096Y-106303121D01*
X116259524Y-106363597D01*
X116186953Y-106484550D01*
X116186953Y-106726455D01*
X116259524Y-106847407D01*
X116332096Y-106907883D01*
X116477238Y-106968359D01*
X116767524Y-106968359D01*
X116912667Y-106907883D01*
X116985238Y-106847407D01*
X117057810Y-106726455D01*
X117057810Y-106484550D01*
X116985238Y-106363597D01*
X116912667Y-106303121D01*
X116767524Y-106242645D01*
X283065097Y-106968359D02*
X283065097Y-105698359D01*
X283573097Y-106605502D01*
X284081097Y-105698359D01*
X284081097Y-106968359D01*
X284661668Y-105698359D02*
X285677668Y-106968359D01*
X285677668Y-105698359D02*
X284661668Y-106968359D01*
X286113097Y-105698359D02*
X287056525Y-105698359D01*
X286548525Y-106182169D01*
X286766240Y-106182169D01*
X286911382Y-106242645D01*
X286983954Y-106303121D01*
X287056525Y-106424074D01*
X287056525Y-106726455D01*
X286983954Y-106847407D01*
X286911382Y-106907883D01*
X286766240Y-106968359D01*
X286330811Y-106968359D01*
X286185668Y-106907883D01*
X286113097Y-106847407D01*
X287564525Y-105698359D02*
X288507954Y-105698359D01*
X287999954Y-106182169D01*
X288217668Y-106182169D01*
X288362811Y-106242645D01*
X288435382Y-106303121D01*
X288507954Y-106424074D01*
X288507954Y-106726455D01*
X288435382Y-106847407D01*
X288362811Y-106907883D01*
X288217668Y-106968359D01*
X287782240Y-106968359D01*
X287637097Y-106907883D01*
X287564525Y-106847407D01*
X264015081Y-106968359D02*
X264015081Y-105698359D01*
X264523081Y-106605502D01*
X265031081Y-105698359D01*
X265031081Y-106968359D01*
X265611652Y-105698359D02*
X266627652Y-106968359D01*
X266627652Y-105698359D02*
X265611652Y-106968359D01*
X267063081Y-105698359D02*
X268006509Y-105698359D01*
X267498509Y-106182169D01*
X267716224Y-106182169D01*
X267861366Y-106242645D01*
X267933938Y-106303121D01*
X268006509Y-106424074D01*
X268006509Y-106726455D01*
X267933938Y-106847407D01*
X267861366Y-106907883D01*
X267716224Y-106968359D01*
X267280795Y-106968359D01*
X267135652Y-106907883D01*
X267063081Y-106847407D01*
X268732224Y-106968359D02*
X269022509Y-106968359D01*
X269167652Y-106907883D01*
X269240224Y-106847407D01*
X269385366Y-106665978D01*
X269457938Y-106424074D01*
X269457938Y-105940264D01*
X269385366Y-105819312D01*
X269312795Y-105758836D01*
X269167652Y-105698359D01*
X268877366Y-105698359D01*
X268732224Y-105758836D01*
X268659652Y-105819312D01*
X268587081Y-105940264D01*
X268587081Y-106242645D01*
X268659652Y-106363597D01*
X268732224Y-106424074D01*
X268877366Y-106484550D01*
X269167652Y-106484550D01*
X269312795Y-106424074D01*
X269385366Y-106363597D01*
X269457938Y-106242645D01*
X283065097Y-126018375D02*
X283065097Y-124748375D01*
X283573097Y-125655518D01*
X284081097Y-124748375D01*
X284081097Y-126018375D01*
X284661668Y-124748375D02*
X285677668Y-126018375D01*
X285677668Y-124748375D02*
X284661668Y-126018375D01*
X286113097Y-124748375D02*
X287056525Y-124748375D01*
X286548525Y-125232185D01*
X286766240Y-125232185D01*
X286911382Y-125292661D01*
X286983954Y-125353137D01*
X287056525Y-125474090D01*
X287056525Y-125776471D01*
X286983954Y-125897423D01*
X286911382Y-125957899D01*
X286766240Y-126018375D01*
X286330811Y-126018375D01*
X286185668Y-125957899D01*
X286113097Y-125897423D01*
X288362811Y-125171709D02*
X288362811Y-126018375D01*
X287999954Y-124687899D02*
X287637097Y-125595042D01*
X288580525Y-125595042D01*
X264015081Y-126018375D02*
X264015081Y-124748375D01*
X264523081Y-125655518D01*
X265031081Y-124748375D01*
X265031081Y-126018375D01*
X265611652Y-124748375D02*
X266627652Y-126018375D01*
X266627652Y-124748375D02*
X265611652Y-126018375D01*
X267861366Y-125171709D02*
X267861366Y-126018375D01*
X267498509Y-124687899D02*
X267135652Y-125595042D01*
X268079081Y-125595042D01*
X268949938Y-124748375D02*
X269095081Y-124748375D01*
X269240224Y-124808852D01*
X269312795Y-124869328D01*
X269385366Y-124990280D01*
X269457938Y-125232185D01*
X269457938Y-125534566D01*
X269385366Y-125776471D01*
X269312795Y-125897423D01*
X269240224Y-125957899D01*
X269095081Y-126018375D01*
X268949938Y-126018375D01*
X268804795Y-125957899D01*
X268732224Y-125897423D01*
X268659652Y-125776471D01*
X268587081Y-125534566D01*
X268587081Y-125232185D01*
X268659652Y-124990280D01*
X268732224Y-124869328D01*
X268804795Y-124808852D01*
X268949938Y-124748375D01*
X225915049Y-106968359D02*
X225915049Y-105698359D01*
X226423049Y-106605502D01*
X226931049Y-105698359D01*
X226931049Y-106968359D01*
X227511620Y-105698359D02*
X228527620Y-106968359D01*
X228527620Y-105698359D02*
X227511620Y-106968359D01*
X229761334Y-106121693D02*
X229761334Y-106968359D01*
X229398477Y-105637883D02*
X229035620Y-106545026D01*
X229979049Y-106545026D01*
X231212763Y-105698359D02*
X230922477Y-105698359D01*
X230777334Y-105758836D01*
X230704763Y-105819312D01*
X230559620Y-106000740D01*
X230487049Y-106242645D01*
X230487049Y-106726455D01*
X230559620Y-106847407D01*
X230632192Y-106907883D01*
X230777334Y-106968359D01*
X231067620Y-106968359D01*
X231212763Y-106907883D01*
X231285334Y-106847407D01*
X231357906Y-106726455D01*
X231357906Y-106424074D01*
X231285334Y-106303121D01*
X231212763Y-106242645D01*
X231067620Y-106182169D01*
X230777334Y-106182169D01*
X230632192Y-106242645D01*
X230559620Y-106303121D01*
X230487049Y-106424074D01*
X206865033Y-106968359D02*
X206865033Y-105698359D01*
X207373033Y-106605502D01*
X207881033Y-105698359D01*
X207881033Y-106968359D01*
X208461604Y-105698359D02*
X209477604Y-106968359D01*
X209477604Y-105698359D02*
X208461604Y-106968359D01*
X210783890Y-105698359D02*
X210058176Y-105698359D01*
X209985604Y-106303121D01*
X210058176Y-106242645D01*
X210203318Y-106182169D01*
X210566176Y-106182169D01*
X210711318Y-106242645D01*
X210783890Y-106303121D01*
X210856461Y-106424074D01*
X210856461Y-106726455D01*
X210783890Y-106847407D01*
X210711318Y-106907883D01*
X210566176Y-106968359D01*
X210203318Y-106968359D01*
X210058176Y-106907883D01*
X209985604Y-106847407D01*
X211437033Y-105819312D02*
X211509604Y-105758836D01*
X211654747Y-105698359D01*
X212017604Y-105698359D01*
X212162747Y-105758836D01*
X212235318Y-105819312D01*
X212307890Y-105940264D01*
X212307890Y-106061216D01*
X212235318Y-106242645D01*
X211364461Y-106968359D01*
X212307890Y-106968359D01*
X283065097Y-145068391D02*
X283065097Y-143798391D01*
X283573097Y-144705534D01*
X284081097Y-143798391D01*
X284081097Y-145068391D01*
X284661668Y-143798391D02*
X285677668Y-145068391D01*
X285677668Y-143798391D02*
X284661668Y-145068391D01*
X286113097Y-143798391D02*
X287056525Y-143798391D01*
X286548525Y-144282201D01*
X286766240Y-144282201D01*
X286911382Y-144342677D01*
X286983954Y-144403153D01*
X287056525Y-144524106D01*
X287056525Y-144826487D01*
X286983954Y-144947439D01*
X286911382Y-145007915D01*
X286766240Y-145068391D01*
X286330811Y-145068391D01*
X286185668Y-145007915D01*
X286113097Y-144947439D01*
X288435382Y-143798391D02*
X287709668Y-143798391D01*
X287637097Y-144403153D01*
X287709668Y-144342677D01*
X287854811Y-144282201D01*
X288217668Y-144282201D01*
X288362811Y-144342677D01*
X288435382Y-144403153D01*
X288507954Y-144524106D01*
X288507954Y-144826487D01*
X288435382Y-144947439D01*
X288362811Y-145007915D01*
X288217668Y-145068391D01*
X287854811Y-145068391D01*
X287709668Y-145007915D01*
X287637097Y-144947439D01*
X244965065Y-126018375D02*
X244965065Y-124748375D01*
X245473065Y-125655518D01*
X245981065Y-124748375D01*
X245981065Y-126018375D01*
X246561636Y-124748375D02*
X247577636Y-126018375D01*
X247577636Y-124748375D02*
X246561636Y-126018375D01*
X248811350Y-125171709D02*
X248811350Y-126018375D01*
X248448493Y-124687899D02*
X248085636Y-125595042D01*
X249029065Y-125595042D01*
X250407922Y-126018375D02*
X249537065Y-126018375D01*
X249972493Y-126018375D02*
X249972493Y-124748375D01*
X249827350Y-124929804D01*
X249682208Y-125050756D01*
X249537065Y-125111232D01*
X206865033Y-126018375D02*
X206865033Y-124748375D01*
X207373033Y-125655518D01*
X207881033Y-124748375D01*
X207881033Y-126018375D01*
X208461604Y-124748375D02*
X209477604Y-126018375D01*
X209477604Y-124748375D02*
X208461604Y-126018375D01*
X210783890Y-124748375D02*
X210058176Y-124748375D01*
X209985604Y-125353137D01*
X210058176Y-125292661D01*
X210203318Y-125232185D01*
X210566176Y-125232185D01*
X210711318Y-125292661D01*
X210783890Y-125353137D01*
X210856461Y-125474090D01*
X210856461Y-125776471D01*
X210783890Y-125897423D01*
X210711318Y-125957899D01*
X210566176Y-126018375D01*
X210203318Y-126018375D01*
X210058176Y-125957899D01*
X209985604Y-125897423D01*
X211364461Y-124748375D02*
X212307890Y-124748375D01*
X211799890Y-125232185D01*
X212017604Y-125232185D01*
X212162747Y-125292661D01*
X212235318Y-125353137D01*
X212307890Y-125474090D01*
X212307890Y-125776471D01*
X212235318Y-125897423D01*
X212162747Y-125957899D01*
X212017604Y-126018375D01*
X211582176Y-126018375D01*
X211437033Y-125957899D01*
X211364461Y-125897423D01*
X264015081Y-145068391D02*
X264015081Y-143798391D01*
X264523081Y-144705534D01*
X265031081Y-143798391D01*
X265031081Y-145068391D01*
X265611652Y-143798391D02*
X266627652Y-145068391D01*
X266627652Y-143798391D02*
X265611652Y-145068391D01*
X267063081Y-143798391D02*
X268006509Y-143798391D01*
X267498509Y-144282201D01*
X267716224Y-144282201D01*
X267861366Y-144342677D01*
X267933938Y-144403153D01*
X268006509Y-144524106D01*
X268006509Y-144826487D01*
X267933938Y-144947439D01*
X267861366Y-145007915D01*
X267716224Y-145068391D01*
X267280795Y-145068391D01*
X267135652Y-145007915D01*
X267063081Y-144947439D01*
X269312795Y-143798391D02*
X269022509Y-143798391D01*
X268877366Y-143858868D01*
X268804795Y-143919344D01*
X268659652Y-144100772D01*
X268587081Y-144342677D01*
X268587081Y-144826487D01*
X268659652Y-144947439D01*
X268732224Y-145007915D01*
X268877366Y-145068391D01*
X269167652Y-145068391D01*
X269312795Y-145007915D01*
X269385366Y-144947439D01*
X269457938Y-144826487D01*
X269457938Y-144524106D01*
X269385366Y-144403153D01*
X269312795Y-144342677D01*
X269167652Y-144282201D01*
X268877366Y-144282201D01*
X268732224Y-144342677D01*
X268659652Y-144403153D01*
X268587081Y-144524106D01*
X244965065Y-145068391D02*
X244965065Y-143798391D01*
X245473065Y-144705534D01*
X245981065Y-143798391D01*
X245981065Y-145068391D01*
X246561636Y-143798391D02*
X247577636Y-145068391D01*
X247577636Y-143798391D02*
X246561636Y-145068391D01*
X248811350Y-144221725D02*
X248811350Y-145068391D01*
X248448493Y-143737915D02*
X248085636Y-144645058D01*
X249029065Y-144645058D01*
X249537065Y-143919344D02*
X249609636Y-143858868D01*
X249754779Y-143798391D01*
X250117636Y-143798391D01*
X250262779Y-143858868D01*
X250335350Y-143919344D01*
X250407922Y-144040296D01*
X250407922Y-144161248D01*
X250335350Y-144342677D01*
X249464493Y-145068391D01*
X250407922Y-145068391D01*
X225915049Y-145068391D02*
X225915049Y-143798391D01*
X226423049Y-144705534D01*
X226931049Y-143798391D01*
X226931049Y-145068391D01*
X227511620Y-143798391D02*
X228527620Y-145068391D01*
X228527620Y-143798391D02*
X227511620Y-145068391D01*
X229761334Y-144221725D02*
X229761334Y-145068391D01*
X229398477Y-143737915D02*
X229035620Y-144645058D01*
X229979049Y-144645058D01*
X230777334Y-144342677D02*
X230632192Y-144282201D01*
X230559620Y-144221725D01*
X230487049Y-144100772D01*
X230487049Y-144040296D01*
X230559620Y-143919344D01*
X230632192Y-143858868D01*
X230777334Y-143798391D01*
X231067620Y-143798391D01*
X231212763Y-143858868D01*
X231285334Y-143919344D01*
X231357906Y-144040296D01*
X231357906Y-144100772D01*
X231285334Y-144221725D01*
X231212763Y-144282201D01*
X231067620Y-144342677D01*
X230777334Y-144342677D01*
X230632192Y-144403153D01*
X230559620Y-144463629D01*
X230487049Y-144584582D01*
X230487049Y-144826487D01*
X230559620Y-144947439D01*
X230632192Y-145007915D01*
X230777334Y-145068391D01*
X231067620Y-145068391D01*
X231212763Y-145007915D01*
X231285334Y-144947439D01*
X231357906Y-144826487D01*
X231357906Y-144584582D01*
X231285334Y-144463629D01*
X231212763Y-144403153D01*
X231067620Y-144342677D01*
X206865033Y-145068391D02*
X206865033Y-143798391D01*
X207373033Y-144705534D01*
X207881033Y-143798391D01*
X207881033Y-145068391D01*
X208461604Y-143798391D02*
X209477604Y-145068391D01*
X209477604Y-143798391D02*
X208461604Y-145068391D01*
X210783890Y-143798391D02*
X210058176Y-143798391D01*
X209985604Y-144403153D01*
X210058176Y-144342677D01*
X210203318Y-144282201D01*
X210566176Y-144282201D01*
X210711318Y-144342677D01*
X210783890Y-144403153D01*
X210856461Y-144524106D01*
X210856461Y-144826487D01*
X210783890Y-144947439D01*
X210711318Y-145007915D01*
X210566176Y-145068391D01*
X210203318Y-145068391D01*
X210058176Y-145007915D01*
X209985604Y-144947439D01*
X212162747Y-144221725D02*
X212162747Y-145068391D01*
X211799890Y-143737915D02*
X211437033Y-144645058D01*
X212380461Y-144645058D01*
X111614953Y-68868327D02*
X111614953Y-67598327D01*
X112122953Y-68505470D01*
X112630953Y-67598327D01*
X112630953Y-68868327D01*
X113211524Y-67598327D02*
X114227524Y-68868327D01*
X114227524Y-67598327D02*
X113211524Y-68868327D01*
X114735524Y-67719280D02*
X114808096Y-67658804D01*
X114953238Y-67598327D01*
X115316096Y-67598327D01*
X115461238Y-67658804D01*
X115533810Y-67719280D01*
X115606381Y-67840232D01*
X115606381Y-67961184D01*
X115533810Y-68142613D01*
X114662953Y-68868327D01*
X115606381Y-68868327D01*
X116912667Y-67598327D02*
X116622381Y-67598327D01*
X116477238Y-67658804D01*
X116404667Y-67719280D01*
X116259524Y-67900708D01*
X116186953Y-68142613D01*
X116186953Y-68626423D01*
X116259524Y-68747375D01*
X116332096Y-68807851D01*
X116477238Y-68868327D01*
X116767524Y-68868327D01*
X116912667Y-68807851D01*
X116985238Y-68747375D01*
X117057810Y-68626423D01*
X117057810Y-68324042D01*
X116985238Y-68203089D01*
X116912667Y-68142613D01*
X116767524Y-68082137D01*
X116477238Y-68082137D01*
X116332096Y-68142613D01*
X116259524Y-68203089D01*
X116186953Y-68324042D01*
X111614953Y-87918343D02*
X111614953Y-86648343D01*
X112122953Y-87555486D01*
X112630953Y-86648343D01*
X112630953Y-87918343D01*
X113211524Y-86648343D02*
X114227524Y-87918343D01*
X114227524Y-86648343D02*
X113211524Y-87918343D01*
X114735524Y-86769296D02*
X114808096Y-86708820D01*
X114953238Y-86648343D01*
X115316096Y-86648343D01*
X115461238Y-86708820D01*
X115533810Y-86769296D01*
X115606381Y-86890248D01*
X115606381Y-87011200D01*
X115533810Y-87192629D01*
X114662953Y-87918343D01*
X115606381Y-87918343D01*
X116114381Y-86648343D02*
X117130381Y-86648343D01*
X116477238Y-87918343D01*
X73514921Y-87918343D02*
X73514921Y-86648343D01*
X74022921Y-87555486D01*
X74530921Y-86648343D01*
X74530921Y-87918343D01*
X75111492Y-86648343D02*
X76127492Y-87918343D01*
X76127492Y-86648343D02*
X75111492Y-87918343D01*
X76635492Y-86769296D02*
X76708064Y-86708820D01*
X76853206Y-86648343D01*
X77216064Y-86648343D01*
X77361206Y-86708820D01*
X77433778Y-86769296D01*
X77506349Y-86890248D01*
X77506349Y-87011200D01*
X77433778Y-87192629D01*
X76562921Y-87918343D01*
X77506349Y-87918343D01*
X78449778Y-86648343D02*
X78594921Y-86648343D01*
X78740064Y-86708820D01*
X78812635Y-86769296D01*
X78885206Y-86890248D01*
X78957778Y-87132153D01*
X78957778Y-87434534D01*
X78885206Y-87676439D01*
X78812635Y-87797391D01*
X78740064Y-87857867D01*
X78594921Y-87918343D01*
X78449778Y-87918343D01*
X78304635Y-87857867D01*
X78232064Y-87797391D01*
X78159492Y-87676439D01*
X78086921Y-87434534D01*
X78086921Y-87132153D01*
X78159492Y-86890248D01*
X78232064Y-86769296D01*
X78304635Y-86708820D01*
X78449778Y-86648343D01*
X92564937Y-145068391D02*
X92564937Y-143798391D01*
X93072937Y-144705534D01*
X93580937Y-143798391D01*
X93580937Y-145068391D01*
X94161508Y-143798391D02*
X95177508Y-145068391D01*
X95177508Y-143798391D02*
X94161508Y-145068391D01*
X95685508Y-143919344D02*
X95758080Y-143858868D01*
X95903222Y-143798391D01*
X96266080Y-143798391D01*
X96411222Y-143858868D01*
X96483794Y-143919344D01*
X96556365Y-144040296D01*
X96556365Y-144161248D01*
X96483794Y-144342677D01*
X95612937Y-145068391D01*
X96556365Y-145068391D01*
X97862651Y-144221725D02*
X97862651Y-145068391D01*
X97499794Y-143737915D02*
X97136937Y-144645058D01*
X98080365Y-144645058D01*
X54464905Y-145068391D02*
X54464905Y-143798391D01*
X54972905Y-144705534D01*
X55480905Y-143798391D01*
X55480905Y-145068391D01*
X56061476Y-143798391D02*
X57077476Y-145068391D01*
X57077476Y-143798391D02*
X56061476Y-145068391D01*
X58456333Y-145068391D02*
X57585476Y-145068391D01*
X58020905Y-145068391D02*
X58020905Y-143798391D01*
X57875762Y-143979820D01*
X57730619Y-144100772D01*
X57585476Y-144161248D01*
X59036905Y-143919344D02*
X59109476Y-143858868D01*
X59254619Y-143798391D01*
X59617476Y-143798391D01*
X59762619Y-143858868D01*
X59835190Y-143919344D01*
X59907762Y-144040296D01*
X59907762Y-144161248D01*
X59835190Y-144342677D01*
X58964333Y-145068391D01*
X59907762Y-145068391D01*
X17090587Y-87918343D02*
X17090587Y-86648343D01*
X17598587Y-87555486D01*
X18106587Y-86648343D01*
X18106587Y-87918343D01*
X18687158Y-86648343D02*
X19703158Y-87918343D01*
X19703158Y-86648343D02*
X18687158Y-87918343D01*
X20211158Y-86769296D02*
X20283730Y-86708820D01*
X20428873Y-86648343D01*
X20791730Y-86648343D01*
X20936873Y-86708820D01*
X21009444Y-86769296D01*
X21082016Y-86890248D01*
X21082016Y-87011200D01*
X21009444Y-87192629D01*
X20138587Y-87918343D01*
X21082016Y-87918343D01*
X17090539Y-68868273D02*
X17090539Y-67598273D01*
X17598539Y-68505416D01*
X18106539Y-67598273D01*
X18106539Y-68868273D01*
X18687110Y-67598273D02*
X19703110Y-68868273D01*
X19703110Y-67598273D02*
X18687110Y-68868273D01*
X21081968Y-68868273D02*
X20211110Y-68868273D01*
X20646539Y-68868273D02*
X20646539Y-67598273D01*
X20501396Y-67779702D01*
X20356253Y-67900654D01*
X20211110Y-67961130D01*
X36140603Y-60868327D02*
X36140603Y-59598327D01*
X36648603Y-60505470D01*
X37156603Y-59598327D01*
X37156603Y-60868327D01*
X37737174Y-59598327D02*
X38753174Y-60868327D01*
X38753174Y-59598327D02*
X37737174Y-60868327D01*
X39188603Y-59598327D02*
X40204603Y-59598327D01*
X39551460Y-60868327D01*
X54464905Y-68868327D02*
X54464905Y-67598327D01*
X54972905Y-68505470D01*
X55480905Y-67598327D01*
X55480905Y-68868327D01*
X56061476Y-67598327D02*
X57077476Y-68868327D01*
X57077476Y-67598327D02*
X56061476Y-68868327D01*
X58456333Y-68868327D02*
X57585476Y-68868327D01*
X58020905Y-68868327D02*
X58020905Y-67598327D01*
X57875762Y-67779756D01*
X57730619Y-67900708D01*
X57585476Y-67961184D01*
X58964333Y-67598327D02*
X59907762Y-67598327D01*
X59399762Y-68082137D01*
X59617476Y-68082137D01*
X59762619Y-68142613D01*
X59835190Y-68203089D01*
X59907762Y-68324042D01*
X59907762Y-68626423D01*
X59835190Y-68747375D01*
X59762619Y-68807851D01*
X59617476Y-68868327D01*
X59182048Y-68868327D01*
X59036905Y-68807851D01*
X58964333Y-68747375D01*
X73514921Y-68868327D02*
X73514921Y-67598327D01*
X74022921Y-68505470D01*
X74530921Y-67598327D01*
X74530921Y-68868327D01*
X75111492Y-67598327D02*
X76127492Y-68868327D01*
X76127492Y-67598327D02*
X75111492Y-68868327D01*
X77506349Y-68868327D02*
X76635492Y-68868327D01*
X77070921Y-68868327D02*
X77070921Y-67598327D01*
X76925778Y-67779756D01*
X76780635Y-67900708D01*
X76635492Y-67961184D01*
X78232064Y-68868327D02*
X78522349Y-68868327D01*
X78667492Y-68807851D01*
X78740064Y-68747375D01*
X78885206Y-68565946D01*
X78957778Y-68324042D01*
X78957778Y-67840232D01*
X78885206Y-67719280D01*
X78812635Y-67658804D01*
X78667492Y-67598327D01*
X78377206Y-67598327D01*
X78232064Y-67658804D01*
X78159492Y-67719280D01*
X78086921Y-67840232D01*
X78086921Y-68142613D01*
X78159492Y-68263565D01*
X78232064Y-68324042D01*
X78377206Y-68384518D01*
X78667492Y-68384518D01*
X78812635Y-68324042D01*
X78885206Y-68263565D01*
X78957778Y-68142613D01*
X92564937Y-68868327D02*
X92564937Y-67598327D01*
X93072937Y-68505470D01*
X93580937Y-67598327D01*
X93580937Y-68868327D01*
X94161508Y-67598327D02*
X95177508Y-68868327D01*
X95177508Y-67598327D02*
X94161508Y-68868327D01*
X95685508Y-67719280D02*
X95758080Y-67658804D01*
X95903222Y-67598327D01*
X96266080Y-67598327D01*
X96411222Y-67658804D01*
X96483794Y-67719280D01*
X96556365Y-67840232D01*
X96556365Y-67961184D01*
X96483794Y-68142613D01*
X95612937Y-68868327D01*
X96556365Y-68868327D01*
X97935222Y-67598327D02*
X97209508Y-67598327D01*
X97136937Y-68203089D01*
X97209508Y-68142613D01*
X97354651Y-68082137D01*
X97717508Y-68082137D01*
X97862651Y-68142613D01*
X97935222Y-68203089D01*
X98007794Y-68324042D01*
X98007794Y-68626423D01*
X97935222Y-68747375D01*
X97862651Y-68807851D01*
X97717508Y-68868327D01*
X97354651Y-68868327D01*
X97209508Y-68807851D01*
X97136937Y-68747375D01*
X283065097Y-68868327D02*
X283065097Y-67598327D01*
X283573097Y-68505470D01*
X284081097Y-67598327D01*
X284081097Y-68868327D01*
X284661668Y-67598327D02*
X285677668Y-68868327D01*
X285677668Y-67598327D02*
X284661668Y-68868327D01*
X286113097Y-67598327D02*
X287056525Y-67598327D01*
X286548525Y-68082137D01*
X286766240Y-68082137D01*
X286911382Y-68142613D01*
X286983954Y-68203089D01*
X287056525Y-68324042D01*
X287056525Y-68626423D01*
X286983954Y-68747375D01*
X286911382Y-68807851D01*
X286766240Y-68868327D01*
X286330811Y-68868327D01*
X286185668Y-68807851D01*
X286113097Y-68747375D01*
X288507954Y-68868327D02*
X287637097Y-68868327D01*
X288072525Y-68868327D02*
X288072525Y-67598327D01*
X287927382Y-67779756D01*
X287782240Y-67900708D01*
X287637097Y-67961184D01*
X264015081Y-68868327D02*
X264015081Y-67598327D01*
X264523081Y-68505470D01*
X265031081Y-67598327D01*
X265031081Y-68868327D01*
X265611652Y-67598327D02*
X266627652Y-68868327D01*
X266627652Y-67598327D02*
X265611652Y-68868327D01*
X267063081Y-67598327D02*
X268006509Y-67598327D01*
X267498509Y-68082137D01*
X267716224Y-68082137D01*
X267861366Y-68142613D01*
X267933938Y-68203089D01*
X268006509Y-68324042D01*
X268006509Y-68626423D01*
X267933938Y-68747375D01*
X267861366Y-68807851D01*
X267716224Y-68868327D01*
X267280795Y-68868327D01*
X267135652Y-68807851D01*
X267063081Y-68747375D01*
X268514509Y-67598327D02*
X269530509Y-67598327D01*
X268877366Y-68868327D01*
X225915049Y-68868327D02*
X225915049Y-67598327D01*
X226423049Y-68505470D01*
X226931049Y-67598327D01*
X226931049Y-68868327D01*
X227511620Y-67598327D02*
X228527620Y-68868327D01*
X228527620Y-67598327D02*
X227511620Y-68868327D01*
X229761334Y-68021661D02*
X229761334Y-68868327D01*
X229398477Y-67537851D02*
X229035620Y-68444994D01*
X229979049Y-68444994D01*
X230632192Y-68868327D02*
X230922477Y-68868327D01*
X231067620Y-68807851D01*
X231140192Y-68747375D01*
X231285334Y-68565946D01*
X231357906Y-68324042D01*
X231357906Y-67840232D01*
X231285334Y-67719280D01*
X231212763Y-67658804D01*
X231067620Y-67598327D01*
X230777334Y-67598327D01*
X230632192Y-67658804D01*
X230559620Y-67719280D01*
X230487049Y-67840232D01*
X230487049Y-68142613D01*
X230559620Y-68263565D01*
X230632192Y-68324042D01*
X230777334Y-68384518D01*
X231067620Y-68384518D01*
X231212763Y-68324042D01*
X231285334Y-68263565D01*
X231357906Y-68142613D01*
X36140603Y-87918343D02*
X36140603Y-86648343D01*
X36648603Y-87555486D01*
X37156603Y-86648343D01*
X37156603Y-87918343D01*
X37737174Y-86648343D02*
X38753174Y-87918343D01*
X38753174Y-86648343D02*
X37737174Y-87918343D01*
X39551460Y-87192629D02*
X39406317Y-87132153D01*
X39333746Y-87071677D01*
X39261174Y-86950724D01*
X39261174Y-86890248D01*
X39333746Y-86769296D01*
X39406317Y-86708820D01*
X39551460Y-86648343D01*
X39841746Y-86648343D01*
X39986889Y-86708820D01*
X40059460Y-86769296D01*
X40132032Y-86890248D01*
X40132032Y-86950724D01*
X40059460Y-87071677D01*
X39986889Y-87132153D01*
X39841746Y-87192629D01*
X39551460Y-87192629D01*
X39406317Y-87253105D01*
X39333746Y-87313581D01*
X39261174Y-87434534D01*
X39261174Y-87676439D01*
X39333746Y-87797391D01*
X39406317Y-87857867D01*
X39551460Y-87918343D01*
X39841746Y-87918343D01*
X39986889Y-87857867D01*
X40059460Y-87797391D01*
X40132032Y-87676439D01*
X40132032Y-87434534D01*
X40059460Y-87313581D01*
X39986889Y-87253105D01*
X39841746Y-87192629D01*
X54464905Y-87918343D02*
X54464905Y-86648343D01*
X54972905Y-87555486D01*
X55480905Y-86648343D01*
X55480905Y-87918343D01*
X56061476Y-86648343D02*
X57077476Y-87918343D01*
X57077476Y-86648343D02*
X56061476Y-87918343D01*
X58456333Y-87918343D02*
X57585476Y-87918343D01*
X58020905Y-87918343D02*
X58020905Y-86648343D01*
X57875762Y-86829772D01*
X57730619Y-86950724D01*
X57585476Y-87011200D01*
X59762619Y-87071677D02*
X59762619Y-87918343D01*
X59399762Y-86587867D02*
X59036905Y-87495010D01*
X59980333Y-87495010D01*
X225915049Y-87918343D02*
X225915049Y-86648343D01*
X226423049Y-87555486D01*
X226931049Y-86648343D01*
X226931049Y-87918343D01*
X227511620Y-86648343D02*
X228527620Y-87918343D01*
X228527620Y-86648343D02*
X227511620Y-87918343D01*
X229833906Y-86648343D02*
X229108192Y-86648343D01*
X229035620Y-87253105D01*
X229108192Y-87192629D01*
X229253334Y-87132153D01*
X229616192Y-87132153D01*
X229761334Y-87192629D01*
X229833906Y-87253105D01*
X229906477Y-87374058D01*
X229906477Y-87676439D01*
X229833906Y-87797391D01*
X229761334Y-87857867D01*
X229616192Y-87918343D01*
X229253334Y-87918343D01*
X229108192Y-87857867D01*
X229035620Y-87797391D01*
X230849906Y-86648343D02*
X230995049Y-86648343D01*
X231140192Y-86708820D01*
X231212763Y-86769296D01*
X231285334Y-86890248D01*
X231357906Y-87132153D01*
X231357906Y-87434534D01*
X231285334Y-87676439D01*
X231212763Y-87797391D01*
X231140192Y-87857867D01*
X230995049Y-87918343D01*
X230849906Y-87918343D01*
X230704763Y-87857867D01*
X230632192Y-87797391D01*
X230559620Y-87676439D01*
X230487049Y-87434534D01*
X230487049Y-87132153D01*
X230559620Y-86890248D01*
X230632192Y-86769296D01*
X230704763Y-86708820D01*
X230849906Y-86648343D01*
X17090587Y-106968359D02*
X17090587Y-105698359D01*
X17598587Y-106605502D01*
X18106587Y-105698359D01*
X18106587Y-106968359D01*
X18687158Y-105698359D02*
X19703158Y-106968359D01*
X19703158Y-105698359D02*
X18687158Y-106968359D01*
X20138587Y-105698359D02*
X21082016Y-105698359D01*
X20574016Y-106182169D01*
X20791730Y-106182169D01*
X20936873Y-106242645D01*
X21009444Y-106303121D01*
X21082016Y-106424074D01*
X21082016Y-106726455D01*
X21009444Y-106847407D01*
X20936873Y-106907883D01*
X20791730Y-106968359D01*
X20356301Y-106968359D01*
X20211158Y-106907883D01*
X20138587Y-106847407D01*
X36140603Y-106968359D02*
X36140603Y-105698359D01*
X36648603Y-106605502D01*
X37156603Y-105698359D01*
X37156603Y-106968359D01*
X37737174Y-105698359D02*
X38753174Y-106968359D01*
X38753174Y-105698359D02*
X37737174Y-106968359D01*
X39406317Y-106968359D02*
X39696603Y-106968359D01*
X39841746Y-106907883D01*
X39914317Y-106847407D01*
X40059460Y-106665978D01*
X40132032Y-106424074D01*
X40132032Y-105940264D01*
X40059460Y-105819312D01*
X39986889Y-105758836D01*
X39841746Y-105698359D01*
X39551460Y-105698359D01*
X39406317Y-105758836D01*
X39333746Y-105819312D01*
X39261174Y-105940264D01*
X39261174Y-106242645D01*
X39333746Y-106363597D01*
X39406317Y-106424074D01*
X39551460Y-106484550D01*
X39841746Y-106484550D01*
X39986889Y-106424074D01*
X40059460Y-106363597D01*
X40132032Y-106242645D01*
X54464905Y-106968359D02*
X54464905Y-105698359D01*
X54972905Y-106605502D01*
X55480905Y-105698359D01*
X55480905Y-106968359D01*
X56061476Y-105698359D02*
X57077476Y-106968359D01*
X57077476Y-105698359D02*
X56061476Y-106968359D01*
X58456333Y-106968359D02*
X57585476Y-106968359D01*
X58020905Y-106968359D02*
X58020905Y-105698359D01*
X57875762Y-105879788D01*
X57730619Y-106000740D01*
X57585476Y-106061216D01*
X59835190Y-105698359D02*
X59109476Y-105698359D01*
X59036905Y-106303121D01*
X59109476Y-106242645D01*
X59254619Y-106182169D01*
X59617476Y-106182169D01*
X59762619Y-106242645D01*
X59835190Y-106303121D01*
X59907762Y-106424074D01*
X59907762Y-106726455D01*
X59835190Y-106847407D01*
X59762619Y-106907883D01*
X59617476Y-106968359D01*
X59254619Y-106968359D01*
X59109476Y-106907883D01*
X59036905Y-106847407D01*
X92564937Y-87918343D02*
X92564937Y-86648343D01*
X93072937Y-87555486D01*
X93580937Y-86648343D01*
X93580937Y-87918343D01*
X94161508Y-86648343D02*
X95177508Y-87918343D01*
X95177508Y-86648343D02*
X94161508Y-87918343D01*
X95685508Y-86769296D02*
X95758080Y-86708820D01*
X95903222Y-86648343D01*
X96266080Y-86648343D01*
X96411222Y-86708820D01*
X96483794Y-86769296D01*
X96556365Y-86890248D01*
X96556365Y-87011200D01*
X96483794Y-87192629D01*
X95612937Y-87918343D01*
X96556365Y-87918343D01*
X98007794Y-87918343D02*
X97136937Y-87918343D01*
X97572365Y-87918343D02*
X97572365Y-86648343D01*
X97427222Y-86829772D01*
X97282080Y-86950724D01*
X97136937Y-87011200D01*
X206865033Y-87918343D02*
X206865033Y-86648343D01*
X207373033Y-87555486D01*
X207881033Y-86648343D01*
X207881033Y-87918343D01*
X208461604Y-86648343D02*
X209477604Y-87918343D01*
X209477604Y-86648343D02*
X208461604Y-87918343D01*
X210783890Y-86648343D02*
X210058176Y-86648343D01*
X209985604Y-87253105D01*
X210058176Y-87192629D01*
X210203318Y-87132153D01*
X210566176Y-87132153D01*
X210711318Y-87192629D01*
X210783890Y-87253105D01*
X210856461Y-87374058D01*
X210856461Y-87676439D01*
X210783890Y-87797391D01*
X210711318Y-87857867D01*
X210566176Y-87918343D01*
X210203318Y-87918343D01*
X210058176Y-87857867D01*
X209985604Y-87797391D01*
X212307890Y-87918343D02*
X211437033Y-87918343D01*
X211872461Y-87918343D02*
X211872461Y-86648343D01*
X211727318Y-86829772D01*
X211582176Y-86950724D01*
X211437033Y-87011200D01*
X17090587Y-126018375D02*
X17090587Y-124748375D01*
X17598587Y-125655518D01*
X18106587Y-124748375D01*
X18106587Y-126018375D01*
X18687158Y-124748375D02*
X19703158Y-126018375D01*
X19703158Y-124748375D02*
X18687158Y-126018375D01*
X20936873Y-125171709D02*
X20936873Y-126018375D01*
X20574016Y-124687899D02*
X20211158Y-125595042D01*
X21154587Y-125595042D01*
X35414889Y-126018375D02*
X35414889Y-124748375D01*
X35922889Y-125655518D01*
X36430889Y-124748375D01*
X36430889Y-126018375D01*
X37011460Y-124748375D02*
X38027460Y-126018375D01*
X38027460Y-124748375D02*
X37011460Y-126018375D01*
X39406317Y-126018375D02*
X38535460Y-126018375D01*
X38970889Y-126018375D02*
X38970889Y-124748375D01*
X38825746Y-124929804D01*
X38680603Y-125050756D01*
X38535460Y-125111232D01*
X40349746Y-124748375D02*
X40494889Y-124748375D01*
X40640032Y-124808852D01*
X40712603Y-124869328D01*
X40785174Y-124990280D01*
X40857746Y-125232185D01*
X40857746Y-125534566D01*
X40785174Y-125776471D01*
X40712603Y-125897423D01*
X40640032Y-125957899D01*
X40494889Y-126018375D01*
X40349746Y-126018375D01*
X40204603Y-125957899D01*
X40132032Y-125897423D01*
X40059460Y-125776471D01*
X39986889Y-125534566D01*
X39986889Y-125232185D01*
X40059460Y-124990280D01*
X40132032Y-124869328D01*
X40204603Y-124808852D01*
X40349746Y-124748375D01*
X73514921Y-106968359D02*
X73514921Y-105698359D01*
X74022921Y-106605502D01*
X74530921Y-105698359D01*
X74530921Y-106968359D01*
X75111492Y-105698359D02*
X76127492Y-106968359D01*
X76127492Y-105698359D02*
X75111492Y-106968359D01*
X77506349Y-106968359D02*
X76635492Y-106968359D01*
X77070921Y-106968359D02*
X77070921Y-105698359D01*
X76925778Y-105879788D01*
X76780635Y-106000740D01*
X76635492Y-106061216D01*
X78812635Y-105698359D02*
X78522349Y-105698359D01*
X78377206Y-105758836D01*
X78304635Y-105819312D01*
X78159492Y-106000740D01*
X78086921Y-106242645D01*
X78086921Y-106726455D01*
X78159492Y-106847407D01*
X78232064Y-106907883D01*
X78377206Y-106968359D01*
X78667492Y-106968359D01*
X78812635Y-106907883D01*
X78885206Y-106847407D01*
X78957778Y-106726455D01*
X78957778Y-106424074D01*
X78885206Y-106303121D01*
X78812635Y-106242645D01*
X78667492Y-106182169D01*
X78377206Y-106182169D01*
X78232064Y-106242645D01*
X78159492Y-106303121D01*
X78086921Y-106424074D01*
X92564937Y-106968359D02*
X92564937Y-105698359D01*
X93072937Y-106605502D01*
X93580937Y-105698359D01*
X93580937Y-106968359D01*
X94161508Y-105698359D02*
X95177508Y-106968359D01*
X95177508Y-105698359D02*
X94161508Y-106968359D01*
X95685508Y-105819312D02*
X95758080Y-105758836D01*
X95903222Y-105698359D01*
X96266080Y-105698359D01*
X96411222Y-105758836D01*
X96483794Y-105819312D01*
X96556365Y-105940264D01*
X96556365Y-106061216D01*
X96483794Y-106242645D01*
X95612937Y-106968359D01*
X96556365Y-106968359D01*
X97136937Y-105819312D02*
X97209508Y-105758836D01*
X97354651Y-105698359D01*
X97717508Y-105698359D01*
X97862651Y-105758836D01*
X97935222Y-105819312D01*
X98007794Y-105940264D01*
X98007794Y-106061216D01*
X97935222Y-106242645D01*
X97064365Y-106968359D01*
X98007794Y-106968359D01*
X17090587Y-145068391D02*
X17090587Y-143798391D01*
X17598587Y-144705534D01*
X18106587Y-143798391D01*
X18106587Y-145068391D01*
X18687158Y-143798391D02*
X19703158Y-145068391D01*
X19703158Y-143798391D02*
X18687158Y-145068391D01*
X21009444Y-143798391D02*
X20283730Y-143798391D01*
X20211158Y-144403153D01*
X20283730Y-144342677D01*
X20428873Y-144282201D01*
X20791730Y-144282201D01*
X20936873Y-144342677D01*
X21009444Y-144403153D01*
X21082016Y-144524106D01*
X21082016Y-144826487D01*
X21009444Y-144947439D01*
X20936873Y-145007915D01*
X20791730Y-145068391D01*
X20428873Y-145068391D01*
X20283730Y-145007915D01*
X20211158Y-144947439D01*
X54464905Y-126018375D02*
X54464905Y-124748375D01*
X54972905Y-125655518D01*
X55480905Y-124748375D01*
X55480905Y-126018375D01*
X56061476Y-124748375D02*
X57077476Y-126018375D01*
X57077476Y-124748375D02*
X56061476Y-126018375D01*
X58456333Y-126018375D02*
X57585476Y-126018375D01*
X58020905Y-126018375D02*
X58020905Y-124748375D01*
X57875762Y-124929804D01*
X57730619Y-125050756D01*
X57585476Y-125111232D01*
X59907762Y-126018375D02*
X59036905Y-126018375D01*
X59472333Y-126018375D02*
X59472333Y-124748375D01*
X59327190Y-124929804D01*
X59182048Y-125050756D01*
X59036905Y-125111232D01*
X73514921Y-126018375D02*
X73514921Y-124748375D01*
X74022921Y-125655518D01*
X74530921Y-124748375D01*
X74530921Y-126018375D01*
X75111492Y-124748375D02*
X76127492Y-126018375D01*
X76127492Y-124748375D02*
X75111492Y-126018375D01*
X77506349Y-126018375D02*
X76635492Y-126018375D01*
X77070921Y-126018375D02*
X77070921Y-124748375D01*
X76925778Y-124929804D01*
X76780635Y-125050756D01*
X76635492Y-125111232D01*
X78014349Y-124748375D02*
X79030349Y-124748375D01*
X78377206Y-126018375D01*
X92564937Y-126018375D02*
X92564937Y-124748375D01*
X93072937Y-125655518D01*
X93580937Y-124748375D01*
X93580937Y-126018375D01*
X94161508Y-124748375D02*
X95177508Y-126018375D01*
X95177508Y-124748375D02*
X94161508Y-126018375D01*
X95685508Y-124869328D02*
X95758080Y-124808852D01*
X95903222Y-124748375D01*
X96266080Y-124748375D01*
X96411222Y-124808852D01*
X96483794Y-124869328D01*
X96556365Y-124990280D01*
X96556365Y-125111232D01*
X96483794Y-125292661D01*
X95612937Y-126018375D01*
X96556365Y-126018375D01*
X97064365Y-124748375D02*
X98007794Y-124748375D01*
X97499794Y-125232185D01*
X97717508Y-125232185D01*
X97862651Y-125292661D01*
X97935222Y-125353137D01*
X98007794Y-125474090D01*
X98007794Y-125776471D01*
X97935222Y-125897423D01*
X97862651Y-125957899D01*
X97717508Y-126018375D01*
X97282080Y-126018375D01*
X97136937Y-125957899D01*
X97064365Y-125897423D01*
X36140603Y-145068391D02*
X36140603Y-143798391D01*
X36648603Y-144705534D01*
X37156603Y-143798391D01*
X37156603Y-145068391D01*
X37737174Y-143798391D02*
X38753174Y-145068391D01*
X38753174Y-143798391D02*
X37737174Y-145068391D01*
X39986889Y-143798391D02*
X39696603Y-143798391D01*
X39551460Y-143858868D01*
X39478889Y-143919344D01*
X39333746Y-144100772D01*
X39261174Y-144342677D01*
X39261174Y-144826487D01*
X39333746Y-144947439D01*
X39406317Y-145007915D01*
X39551460Y-145068391D01*
X39841746Y-145068391D01*
X39986889Y-145007915D01*
X40059460Y-144947439D01*
X40132032Y-144826487D01*
X40132032Y-144524106D01*
X40059460Y-144403153D01*
X39986889Y-144342677D01*
X39841746Y-144282201D01*
X39551460Y-144282201D01*
X39406317Y-144342677D01*
X39333746Y-144403153D01*
X39261174Y-144524106D01*
X73514921Y-145068391D02*
X73514921Y-143798391D01*
X74022921Y-144705534D01*
X74530921Y-143798391D01*
X74530921Y-145068391D01*
X75111492Y-143798391D02*
X76127492Y-145068391D01*
X76127492Y-143798391D02*
X75111492Y-145068391D01*
X77506349Y-145068391D02*
X76635492Y-145068391D01*
X77070921Y-145068391D02*
X77070921Y-143798391D01*
X76925778Y-143979820D01*
X76780635Y-144100772D01*
X76635492Y-144161248D01*
X78377206Y-144342677D02*
X78232064Y-144282201D01*
X78159492Y-144221725D01*
X78086921Y-144100772D01*
X78086921Y-144040296D01*
X78159492Y-143919344D01*
X78232064Y-143858868D01*
X78377206Y-143798391D01*
X78667492Y-143798391D01*
X78812635Y-143858868D01*
X78885206Y-143919344D01*
X78957778Y-144040296D01*
X78957778Y-144100772D01*
X78885206Y-144221725D01*
X78812635Y-144282201D01*
X78667492Y-144342677D01*
X78377206Y-144342677D01*
X78232064Y-144403153D01*
X78159492Y-144463629D01*
X78086921Y-144584582D01*
X78086921Y-144826487D01*
X78159492Y-144947439D01*
X78232064Y-145007915D01*
X78377206Y-145068391D01*
X78667492Y-145068391D01*
X78812635Y-145007915D01*
X78885206Y-144947439D01*
X78957778Y-144826487D01*
X78957778Y-144584582D01*
X78885206Y-144463629D01*
X78812635Y-144403153D01*
X78667492Y-144342677D01*
D12*
X144422888Y-127563648D02*
X144470507Y-127611267D01*
X144518126Y-127754124D01*
X144518126Y-127849362D01*
X144470507Y-127992220D01*
X144375269Y-128087458D01*
X144280031Y-128135077D01*
X144089555Y-128182696D01*
X143946698Y-128182696D01*
X143756222Y-128135077D01*
X143660984Y-128087458D01*
X143565746Y-127992220D01*
X143518126Y-127849362D01*
X143518126Y-127754124D01*
X143565746Y-127611267D01*
X143613365Y-127563648D01*
X143518126Y-127230315D02*
X143518126Y-126611267D01*
X143899079Y-126944601D01*
X143899079Y-126801743D01*
X143946698Y-126706505D01*
X143994317Y-126658886D01*
X144089555Y-126611267D01*
X144327650Y-126611267D01*
X144422888Y-126658886D01*
X144470507Y-126706505D01*
X144518126Y-126801743D01*
X144518126Y-127087458D01*
X144470507Y-127182696D01*
X144422888Y-127230315D01*
X162282278Y-125182396D02*
X162329897Y-125230015D01*
X162377516Y-125372872D01*
X162377516Y-125468110D01*
X162329897Y-125610968D01*
X162234659Y-125706206D01*
X162139421Y-125753825D01*
X161948945Y-125801444D01*
X161806088Y-125801444D01*
X161615612Y-125753825D01*
X161520374Y-125706206D01*
X161425136Y-125610968D01*
X161377516Y-125468110D01*
X161377516Y-125372872D01*
X161425136Y-125230015D01*
X161472755Y-125182396D01*
X161710850Y-124325253D02*
X162377516Y-124325253D01*
X161329897Y-124563349D02*
X162044183Y-124801444D01*
X162044183Y-124182396D01*
X156148645Y-125377634D02*
X155691503Y-125377634D01*
X155920074Y-125377634D02*
X155920074Y-124577634D01*
X155843884Y-124691920D01*
X155767693Y-124768110D01*
X155691503Y-124806206D01*
X156643884Y-124577634D02*
X156720074Y-124577634D01*
X156796264Y-124615730D01*
X156834360Y-124653825D01*
X156872455Y-124730015D01*
X156910550Y-124882396D01*
X156910550Y-125072872D01*
X156872455Y-125225253D01*
X156834360Y-125301444D01*
X156796264Y-125339539D01*
X156720074Y-125377634D01*
X156643884Y-125377634D01*
X156567693Y-125339539D01*
X156529598Y-125301444D01*
X156491503Y-125225253D01*
X156453407Y-125072872D01*
X156453407Y-124882396D01*
X156491503Y-124730015D01*
X156529598Y-124653825D01*
X156567693Y-124615730D01*
X156643884Y-124577634D01*
X157405788Y-124577634D02*
X157481979Y-124577634D01*
X157558169Y-124615730D01*
X157596264Y-124653825D01*
X157634360Y-124730015D01*
X157672455Y-124882396D01*
X157672455Y-125072872D01*
X157634360Y-125225253D01*
X157596264Y-125301444D01*
X157558169Y-125339539D01*
X157481979Y-125377634D01*
X157405788Y-125377634D01*
X157329598Y-125339539D01*
X157291503Y-125301444D01*
X157253407Y-125225253D01*
X157215312Y-125072872D01*
X157215312Y-124882396D01*
X157253407Y-124730015D01*
X157291503Y-124653825D01*
X157329598Y-124615730D01*
X157405788Y-124577634D01*
X158015312Y-124844301D02*
X158015312Y-125377634D01*
X158015312Y-124920491D02*
X158053407Y-124882396D01*
X158129598Y-124844301D01*
X158243884Y-124844301D01*
X158320074Y-124882396D01*
X158358169Y-124958587D01*
X158358169Y-125377634D01*
X162282278Y-128158961D02*
X162329897Y-128206580D01*
X162377516Y-128349437D01*
X162377516Y-128444675D01*
X162329897Y-128587533D01*
X162234659Y-128682771D01*
X162139421Y-128730390D01*
X161948945Y-128778009D01*
X161806088Y-128778009D01*
X161615612Y-128730390D01*
X161520374Y-128682771D01*
X161425136Y-128587533D01*
X161377516Y-128444675D01*
X161377516Y-128349437D01*
X161425136Y-128206580D01*
X161472755Y-128158961D01*
X161377516Y-127254199D02*
X161377516Y-127730390D01*
X161853707Y-127778009D01*
X161806088Y-127730390D01*
X161758469Y-127635152D01*
X161758469Y-127397056D01*
X161806088Y-127301818D01*
X161853707Y-127254199D01*
X161948945Y-127206580D01*
X162187040Y-127206580D01*
X162282278Y-127254199D01*
X162329897Y-127301818D01*
X162377516Y-127397056D01*
X162377516Y-127635152D01*
X162329897Y-127730390D01*
X162282278Y-127778009D01*
X156267393Y-128354199D02*
X155810251Y-128354199D01*
X156038822Y-128354199D02*
X156038822Y-127554199D01*
X155962632Y-127668485D01*
X155886441Y-127744675D01*
X155810251Y-127782771D01*
X156762632Y-127554199D02*
X156838822Y-127554199D01*
X156915012Y-127592295D01*
X156953108Y-127630390D01*
X156991203Y-127706580D01*
X157029298Y-127858961D01*
X157029298Y-128049437D01*
X156991203Y-128201818D01*
X156953108Y-128278009D01*
X156915012Y-128316104D01*
X156838822Y-128354199D01*
X156762632Y-128354199D01*
X156686441Y-128316104D01*
X156648346Y-128278009D01*
X156610251Y-128201818D01*
X156572155Y-128049437D01*
X156572155Y-127858961D01*
X156610251Y-127706580D01*
X156648346Y-127630390D01*
X156686441Y-127592295D01*
X156762632Y-127554199D01*
X157524536Y-127554199D02*
X157600727Y-127554199D01*
X157676917Y-127592295D01*
X157715012Y-127630390D01*
X157753108Y-127706580D01*
X157791203Y-127858961D01*
X157791203Y-128049437D01*
X157753108Y-128201818D01*
X157715012Y-128278009D01*
X157676917Y-128316104D01*
X157600727Y-128354199D01*
X157524536Y-128354199D01*
X157448346Y-128316104D01*
X157410251Y-128278009D01*
X157372155Y-128201818D01*
X157334060Y-128049437D01*
X157334060Y-127858961D01*
X157372155Y-127706580D01*
X157410251Y-127630390D01*
X157448346Y-127592295D01*
X157524536Y-127554199D01*
X158134060Y-127820866D02*
X158134060Y-128354199D01*
X158134060Y-127897056D02*
X158172155Y-127858961D01*
X158248346Y-127820866D01*
X158362632Y-127820866D01*
X158438822Y-127858961D01*
X158476917Y-127935152D01*
X158476917Y-128354199D01*
X142636949Y-95476120D02*
X142684568Y-95523739D01*
X142732187Y-95666596D01*
X142732187Y-95761834D01*
X142684568Y-95904692D01*
X142589330Y-95999930D01*
X142494092Y-96047549D01*
X142303616Y-96095168D01*
X142160759Y-96095168D01*
X141970283Y-96047549D01*
X141875045Y-95999930D01*
X141779807Y-95904692D01*
X141732187Y-95761834D01*
X141732187Y-95666596D01*
X141779807Y-95523739D01*
X141827426Y-95476120D01*
X142732187Y-94523739D02*
X142732187Y-95095168D01*
X142732187Y-94809454D02*
X141732187Y-94809454D01*
X141875045Y-94904692D01*
X141970283Y-94999930D01*
X142017902Y-95095168D01*
X142636949Y-90118303D02*
X142684568Y-90165922D01*
X142732187Y-90308779D01*
X142732187Y-90404017D01*
X142684568Y-90546875D01*
X142589330Y-90642113D01*
X142494092Y-90689732D01*
X142303616Y-90737351D01*
X142160759Y-90737351D01*
X141970283Y-90689732D01*
X141875045Y-90642113D01*
X141779807Y-90546875D01*
X141732187Y-90404017D01*
X141732187Y-90308779D01*
X141779807Y-90165922D01*
X141827426Y-90118303D01*
X141827426Y-89737351D02*
X141779807Y-89689732D01*
X141732187Y-89594494D01*
X141732187Y-89356398D01*
X141779807Y-89261160D01*
X141827426Y-89213541D01*
X141922664Y-89165922D01*
X142017902Y-89165922D01*
X142160759Y-89213541D01*
X142732187Y-89784970D01*
X142732187Y-89165922D01*
X161853707Y-113442803D02*
X161853707Y-113776136D01*
X162377516Y-113776136D02*
X161377516Y-113776136D01*
X161377516Y-113299946D01*
X162377516Y-112395184D02*
X162377516Y-112966612D01*
X162377516Y-112680898D02*
X161377516Y-112680898D01*
X161520374Y-112776136D01*
X161615612Y-112871374D01*
X161663231Y-112966612D01*
X141454370Y-81970588D02*
X142168656Y-81970588D01*
X142311513Y-82018207D01*
X142406751Y-82113445D01*
X142454370Y-82256302D01*
X142454370Y-82351540D01*
X141549609Y-81542016D02*
X141501990Y-81494397D01*
X141454370Y-81399159D01*
X141454370Y-81161064D01*
X141501990Y-81065826D01*
X141549609Y-81018207D01*
X141644847Y-80970588D01*
X141740085Y-80970588D01*
X141882942Y-81018207D01*
X142454370Y-81589635D01*
X142454370Y-80970588D01*
X162972829Y-64817538D02*
X162972829Y-65293729D01*
X161972829Y-65293729D01*
X162449020Y-64484205D02*
X162449020Y-64150871D01*
X162972829Y-64008014D02*
X162972829Y-64484205D01*
X161972829Y-64484205D01*
X161972829Y-64008014D01*
X162972829Y-63579443D02*
X161972829Y-63579443D01*
X161972829Y-63341348D01*
X162020449Y-63198491D01*
X162115687Y-63103252D01*
X162210925Y-63055633D01*
X162401401Y-63008014D01*
X162544258Y-63008014D01*
X162734734Y-63055633D01*
X162829972Y-63103252D01*
X162925210Y-63198491D01*
X162972829Y-63341348D01*
X162972829Y-63579443D01*
X162068068Y-62627062D02*
X162020449Y-62579443D01*
X161972829Y-62484205D01*
X161972829Y-62246110D01*
X162020449Y-62150871D01*
X162068068Y-62103252D01*
X162163306Y-62055633D01*
X162258544Y-62055633D01*
X162401401Y-62103252D01*
X162972829Y-62674681D01*
X162972829Y-62055633D01*
X162377516Y-118038640D02*
X161901326Y-118371974D01*
X162377516Y-118610069D02*
X161377516Y-118610069D01*
X161377516Y-118229116D01*
X161425136Y-118133878D01*
X161472755Y-118086259D01*
X161567993Y-118038640D01*
X161710850Y-118038640D01*
X161806088Y-118086259D01*
X161853707Y-118133878D01*
X161901326Y-118229116D01*
X161901326Y-118610069D01*
X162377516Y-117086259D02*
X162377516Y-117657688D01*
X162377516Y-117371974D02*
X161377516Y-117371974D01*
X161520374Y-117467212D01*
X161615612Y-117562450D01*
X161663231Y-117657688D01*
X156337217Y-118233878D02*
X155880074Y-118233878D01*
X156108645Y-118233878D02*
X156108645Y-117433878D01*
X156032455Y-117548164D01*
X155956264Y-117624354D01*
X155880074Y-117662450D01*
X156680074Y-118157688D02*
X156718169Y-118195783D01*
X156680074Y-118233878D01*
X156641979Y-118195783D01*
X156680074Y-118157688D01*
X156680074Y-118233878D01*
X157441979Y-117433878D02*
X157061026Y-117433878D01*
X157022931Y-117814831D01*
X157061026Y-117776735D01*
X157137217Y-117738640D01*
X157327693Y-117738640D01*
X157403884Y-117776735D01*
X157441979Y-117814831D01*
X157480074Y-117891021D01*
X157480074Y-118081497D01*
X157441979Y-118157688D01*
X157403884Y-118195783D01*
X157327693Y-118233878D01*
X157137217Y-118233878D01*
X157061026Y-118195783D01*
X157022931Y-118157688D01*
X157822931Y-118233878D02*
X157822931Y-117433878D01*
X157899122Y-117929116D02*
X158127693Y-118233878D01*
X158127693Y-117700545D02*
X157822931Y-118005307D01*
X162377516Y-109108945D02*
X161901326Y-109442279D01*
X162377516Y-109680374D02*
X161377516Y-109680374D01*
X161377516Y-109299421D01*
X161425136Y-109204183D01*
X161472755Y-109156564D01*
X161567993Y-109108945D01*
X161710850Y-109108945D01*
X161806088Y-109156564D01*
X161853707Y-109204183D01*
X161901326Y-109299421D01*
X161901326Y-109680374D01*
X161472755Y-108727993D02*
X161425136Y-108680374D01*
X161377516Y-108585136D01*
X161377516Y-108347040D01*
X161425136Y-108251802D01*
X161472755Y-108204183D01*
X161567993Y-108156564D01*
X161663231Y-108156564D01*
X161806088Y-108204183D01*
X162377516Y-108775612D01*
X162377516Y-108156564D01*
X156551577Y-108504183D02*
X157084911Y-108504183D01*
X156742054Y-109304183D01*
X157770625Y-108504183D02*
X157389673Y-108504183D01*
X157351577Y-108885136D01*
X157389673Y-108847040D01*
X157465863Y-108808945D01*
X157656339Y-108808945D01*
X157732530Y-108847040D01*
X157770625Y-108885136D01*
X157808720Y-108961326D01*
X157808720Y-109151802D01*
X157770625Y-109227993D01*
X157732530Y-109266088D01*
X157656339Y-109304183D01*
X157465863Y-109304183D01*
X157389673Y-109266088D01*
X157351577Y-109227993D01*
X158608720Y-109304183D02*
X158342054Y-108923231D01*
X158151577Y-109304183D02*
X158151577Y-108504183D01*
X158456339Y-108504183D01*
X158532530Y-108542279D01*
X158570625Y-108580374D01*
X158608720Y-108656564D01*
X158608720Y-108770850D01*
X158570625Y-108847040D01*
X158532530Y-108885136D01*
X158456339Y-108923231D01*
X158151577Y-108923231D01*
X162377516Y-106727693D02*
X161901326Y-107061027D01*
X162377516Y-107299122D02*
X161377516Y-107299122D01*
X161377516Y-106918169D01*
X161425136Y-106822931D01*
X161472755Y-106775312D01*
X161567993Y-106727693D01*
X161710850Y-106727693D01*
X161806088Y-106775312D01*
X161853707Y-106822931D01*
X161901326Y-106918169D01*
X161901326Y-107299122D01*
X161377516Y-106394360D02*
X161377516Y-105775312D01*
X161758469Y-106108646D01*
X161758469Y-105965788D01*
X161806088Y-105870550D01*
X161853707Y-105822931D01*
X161948945Y-105775312D01*
X162187040Y-105775312D01*
X162282278Y-105822931D01*
X162329897Y-105870550D01*
X162377516Y-105965788D01*
X162377516Y-106251503D01*
X162329897Y-106346741D01*
X162282278Y-106394360D01*
X156551577Y-106122931D02*
X157084911Y-106122931D01*
X156742054Y-106922931D01*
X157770625Y-106122931D02*
X157389673Y-106122931D01*
X157351577Y-106503884D01*
X157389673Y-106465788D01*
X157465863Y-106427693D01*
X157656339Y-106427693D01*
X157732530Y-106465788D01*
X157770625Y-106503884D01*
X157808720Y-106580074D01*
X157808720Y-106770550D01*
X157770625Y-106846741D01*
X157732530Y-106884836D01*
X157656339Y-106922931D01*
X157465863Y-106922931D01*
X157389673Y-106884836D01*
X157351577Y-106846741D01*
X158608720Y-106922931D02*
X158342054Y-106541979D01*
X158151577Y-106922931D02*
X158151577Y-106122931D01*
X158456339Y-106122931D01*
X158532530Y-106161027D01*
X158570625Y-106199122D01*
X158608720Y-106275312D01*
X158608720Y-106389598D01*
X158570625Y-106465788D01*
X158532530Y-106503884D01*
X158456339Y-106541979D01*
X158151577Y-106541979D01*
X162377516Y-120419892D02*
X161901326Y-120753226D01*
X162377516Y-120991321D02*
X161377516Y-120991321D01*
X161377516Y-120610368D01*
X161425136Y-120515130D01*
X161472755Y-120467511D01*
X161567993Y-120419892D01*
X161710850Y-120419892D01*
X161806088Y-120467511D01*
X161853707Y-120515130D01*
X161901326Y-120610368D01*
X161901326Y-120991321D01*
X161710850Y-119562749D02*
X162377516Y-119562749D01*
X161329897Y-119800845D02*
X162044183Y-120038940D01*
X162044183Y-119419892D01*
X156686441Y-120615130D02*
X156229298Y-120615130D01*
X156457870Y-120615130D02*
X156457870Y-119815130D01*
X156381679Y-119929416D01*
X156305489Y-120005606D01*
X156229298Y-120043702D01*
X157181679Y-119815130D02*
X157257870Y-119815130D01*
X157334060Y-119853226D01*
X157372155Y-119891321D01*
X157410251Y-119967511D01*
X157448346Y-120119892D01*
X157448346Y-120310368D01*
X157410251Y-120462749D01*
X157372155Y-120538940D01*
X157334060Y-120577035D01*
X157257870Y-120615130D01*
X157181679Y-120615130D01*
X157105489Y-120577035D01*
X157067393Y-120538940D01*
X157029298Y-120462749D01*
X156991203Y-120310368D01*
X156991203Y-120119892D01*
X157029298Y-119967511D01*
X157067393Y-119891321D01*
X157105489Y-119853226D01*
X157181679Y-119815130D01*
X157791203Y-120615130D02*
X157791203Y-119815130D01*
X157867393Y-120310368D02*
X158095965Y-120615130D01*
X158095965Y-120081797D02*
X157791203Y-120386559D01*
X164163455Y-58507340D02*
X163687265Y-58840674D01*
X164163455Y-59078769D02*
X163163455Y-59078769D01*
X163163455Y-58697816D01*
X163211075Y-58602578D01*
X163258694Y-58554959D01*
X163353932Y-58507340D01*
X163496789Y-58507340D01*
X163592027Y-58554959D01*
X163639646Y-58602578D01*
X163687265Y-58697816D01*
X163687265Y-59078769D01*
X163592027Y-57935912D02*
X163544408Y-58031150D01*
X163496789Y-58078769D01*
X163401551Y-58126388D01*
X163353932Y-58126388D01*
X163258694Y-58078769D01*
X163211075Y-58031150D01*
X163163455Y-57935912D01*
X163163455Y-57745435D01*
X163211075Y-57650197D01*
X163258694Y-57602578D01*
X163353932Y-57554959D01*
X163401551Y-57554959D01*
X163496789Y-57602578D01*
X163544408Y-57650197D01*
X163592027Y-57745435D01*
X163592027Y-57935912D01*
X163639646Y-58031150D01*
X163687265Y-58078769D01*
X163782503Y-58126388D01*
X163972979Y-58126388D01*
X164068217Y-58078769D01*
X164115836Y-58031150D01*
X164163455Y-57935912D01*
X164163455Y-57745435D01*
X164115836Y-57650197D01*
X164068217Y-57602578D01*
X163972979Y-57554959D01*
X163782503Y-57554959D01*
X163687265Y-57602578D01*
X163639646Y-57650197D01*
X163592027Y-57745435D01*
X158440652Y-58702578D02*
X157983509Y-58702578D01*
X158212080Y-58702578D02*
X158212080Y-57902578D01*
X158135890Y-58016864D01*
X158059699Y-58093054D01*
X157983509Y-58131150D01*
X158783509Y-58626388D02*
X158821604Y-58664483D01*
X158783509Y-58702578D01*
X158745414Y-58664483D01*
X158783509Y-58626388D01*
X158783509Y-58702578D01*
X159545414Y-57902578D02*
X159164461Y-57902578D01*
X159126366Y-58283531D01*
X159164461Y-58245435D01*
X159240652Y-58207340D01*
X159431128Y-58207340D01*
X159507319Y-58245435D01*
X159545414Y-58283531D01*
X159583509Y-58359721D01*
X159583509Y-58550197D01*
X159545414Y-58626388D01*
X159507319Y-58664483D01*
X159431128Y-58702578D01*
X159240652Y-58702578D01*
X159164461Y-58664483D01*
X159126366Y-58626388D01*
X159926366Y-58702578D02*
X159926366Y-57902578D01*
X160002557Y-58397816D02*
X160231128Y-58702578D01*
X160231128Y-58169245D02*
X159926366Y-58474007D01*
X142470507Y-73688084D02*
X142518126Y-73545227D01*
X142518126Y-73307131D01*
X142470507Y-73211893D01*
X142422888Y-73164274D01*
X142327650Y-73116655D01*
X142232412Y-73116655D01*
X142137174Y-73164274D01*
X142089555Y-73211893D01*
X142041936Y-73307131D01*
X141994317Y-73497608D01*
X141946698Y-73592846D01*
X141899079Y-73640465D01*
X141803841Y-73688084D01*
X141708603Y-73688084D01*
X141613365Y-73640465D01*
X141565746Y-73592846D01*
X141518126Y-73497608D01*
X141518126Y-73259512D01*
X141565746Y-73116655D01*
X141518126Y-72783322D02*
X142518126Y-72545227D01*
X141803841Y-72354751D01*
X142518126Y-72164274D01*
X141518126Y-71926179D01*
X142518126Y-71021417D02*
X142518126Y-71592846D01*
X142518126Y-71307131D02*
X141518126Y-71307131D01*
X141660984Y-71402370D01*
X141756222Y-71497608D01*
X141803841Y-71592846D01*
X151066569Y-74080566D02*
X150590379Y-74413900D01*
X151066569Y-74651995D02*
X150066569Y-74651995D01*
X150066569Y-74271043D01*
X150114189Y-74175805D01*
X150161808Y-74128186D01*
X150257046Y-74080566D01*
X150399903Y-74080566D01*
X150495141Y-74128186D01*
X150542760Y-74175805D01*
X150590379Y-74271043D01*
X150590379Y-74651995D01*
X150542760Y-73651995D02*
X150542760Y-73318662D01*
X151066569Y-73175805D02*
X151066569Y-73651995D01*
X150066569Y-73651995D01*
X150066569Y-73175805D01*
X151018950Y-72794852D02*
X151066569Y-72651995D01*
X151066569Y-72413900D01*
X151018950Y-72318662D01*
X150971331Y-72271043D01*
X150876093Y-72223424D01*
X150780855Y-72223424D01*
X150685617Y-72271043D01*
X150637998Y-72318662D01*
X150590379Y-72413900D01*
X150542760Y-72604376D01*
X150495141Y-72699614D01*
X150447522Y-72747233D01*
X150352284Y-72794852D01*
X150257046Y-72794852D01*
X150161808Y-72747233D01*
X150114189Y-72699614D01*
X150066569Y-72604376D01*
X150066569Y-72366281D01*
X150114189Y-72223424D01*
X150542760Y-71794852D02*
X150542760Y-71461519D01*
X151066569Y-71318662D02*
X151066569Y-71794852D01*
X150066569Y-71794852D01*
X150066569Y-71318662D01*
X150066569Y-71032947D02*
X150066569Y-70461519D01*
X151066569Y-70747233D02*
X150066569Y-70747233D01*
X142470507Y-105239673D02*
X142518126Y-105096816D01*
X142518126Y-104858720D01*
X142470507Y-104763482D01*
X142422888Y-104715863D01*
X142327650Y-104668244D01*
X142232412Y-104668244D01*
X142137174Y-104715863D01*
X142089555Y-104763482D01*
X142041936Y-104858720D01*
X141994317Y-105049197D01*
X141946698Y-105144435D01*
X141899079Y-105192054D01*
X141803841Y-105239673D01*
X141708603Y-105239673D01*
X141613365Y-105192054D01*
X141565746Y-105144435D01*
X141518126Y-105049197D01*
X141518126Y-104811101D01*
X141565746Y-104668244D01*
X141518126Y-104334911D02*
X142518126Y-104096816D01*
X141803841Y-103906340D01*
X142518126Y-103715863D01*
X141518126Y-103477768D01*
X141613365Y-103144435D02*
X141565746Y-103096816D01*
X141518126Y-103001578D01*
X141518126Y-102763482D01*
X141565746Y-102668244D01*
X141613365Y-102620625D01*
X141708603Y-102573006D01*
X141803841Y-102573006D01*
X141946698Y-102620625D01*
X142518126Y-103192054D01*
X142518126Y-102573006D01*
X150542760Y-105536917D02*
X150590379Y-105394060D01*
X150637998Y-105346441D01*
X150733236Y-105298822D01*
X150876093Y-105298822D01*
X150971331Y-105346441D01*
X151018950Y-105394060D01*
X151066569Y-105489298D01*
X151066569Y-105870251D01*
X150066569Y-105870251D01*
X150066569Y-105536917D01*
X150114189Y-105441679D01*
X150161808Y-105394060D01*
X150257046Y-105346441D01*
X150352284Y-105346441D01*
X150447522Y-105394060D01*
X150495141Y-105441679D01*
X150542760Y-105536917D01*
X150542760Y-105870251D01*
X150066569Y-104679775D02*
X150066569Y-104489298D01*
X150114189Y-104394060D01*
X150209427Y-104298822D01*
X150399903Y-104251203D01*
X150733236Y-104251203D01*
X150923712Y-104298822D01*
X151018950Y-104394060D01*
X151066569Y-104489298D01*
X151066569Y-104679775D01*
X151018950Y-104775013D01*
X150923712Y-104870251D01*
X150733236Y-104917870D01*
X150399903Y-104917870D01*
X150209427Y-104870251D01*
X150114189Y-104775013D01*
X150066569Y-104679775D01*
X150066569Y-103632155D02*
X150066569Y-103441679D01*
X150114189Y-103346441D01*
X150209427Y-103251203D01*
X150399903Y-103203584D01*
X150733236Y-103203584D01*
X150923712Y-103251203D01*
X151018950Y-103346441D01*
X151066569Y-103441679D01*
X151066569Y-103632155D01*
X151018950Y-103727394D01*
X150923712Y-103822632D01*
X150733236Y-103870251D01*
X150399903Y-103870251D01*
X150209427Y-103822632D01*
X150114189Y-103727394D01*
X150066569Y-103632155D01*
X150066569Y-102917870D02*
X150066569Y-102346441D01*
X151066569Y-102632155D02*
X150066569Y-102632155D01*
X148352059Y-85701262D02*
X148352059Y-86177452D01*
X148018726Y-85177452D02*
X148352059Y-85701262D01*
X148685392Y-85177452D01*
X149542535Y-86177452D02*
X148971107Y-86177452D01*
X149256821Y-86177452D02*
X149256821Y-85177452D01*
X149161583Y-85320310D01*
X149066345Y-85415548D01*
X148971107Y-85463167D01*
X151257195Y-78747907D02*
X152066719Y-78747907D01*
X152161957Y-78700288D01*
X152209576Y-78652669D01*
X152257195Y-78557431D01*
X152257195Y-78366955D01*
X152209576Y-78271717D01*
X152161957Y-78224098D01*
X152066719Y-78176479D01*
X151257195Y-78176479D01*
X152257195Y-77176479D02*
X152257195Y-77747907D01*
X152257195Y-77462193D02*
X151257195Y-77462193D01*
X151400053Y-77557431D01*
X151495291Y-77652669D01*
X151542910Y-77747907D01*
X148090004Y-113133129D02*
X147090004Y-113133129D01*
X147090004Y-112895034D01*
X147137624Y-112752177D01*
X147232862Y-112656939D01*
X147328100Y-112609320D01*
X147518576Y-112561701D01*
X147661433Y-112561701D01*
X147851909Y-112609320D01*
X147947147Y-112656939D01*
X148042385Y-112752177D01*
X148090004Y-112895034D01*
X148090004Y-113133129D01*
X147090004Y-111704558D02*
X147090004Y-111895034D01*
X147137624Y-111990272D01*
X147185243Y-112037891D01*
X147328100Y-112133129D01*
X147518576Y-112180748D01*
X147899528Y-112180748D01*
X147994766Y-112133129D01*
X148042385Y-112085510D01*
X148090004Y-111990272D01*
X148090004Y-111799796D01*
X148042385Y-111704558D01*
X147994766Y-111656939D01*
X147899528Y-111609320D01*
X147661433Y-111609320D01*
X147566195Y-111656939D01*
X147518576Y-111704558D01*
X147470957Y-111799796D01*
X147470957Y-111990272D01*
X147518576Y-112085510D01*
X147566195Y-112133129D01*
X147661433Y-112180748D01*
X147090004Y-110752177D02*
X147090004Y-110942653D01*
X147137624Y-111037891D01*
X147185243Y-111085510D01*
X147328100Y-111180748D01*
X147518576Y-111228367D01*
X147899528Y-111228367D01*
X147994766Y-111180748D01*
X148042385Y-111133129D01*
X148090004Y-111037891D01*
X148090004Y-110847415D01*
X148042385Y-110752177D01*
X147994766Y-110704558D01*
X147899528Y-110656939D01*
X147661433Y-110656939D01*
X147566195Y-110704558D01*
X147518576Y-110752177D01*
X147470957Y-110847415D01*
X147470957Y-111037891D01*
X147518576Y-111133129D01*
X147566195Y-111180748D01*
X147661433Y-111228367D01*
X147199528Y-120243552D02*
X147199528Y-119748314D01*
X147504290Y-120014980D01*
X147504290Y-119900695D01*
X147542385Y-119824504D01*
X147580481Y-119786409D01*
X147656671Y-119748314D01*
X147847147Y-119748314D01*
X147923338Y-119786409D01*
X147961433Y-119824504D01*
X147999528Y-119900695D01*
X147999528Y-120129266D01*
X147961433Y-120205457D01*
X147923338Y-120243552D01*
X147923338Y-119405457D02*
X147961433Y-119367361D01*
X147999528Y-119405457D01*
X147961433Y-119443552D01*
X147923338Y-119405457D01*
X147999528Y-119405457D01*
X147199528Y-118681647D02*
X147199528Y-118834028D01*
X147237624Y-118910219D01*
X147275719Y-118948314D01*
X147390004Y-119024504D01*
X147542385Y-119062600D01*
X147847147Y-119062600D01*
X147923338Y-119024504D01*
X147961433Y-118986409D01*
X147999528Y-118910219D01*
X147999528Y-118757838D01*
X147961433Y-118681647D01*
X147923338Y-118643552D01*
X147847147Y-118605457D01*
X147656671Y-118605457D01*
X147580481Y-118643552D01*
X147542385Y-118681647D01*
X147504290Y-118757838D01*
X147504290Y-118910219D01*
X147542385Y-118986409D01*
X147580481Y-119024504D01*
X147656671Y-119062600D01*
X147199528Y-118376885D02*
X147999528Y-118110219D01*
X147199528Y-117843552D01*
X145113439Y-113133129D02*
X144113439Y-113133129D01*
X144113439Y-112895034D01*
X144161059Y-112752177D01*
X144256297Y-112656939D01*
X144351535Y-112609320D01*
X144542011Y-112561701D01*
X144684868Y-112561701D01*
X144875344Y-112609320D01*
X144970582Y-112656939D01*
X145065820Y-112752177D01*
X145113439Y-112895034D01*
X145113439Y-113133129D01*
X144113439Y-111704558D02*
X144113439Y-111895034D01*
X144161059Y-111990272D01*
X144208678Y-112037891D01*
X144351535Y-112133129D01*
X144542011Y-112180748D01*
X144922963Y-112180748D01*
X145018201Y-112133129D01*
X145065820Y-112085510D01*
X145113439Y-111990272D01*
X145113439Y-111799796D01*
X145065820Y-111704558D01*
X145018201Y-111656939D01*
X144922963Y-111609320D01*
X144684868Y-111609320D01*
X144589630Y-111656939D01*
X144542011Y-111704558D01*
X144494392Y-111799796D01*
X144494392Y-111990272D01*
X144542011Y-112085510D01*
X144589630Y-112133129D01*
X144684868Y-112180748D01*
X144113439Y-111275986D02*
X144113439Y-110609320D01*
X145113439Y-111037891D01*
X144222963Y-120243552D02*
X144222963Y-119748314D01*
X144527725Y-120014980D01*
X144527725Y-119900695D01*
X144565820Y-119824504D01*
X144603916Y-119786409D01*
X144680106Y-119748314D01*
X144870582Y-119748314D01*
X144946773Y-119786409D01*
X144984868Y-119824504D01*
X145022963Y-119900695D01*
X145022963Y-120129266D01*
X144984868Y-120205457D01*
X144946773Y-120243552D01*
X144946773Y-119405457D02*
X144984868Y-119367361D01*
X145022963Y-119405457D01*
X144984868Y-119443552D01*
X144946773Y-119405457D01*
X145022963Y-119405457D01*
X144222963Y-118681647D02*
X144222963Y-118834028D01*
X144261059Y-118910219D01*
X144299154Y-118948314D01*
X144413439Y-119024504D01*
X144565820Y-119062600D01*
X144870582Y-119062600D01*
X144946773Y-119024504D01*
X144984868Y-118986409D01*
X145022963Y-118910219D01*
X145022963Y-118757838D01*
X144984868Y-118681647D01*
X144946773Y-118643552D01*
X144870582Y-118605457D01*
X144680106Y-118605457D01*
X144603916Y-118643552D01*
X144565820Y-118681647D01*
X144527725Y-118757838D01*
X144527725Y-118910219D01*
X144565820Y-118986409D01*
X144603916Y-119024504D01*
X144680106Y-119062600D01*
X144222963Y-118376885D02*
X145022963Y-118110219D01*
X144222963Y-117843552D01*
X126063573Y-65341497D02*
X126063573Y-64341497D01*
X126301669Y-64341497D01*
X126444526Y-64389117D01*
X126539764Y-64484355D01*
X126587383Y-64579593D01*
X126635002Y-64770069D01*
X126635002Y-64912926D01*
X126587383Y-65103402D01*
X126539764Y-65198640D01*
X126444526Y-65293878D01*
X126301669Y-65341497D01*
X126063573Y-65341497D01*
X127587383Y-65341497D02*
X127015954Y-65341497D01*
X127301669Y-65341497D02*
X127301669Y-64341497D01*
X127206430Y-64484355D01*
X127111192Y-64579593D01*
X127015954Y-64627212D01*
X136183894Y-68318062D02*
X136183894Y-67318062D01*
X136421990Y-67318062D01*
X136564847Y-67365682D01*
X136660085Y-67460920D01*
X136707704Y-67556158D01*
X136755323Y-67746634D01*
X136755323Y-67889491D01*
X136707704Y-68079967D01*
X136660085Y-68175205D01*
X136564847Y-68270443D01*
X136421990Y-68318062D01*
X136183894Y-68318062D01*
X137088656Y-67318062D02*
X137755323Y-67318062D01*
X137326751Y-68318062D01*
X125587383Y-71294627D02*
X125587383Y-70294627D01*
X125825478Y-70294627D01*
X125968335Y-70342247D01*
X126063573Y-70437485D01*
X126111192Y-70532723D01*
X126158811Y-70723199D01*
X126158811Y-70866056D01*
X126111192Y-71056532D01*
X126063573Y-71151770D01*
X125968335Y-71247008D01*
X125825478Y-71294627D01*
X125587383Y-71294627D01*
X127111192Y-71294627D02*
X126539764Y-71294627D01*
X126825478Y-71294627D02*
X126825478Y-70294627D01*
X126730240Y-70437485D01*
X126635002Y-70532723D01*
X126539764Y-70580342D01*
X127444526Y-70294627D02*
X128063573Y-70294627D01*
X127730240Y-70675580D01*
X127873097Y-70675580D01*
X127968335Y-70723199D01*
X128015954Y-70770818D01*
X128063573Y-70866056D01*
X128063573Y-71104151D01*
X128015954Y-71199389D01*
X127968335Y-71247008D01*
X127873097Y-71294627D01*
X127587383Y-71294627D01*
X127492145Y-71247008D01*
X127444526Y-71199389D01*
X125587383Y-77247757D02*
X125587383Y-76247757D01*
X125825478Y-76247757D01*
X125968335Y-76295377D01*
X126063573Y-76390615D01*
X126111192Y-76485853D01*
X126158811Y-76676329D01*
X126158811Y-76819186D01*
X126111192Y-77009662D01*
X126063573Y-77104900D01*
X125968335Y-77200138D01*
X125825478Y-77247757D01*
X125587383Y-77247757D01*
X126539764Y-76342996D02*
X126587383Y-76295377D01*
X126682621Y-76247757D01*
X126920716Y-76247757D01*
X127015954Y-76295377D01*
X127063573Y-76342996D01*
X127111192Y-76438234D01*
X127111192Y-76533472D01*
X127063573Y-76676329D01*
X126492145Y-77247757D01*
X127111192Y-77247757D01*
X128015954Y-76247757D02*
X127539764Y-76247757D01*
X127492145Y-76723948D01*
X127539764Y-76676329D01*
X127635002Y-76628710D01*
X127873097Y-76628710D01*
X127968335Y-76676329D01*
X128015954Y-76723948D01*
X128063573Y-76819186D01*
X128063573Y-77057281D01*
X128015954Y-77152519D01*
X127968335Y-77200138D01*
X127873097Y-77247757D01*
X127635002Y-77247757D01*
X127539764Y-77200138D01*
X127492145Y-77152519D01*
X177379614Y-65341497D02*
X177379614Y-64341497D01*
X177617709Y-64341497D01*
X177760566Y-64389117D01*
X177855804Y-64484355D01*
X177903423Y-64579593D01*
X177951042Y-64770069D01*
X177951042Y-64912926D01*
X177903423Y-65103402D01*
X177855804Y-65198640D01*
X177760566Y-65293878D01*
X177617709Y-65341497D01*
X177379614Y-65341497D01*
X178284376Y-64341497D02*
X178903423Y-64341497D01*
X178570090Y-64722450D01*
X178712947Y-64722450D01*
X178808185Y-64770069D01*
X178855804Y-64817688D01*
X178903423Y-64912926D01*
X178903423Y-65151021D01*
X178855804Y-65246259D01*
X178808185Y-65293878D01*
X178712947Y-65341497D01*
X178427233Y-65341497D01*
X178331995Y-65293878D01*
X178284376Y-65246259D01*
X179855804Y-65341497D02*
X179284376Y-65341497D01*
X179570090Y-65341497D02*
X179570090Y-64341497D01*
X179474852Y-64484355D01*
X179379614Y-64579593D01*
X179284376Y-64627212D01*
X177379614Y-71294627D02*
X177379614Y-70294627D01*
X177617709Y-70294627D01*
X177760566Y-70342247D01*
X177855804Y-70437485D01*
X177903423Y-70532723D01*
X177951042Y-70723199D01*
X177951042Y-70866056D01*
X177903423Y-71056532D01*
X177855804Y-71151770D01*
X177760566Y-71247008D01*
X177617709Y-71294627D01*
X177379614Y-71294627D01*
X178808185Y-70627961D02*
X178808185Y-71294627D01*
X178570090Y-70247008D02*
X178331995Y-70961294D01*
X178951042Y-70961294D01*
X179236757Y-70294627D02*
X179855804Y-70294627D01*
X179522471Y-70675580D01*
X179665328Y-70675580D01*
X179760566Y-70723199D01*
X179808185Y-70770818D01*
X179855804Y-70866056D01*
X179855804Y-71104151D01*
X179808185Y-71199389D01*
X179760566Y-71247008D01*
X179665328Y-71294627D01*
X179379614Y-71294627D01*
X179284376Y-71247008D01*
X179236757Y-71199389D01*
X166068667Y-74271192D02*
X166068667Y-73271192D01*
X166306762Y-73271192D01*
X166449619Y-73318812D01*
X166544857Y-73414050D01*
X166592476Y-73509288D01*
X166640095Y-73699764D01*
X166640095Y-73842621D01*
X166592476Y-74033097D01*
X166544857Y-74128335D01*
X166449619Y-74223573D01*
X166306762Y-74271192D01*
X166068667Y-74271192D01*
X167497238Y-73604526D02*
X167497238Y-74271192D01*
X167259143Y-73223573D02*
X167021048Y-73937859D01*
X167640095Y-73937859D01*
X168068667Y-74271192D02*
X168259143Y-74271192D01*
X168354381Y-74223573D01*
X168402000Y-74175954D01*
X168497238Y-74033097D01*
X168544857Y-73842621D01*
X168544857Y-73461669D01*
X168497238Y-73366431D01*
X168449619Y-73318812D01*
X168354381Y-73271192D01*
X168163905Y-73271192D01*
X168068667Y-73318812D01*
X168021048Y-73366431D01*
X167973429Y-73461669D01*
X167973429Y-73699764D01*
X168021048Y-73795002D01*
X168068667Y-73842621D01*
X168163905Y-73890240D01*
X168354381Y-73890240D01*
X168449619Y-73842621D01*
X168497238Y-73795002D01*
X168544857Y-73699764D01*
X126063573Y-83200887D02*
X126063573Y-82200887D01*
X126301669Y-82200887D01*
X126444526Y-82248507D01*
X126539764Y-82343745D01*
X126587383Y-82438983D01*
X126635002Y-82629459D01*
X126635002Y-82772316D01*
X126587383Y-82962792D01*
X126539764Y-83058030D01*
X126444526Y-83153268D01*
X126301669Y-83200887D01*
X126063573Y-83200887D01*
X127015954Y-82296126D02*
X127063573Y-82248507D01*
X127158811Y-82200887D01*
X127396907Y-82200887D01*
X127492145Y-82248507D01*
X127539764Y-82296126D01*
X127587383Y-82391364D01*
X127587383Y-82486602D01*
X127539764Y-82629459D01*
X126968335Y-83200887D01*
X127587383Y-83200887D01*
X136183894Y-86177452D02*
X136183894Y-85177452D01*
X136421990Y-85177452D01*
X136564847Y-85225072D01*
X136660085Y-85320310D01*
X136707704Y-85415548D01*
X136755323Y-85606024D01*
X136755323Y-85748881D01*
X136707704Y-85939357D01*
X136660085Y-86034595D01*
X136564847Y-86129833D01*
X136421990Y-86177452D01*
X136183894Y-86177452D01*
X137326751Y-85606024D02*
X137231513Y-85558405D01*
X137183894Y-85510786D01*
X137136275Y-85415548D01*
X137136275Y-85367929D01*
X137183894Y-85272691D01*
X137231513Y-85225072D01*
X137326751Y-85177452D01*
X137517228Y-85177452D01*
X137612466Y-85225072D01*
X137660085Y-85272691D01*
X137707704Y-85367929D01*
X137707704Y-85415548D01*
X137660085Y-85510786D01*
X137612466Y-85558405D01*
X137517228Y-85606024D01*
X137326751Y-85606024D01*
X137231513Y-85653643D01*
X137183894Y-85701262D01*
X137136275Y-85796500D01*
X137136275Y-85986976D01*
X137183894Y-86082214D01*
X137231513Y-86129833D01*
X137326751Y-86177452D01*
X137517228Y-86177452D01*
X137612466Y-86129833D01*
X137660085Y-86082214D01*
X137707704Y-85986976D01*
X137707704Y-85796500D01*
X137660085Y-85701262D01*
X137612466Y-85653643D01*
X137517228Y-85606024D01*
X124992070Y-89154017D02*
X124992070Y-88154017D01*
X125230165Y-88154017D01*
X125373022Y-88201637D01*
X125468260Y-88296875D01*
X125515879Y-88392113D01*
X125563498Y-88582589D01*
X125563498Y-88725446D01*
X125515879Y-88915922D01*
X125468260Y-89011160D01*
X125373022Y-89106398D01*
X125230165Y-89154017D01*
X124992070Y-89154017D01*
X126515879Y-89154017D02*
X125944451Y-89154017D01*
X126230165Y-89154017D02*
X126230165Y-88154017D01*
X126134927Y-88296875D01*
X126039689Y-88392113D01*
X125944451Y-88439732D01*
X127373022Y-88487351D02*
X127373022Y-89154017D01*
X127134927Y-88106398D02*
X126896832Y-88820684D01*
X127515879Y-88820684D01*
X136303017Y-92130582D02*
X136303017Y-91130582D01*
X136541112Y-91130582D01*
X136683969Y-91178202D01*
X136779207Y-91273440D01*
X136826826Y-91368678D01*
X136874445Y-91559154D01*
X136874445Y-91702011D01*
X136826826Y-91892487D01*
X136779207Y-91987725D01*
X136683969Y-92082963D01*
X136541112Y-92130582D01*
X136303017Y-92130582D01*
X137255398Y-91225821D02*
X137303017Y-91178202D01*
X137398255Y-91130582D01*
X137636350Y-91130582D01*
X137731588Y-91178202D01*
X137779207Y-91225821D01*
X137826826Y-91321059D01*
X137826826Y-91416297D01*
X137779207Y-91559154D01*
X137207779Y-92130582D01*
X137826826Y-92130582D01*
X138445874Y-91130582D02*
X138541112Y-91130582D01*
X138636350Y-91178202D01*
X138683969Y-91225821D01*
X138731588Y-91321059D01*
X138779207Y-91511535D01*
X138779207Y-91749630D01*
X138731588Y-91940106D01*
X138683969Y-92035344D01*
X138636350Y-92082963D01*
X138541112Y-92130582D01*
X138445874Y-92130582D01*
X138350636Y-92082963D01*
X138303017Y-92035344D01*
X138255398Y-91940106D01*
X138207779Y-91749630D01*
X138207779Y-91511535D01*
X138255398Y-91321059D01*
X138303017Y-91225821D01*
X138350636Y-91178202D01*
X138445874Y-91130582D01*
X136303017Y-80224322D02*
X136303017Y-79224322D01*
X136541112Y-79224322D01*
X136683969Y-79271942D01*
X136779207Y-79367180D01*
X136826826Y-79462418D01*
X136874445Y-79652894D01*
X136874445Y-79795751D01*
X136826826Y-79986227D01*
X136779207Y-80081465D01*
X136683969Y-80176703D01*
X136541112Y-80224322D01*
X136303017Y-80224322D01*
X137255398Y-79319561D02*
X137303017Y-79271942D01*
X137398255Y-79224322D01*
X137636350Y-79224322D01*
X137731588Y-79271942D01*
X137779207Y-79319561D01*
X137826826Y-79414799D01*
X137826826Y-79510037D01*
X137779207Y-79652894D01*
X137207779Y-80224322D01*
X137826826Y-80224322D01*
X138683969Y-79224322D02*
X138493493Y-79224322D01*
X138398255Y-79271942D01*
X138350636Y-79319561D01*
X138255398Y-79462418D01*
X138207779Y-79652894D01*
X138207779Y-80033846D01*
X138255398Y-80129084D01*
X138303017Y-80176703D01*
X138398255Y-80224322D01*
X138588731Y-80224322D01*
X138683969Y-80176703D01*
X138731588Y-80129084D01*
X138779207Y-80033846D01*
X138779207Y-79795751D01*
X138731588Y-79700513D01*
X138683969Y-79652894D01*
X138588731Y-79605275D01*
X138398255Y-79605275D01*
X138303017Y-79652894D01*
X138255398Y-79700513D01*
X138207779Y-79795751D01*
X177379614Y-83200887D02*
X177379614Y-82200887D01*
X177617709Y-82200887D01*
X177760566Y-82248507D01*
X177855804Y-82343745D01*
X177903423Y-82438983D01*
X177951042Y-82629459D01*
X177951042Y-82772316D01*
X177903423Y-82962792D01*
X177855804Y-83058030D01*
X177760566Y-83153268D01*
X177617709Y-83200887D01*
X177379614Y-83200887D01*
X178284376Y-82200887D02*
X178903423Y-82200887D01*
X178570090Y-82581840D01*
X178712947Y-82581840D01*
X178808185Y-82629459D01*
X178855804Y-82677078D01*
X178903423Y-82772316D01*
X178903423Y-83010411D01*
X178855804Y-83105649D01*
X178808185Y-83153268D01*
X178712947Y-83200887D01*
X178427233Y-83200887D01*
X178331995Y-83153268D01*
X178284376Y-83105649D01*
X179284376Y-82296126D02*
X179331995Y-82248507D01*
X179427233Y-82200887D01*
X179665328Y-82200887D01*
X179760566Y-82248507D01*
X179808185Y-82296126D01*
X179855804Y-82391364D01*
X179855804Y-82486602D01*
X179808185Y-82629459D01*
X179236757Y-83200887D01*
X179855804Y-83200887D01*
X166068667Y-86177452D02*
X166068667Y-85177452D01*
X166306762Y-85177452D01*
X166449619Y-85225072D01*
X166544857Y-85320310D01*
X166592476Y-85415548D01*
X166640095Y-85606024D01*
X166640095Y-85748881D01*
X166592476Y-85939357D01*
X166544857Y-86034595D01*
X166449619Y-86129833D01*
X166306762Y-86177452D01*
X166068667Y-86177452D01*
X166973429Y-85177452D02*
X167592476Y-85177452D01*
X167259143Y-85558405D01*
X167402000Y-85558405D01*
X167497238Y-85606024D01*
X167544857Y-85653643D01*
X167592476Y-85748881D01*
X167592476Y-85986976D01*
X167544857Y-86082214D01*
X167497238Y-86129833D01*
X167402000Y-86177452D01*
X167116286Y-86177452D01*
X167021048Y-86129833D01*
X166973429Y-86082214D01*
X168163905Y-85606024D02*
X168068667Y-85558405D01*
X168021048Y-85510786D01*
X167973429Y-85415548D01*
X167973429Y-85367929D01*
X168021048Y-85272691D01*
X168068667Y-85225072D01*
X168163905Y-85177452D01*
X168354381Y-85177452D01*
X168449619Y-85225072D01*
X168497238Y-85272691D01*
X168544857Y-85367929D01*
X168544857Y-85415548D01*
X168497238Y-85510786D01*
X168449619Y-85558405D01*
X168354381Y-85606024D01*
X168163905Y-85606024D01*
X168068667Y-85653643D01*
X168021048Y-85701262D01*
X167973429Y-85796500D01*
X167973429Y-85986976D01*
X168021048Y-86082214D01*
X168068667Y-86129833D01*
X168163905Y-86177452D01*
X168354381Y-86177452D01*
X168449619Y-86129833D01*
X168497238Y-86082214D01*
X168544857Y-85986976D01*
X168544857Y-85796500D01*
X168497238Y-85701262D01*
X168449619Y-85653643D01*
X168354381Y-85606024D01*
X177379614Y-89154017D02*
X177379614Y-88154017D01*
X177617709Y-88154017D01*
X177760566Y-88201637D01*
X177855804Y-88296875D01*
X177903423Y-88392113D01*
X177951042Y-88582589D01*
X177951042Y-88725446D01*
X177903423Y-88915922D01*
X177855804Y-89011160D01*
X177760566Y-89106398D01*
X177617709Y-89154017D01*
X177379614Y-89154017D01*
X178808185Y-88487351D02*
X178808185Y-89154017D01*
X178570090Y-88106398D02*
X178331995Y-88820684D01*
X178951042Y-88820684D01*
X179760566Y-88487351D02*
X179760566Y-89154017D01*
X179522471Y-88106398D02*
X179284376Y-88820684D01*
X179903423Y-88820684D01*
X166068667Y-92130582D02*
X166068667Y-91130582D01*
X166306762Y-91130582D01*
X166449619Y-91178202D01*
X166544857Y-91273440D01*
X166592476Y-91368678D01*
X166640095Y-91559154D01*
X166640095Y-91702011D01*
X166592476Y-91892487D01*
X166544857Y-91987725D01*
X166449619Y-92082963D01*
X166306762Y-92130582D01*
X166068667Y-92130582D01*
X167544857Y-91130582D02*
X167068667Y-91130582D01*
X167021048Y-91606773D01*
X167068667Y-91559154D01*
X167163905Y-91511535D01*
X167402000Y-91511535D01*
X167497238Y-91559154D01*
X167544857Y-91606773D01*
X167592476Y-91702011D01*
X167592476Y-91940106D01*
X167544857Y-92035344D01*
X167497238Y-92082963D01*
X167402000Y-92130582D01*
X167163905Y-92130582D01*
X167068667Y-92082963D01*
X167021048Y-92035344D01*
X168211524Y-91130582D02*
X168306762Y-91130582D01*
X168402000Y-91178202D01*
X168449619Y-91225821D01*
X168497238Y-91321059D01*
X168544857Y-91511535D01*
X168544857Y-91749630D01*
X168497238Y-91940106D01*
X168449619Y-92035344D01*
X168402000Y-92082963D01*
X168306762Y-92130582D01*
X168211524Y-92130582D01*
X168116286Y-92082963D01*
X168068667Y-92035344D01*
X168021048Y-91940106D01*
X167973429Y-91749630D01*
X167973429Y-91511535D01*
X168021048Y-91321059D01*
X168068667Y-91225821D01*
X168116286Y-91178202D01*
X168211524Y-91130582D01*
X125468260Y-101060277D02*
X125468260Y-100060277D01*
X125706356Y-100060277D01*
X125849213Y-100107897D01*
X125944451Y-100203135D01*
X125992070Y-100298373D01*
X126039689Y-100488849D01*
X126039689Y-100631706D01*
X125992070Y-100822182D01*
X125944451Y-100917420D01*
X125849213Y-101012658D01*
X125706356Y-101060277D01*
X125468260Y-101060277D01*
X126373022Y-100060277D02*
X126992070Y-100060277D01*
X126658736Y-100441230D01*
X126801594Y-100441230D01*
X126896832Y-100488849D01*
X126944451Y-100536468D01*
X126992070Y-100631706D01*
X126992070Y-100869801D01*
X126944451Y-100965039D01*
X126896832Y-101012658D01*
X126801594Y-101060277D01*
X126515879Y-101060277D01*
X126420641Y-101012658D01*
X126373022Y-100965039D01*
X136779207Y-104036842D02*
X136779207Y-103036842D01*
X137017303Y-103036842D01*
X137160160Y-103084462D01*
X137255398Y-103179700D01*
X137303017Y-103274938D01*
X137350636Y-103465414D01*
X137350636Y-103608271D01*
X137303017Y-103798747D01*
X137255398Y-103893985D01*
X137160160Y-103989223D01*
X137017303Y-104036842D01*
X136779207Y-104036842D01*
X137826826Y-104036842D02*
X138017303Y-104036842D01*
X138112541Y-103989223D01*
X138160160Y-103941604D01*
X138255398Y-103798747D01*
X138303017Y-103608271D01*
X138303017Y-103227319D01*
X138255398Y-103132081D01*
X138207779Y-103084462D01*
X138112541Y-103036842D01*
X137922064Y-103036842D01*
X137826826Y-103084462D01*
X137779207Y-103132081D01*
X137731588Y-103227319D01*
X137731588Y-103465414D01*
X137779207Y-103560652D01*
X137826826Y-103608271D01*
X137922064Y-103655890D01*
X138112541Y-103655890D01*
X138207779Y-103608271D01*
X138255398Y-103560652D01*
X138303017Y-103465414D01*
X124992070Y-107013407D02*
X124992070Y-106013407D01*
X125230165Y-106013407D01*
X125373022Y-106061027D01*
X125468260Y-106156265D01*
X125515879Y-106251503D01*
X125563498Y-106441979D01*
X125563498Y-106584836D01*
X125515879Y-106775312D01*
X125468260Y-106870550D01*
X125373022Y-106965788D01*
X125230165Y-107013407D01*
X124992070Y-107013407D01*
X126515879Y-107013407D02*
X125944451Y-107013407D01*
X126230165Y-107013407D02*
X126230165Y-106013407D01*
X126134927Y-106156265D01*
X126039689Y-106251503D01*
X125944451Y-106299122D01*
X127420641Y-106013407D02*
X126944451Y-106013407D01*
X126896832Y-106489598D01*
X126944451Y-106441979D01*
X127039689Y-106394360D01*
X127277784Y-106394360D01*
X127373022Y-106441979D01*
X127420641Y-106489598D01*
X127468260Y-106584836D01*
X127468260Y-106822931D01*
X127420641Y-106918169D01*
X127373022Y-106965788D01*
X127277784Y-107013407D01*
X127039689Y-107013407D01*
X126944451Y-106965788D01*
X126896832Y-106918169D01*
X124992070Y-95107147D02*
X124992070Y-94107147D01*
X125230165Y-94107147D01*
X125373022Y-94154767D01*
X125468260Y-94250005D01*
X125515879Y-94345243D01*
X125563498Y-94535719D01*
X125563498Y-94678576D01*
X125515879Y-94869052D01*
X125468260Y-94964290D01*
X125373022Y-95059528D01*
X125230165Y-95107147D01*
X124992070Y-95107147D01*
X125944451Y-94202386D02*
X125992070Y-94154767D01*
X126087308Y-94107147D01*
X126325403Y-94107147D01*
X126420641Y-94154767D01*
X126468260Y-94202386D01*
X126515879Y-94297624D01*
X126515879Y-94392862D01*
X126468260Y-94535719D01*
X125896832Y-95107147D01*
X126515879Y-95107147D01*
X127468260Y-95107147D02*
X126896832Y-95107147D01*
X127182546Y-95107147D02*
X127182546Y-94107147D01*
X127087308Y-94250005D01*
X126992070Y-94345243D01*
X126896832Y-94392862D01*
X136303017Y-98083712D02*
X136303017Y-97083712D01*
X136541112Y-97083712D01*
X136683969Y-97131332D01*
X136779207Y-97226570D01*
X136826826Y-97321808D01*
X136874445Y-97512284D01*
X136874445Y-97655141D01*
X136826826Y-97845617D01*
X136779207Y-97940855D01*
X136683969Y-98036093D01*
X136541112Y-98083712D01*
X136303017Y-98083712D01*
X137255398Y-97178951D02*
X137303017Y-97131332D01*
X137398255Y-97083712D01*
X137636350Y-97083712D01*
X137731588Y-97131332D01*
X137779207Y-97178951D01*
X137826826Y-97274189D01*
X137826826Y-97369427D01*
X137779207Y-97512284D01*
X137207779Y-98083712D01*
X137826826Y-98083712D01*
X138160160Y-97083712D02*
X138826826Y-97083712D01*
X138398255Y-98083712D01*
X177379614Y-101060277D02*
X177379614Y-100060277D01*
X177617709Y-100060277D01*
X177760566Y-100107897D01*
X177855804Y-100203135D01*
X177903423Y-100298373D01*
X177951042Y-100488849D01*
X177951042Y-100631706D01*
X177903423Y-100822182D01*
X177855804Y-100917420D01*
X177760566Y-101012658D01*
X177617709Y-101060277D01*
X177379614Y-101060277D01*
X178284376Y-100060277D02*
X178903423Y-100060277D01*
X178570090Y-100441230D01*
X178712947Y-100441230D01*
X178808185Y-100488849D01*
X178855804Y-100536468D01*
X178903423Y-100631706D01*
X178903423Y-100869801D01*
X178855804Y-100965039D01*
X178808185Y-101012658D01*
X178712947Y-101060277D01*
X178427233Y-101060277D01*
X178331995Y-101012658D01*
X178284376Y-100965039D01*
X179236757Y-100060277D02*
X179855804Y-100060277D01*
X179522471Y-100441230D01*
X179665328Y-100441230D01*
X179760566Y-100488849D01*
X179808185Y-100536468D01*
X179855804Y-100631706D01*
X179855804Y-100869801D01*
X179808185Y-100965039D01*
X179760566Y-101012658D01*
X179665328Y-101060277D01*
X179379614Y-101060277D01*
X179284376Y-101012658D01*
X179236757Y-100965039D01*
X166068667Y-104036842D02*
X166068667Y-103036842D01*
X166306762Y-103036842D01*
X166449619Y-103084462D01*
X166544857Y-103179700D01*
X166592476Y-103274938D01*
X166640095Y-103465414D01*
X166640095Y-103608271D01*
X166592476Y-103798747D01*
X166544857Y-103893985D01*
X166449619Y-103989223D01*
X166306762Y-104036842D01*
X166068667Y-104036842D01*
X166973429Y-103036842D02*
X167592476Y-103036842D01*
X167259143Y-103417795D01*
X167402000Y-103417795D01*
X167497238Y-103465414D01*
X167544857Y-103513033D01*
X167592476Y-103608271D01*
X167592476Y-103846366D01*
X167544857Y-103941604D01*
X167497238Y-103989223D01*
X167402000Y-104036842D01*
X167116286Y-104036842D01*
X167021048Y-103989223D01*
X166973429Y-103941604D01*
X168068667Y-104036842D02*
X168259143Y-104036842D01*
X168354381Y-103989223D01*
X168402000Y-103941604D01*
X168497238Y-103798747D01*
X168544857Y-103608271D01*
X168544857Y-103227319D01*
X168497238Y-103132081D01*
X168449619Y-103084462D01*
X168354381Y-103036842D01*
X168163905Y-103036842D01*
X168068667Y-103084462D01*
X168021048Y-103132081D01*
X167973429Y-103227319D01*
X167973429Y-103465414D01*
X168021048Y-103560652D01*
X168068667Y-103608271D01*
X168163905Y-103655890D01*
X168354381Y-103655890D01*
X168449619Y-103608271D01*
X168497238Y-103560652D01*
X168544857Y-103465414D01*
X177379614Y-107013407D02*
X177379614Y-106013407D01*
X177617709Y-106013407D01*
X177760566Y-106061027D01*
X177855804Y-106156265D01*
X177903423Y-106251503D01*
X177951042Y-106441979D01*
X177951042Y-106584836D01*
X177903423Y-106775312D01*
X177855804Y-106870550D01*
X177760566Y-106965788D01*
X177617709Y-107013407D01*
X177379614Y-107013407D01*
X178808185Y-106346741D02*
X178808185Y-107013407D01*
X178570090Y-105965788D02*
X178331995Y-106680074D01*
X178951042Y-106680074D01*
X179808185Y-106013407D02*
X179331995Y-106013407D01*
X179284376Y-106489598D01*
X179331995Y-106441979D01*
X179427233Y-106394360D01*
X179665328Y-106394360D01*
X179760566Y-106441979D01*
X179808185Y-106489598D01*
X179855804Y-106584836D01*
X179855804Y-106822931D01*
X179808185Y-106918169D01*
X179760566Y-106965788D01*
X179665328Y-107013407D01*
X179427233Y-107013407D01*
X179331995Y-106965788D01*
X179284376Y-106918169D01*
X177379614Y-95107147D02*
X177379614Y-94107147D01*
X177617709Y-94107147D01*
X177760566Y-94154767D01*
X177855804Y-94250005D01*
X177903423Y-94345243D01*
X177951042Y-94535719D01*
X177951042Y-94678576D01*
X177903423Y-94869052D01*
X177855804Y-94964290D01*
X177760566Y-95059528D01*
X177617709Y-95107147D01*
X177379614Y-95107147D01*
X178855804Y-94107147D02*
X178379614Y-94107147D01*
X178331995Y-94583338D01*
X178379614Y-94535719D01*
X178474852Y-94488100D01*
X178712947Y-94488100D01*
X178808185Y-94535719D01*
X178855804Y-94583338D01*
X178903423Y-94678576D01*
X178903423Y-94916671D01*
X178855804Y-95011909D01*
X178808185Y-95059528D01*
X178712947Y-95107147D01*
X178474852Y-95107147D01*
X178379614Y-95059528D01*
X178331995Y-95011909D01*
X179855804Y-95107147D02*
X179284376Y-95107147D01*
X179570090Y-95107147D02*
X179570090Y-94107147D01*
X179474852Y-94250005D01*
X179379614Y-94345243D01*
X179284376Y-94392862D01*
X125468260Y-118919667D02*
X125468260Y-117919667D01*
X125706356Y-117919667D01*
X125849213Y-117967287D01*
X125944451Y-118062525D01*
X125992070Y-118157763D01*
X126039689Y-118348239D01*
X126039689Y-118491096D01*
X125992070Y-118681572D01*
X125944451Y-118776810D01*
X125849213Y-118872048D01*
X125706356Y-118919667D01*
X125468260Y-118919667D01*
X126896832Y-118253001D02*
X126896832Y-118919667D01*
X126658736Y-117872048D02*
X126420641Y-118586334D01*
X127039689Y-118586334D01*
X136303017Y-121896232D02*
X136303017Y-120896232D01*
X136541112Y-120896232D01*
X136683969Y-120943852D01*
X136779207Y-121039090D01*
X136826826Y-121134328D01*
X136874445Y-121324804D01*
X136874445Y-121467661D01*
X136826826Y-121658137D01*
X136779207Y-121753375D01*
X136683969Y-121848613D01*
X136541112Y-121896232D01*
X136303017Y-121896232D01*
X137826826Y-121896232D02*
X137255398Y-121896232D01*
X137541112Y-121896232D02*
X137541112Y-120896232D01*
X137445874Y-121039090D01*
X137350636Y-121134328D01*
X137255398Y-121181947D01*
X138445874Y-120896232D02*
X138541112Y-120896232D01*
X138636350Y-120943852D01*
X138683969Y-120991471D01*
X138731588Y-121086709D01*
X138779207Y-121277185D01*
X138779207Y-121515280D01*
X138731588Y-121705756D01*
X138683969Y-121800994D01*
X138636350Y-121848613D01*
X138541112Y-121896232D01*
X138445874Y-121896232D01*
X138350636Y-121848613D01*
X138303017Y-121800994D01*
X138255398Y-121705756D01*
X138207779Y-121515280D01*
X138207779Y-121277185D01*
X138255398Y-121086709D01*
X138303017Y-120991471D01*
X138350636Y-120943852D01*
X138445874Y-120896232D01*
X136303017Y-109989972D02*
X136303017Y-108989972D01*
X136541112Y-108989972D01*
X136683969Y-109037592D01*
X136779207Y-109132830D01*
X136826826Y-109228068D01*
X136874445Y-109418544D01*
X136874445Y-109561401D01*
X136826826Y-109751877D01*
X136779207Y-109847115D01*
X136683969Y-109942353D01*
X136541112Y-109989972D01*
X136303017Y-109989972D01*
X137826826Y-109989972D02*
X137255398Y-109989972D01*
X137541112Y-109989972D02*
X137541112Y-108989972D01*
X137445874Y-109132830D01*
X137350636Y-109228068D01*
X137255398Y-109275687D01*
X138683969Y-108989972D02*
X138493493Y-108989972D01*
X138398255Y-109037592D01*
X138350636Y-109085211D01*
X138255398Y-109228068D01*
X138207779Y-109418544D01*
X138207779Y-109799496D01*
X138255398Y-109894734D01*
X138303017Y-109942353D01*
X138398255Y-109989972D01*
X138588731Y-109989972D01*
X138683969Y-109942353D01*
X138731588Y-109894734D01*
X138779207Y-109799496D01*
X138779207Y-109561401D01*
X138731588Y-109466163D01*
X138683969Y-109418544D01*
X138588731Y-109370925D01*
X138398255Y-109370925D01*
X138303017Y-109418544D01*
X138255398Y-109466163D01*
X138207779Y-109561401D01*
X124992070Y-112966537D02*
X124992070Y-111966537D01*
X125230165Y-111966537D01*
X125373022Y-112014157D01*
X125468260Y-112109395D01*
X125515879Y-112204633D01*
X125563498Y-112395109D01*
X125563498Y-112537966D01*
X125515879Y-112728442D01*
X125468260Y-112823680D01*
X125373022Y-112918918D01*
X125230165Y-112966537D01*
X124992070Y-112966537D01*
X125944451Y-112061776D02*
X125992070Y-112014157D01*
X126087308Y-111966537D01*
X126325403Y-111966537D01*
X126420641Y-112014157D01*
X126468260Y-112061776D01*
X126515879Y-112157014D01*
X126515879Y-112252252D01*
X126468260Y-112395109D01*
X125896832Y-112966537D01*
X126515879Y-112966537D01*
X126896832Y-112061776D02*
X126944451Y-112014157D01*
X127039689Y-111966537D01*
X127277784Y-111966537D01*
X127373022Y-112014157D01*
X127420641Y-112061776D01*
X127468260Y-112157014D01*
X127468260Y-112252252D01*
X127420641Y-112395109D01*
X126849213Y-112966537D01*
X127468260Y-112966537D01*
X136303017Y-115943102D02*
X136303017Y-114943102D01*
X136541112Y-114943102D01*
X136683969Y-114990722D01*
X136779207Y-115085960D01*
X136826826Y-115181198D01*
X136874445Y-115371674D01*
X136874445Y-115514531D01*
X136826826Y-115705007D01*
X136779207Y-115800245D01*
X136683969Y-115895483D01*
X136541112Y-115943102D01*
X136303017Y-115943102D01*
X137255398Y-115038341D02*
X137303017Y-114990722D01*
X137398255Y-114943102D01*
X137636350Y-114943102D01*
X137731588Y-114990722D01*
X137779207Y-115038341D01*
X137826826Y-115133579D01*
X137826826Y-115228817D01*
X137779207Y-115371674D01*
X137207779Y-115943102D01*
X137826826Y-115943102D01*
X138398255Y-115371674D02*
X138303017Y-115324055D01*
X138255398Y-115276436D01*
X138207779Y-115181198D01*
X138207779Y-115133579D01*
X138255398Y-115038341D01*
X138303017Y-114990722D01*
X138398255Y-114943102D01*
X138588731Y-114943102D01*
X138683969Y-114990722D01*
X138731588Y-115038341D01*
X138779207Y-115133579D01*
X138779207Y-115181198D01*
X138731588Y-115276436D01*
X138683969Y-115324055D01*
X138588731Y-115371674D01*
X138398255Y-115371674D01*
X138303017Y-115419293D01*
X138255398Y-115466912D01*
X138207779Y-115562150D01*
X138207779Y-115752626D01*
X138255398Y-115847864D01*
X138303017Y-115895483D01*
X138398255Y-115943102D01*
X138588731Y-115943102D01*
X138683969Y-115895483D01*
X138731588Y-115847864D01*
X138779207Y-115752626D01*
X138779207Y-115562150D01*
X138731588Y-115466912D01*
X138683969Y-115419293D01*
X138588731Y-115371674D01*
X179760866Y-121896232D02*
X179760866Y-120896232D01*
X179998961Y-120896232D01*
X180141818Y-120943852D01*
X180237056Y-121039090D01*
X180284675Y-121134328D01*
X180332294Y-121324804D01*
X180332294Y-121467661D01*
X180284675Y-121658137D01*
X180237056Y-121753375D01*
X180141818Y-121848613D01*
X179998961Y-121896232D01*
X179760866Y-121896232D01*
X181189437Y-121229566D02*
X181189437Y-121896232D01*
X180951342Y-120848613D02*
X180713247Y-121562899D01*
X181332294Y-121562899D01*
X181903723Y-120896232D02*
X181998961Y-120896232D01*
X182094199Y-120943852D01*
X182141818Y-120991471D01*
X182189437Y-121086709D01*
X182237056Y-121277185D01*
X182237056Y-121515280D01*
X182189437Y-121705756D01*
X182141818Y-121800994D01*
X182094199Y-121848613D01*
X181998961Y-121896232D01*
X181903723Y-121896232D01*
X181808485Y-121848613D01*
X181760866Y-121800994D01*
X181713247Y-121705756D01*
X181665628Y-121515280D01*
X181665628Y-121277185D01*
X181713247Y-121086709D01*
X181760866Y-120991471D01*
X181808485Y-120943852D01*
X181903723Y-120896232D01*
X166068667Y-109989972D02*
X166068667Y-108989972D01*
X166306762Y-108989972D01*
X166449619Y-109037592D01*
X166544857Y-109132830D01*
X166592476Y-109228068D01*
X166640095Y-109418544D01*
X166640095Y-109561401D01*
X166592476Y-109751877D01*
X166544857Y-109847115D01*
X166449619Y-109942353D01*
X166306762Y-109989972D01*
X166068667Y-109989972D01*
X167497238Y-109323306D02*
X167497238Y-109989972D01*
X167259143Y-108942353D02*
X167021048Y-109656639D01*
X167640095Y-109656639D01*
X168449619Y-108989972D02*
X168259143Y-108989972D01*
X168163905Y-109037592D01*
X168116286Y-109085211D01*
X168021048Y-109228068D01*
X167973429Y-109418544D01*
X167973429Y-109799496D01*
X168021048Y-109894734D01*
X168068667Y-109942353D01*
X168163905Y-109989972D01*
X168354381Y-109989972D01*
X168449619Y-109942353D01*
X168497238Y-109894734D01*
X168544857Y-109799496D01*
X168544857Y-109561401D01*
X168497238Y-109466163D01*
X168449619Y-109418544D01*
X168354381Y-109370925D01*
X168163905Y-109370925D01*
X168068667Y-109418544D01*
X168021048Y-109466163D01*
X167973429Y-109561401D01*
X177379614Y-112966537D02*
X177379614Y-111966537D01*
X177617709Y-111966537D01*
X177760566Y-112014157D01*
X177855804Y-112109395D01*
X177903423Y-112204633D01*
X177951042Y-112395109D01*
X177951042Y-112537966D01*
X177903423Y-112728442D01*
X177855804Y-112823680D01*
X177760566Y-112918918D01*
X177617709Y-112966537D01*
X177379614Y-112966537D01*
X178855804Y-111966537D02*
X178379614Y-111966537D01*
X178331995Y-112442728D01*
X178379614Y-112395109D01*
X178474852Y-112347490D01*
X178712947Y-112347490D01*
X178808185Y-112395109D01*
X178855804Y-112442728D01*
X178903423Y-112537966D01*
X178903423Y-112776061D01*
X178855804Y-112871299D01*
X178808185Y-112918918D01*
X178712947Y-112966537D01*
X178474852Y-112966537D01*
X178379614Y-112918918D01*
X178331995Y-112871299D01*
X179284376Y-112061776D02*
X179331995Y-112014157D01*
X179427233Y-111966537D01*
X179665328Y-111966537D01*
X179760566Y-112014157D01*
X179808185Y-112061776D01*
X179855804Y-112157014D01*
X179855804Y-112252252D01*
X179808185Y-112395109D01*
X179236757Y-112966537D01*
X179855804Y-112966537D01*
X125468260Y-136779057D02*
X125468260Y-135779057D01*
X125706356Y-135779057D01*
X125849213Y-135826677D01*
X125944451Y-135921915D01*
X125992070Y-136017153D01*
X126039689Y-136207629D01*
X126039689Y-136350486D01*
X125992070Y-136540962D01*
X125944451Y-136636200D01*
X125849213Y-136731438D01*
X125706356Y-136779057D01*
X125468260Y-136779057D01*
X126944451Y-135779057D02*
X126468260Y-135779057D01*
X126420641Y-136255248D01*
X126468260Y-136207629D01*
X126563498Y-136160010D01*
X126801594Y-136160010D01*
X126896832Y-136207629D01*
X126944451Y-136255248D01*
X126992070Y-136350486D01*
X126992070Y-136588581D01*
X126944451Y-136683819D01*
X126896832Y-136731438D01*
X126801594Y-136779057D01*
X126563498Y-136779057D01*
X126468260Y-136731438D01*
X126420641Y-136683819D01*
X124992070Y-124872797D02*
X124992070Y-123872797D01*
X125230165Y-123872797D01*
X125373022Y-123920417D01*
X125468260Y-124015655D01*
X125515879Y-124110893D01*
X125563498Y-124301369D01*
X125563498Y-124444226D01*
X125515879Y-124634702D01*
X125468260Y-124729940D01*
X125373022Y-124825178D01*
X125230165Y-124872797D01*
X124992070Y-124872797D01*
X126515879Y-124872797D02*
X125944451Y-124872797D01*
X126230165Y-124872797D02*
X126230165Y-123872797D01*
X126134927Y-124015655D01*
X126039689Y-124110893D01*
X125944451Y-124158512D01*
X127468260Y-124872797D02*
X126896832Y-124872797D01*
X127182546Y-124872797D02*
X127182546Y-123872797D01*
X127087308Y-124015655D01*
X126992070Y-124110893D01*
X126896832Y-124158512D01*
X136303017Y-127849362D02*
X136303017Y-126849362D01*
X136541112Y-126849362D01*
X136683969Y-126896982D01*
X136779207Y-126992220D01*
X136826826Y-127087458D01*
X136874445Y-127277934D01*
X136874445Y-127420791D01*
X136826826Y-127611267D01*
X136779207Y-127706505D01*
X136683969Y-127801743D01*
X136541112Y-127849362D01*
X136303017Y-127849362D01*
X137826826Y-127849362D02*
X137255398Y-127849362D01*
X137541112Y-127849362D02*
X137541112Y-126849362D01*
X137445874Y-126992220D01*
X137350636Y-127087458D01*
X137255398Y-127135077D01*
X138160160Y-126849362D02*
X138826826Y-126849362D01*
X138398255Y-127849362D01*
X124992070Y-130825927D02*
X124992070Y-129825927D01*
X125230165Y-129825927D01*
X125373022Y-129873547D01*
X125468260Y-129968785D01*
X125515879Y-130064023D01*
X125563498Y-130254499D01*
X125563498Y-130397356D01*
X125515879Y-130587832D01*
X125468260Y-130683070D01*
X125373022Y-130778308D01*
X125230165Y-130825927D01*
X124992070Y-130825927D01*
X125944451Y-129921166D02*
X125992070Y-129873547D01*
X126087308Y-129825927D01*
X126325403Y-129825927D01*
X126420641Y-129873547D01*
X126468260Y-129921166D01*
X126515879Y-130016404D01*
X126515879Y-130111642D01*
X126468260Y-130254499D01*
X125896832Y-130825927D01*
X126515879Y-130825927D01*
X126849213Y-129825927D02*
X127468260Y-129825927D01*
X127134927Y-130206880D01*
X127277784Y-130206880D01*
X127373022Y-130254499D01*
X127420641Y-130302118D01*
X127468260Y-130397356D01*
X127468260Y-130635451D01*
X127420641Y-130730689D01*
X127373022Y-130778308D01*
X127277784Y-130825927D01*
X126992070Y-130825927D01*
X126896832Y-130778308D01*
X126849213Y-130730689D01*
X163687415Y-136779057D02*
X163687415Y-135779057D01*
X163925510Y-135779057D01*
X164068367Y-135826677D01*
X164163605Y-135921915D01*
X164211224Y-136017153D01*
X164258843Y-136207629D01*
X164258843Y-136350486D01*
X164211224Y-136540962D01*
X164163605Y-136636200D01*
X164068367Y-136731438D01*
X163925510Y-136779057D01*
X163687415Y-136779057D01*
X164592177Y-135779057D02*
X165211224Y-135779057D01*
X164877891Y-136160010D01*
X165020748Y-136160010D01*
X165115986Y-136207629D01*
X165163605Y-136255248D01*
X165211224Y-136350486D01*
X165211224Y-136588581D01*
X165163605Y-136683819D01*
X165115986Y-136731438D01*
X165020748Y-136779057D01*
X164735034Y-136779057D01*
X164639796Y-136731438D01*
X164592177Y-136683819D01*
X166115986Y-135779057D02*
X165639796Y-135779057D01*
X165592177Y-136255248D01*
X165639796Y-136207629D01*
X165735034Y-136160010D01*
X165973129Y-136160010D01*
X166068367Y-136207629D01*
X166115986Y-136255248D01*
X166163605Y-136350486D01*
X166163605Y-136588581D01*
X166115986Y-136683819D01*
X166068367Y-136731438D01*
X165973129Y-136779057D01*
X165735034Y-136779057D01*
X165639796Y-136731438D01*
X165592177Y-136683819D01*
X163687415Y-124872797D02*
X163687415Y-123872797D01*
X163925510Y-123872797D01*
X164068367Y-123920417D01*
X164163605Y-124015655D01*
X164211224Y-124110893D01*
X164258843Y-124301369D01*
X164258843Y-124444226D01*
X164211224Y-124634702D01*
X164163605Y-124729940D01*
X164068367Y-124825178D01*
X163925510Y-124872797D01*
X163687415Y-124872797D01*
X165115986Y-124206131D02*
X165115986Y-124872797D01*
X164877891Y-123825178D02*
X164639796Y-124539464D01*
X165258843Y-124539464D01*
X166163605Y-124872797D02*
X165592177Y-124872797D01*
X165877891Y-124872797D02*
X165877891Y-123872797D01*
X165782653Y-124015655D01*
X165687415Y-124110893D01*
X165592177Y-124158512D01*
X179760866Y-127849362D02*
X179760866Y-126849362D01*
X179998961Y-126849362D01*
X180141818Y-126896982D01*
X180237056Y-126992220D01*
X180284675Y-127087458D01*
X180332294Y-127277934D01*
X180332294Y-127420791D01*
X180284675Y-127611267D01*
X180237056Y-127706505D01*
X180141818Y-127801743D01*
X179998961Y-127849362D01*
X179760866Y-127849362D01*
X181189437Y-127182696D02*
X181189437Y-127849362D01*
X180951342Y-126801743D02*
X180713247Y-127516029D01*
X181332294Y-127516029D01*
X181618009Y-126849362D02*
X182284675Y-126849362D01*
X181856104Y-127849362D01*
X163687415Y-130825927D02*
X163687415Y-129825927D01*
X163925510Y-129825927D01*
X164068367Y-129873547D01*
X164163605Y-129968785D01*
X164211224Y-130064023D01*
X164258843Y-130254499D01*
X164258843Y-130397356D01*
X164211224Y-130587832D01*
X164163605Y-130683070D01*
X164068367Y-130778308D01*
X163925510Y-130825927D01*
X163687415Y-130825927D01*
X165163605Y-129825927D02*
X164687415Y-129825927D01*
X164639796Y-130302118D01*
X164687415Y-130254499D01*
X164782653Y-130206880D01*
X165020748Y-130206880D01*
X165115986Y-130254499D01*
X165163605Y-130302118D01*
X165211224Y-130397356D01*
X165211224Y-130635451D01*
X165163605Y-130730689D01*
X165115986Y-130778308D01*
X165020748Y-130825927D01*
X164782653Y-130825927D01*
X164687415Y-130778308D01*
X164639796Y-130730689D01*
X165544558Y-129825927D02*
X166163605Y-129825927D01*
X165830272Y-130206880D01*
X165973129Y-130206880D01*
X166068367Y-130254499D01*
X166115986Y-130302118D01*
X166163605Y-130397356D01*
X166163605Y-130635451D01*
X166115986Y-130730689D01*
X166068367Y-130778308D01*
X165973129Y-130825927D01*
X165687415Y-130825927D01*
X165592177Y-130778308D01*
X165544558Y-130730689D01*
X136183894Y-139755622D02*
X136183894Y-138755622D01*
X136421990Y-138755622D01*
X136564847Y-138803242D01*
X136660085Y-138898480D01*
X136707704Y-138993718D01*
X136755323Y-139184194D01*
X136755323Y-139327051D01*
X136707704Y-139517527D01*
X136660085Y-139612765D01*
X136564847Y-139708003D01*
X136421990Y-139755622D01*
X136183894Y-139755622D01*
X137612466Y-138755622D02*
X137421990Y-138755622D01*
X137326751Y-138803242D01*
X137279132Y-138850861D01*
X137183894Y-138993718D01*
X137136275Y-139184194D01*
X137136275Y-139565146D01*
X137183894Y-139660384D01*
X137231513Y-139708003D01*
X137326751Y-139755622D01*
X137517228Y-139755622D01*
X137612466Y-139708003D01*
X137660085Y-139660384D01*
X137707704Y-139565146D01*
X137707704Y-139327051D01*
X137660085Y-139231813D01*
X137612466Y-139184194D01*
X137517228Y-139136575D01*
X137326751Y-139136575D01*
X137231513Y-139184194D01*
X137183894Y-139231813D01*
X137136275Y-139327051D01*
X142732187Y-134564397D02*
X141732187Y-134564397D01*
X141732187Y-134326302D01*
X141779807Y-134183445D01*
X141875045Y-134088207D01*
X141970283Y-134040588D01*
X142160759Y-133992969D01*
X142303616Y-133992969D01*
X142494092Y-134040588D01*
X142589330Y-134088207D01*
X142684568Y-134183445D01*
X142732187Y-134326302D01*
X142732187Y-134564397D01*
X142732187Y-133040588D02*
X142732187Y-133612016D01*
X142732187Y-133326302D02*
X141732187Y-133326302D01*
X141875045Y-133421540D01*
X141970283Y-133516778D01*
X142017902Y-133612016D01*
X141827426Y-132659635D02*
X141779807Y-132612016D01*
X141732187Y-132516778D01*
X141732187Y-132278683D01*
X141779807Y-132183445D01*
X141827426Y-132135826D01*
X141922664Y-132088207D01*
X142017902Y-132088207D01*
X142160759Y-132135826D01*
X142732187Y-132707254D01*
X142732187Y-132088207D01*
X145708752Y-145875344D02*
X144708752Y-145875344D01*
X144708752Y-145637249D01*
X144756372Y-145494392D01*
X144851610Y-145399154D01*
X144946848Y-145351535D01*
X145137324Y-145303916D01*
X145280181Y-145303916D01*
X145470657Y-145351535D01*
X145565895Y-145399154D01*
X145661133Y-145494392D01*
X145708752Y-145637249D01*
X145708752Y-145875344D01*
X145708752Y-144351535D02*
X145708752Y-144922963D01*
X145708752Y-144637249D02*
X144708752Y-144637249D01*
X144851610Y-144732487D01*
X144946848Y-144827725D01*
X144994467Y-144922963D01*
X145137324Y-143780106D02*
X145089705Y-143875344D01*
X145042086Y-143922963D01*
X144946848Y-143970582D01*
X144899229Y-143970582D01*
X144803991Y-143922963D01*
X144756372Y-143875344D01*
X144708752Y-143780106D01*
X144708752Y-143589630D01*
X144756372Y-143494392D01*
X144803991Y-143446773D01*
X144899229Y-143399154D01*
X144946848Y-143399154D01*
X145042086Y-143446773D01*
X145089705Y-143494392D01*
X145137324Y-143589630D01*
X145137324Y-143780106D01*
X145184943Y-143875344D01*
X145232562Y-143922963D01*
X145327800Y-143970582D01*
X145518276Y-143970582D01*
X145613514Y-143922963D01*
X145661133Y-143875344D01*
X145708752Y-143780106D01*
X145708752Y-143589630D01*
X145661133Y-143494392D01*
X145613514Y-143446773D01*
X145518276Y-143399154D01*
X145327800Y-143399154D01*
X145232562Y-143446773D01*
X145184943Y-143494392D01*
X145137324Y-143589630D01*
X148685317Y-134564397D02*
X147685317Y-134564397D01*
X147685317Y-134326302D01*
X147732937Y-134183445D01*
X147828175Y-134088207D01*
X147923413Y-134040588D01*
X148113889Y-133992969D01*
X148256746Y-133992969D01*
X148447222Y-134040588D01*
X148542460Y-134088207D01*
X148637698Y-134183445D01*
X148685317Y-134326302D01*
X148685317Y-134564397D01*
X147780556Y-133612016D02*
X147732937Y-133564397D01*
X147685317Y-133469159D01*
X147685317Y-133231064D01*
X147732937Y-133135826D01*
X147780556Y-133088207D01*
X147875794Y-133040588D01*
X147971032Y-133040588D01*
X148113889Y-133088207D01*
X148685317Y-133659635D01*
X148685317Y-133040588D01*
X148018651Y-132183445D02*
X148685317Y-132183445D01*
X147637698Y-132421540D02*
X148351984Y-132659635D01*
X148351984Y-132040588D01*
X179760866Y-139755622D02*
X179760866Y-138755622D01*
X179998961Y-138755622D01*
X180141818Y-138803242D01*
X180237056Y-138898480D01*
X180284675Y-138993718D01*
X180332294Y-139184194D01*
X180332294Y-139327051D01*
X180284675Y-139517527D01*
X180237056Y-139612765D01*
X180141818Y-139708003D01*
X179998961Y-139755622D01*
X179760866Y-139755622D01*
X180665628Y-138755622D02*
X181284675Y-138755622D01*
X180951342Y-139136575D01*
X181094199Y-139136575D01*
X181189437Y-139184194D01*
X181237056Y-139231813D01*
X181284675Y-139327051D01*
X181284675Y-139565146D01*
X181237056Y-139660384D01*
X181189437Y-139708003D01*
X181094199Y-139755622D01*
X180808485Y-139755622D01*
X180713247Y-139708003D01*
X180665628Y-139660384D01*
X182141818Y-138755622D02*
X181951342Y-138755622D01*
X181856104Y-138803242D01*
X181808485Y-138850861D01*
X181713247Y-138993718D01*
X181665628Y-139184194D01*
X181665628Y-139565146D01*
X181713247Y-139660384D01*
X181760866Y-139708003D01*
X181856104Y-139755622D01*
X182046580Y-139755622D01*
X182141818Y-139708003D01*
X182189437Y-139660384D01*
X182237056Y-139565146D01*
X182237056Y-139327051D01*
X182189437Y-139231813D01*
X182141818Y-139184194D01*
X182046580Y-139136575D01*
X181856104Y-139136575D01*
X181760866Y-139184194D01*
X181713247Y-139231813D01*
X181665628Y-139327051D01*
X163568142Y-134564397D02*
X162568142Y-134564397D01*
X162568142Y-134326302D01*
X162615762Y-134183445D01*
X162711000Y-134088207D01*
X162806238Y-134040588D01*
X162996714Y-133992969D01*
X163139571Y-133992969D01*
X163330047Y-134040588D01*
X163425285Y-134088207D01*
X163520523Y-134183445D01*
X163568142Y-134326302D01*
X163568142Y-134564397D01*
X162901476Y-133135826D02*
X163568142Y-133135826D01*
X162520523Y-133373921D02*
X163234809Y-133612016D01*
X163234809Y-132992969D01*
X162663381Y-132659635D02*
X162615762Y-132612016D01*
X162568142Y-132516778D01*
X162568142Y-132278683D01*
X162615762Y-132183445D01*
X162663381Y-132135826D01*
X162758619Y-132088207D01*
X162853857Y-132088207D01*
X162996714Y-132135826D01*
X163568142Y-132707254D01*
X163568142Y-132088207D01*
X160591577Y-145875344D02*
X159591577Y-145875344D01*
X159591577Y-145637249D01*
X159639197Y-145494392D01*
X159734435Y-145399154D01*
X159829673Y-145351535D01*
X160020149Y-145303916D01*
X160163006Y-145303916D01*
X160353482Y-145351535D01*
X160448720Y-145399154D01*
X160543958Y-145494392D01*
X160591577Y-145637249D01*
X160591577Y-145875344D01*
X159924911Y-144446773D02*
X160591577Y-144446773D01*
X159543958Y-144684868D02*
X160258244Y-144922963D01*
X160258244Y-144303916D01*
X160020149Y-143780106D02*
X159972530Y-143875344D01*
X159924911Y-143922963D01*
X159829673Y-143970582D01*
X159782054Y-143970582D01*
X159686816Y-143922963D01*
X159639197Y-143875344D01*
X159591577Y-143780106D01*
X159591577Y-143589630D01*
X159639197Y-143494392D01*
X159686816Y-143446773D01*
X159782054Y-143399154D01*
X159829673Y-143399154D01*
X159924911Y-143446773D01*
X159972530Y-143494392D01*
X160020149Y-143589630D01*
X160020149Y-143780106D01*
X160067768Y-143875344D01*
X160115387Y-143922963D01*
X160210625Y-143970582D01*
X160401101Y-143970582D01*
X160496339Y-143922963D01*
X160543958Y-143875344D01*
X160591577Y-143780106D01*
X160591577Y-143589630D01*
X160543958Y-143494392D01*
X160496339Y-143446773D01*
X160401101Y-143399154D01*
X160210625Y-143399154D01*
X160115387Y-143446773D01*
X160067768Y-143494392D01*
X160020149Y-143589630D01*
X157615012Y-134564397D02*
X156615012Y-134564397D01*
X156615012Y-134326302D01*
X156662632Y-134183445D01*
X156757870Y-134088207D01*
X156853108Y-134040588D01*
X157043584Y-133992969D01*
X157186441Y-133992969D01*
X157376917Y-134040588D01*
X157472155Y-134088207D01*
X157567393Y-134183445D01*
X157615012Y-134326302D01*
X157615012Y-134564397D01*
X156615012Y-133088207D02*
X156615012Y-133564397D01*
X157091203Y-133612016D01*
X157043584Y-133564397D01*
X156995965Y-133469159D01*
X156995965Y-133231064D01*
X157043584Y-133135826D01*
X157091203Y-133088207D01*
X157186441Y-133040588D01*
X157424536Y-133040588D01*
X157519774Y-133088207D01*
X157567393Y-133135826D01*
X157615012Y-133231064D01*
X157615012Y-133469159D01*
X157567393Y-133564397D01*
X157519774Y-133612016D01*
X156948346Y-132183445D02*
X157615012Y-132183445D01*
X156567393Y-132421540D02*
X157281679Y-132659635D01*
X157281679Y-132040588D01*
X150471256Y-64817538D02*
X150471256Y-65293729D01*
X149471256Y-65293729D01*
X149947447Y-64484205D02*
X149947447Y-64150871D01*
X150471256Y-64008014D02*
X150471256Y-64484205D01*
X149471256Y-64484205D01*
X149471256Y-64008014D01*
X150471256Y-63579443D02*
X149471256Y-63579443D01*
X149471256Y-63341348D01*
X149518876Y-63198491D01*
X149614114Y-63103252D01*
X149709352Y-63055633D01*
X149899828Y-63008014D01*
X150042685Y-63008014D01*
X150233161Y-63055633D01*
X150328399Y-63103252D01*
X150423637Y-63198491D01*
X150471256Y-63341348D01*
X150471256Y-63579443D01*
X150471256Y-62055633D02*
X150471256Y-62627062D01*
X150471256Y-62341348D02*
X149471256Y-62341348D01*
X149614114Y-62436586D01*
X149709352Y-62531824D01*
X149756971Y-62627062D01*
X151661882Y-58507340D02*
X151185692Y-58840674D01*
X151661882Y-59078769D02*
X150661882Y-59078769D01*
X150661882Y-58697816D01*
X150709502Y-58602578D01*
X150757121Y-58554959D01*
X150852359Y-58507340D01*
X150995216Y-58507340D01*
X151090454Y-58554959D01*
X151138073Y-58602578D01*
X151185692Y-58697816D01*
X151185692Y-59078769D01*
X150661882Y-58174007D02*
X150661882Y-57507340D01*
X151661882Y-57935912D01*
X145939079Y-58702578D02*
X145481936Y-58702578D01*
X145710507Y-58702578D02*
X145710507Y-57902578D01*
X145634317Y-58016864D01*
X145558126Y-58093054D01*
X145481936Y-58131150D01*
X146281936Y-58626388D02*
X146320031Y-58664483D01*
X146281936Y-58702578D01*
X146243841Y-58664483D01*
X146281936Y-58626388D01*
X146281936Y-58702578D01*
X147043841Y-57902578D02*
X146662888Y-57902578D01*
X146624793Y-58283531D01*
X146662888Y-58245435D01*
X146739079Y-58207340D01*
X146929555Y-58207340D01*
X147005746Y-58245435D01*
X147043841Y-58283531D01*
X147081936Y-58359721D01*
X147081936Y-58550197D01*
X147043841Y-58626388D01*
X147005746Y-58664483D01*
X146929555Y-58702578D01*
X146739079Y-58702578D01*
X146662888Y-58664483D01*
X146624793Y-58626388D01*
X147424793Y-58702578D02*
X147424793Y-57902578D01*
X147500984Y-58397816D02*
X147729555Y-58702578D01*
X147729555Y-58169245D02*
X147424793Y-58474007D01*
X136303017Y-133802492D02*
X136303017Y-132802492D01*
X136541112Y-132802492D01*
X136683969Y-132850112D01*
X136779207Y-132945350D01*
X136826826Y-133040588D01*
X136874445Y-133231064D01*
X136874445Y-133373921D01*
X136826826Y-133564397D01*
X136779207Y-133659635D01*
X136683969Y-133754873D01*
X136541112Y-133802492D01*
X136303017Y-133802492D01*
X137255398Y-132897731D02*
X137303017Y-132850112D01*
X137398255Y-132802492D01*
X137636350Y-132802492D01*
X137731588Y-132850112D01*
X137779207Y-132897731D01*
X137826826Y-132992969D01*
X137826826Y-133088207D01*
X137779207Y-133231064D01*
X137207779Y-133802492D01*
X137826826Y-133802492D01*
X138303017Y-133802492D02*
X138493493Y-133802492D01*
X138588731Y-133754873D01*
X138636350Y-133707254D01*
X138731588Y-133564397D01*
X138779207Y-133373921D01*
X138779207Y-132992969D01*
X138731588Y-132897731D01*
X138683969Y-132850112D01*
X138588731Y-132802492D01*
X138398255Y-132802492D01*
X138303017Y-132850112D01*
X138255398Y-132897731D01*
X138207779Y-132992969D01*
X138207779Y-133231064D01*
X138255398Y-133326302D01*
X138303017Y-133373921D01*
X138398255Y-133421540D01*
X138588731Y-133421540D01*
X138683969Y-133373921D01*
X138731588Y-133326302D01*
X138779207Y-133231064D01*
X151661882Y-145875344D02*
X150661882Y-145875344D01*
X150661882Y-145637249D01*
X150709502Y-145494392D01*
X150804740Y-145399154D01*
X150899978Y-145351535D01*
X151090454Y-145303916D01*
X151233311Y-145303916D01*
X151423787Y-145351535D01*
X151519025Y-145399154D01*
X151614263Y-145494392D01*
X151661882Y-145637249D01*
X151661882Y-145875344D01*
X150661882Y-144970582D02*
X150661882Y-144351535D01*
X151042835Y-144684868D01*
X151042835Y-144542011D01*
X151090454Y-144446773D01*
X151138073Y-144399154D01*
X151233311Y-144351535D01*
X151471406Y-144351535D01*
X151566644Y-144399154D01*
X151614263Y-144446773D01*
X151661882Y-144542011D01*
X151661882Y-144827725D01*
X151614263Y-144922963D01*
X151566644Y-144970582D01*
X150661882Y-143732487D02*
X150661882Y-143637249D01*
X150709502Y-143542011D01*
X150757121Y-143494392D01*
X150852359Y-143446773D01*
X151042835Y-143399154D01*
X151280930Y-143399154D01*
X151471406Y-143446773D01*
X151566644Y-143494392D01*
X151614263Y-143542011D01*
X151661882Y-143637249D01*
X151661882Y-143732487D01*
X151614263Y-143827725D01*
X151566644Y-143875344D01*
X151471406Y-143922963D01*
X151280930Y-143970582D01*
X151042835Y-143970582D01*
X150852359Y-143922963D01*
X150757121Y-143875344D01*
X150709502Y-143827725D01*
X150661882Y-143732487D01*
X177379614Y-77247757D02*
X177379614Y-76247757D01*
X177617709Y-76247757D01*
X177760566Y-76295377D01*
X177855804Y-76390615D01*
X177903423Y-76485853D01*
X177951042Y-76676329D01*
X177951042Y-76819186D01*
X177903423Y-77009662D01*
X177855804Y-77104900D01*
X177760566Y-77200138D01*
X177617709Y-77247757D01*
X177379614Y-77247757D01*
X178855804Y-76247757D02*
X178379614Y-76247757D01*
X178331995Y-76723948D01*
X178379614Y-76676329D01*
X178474852Y-76628710D01*
X178712947Y-76628710D01*
X178808185Y-76676329D01*
X178855804Y-76723948D01*
X178903423Y-76819186D01*
X178903423Y-77057281D01*
X178855804Y-77152519D01*
X178808185Y-77200138D01*
X178712947Y-77247757D01*
X178474852Y-77247757D01*
X178379614Y-77200138D01*
X178331995Y-77152519D01*
X179808185Y-76247757D02*
X179331995Y-76247757D01*
X179284376Y-76723948D01*
X179331995Y-76676329D01*
X179427233Y-76628710D01*
X179665328Y-76628710D01*
X179760566Y-76676329D01*
X179808185Y-76723948D01*
X179855804Y-76819186D01*
X179855804Y-77057281D01*
X179808185Y-77152519D01*
X179760566Y-77200138D01*
X179665328Y-77247757D01*
X179427233Y-77247757D01*
X179331995Y-77200138D01*
X179284376Y-77152519D01*
X166068667Y-80224322D02*
X166068667Y-79224322D01*
X166306762Y-79224322D01*
X166449619Y-79271942D01*
X166544857Y-79367180D01*
X166592476Y-79462418D01*
X166640095Y-79652894D01*
X166640095Y-79795751D01*
X166592476Y-79986227D01*
X166544857Y-80081465D01*
X166449619Y-80176703D01*
X166306762Y-80224322D01*
X166068667Y-80224322D01*
X167544857Y-79224322D02*
X167068667Y-79224322D01*
X167021048Y-79700513D01*
X167068667Y-79652894D01*
X167163905Y-79605275D01*
X167402000Y-79605275D01*
X167497238Y-79652894D01*
X167544857Y-79700513D01*
X167592476Y-79795751D01*
X167592476Y-80033846D01*
X167544857Y-80129084D01*
X167497238Y-80176703D01*
X167402000Y-80224322D01*
X167163905Y-80224322D01*
X167068667Y-80176703D01*
X167021048Y-80129084D01*
X168449619Y-79224322D02*
X168259143Y-79224322D01*
X168163905Y-79271942D01*
X168116286Y-79319561D01*
X168021048Y-79462418D01*
X167973429Y-79652894D01*
X167973429Y-80033846D01*
X168021048Y-80129084D01*
X168068667Y-80176703D01*
X168163905Y-80224322D01*
X168354381Y-80224322D01*
X168449619Y-80176703D01*
X168497238Y-80129084D01*
X168544857Y-80033846D01*
X168544857Y-79795751D01*
X168497238Y-79700513D01*
X168449619Y-79652894D01*
X168354381Y-79605275D01*
X168163905Y-79605275D01*
X168068667Y-79652894D01*
X168021048Y-79700513D01*
X167973429Y-79795751D01*
X166068667Y-98083712D02*
X166068667Y-97083712D01*
X166306762Y-97083712D01*
X166449619Y-97131332D01*
X166544857Y-97226570D01*
X166592476Y-97321808D01*
X166640095Y-97512284D01*
X166640095Y-97655141D01*
X166592476Y-97845617D01*
X166544857Y-97940855D01*
X166449619Y-98036093D01*
X166306762Y-98083712D01*
X166068667Y-98083712D01*
X167544857Y-97083712D02*
X167068667Y-97083712D01*
X167021048Y-97559903D01*
X167068667Y-97512284D01*
X167163905Y-97464665D01*
X167402000Y-97464665D01*
X167497238Y-97512284D01*
X167544857Y-97559903D01*
X167592476Y-97655141D01*
X167592476Y-97893236D01*
X167544857Y-97988474D01*
X167497238Y-98036093D01*
X167402000Y-98083712D01*
X167163905Y-98083712D01*
X167068667Y-98036093D01*
X167021048Y-97988474D01*
X167925810Y-97083712D02*
X168592476Y-97083712D01*
X168163905Y-98083712D01*
X166068667Y-115943102D02*
X166068667Y-114943102D01*
X166306762Y-114943102D01*
X166449619Y-114990722D01*
X166544857Y-115085960D01*
X166592476Y-115181198D01*
X166640095Y-115371674D01*
X166640095Y-115514531D01*
X166592476Y-115705007D01*
X166544857Y-115800245D01*
X166449619Y-115895483D01*
X166306762Y-115943102D01*
X166068667Y-115943102D01*
X167544857Y-114943102D02*
X167068667Y-114943102D01*
X167021048Y-115419293D01*
X167068667Y-115371674D01*
X167163905Y-115324055D01*
X167402000Y-115324055D01*
X167497238Y-115371674D01*
X167544857Y-115419293D01*
X167592476Y-115514531D01*
X167592476Y-115752626D01*
X167544857Y-115847864D01*
X167497238Y-115895483D01*
X167402000Y-115943102D01*
X167163905Y-115943102D01*
X167068667Y-115895483D01*
X167021048Y-115847864D01*
X168163905Y-115371674D02*
X168068667Y-115324055D01*
X168021048Y-115276436D01*
X167973429Y-115181198D01*
X167973429Y-115133579D01*
X168021048Y-115038341D01*
X168068667Y-114990722D01*
X168163905Y-114943102D01*
X168354381Y-114943102D01*
X168449619Y-114990722D01*
X168497238Y-115038341D01*
X168544857Y-115133579D01*
X168544857Y-115181198D01*
X168497238Y-115276436D01*
X168449619Y-115324055D01*
X168354381Y-115371674D01*
X168163905Y-115371674D01*
X168068667Y-115419293D01*
X168021048Y-115466912D01*
X167973429Y-115562150D01*
X167973429Y-115752626D01*
X168021048Y-115847864D01*
X168068667Y-115895483D01*
X168163905Y-115943102D01*
X168354381Y-115943102D01*
X168449619Y-115895483D01*
X168497238Y-115847864D01*
X168544857Y-115752626D01*
X168544857Y-115562150D01*
X168497238Y-115466912D01*
X168449619Y-115419293D01*
X168354381Y-115371674D01*
X179760866Y-133802492D02*
X179760866Y-132802492D01*
X179998961Y-132802492D01*
X180141818Y-132850112D01*
X180237056Y-132945350D01*
X180284675Y-133040588D01*
X180332294Y-133231064D01*
X180332294Y-133373921D01*
X180284675Y-133564397D01*
X180237056Y-133659635D01*
X180141818Y-133754873D01*
X179998961Y-133802492D01*
X179760866Y-133802492D01*
X181237056Y-132802492D02*
X180760866Y-132802492D01*
X180713247Y-133278683D01*
X180760866Y-133231064D01*
X180856104Y-133183445D01*
X181094199Y-133183445D01*
X181189437Y-133231064D01*
X181237056Y-133278683D01*
X181284675Y-133373921D01*
X181284675Y-133612016D01*
X181237056Y-133707254D01*
X181189437Y-133754873D01*
X181094199Y-133802492D01*
X180856104Y-133802492D01*
X180760866Y-133754873D01*
X180713247Y-133707254D01*
X181760866Y-133802492D02*
X181951342Y-133802492D01*
X182046580Y-133754873D01*
X182094199Y-133707254D01*
X182189437Y-133564397D01*
X182237056Y-133373921D01*
X182237056Y-132992969D01*
X182189437Y-132897731D01*
X182141818Y-132850112D01*
X182046580Y-132802492D01*
X181856104Y-132802492D01*
X181760866Y-132850112D01*
X181713247Y-132897731D01*
X181665628Y-132992969D01*
X181665628Y-133231064D01*
X181713247Y-133326302D01*
X181760866Y-133373921D01*
X181856104Y-133421540D01*
X182046580Y-133421540D01*
X182141818Y-133373921D01*
X182189437Y-133326302D01*
X182237056Y-133231064D01*
X154638447Y-145875344D02*
X153638447Y-145875344D01*
X153638447Y-145637249D01*
X153686067Y-145494392D01*
X153781305Y-145399154D01*
X153876543Y-145351535D01*
X154067019Y-145303916D01*
X154209876Y-145303916D01*
X154400352Y-145351535D01*
X154495590Y-145399154D01*
X154590828Y-145494392D01*
X154638447Y-145637249D01*
X154638447Y-145875344D01*
X153638447Y-144446773D02*
X153638447Y-144637249D01*
X153686067Y-144732487D01*
X153733686Y-144780106D01*
X153876543Y-144875344D01*
X154067019Y-144922963D01*
X154447971Y-144922963D01*
X154543209Y-144875344D01*
X154590828Y-144827725D01*
X154638447Y-144732487D01*
X154638447Y-144542011D01*
X154590828Y-144446773D01*
X154543209Y-144399154D01*
X154447971Y-144351535D01*
X154209876Y-144351535D01*
X154114638Y-144399154D01*
X154067019Y-144446773D01*
X154019400Y-144542011D01*
X154019400Y-144732487D01*
X154067019Y-144827725D01*
X154114638Y-144875344D01*
X154209876Y-144922963D01*
X153638447Y-143732487D02*
X153638447Y-143637249D01*
X153686067Y-143542011D01*
X153733686Y-143494392D01*
X153828924Y-143446773D01*
X154019400Y-143399154D01*
X154257495Y-143399154D01*
X154447971Y-143446773D01*
X154543209Y-143494392D01*
X154590828Y-143542011D01*
X154638447Y-143637249D01*
X154638447Y-143732487D01*
X154590828Y-143827725D01*
X154543209Y-143875344D01*
X154447971Y-143922963D01*
X154257495Y-143970582D01*
X154019400Y-143970582D01*
X153828924Y-143922963D01*
X153733686Y-143875344D01*
X153686067Y-143827725D01*
X153638447Y-143732487D01*
D11*
X111614953Y-126018375D02*
X111614953Y-124748375D01*
X112122953Y-125655518D01*
X112630953Y-124748375D01*
X112630953Y-126018375D01*
X113211524Y-124748375D02*
X114227524Y-126018375D01*
X114227524Y-124748375D02*
X113211524Y-126018375D01*
X114735524Y-124869328D02*
X114808096Y-124808852D01*
X114953238Y-124748375D01*
X115316096Y-124748375D01*
X115461238Y-124808852D01*
X115533810Y-124869328D01*
X115606381Y-124990280D01*
X115606381Y-125111232D01*
X115533810Y-125292661D01*
X114662953Y-126018375D01*
X115606381Y-126018375D01*
X116332096Y-126018375D02*
X116622381Y-126018375D01*
X116767524Y-125957899D01*
X116840096Y-125897423D01*
X116985238Y-125715994D01*
X117057810Y-125474090D01*
X117057810Y-124990280D01*
X116985238Y-124869328D01*
X116912667Y-124808852D01*
X116767524Y-124748375D01*
X116477238Y-124748375D01*
X116332096Y-124808852D01*
X116259524Y-124869328D01*
X116186953Y-124990280D01*
X116186953Y-125292661D01*
X116259524Y-125413613D01*
X116332096Y-125474090D01*
X116477238Y-125534566D01*
X116767524Y-125534566D01*
X116912667Y-125474090D01*
X116985238Y-125413613D01*
X117057810Y-125292661D01*
X111614953Y-145068391D02*
X111614953Y-143798391D01*
X112122953Y-144705534D01*
X112630953Y-143798391D01*
X112630953Y-145068391D01*
X113211524Y-143798391D02*
X114227524Y-145068391D01*
X114227524Y-143798391D02*
X113211524Y-145068391D01*
X114662953Y-143798391D02*
X115606381Y-143798391D01*
X115098381Y-144282201D01*
X115316096Y-144282201D01*
X115461238Y-144342677D01*
X115533810Y-144403153D01*
X115606381Y-144524106D01*
X115606381Y-144826487D01*
X115533810Y-144947439D01*
X115461238Y-145007915D01*
X115316096Y-145068391D01*
X114880667Y-145068391D01*
X114735524Y-145007915D01*
X114662953Y-144947439D01*
X116549810Y-143798391D02*
X116694953Y-143798391D01*
X116840096Y-143858868D01*
X116912667Y-143919344D01*
X116985238Y-144040296D01*
X117057810Y-144282201D01*
X117057810Y-144584582D01*
X116985238Y-144826487D01*
X116912667Y-144947439D01*
X116840096Y-145007915D01*
X116694953Y-145068391D01*
X116549810Y-145068391D01*
X116404667Y-145007915D01*
X116332096Y-144947439D01*
X116259524Y-144826487D01*
X116186953Y-144584582D01*
X116186953Y-144282201D01*
X116259524Y-144040296D01*
X116332096Y-143919344D01*
X116404667Y-143858868D01*
X116549810Y-143798391D01*
X206865033Y-68868327D02*
X206865033Y-67598327D01*
X207373033Y-68505470D01*
X207881033Y-67598327D01*
X207881033Y-68868327D01*
X208461604Y-67598327D02*
X209477604Y-68868327D01*
X209477604Y-67598327D02*
X208461604Y-68868327D01*
X210783890Y-67598327D02*
X210058176Y-67598327D01*
X209985604Y-68203089D01*
X210058176Y-68142613D01*
X210203318Y-68082137D01*
X210566176Y-68082137D01*
X210711318Y-68142613D01*
X210783890Y-68203089D01*
X210856461Y-68324042D01*
X210856461Y-68626423D01*
X210783890Y-68747375D01*
X210711318Y-68807851D01*
X210566176Y-68868327D01*
X210203318Y-68868327D01*
X210058176Y-68807851D01*
X209985604Y-68747375D01*
X212235318Y-67598327D02*
X211509604Y-67598327D01*
X211437033Y-68203089D01*
X211509604Y-68142613D01*
X211654747Y-68082137D01*
X212017604Y-68082137D01*
X212162747Y-68142613D01*
X212235318Y-68203089D01*
X212307890Y-68324042D01*
X212307890Y-68626423D01*
X212235318Y-68747375D01*
X212162747Y-68807851D01*
X212017604Y-68868327D01*
X211654747Y-68868327D01*
X211509604Y-68807851D01*
X211437033Y-68747375D01*
X187815017Y-68868327D02*
X187815017Y-67598327D01*
X188323017Y-68505470D01*
X188831017Y-67598327D01*
X188831017Y-68868327D01*
X189411588Y-67598327D02*
X190427588Y-68868327D01*
X190427588Y-67598327D02*
X189411588Y-68868327D01*
X191733874Y-67598327D02*
X191008160Y-67598327D01*
X190935588Y-68203089D01*
X191008160Y-68142613D01*
X191153302Y-68082137D01*
X191516160Y-68082137D01*
X191661302Y-68142613D01*
X191733874Y-68203089D01*
X191806445Y-68324042D01*
X191806445Y-68626423D01*
X191733874Y-68747375D01*
X191661302Y-68807851D01*
X191516160Y-68868327D01*
X191153302Y-68868327D01*
X191008160Y-68807851D01*
X190935588Y-68747375D01*
X193112731Y-67598327D02*
X192822445Y-67598327D01*
X192677302Y-67658804D01*
X192604731Y-67719280D01*
X192459588Y-67900708D01*
X192387017Y-68142613D01*
X192387017Y-68626423D01*
X192459588Y-68747375D01*
X192532160Y-68807851D01*
X192677302Y-68868327D01*
X192967588Y-68868327D01*
X193112731Y-68807851D01*
X193185302Y-68747375D01*
X193257874Y-68626423D01*
X193257874Y-68324042D01*
X193185302Y-68203089D01*
X193112731Y-68142613D01*
X192967588Y-68082137D01*
X192677302Y-68082137D01*
X192532160Y-68142613D01*
X192459588Y-68203089D01*
X192387017Y-68324042D01*
X187815017Y-87918343D02*
X187815017Y-86648343D01*
X188323017Y-87555486D01*
X188831017Y-86648343D01*
X188831017Y-87918343D01*
X189411588Y-86648343D02*
X190427588Y-87918343D01*
X190427588Y-86648343D02*
X189411588Y-87918343D01*
X191733874Y-86648343D02*
X191008160Y-86648343D01*
X190935588Y-87253105D01*
X191008160Y-87192629D01*
X191153302Y-87132153D01*
X191516160Y-87132153D01*
X191661302Y-87192629D01*
X191733874Y-87253105D01*
X191806445Y-87374058D01*
X191806445Y-87676439D01*
X191733874Y-87797391D01*
X191661302Y-87857867D01*
X191516160Y-87918343D01*
X191153302Y-87918343D01*
X191008160Y-87857867D01*
X190935588Y-87797391D01*
X192314445Y-86648343D02*
X193330445Y-86648343D01*
X192677302Y-87918343D01*
X187815017Y-106968359D02*
X187815017Y-105698359D01*
X188323017Y-106605502D01*
X188831017Y-105698359D01*
X188831017Y-106968359D01*
X189411588Y-105698359D02*
X190427588Y-106968359D01*
X190427588Y-105698359D02*
X189411588Y-106968359D01*
X191733874Y-105698359D02*
X191008160Y-105698359D01*
X190935588Y-106303121D01*
X191008160Y-106242645D01*
X191153302Y-106182169D01*
X191516160Y-106182169D01*
X191661302Y-106242645D01*
X191733874Y-106303121D01*
X191806445Y-106424074D01*
X191806445Y-106726455D01*
X191733874Y-106847407D01*
X191661302Y-106907883D01*
X191516160Y-106968359D01*
X191153302Y-106968359D01*
X191008160Y-106907883D01*
X190935588Y-106847407D01*
X192677302Y-106242645D02*
X192532160Y-106182169D01*
X192459588Y-106121693D01*
X192387017Y-106000740D01*
X192387017Y-105940264D01*
X192459588Y-105819312D01*
X192532160Y-105758836D01*
X192677302Y-105698359D01*
X192967588Y-105698359D01*
X193112731Y-105758836D01*
X193185302Y-105819312D01*
X193257874Y-105940264D01*
X193257874Y-106000740D01*
X193185302Y-106121693D01*
X193112731Y-106182169D01*
X192967588Y-106242645D01*
X192677302Y-106242645D01*
X192532160Y-106303121D01*
X192459588Y-106363597D01*
X192387017Y-106484550D01*
X192387017Y-106726455D01*
X192459588Y-106847407D01*
X192532160Y-106907883D01*
X192677302Y-106968359D01*
X192967588Y-106968359D01*
X193112731Y-106907883D01*
X193185302Y-106847407D01*
X193257874Y-106726455D01*
X193257874Y-106484550D01*
X193185302Y-106363597D01*
X193112731Y-106303121D01*
X192967588Y-106242645D01*
X187815017Y-126018375D02*
X187815017Y-124748375D01*
X188323017Y-125655518D01*
X188831017Y-124748375D01*
X188831017Y-126018375D01*
X189411588Y-124748375D02*
X190427588Y-126018375D01*
X190427588Y-124748375D02*
X189411588Y-126018375D01*
X191733874Y-124748375D02*
X191008160Y-124748375D01*
X190935588Y-125353137D01*
X191008160Y-125292661D01*
X191153302Y-125232185D01*
X191516160Y-125232185D01*
X191661302Y-125292661D01*
X191733874Y-125353137D01*
X191806445Y-125474090D01*
X191806445Y-125776471D01*
X191733874Y-125897423D01*
X191661302Y-125957899D01*
X191516160Y-126018375D01*
X191153302Y-126018375D01*
X191008160Y-125957899D01*
X190935588Y-125897423D01*
X192532160Y-126018375D02*
X192822445Y-126018375D01*
X192967588Y-125957899D01*
X193040160Y-125897423D01*
X193185302Y-125715994D01*
X193257874Y-125474090D01*
X193257874Y-124990280D01*
X193185302Y-124869328D01*
X193112731Y-124808852D01*
X192967588Y-124748375D01*
X192677302Y-124748375D01*
X192532160Y-124808852D01*
X192459588Y-124869328D01*
X192387017Y-124990280D01*
X192387017Y-125292661D01*
X192459588Y-125413613D01*
X192532160Y-125474090D01*
X192677302Y-125534566D01*
X192967588Y-125534566D01*
X193112731Y-125474090D01*
X193185302Y-125413613D01*
X193257874Y-125292661D01*
X187815017Y-145068391D02*
X187815017Y-143798391D01*
X188323017Y-144705534D01*
X188831017Y-143798391D01*
X188831017Y-145068391D01*
X189411588Y-143798391D02*
X190427588Y-145068391D01*
X190427588Y-143798391D02*
X189411588Y-145068391D01*
X191661302Y-143798391D02*
X191371017Y-143798391D01*
X191225874Y-143858868D01*
X191153302Y-143919344D01*
X191008160Y-144100772D01*
X190935588Y-144342677D01*
X190935588Y-144826487D01*
X191008160Y-144947439D01*
X191080731Y-145007915D01*
X191225874Y-145068391D01*
X191516160Y-145068391D01*
X191661302Y-145007915D01*
X191733874Y-144947439D01*
X191806445Y-144826487D01*
X191806445Y-144524106D01*
X191733874Y-144403153D01*
X191661302Y-144342677D01*
X191516160Y-144282201D01*
X191225874Y-144282201D01*
X191080731Y-144342677D01*
X191008160Y-144403153D01*
X190935588Y-144524106D01*
X192749874Y-143798391D02*
X192895017Y-143798391D01*
X193040160Y-143858868D01*
X193112731Y-143919344D01*
X193185302Y-144040296D01*
X193257874Y-144282201D01*
X193257874Y-144584582D01*
X193185302Y-144826487D01*
X193112731Y-144947439D01*
X193040160Y-145007915D01*
X192895017Y-145068391D01*
X192749874Y-145068391D01*
X192604731Y-145007915D01*
X192532160Y-144947439D01*
X192459588Y-144826487D01*
X192387017Y-144584582D01*
X192387017Y-144282201D01*
X192459588Y-144040296D01*
X192532160Y-143919344D01*
X192604731Y-143858868D01*
X192749874Y-143798391D01*
X100021659Y-132180275D02*
X100094230Y-132119799D01*
X100239373Y-132059322D01*
X100602230Y-132059322D01*
X100747373Y-132119799D01*
X100819945Y-132180275D01*
X100892516Y-132301227D01*
X100892516Y-132422179D01*
X100819945Y-132603608D01*
X99949088Y-133329322D01*
X100892516Y-133329322D01*
X102198802Y-132482656D02*
X102198802Y-133329322D01*
X101545659Y-132482656D02*
X101545659Y-133147894D01*
X101618230Y-133268846D01*
X101763373Y-133329322D01*
X101981088Y-133329322D01*
X102126230Y-133268846D01*
X102198802Y-133208370D01*
X102561659Y-133450275D02*
X103722802Y-133450275D01*
X104085659Y-133329322D02*
X104085659Y-132059322D01*
X104593659Y-132966465D01*
X105101659Y-132059322D01*
X105101659Y-133329322D01*
X105682230Y-132059322D02*
X106698230Y-133329322D01*
X106698230Y-132059322D02*
X105682230Y-133329322D01*
X107133659Y-132059322D02*
X108077088Y-132059322D01*
X107569088Y-132543132D01*
X107786802Y-132543132D01*
X107931945Y-132603608D01*
X108004516Y-132664084D01*
X108077088Y-132785037D01*
X108077088Y-133087418D01*
X108004516Y-133208370D01*
X107931945Y-133268846D01*
X107786802Y-133329322D01*
X107351373Y-133329322D01*
X107206230Y-133268846D01*
X107133659Y-133208370D01*
X109020516Y-132059322D02*
X109165659Y-132059322D01*
X109310802Y-132119799D01*
X109383373Y-132180275D01*
X109455945Y-132301227D01*
X109528516Y-132543132D01*
X109528516Y-132845513D01*
X109455945Y-133087418D01*
X109383373Y-133208370D01*
X109310802Y-133268846D01*
X109165659Y-133329322D01*
X109020516Y-133329322D01*
X108875373Y-133268846D01*
X108802802Y-133208370D01*
X108730230Y-133087418D01*
X108657659Y-132845513D01*
X108657659Y-132543132D01*
X108730230Y-132301227D01*
X108802802Y-132180275D01*
X108875373Y-132119799D01*
X109020516Y-132059322D01*
X195271739Y-132180275D02*
X195344310Y-132119799D01*
X195489453Y-132059322D01*
X195852310Y-132059322D01*
X195997453Y-132119799D01*
X196070025Y-132180275D01*
X196142596Y-132301227D01*
X196142596Y-132422179D01*
X196070025Y-132603608D01*
X195199168Y-133329322D01*
X196142596Y-133329322D01*
X197448882Y-132482656D02*
X197448882Y-133329322D01*
X196795739Y-132482656D02*
X196795739Y-133147894D01*
X196868310Y-133268846D01*
X197013453Y-133329322D01*
X197231168Y-133329322D01*
X197376310Y-133268846D01*
X197448882Y-133208370D01*
X197811739Y-133450275D02*
X198972882Y-133450275D01*
X199335739Y-133329322D02*
X199335739Y-132059322D01*
X199843739Y-132966465D01*
X200351739Y-132059322D01*
X200351739Y-133329322D01*
X200932310Y-132059322D02*
X201948310Y-133329322D01*
X201948310Y-132059322D02*
X200932310Y-133329322D01*
X203182025Y-132059322D02*
X202891739Y-132059322D01*
X202746596Y-132119799D01*
X202674025Y-132180275D01*
X202528882Y-132361703D01*
X202456310Y-132603608D01*
X202456310Y-133087418D01*
X202528882Y-133208370D01*
X202601453Y-133268846D01*
X202746596Y-133329322D01*
X203036882Y-133329322D01*
X203182025Y-133268846D01*
X203254596Y-133208370D01*
X203327168Y-133087418D01*
X203327168Y-132785037D01*
X203254596Y-132664084D01*
X203182025Y-132603608D01*
X203036882Y-132543132D01*
X202746596Y-132543132D01*
X202601453Y-132603608D01*
X202528882Y-132664084D01*
X202456310Y-132785037D01*
X204270596Y-132059322D02*
X204415739Y-132059322D01*
X204560882Y-132119799D01*
X204633453Y-132180275D01*
X204706025Y-132301227D01*
X204778596Y-132543132D01*
X204778596Y-132845513D01*
X204706025Y-133087418D01*
X204633453Y-133208370D01*
X204560882Y-133268846D01*
X204415739Y-133329322D01*
X204270596Y-133329322D01*
X204125453Y-133268846D01*
X204052882Y-133208370D01*
X203980310Y-133087418D01*
X203907739Y-132845513D01*
X203907739Y-132543132D01*
X203980310Y-132301227D01*
X204052882Y-132180275D01*
X204125453Y-132119799D01*
X204270596Y-132059322D01*
M02*
