G04 #@! TF.GenerationSoftware,KiCad,Pcbnew,(5.1.4-0-10_14)*
G04 #@! TF.CreationDate,2020-10-31T09:27:46+01:00*
G04 #@! TF.ProjectId,lumberjack,6c756d62-6572-46a6-9163-6b2e6b696361,rev?*
G04 #@! TF.SameCoordinates,Original*
G04 #@! TF.FileFunction,Legend,Top*
G04 #@! TF.FilePolarity,Positive*
%FSLAX46Y46*%
G04 Gerber Fmt 4.6, Leading zero omitted, Abs format (unit mm)*
G04 Created by KiCad (PCBNEW (5.1.4-0-10_14)) date 2020-10-31 09:27:46*
%MOMM*%
%LPD*%
G04 APERTURE LIST*
%ADD10C,0.100000*%
%ADD11C,0.150000*%
%ADD12C,0.120000*%
%ADD13C,0.203200*%
G04 APERTURE END LIST*
D10*
X148517174Y-78630952D02*
X148517174Y-78230952D01*
X148650507Y-78516666D01*
X148783841Y-78230952D01*
X148783841Y-78630952D01*
X148974317Y-78630952D02*
X148974317Y-78230952D01*
X149145746Y-78611904D02*
X149202888Y-78630952D01*
X149298126Y-78630952D01*
X149336222Y-78611904D01*
X149355269Y-78592857D01*
X149374317Y-78554761D01*
X149374317Y-78516666D01*
X149355269Y-78478571D01*
X149336222Y-78459523D01*
X149298126Y-78440476D01*
X149221936Y-78421428D01*
X149183841Y-78402380D01*
X149164793Y-78383333D01*
X149145746Y-78345238D01*
X149145746Y-78307142D01*
X149164793Y-78269047D01*
X149183841Y-78250000D01*
X149221936Y-78230952D01*
X149317174Y-78230952D01*
X149374317Y-78250000D01*
X149621936Y-78230952D02*
X149698126Y-78230952D01*
X149736222Y-78250000D01*
X149774317Y-78288095D01*
X149793365Y-78364285D01*
X149793365Y-78497619D01*
X149774317Y-78573809D01*
X149736222Y-78611904D01*
X149698126Y-78630952D01*
X149621936Y-78630952D01*
X149583841Y-78611904D01*
X149545746Y-78573809D01*
X149526698Y-78497619D01*
X149526698Y-78364285D01*
X149545746Y-78288095D01*
X149583841Y-78250000D01*
X149621936Y-78230952D01*
X145929555Y-78611904D02*
X145986698Y-78630952D01*
X146081936Y-78630952D01*
X146120031Y-78611904D01*
X146139079Y-78592857D01*
X146158126Y-78554761D01*
X146158126Y-78516666D01*
X146139079Y-78478571D01*
X146120031Y-78459523D01*
X146081936Y-78440476D01*
X146005746Y-78421428D01*
X145967650Y-78402380D01*
X145948603Y-78383333D01*
X145929555Y-78345238D01*
X145929555Y-78307142D01*
X145948603Y-78269047D01*
X145967650Y-78250000D01*
X146005746Y-78230952D01*
X146100984Y-78230952D01*
X146158126Y-78250000D01*
X146558126Y-78592857D02*
X146539079Y-78611904D01*
X146481936Y-78630952D01*
X146443841Y-78630952D01*
X146386698Y-78611904D01*
X146348603Y-78573809D01*
X146329555Y-78535714D01*
X146310507Y-78459523D01*
X146310507Y-78402380D01*
X146329555Y-78326190D01*
X146348603Y-78288095D01*
X146386698Y-78250000D01*
X146443841Y-78230952D01*
X146481936Y-78230952D01*
X146539079Y-78250000D01*
X146558126Y-78269047D01*
X146920031Y-78630952D02*
X146729555Y-78630952D01*
X146729555Y-78230952D01*
X147053365Y-78630952D02*
X147053365Y-78230952D01*
X147281936Y-78630952D02*
X147110507Y-78402380D01*
X147281936Y-78230952D02*
X147053365Y-78459523D01*
X145977174Y-84715398D02*
X145977174Y-84315398D01*
X146110507Y-84601112D01*
X146243841Y-84315398D01*
X146243841Y-84715398D01*
X146510507Y-84315398D02*
X146586698Y-84315398D01*
X146624793Y-84334446D01*
X146662888Y-84372541D01*
X146681936Y-84448731D01*
X146681936Y-84582065D01*
X146662888Y-84658255D01*
X146624793Y-84696350D01*
X146586698Y-84715398D01*
X146510507Y-84715398D01*
X146472412Y-84696350D01*
X146434317Y-84658255D01*
X146415269Y-84582065D01*
X146415269Y-84448731D01*
X146434317Y-84372541D01*
X146472412Y-84334446D01*
X146510507Y-84315398D01*
X146834317Y-84696350D02*
X146891460Y-84715398D01*
X146986698Y-84715398D01*
X147024793Y-84696350D01*
X147043841Y-84677303D01*
X147062888Y-84639207D01*
X147062888Y-84601112D01*
X147043841Y-84563017D01*
X147024793Y-84543969D01*
X146986698Y-84524922D01*
X146910507Y-84505874D01*
X146872412Y-84486826D01*
X146853365Y-84467779D01*
X146834317Y-84429684D01*
X146834317Y-84391588D01*
X146853365Y-84353493D01*
X146872412Y-84334446D01*
X146910507Y-84315398D01*
X147005746Y-84315398D01*
X147062888Y-84334446D01*
X147234317Y-84715398D02*
X147234317Y-84315398D01*
X148612412Y-84315398D02*
X148745746Y-84715398D01*
X148879079Y-84315398D01*
X149240984Y-84677303D02*
X149221936Y-84696350D01*
X149164793Y-84715398D01*
X149126698Y-84715398D01*
X149069555Y-84696350D01*
X149031460Y-84658255D01*
X149012412Y-84620160D01*
X148993365Y-84543969D01*
X148993365Y-84486826D01*
X149012412Y-84410636D01*
X149031460Y-84372541D01*
X149069555Y-84334446D01*
X149126698Y-84315398D01*
X149164793Y-84315398D01*
X149221936Y-84334446D01*
X149240984Y-84353493D01*
X149640984Y-84677303D02*
X149621936Y-84696350D01*
X149564793Y-84715398D01*
X149526698Y-84715398D01*
X149469555Y-84696350D01*
X149431460Y-84658255D01*
X149412412Y-84620160D01*
X149393365Y-84543969D01*
X149393365Y-84486826D01*
X149412412Y-84410636D01*
X149431460Y-84372541D01*
X149469555Y-84334446D01*
X149526698Y-84315398D01*
X149564793Y-84315398D01*
X149621936Y-84334446D01*
X149640984Y-84353493D01*
X143765238Y-84334446D02*
X143727142Y-84315398D01*
X143670000Y-84315398D01*
X143612857Y-84334446D01*
X143574761Y-84372541D01*
X143555714Y-84410636D01*
X143536666Y-84486826D01*
X143536666Y-84543969D01*
X143555714Y-84620160D01*
X143574761Y-84658255D01*
X143612857Y-84696350D01*
X143670000Y-84715398D01*
X143708095Y-84715398D01*
X143765238Y-84696350D01*
X143784285Y-84677303D01*
X143784285Y-84543969D01*
X143708095Y-84543969D01*
X143955714Y-84715398D02*
X143955714Y-84315398D01*
X144184285Y-84715398D01*
X144184285Y-84315398D01*
X144374761Y-84715398D02*
X144374761Y-84315398D01*
X144470000Y-84315398D01*
X144527142Y-84334446D01*
X144565238Y-84372541D01*
X144584285Y-84410636D01*
X144603333Y-84486826D01*
X144603333Y-84543969D01*
X144584285Y-84620160D01*
X144565238Y-84658255D01*
X144527142Y-84696350D01*
X144470000Y-84715398D01*
X144374761Y-84715398D01*
X143489047Y-78630952D02*
X143355714Y-78440476D01*
X143260476Y-78630952D02*
X143260476Y-78230952D01*
X143412857Y-78230952D01*
X143450952Y-78250000D01*
X143470000Y-78269047D01*
X143489047Y-78307142D01*
X143489047Y-78364285D01*
X143470000Y-78402380D01*
X143450952Y-78421428D01*
X143412857Y-78440476D01*
X143260476Y-78440476D01*
X143660476Y-78421428D02*
X143793809Y-78421428D01*
X143850952Y-78630952D02*
X143660476Y-78630952D01*
X143660476Y-78230952D01*
X143850952Y-78230952D01*
X144003333Y-78611904D02*
X144060476Y-78630952D01*
X144155714Y-78630952D01*
X144193809Y-78611904D01*
X144212857Y-78592857D01*
X144231904Y-78554761D01*
X144231904Y-78516666D01*
X144212857Y-78478571D01*
X144193809Y-78459523D01*
X144155714Y-78440476D01*
X144079523Y-78421428D01*
X144041428Y-78402380D01*
X144022380Y-78383333D01*
X144003333Y-78345238D01*
X144003333Y-78307142D01*
X144022380Y-78269047D01*
X144041428Y-78250000D01*
X144079523Y-78230952D01*
X144174761Y-78230952D01*
X144231904Y-78250000D01*
X144403333Y-78421428D02*
X144536666Y-78421428D01*
X144593809Y-78630952D02*
X144403333Y-78630952D01*
X144403333Y-78230952D01*
X144593809Y-78230952D01*
X144708095Y-78230952D02*
X144936666Y-78230952D01*
X144822380Y-78630952D02*
X144822380Y-78230952D01*
D11*
X151989467Y-82546523D02*
X150989467Y-82546523D01*
X151941848Y-82117952D02*
X151989467Y-81975094D01*
X151989467Y-81736999D01*
X151941848Y-81641761D01*
X151894229Y-81594142D01*
X151798991Y-81546523D01*
X151703753Y-81546523D01*
X151608515Y-81594142D01*
X151560896Y-81641761D01*
X151513277Y-81736999D01*
X151465658Y-81927475D01*
X151418039Y-82022713D01*
X151370420Y-82070333D01*
X151275182Y-82117952D01*
X151179944Y-82117952D01*
X151084706Y-82070333D01*
X151037087Y-82022713D01*
X150989467Y-81927475D01*
X150989467Y-81689380D01*
X151037087Y-81546523D01*
X151989467Y-81117952D02*
X150989467Y-81117952D01*
X150989467Y-80736999D01*
X151037087Y-80641761D01*
X151084706Y-80594142D01*
X151179944Y-80546523D01*
X151322801Y-80546523D01*
X151418039Y-80594142D01*
X151465658Y-80641761D01*
X151513277Y-80736999D01*
X151513277Y-81117952D01*
D12*
X169568266Y-117347287D02*
X169568266Y-119587287D01*
X169568266Y-119587287D02*
X173808266Y-119587287D01*
X173808266Y-119587287D02*
X173808266Y-117347287D01*
X173808266Y-117347287D02*
X169568266Y-117347287D01*
X168918266Y-118467287D02*
X169568266Y-118467287D01*
X174458266Y-118467287D02*
X173808266Y-118467287D01*
X170288266Y-117347287D02*
X170288266Y-119587287D01*
X170408266Y-117347287D02*
X170408266Y-119587287D01*
X170168266Y-117347287D02*
X170168266Y-119587287D01*
X171949518Y-66745682D02*
X171949518Y-68985682D01*
X171949518Y-68985682D02*
X176189518Y-68985682D01*
X176189518Y-68985682D02*
X176189518Y-66745682D01*
X176189518Y-66745682D02*
X171949518Y-66745682D01*
X171299518Y-67865682D02*
X171949518Y-67865682D01*
X176839518Y-67865682D02*
X176189518Y-67865682D01*
X172669518Y-66745682D02*
X172669518Y-68985682D01*
X172789518Y-66745682D02*
X172789518Y-68985682D01*
X172549518Y-66745682D02*
X172549518Y-68985682D01*
X132250738Y-74938812D02*
X132250738Y-72698812D01*
X132010738Y-74938812D02*
X132010738Y-72698812D01*
X132130738Y-74938812D02*
X132130738Y-72698812D01*
X127960738Y-73818812D02*
X128610738Y-73818812D01*
X133500738Y-73818812D02*
X132850738Y-73818812D01*
X128610738Y-74938812D02*
X132850738Y-74938812D01*
X128610738Y-72698812D02*
X128610738Y-74938812D01*
X132850738Y-72698812D02*
X128610738Y-72698812D01*
X132850738Y-74938812D02*
X132850738Y-72698812D01*
X148412311Y-127992295D02*
G75*
G03X148412311Y-127992295I-2120000J0D01*
G01*
X146292311Y-127152295D02*
X146292311Y-125912295D01*
X146292311Y-130072295D02*
X146292311Y-128832295D01*
X146252311Y-127152295D02*
X146252311Y-125912295D01*
X146252311Y-130072295D02*
X146252311Y-128832295D01*
X146212311Y-127152295D02*
X146212311Y-125913295D01*
X146212311Y-130071295D02*
X146212311Y-128832295D01*
X146172311Y-130069295D02*
X146172311Y-128832295D01*
X146172311Y-127152295D02*
X146172311Y-125915295D01*
X146132311Y-130066295D02*
X146132311Y-128832295D01*
X146132311Y-127152295D02*
X146132311Y-125918295D01*
X146092311Y-130063295D02*
X146092311Y-128832295D01*
X146092311Y-127152295D02*
X146092311Y-125921295D01*
X146052311Y-130059295D02*
X146052311Y-128832295D01*
X146052311Y-127152295D02*
X146052311Y-125925295D01*
X146012311Y-130054295D02*
X146012311Y-128832295D01*
X146012311Y-127152295D02*
X146012311Y-125930295D01*
X145972311Y-130048295D02*
X145972311Y-128832295D01*
X145972311Y-127152295D02*
X145972311Y-125936295D01*
X145932311Y-130042295D02*
X145932311Y-128832295D01*
X145932311Y-127152295D02*
X145932311Y-125942295D01*
X145892311Y-130034295D02*
X145892311Y-128832295D01*
X145892311Y-127152295D02*
X145892311Y-125950295D01*
X145852311Y-130026295D02*
X145852311Y-128832295D01*
X145852311Y-127152295D02*
X145852311Y-125958295D01*
X145812311Y-130017295D02*
X145812311Y-128832295D01*
X145812311Y-127152295D02*
X145812311Y-125967295D01*
X145772311Y-130008295D02*
X145772311Y-128832295D01*
X145772311Y-127152295D02*
X145772311Y-125976295D01*
X145732311Y-129997295D02*
X145732311Y-128832295D01*
X145732311Y-127152295D02*
X145732311Y-125987295D01*
X145692311Y-129986295D02*
X145692311Y-128832295D01*
X145692311Y-127152295D02*
X145692311Y-125998295D01*
X145652311Y-129974295D02*
X145652311Y-128832295D01*
X145652311Y-127152295D02*
X145652311Y-126010295D01*
X145612311Y-129960295D02*
X145612311Y-128832295D01*
X145612311Y-127152295D02*
X145612311Y-126024295D01*
X145571311Y-129946295D02*
X145571311Y-128832295D01*
X145571311Y-127152295D02*
X145571311Y-126038295D01*
X145531311Y-129932295D02*
X145531311Y-128832295D01*
X145531311Y-127152295D02*
X145531311Y-126052295D01*
X145491311Y-129916295D02*
X145491311Y-128832295D01*
X145491311Y-127152295D02*
X145491311Y-126068295D01*
X145451311Y-129899295D02*
X145451311Y-128832295D01*
X145451311Y-127152295D02*
X145451311Y-126085295D01*
X145411311Y-129881295D02*
X145411311Y-128832295D01*
X145411311Y-127152295D02*
X145411311Y-126103295D01*
X145371311Y-129862295D02*
X145371311Y-128832295D01*
X145371311Y-127152295D02*
X145371311Y-126122295D01*
X145331311Y-129843295D02*
X145331311Y-128832295D01*
X145331311Y-127152295D02*
X145331311Y-126141295D01*
X145291311Y-129822295D02*
X145291311Y-128832295D01*
X145291311Y-127152295D02*
X145291311Y-126162295D01*
X145251311Y-129800295D02*
X145251311Y-128832295D01*
X145251311Y-127152295D02*
X145251311Y-126184295D01*
X145211311Y-129777295D02*
X145211311Y-128832295D01*
X145211311Y-127152295D02*
X145211311Y-126207295D01*
X145171311Y-129752295D02*
X145171311Y-128832295D01*
X145171311Y-127152295D02*
X145171311Y-126232295D01*
X145131311Y-129727295D02*
X145131311Y-128832295D01*
X145131311Y-127152295D02*
X145131311Y-126257295D01*
X145091311Y-129700295D02*
X145091311Y-128832295D01*
X145091311Y-127152295D02*
X145091311Y-126284295D01*
X145051311Y-129672295D02*
X145051311Y-128832295D01*
X145051311Y-127152295D02*
X145051311Y-126312295D01*
X145011311Y-129642295D02*
X145011311Y-128832295D01*
X145011311Y-127152295D02*
X145011311Y-126342295D01*
X144971311Y-129611295D02*
X144971311Y-128832295D01*
X144971311Y-127152295D02*
X144971311Y-126373295D01*
X144931311Y-129579295D02*
X144931311Y-128832295D01*
X144931311Y-127152295D02*
X144931311Y-126405295D01*
X144891311Y-129544295D02*
X144891311Y-128832295D01*
X144891311Y-127152295D02*
X144891311Y-126440295D01*
X144851311Y-129508295D02*
X144851311Y-128832295D01*
X144851311Y-127152295D02*
X144851311Y-126476295D01*
X144811311Y-129470295D02*
X144811311Y-128832295D01*
X144811311Y-127152295D02*
X144811311Y-126514295D01*
X144771311Y-129430295D02*
X144771311Y-128832295D01*
X144771311Y-127152295D02*
X144771311Y-126554295D01*
X144731311Y-129388295D02*
X144731311Y-128832295D01*
X144731311Y-127152295D02*
X144731311Y-126596295D01*
X144691311Y-129343295D02*
X144691311Y-126641295D01*
X144651311Y-129296295D02*
X144651311Y-126688295D01*
X144611311Y-129246295D02*
X144611311Y-126738295D01*
X144571311Y-129192295D02*
X144571311Y-126792295D01*
X144531311Y-129134295D02*
X144531311Y-126850295D01*
X144491311Y-129072295D02*
X144491311Y-126912295D01*
X144451311Y-129005295D02*
X144451311Y-126979295D01*
X144411311Y-128932295D02*
X144411311Y-127052295D01*
X144371311Y-128851295D02*
X144371311Y-127133295D01*
X144331311Y-128760295D02*
X144331311Y-127224295D01*
X144291311Y-128656295D02*
X144291311Y-127328295D01*
X144251311Y-128529295D02*
X144251311Y-127455295D01*
X144211311Y-128362295D02*
X144211311Y-127622295D01*
X148562112Y-129187295D02*
X148162112Y-129187295D01*
X148362112Y-129387295D02*
X148362112Y-128987295D01*
X155964510Y-125731669D02*
X160504510Y-125731669D01*
X155964510Y-127871669D02*
X160504510Y-127871669D01*
X155964510Y-125731669D02*
X155964510Y-125746669D01*
X155964510Y-127856669D02*
X155964510Y-127871669D01*
X160504510Y-125731669D02*
X160504510Y-125746669D01*
X160504510Y-127856669D02*
X160504510Y-127871669D01*
X160504510Y-130833234D02*
X160504510Y-130848234D01*
X160504510Y-128708234D02*
X160504510Y-128723234D01*
X155964510Y-130833234D02*
X155964510Y-130848234D01*
X155964510Y-128708234D02*
X155964510Y-128723234D01*
X155964510Y-130848234D02*
X160504510Y-130848234D01*
X155964510Y-128708234D02*
X160504510Y-128708234D01*
X143145746Y-94680454D02*
X143145746Y-95938454D01*
X144985746Y-94680454D02*
X144985746Y-95938454D01*
X144985746Y-89322637D02*
X144985746Y-90580637D01*
X143145746Y-89322637D02*
X143145746Y-90580637D01*
X153234510Y-111504783D02*
X154945510Y-111504783D01*
X156323510Y-111504783D02*
X163134510Y-111504783D01*
X153234510Y-114704783D02*
X160046510Y-114704783D01*
X161423510Y-114704783D02*
X163134510Y-114704783D01*
X153234510Y-111504783D02*
X153234510Y-114704783D01*
X163134510Y-111504783D02*
X163134510Y-114704783D01*
X150475746Y-84078507D02*
X150475746Y-78878507D01*
X145335746Y-84078507D02*
X150475746Y-84078507D01*
X142735746Y-78878507D02*
X150475746Y-78878507D01*
X145335746Y-84078507D02*
X145335746Y-81478507D01*
X145335746Y-81478507D02*
X142735746Y-81478507D01*
X142735746Y-81478507D02*
X142735746Y-78878507D01*
X144065746Y-84078507D02*
X142735746Y-84078507D01*
X142735746Y-84078507D02*
X142735746Y-82748507D01*
X157355610Y-64777099D02*
G75*
G03X160587945Y-64934007I1672335J1078608D01*
G01*
X157355610Y-62619883D02*
G75*
G02X160587945Y-62462975I1672335J-1078608D01*
G01*
X157986815Y-64778328D02*
G75*
G03X160068906Y-64778491I1041130J1079837D01*
G01*
X157986815Y-62618654D02*
G75*
G02X160068906Y-62618491I1041130J-1079837D01*
G01*
X160587945Y-64934491D02*
X160587945Y-64778491D01*
X160587945Y-62618491D02*
X160587945Y-62462491D01*
X147312937Y-116983852D02*
X147312937Y-120823852D01*
X149152937Y-116983852D02*
X149152937Y-120823852D01*
X160114510Y-109862279D02*
X156274510Y-109862279D01*
X160114510Y-108022279D02*
X156274510Y-108022279D01*
X160114510Y-107481027D02*
X156274510Y-107481027D01*
X160114510Y-105641027D02*
X156274510Y-105641027D01*
X151534189Y-120823852D02*
X151534189Y-116983852D01*
X149694189Y-120823852D02*
X149694189Y-116983852D01*
X161027319Y-59260674D02*
X157187319Y-59260674D01*
X161027319Y-57420674D02*
X157187319Y-57420674D01*
X149565746Y-74604751D02*
X149565746Y-70104751D01*
X145565746Y-75854751D02*
X147065746Y-75854751D01*
X143065746Y-70104751D02*
X143065746Y-74604751D01*
X147065746Y-68854751D02*
X145565746Y-68854751D01*
X147065746Y-100406340D02*
X145565746Y-100406340D01*
X143065746Y-101656340D02*
X143065746Y-106156340D01*
X145565746Y-107406340D02*
X147065746Y-107406340D01*
X149565746Y-106156340D02*
X149565746Y-101656340D01*
X151353250Y-89132263D02*
X151353250Y-95532263D01*
X146303250Y-89132263D02*
X146303250Y-95532263D01*
X146303250Y-89132263D02*
G75*
G02X151353250Y-89132263I2525000J0D01*
G01*
X146303250Y-95532263D02*
G75*
G03X151353250Y-95532263I2525000J0D01*
G01*
X159591380Y-67726308D02*
G75*
G02X157591380Y-67726308I-1000000J0D01*
G01*
X157591380Y-67726308D02*
X155941380Y-67726308D01*
X155941380Y-67726308D02*
X155941380Y-103406308D01*
X155941380Y-103406308D02*
X161241380Y-103406308D01*
X161241380Y-103406308D02*
X161241380Y-67726308D01*
X161241380Y-67726308D02*
X159591380Y-67726308D01*
X146376372Y-116585409D02*
X144136372Y-116585409D01*
X144136372Y-116585409D02*
X144136372Y-120825409D01*
X144136372Y-120825409D02*
X146376372Y-120825409D01*
X146376372Y-120825409D02*
X146376372Y-116585409D01*
X145256372Y-115935409D02*
X145256372Y-116585409D01*
X145256372Y-121475409D02*
X145256372Y-120825409D01*
X146376372Y-117305409D02*
X144136372Y-117305409D01*
X146376372Y-117425409D02*
X144136372Y-117425409D01*
X146376372Y-117185409D02*
X144136372Y-117185409D01*
X143399807Y-117185409D02*
X141159807Y-117185409D01*
X143399807Y-117425409D02*
X141159807Y-117425409D01*
X143399807Y-117305409D02*
X141159807Y-117305409D01*
X142279807Y-121475409D02*
X142279807Y-120825409D01*
X142279807Y-115935409D02*
X142279807Y-116585409D01*
X143399807Y-120825409D02*
X143399807Y-116585409D01*
X141159807Y-120825409D02*
X143399807Y-120825409D01*
X141159807Y-116585409D02*
X141159807Y-120825409D01*
X143399807Y-116585409D02*
X141159807Y-116585409D01*
X135231990Y-66009117D02*
X135231990Y-63769117D01*
X135231990Y-63769117D02*
X130991990Y-63769117D01*
X130991990Y-63769117D02*
X130991990Y-66009117D01*
X130991990Y-66009117D02*
X135231990Y-66009117D01*
X135881990Y-64889117D02*
X135231990Y-64889117D01*
X130341990Y-64889117D02*
X130991990Y-64889117D01*
X134511990Y-66009117D02*
X134511990Y-63769117D01*
X134391990Y-66009117D02*
X134391990Y-63769117D01*
X134631990Y-66009117D02*
X134631990Y-63769117D01*
X132850738Y-68985682D02*
X132850738Y-66745682D01*
X132850738Y-66745682D02*
X128610738Y-66745682D01*
X128610738Y-66745682D02*
X128610738Y-68985682D01*
X128610738Y-68985682D02*
X132850738Y-68985682D01*
X133500738Y-67865682D02*
X132850738Y-67865682D01*
X127960738Y-67865682D02*
X128610738Y-67865682D01*
X132130738Y-68985682D02*
X132130738Y-66745682D01*
X132010738Y-68985682D02*
X132010738Y-66745682D01*
X132250738Y-68985682D02*
X132250738Y-66745682D01*
X134631990Y-71962247D02*
X134631990Y-69722247D01*
X134391990Y-71962247D02*
X134391990Y-69722247D01*
X134511990Y-71962247D02*
X134511990Y-69722247D01*
X130341990Y-70842247D02*
X130991990Y-70842247D01*
X135881990Y-70842247D02*
X135231990Y-70842247D01*
X130991990Y-71962247D02*
X135231990Y-71962247D01*
X130991990Y-69722247D02*
X130991990Y-71962247D01*
X135231990Y-69722247D02*
X130991990Y-69722247D01*
X135231990Y-71962247D02*
X135231990Y-69722247D01*
X135231990Y-77915377D02*
X135231990Y-75675377D01*
X135231990Y-75675377D02*
X130991990Y-75675377D01*
X130991990Y-75675377D02*
X130991990Y-77915377D01*
X130991990Y-77915377D02*
X135231990Y-77915377D01*
X135881990Y-76795377D02*
X135231990Y-76795377D01*
X130341990Y-76795377D02*
X130991990Y-76795377D01*
X134511990Y-77915377D02*
X134511990Y-75675377D01*
X134391990Y-77915377D02*
X134391990Y-75675377D01*
X134631990Y-77915377D02*
X134631990Y-75675377D01*
X169568266Y-63769117D02*
X169568266Y-66009117D01*
X169568266Y-66009117D02*
X173808266Y-66009117D01*
X173808266Y-66009117D02*
X173808266Y-63769117D01*
X173808266Y-63769117D02*
X169568266Y-63769117D01*
X168918266Y-64889117D02*
X169568266Y-64889117D01*
X174458266Y-64889117D02*
X173808266Y-64889117D01*
X170288266Y-63769117D02*
X170288266Y-66009117D01*
X170408266Y-63769117D02*
X170408266Y-66009117D01*
X170168266Y-63769117D02*
X170168266Y-66009117D01*
X170168266Y-69722247D02*
X170168266Y-71962247D01*
X170408266Y-69722247D02*
X170408266Y-71962247D01*
X170288266Y-69722247D02*
X170288266Y-71962247D01*
X174458266Y-70842247D02*
X173808266Y-70842247D01*
X168918266Y-70842247D02*
X169568266Y-70842247D01*
X173808266Y-69722247D02*
X169568266Y-69722247D01*
X173808266Y-71962247D02*
X173808266Y-69722247D01*
X169568266Y-71962247D02*
X173808266Y-71962247D01*
X169568266Y-69722247D02*
X169568266Y-71962247D01*
X171949518Y-72698812D02*
X171949518Y-74938812D01*
X171949518Y-74938812D02*
X176189518Y-74938812D01*
X176189518Y-74938812D02*
X176189518Y-72698812D01*
X176189518Y-72698812D02*
X171949518Y-72698812D01*
X171299518Y-73818812D02*
X171949518Y-73818812D01*
X176839518Y-73818812D02*
X176189518Y-73818812D01*
X172669518Y-72698812D02*
X172669518Y-74938812D01*
X172789518Y-72698812D02*
X172789518Y-74938812D01*
X172549518Y-72698812D02*
X172549518Y-74938812D01*
X135231990Y-83868507D02*
X135231990Y-81628507D01*
X135231990Y-81628507D02*
X130991990Y-81628507D01*
X130991990Y-81628507D02*
X130991990Y-83868507D01*
X130991990Y-83868507D02*
X135231990Y-83868507D01*
X135881990Y-82748507D02*
X135231990Y-82748507D01*
X130341990Y-82748507D02*
X130991990Y-82748507D01*
X134511990Y-83868507D02*
X134511990Y-81628507D01*
X134391990Y-83868507D02*
X134391990Y-81628507D01*
X134631990Y-83868507D02*
X134631990Y-81628507D01*
X132850738Y-86845072D02*
X132850738Y-84605072D01*
X132850738Y-84605072D02*
X128610738Y-84605072D01*
X128610738Y-84605072D02*
X128610738Y-86845072D01*
X128610738Y-86845072D02*
X132850738Y-86845072D01*
X133500738Y-85725072D02*
X132850738Y-85725072D01*
X127960738Y-85725072D02*
X128610738Y-85725072D01*
X132130738Y-86845072D02*
X132130738Y-84605072D01*
X132010738Y-86845072D02*
X132010738Y-84605072D01*
X132250738Y-86845072D02*
X132250738Y-84605072D01*
X134631990Y-89821637D02*
X134631990Y-87581637D01*
X134391990Y-89821637D02*
X134391990Y-87581637D01*
X134511990Y-89821637D02*
X134511990Y-87581637D01*
X130341990Y-88701637D02*
X130991990Y-88701637D01*
X135881990Y-88701637D02*
X135231990Y-88701637D01*
X130991990Y-89821637D02*
X135231990Y-89821637D01*
X130991990Y-87581637D02*
X130991990Y-89821637D01*
X135231990Y-87581637D02*
X130991990Y-87581637D01*
X135231990Y-89821637D02*
X135231990Y-87581637D01*
X132250738Y-92798202D02*
X132250738Y-90558202D01*
X132010738Y-92798202D02*
X132010738Y-90558202D01*
X132130738Y-92798202D02*
X132130738Y-90558202D01*
X127960738Y-91678202D02*
X128610738Y-91678202D01*
X133500738Y-91678202D02*
X132850738Y-91678202D01*
X128610738Y-92798202D02*
X132850738Y-92798202D01*
X128610738Y-90558202D02*
X128610738Y-92798202D01*
X132850738Y-90558202D02*
X128610738Y-90558202D01*
X132850738Y-92798202D02*
X132850738Y-90558202D01*
X132850738Y-80891942D02*
X132850738Y-78651942D01*
X132850738Y-78651942D02*
X128610738Y-78651942D01*
X128610738Y-78651942D02*
X128610738Y-80891942D01*
X128610738Y-80891942D02*
X132850738Y-80891942D01*
X133500738Y-79771942D02*
X132850738Y-79771942D01*
X127960738Y-79771942D02*
X128610738Y-79771942D01*
X132130738Y-80891942D02*
X132130738Y-78651942D01*
X132010738Y-80891942D02*
X132010738Y-78651942D01*
X132250738Y-80891942D02*
X132250738Y-78651942D01*
X170168266Y-81628507D02*
X170168266Y-83868507D01*
X170408266Y-81628507D02*
X170408266Y-83868507D01*
X170288266Y-81628507D02*
X170288266Y-83868507D01*
X174458266Y-82748507D02*
X173808266Y-82748507D01*
X168918266Y-82748507D02*
X169568266Y-82748507D01*
X173808266Y-81628507D02*
X169568266Y-81628507D01*
X173808266Y-83868507D02*
X173808266Y-81628507D01*
X169568266Y-83868507D02*
X173808266Y-83868507D01*
X169568266Y-81628507D02*
X169568266Y-83868507D01*
X171949518Y-84605072D02*
X171949518Y-86845072D01*
X171949518Y-86845072D02*
X176189518Y-86845072D01*
X176189518Y-86845072D02*
X176189518Y-84605072D01*
X176189518Y-84605072D02*
X171949518Y-84605072D01*
X171299518Y-85725072D02*
X171949518Y-85725072D01*
X176839518Y-85725072D02*
X176189518Y-85725072D01*
X172669518Y-84605072D02*
X172669518Y-86845072D01*
X172789518Y-84605072D02*
X172789518Y-86845072D01*
X172549518Y-84605072D02*
X172549518Y-86845072D01*
X169568266Y-87581637D02*
X169568266Y-89821637D01*
X169568266Y-89821637D02*
X173808266Y-89821637D01*
X173808266Y-89821637D02*
X173808266Y-87581637D01*
X173808266Y-87581637D02*
X169568266Y-87581637D01*
X168918266Y-88701637D02*
X169568266Y-88701637D01*
X174458266Y-88701637D02*
X173808266Y-88701637D01*
X170288266Y-87581637D02*
X170288266Y-89821637D01*
X170408266Y-87581637D02*
X170408266Y-89821637D01*
X170168266Y-87581637D02*
X170168266Y-89821637D01*
X171949518Y-90558202D02*
X171949518Y-92798202D01*
X171949518Y-92798202D02*
X176189518Y-92798202D01*
X176189518Y-92798202D02*
X176189518Y-90558202D01*
X176189518Y-90558202D02*
X171949518Y-90558202D01*
X171299518Y-91678202D02*
X171949518Y-91678202D01*
X176839518Y-91678202D02*
X176189518Y-91678202D01*
X172669518Y-90558202D02*
X172669518Y-92798202D01*
X172789518Y-90558202D02*
X172789518Y-92798202D01*
X172549518Y-90558202D02*
X172549518Y-92798202D01*
X132250738Y-101727897D02*
X132250738Y-99487897D01*
X132010738Y-101727897D02*
X132010738Y-99487897D01*
X132130738Y-101727897D02*
X132130738Y-99487897D01*
X127960738Y-100607897D02*
X128610738Y-100607897D01*
X133500738Y-100607897D02*
X132850738Y-100607897D01*
X128610738Y-101727897D02*
X132850738Y-101727897D01*
X128610738Y-99487897D02*
X128610738Y-101727897D01*
X132850738Y-99487897D02*
X128610738Y-99487897D01*
X132850738Y-101727897D02*
X132850738Y-99487897D01*
X132250738Y-104704462D02*
X132250738Y-102464462D01*
X132010738Y-104704462D02*
X132010738Y-102464462D01*
X132130738Y-104704462D02*
X132130738Y-102464462D01*
X127960738Y-103584462D02*
X128610738Y-103584462D01*
X133500738Y-103584462D02*
X132850738Y-103584462D01*
X128610738Y-104704462D02*
X132850738Y-104704462D01*
X128610738Y-102464462D02*
X128610738Y-104704462D01*
X132850738Y-102464462D02*
X128610738Y-102464462D01*
X132850738Y-104704462D02*
X132850738Y-102464462D01*
X134631990Y-107681027D02*
X134631990Y-105441027D01*
X134391990Y-107681027D02*
X134391990Y-105441027D01*
X134511990Y-107681027D02*
X134511990Y-105441027D01*
X130341990Y-106561027D02*
X130991990Y-106561027D01*
X135881990Y-106561027D02*
X135231990Y-106561027D01*
X130991990Y-107681027D02*
X135231990Y-107681027D01*
X130991990Y-105441027D02*
X130991990Y-107681027D01*
X135231990Y-105441027D02*
X130991990Y-105441027D01*
X135231990Y-107681027D02*
X135231990Y-105441027D01*
X135231990Y-95774767D02*
X135231990Y-93534767D01*
X135231990Y-93534767D02*
X130991990Y-93534767D01*
X130991990Y-93534767D02*
X130991990Y-95774767D01*
X130991990Y-95774767D02*
X135231990Y-95774767D01*
X135881990Y-94654767D02*
X135231990Y-94654767D01*
X130341990Y-94654767D02*
X130991990Y-94654767D01*
X134511990Y-95774767D02*
X134511990Y-93534767D01*
X134391990Y-95774767D02*
X134391990Y-93534767D01*
X134631990Y-95774767D02*
X134631990Y-93534767D01*
X132850738Y-98751332D02*
X132850738Y-96511332D01*
X132850738Y-96511332D02*
X128610738Y-96511332D01*
X128610738Y-96511332D02*
X128610738Y-98751332D01*
X128610738Y-98751332D02*
X132850738Y-98751332D01*
X133500738Y-97631332D02*
X132850738Y-97631332D01*
X127960738Y-97631332D02*
X128610738Y-97631332D01*
X132130738Y-98751332D02*
X132130738Y-96511332D01*
X132010738Y-98751332D02*
X132010738Y-96511332D01*
X132250738Y-98751332D02*
X132250738Y-96511332D01*
X168972953Y-95916019D02*
X168972953Y-98156019D01*
X168972953Y-98156019D02*
X173212953Y-98156019D01*
X173212953Y-98156019D02*
X173212953Y-95916019D01*
X173212953Y-95916019D02*
X168972953Y-95916019D01*
X168322953Y-97036019D02*
X168972953Y-97036019D01*
X173862953Y-97036019D02*
X173212953Y-97036019D01*
X169692953Y-95916019D02*
X169692953Y-98156019D01*
X169812953Y-95916019D02*
X169812953Y-98156019D01*
X169572953Y-95916019D02*
X169572953Y-98156019D01*
X171949518Y-102464462D02*
X171949518Y-104704462D01*
X171949518Y-104704462D02*
X176189518Y-104704462D01*
X176189518Y-104704462D02*
X176189518Y-102464462D01*
X176189518Y-102464462D02*
X171949518Y-102464462D01*
X171299518Y-103584462D02*
X171949518Y-103584462D01*
X176839518Y-103584462D02*
X176189518Y-103584462D01*
X172669518Y-102464462D02*
X172669518Y-104704462D01*
X172789518Y-102464462D02*
X172789518Y-104704462D01*
X172549518Y-102464462D02*
X172549518Y-104704462D01*
X169568266Y-105441027D02*
X169568266Y-107681027D01*
X169568266Y-107681027D02*
X173808266Y-107681027D01*
X173808266Y-107681027D02*
X173808266Y-105441027D01*
X173808266Y-105441027D02*
X169568266Y-105441027D01*
X168918266Y-106561027D02*
X169568266Y-106561027D01*
X174458266Y-106561027D02*
X173808266Y-106561027D01*
X170288266Y-105441027D02*
X170288266Y-107681027D01*
X170408266Y-105441027D02*
X170408266Y-107681027D01*
X170168266Y-105441027D02*
X170168266Y-107681027D01*
X169568266Y-93534767D02*
X169568266Y-95774767D01*
X169568266Y-95774767D02*
X173808266Y-95774767D01*
X173808266Y-95774767D02*
X173808266Y-93534767D01*
X173808266Y-93534767D02*
X169568266Y-93534767D01*
X168918266Y-94654767D02*
X169568266Y-94654767D01*
X174458266Y-94654767D02*
X173808266Y-94654767D01*
X170288266Y-93534767D02*
X170288266Y-95774767D01*
X170408266Y-93534767D02*
X170408266Y-95774767D01*
X170168266Y-93534767D02*
X170168266Y-95774767D01*
X135231990Y-119587287D02*
X135231990Y-117347287D01*
X135231990Y-117347287D02*
X130991990Y-117347287D01*
X130991990Y-117347287D02*
X130991990Y-119587287D01*
X130991990Y-119587287D02*
X135231990Y-119587287D01*
X135881990Y-118467287D02*
X135231990Y-118467287D01*
X130341990Y-118467287D02*
X130991990Y-118467287D01*
X134511990Y-119587287D02*
X134511990Y-117347287D01*
X134391990Y-119587287D02*
X134391990Y-117347287D01*
X134631990Y-119587287D02*
X134631990Y-117347287D01*
X132250738Y-122563852D02*
X132250738Y-120323852D01*
X132010738Y-122563852D02*
X132010738Y-120323852D01*
X132130738Y-122563852D02*
X132130738Y-120323852D01*
X127960738Y-121443852D02*
X128610738Y-121443852D01*
X133500738Y-121443852D02*
X132850738Y-121443852D01*
X128610738Y-122563852D02*
X132850738Y-122563852D01*
X128610738Y-120323852D02*
X128610738Y-122563852D01*
X132850738Y-120323852D02*
X128610738Y-120323852D01*
X132850738Y-122563852D02*
X132850738Y-120323852D01*
X132250738Y-110657592D02*
X132250738Y-108417592D01*
X132010738Y-110657592D02*
X132010738Y-108417592D01*
X132130738Y-110657592D02*
X132130738Y-108417592D01*
X127960738Y-109537592D02*
X128610738Y-109537592D01*
X133500738Y-109537592D02*
X132850738Y-109537592D01*
X128610738Y-110657592D02*
X132850738Y-110657592D01*
X128610738Y-108417592D02*
X128610738Y-110657592D01*
X132850738Y-108417592D02*
X128610738Y-108417592D01*
X132850738Y-110657592D02*
X132850738Y-108417592D01*
X135231990Y-113634157D02*
X135231990Y-111394157D01*
X135231990Y-111394157D02*
X130991990Y-111394157D01*
X130991990Y-111394157D02*
X130991990Y-113634157D01*
X130991990Y-113634157D02*
X135231990Y-113634157D01*
X135881990Y-112514157D02*
X135231990Y-112514157D01*
X130341990Y-112514157D02*
X130991990Y-112514157D01*
X134511990Y-113634157D02*
X134511990Y-111394157D01*
X134391990Y-113634157D02*
X134391990Y-111394157D01*
X134631990Y-113634157D02*
X134631990Y-111394157D01*
X132850738Y-116610722D02*
X132850738Y-114370722D01*
X132850738Y-114370722D02*
X128610738Y-114370722D01*
X128610738Y-114370722D02*
X128610738Y-116610722D01*
X128610738Y-116610722D02*
X132850738Y-116610722D01*
X133500738Y-115490722D02*
X132850738Y-115490722D01*
X127960738Y-115490722D02*
X128610738Y-115490722D01*
X132130738Y-116610722D02*
X132130738Y-114370722D01*
X132010738Y-116610722D02*
X132010738Y-114370722D01*
X132250738Y-116610722D02*
X132250738Y-114370722D01*
X171949518Y-120323852D02*
X171949518Y-122563852D01*
X171949518Y-122563852D02*
X176189518Y-122563852D01*
X176189518Y-122563852D02*
X176189518Y-120323852D01*
X176189518Y-120323852D02*
X171949518Y-120323852D01*
X171299518Y-121443852D02*
X171949518Y-121443852D01*
X176839518Y-121443852D02*
X176189518Y-121443852D01*
X172669518Y-120323852D02*
X172669518Y-122563852D01*
X172789518Y-120323852D02*
X172789518Y-122563852D01*
X172549518Y-120323852D02*
X172549518Y-122563852D01*
X171949518Y-108417592D02*
X171949518Y-110657592D01*
X171949518Y-110657592D02*
X176189518Y-110657592D01*
X176189518Y-110657592D02*
X176189518Y-108417592D01*
X176189518Y-108417592D02*
X171949518Y-108417592D01*
X171299518Y-109537592D02*
X171949518Y-109537592D01*
X176839518Y-109537592D02*
X176189518Y-109537592D01*
X172669518Y-108417592D02*
X172669518Y-110657592D01*
X172789518Y-108417592D02*
X172789518Y-110657592D01*
X172549518Y-108417592D02*
X172549518Y-110657592D01*
X169568266Y-111394157D02*
X169568266Y-113634157D01*
X169568266Y-113634157D02*
X173808266Y-113634157D01*
X173808266Y-113634157D02*
X173808266Y-111394157D01*
X173808266Y-111394157D02*
X169568266Y-111394157D01*
X168918266Y-112514157D02*
X169568266Y-112514157D01*
X174458266Y-112514157D02*
X173808266Y-112514157D01*
X170288266Y-111394157D02*
X170288266Y-113634157D01*
X170408266Y-111394157D02*
X170408266Y-113634157D01*
X170168266Y-111394157D02*
X170168266Y-113634157D01*
X134631990Y-137446677D02*
X134631990Y-135206677D01*
X134391990Y-137446677D02*
X134391990Y-135206677D01*
X134511990Y-137446677D02*
X134511990Y-135206677D01*
X130341990Y-136326677D02*
X130991990Y-136326677D01*
X135881990Y-136326677D02*
X135231990Y-136326677D01*
X130991990Y-137446677D02*
X135231990Y-137446677D01*
X130991990Y-135206677D02*
X130991990Y-137446677D01*
X135231990Y-135206677D02*
X130991990Y-135206677D01*
X135231990Y-137446677D02*
X135231990Y-135206677D01*
X134631990Y-125540417D02*
X134631990Y-123300417D01*
X134391990Y-125540417D02*
X134391990Y-123300417D01*
X134511990Y-125540417D02*
X134511990Y-123300417D01*
X130341990Y-124420417D02*
X130991990Y-124420417D01*
X135881990Y-124420417D02*
X135231990Y-124420417D01*
X130991990Y-125540417D02*
X135231990Y-125540417D01*
X130991990Y-123300417D02*
X130991990Y-125540417D01*
X135231990Y-123300417D02*
X130991990Y-123300417D01*
X135231990Y-125540417D02*
X135231990Y-123300417D01*
X132250738Y-128516982D02*
X132250738Y-126276982D01*
X132010738Y-128516982D02*
X132010738Y-126276982D01*
X132130738Y-128516982D02*
X132130738Y-126276982D01*
X127960738Y-127396982D02*
X128610738Y-127396982D01*
X133500738Y-127396982D02*
X132850738Y-127396982D01*
X128610738Y-128516982D02*
X132850738Y-128516982D01*
X128610738Y-126276982D02*
X128610738Y-128516982D01*
X132850738Y-126276982D02*
X128610738Y-126276982D01*
X132850738Y-128516982D02*
X132850738Y-126276982D01*
X134631990Y-131493547D02*
X134631990Y-129253547D01*
X134391990Y-131493547D02*
X134391990Y-129253547D01*
X134511990Y-131493547D02*
X134511990Y-129253547D01*
X130341990Y-130373547D02*
X130991990Y-130373547D01*
X135881990Y-130373547D02*
X135231990Y-130373547D01*
X130991990Y-131493547D02*
X135231990Y-131493547D01*
X130991990Y-129253547D02*
X130991990Y-131493547D01*
X135231990Y-129253547D02*
X130991990Y-129253547D01*
X135231990Y-131493547D02*
X135231990Y-129253547D01*
X170168266Y-135206677D02*
X170168266Y-137446677D01*
X170408266Y-135206677D02*
X170408266Y-137446677D01*
X170288266Y-135206677D02*
X170288266Y-137446677D01*
X174458266Y-136326677D02*
X173808266Y-136326677D01*
X168918266Y-136326677D02*
X169568266Y-136326677D01*
X173808266Y-135206677D02*
X169568266Y-135206677D01*
X173808266Y-137446677D02*
X173808266Y-135206677D01*
X169568266Y-137446677D02*
X173808266Y-137446677D01*
X169568266Y-135206677D02*
X169568266Y-137446677D01*
X170168266Y-123300417D02*
X170168266Y-125540417D01*
X170408266Y-123300417D02*
X170408266Y-125540417D01*
X170288266Y-123300417D02*
X170288266Y-125540417D01*
X174458266Y-124420417D02*
X173808266Y-124420417D01*
X168918266Y-124420417D02*
X169568266Y-124420417D01*
X173808266Y-123300417D02*
X169568266Y-123300417D01*
X173808266Y-125540417D02*
X173808266Y-123300417D01*
X169568266Y-125540417D02*
X173808266Y-125540417D01*
X169568266Y-123300417D02*
X169568266Y-125540417D01*
X172549518Y-126276982D02*
X172549518Y-128516982D01*
X172789518Y-126276982D02*
X172789518Y-128516982D01*
X172669518Y-126276982D02*
X172669518Y-128516982D01*
X176839518Y-127396982D02*
X176189518Y-127396982D01*
X171299518Y-127396982D02*
X171949518Y-127396982D01*
X176189518Y-126276982D02*
X171949518Y-126276982D01*
X176189518Y-128516982D02*
X176189518Y-126276982D01*
X171949518Y-128516982D02*
X176189518Y-128516982D01*
X171949518Y-126276982D02*
X171949518Y-128516982D01*
X170168266Y-129253547D02*
X170168266Y-131493547D01*
X170408266Y-129253547D02*
X170408266Y-131493547D01*
X170288266Y-129253547D02*
X170288266Y-131493547D01*
X174458266Y-130373547D02*
X173808266Y-130373547D01*
X168918266Y-130373547D02*
X169568266Y-130373547D01*
X173808266Y-129253547D02*
X169568266Y-129253547D01*
X173808266Y-131493547D02*
X173808266Y-129253547D01*
X169568266Y-131493547D02*
X173808266Y-131493547D01*
X169568266Y-129253547D02*
X169568266Y-131493547D01*
X132850738Y-140423242D02*
X132850738Y-138183242D01*
X132850738Y-138183242D02*
X128610738Y-138183242D01*
X128610738Y-138183242D02*
X128610738Y-140423242D01*
X128610738Y-140423242D02*
X132850738Y-140423242D01*
X133500738Y-139303242D02*
X132850738Y-139303242D01*
X127960738Y-139303242D02*
X128610738Y-139303242D01*
X132130738Y-140423242D02*
X132130738Y-138183242D01*
X132010738Y-140423242D02*
X132010738Y-138183242D01*
X132250738Y-140423242D02*
X132250738Y-138183242D01*
X143399807Y-138016677D02*
X141159807Y-138016677D01*
X141159807Y-138016677D02*
X141159807Y-142256677D01*
X141159807Y-142256677D02*
X143399807Y-142256677D01*
X143399807Y-142256677D02*
X143399807Y-138016677D01*
X142279807Y-137366677D02*
X142279807Y-138016677D01*
X142279807Y-142906677D02*
X142279807Y-142256677D01*
X143399807Y-138736677D02*
X141159807Y-138736677D01*
X143399807Y-138856677D02*
X141159807Y-138856677D01*
X143399807Y-138616677D02*
X141159807Y-138616677D01*
X146376372Y-135635425D02*
X144136372Y-135635425D01*
X144136372Y-135635425D02*
X144136372Y-139875425D01*
X144136372Y-139875425D02*
X146376372Y-139875425D01*
X146376372Y-139875425D02*
X146376372Y-135635425D01*
X145256372Y-134985425D02*
X145256372Y-135635425D01*
X145256372Y-140525425D02*
X145256372Y-139875425D01*
X146376372Y-136355425D02*
X144136372Y-136355425D01*
X146376372Y-136475425D02*
X144136372Y-136475425D01*
X146376372Y-136235425D02*
X144136372Y-136235425D01*
X149352937Y-138016677D02*
X147112937Y-138016677D01*
X147112937Y-138016677D02*
X147112937Y-142256677D01*
X147112937Y-142256677D02*
X149352937Y-142256677D01*
X149352937Y-142256677D02*
X149352937Y-138016677D01*
X148232937Y-137366677D02*
X148232937Y-138016677D01*
X148232937Y-142906677D02*
X148232937Y-142256677D01*
X149352937Y-138736677D02*
X147112937Y-138736677D01*
X149352937Y-138856677D02*
X147112937Y-138856677D01*
X149352937Y-138616677D02*
X147112937Y-138616677D01*
X171949518Y-138183242D02*
X171949518Y-140423242D01*
X171949518Y-140423242D02*
X176189518Y-140423242D01*
X176189518Y-140423242D02*
X176189518Y-138183242D01*
X176189518Y-138183242D02*
X171949518Y-138183242D01*
X171299518Y-139303242D02*
X171949518Y-139303242D01*
X176839518Y-139303242D02*
X176189518Y-139303242D01*
X172669518Y-138183242D02*
X172669518Y-140423242D01*
X172789518Y-138183242D02*
X172789518Y-140423242D01*
X172549518Y-138183242D02*
X172549518Y-140423242D01*
X164235762Y-138016677D02*
X161995762Y-138016677D01*
X161995762Y-138016677D02*
X161995762Y-142256677D01*
X161995762Y-142256677D02*
X164235762Y-142256677D01*
X164235762Y-142256677D02*
X164235762Y-138016677D01*
X163115762Y-137366677D02*
X163115762Y-138016677D01*
X163115762Y-142906677D02*
X163115762Y-142256677D01*
X164235762Y-138736677D02*
X161995762Y-138736677D01*
X164235762Y-138856677D02*
X161995762Y-138856677D01*
X164235762Y-138616677D02*
X161995762Y-138616677D01*
X161259197Y-135635425D02*
X159019197Y-135635425D01*
X159019197Y-135635425D02*
X159019197Y-139875425D01*
X159019197Y-139875425D02*
X161259197Y-139875425D01*
X161259197Y-139875425D02*
X161259197Y-135635425D01*
X160139197Y-134985425D02*
X160139197Y-135635425D01*
X160139197Y-140525425D02*
X160139197Y-139875425D01*
X161259197Y-136355425D02*
X159019197Y-136355425D01*
X161259197Y-136475425D02*
X159019197Y-136475425D01*
X161259197Y-136235425D02*
X159019197Y-136235425D01*
X158282632Y-138016677D02*
X156042632Y-138016677D01*
X156042632Y-138016677D02*
X156042632Y-142256677D01*
X156042632Y-142256677D02*
X158282632Y-142256677D01*
X158282632Y-142256677D02*
X158282632Y-138016677D01*
X157162632Y-137366677D02*
X157162632Y-138016677D01*
X157162632Y-142906677D02*
X157162632Y-142256677D01*
X158282632Y-138736677D02*
X156042632Y-138736677D01*
X158282632Y-138856677D02*
X156042632Y-138856677D01*
X158282632Y-138616677D02*
X156042632Y-138616677D01*
X144854037Y-64777099D02*
G75*
G03X148086372Y-64934007I1672335J1078608D01*
G01*
X144854037Y-62619883D02*
G75*
G02X148086372Y-62462975I1672335J-1078608D01*
G01*
X145485242Y-64778328D02*
G75*
G03X147567333Y-64778491I1041130J1079837D01*
G01*
X145485242Y-62618654D02*
G75*
G02X147567333Y-62618491I1041130J-1079837D01*
G01*
X148086372Y-64934491D02*
X148086372Y-64778491D01*
X148086372Y-62618491D02*
X148086372Y-62462491D01*
X148525746Y-59260674D02*
X144685746Y-59260674D01*
X148525746Y-57420674D02*
X144685746Y-57420674D01*
X132250738Y-134470112D02*
X132250738Y-132230112D01*
X132010738Y-134470112D02*
X132010738Y-132230112D01*
X132130738Y-134470112D02*
X132130738Y-132230112D01*
X127960738Y-133350112D02*
X128610738Y-133350112D01*
X133500738Y-133350112D02*
X132850738Y-133350112D01*
X128610738Y-134470112D02*
X132850738Y-134470112D01*
X128610738Y-132230112D02*
X128610738Y-134470112D01*
X132850738Y-132230112D02*
X128610738Y-132230112D01*
X132850738Y-134470112D02*
X132850738Y-132230112D01*
X152329502Y-135635425D02*
X150089502Y-135635425D01*
X150089502Y-135635425D02*
X150089502Y-139875425D01*
X150089502Y-139875425D02*
X152329502Y-139875425D01*
X152329502Y-139875425D02*
X152329502Y-135635425D01*
X151209502Y-134985425D02*
X151209502Y-135635425D01*
X151209502Y-140525425D02*
X151209502Y-139875425D01*
X152329502Y-136355425D02*
X150089502Y-136355425D01*
X152329502Y-136475425D02*
X150089502Y-136475425D01*
X152329502Y-136235425D02*
X150089502Y-136235425D01*
X170168266Y-75675377D02*
X170168266Y-77915377D01*
X170408266Y-75675377D02*
X170408266Y-77915377D01*
X170288266Y-75675377D02*
X170288266Y-77915377D01*
X174458266Y-76795377D02*
X173808266Y-76795377D01*
X168918266Y-76795377D02*
X169568266Y-76795377D01*
X173808266Y-75675377D02*
X169568266Y-75675377D01*
X173808266Y-77915377D02*
X173808266Y-75675377D01*
X169568266Y-77915377D02*
X173808266Y-77915377D01*
X169568266Y-75675377D02*
X169568266Y-77915377D01*
X171949518Y-78651942D02*
X171949518Y-80891942D01*
X171949518Y-80891942D02*
X176189518Y-80891942D01*
X176189518Y-80891942D02*
X176189518Y-78651942D01*
X176189518Y-78651942D02*
X171949518Y-78651942D01*
X171299518Y-79771942D02*
X171949518Y-79771942D01*
X176839518Y-79771942D02*
X176189518Y-79771942D01*
X172669518Y-78651942D02*
X172669518Y-80891942D01*
X172789518Y-78651942D02*
X172789518Y-80891942D01*
X172549518Y-78651942D02*
X172549518Y-80891942D01*
X172549518Y-96511332D02*
X172549518Y-98751332D01*
X172789518Y-96511332D02*
X172789518Y-98751332D01*
X172669518Y-96511332D02*
X172669518Y-98751332D01*
X176839518Y-97631332D02*
X176189518Y-97631332D01*
X171299518Y-97631332D02*
X171949518Y-97631332D01*
X176189518Y-96511332D02*
X171949518Y-96511332D01*
X176189518Y-98751332D02*
X176189518Y-96511332D01*
X171949518Y-98751332D02*
X176189518Y-98751332D01*
X171949518Y-96511332D02*
X171949518Y-98751332D01*
X171949518Y-114370722D02*
X171949518Y-116610722D01*
X171949518Y-116610722D02*
X176189518Y-116610722D01*
X176189518Y-116610722D02*
X176189518Y-114370722D01*
X176189518Y-114370722D02*
X171949518Y-114370722D01*
X171299518Y-115490722D02*
X171949518Y-115490722D01*
X176839518Y-115490722D02*
X176189518Y-115490722D01*
X172669518Y-114370722D02*
X172669518Y-116610722D01*
X172789518Y-114370722D02*
X172789518Y-116610722D01*
X172549518Y-114370722D02*
X172549518Y-116610722D01*
X172549518Y-132230112D02*
X172549518Y-134470112D01*
X172789518Y-132230112D02*
X172789518Y-134470112D01*
X172669518Y-132230112D02*
X172669518Y-134470112D01*
X176839518Y-133350112D02*
X176189518Y-133350112D01*
X171299518Y-133350112D02*
X171949518Y-133350112D01*
X176189518Y-132230112D02*
X171949518Y-132230112D01*
X176189518Y-134470112D02*
X176189518Y-132230112D01*
X171949518Y-134470112D02*
X176189518Y-134470112D01*
X171949518Y-132230112D02*
X171949518Y-134470112D01*
X155306067Y-135635425D02*
X153066067Y-135635425D01*
X153066067Y-135635425D02*
X153066067Y-139875425D01*
X153066067Y-139875425D02*
X155306067Y-139875425D01*
X155306067Y-139875425D02*
X155306067Y-135635425D01*
X154186067Y-134985425D02*
X154186067Y-135635425D01*
X154186067Y-140525425D02*
X154186067Y-139875425D01*
X155306067Y-136355425D02*
X153066067Y-136355425D01*
X155306067Y-136475425D02*
X153066067Y-136475425D01*
X155306067Y-136235425D02*
X153066067Y-136235425D01*
D13*
X283065097Y-87918343D02*
X283065097Y-86648343D01*
X283573097Y-87555486D01*
X284081097Y-86648343D01*
X284081097Y-87918343D01*
X284661668Y-86648343D02*
X285677668Y-87918343D01*
X285677668Y-86648343D02*
X284661668Y-87918343D01*
X286113097Y-86648343D02*
X287056525Y-86648343D01*
X286548525Y-87132153D01*
X286766240Y-87132153D01*
X286911382Y-87192629D01*
X286983954Y-87253105D01*
X287056525Y-87374058D01*
X287056525Y-87676439D01*
X286983954Y-87797391D01*
X286911382Y-87857867D01*
X286766240Y-87918343D01*
X286330811Y-87918343D01*
X286185668Y-87857867D01*
X286113097Y-87797391D01*
X287637097Y-86769296D02*
X287709668Y-86708820D01*
X287854811Y-86648343D01*
X288217668Y-86648343D01*
X288362811Y-86708820D01*
X288435382Y-86769296D01*
X288507954Y-86890248D01*
X288507954Y-87011200D01*
X288435382Y-87192629D01*
X287564525Y-87918343D01*
X288507954Y-87918343D01*
D11*
X177379614Y-118919667D02*
X177379614Y-117919667D01*
X177617709Y-117919667D01*
X177760566Y-117967287D01*
X177855804Y-118062525D01*
X177903423Y-118157763D01*
X177951042Y-118348239D01*
X177951042Y-118491096D01*
X177903423Y-118681572D01*
X177855804Y-118776810D01*
X177760566Y-118872048D01*
X177617709Y-118919667D01*
X177379614Y-118919667D01*
X178284376Y-117919667D02*
X178903423Y-117919667D01*
X178570090Y-118300620D01*
X178712947Y-118300620D01*
X178808185Y-118348239D01*
X178855804Y-118395858D01*
X178903423Y-118491096D01*
X178903423Y-118729191D01*
X178855804Y-118824429D01*
X178808185Y-118872048D01*
X178712947Y-118919667D01*
X178427233Y-118919667D01*
X178331995Y-118872048D01*
X178284376Y-118824429D01*
X179760566Y-118253001D02*
X179760566Y-118919667D01*
X179522471Y-117872048D02*
X179284376Y-118586334D01*
X179903423Y-118586334D01*
X166068667Y-68318062D02*
X166068667Y-67318062D01*
X166306762Y-67318062D01*
X166449619Y-67365682D01*
X166544857Y-67460920D01*
X166592476Y-67556158D01*
X166640095Y-67746634D01*
X166640095Y-67889491D01*
X166592476Y-68079967D01*
X166544857Y-68175205D01*
X166449619Y-68270443D01*
X166306762Y-68318062D01*
X166068667Y-68318062D01*
X166973429Y-67318062D02*
X167592476Y-67318062D01*
X167259143Y-67699015D01*
X167402000Y-67699015D01*
X167497238Y-67746634D01*
X167544857Y-67794253D01*
X167592476Y-67889491D01*
X167592476Y-68127586D01*
X167544857Y-68222824D01*
X167497238Y-68270443D01*
X167402000Y-68318062D01*
X167116286Y-68318062D01*
X167021048Y-68270443D01*
X166973429Y-68222824D01*
X167925810Y-67318062D02*
X168592476Y-67318062D01*
X168163905Y-68318062D01*
X135707704Y-74271192D02*
X135707704Y-73271192D01*
X135945799Y-73271192D01*
X136088656Y-73318812D01*
X136183894Y-73414050D01*
X136231513Y-73509288D01*
X136279132Y-73699764D01*
X136279132Y-73842621D01*
X136231513Y-74033097D01*
X136183894Y-74128335D01*
X136088656Y-74223573D01*
X135945799Y-74271192D01*
X135707704Y-74271192D01*
X137231513Y-74271192D02*
X136660085Y-74271192D01*
X136945799Y-74271192D02*
X136945799Y-73271192D01*
X136850561Y-73414050D01*
X136755323Y-73509288D01*
X136660085Y-73556907D01*
X137707704Y-74271192D02*
X137898180Y-74271192D01*
X137993418Y-74223573D01*
X138041037Y-74175954D01*
X138136275Y-74033097D01*
X138183894Y-73842621D01*
X138183894Y-73461669D01*
X138136275Y-73366431D01*
X138088656Y-73318812D01*
X137993418Y-73271192D01*
X137802942Y-73271192D01*
X137707704Y-73318812D01*
X137660085Y-73366431D01*
X137612466Y-73461669D01*
X137612466Y-73699764D01*
X137660085Y-73795002D01*
X137707704Y-73842621D01*
X137802942Y-73890240D01*
X137993418Y-73890240D01*
X138088656Y-73842621D01*
X138136275Y-73795002D01*
X138183894Y-73699764D01*
D13*
X225915049Y-126018375D02*
X225915049Y-124748375D01*
X226423049Y-125655518D01*
X226931049Y-124748375D01*
X226931049Y-126018375D01*
X227511620Y-124748375D02*
X228527620Y-126018375D01*
X228527620Y-124748375D02*
X227511620Y-126018375D01*
X229761334Y-125171709D02*
X229761334Y-126018375D01*
X229398477Y-124687899D02*
X229035620Y-125595042D01*
X229979049Y-125595042D01*
X230414477Y-124748375D02*
X231430477Y-124748375D01*
X230777334Y-126018375D01*
X244965065Y-87918343D02*
X244965065Y-86648343D01*
X245473065Y-87555486D01*
X245981065Y-86648343D01*
X245981065Y-87918343D01*
X246561636Y-86648343D02*
X247577636Y-87918343D01*
X247577636Y-86648343D02*
X246561636Y-87918343D01*
X248811350Y-87071677D02*
X248811350Y-87918343D01*
X248448493Y-86587867D02*
X248085636Y-87495010D01*
X249029065Y-87495010D01*
X250262779Y-87071677D02*
X250262779Y-87918343D01*
X249899922Y-86587867D02*
X249537065Y-87495010D01*
X250480493Y-87495010D01*
X244965065Y-68868327D02*
X244965065Y-67598327D01*
X245473065Y-68505470D01*
X245981065Y-67598327D01*
X245981065Y-68868327D01*
X246561636Y-67598327D02*
X247577636Y-68868327D01*
X247577636Y-67598327D02*
X246561636Y-68868327D01*
X248811350Y-68021661D02*
X248811350Y-68868327D01*
X248448493Y-67537851D02*
X248085636Y-68444994D01*
X249029065Y-68444994D01*
X249464493Y-67598327D02*
X250407922Y-67598327D01*
X249899922Y-68082137D01*
X250117636Y-68082137D01*
X250262779Y-68142613D01*
X250335350Y-68203089D01*
X250407922Y-68324042D01*
X250407922Y-68626423D01*
X250335350Y-68747375D01*
X250262779Y-68807851D01*
X250117636Y-68868327D01*
X249682208Y-68868327D01*
X249537065Y-68807851D01*
X249464493Y-68747375D01*
X264015081Y-87918343D02*
X264015081Y-86648343D01*
X264523081Y-87555486D01*
X265031081Y-86648343D01*
X265031081Y-87918343D01*
X265611652Y-86648343D02*
X266627652Y-87918343D01*
X266627652Y-86648343D02*
X265611652Y-87918343D01*
X267063081Y-86648343D02*
X268006509Y-86648343D01*
X267498509Y-87132153D01*
X267716224Y-87132153D01*
X267861366Y-87192629D01*
X267933938Y-87253105D01*
X268006509Y-87374058D01*
X268006509Y-87676439D01*
X267933938Y-87797391D01*
X267861366Y-87857867D01*
X267716224Y-87918343D01*
X267280795Y-87918343D01*
X267135652Y-87857867D01*
X267063081Y-87797391D01*
X268877366Y-87192629D02*
X268732224Y-87132153D01*
X268659652Y-87071677D01*
X268587081Y-86950724D01*
X268587081Y-86890248D01*
X268659652Y-86769296D01*
X268732224Y-86708820D01*
X268877366Y-86648343D01*
X269167652Y-86648343D01*
X269312795Y-86708820D01*
X269385366Y-86769296D01*
X269457938Y-86890248D01*
X269457938Y-86950724D01*
X269385366Y-87071677D01*
X269312795Y-87132153D01*
X269167652Y-87192629D01*
X268877366Y-87192629D01*
X268732224Y-87253105D01*
X268659652Y-87313581D01*
X268587081Y-87434534D01*
X268587081Y-87676439D01*
X268659652Y-87797391D01*
X268732224Y-87857867D01*
X268877366Y-87918343D01*
X269167652Y-87918343D01*
X269312795Y-87857867D01*
X269385366Y-87797391D01*
X269457938Y-87676439D01*
X269457938Y-87434534D01*
X269385366Y-87313581D01*
X269312795Y-87253105D01*
X269167652Y-87192629D01*
X244965065Y-106968359D02*
X244965065Y-105698359D01*
X245473065Y-106605502D01*
X245981065Y-105698359D01*
X245981065Y-106968359D01*
X246561636Y-105698359D02*
X247577636Y-106968359D01*
X247577636Y-105698359D02*
X246561636Y-106968359D01*
X248811350Y-106121693D02*
X248811350Y-106968359D01*
X248448493Y-105637883D02*
X248085636Y-106545026D01*
X249029065Y-106545026D01*
X250335350Y-105698359D02*
X249609636Y-105698359D01*
X249537065Y-106303121D01*
X249609636Y-106242645D01*
X249754779Y-106182169D01*
X250117636Y-106182169D01*
X250262779Y-106242645D01*
X250335350Y-106303121D01*
X250407922Y-106424074D01*
X250407922Y-106726455D01*
X250335350Y-106847407D01*
X250262779Y-106907883D01*
X250117636Y-106968359D01*
X249754779Y-106968359D01*
X249609636Y-106907883D01*
X249537065Y-106847407D01*
X111614953Y-106968359D02*
X111614953Y-105698359D01*
X112122953Y-106605502D01*
X112630953Y-105698359D01*
X112630953Y-106968359D01*
X113211524Y-105698359D02*
X114227524Y-106968359D01*
X114227524Y-105698359D02*
X113211524Y-106968359D01*
X114735524Y-105819312D02*
X114808096Y-105758836D01*
X114953238Y-105698359D01*
X115316096Y-105698359D01*
X115461238Y-105758836D01*
X115533810Y-105819312D01*
X115606381Y-105940264D01*
X115606381Y-106061216D01*
X115533810Y-106242645D01*
X114662953Y-106968359D01*
X115606381Y-106968359D01*
X116477238Y-106242645D02*
X116332096Y-106182169D01*
X116259524Y-106121693D01*
X116186953Y-106000740D01*
X116186953Y-105940264D01*
X116259524Y-105819312D01*
X116332096Y-105758836D01*
X116477238Y-105698359D01*
X116767524Y-105698359D01*
X116912667Y-105758836D01*
X116985238Y-105819312D01*
X117057810Y-105940264D01*
X117057810Y-106000740D01*
X116985238Y-106121693D01*
X116912667Y-106182169D01*
X116767524Y-106242645D01*
X116477238Y-106242645D01*
X116332096Y-106303121D01*
X116259524Y-106363597D01*
X116186953Y-106484550D01*
X116186953Y-106726455D01*
X116259524Y-106847407D01*
X116332096Y-106907883D01*
X116477238Y-106968359D01*
X116767524Y-106968359D01*
X116912667Y-106907883D01*
X116985238Y-106847407D01*
X117057810Y-106726455D01*
X117057810Y-106484550D01*
X116985238Y-106363597D01*
X116912667Y-106303121D01*
X116767524Y-106242645D01*
X283065097Y-106968359D02*
X283065097Y-105698359D01*
X283573097Y-106605502D01*
X284081097Y-105698359D01*
X284081097Y-106968359D01*
X284661668Y-105698359D02*
X285677668Y-106968359D01*
X285677668Y-105698359D02*
X284661668Y-106968359D01*
X286113097Y-105698359D02*
X287056525Y-105698359D01*
X286548525Y-106182169D01*
X286766240Y-106182169D01*
X286911382Y-106242645D01*
X286983954Y-106303121D01*
X287056525Y-106424074D01*
X287056525Y-106726455D01*
X286983954Y-106847407D01*
X286911382Y-106907883D01*
X286766240Y-106968359D01*
X286330811Y-106968359D01*
X286185668Y-106907883D01*
X286113097Y-106847407D01*
X287564525Y-105698359D02*
X288507954Y-105698359D01*
X287999954Y-106182169D01*
X288217668Y-106182169D01*
X288362811Y-106242645D01*
X288435382Y-106303121D01*
X288507954Y-106424074D01*
X288507954Y-106726455D01*
X288435382Y-106847407D01*
X288362811Y-106907883D01*
X288217668Y-106968359D01*
X287782240Y-106968359D01*
X287637097Y-106907883D01*
X287564525Y-106847407D01*
X264015081Y-106968359D02*
X264015081Y-105698359D01*
X264523081Y-106605502D01*
X265031081Y-105698359D01*
X265031081Y-106968359D01*
X265611652Y-105698359D02*
X266627652Y-106968359D01*
X266627652Y-105698359D02*
X265611652Y-106968359D01*
X267063081Y-105698359D02*
X268006509Y-105698359D01*
X267498509Y-106182169D01*
X267716224Y-106182169D01*
X267861366Y-106242645D01*
X267933938Y-106303121D01*
X268006509Y-106424074D01*
X268006509Y-106726455D01*
X267933938Y-106847407D01*
X267861366Y-106907883D01*
X267716224Y-106968359D01*
X267280795Y-106968359D01*
X267135652Y-106907883D01*
X267063081Y-106847407D01*
X268732224Y-106968359D02*
X269022509Y-106968359D01*
X269167652Y-106907883D01*
X269240224Y-106847407D01*
X269385366Y-106665978D01*
X269457938Y-106424074D01*
X269457938Y-105940264D01*
X269385366Y-105819312D01*
X269312795Y-105758836D01*
X269167652Y-105698359D01*
X268877366Y-105698359D01*
X268732224Y-105758836D01*
X268659652Y-105819312D01*
X268587081Y-105940264D01*
X268587081Y-106242645D01*
X268659652Y-106363597D01*
X268732224Y-106424074D01*
X268877366Y-106484550D01*
X269167652Y-106484550D01*
X269312795Y-106424074D01*
X269385366Y-106363597D01*
X269457938Y-106242645D01*
X283065097Y-126018375D02*
X283065097Y-124748375D01*
X283573097Y-125655518D01*
X284081097Y-124748375D01*
X284081097Y-126018375D01*
X284661668Y-124748375D02*
X285677668Y-126018375D01*
X285677668Y-124748375D02*
X284661668Y-126018375D01*
X286113097Y-124748375D02*
X287056525Y-124748375D01*
X286548525Y-125232185D01*
X286766240Y-125232185D01*
X286911382Y-125292661D01*
X286983954Y-125353137D01*
X287056525Y-125474090D01*
X287056525Y-125776471D01*
X286983954Y-125897423D01*
X286911382Y-125957899D01*
X286766240Y-126018375D01*
X286330811Y-126018375D01*
X286185668Y-125957899D01*
X286113097Y-125897423D01*
X288362811Y-125171709D02*
X288362811Y-126018375D01*
X287999954Y-124687899D02*
X287637097Y-125595042D01*
X288580525Y-125595042D01*
X264015081Y-126018375D02*
X264015081Y-124748375D01*
X264523081Y-125655518D01*
X265031081Y-124748375D01*
X265031081Y-126018375D01*
X265611652Y-124748375D02*
X266627652Y-126018375D01*
X266627652Y-124748375D02*
X265611652Y-126018375D01*
X267861366Y-125171709D02*
X267861366Y-126018375D01*
X267498509Y-124687899D02*
X267135652Y-125595042D01*
X268079081Y-125595042D01*
X268949938Y-124748375D02*
X269095081Y-124748375D01*
X269240224Y-124808852D01*
X269312795Y-124869328D01*
X269385366Y-124990280D01*
X269457938Y-125232185D01*
X269457938Y-125534566D01*
X269385366Y-125776471D01*
X269312795Y-125897423D01*
X269240224Y-125957899D01*
X269095081Y-126018375D01*
X268949938Y-126018375D01*
X268804795Y-125957899D01*
X268732224Y-125897423D01*
X268659652Y-125776471D01*
X268587081Y-125534566D01*
X268587081Y-125232185D01*
X268659652Y-124990280D01*
X268732224Y-124869328D01*
X268804795Y-124808852D01*
X268949938Y-124748375D01*
X225915049Y-106968359D02*
X225915049Y-105698359D01*
X226423049Y-106605502D01*
X226931049Y-105698359D01*
X226931049Y-106968359D01*
X227511620Y-105698359D02*
X228527620Y-106968359D01*
X228527620Y-105698359D02*
X227511620Y-106968359D01*
X229761334Y-106121693D02*
X229761334Y-106968359D01*
X229398477Y-105637883D02*
X229035620Y-106545026D01*
X229979049Y-106545026D01*
X231212763Y-105698359D02*
X230922477Y-105698359D01*
X230777334Y-105758836D01*
X230704763Y-105819312D01*
X230559620Y-106000740D01*
X230487049Y-106242645D01*
X230487049Y-106726455D01*
X230559620Y-106847407D01*
X230632192Y-106907883D01*
X230777334Y-106968359D01*
X231067620Y-106968359D01*
X231212763Y-106907883D01*
X231285334Y-106847407D01*
X231357906Y-106726455D01*
X231357906Y-106424074D01*
X231285334Y-106303121D01*
X231212763Y-106242645D01*
X231067620Y-106182169D01*
X230777334Y-106182169D01*
X230632192Y-106242645D01*
X230559620Y-106303121D01*
X230487049Y-106424074D01*
X206865033Y-106968359D02*
X206865033Y-105698359D01*
X207373033Y-106605502D01*
X207881033Y-105698359D01*
X207881033Y-106968359D01*
X208461604Y-105698359D02*
X209477604Y-106968359D01*
X209477604Y-105698359D02*
X208461604Y-106968359D01*
X210783890Y-105698359D02*
X210058176Y-105698359D01*
X209985604Y-106303121D01*
X210058176Y-106242645D01*
X210203318Y-106182169D01*
X210566176Y-106182169D01*
X210711318Y-106242645D01*
X210783890Y-106303121D01*
X210856461Y-106424074D01*
X210856461Y-106726455D01*
X210783890Y-106847407D01*
X210711318Y-106907883D01*
X210566176Y-106968359D01*
X210203318Y-106968359D01*
X210058176Y-106907883D01*
X209985604Y-106847407D01*
X211437033Y-105819312D02*
X211509604Y-105758836D01*
X211654747Y-105698359D01*
X212017604Y-105698359D01*
X212162747Y-105758836D01*
X212235318Y-105819312D01*
X212307890Y-105940264D01*
X212307890Y-106061216D01*
X212235318Y-106242645D01*
X211364461Y-106968359D01*
X212307890Y-106968359D01*
X283065097Y-145068391D02*
X283065097Y-143798391D01*
X283573097Y-144705534D01*
X284081097Y-143798391D01*
X284081097Y-145068391D01*
X284661668Y-143798391D02*
X285677668Y-145068391D01*
X285677668Y-143798391D02*
X284661668Y-145068391D01*
X286113097Y-143798391D02*
X287056525Y-143798391D01*
X286548525Y-144282201D01*
X286766240Y-144282201D01*
X286911382Y-144342677D01*
X286983954Y-144403153D01*
X287056525Y-144524106D01*
X287056525Y-144826487D01*
X286983954Y-144947439D01*
X286911382Y-145007915D01*
X286766240Y-145068391D01*
X286330811Y-145068391D01*
X286185668Y-145007915D01*
X286113097Y-144947439D01*
X288435382Y-143798391D02*
X287709668Y-143798391D01*
X287637097Y-144403153D01*
X287709668Y-144342677D01*
X287854811Y-144282201D01*
X288217668Y-144282201D01*
X288362811Y-144342677D01*
X288435382Y-144403153D01*
X288507954Y-144524106D01*
X288507954Y-144826487D01*
X288435382Y-144947439D01*
X288362811Y-145007915D01*
X288217668Y-145068391D01*
X287854811Y-145068391D01*
X287709668Y-145007915D01*
X287637097Y-144947439D01*
X244965065Y-126018375D02*
X244965065Y-124748375D01*
X245473065Y-125655518D01*
X245981065Y-124748375D01*
X245981065Y-126018375D01*
X246561636Y-124748375D02*
X247577636Y-126018375D01*
X247577636Y-124748375D02*
X246561636Y-126018375D01*
X248811350Y-125171709D02*
X248811350Y-126018375D01*
X248448493Y-124687899D02*
X248085636Y-125595042D01*
X249029065Y-125595042D01*
X250407922Y-126018375D02*
X249537065Y-126018375D01*
X249972493Y-126018375D02*
X249972493Y-124748375D01*
X249827350Y-124929804D01*
X249682208Y-125050756D01*
X249537065Y-125111232D01*
X206865033Y-126018375D02*
X206865033Y-124748375D01*
X207373033Y-125655518D01*
X207881033Y-124748375D01*
X207881033Y-126018375D01*
X208461604Y-124748375D02*
X209477604Y-126018375D01*
X209477604Y-124748375D02*
X208461604Y-126018375D01*
X210783890Y-124748375D02*
X210058176Y-124748375D01*
X209985604Y-125353137D01*
X210058176Y-125292661D01*
X210203318Y-125232185D01*
X210566176Y-125232185D01*
X210711318Y-125292661D01*
X210783890Y-125353137D01*
X210856461Y-125474090D01*
X210856461Y-125776471D01*
X210783890Y-125897423D01*
X210711318Y-125957899D01*
X210566176Y-126018375D01*
X210203318Y-126018375D01*
X210058176Y-125957899D01*
X209985604Y-125897423D01*
X211364461Y-124748375D02*
X212307890Y-124748375D01*
X211799890Y-125232185D01*
X212017604Y-125232185D01*
X212162747Y-125292661D01*
X212235318Y-125353137D01*
X212307890Y-125474090D01*
X212307890Y-125776471D01*
X212235318Y-125897423D01*
X212162747Y-125957899D01*
X212017604Y-126018375D01*
X211582176Y-126018375D01*
X211437033Y-125957899D01*
X211364461Y-125897423D01*
X264015081Y-145068391D02*
X264015081Y-143798391D01*
X264523081Y-144705534D01*
X265031081Y-143798391D01*
X265031081Y-145068391D01*
X265611652Y-143798391D02*
X266627652Y-145068391D01*
X266627652Y-143798391D02*
X265611652Y-145068391D01*
X267063081Y-143798391D02*
X268006509Y-143798391D01*
X267498509Y-144282201D01*
X267716224Y-144282201D01*
X267861366Y-144342677D01*
X267933938Y-144403153D01*
X268006509Y-144524106D01*
X268006509Y-144826487D01*
X267933938Y-144947439D01*
X267861366Y-145007915D01*
X267716224Y-145068391D01*
X267280795Y-145068391D01*
X267135652Y-145007915D01*
X267063081Y-144947439D01*
X269312795Y-143798391D02*
X269022509Y-143798391D01*
X268877366Y-143858868D01*
X268804795Y-143919344D01*
X268659652Y-144100772D01*
X268587081Y-144342677D01*
X268587081Y-144826487D01*
X268659652Y-144947439D01*
X268732224Y-145007915D01*
X268877366Y-145068391D01*
X269167652Y-145068391D01*
X269312795Y-145007915D01*
X269385366Y-144947439D01*
X269457938Y-144826487D01*
X269457938Y-144524106D01*
X269385366Y-144403153D01*
X269312795Y-144342677D01*
X269167652Y-144282201D01*
X268877366Y-144282201D01*
X268732224Y-144342677D01*
X268659652Y-144403153D01*
X268587081Y-144524106D01*
X244965065Y-145068391D02*
X244965065Y-143798391D01*
X245473065Y-144705534D01*
X245981065Y-143798391D01*
X245981065Y-145068391D01*
X246561636Y-143798391D02*
X247577636Y-145068391D01*
X247577636Y-143798391D02*
X246561636Y-145068391D01*
X248811350Y-144221725D02*
X248811350Y-145068391D01*
X248448493Y-143737915D02*
X248085636Y-144645058D01*
X249029065Y-144645058D01*
X249537065Y-143919344D02*
X249609636Y-143858868D01*
X249754779Y-143798391D01*
X250117636Y-143798391D01*
X250262779Y-143858868D01*
X250335350Y-143919344D01*
X250407922Y-144040296D01*
X250407922Y-144161248D01*
X250335350Y-144342677D01*
X249464493Y-145068391D01*
X250407922Y-145068391D01*
X225915049Y-145068391D02*
X225915049Y-143798391D01*
X226423049Y-144705534D01*
X226931049Y-143798391D01*
X226931049Y-145068391D01*
X227511620Y-143798391D02*
X228527620Y-145068391D01*
X228527620Y-143798391D02*
X227511620Y-145068391D01*
X229761334Y-144221725D02*
X229761334Y-145068391D01*
X229398477Y-143737915D02*
X229035620Y-144645058D01*
X229979049Y-144645058D01*
X230777334Y-144342677D02*
X230632192Y-144282201D01*
X230559620Y-144221725D01*
X230487049Y-144100772D01*
X230487049Y-144040296D01*
X230559620Y-143919344D01*
X230632192Y-143858868D01*
X230777334Y-143798391D01*
X231067620Y-143798391D01*
X231212763Y-143858868D01*
X231285334Y-143919344D01*
X231357906Y-144040296D01*
X231357906Y-144100772D01*
X231285334Y-144221725D01*
X231212763Y-144282201D01*
X231067620Y-144342677D01*
X230777334Y-144342677D01*
X230632192Y-144403153D01*
X230559620Y-144463629D01*
X230487049Y-144584582D01*
X230487049Y-144826487D01*
X230559620Y-144947439D01*
X230632192Y-145007915D01*
X230777334Y-145068391D01*
X231067620Y-145068391D01*
X231212763Y-145007915D01*
X231285334Y-144947439D01*
X231357906Y-144826487D01*
X231357906Y-144584582D01*
X231285334Y-144463629D01*
X231212763Y-144403153D01*
X231067620Y-144342677D01*
X206865033Y-145068391D02*
X206865033Y-143798391D01*
X207373033Y-144705534D01*
X207881033Y-143798391D01*
X207881033Y-145068391D01*
X208461604Y-143798391D02*
X209477604Y-145068391D01*
X209477604Y-143798391D02*
X208461604Y-145068391D01*
X210783890Y-143798391D02*
X210058176Y-143798391D01*
X209985604Y-144403153D01*
X210058176Y-144342677D01*
X210203318Y-144282201D01*
X210566176Y-144282201D01*
X210711318Y-144342677D01*
X210783890Y-144403153D01*
X210856461Y-144524106D01*
X210856461Y-144826487D01*
X210783890Y-144947439D01*
X210711318Y-145007915D01*
X210566176Y-145068391D01*
X210203318Y-145068391D01*
X210058176Y-145007915D01*
X209985604Y-144947439D01*
X212162747Y-144221725D02*
X212162747Y-145068391D01*
X211799890Y-143737915D02*
X211437033Y-144645058D01*
X212380461Y-144645058D01*
X111614953Y-68868327D02*
X111614953Y-67598327D01*
X112122953Y-68505470D01*
X112630953Y-67598327D01*
X112630953Y-68868327D01*
X113211524Y-67598327D02*
X114227524Y-68868327D01*
X114227524Y-67598327D02*
X113211524Y-68868327D01*
X114735524Y-67719280D02*
X114808096Y-67658804D01*
X114953238Y-67598327D01*
X115316096Y-67598327D01*
X115461238Y-67658804D01*
X115533810Y-67719280D01*
X115606381Y-67840232D01*
X115606381Y-67961184D01*
X115533810Y-68142613D01*
X114662953Y-68868327D01*
X115606381Y-68868327D01*
X116912667Y-67598327D02*
X116622381Y-67598327D01*
X116477238Y-67658804D01*
X116404667Y-67719280D01*
X116259524Y-67900708D01*
X116186953Y-68142613D01*
X116186953Y-68626423D01*
X116259524Y-68747375D01*
X116332096Y-68807851D01*
X116477238Y-68868327D01*
X116767524Y-68868327D01*
X116912667Y-68807851D01*
X116985238Y-68747375D01*
X117057810Y-68626423D01*
X117057810Y-68324042D01*
X116985238Y-68203089D01*
X116912667Y-68142613D01*
X116767524Y-68082137D01*
X116477238Y-68082137D01*
X116332096Y-68142613D01*
X116259524Y-68203089D01*
X116186953Y-68324042D01*
X111614953Y-87918343D02*
X111614953Y-86648343D01*
X112122953Y-87555486D01*
X112630953Y-86648343D01*
X112630953Y-87918343D01*
X113211524Y-86648343D02*
X114227524Y-87918343D01*
X114227524Y-86648343D02*
X113211524Y-87918343D01*
X114735524Y-86769296D02*
X114808096Y-86708820D01*
X114953238Y-86648343D01*
X115316096Y-86648343D01*
X115461238Y-86708820D01*
X115533810Y-86769296D01*
X115606381Y-86890248D01*
X115606381Y-87011200D01*
X115533810Y-87192629D01*
X114662953Y-87918343D01*
X115606381Y-87918343D01*
X116114381Y-86648343D02*
X117130381Y-86648343D01*
X116477238Y-87918343D01*
X73514921Y-87918343D02*
X73514921Y-86648343D01*
X74022921Y-87555486D01*
X74530921Y-86648343D01*
X74530921Y-87918343D01*
X75111492Y-86648343D02*
X76127492Y-87918343D01*
X76127492Y-86648343D02*
X75111492Y-87918343D01*
X76635492Y-86769296D02*
X76708064Y-86708820D01*
X76853206Y-86648343D01*
X77216064Y-86648343D01*
X77361206Y-86708820D01*
X77433778Y-86769296D01*
X77506349Y-86890248D01*
X77506349Y-87011200D01*
X77433778Y-87192629D01*
X76562921Y-87918343D01*
X77506349Y-87918343D01*
X78449778Y-86648343D02*
X78594921Y-86648343D01*
X78740064Y-86708820D01*
X78812635Y-86769296D01*
X78885206Y-86890248D01*
X78957778Y-87132153D01*
X78957778Y-87434534D01*
X78885206Y-87676439D01*
X78812635Y-87797391D01*
X78740064Y-87857867D01*
X78594921Y-87918343D01*
X78449778Y-87918343D01*
X78304635Y-87857867D01*
X78232064Y-87797391D01*
X78159492Y-87676439D01*
X78086921Y-87434534D01*
X78086921Y-87132153D01*
X78159492Y-86890248D01*
X78232064Y-86769296D01*
X78304635Y-86708820D01*
X78449778Y-86648343D01*
X92564937Y-145068391D02*
X92564937Y-143798391D01*
X93072937Y-144705534D01*
X93580937Y-143798391D01*
X93580937Y-145068391D01*
X94161508Y-143798391D02*
X95177508Y-145068391D01*
X95177508Y-143798391D02*
X94161508Y-145068391D01*
X95685508Y-143919344D02*
X95758080Y-143858868D01*
X95903222Y-143798391D01*
X96266080Y-143798391D01*
X96411222Y-143858868D01*
X96483794Y-143919344D01*
X96556365Y-144040296D01*
X96556365Y-144161248D01*
X96483794Y-144342677D01*
X95612937Y-145068391D01*
X96556365Y-145068391D01*
X97862651Y-144221725D02*
X97862651Y-145068391D01*
X97499794Y-143737915D02*
X97136937Y-144645058D01*
X98080365Y-144645058D01*
X54464905Y-145068391D02*
X54464905Y-143798391D01*
X54972905Y-144705534D01*
X55480905Y-143798391D01*
X55480905Y-145068391D01*
X56061476Y-143798391D02*
X57077476Y-145068391D01*
X57077476Y-143798391D02*
X56061476Y-145068391D01*
X58456333Y-145068391D02*
X57585476Y-145068391D01*
X58020905Y-145068391D02*
X58020905Y-143798391D01*
X57875762Y-143979820D01*
X57730619Y-144100772D01*
X57585476Y-144161248D01*
X59036905Y-143919344D02*
X59109476Y-143858868D01*
X59254619Y-143798391D01*
X59617476Y-143798391D01*
X59762619Y-143858868D01*
X59835190Y-143919344D01*
X59907762Y-144040296D01*
X59907762Y-144161248D01*
X59835190Y-144342677D01*
X58964333Y-145068391D01*
X59907762Y-145068391D01*
X17090587Y-87918343D02*
X17090587Y-86648343D01*
X17598587Y-87555486D01*
X18106587Y-86648343D01*
X18106587Y-87918343D01*
X18687158Y-86648343D02*
X19703158Y-87918343D01*
X19703158Y-86648343D02*
X18687158Y-87918343D01*
X20211158Y-86769296D02*
X20283730Y-86708820D01*
X20428873Y-86648343D01*
X20791730Y-86648343D01*
X20936873Y-86708820D01*
X21009444Y-86769296D01*
X21082016Y-86890248D01*
X21082016Y-87011200D01*
X21009444Y-87192629D01*
X20138587Y-87918343D01*
X21082016Y-87918343D01*
X17090539Y-68868273D02*
X17090539Y-67598273D01*
X17598539Y-68505416D01*
X18106539Y-67598273D01*
X18106539Y-68868273D01*
X18687110Y-67598273D02*
X19703110Y-68868273D01*
X19703110Y-67598273D02*
X18687110Y-68868273D01*
X21081968Y-68868273D02*
X20211110Y-68868273D01*
X20646539Y-68868273D02*
X20646539Y-67598273D01*
X20501396Y-67779702D01*
X20356253Y-67900654D01*
X20211110Y-67961130D01*
X36140603Y-60868327D02*
X36140603Y-59598327D01*
X36648603Y-60505470D01*
X37156603Y-59598327D01*
X37156603Y-60868327D01*
X37737174Y-59598327D02*
X38753174Y-60868327D01*
X38753174Y-59598327D02*
X37737174Y-60868327D01*
X39188603Y-59598327D02*
X40204603Y-59598327D01*
X39551460Y-60868327D01*
X54464905Y-68868327D02*
X54464905Y-67598327D01*
X54972905Y-68505470D01*
X55480905Y-67598327D01*
X55480905Y-68868327D01*
X56061476Y-67598327D02*
X57077476Y-68868327D01*
X57077476Y-67598327D02*
X56061476Y-68868327D01*
X58456333Y-68868327D02*
X57585476Y-68868327D01*
X58020905Y-68868327D02*
X58020905Y-67598327D01*
X57875762Y-67779756D01*
X57730619Y-67900708D01*
X57585476Y-67961184D01*
X58964333Y-67598327D02*
X59907762Y-67598327D01*
X59399762Y-68082137D01*
X59617476Y-68082137D01*
X59762619Y-68142613D01*
X59835190Y-68203089D01*
X59907762Y-68324042D01*
X59907762Y-68626423D01*
X59835190Y-68747375D01*
X59762619Y-68807851D01*
X59617476Y-68868327D01*
X59182048Y-68868327D01*
X59036905Y-68807851D01*
X58964333Y-68747375D01*
X73514921Y-68868327D02*
X73514921Y-67598327D01*
X74022921Y-68505470D01*
X74530921Y-67598327D01*
X74530921Y-68868327D01*
X75111492Y-67598327D02*
X76127492Y-68868327D01*
X76127492Y-67598327D02*
X75111492Y-68868327D01*
X77506349Y-68868327D02*
X76635492Y-68868327D01*
X77070921Y-68868327D02*
X77070921Y-67598327D01*
X76925778Y-67779756D01*
X76780635Y-67900708D01*
X76635492Y-67961184D01*
X78232064Y-68868327D02*
X78522349Y-68868327D01*
X78667492Y-68807851D01*
X78740064Y-68747375D01*
X78885206Y-68565946D01*
X78957778Y-68324042D01*
X78957778Y-67840232D01*
X78885206Y-67719280D01*
X78812635Y-67658804D01*
X78667492Y-67598327D01*
X78377206Y-67598327D01*
X78232064Y-67658804D01*
X78159492Y-67719280D01*
X78086921Y-67840232D01*
X78086921Y-68142613D01*
X78159492Y-68263565D01*
X78232064Y-68324042D01*
X78377206Y-68384518D01*
X78667492Y-68384518D01*
X78812635Y-68324042D01*
X78885206Y-68263565D01*
X78957778Y-68142613D01*
X92564937Y-68868327D02*
X92564937Y-67598327D01*
X93072937Y-68505470D01*
X93580937Y-67598327D01*
X93580937Y-68868327D01*
X94161508Y-67598327D02*
X95177508Y-68868327D01*
X95177508Y-67598327D02*
X94161508Y-68868327D01*
X95685508Y-67719280D02*
X95758080Y-67658804D01*
X95903222Y-67598327D01*
X96266080Y-67598327D01*
X96411222Y-67658804D01*
X96483794Y-67719280D01*
X96556365Y-67840232D01*
X96556365Y-67961184D01*
X96483794Y-68142613D01*
X95612937Y-68868327D01*
X96556365Y-68868327D01*
X97935222Y-67598327D02*
X97209508Y-67598327D01*
X97136937Y-68203089D01*
X97209508Y-68142613D01*
X97354651Y-68082137D01*
X97717508Y-68082137D01*
X97862651Y-68142613D01*
X97935222Y-68203089D01*
X98007794Y-68324042D01*
X98007794Y-68626423D01*
X97935222Y-68747375D01*
X97862651Y-68807851D01*
X97717508Y-68868327D01*
X97354651Y-68868327D01*
X97209508Y-68807851D01*
X97136937Y-68747375D01*
X283065097Y-68868327D02*
X283065097Y-67598327D01*
X283573097Y-68505470D01*
X284081097Y-67598327D01*
X284081097Y-68868327D01*
X284661668Y-67598327D02*
X285677668Y-68868327D01*
X285677668Y-67598327D02*
X284661668Y-68868327D01*
X286113097Y-67598327D02*
X287056525Y-67598327D01*
X286548525Y-68082137D01*
X286766240Y-68082137D01*
X286911382Y-68142613D01*
X286983954Y-68203089D01*
X287056525Y-68324042D01*
X287056525Y-68626423D01*
X286983954Y-68747375D01*
X286911382Y-68807851D01*
X286766240Y-68868327D01*
X286330811Y-68868327D01*
X286185668Y-68807851D01*
X286113097Y-68747375D01*
X288507954Y-68868327D02*
X287637097Y-68868327D01*
X288072525Y-68868327D02*
X288072525Y-67598327D01*
X287927382Y-67779756D01*
X287782240Y-67900708D01*
X287637097Y-67961184D01*
X264015081Y-68868327D02*
X264015081Y-67598327D01*
X264523081Y-68505470D01*
X265031081Y-67598327D01*
X265031081Y-68868327D01*
X265611652Y-67598327D02*
X266627652Y-68868327D01*
X266627652Y-67598327D02*
X265611652Y-68868327D01*
X267063081Y-67598327D02*
X268006509Y-67598327D01*
X267498509Y-68082137D01*
X267716224Y-68082137D01*
X267861366Y-68142613D01*
X267933938Y-68203089D01*
X268006509Y-68324042D01*
X268006509Y-68626423D01*
X267933938Y-68747375D01*
X267861366Y-68807851D01*
X267716224Y-68868327D01*
X267280795Y-68868327D01*
X267135652Y-68807851D01*
X267063081Y-68747375D01*
X268514509Y-67598327D02*
X269530509Y-67598327D01*
X268877366Y-68868327D01*
X225915049Y-68868327D02*
X225915049Y-67598327D01*
X226423049Y-68505470D01*
X226931049Y-67598327D01*
X226931049Y-68868327D01*
X227511620Y-67598327D02*
X228527620Y-68868327D01*
X228527620Y-67598327D02*
X227511620Y-68868327D01*
X229761334Y-68021661D02*
X229761334Y-68868327D01*
X229398477Y-67537851D02*
X229035620Y-68444994D01*
X229979049Y-68444994D01*
X230632192Y-68868327D02*
X230922477Y-68868327D01*
X231067620Y-68807851D01*
X231140192Y-68747375D01*
X231285334Y-68565946D01*
X231357906Y-68324042D01*
X231357906Y-67840232D01*
X231285334Y-67719280D01*
X231212763Y-67658804D01*
X231067620Y-67598327D01*
X230777334Y-67598327D01*
X230632192Y-67658804D01*
X230559620Y-67719280D01*
X230487049Y-67840232D01*
X230487049Y-68142613D01*
X230559620Y-68263565D01*
X230632192Y-68324042D01*
X230777334Y-68384518D01*
X231067620Y-68384518D01*
X231212763Y-68324042D01*
X231285334Y-68263565D01*
X231357906Y-68142613D01*
X36140603Y-79918343D02*
X36140603Y-78648343D01*
X36648603Y-79555486D01*
X37156603Y-78648343D01*
X37156603Y-79918343D01*
X37737174Y-78648343D02*
X38753174Y-79918343D01*
X38753174Y-78648343D02*
X37737174Y-79918343D01*
X39551460Y-79192629D02*
X39406317Y-79132153D01*
X39333746Y-79071677D01*
X39261174Y-78950724D01*
X39261174Y-78890248D01*
X39333746Y-78769296D01*
X39406317Y-78708820D01*
X39551460Y-78648343D01*
X39841746Y-78648343D01*
X39986889Y-78708820D01*
X40059460Y-78769296D01*
X40132032Y-78890248D01*
X40132032Y-78950724D01*
X40059460Y-79071677D01*
X39986889Y-79132153D01*
X39841746Y-79192629D01*
X39551460Y-79192629D01*
X39406317Y-79253105D01*
X39333746Y-79313581D01*
X39261174Y-79434534D01*
X39261174Y-79676439D01*
X39333746Y-79797391D01*
X39406317Y-79857867D01*
X39551460Y-79918343D01*
X39841746Y-79918343D01*
X39986889Y-79857867D01*
X40059460Y-79797391D01*
X40132032Y-79676439D01*
X40132032Y-79434534D01*
X40059460Y-79313581D01*
X39986889Y-79253105D01*
X39841746Y-79192629D01*
X54464905Y-87918343D02*
X54464905Y-86648343D01*
X54972905Y-87555486D01*
X55480905Y-86648343D01*
X55480905Y-87918343D01*
X56061476Y-86648343D02*
X57077476Y-87918343D01*
X57077476Y-86648343D02*
X56061476Y-87918343D01*
X58456333Y-87918343D02*
X57585476Y-87918343D01*
X58020905Y-87918343D02*
X58020905Y-86648343D01*
X57875762Y-86829772D01*
X57730619Y-86950724D01*
X57585476Y-87011200D01*
X59762619Y-87071677D02*
X59762619Y-87918343D01*
X59399762Y-86587867D02*
X59036905Y-87495010D01*
X59980333Y-87495010D01*
X225915049Y-87918343D02*
X225915049Y-86648343D01*
X226423049Y-87555486D01*
X226931049Y-86648343D01*
X226931049Y-87918343D01*
X227511620Y-86648343D02*
X228527620Y-87918343D01*
X228527620Y-86648343D02*
X227511620Y-87918343D01*
X229833906Y-86648343D02*
X229108192Y-86648343D01*
X229035620Y-87253105D01*
X229108192Y-87192629D01*
X229253334Y-87132153D01*
X229616192Y-87132153D01*
X229761334Y-87192629D01*
X229833906Y-87253105D01*
X229906477Y-87374058D01*
X229906477Y-87676439D01*
X229833906Y-87797391D01*
X229761334Y-87857867D01*
X229616192Y-87918343D01*
X229253334Y-87918343D01*
X229108192Y-87857867D01*
X229035620Y-87797391D01*
X230849906Y-86648343D02*
X230995049Y-86648343D01*
X231140192Y-86708820D01*
X231212763Y-86769296D01*
X231285334Y-86890248D01*
X231357906Y-87132153D01*
X231357906Y-87434534D01*
X231285334Y-87676439D01*
X231212763Y-87797391D01*
X231140192Y-87857867D01*
X230995049Y-87918343D01*
X230849906Y-87918343D01*
X230704763Y-87857867D01*
X230632192Y-87797391D01*
X230559620Y-87676439D01*
X230487049Y-87434534D01*
X230487049Y-87132153D01*
X230559620Y-86890248D01*
X230632192Y-86769296D01*
X230704763Y-86708820D01*
X230849906Y-86648343D01*
X17090587Y-106968359D02*
X17090587Y-105698359D01*
X17598587Y-106605502D01*
X18106587Y-105698359D01*
X18106587Y-106968359D01*
X18687158Y-105698359D02*
X19703158Y-106968359D01*
X19703158Y-105698359D02*
X18687158Y-106968359D01*
X20138587Y-105698359D02*
X21082016Y-105698359D01*
X20574016Y-106182169D01*
X20791730Y-106182169D01*
X20936873Y-106242645D01*
X21009444Y-106303121D01*
X21082016Y-106424074D01*
X21082016Y-106726455D01*
X21009444Y-106847407D01*
X20936873Y-106907883D01*
X20791730Y-106968359D01*
X20356301Y-106968359D01*
X20211158Y-106907883D01*
X20138587Y-106847407D01*
X36140603Y-106968359D02*
X36140603Y-105698359D01*
X36648603Y-106605502D01*
X37156603Y-105698359D01*
X37156603Y-106968359D01*
X37737174Y-105698359D02*
X38753174Y-106968359D01*
X38753174Y-105698359D02*
X37737174Y-106968359D01*
X39406317Y-106968359D02*
X39696603Y-106968359D01*
X39841746Y-106907883D01*
X39914317Y-106847407D01*
X40059460Y-106665978D01*
X40132032Y-106424074D01*
X40132032Y-105940264D01*
X40059460Y-105819312D01*
X39986889Y-105758836D01*
X39841746Y-105698359D01*
X39551460Y-105698359D01*
X39406317Y-105758836D01*
X39333746Y-105819312D01*
X39261174Y-105940264D01*
X39261174Y-106242645D01*
X39333746Y-106363597D01*
X39406317Y-106424074D01*
X39551460Y-106484550D01*
X39841746Y-106484550D01*
X39986889Y-106424074D01*
X40059460Y-106363597D01*
X40132032Y-106242645D01*
X54464905Y-106968359D02*
X54464905Y-105698359D01*
X54972905Y-106605502D01*
X55480905Y-105698359D01*
X55480905Y-106968359D01*
X56061476Y-105698359D02*
X57077476Y-106968359D01*
X57077476Y-105698359D02*
X56061476Y-106968359D01*
X58456333Y-106968359D02*
X57585476Y-106968359D01*
X58020905Y-106968359D02*
X58020905Y-105698359D01*
X57875762Y-105879788D01*
X57730619Y-106000740D01*
X57585476Y-106061216D01*
X59835190Y-105698359D02*
X59109476Y-105698359D01*
X59036905Y-106303121D01*
X59109476Y-106242645D01*
X59254619Y-106182169D01*
X59617476Y-106182169D01*
X59762619Y-106242645D01*
X59835190Y-106303121D01*
X59907762Y-106424074D01*
X59907762Y-106726455D01*
X59835190Y-106847407D01*
X59762619Y-106907883D01*
X59617476Y-106968359D01*
X59254619Y-106968359D01*
X59109476Y-106907883D01*
X59036905Y-106847407D01*
X92564937Y-87918343D02*
X92564937Y-86648343D01*
X93072937Y-87555486D01*
X93580937Y-86648343D01*
X93580937Y-87918343D01*
X94161508Y-86648343D02*
X95177508Y-87918343D01*
X95177508Y-86648343D02*
X94161508Y-87918343D01*
X95685508Y-86769296D02*
X95758080Y-86708820D01*
X95903222Y-86648343D01*
X96266080Y-86648343D01*
X96411222Y-86708820D01*
X96483794Y-86769296D01*
X96556365Y-86890248D01*
X96556365Y-87011200D01*
X96483794Y-87192629D01*
X95612937Y-87918343D01*
X96556365Y-87918343D01*
X98007794Y-87918343D02*
X97136937Y-87918343D01*
X97572365Y-87918343D02*
X97572365Y-86648343D01*
X97427222Y-86829772D01*
X97282080Y-86950724D01*
X97136937Y-87011200D01*
X206865033Y-87918343D02*
X206865033Y-86648343D01*
X207373033Y-87555486D01*
X207881033Y-86648343D01*
X207881033Y-87918343D01*
X208461604Y-86648343D02*
X209477604Y-87918343D01*
X209477604Y-86648343D02*
X208461604Y-87918343D01*
X210783890Y-86648343D02*
X210058176Y-86648343D01*
X209985604Y-87253105D01*
X210058176Y-87192629D01*
X210203318Y-87132153D01*
X210566176Y-87132153D01*
X210711318Y-87192629D01*
X210783890Y-87253105D01*
X210856461Y-87374058D01*
X210856461Y-87676439D01*
X210783890Y-87797391D01*
X210711318Y-87857867D01*
X210566176Y-87918343D01*
X210203318Y-87918343D01*
X210058176Y-87857867D01*
X209985604Y-87797391D01*
X212307890Y-87918343D02*
X211437033Y-87918343D01*
X211872461Y-87918343D02*
X211872461Y-86648343D01*
X211727318Y-86829772D01*
X211582176Y-86950724D01*
X211437033Y-87011200D01*
X17090587Y-126018375D02*
X17090587Y-124748375D01*
X17598587Y-125655518D01*
X18106587Y-124748375D01*
X18106587Y-126018375D01*
X18687158Y-124748375D02*
X19703158Y-126018375D01*
X19703158Y-124748375D02*
X18687158Y-126018375D01*
X20936873Y-125171709D02*
X20936873Y-126018375D01*
X20574016Y-124687899D02*
X20211158Y-125595042D01*
X21154587Y-125595042D01*
X35414889Y-126018375D02*
X35414889Y-124748375D01*
X35922889Y-125655518D01*
X36430889Y-124748375D01*
X36430889Y-126018375D01*
X37011460Y-124748375D02*
X38027460Y-126018375D01*
X38027460Y-124748375D02*
X37011460Y-126018375D01*
X39406317Y-126018375D02*
X38535460Y-126018375D01*
X38970889Y-126018375D02*
X38970889Y-124748375D01*
X38825746Y-124929804D01*
X38680603Y-125050756D01*
X38535460Y-125111232D01*
X40349746Y-124748375D02*
X40494889Y-124748375D01*
X40640032Y-124808852D01*
X40712603Y-124869328D01*
X40785174Y-124990280D01*
X40857746Y-125232185D01*
X40857746Y-125534566D01*
X40785174Y-125776471D01*
X40712603Y-125897423D01*
X40640032Y-125957899D01*
X40494889Y-126018375D01*
X40349746Y-126018375D01*
X40204603Y-125957899D01*
X40132032Y-125897423D01*
X40059460Y-125776471D01*
X39986889Y-125534566D01*
X39986889Y-125232185D01*
X40059460Y-124990280D01*
X40132032Y-124869328D01*
X40204603Y-124808852D01*
X40349746Y-124748375D01*
X73514921Y-106968359D02*
X73514921Y-105698359D01*
X74022921Y-106605502D01*
X74530921Y-105698359D01*
X74530921Y-106968359D01*
X75111492Y-105698359D02*
X76127492Y-106968359D01*
X76127492Y-105698359D02*
X75111492Y-106968359D01*
X77506349Y-106968359D02*
X76635492Y-106968359D01*
X77070921Y-106968359D02*
X77070921Y-105698359D01*
X76925778Y-105879788D01*
X76780635Y-106000740D01*
X76635492Y-106061216D01*
X78812635Y-105698359D02*
X78522349Y-105698359D01*
X78377206Y-105758836D01*
X78304635Y-105819312D01*
X78159492Y-106000740D01*
X78086921Y-106242645D01*
X78086921Y-106726455D01*
X78159492Y-106847407D01*
X78232064Y-106907883D01*
X78377206Y-106968359D01*
X78667492Y-106968359D01*
X78812635Y-106907883D01*
X78885206Y-106847407D01*
X78957778Y-106726455D01*
X78957778Y-106424074D01*
X78885206Y-106303121D01*
X78812635Y-106242645D01*
X78667492Y-106182169D01*
X78377206Y-106182169D01*
X78232064Y-106242645D01*
X78159492Y-106303121D01*
X78086921Y-106424074D01*
X92564937Y-106968359D02*
X92564937Y-105698359D01*
X93072937Y-106605502D01*
X93580937Y-105698359D01*
X93580937Y-106968359D01*
X94161508Y-105698359D02*
X95177508Y-106968359D01*
X95177508Y-105698359D02*
X94161508Y-106968359D01*
X95685508Y-105819312D02*
X95758080Y-105758836D01*
X95903222Y-105698359D01*
X96266080Y-105698359D01*
X96411222Y-105758836D01*
X96483794Y-105819312D01*
X96556365Y-105940264D01*
X96556365Y-106061216D01*
X96483794Y-106242645D01*
X95612937Y-106968359D01*
X96556365Y-106968359D01*
X97136937Y-105819312D02*
X97209508Y-105758836D01*
X97354651Y-105698359D01*
X97717508Y-105698359D01*
X97862651Y-105758836D01*
X97935222Y-105819312D01*
X98007794Y-105940264D01*
X98007794Y-106061216D01*
X97935222Y-106242645D01*
X97064365Y-106968359D01*
X98007794Y-106968359D01*
X17090587Y-145068391D02*
X17090587Y-143798391D01*
X17598587Y-144705534D01*
X18106587Y-143798391D01*
X18106587Y-145068391D01*
X18687158Y-143798391D02*
X19703158Y-145068391D01*
X19703158Y-143798391D02*
X18687158Y-145068391D01*
X21009444Y-143798391D02*
X20283730Y-143798391D01*
X20211158Y-144403153D01*
X20283730Y-144342677D01*
X20428873Y-144282201D01*
X20791730Y-144282201D01*
X20936873Y-144342677D01*
X21009444Y-144403153D01*
X21082016Y-144524106D01*
X21082016Y-144826487D01*
X21009444Y-144947439D01*
X20936873Y-145007915D01*
X20791730Y-145068391D01*
X20428873Y-145068391D01*
X20283730Y-145007915D01*
X20211158Y-144947439D01*
X54464905Y-126018375D02*
X54464905Y-124748375D01*
X54972905Y-125655518D01*
X55480905Y-124748375D01*
X55480905Y-126018375D01*
X56061476Y-124748375D02*
X57077476Y-126018375D01*
X57077476Y-124748375D02*
X56061476Y-126018375D01*
X58456333Y-126018375D02*
X57585476Y-126018375D01*
X58020905Y-126018375D02*
X58020905Y-124748375D01*
X57875762Y-124929804D01*
X57730619Y-125050756D01*
X57585476Y-125111232D01*
X59907762Y-126018375D02*
X59036905Y-126018375D01*
X59472333Y-126018375D02*
X59472333Y-124748375D01*
X59327190Y-124929804D01*
X59182048Y-125050756D01*
X59036905Y-125111232D01*
X73514921Y-126018375D02*
X73514921Y-124748375D01*
X74022921Y-125655518D01*
X74530921Y-124748375D01*
X74530921Y-126018375D01*
X75111492Y-124748375D02*
X76127492Y-126018375D01*
X76127492Y-124748375D02*
X75111492Y-126018375D01*
X77506349Y-126018375D02*
X76635492Y-126018375D01*
X77070921Y-126018375D02*
X77070921Y-124748375D01*
X76925778Y-124929804D01*
X76780635Y-125050756D01*
X76635492Y-125111232D01*
X78014349Y-124748375D02*
X79030349Y-124748375D01*
X78377206Y-126018375D01*
X92564937Y-126018375D02*
X92564937Y-124748375D01*
X93072937Y-125655518D01*
X93580937Y-124748375D01*
X93580937Y-126018375D01*
X94161508Y-124748375D02*
X95177508Y-126018375D01*
X95177508Y-124748375D02*
X94161508Y-126018375D01*
X95685508Y-124869328D02*
X95758080Y-124808852D01*
X95903222Y-124748375D01*
X96266080Y-124748375D01*
X96411222Y-124808852D01*
X96483794Y-124869328D01*
X96556365Y-124990280D01*
X96556365Y-125111232D01*
X96483794Y-125292661D01*
X95612937Y-126018375D01*
X96556365Y-126018375D01*
X97064365Y-124748375D02*
X98007794Y-124748375D01*
X97499794Y-125232185D01*
X97717508Y-125232185D01*
X97862651Y-125292661D01*
X97935222Y-125353137D01*
X98007794Y-125474090D01*
X98007794Y-125776471D01*
X97935222Y-125897423D01*
X97862651Y-125957899D01*
X97717508Y-126018375D01*
X97282080Y-126018375D01*
X97136937Y-125957899D01*
X97064365Y-125897423D01*
X36140603Y-145068391D02*
X36140603Y-143798391D01*
X36648603Y-144705534D01*
X37156603Y-143798391D01*
X37156603Y-145068391D01*
X37737174Y-143798391D02*
X38753174Y-145068391D01*
X38753174Y-143798391D02*
X37737174Y-145068391D01*
X39986889Y-143798391D02*
X39696603Y-143798391D01*
X39551460Y-143858868D01*
X39478889Y-143919344D01*
X39333746Y-144100772D01*
X39261174Y-144342677D01*
X39261174Y-144826487D01*
X39333746Y-144947439D01*
X39406317Y-145007915D01*
X39551460Y-145068391D01*
X39841746Y-145068391D01*
X39986889Y-145007915D01*
X40059460Y-144947439D01*
X40132032Y-144826487D01*
X40132032Y-144524106D01*
X40059460Y-144403153D01*
X39986889Y-144342677D01*
X39841746Y-144282201D01*
X39551460Y-144282201D01*
X39406317Y-144342677D01*
X39333746Y-144403153D01*
X39261174Y-144524106D01*
X73514921Y-145068391D02*
X73514921Y-143798391D01*
X74022921Y-144705534D01*
X74530921Y-143798391D01*
X74530921Y-145068391D01*
X75111492Y-143798391D02*
X76127492Y-145068391D01*
X76127492Y-143798391D02*
X75111492Y-145068391D01*
X77506349Y-145068391D02*
X76635492Y-145068391D01*
X77070921Y-145068391D02*
X77070921Y-143798391D01*
X76925778Y-143979820D01*
X76780635Y-144100772D01*
X76635492Y-144161248D01*
X78377206Y-144342677D02*
X78232064Y-144282201D01*
X78159492Y-144221725D01*
X78086921Y-144100772D01*
X78086921Y-144040296D01*
X78159492Y-143919344D01*
X78232064Y-143858868D01*
X78377206Y-143798391D01*
X78667492Y-143798391D01*
X78812635Y-143858868D01*
X78885206Y-143919344D01*
X78957778Y-144040296D01*
X78957778Y-144100772D01*
X78885206Y-144221725D01*
X78812635Y-144282201D01*
X78667492Y-144342677D01*
X78377206Y-144342677D01*
X78232064Y-144403153D01*
X78159492Y-144463629D01*
X78086921Y-144584582D01*
X78086921Y-144826487D01*
X78159492Y-144947439D01*
X78232064Y-145007915D01*
X78377206Y-145068391D01*
X78667492Y-145068391D01*
X78812635Y-145007915D01*
X78885206Y-144947439D01*
X78957778Y-144826487D01*
X78957778Y-144584582D01*
X78885206Y-144463629D01*
X78812635Y-144403153D01*
X78667492Y-144342677D01*
D11*
X143232262Y-128158961D02*
X143279881Y-128206580D01*
X143327500Y-128349437D01*
X143327500Y-128444675D01*
X143279881Y-128587533D01*
X143184643Y-128682771D01*
X143089405Y-128730390D01*
X142898929Y-128778009D01*
X142756072Y-128778009D01*
X142565596Y-128730390D01*
X142470358Y-128682771D01*
X142375120Y-128587533D01*
X142327500Y-128444675D01*
X142327500Y-128349437D01*
X142375120Y-128206580D01*
X142422739Y-128158961D01*
X142327500Y-127825628D02*
X142327500Y-127206580D01*
X142708453Y-127539914D01*
X142708453Y-127397056D01*
X142756072Y-127301818D01*
X142803691Y-127254199D01*
X142898929Y-127206580D01*
X143137024Y-127206580D01*
X143232262Y-127254199D01*
X143279881Y-127301818D01*
X143327500Y-127397056D01*
X143327500Y-127682771D01*
X143279881Y-127778009D01*
X143232262Y-127825628D01*
X163472904Y-126968335D02*
X163520523Y-127015954D01*
X163568142Y-127158811D01*
X163568142Y-127254049D01*
X163520523Y-127396907D01*
X163425285Y-127492145D01*
X163330047Y-127539764D01*
X163139571Y-127587383D01*
X162996714Y-127587383D01*
X162806238Y-127539764D01*
X162711000Y-127492145D01*
X162615762Y-127396907D01*
X162568142Y-127254049D01*
X162568142Y-127158811D01*
X162615762Y-127015954D01*
X162663381Y-126968335D01*
X162901476Y-126111192D02*
X163568142Y-126111192D01*
X162520523Y-126349288D02*
X163234809Y-126587383D01*
X163234809Y-125968335D01*
X157339271Y-127163573D02*
X156882129Y-127163573D01*
X157110700Y-127163573D02*
X157110700Y-126363573D01*
X157034510Y-126477859D01*
X156958319Y-126554049D01*
X156882129Y-126592145D01*
X157834510Y-126363573D02*
X157910700Y-126363573D01*
X157986890Y-126401669D01*
X158024986Y-126439764D01*
X158063081Y-126515954D01*
X158101176Y-126668335D01*
X158101176Y-126858811D01*
X158063081Y-127011192D01*
X158024986Y-127087383D01*
X157986890Y-127125478D01*
X157910700Y-127163573D01*
X157834510Y-127163573D01*
X157758319Y-127125478D01*
X157720224Y-127087383D01*
X157682129Y-127011192D01*
X157644033Y-126858811D01*
X157644033Y-126668335D01*
X157682129Y-126515954D01*
X157720224Y-126439764D01*
X157758319Y-126401669D01*
X157834510Y-126363573D01*
X158596414Y-126363573D02*
X158672605Y-126363573D01*
X158748795Y-126401669D01*
X158786890Y-126439764D01*
X158824986Y-126515954D01*
X158863081Y-126668335D01*
X158863081Y-126858811D01*
X158824986Y-127011192D01*
X158786890Y-127087383D01*
X158748795Y-127125478D01*
X158672605Y-127163573D01*
X158596414Y-127163573D01*
X158520224Y-127125478D01*
X158482129Y-127087383D01*
X158444033Y-127011192D01*
X158405938Y-126858811D01*
X158405938Y-126668335D01*
X158444033Y-126515954D01*
X158482129Y-126439764D01*
X158520224Y-126401669D01*
X158596414Y-126363573D01*
X159205938Y-126630240D02*
X159205938Y-127163573D01*
X159205938Y-126706430D02*
X159244033Y-126668335D01*
X159320224Y-126630240D01*
X159434510Y-126630240D01*
X159510700Y-126668335D01*
X159548795Y-126744526D01*
X159548795Y-127163573D01*
X163472904Y-129944900D02*
X163520523Y-129992519D01*
X163568142Y-130135376D01*
X163568142Y-130230614D01*
X163520523Y-130373472D01*
X163425285Y-130468710D01*
X163330047Y-130516329D01*
X163139571Y-130563948D01*
X162996714Y-130563948D01*
X162806238Y-130516329D01*
X162711000Y-130468710D01*
X162615762Y-130373472D01*
X162568142Y-130230614D01*
X162568142Y-130135376D01*
X162615762Y-129992519D01*
X162663381Y-129944900D01*
X162568142Y-129040138D02*
X162568142Y-129516329D01*
X163044333Y-129563948D01*
X162996714Y-129516329D01*
X162949095Y-129421091D01*
X162949095Y-129182995D01*
X162996714Y-129087757D01*
X163044333Y-129040138D01*
X163139571Y-128992519D01*
X163377666Y-128992519D01*
X163472904Y-129040138D01*
X163520523Y-129087757D01*
X163568142Y-129182995D01*
X163568142Y-129421091D01*
X163520523Y-129516329D01*
X163472904Y-129563948D01*
X157458019Y-130140138D02*
X157000877Y-130140138D01*
X157229448Y-130140138D02*
X157229448Y-129340138D01*
X157153258Y-129454424D01*
X157077067Y-129530614D01*
X157000877Y-129568710D01*
X157953258Y-129340138D02*
X158029448Y-129340138D01*
X158105638Y-129378234D01*
X158143734Y-129416329D01*
X158181829Y-129492519D01*
X158219924Y-129644900D01*
X158219924Y-129835376D01*
X158181829Y-129987757D01*
X158143734Y-130063948D01*
X158105638Y-130102043D01*
X158029448Y-130140138D01*
X157953258Y-130140138D01*
X157877067Y-130102043D01*
X157838972Y-130063948D01*
X157800877Y-129987757D01*
X157762781Y-129835376D01*
X157762781Y-129644900D01*
X157800877Y-129492519D01*
X157838972Y-129416329D01*
X157877067Y-129378234D01*
X157953258Y-129340138D01*
X158715162Y-129340138D02*
X158791353Y-129340138D01*
X158867543Y-129378234D01*
X158905638Y-129416329D01*
X158943734Y-129492519D01*
X158981829Y-129644900D01*
X158981829Y-129835376D01*
X158943734Y-129987757D01*
X158905638Y-130063948D01*
X158867543Y-130102043D01*
X158791353Y-130140138D01*
X158715162Y-130140138D01*
X158638972Y-130102043D01*
X158600877Y-130063948D01*
X158562781Y-129987757D01*
X158524686Y-129835376D01*
X158524686Y-129644900D01*
X158562781Y-129492519D01*
X158600877Y-129416329D01*
X158638972Y-129378234D01*
X158715162Y-129340138D01*
X159324686Y-129606805D02*
X159324686Y-130140138D01*
X159324686Y-129682995D02*
X159362781Y-129644900D01*
X159438972Y-129606805D01*
X159553258Y-129606805D01*
X159629448Y-129644900D01*
X159667543Y-129721091D01*
X159667543Y-130140138D01*
X142636949Y-95476120D02*
X142684568Y-95523739D01*
X142732187Y-95666596D01*
X142732187Y-95761834D01*
X142684568Y-95904692D01*
X142589330Y-95999930D01*
X142494092Y-96047549D01*
X142303616Y-96095168D01*
X142160759Y-96095168D01*
X141970283Y-96047549D01*
X141875045Y-95999930D01*
X141779807Y-95904692D01*
X141732187Y-95761834D01*
X141732187Y-95666596D01*
X141779807Y-95523739D01*
X141827426Y-95476120D01*
X142732187Y-94523739D02*
X142732187Y-95095168D01*
X142732187Y-94809454D02*
X141732187Y-94809454D01*
X141875045Y-94904692D01*
X141970283Y-94999930D01*
X142017902Y-95095168D01*
X142636949Y-90118303D02*
X142684568Y-90165922D01*
X142732187Y-90308779D01*
X142732187Y-90404017D01*
X142684568Y-90546875D01*
X142589330Y-90642113D01*
X142494092Y-90689732D01*
X142303616Y-90737351D01*
X142160759Y-90737351D01*
X141970283Y-90689732D01*
X141875045Y-90642113D01*
X141779807Y-90546875D01*
X141732187Y-90404017D01*
X141732187Y-90308779D01*
X141779807Y-90165922D01*
X141827426Y-90118303D01*
X141827426Y-89737351D02*
X141779807Y-89689732D01*
X141732187Y-89594494D01*
X141732187Y-89356398D01*
X141779807Y-89261160D01*
X141827426Y-89213541D01*
X141922664Y-89165922D01*
X142017902Y-89165922D01*
X142160759Y-89213541D01*
X142732187Y-89784970D01*
X142732187Y-89165922D01*
X163897463Y-113433429D02*
X163897463Y-113766762D01*
X164421272Y-113766762D02*
X163421272Y-113766762D01*
X163421272Y-113290572D01*
X164421272Y-112385810D02*
X164421272Y-112957238D01*
X164421272Y-112671524D02*
X163421272Y-112671524D01*
X163564130Y-112766762D01*
X163659368Y-112862000D01*
X163706987Y-112957238D01*
X141136874Y-81903333D02*
X141851160Y-81903333D01*
X141994017Y-81950952D01*
X142089255Y-82046190D01*
X142136874Y-82189047D01*
X142136874Y-82284285D01*
X141232113Y-81474761D02*
X141184494Y-81427142D01*
X141136874Y-81331904D01*
X141136874Y-81093809D01*
X141184494Y-80998571D01*
X141232113Y-80950952D01*
X141327351Y-80903333D01*
X141422589Y-80903333D01*
X141565446Y-80950952D01*
X142136874Y-81522380D01*
X142136874Y-80903333D01*
X162972829Y-64817538D02*
X162972829Y-65293729D01*
X161972829Y-65293729D01*
X162449020Y-64484205D02*
X162449020Y-64150871D01*
X162972829Y-64008014D02*
X162972829Y-64484205D01*
X161972829Y-64484205D01*
X161972829Y-64008014D01*
X162972829Y-63579443D02*
X161972829Y-63579443D01*
X161972829Y-63341348D01*
X162020449Y-63198491D01*
X162115687Y-63103252D01*
X162210925Y-63055633D01*
X162401401Y-63008014D01*
X162544258Y-63008014D01*
X162734734Y-63055633D01*
X162829972Y-63103252D01*
X162925210Y-63198491D01*
X162972829Y-63341348D01*
X162972829Y-63579443D01*
X162068068Y-62627062D02*
X162020449Y-62579443D01*
X161972829Y-62484205D01*
X161972829Y-62246110D01*
X162020449Y-62150871D01*
X162068068Y-62103252D01*
X162163306Y-62055633D01*
X162258544Y-62055633D01*
X162401401Y-62103252D01*
X162972829Y-62674681D01*
X162972829Y-62055633D01*
X148066270Y-124277484D02*
X147732937Y-123801294D01*
X147494841Y-124277484D02*
X147494841Y-123277484D01*
X147875794Y-123277484D01*
X147971032Y-123325104D01*
X148018651Y-123372723D01*
X148066270Y-123467961D01*
X148066270Y-123610818D01*
X148018651Y-123706056D01*
X147971032Y-123753675D01*
X147875794Y-123801294D01*
X147494841Y-123801294D01*
X149018651Y-124277484D02*
X148447222Y-124277484D01*
X148732937Y-124277484D02*
X148732937Y-123277484D01*
X148637698Y-123420342D01*
X148542460Y-123515580D01*
X148447222Y-123563199D01*
X148594841Y-119570518D02*
X148594841Y-120027661D01*
X148594841Y-119799090D02*
X147794841Y-119799090D01*
X147909127Y-119875280D01*
X147985317Y-119951471D01*
X148023413Y-120027661D01*
X148518651Y-119227661D02*
X148556746Y-119189566D01*
X148594841Y-119227661D01*
X148556746Y-119265756D01*
X148518651Y-119227661D01*
X148594841Y-119227661D01*
X147794841Y-118465756D02*
X147794841Y-118846709D01*
X148175794Y-118884804D01*
X148137698Y-118846709D01*
X148099603Y-118770518D01*
X148099603Y-118580042D01*
X148137698Y-118503852D01*
X148175794Y-118465756D01*
X148251984Y-118427661D01*
X148442460Y-118427661D01*
X148518651Y-118465756D01*
X148556746Y-118503852D01*
X148594841Y-118580042D01*
X148594841Y-118770518D01*
X148556746Y-118846709D01*
X148518651Y-118884804D01*
X148594841Y-118084804D02*
X147794841Y-118084804D01*
X148290079Y-118008613D02*
X148594841Y-117780042D01*
X148061508Y-117780042D02*
X148366270Y-118084804D01*
X162972829Y-109108945D02*
X162496639Y-109442279D01*
X162972829Y-109680374D02*
X161972829Y-109680374D01*
X161972829Y-109299421D01*
X162020449Y-109204183D01*
X162068068Y-109156564D01*
X162163306Y-109108945D01*
X162306163Y-109108945D01*
X162401401Y-109156564D01*
X162449020Y-109204183D01*
X162496639Y-109299421D01*
X162496639Y-109680374D01*
X162068068Y-108727993D02*
X162020449Y-108680374D01*
X161972829Y-108585136D01*
X161972829Y-108347040D01*
X162020449Y-108251802D01*
X162068068Y-108204183D01*
X162163306Y-108156564D01*
X162258544Y-108156564D01*
X162401401Y-108204183D01*
X162972829Y-108775612D01*
X162972829Y-108156564D01*
X157146890Y-108504183D02*
X157680224Y-108504183D01*
X157337367Y-109304183D01*
X158365938Y-108504183D02*
X157984986Y-108504183D01*
X157946890Y-108885136D01*
X157984986Y-108847040D01*
X158061176Y-108808945D01*
X158251652Y-108808945D01*
X158327843Y-108847040D01*
X158365938Y-108885136D01*
X158404033Y-108961326D01*
X158404033Y-109151802D01*
X158365938Y-109227993D01*
X158327843Y-109266088D01*
X158251652Y-109304183D01*
X158061176Y-109304183D01*
X157984986Y-109266088D01*
X157946890Y-109227993D01*
X159204033Y-109304183D02*
X158937367Y-108923231D01*
X158746890Y-109304183D02*
X158746890Y-108504183D01*
X159051652Y-108504183D01*
X159127843Y-108542279D01*
X159165938Y-108580374D01*
X159204033Y-108656564D01*
X159204033Y-108770850D01*
X159165938Y-108847040D01*
X159127843Y-108885136D01*
X159051652Y-108923231D01*
X158746890Y-108923231D01*
X162972829Y-106727693D02*
X162496639Y-107061027D01*
X162972829Y-107299122D02*
X161972829Y-107299122D01*
X161972829Y-106918169D01*
X162020449Y-106822931D01*
X162068068Y-106775312D01*
X162163306Y-106727693D01*
X162306163Y-106727693D01*
X162401401Y-106775312D01*
X162449020Y-106822931D01*
X162496639Y-106918169D01*
X162496639Y-107299122D01*
X161972829Y-106394360D02*
X161972829Y-105775312D01*
X162353782Y-106108646D01*
X162353782Y-105965788D01*
X162401401Y-105870550D01*
X162449020Y-105822931D01*
X162544258Y-105775312D01*
X162782353Y-105775312D01*
X162877591Y-105822931D01*
X162925210Y-105870550D01*
X162972829Y-105965788D01*
X162972829Y-106251503D01*
X162925210Y-106346741D01*
X162877591Y-106394360D01*
X157146890Y-106122931D02*
X157680224Y-106122931D01*
X157337367Y-106922931D01*
X158365938Y-106122931D02*
X157984986Y-106122931D01*
X157946890Y-106503884D01*
X157984986Y-106465788D01*
X158061176Y-106427693D01*
X158251652Y-106427693D01*
X158327843Y-106465788D01*
X158365938Y-106503884D01*
X158404033Y-106580074D01*
X158404033Y-106770550D01*
X158365938Y-106846741D01*
X158327843Y-106884836D01*
X158251652Y-106922931D01*
X158061176Y-106922931D01*
X157984986Y-106884836D01*
X157946890Y-106846741D01*
X159204033Y-106922931D02*
X158937367Y-106541979D01*
X158746890Y-106922931D02*
X158746890Y-106122931D01*
X159051652Y-106122931D01*
X159127843Y-106161027D01*
X159165938Y-106199122D01*
X159204033Y-106275312D01*
X159204033Y-106389598D01*
X159165938Y-106465788D01*
X159127843Y-106503884D01*
X159051652Y-106541979D01*
X158746890Y-106541979D01*
X150447522Y-124277484D02*
X150114189Y-123801294D01*
X149876093Y-124277484D02*
X149876093Y-123277484D01*
X150257046Y-123277484D01*
X150352284Y-123325104D01*
X150399903Y-123372723D01*
X150447522Y-123467961D01*
X150447522Y-123610818D01*
X150399903Y-123706056D01*
X150352284Y-123753675D01*
X150257046Y-123801294D01*
X149876093Y-123801294D01*
X151304665Y-123610818D02*
X151304665Y-124277484D01*
X151066569Y-123229865D02*
X150828474Y-123944151D01*
X151447522Y-123944151D01*
X150976093Y-119538790D02*
X150976093Y-119995933D01*
X150976093Y-119767361D02*
X150176093Y-119767361D01*
X150290379Y-119843552D01*
X150366569Y-119919742D01*
X150404665Y-119995933D01*
X150176093Y-119043552D02*
X150176093Y-118967361D01*
X150214189Y-118891171D01*
X150252284Y-118853076D01*
X150328474Y-118814980D01*
X150480855Y-118776885D01*
X150671331Y-118776885D01*
X150823712Y-118814980D01*
X150899903Y-118853076D01*
X150937998Y-118891171D01*
X150976093Y-118967361D01*
X150976093Y-119043552D01*
X150937998Y-119119742D01*
X150899903Y-119157838D01*
X150823712Y-119195933D01*
X150671331Y-119234028D01*
X150480855Y-119234028D01*
X150328474Y-119195933D01*
X150252284Y-119157838D01*
X150214189Y-119119742D01*
X150176093Y-119043552D01*
X150976093Y-118434028D02*
X150176093Y-118434028D01*
X150671331Y-118357838D02*
X150976093Y-118129266D01*
X150442760Y-118129266D02*
X150747522Y-118434028D01*
X164163455Y-58507340D02*
X163687265Y-58840674D01*
X164163455Y-59078769D02*
X163163455Y-59078769D01*
X163163455Y-58697816D01*
X163211075Y-58602578D01*
X163258694Y-58554959D01*
X163353932Y-58507340D01*
X163496789Y-58507340D01*
X163592027Y-58554959D01*
X163639646Y-58602578D01*
X163687265Y-58697816D01*
X163687265Y-59078769D01*
X163592027Y-57935912D02*
X163544408Y-58031150D01*
X163496789Y-58078769D01*
X163401551Y-58126388D01*
X163353932Y-58126388D01*
X163258694Y-58078769D01*
X163211075Y-58031150D01*
X163163455Y-57935912D01*
X163163455Y-57745435D01*
X163211075Y-57650197D01*
X163258694Y-57602578D01*
X163353932Y-57554959D01*
X163401551Y-57554959D01*
X163496789Y-57602578D01*
X163544408Y-57650197D01*
X163592027Y-57745435D01*
X163592027Y-57935912D01*
X163639646Y-58031150D01*
X163687265Y-58078769D01*
X163782503Y-58126388D01*
X163972979Y-58126388D01*
X164068217Y-58078769D01*
X164115836Y-58031150D01*
X164163455Y-57935912D01*
X164163455Y-57745435D01*
X164115836Y-57650197D01*
X164068217Y-57602578D01*
X163972979Y-57554959D01*
X163782503Y-57554959D01*
X163687265Y-57602578D01*
X163639646Y-57650197D01*
X163592027Y-57745435D01*
X158440652Y-58702578D02*
X157983509Y-58702578D01*
X158212080Y-58702578D02*
X158212080Y-57902578D01*
X158135890Y-58016864D01*
X158059699Y-58093054D01*
X157983509Y-58131150D01*
X158783509Y-58626388D02*
X158821604Y-58664483D01*
X158783509Y-58702578D01*
X158745414Y-58664483D01*
X158783509Y-58626388D01*
X158783509Y-58702578D01*
X159545414Y-57902578D02*
X159164461Y-57902578D01*
X159126366Y-58283531D01*
X159164461Y-58245435D01*
X159240652Y-58207340D01*
X159431128Y-58207340D01*
X159507319Y-58245435D01*
X159545414Y-58283531D01*
X159583509Y-58359721D01*
X159583509Y-58550197D01*
X159545414Y-58626388D01*
X159507319Y-58664483D01*
X159431128Y-58702578D01*
X159240652Y-58702578D01*
X159164461Y-58664483D01*
X159126366Y-58626388D01*
X159926366Y-58702578D02*
X159926366Y-57902578D01*
X160002557Y-58397816D02*
X160231128Y-58702578D01*
X160231128Y-58169245D02*
X159926366Y-58474007D01*
X142470507Y-73688084D02*
X142518126Y-73545227D01*
X142518126Y-73307131D01*
X142470507Y-73211893D01*
X142422888Y-73164274D01*
X142327650Y-73116655D01*
X142232412Y-73116655D01*
X142137174Y-73164274D01*
X142089555Y-73211893D01*
X142041936Y-73307131D01*
X141994317Y-73497608D01*
X141946698Y-73592846D01*
X141899079Y-73640465D01*
X141803841Y-73688084D01*
X141708603Y-73688084D01*
X141613365Y-73640465D01*
X141565746Y-73592846D01*
X141518126Y-73497608D01*
X141518126Y-73259512D01*
X141565746Y-73116655D01*
X141518126Y-72783322D02*
X142518126Y-72545227D01*
X141803841Y-72354751D01*
X142518126Y-72164274D01*
X141518126Y-71926179D01*
X142518126Y-71021417D02*
X142518126Y-71592846D01*
X142518126Y-71307131D02*
X141518126Y-71307131D01*
X141660984Y-71402370D01*
X141756222Y-71497608D01*
X141803841Y-71592846D01*
X151066569Y-74080566D02*
X150590379Y-74413900D01*
X151066569Y-74651995D02*
X150066569Y-74651995D01*
X150066569Y-74271043D01*
X150114189Y-74175805D01*
X150161808Y-74128186D01*
X150257046Y-74080566D01*
X150399903Y-74080566D01*
X150495141Y-74128186D01*
X150542760Y-74175805D01*
X150590379Y-74271043D01*
X150590379Y-74651995D01*
X150542760Y-73651995D02*
X150542760Y-73318662D01*
X151066569Y-73175805D02*
X151066569Y-73651995D01*
X150066569Y-73651995D01*
X150066569Y-73175805D01*
X151018950Y-72794852D02*
X151066569Y-72651995D01*
X151066569Y-72413900D01*
X151018950Y-72318662D01*
X150971331Y-72271043D01*
X150876093Y-72223424D01*
X150780855Y-72223424D01*
X150685617Y-72271043D01*
X150637998Y-72318662D01*
X150590379Y-72413900D01*
X150542760Y-72604376D01*
X150495141Y-72699614D01*
X150447522Y-72747233D01*
X150352284Y-72794852D01*
X150257046Y-72794852D01*
X150161808Y-72747233D01*
X150114189Y-72699614D01*
X150066569Y-72604376D01*
X150066569Y-72366281D01*
X150114189Y-72223424D01*
X150542760Y-71794852D02*
X150542760Y-71461519D01*
X151066569Y-71318662D02*
X151066569Y-71794852D01*
X150066569Y-71794852D01*
X150066569Y-71318662D01*
X150066569Y-71032947D02*
X150066569Y-70461519D01*
X151066569Y-70747233D02*
X150066569Y-70747233D01*
X142470507Y-105239673D02*
X142518126Y-105096816D01*
X142518126Y-104858720D01*
X142470507Y-104763482D01*
X142422888Y-104715863D01*
X142327650Y-104668244D01*
X142232412Y-104668244D01*
X142137174Y-104715863D01*
X142089555Y-104763482D01*
X142041936Y-104858720D01*
X141994317Y-105049197D01*
X141946698Y-105144435D01*
X141899079Y-105192054D01*
X141803841Y-105239673D01*
X141708603Y-105239673D01*
X141613365Y-105192054D01*
X141565746Y-105144435D01*
X141518126Y-105049197D01*
X141518126Y-104811101D01*
X141565746Y-104668244D01*
X141518126Y-104334911D02*
X142518126Y-104096816D01*
X141803841Y-103906340D01*
X142518126Y-103715863D01*
X141518126Y-103477768D01*
X141613365Y-103144435D02*
X141565746Y-103096816D01*
X141518126Y-103001578D01*
X141518126Y-102763482D01*
X141565746Y-102668244D01*
X141613365Y-102620625D01*
X141708603Y-102573006D01*
X141803841Y-102573006D01*
X141946698Y-102620625D01*
X142518126Y-103192054D01*
X142518126Y-102573006D01*
X150542760Y-105536917D02*
X150590379Y-105394060D01*
X150637998Y-105346441D01*
X150733236Y-105298822D01*
X150876093Y-105298822D01*
X150971331Y-105346441D01*
X151018950Y-105394060D01*
X151066569Y-105489298D01*
X151066569Y-105870251D01*
X150066569Y-105870251D01*
X150066569Y-105536917D01*
X150114189Y-105441679D01*
X150161808Y-105394060D01*
X150257046Y-105346441D01*
X150352284Y-105346441D01*
X150447522Y-105394060D01*
X150495141Y-105441679D01*
X150542760Y-105536917D01*
X150542760Y-105870251D01*
X150066569Y-104679775D02*
X150066569Y-104489298D01*
X150114189Y-104394060D01*
X150209427Y-104298822D01*
X150399903Y-104251203D01*
X150733236Y-104251203D01*
X150923712Y-104298822D01*
X151018950Y-104394060D01*
X151066569Y-104489298D01*
X151066569Y-104679775D01*
X151018950Y-104775013D01*
X150923712Y-104870251D01*
X150733236Y-104917870D01*
X150399903Y-104917870D01*
X150209427Y-104870251D01*
X150114189Y-104775013D01*
X150066569Y-104679775D01*
X150066569Y-103632155D02*
X150066569Y-103441679D01*
X150114189Y-103346441D01*
X150209427Y-103251203D01*
X150399903Y-103203584D01*
X150733236Y-103203584D01*
X150923712Y-103251203D01*
X151018950Y-103346441D01*
X151066569Y-103441679D01*
X151066569Y-103632155D01*
X151018950Y-103727394D01*
X150923712Y-103822632D01*
X150733236Y-103870251D01*
X150399903Y-103870251D01*
X150209427Y-103822632D01*
X150114189Y-103727394D01*
X150066569Y-103632155D01*
X150066569Y-102917870D02*
X150066569Y-102346441D01*
X151066569Y-102632155D02*
X150066569Y-102632155D01*
X148352059Y-85701262D02*
X148352059Y-86177452D01*
X148018726Y-85177452D02*
X148352059Y-85701262D01*
X148685392Y-85177452D01*
X149542535Y-86177452D02*
X148971107Y-86177452D01*
X149256821Y-86177452D02*
X149256821Y-85177452D01*
X149161583Y-85320310D01*
X149066345Y-85415548D01*
X148971107Y-85463167D01*
X152328752Y-78747907D02*
X153138276Y-78747907D01*
X153233514Y-78700288D01*
X153281133Y-78652669D01*
X153328752Y-78557431D01*
X153328752Y-78366955D01*
X153281133Y-78271717D01*
X153233514Y-78224098D01*
X153138276Y-78176479D01*
X152328752Y-78176479D01*
X153328752Y-77176479D02*
X153328752Y-77747907D01*
X153328752Y-77462193D02*
X152328752Y-77462193D01*
X152471610Y-77557431D01*
X152566848Y-77652669D01*
X152614467Y-77747907D01*
X145708752Y-113133129D02*
X144708752Y-113133129D01*
X144708752Y-112895034D01*
X144756372Y-112752177D01*
X144851610Y-112656939D01*
X144946848Y-112609320D01*
X145137324Y-112561701D01*
X145280181Y-112561701D01*
X145470657Y-112609320D01*
X145565895Y-112656939D01*
X145661133Y-112752177D01*
X145708752Y-112895034D01*
X145708752Y-113133129D01*
X144708752Y-111704558D02*
X144708752Y-111895034D01*
X144756372Y-111990272D01*
X144803991Y-112037891D01*
X144946848Y-112133129D01*
X145137324Y-112180748D01*
X145518276Y-112180748D01*
X145613514Y-112133129D01*
X145661133Y-112085510D01*
X145708752Y-111990272D01*
X145708752Y-111799796D01*
X145661133Y-111704558D01*
X145613514Y-111656939D01*
X145518276Y-111609320D01*
X145280181Y-111609320D01*
X145184943Y-111656939D01*
X145137324Y-111704558D01*
X145089705Y-111799796D01*
X145089705Y-111990272D01*
X145137324Y-112085510D01*
X145184943Y-112133129D01*
X145280181Y-112180748D01*
X144708752Y-110752177D02*
X144708752Y-110942653D01*
X144756372Y-111037891D01*
X144803991Y-111085510D01*
X144946848Y-111180748D01*
X145137324Y-111228367D01*
X145518276Y-111228367D01*
X145613514Y-111180748D01*
X145661133Y-111133129D01*
X145708752Y-111037891D01*
X145708752Y-110847415D01*
X145661133Y-110752177D01*
X145613514Y-110704558D01*
X145518276Y-110656939D01*
X145280181Y-110656939D01*
X145184943Y-110704558D01*
X145137324Y-110752177D01*
X145089705Y-110847415D01*
X145089705Y-111037891D01*
X145137324Y-111133129D01*
X145184943Y-111180748D01*
X145280181Y-111228367D01*
X144818276Y-120243552D02*
X144818276Y-119748314D01*
X145123038Y-120014980D01*
X145123038Y-119900695D01*
X145161133Y-119824504D01*
X145199229Y-119786409D01*
X145275419Y-119748314D01*
X145465895Y-119748314D01*
X145542086Y-119786409D01*
X145580181Y-119824504D01*
X145618276Y-119900695D01*
X145618276Y-120129266D01*
X145580181Y-120205457D01*
X145542086Y-120243552D01*
X145542086Y-119405457D02*
X145580181Y-119367361D01*
X145618276Y-119405457D01*
X145580181Y-119443552D01*
X145542086Y-119405457D01*
X145618276Y-119405457D01*
X144818276Y-118681647D02*
X144818276Y-118834028D01*
X144856372Y-118910219D01*
X144894467Y-118948314D01*
X145008752Y-119024504D01*
X145161133Y-119062600D01*
X145465895Y-119062600D01*
X145542086Y-119024504D01*
X145580181Y-118986409D01*
X145618276Y-118910219D01*
X145618276Y-118757838D01*
X145580181Y-118681647D01*
X145542086Y-118643552D01*
X145465895Y-118605457D01*
X145275419Y-118605457D01*
X145199229Y-118643552D01*
X145161133Y-118681647D01*
X145123038Y-118757838D01*
X145123038Y-118910219D01*
X145161133Y-118986409D01*
X145199229Y-119024504D01*
X145275419Y-119062600D01*
X144818276Y-118376885D02*
X145618276Y-118110219D01*
X144818276Y-117843552D01*
X142732187Y-113133129D02*
X141732187Y-113133129D01*
X141732187Y-112895034D01*
X141779807Y-112752177D01*
X141875045Y-112656939D01*
X141970283Y-112609320D01*
X142160759Y-112561701D01*
X142303616Y-112561701D01*
X142494092Y-112609320D01*
X142589330Y-112656939D01*
X142684568Y-112752177D01*
X142732187Y-112895034D01*
X142732187Y-113133129D01*
X141732187Y-111704558D02*
X141732187Y-111895034D01*
X141779807Y-111990272D01*
X141827426Y-112037891D01*
X141970283Y-112133129D01*
X142160759Y-112180748D01*
X142541711Y-112180748D01*
X142636949Y-112133129D01*
X142684568Y-112085510D01*
X142732187Y-111990272D01*
X142732187Y-111799796D01*
X142684568Y-111704558D01*
X142636949Y-111656939D01*
X142541711Y-111609320D01*
X142303616Y-111609320D01*
X142208378Y-111656939D01*
X142160759Y-111704558D01*
X142113140Y-111799796D01*
X142113140Y-111990272D01*
X142160759Y-112085510D01*
X142208378Y-112133129D01*
X142303616Y-112180748D01*
X141732187Y-111275986D02*
X141732187Y-110609320D01*
X142732187Y-111037891D01*
X141841711Y-120243552D02*
X141841711Y-119748314D01*
X142146473Y-120014980D01*
X142146473Y-119900695D01*
X142184568Y-119824504D01*
X142222664Y-119786409D01*
X142298854Y-119748314D01*
X142489330Y-119748314D01*
X142565521Y-119786409D01*
X142603616Y-119824504D01*
X142641711Y-119900695D01*
X142641711Y-120129266D01*
X142603616Y-120205457D01*
X142565521Y-120243552D01*
X142565521Y-119405457D02*
X142603616Y-119367361D01*
X142641711Y-119405457D01*
X142603616Y-119443552D01*
X142565521Y-119405457D01*
X142641711Y-119405457D01*
X141841711Y-118681647D02*
X141841711Y-118834028D01*
X141879807Y-118910219D01*
X141917902Y-118948314D01*
X142032187Y-119024504D01*
X142184568Y-119062600D01*
X142489330Y-119062600D01*
X142565521Y-119024504D01*
X142603616Y-118986409D01*
X142641711Y-118910219D01*
X142641711Y-118757838D01*
X142603616Y-118681647D01*
X142565521Y-118643552D01*
X142489330Y-118605457D01*
X142298854Y-118605457D01*
X142222664Y-118643552D01*
X142184568Y-118681647D01*
X142146473Y-118757838D01*
X142146473Y-118910219D01*
X142184568Y-118986409D01*
X142222664Y-119024504D01*
X142298854Y-119062600D01*
X141841711Y-118376885D02*
X142641711Y-118110219D01*
X141841711Y-117843552D01*
X126063573Y-65341497D02*
X126063573Y-64341497D01*
X126301669Y-64341497D01*
X126444526Y-64389117D01*
X126539764Y-64484355D01*
X126587383Y-64579593D01*
X126635002Y-64770069D01*
X126635002Y-64912926D01*
X126587383Y-65103402D01*
X126539764Y-65198640D01*
X126444526Y-65293878D01*
X126301669Y-65341497D01*
X126063573Y-65341497D01*
X127587383Y-65341497D02*
X127015954Y-65341497D01*
X127301669Y-65341497D02*
X127301669Y-64341497D01*
X127206430Y-64484355D01*
X127111192Y-64579593D01*
X127015954Y-64627212D01*
X136183894Y-68318062D02*
X136183894Y-67318062D01*
X136421990Y-67318062D01*
X136564847Y-67365682D01*
X136660085Y-67460920D01*
X136707704Y-67556158D01*
X136755323Y-67746634D01*
X136755323Y-67889491D01*
X136707704Y-68079967D01*
X136660085Y-68175205D01*
X136564847Y-68270443D01*
X136421990Y-68318062D01*
X136183894Y-68318062D01*
X137088656Y-67318062D02*
X137755323Y-67318062D01*
X137326751Y-68318062D01*
X125587383Y-71294627D02*
X125587383Y-70294627D01*
X125825478Y-70294627D01*
X125968335Y-70342247D01*
X126063573Y-70437485D01*
X126111192Y-70532723D01*
X126158811Y-70723199D01*
X126158811Y-70866056D01*
X126111192Y-71056532D01*
X126063573Y-71151770D01*
X125968335Y-71247008D01*
X125825478Y-71294627D01*
X125587383Y-71294627D01*
X127111192Y-71294627D02*
X126539764Y-71294627D01*
X126825478Y-71294627D02*
X126825478Y-70294627D01*
X126730240Y-70437485D01*
X126635002Y-70532723D01*
X126539764Y-70580342D01*
X127444526Y-70294627D02*
X128063573Y-70294627D01*
X127730240Y-70675580D01*
X127873097Y-70675580D01*
X127968335Y-70723199D01*
X128015954Y-70770818D01*
X128063573Y-70866056D01*
X128063573Y-71104151D01*
X128015954Y-71199389D01*
X127968335Y-71247008D01*
X127873097Y-71294627D01*
X127587383Y-71294627D01*
X127492145Y-71247008D01*
X127444526Y-71199389D01*
X125587383Y-77247757D02*
X125587383Y-76247757D01*
X125825478Y-76247757D01*
X125968335Y-76295377D01*
X126063573Y-76390615D01*
X126111192Y-76485853D01*
X126158811Y-76676329D01*
X126158811Y-76819186D01*
X126111192Y-77009662D01*
X126063573Y-77104900D01*
X125968335Y-77200138D01*
X125825478Y-77247757D01*
X125587383Y-77247757D01*
X126539764Y-76342996D02*
X126587383Y-76295377D01*
X126682621Y-76247757D01*
X126920716Y-76247757D01*
X127015954Y-76295377D01*
X127063573Y-76342996D01*
X127111192Y-76438234D01*
X127111192Y-76533472D01*
X127063573Y-76676329D01*
X126492145Y-77247757D01*
X127111192Y-77247757D01*
X128015954Y-76247757D02*
X127539764Y-76247757D01*
X127492145Y-76723948D01*
X127539764Y-76676329D01*
X127635002Y-76628710D01*
X127873097Y-76628710D01*
X127968335Y-76676329D01*
X128015954Y-76723948D01*
X128063573Y-76819186D01*
X128063573Y-77057281D01*
X128015954Y-77152519D01*
X127968335Y-77200138D01*
X127873097Y-77247757D01*
X127635002Y-77247757D01*
X127539764Y-77200138D01*
X127492145Y-77152519D01*
X177379614Y-65341497D02*
X177379614Y-64341497D01*
X177617709Y-64341497D01*
X177760566Y-64389117D01*
X177855804Y-64484355D01*
X177903423Y-64579593D01*
X177951042Y-64770069D01*
X177951042Y-64912926D01*
X177903423Y-65103402D01*
X177855804Y-65198640D01*
X177760566Y-65293878D01*
X177617709Y-65341497D01*
X177379614Y-65341497D01*
X178284376Y-64341497D02*
X178903423Y-64341497D01*
X178570090Y-64722450D01*
X178712947Y-64722450D01*
X178808185Y-64770069D01*
X178855804Y-64817688D01*
X178903423Y-64912926D01*
X178903423Y-65151021D01*
X178855804Y-65246259D01*
X178808185Y-65293878D01*
X178712947Y-65341497D01*
X178427233Y-65341497D01*
X178331995Y-65293878D01*
X178284376Y-65246259D01*
X179855804Y-65341497D02*
X179284376Y-65341497D01*
X179570090Y-65341497D02*
X179570090Y-64341497D01*
X179474852Y-64484355D01*
X179379614Y-64579593D01*
X179284376Y-64627212D01*
X177379614Y-71294627D02*
X177379614Y-70294627D01*
X177617709Y-70294627D01*
X177760566Y-70342247D01*
X177855804Y-70437485D01*
X177903423Y-70532723D01*
X177951042Y-70723199D01*
X177951042Y-70866056D01*
X177903423Y-71056532D01*
X177855804Y-71151770D01*
X177760566Y-71247008D01*
X177617709Y-71294627D01*
X177379614Y-71294627D01*
X178808185Y-70627961D02*
X178808185Y-71294627D01*
X178570090Y-70247008D02*
X178331995Y-70961294D01*
X178951042Y-70961294D01*
X179236757Y-70294627D02*
X179855804Y-70294627D01*
X179522471Y-70675580D01*
X179665328Y-70675580D01*
X179760566Y-70723199D01*
X179808185Y-70770818D01*
X179855804Y-70866056D01*
X179855804Y-71104151D01*
X179808185Y-71199389D01*
X179760566Y-71247008D01*
X179665328Y-71294627D01*
X179379614Y-71294627D01*
X179284376Y-71247008D01*
X179236757Y-71199389D01*
X166068667Y-74271192D02*
X166068667Y-73271192D01*
X166306762Y-73271192D01*
X166449619Y-73318812D01*
X166544857Y-73414050D01*
X166592476Y-73509288D01*
X166640095Y-73699764D01*
X166640095Y-73842621D01*
X166592476Y-74033097D01*
X166544857Y-74128335D01*
X166449619Y-74223573D01*
X166306762Y-74271192D01*
X166068667Y-74271192D01*
X167497238Y-73604526D02*
X167497238Y-74271192D01*
X167259143Y-73223573D02*
X167021048Y-73937859D01*
X167640095Y-73937859D01*
X168068667Y-74271192D02*
X168259143Y-74271192D01*
X168354381Y-74223573D01*
X168402000Y-74175954D01*
X168497238Y-74033097D01*
X168544857Y-73842621D01*
X168544857Y-73461669D01*
X168497238Y-73366431D01*
X168449619Y-73318812D01*
X168354381Y-73271192D01*
X168163905Y-73271192D01*
X168068667Y-73318812D01*
X168021048Y-73366431D01*
X167973429Y-73461669D01*
X167973429Y-73699764D01*
X168021048Y-73795002D01*
X168068667Y-73842621D01*
X168163905Y-73890240D01*
X168354381Y-73890240D01*
X168449619Y-73842621D01*
X168497238Y-73795002D01*
X168544857Y-73699764D01*
X126063573Y-83200887D02*
X126063573Y-82200887D01*
X126301669Y-82200887D01*
X126444526Y-82248507D01*
X126539764Y-82343745D01*
X126587383Y-82438983D01*
X126635002Y-82629459D01*
X126635002Y-82772316D01*
X126587383Y-82962792D01*
X126539764Y-83058030D01*
X126444526Y-83153268D01*
X126301669Y-83200887D01*
X126063573Y-83200887D01*
X127015954Y-82296126D02*
X127063573Y-82248507D01*
X127158811Y-82200887D01*
X127396907Y-82200887D01*
X127492145Y-82248507D01*
X127539764Y-82296126D01*
X127587383Y-82391364D01*
X127587383Y-82486602D01*
X127539764Y-82629459D01*
X126968335Y-83200887D01*
X127587383Y-83200887D01*
X136183894Y-86177452D02*
X136183894Y-85177452D01*
X136421990Y-85177452D01*
X136564847Y-85225072D01*
X136660085Y-85320310D01*
X136707704Y-85415548D01*
X136755323Y-85606024D01*
X136755323Y-85748881D01*
X136707704Y-85939357D01*
X136660085Y-86034595D01*
X136564847Y-86129833D01*
X136421990Y-86177452D01*
X136183894Y-86177452D01*
X137326751Y-85606024D02*
X137231513Y-85558405D01*
X137183894Y-85510786D01*
X137136275Y-85415548D01*
X137136275Y-85367929D01*
X137183894Y-85272691D01*
X137231513Y-85225072D01*
X137326751Y-85177452D01*
X137517228Y-85177452D01*
X137612466Y-85225072D01*
X137660085Y-85272691D01*
X137707704Y-85367929D01*
X137707704Y-85415548D01*
X137660085Y-85510786D01*
X137612466Y-85558405D01*
X137517228Y-85606024D01*
X137326751Y-85606024D01*
X137231513Y-85653643D01*
X137183894Y-85701262D01*
X137136275Y-85796500D01*
X137136275Y-85986976D01*
X137183894Y-86082214D01*
X137231513Y-86129833D01*
X137326751Y-86177452D01*
X137517228Y-86177452D01*
X137612466Y-86129833D01*
X137660085Y-86082214D01*
X137707704Y-85986976D01*
X137707704Y-85796500D01*
X137660085Y-85701262D01*
X137612466Y-85653643D01*
X137517228Y-85606024D01*
X124992070Y-89154017D02*
X124992070Y-88154017D01*
X125230165Y-88154017D01*
X125373022Y-88201637D01*
X125468260Y-88296875D01*
X125515879Y-88392113D01*
X125563498Y-88582589D01*
X125563498Y-88725446D01*
X125515879Y-88915922D01*
X125468260Y-89011160D01*
X125373022Y-89106398D01*
X125230165Y-89154017D01*
X124992070Y-89154017D01*
X126515879Y-89154017D02*
X125944451Y-89154017D01*
X126230165Y-89154017D02*
X126230165Y-88154017D01*
X126134927Y-88296875D01*
X126039689Y-88392113D01*
X125944451Y-88439732D01*
X127373022Y-88487351D02*
X127373022Y-89154017D01*
X127134927Y-88106398D02*
X126896832Y-88820684D01*
X127515879Y-88820684D01*
X136303017Y-92130582D02*
X136303017Y-91130582D01*
X136541112Y-91130582D01*
X136683969Y-91178202D01*
X136779207Y-91273440D01*
X136826826Y-91368678D01*
X136874445Y-91559154D01*
X136874445Y-91702011D01*
X136826826Y-91892487D01*
X136779207Y-91987725D01*
X136683969Y-92082963D01*
X136541112Y-92130582D01*
X136303017Y-92130582D01*
X137255398Y-91225821D02*
X137303017Y-91178202D01*
X137398255Y-91130582D01*
X137636350Y-91130582D01*
X137731588Y-91178202D01*
X137779207Y-91225821D01*
X137826826Y-91321059D01*
X137826826Y-91416297D01*
X137779207Y-91559154D01*
X137207779Y-92130582D01*
X137826826Y-92130582D01*
X138445874Y-91130582D02*
X138541112Y-91130582D01*
X138636350Y-91178202D01*
X138683969Y-91225821D01*
X138731588Y-91321059D01*
X138779207Y-91511535D01*
X138779207Y-91749630D01*
X138731588Y-91940106D01*
X138683969Y-92035344D01*
X138636350Y-92082963D01*
X138541112Y-92130582D01*
X138445874Y-92130582D01*
X138350636Y-92082963D01*
X138303017Y-92035344D01*
X138255398Y-91940106D01*
X138207779Y-91749630D01*
X138207779Y-91511535D01*
X138255398Y-91321059D01*
X138303017Y-91225821D01*
X138350636Y-91178202D01*
X138445874Y-91130582D01*
X136303017Y-80224322D02*
X136303017Y-79224322D01*
X136541112Y-79224322D01*
X136683969Y-79271942D01*
X136779207Y-79367180D01*
X136826826Y-79462418D01*
X136874445Y-79652894D01*
X136874445Y-79795751D01*
X136826826Y-79986227D01*
X136779207Y-80081465D01*
X136683969Y-80176703D01*
X136541112Y-80224322D01*
X136303017Y-80224322D01*
X137255398Y-79319561D02*
X137303017Y-79271942D01*
X137398255Y-79224322D01*
X137636350Y-79224322D01*
X137731588Y-79271942D01*
X137779207Y-79319561D01*
X137826826Y-79414799D01*
X137826826Y-79510037D01*
X137779207Y-79652894D01*
X137207779Y-80224322D01*
X137826826Y-80224322D01*
X138683969Y-79224322D02*
X138493493Y-79224322D01*
X138398255Y-79271942D01*
X138350636Y-79319561D01*
X138255398Y-79462418D01*
X138207779Y-79652894D01*
X138207779Y-80033846D01*
X138255398Y-80129084D01*
X138303017Y-80176703D01*
X138398255Y-80224322D01*
X138588731Y-80224322D01*
X138683969Y-80176703D01*
X138731588Y-80129084D01*
X138779207Y-80033846D01*
X138779207Y-79795751D01*
X138731588Y-79700513D01*
X138683969Y-79652894D01*
X138588731Y-79605275D01*
X138398255Y-79605275D01*
X138303017Y-79652894D01*
X138255398Y-79700513D01*
X138207779Y-79795751D01*
X177379614Y-83200887D02*
X177379614Y-82200887D01*
X177617709Y-82200887D01*
X177760566Y-82248507D01*
X177855804Y-82343745D01*
X177903423Y-82438983D01*
X177951042Y-82629459D01*
X177951042Y-82772316D01*
X177903423Y-82962792D01*
X177855804Y-83058030D01*
X177760566Y-83153268D01*
X177617709Y-83200887D01*
X177379614Y-83200887D01*
X178284376Y-82200887D02*
X178903423Y-82200887D01*
X178570090Y-82581840D01*
X178712947Y-82581840D01*
X178808185Y-82629459D01*
X178855804Y-82677078D01*
X178903423Y-82772316D01*
X178903423Y-83010411D01*
X178855804Y-83105649D01*
X178808185Y-83153268D01*
X178712947Y-83200887D01*
X178427233Y-83200887D01*
X178331995Y-83153268D01*
X178284376Y-83105649D01*
X179284376Y-82296126D02*
X179331995Y-82248507D01*
X179427233Y-82200887D01*
X179665328Y-82200887D01*
X179760566Y-82248507D01*
X179808185Y-82296126D01*
X179855804Y-82391364D01*
X179855804Y-82486602D01*
X179808185Y-82629459D01*
X179236757Y-83200887D01*
X179855804Y-83200887D01*
X166068667Y-86177452D02*
X166068667Y-85177452D01*
X166306762Y-85177452D01*
X166449619Y-85225072D01*
X166544857Y-85320310D01*
X166592476Y-85415548D01*
X166640095Y-85606024D01*
X166640095Y-85748881D01*
X166592476Y-85939357D01*
X166544857Y-86034595D01*
X166449619Y-86129833D01*
X166306762Y-86177452D01*
X166068667Y-86177452D01*
X166973429Y-85177452D02*
X167592476Y-85177452D01*
X167259143Y-85558405D01*
X167402000Y-85558405D01*
X167497238Y-85606024D01*
X167544857Y-85653643D01*
X167592476Y-85748881D01*
X167592476Y-85986976D01*
X167544857Y-86082214D01*
X167497238Y-86129833D01*
X167402000Y-86177452D01*
X167116286Y-86177452D01*
X167021048Y-86129833D01*
X166973429Y-86082214D01*
X168163905Y-85606024D02*
X168068667Y-85558405D01*
X168021048Y-85510786D01*
X167973429Y-85415548D01*
X167973429Y-85367929D01*
X168021048Y-85272691D01*
X168068667Y-85225072D01*
X168163905Y-85177452D01*
X168354381Y-85177452D01*
X168449619Y-85225072D01*
X168497238Y-85272691D01*
X168544857Y-85367929D01*
X168544857Y-85415548D01*
X168497238Y-85510786D01*
X168449619Y-85558405D01*
X168354381Y-85606024D01*
X168163905Y-85606024D01*
X168068667Y-85653643D01*
X168021048Y-85701262D01*
X167973429Y-85796500D01*
X167973429Y-85986976D01*
X168021048Y-86082214D01*
X168068667Y-86129833D01*
X168163905Y-86177452D01*
X168354381Y-86177452D01*
X168449619Y-86129833D01*
X168497238Y-86082214D01*
X168544857Y-85986976D01*
X168544857Y-85796500D01*
X168497238Y-85701262D01*
X168449619Y-85653643D01*
X168354381Y-85606024D01*
X177379614Y-89154017D02*
X177379614Y-88154017D01*
X177617709Y-88154017D01*
X177760566Y-88201637D01*
X177855804Y-88296875D01*
X177903423Y-88392113D01*
X177951042Y-88582589D01*
X177951042Y-88725446D01*
X177903423Y-88915922D01*
X177855804Y-89011160D01*
X177760566Y-89106398D01*
X177617709Y-89154017D01*
X177379614Y-89154017D01*
X178808185Y-88487351D02*
X178808185Y-89154017D01*
X178570090Y-88106398D02*
X178331995Y-88820684D01*
X178951042Y-88820684D01*
X179760566Y-88487351D02*
X179760566Y-89154017D01*
X179522471Y-88106398D02*
X179284376Y-88820684D01*
X179903423Y-88820684D01*
X166068667Y-92130582D02*
X166068667Y-91130582D01*
X166306762Y-91130582D01*
X166449619Y-91178202D01*
X166544857Y-91273440D01*
X166592476Y-91368678D01*
X166640095Y-91559154D01*
X166640095Y-91702011D01*
X166592476Y-91892487D01*
X166544857Y-91987725D01*
X166449619Y-92082963D01*
X166306762Y-92130582D01*
X166068667Y-92130582D01*
X167544857Y-91130582D02*
X167068667Y-91130582D01*
X167021048Y-91606773D01*
X167068667Y-91559154D01*
X167163905Y-91511535D01*
X167402000Y-91511535D01*
X167497238Y-91559154D01*
X167544857Y-91606773D01*
X167592476Y-91702011D01*
X167592476Y-91940106D01*
X167544857Y-92035344D01*
X167497238Y-92082963D01*
X167402000Y-92130582D01*
X167163905Y-92130582D01*
X167068667Y-92082963D01*
X167021048Y-92035344D01*
X168211524Y-91130582D02*
X168306762Y-91130582D01*
X168402000Y-91178202D01*
X168449619Y-91225821D01*
X168497238Y-91321059D01*
X168544857Y-91511535D01*
X168544857Y-91749630D01*
X168497238Y-91940106D01*
X168449619Y-92035344D01*
X168402000Y-92082963D01*
X168306762Y-92130582D01*
X168211524Y-92130582D01*
X168116286Y-92082963D01*
X168068667Y-92035344D01*
X168021048Y-91940106D01*
X167973429Y-91749630D01*
X167973429Y-91511535D01*
X168021048Y-91321059D01*
X168068667Y-91225821D01*
X168116286Y-91178202D01*
X168211524Y-91130582D01*
X123682321Y-101060277D02*
X123682321Y-100060277D01*
X123920417Y-100060277D01*
X124063274Y-100107897D01*
X124158512Y-100203135D01*
X124206131Y-100298373D01*
X124253750Y-100488849D01*
X124253750Y-100631706D01*
X124206131Y-100822182D01*
X124158512Y-100917420D01*
X124063274Y-101012658D01*
X123920417Y-101060277D01*
X123682321Y-101060277D01*
X124587083Y-100060277D02*
X125206131Y-100060277D01*
X124872797Y-100441230D01*
X125015655Y-100441230D01*
X125110893Y-100488849D01*
X125158512Y-100536468D01*
X125206131Y-100631706D01*
X125206131Y-100869801D01*
X125158512Y-100965039D01*
X125110893Y-101012658D01*
X125015655Y-101060277D01*
X124729940Y-101060277D01*
X124634702Y-101012658D01*
X124587083Y-100965039D01*
X123682321Y-104036842D02*
X123682321Y-103036842D01*
X123920417Y-103036842D01*
X124063274Y-103084462D01*
X124158512Y-103179700D01*
X124206131Y-103274938D01*
X124253750Y-103465414D01*
X124253750Y-103608271D01*
X124206131Y-103798747D01*
X124158512Y-103893985D01*
X124063274Y-103989223D01*
X123920417Y-104036842D01*
X123682321Y-104036842D01*
X124729940Y-104036842D02*
X124920417Y-104036842D01*
X125015655Y-103989223D01*
X125063274Y-103941604D01*
X125158512Y-103798747D01*
X125206131Y-103608271D01*
X125206131Y-103227319D01*
X125158512Y-103132081D01*
X125110893Y-103084462D01*
X125015655Y-103036842D01*
X124825178Y-103036842D01*
X124729940Y-103084462D01*
X124682321Y-103132081D01*
X124634702Y-103227319D01*
X124634702Y-103465414D01*
X124682321Y-103560652D01*
X124729940Y-103608271D01*
X124825178Y-103655890D01*
X125015655Y-103655890D01*
X125110893Y-103608271D01*
X125158512Y-103560652D01*
X125206131Y-103465414D01*
X124992070Y-107013407D02*
X124992070Y-106013407D01*
X125230165Y-106013407D01*
X125373022Y-106061027D01*
X125468260Y-106156265D01*
X125515879Y-106251503D01*
X125563498Y-106441979D01*
X125563498Y-106584836D01*
X125515879Y-106775312D01*
X125468260Y-106870550D01*
X125373022Y-106965788D01*
X125230165Y-107013407D01*
X124992070Y-107013407D01*
X126515879Y-107013407D02*
X125944451Y-107013407D01*
X126230165Y-107013407D02*
X126230165Y-106013407D01*
X126134927Y-106156265D01*
X126039689Y-106251503D01*
X125944451Y-106299122D01*
X127420641Y-106013407D02*
X126944451Y-106013407D01*
X126896832Y-106489598D01*
X126944451Y-106441979D01*
X127039689Y-106394360D01*
X127277784Y-106394360D01*
X127373022Y-106441979D01*
X127420641Y-106489598D01*
X127468260Y-106584836D01*
X127468260Y-106822931D01*
X127420641Y-106918169D01*
X127373022Y-106965788D01*
X127277784Y-107013407D01*
X127039689Y-107013407D01*
X126944451Y-106965788D01*
X126896832Y-106918169D01*
X124992070Y-95107147D02*
X124992070Y-94107147D01*
X125230165Y-94107147D01*
X125373022Y-94154767D01*
X125468260Y-94250005D01*
X125515879Y-94345243D01*
X125563498Y-94535719D01*
X125563498Y-94678576D01*
X125515879Y-94869052D01*
X125468260Y-94964290D01*
X125373022Y-95059528D01*
X125230165Y-95107147D01*
X124992070Y-95107147D01*
X125944451Y-94202386D02*
X125992070Y-94154767D01*
X126087308Y-94107147D01*
X126325403Y-94107147D01*
X126420641Y-94154767D01*
X126468260Y-94202386D01*
X126515879Y-94297624D01*
X126515879Y-94392862D01*
X126468260Y-94535719D01*
X125896832Y-95107147D01*
X126515879Y-95107147D01*
X127468260Y-95107147D02*
X126896832Y-95107147D01*
X127182546Y-95107147D02*
X127182546Y-94107147D01*
X127087308Y-94250005D01*
X126992070Y-94345243D01*
X126896832Y-94392862D01*
X136303017Y-98083712D02*
X136303017Y-97083712D01*
X136541112Y-97083712D01*
X136683969Y-97131332D01*
X136779207Y-97226570D01*
X136826826Y-97321808D01*
X136874445Y-97512284D01*
X136874445Y-97655141D01*
X136826826Y-97845617D01*
X136779207Y-97940855D01*
X136683969Y-98036093D01*
X136541112Y-98083712D01*
X136303017Y-98083712D01*
X137255398Y-97178951D02*
X137303017Y-97131332D01*
X137398255Y-97083712D01*
X137636350Y-97083712D01*
X137731588Y-97131332D01*
X137779207Y-97178951D01*
X137826826Y-97274189D01*
X137826826Y-97369427D01*
X137779207Y-97512284D01*
X137207779Y-98083712D01*
X137826826Y-98083712D01*
X138160160Y-97083712D02*
X138826826Y-97083712D01*
X138398255Y-98083712D01*
X176784301Y-97488399D02*
X176784301Y-96488399D01*
X177022396Y-96488399D01*
X177165253Y-96536019D01*
X177260491Y-96631257D01*
X177308110Y-96726495D01*
X177355729Y-96916971D01*
X177355729Y-97059828D01*
X177308110Y-97250304D01*
X177260491Y-97345542D01*
X177165253Y-97440780D01*
X177022396Y-97488399D01*
X176784301Y-97488399D01*
X177689063Y-96488399D02*
X178308110Y-96488399D01*
X177974777Y-96869352D01*
X178117634Y-96869352D01*
X178212872Y-96916971D01*
X178260491Y-96964590D01*
X178308110Y-97059828D01*
X178308110Y-97297923D01*
X178260491Y-97393161D01*
X178212872Y-97440780D01*
X178117634Y-97488399D01*
X177831920Y-97488399D01*
X177736682Y-97440780D01*
X177689063Y-97393161D01*
X178641444Y-96488399D02*
X179260491Y-96488399D01*
X178927158Y-96869352D01*
X179070015Y-96869352D01*
X179165253Y-96916971D01*
X179212872Y-96964590D01*
X179260491Y-97059828D01*
X179260491Y-97297923D01*
X179212872Y-97393161D01*
X179165253Y-97440780D01*
X179070015Y-97488399D01*
X178784301Y-97488399D01*
X178689063Y-97440780D01*
X178641444Y-97393161D01*
X166068667Y-104036842D02*
X166068667Y-103036842D01*
X166306762Y-103036842D01*
X166449619Y-103084462D01*
X166544857Y-103179700D01*
X166592476Y-103274938D01*
X166640095Y-103465414D01*
X166640095Y-103608271D01*
X166592476Y-103798747D01*
X166544857Y-103893985D01*
X166449619Y-103989223D01*
X166306762Y-104036842D01*
X166068667Y-104036842D01*
X166973429Y-103036842D02*
X167592476Y-103036842D01*
X167259143Y-103417795D01*
X167402000Y-103417795D01*
X167497238Y-103465414D01*
X167544857Y-103513033D01*
X167592476Y-103608271D01*
X167592476Y-103846366D01*
X167544857Y-103941604D01*
X167497238Y-103989223D01*
X167402000Y-104036842D01*
X167116286Y-104036842D01*
X167021048Y-103989223D01*
X166973429Y-103941604D01*
X168068667Y-104036842D02*
X168259143Y-104036842D01*
X168354381Y-103989223D01*
X168402000Y-103941604D01*
X168497238Y-103798747D01*
X168544857Y-103608271D01*
X168544857Y-103227319D01*
X168497238Y-103132081D01*
X168449619Y-103084462D01*
X168354381Y-103036842D01*
X168163905Y-103036842D01*
X168068667Y-103084462D01*
X168021048Y-103132081D01*
X167973429Y-103227319D01*
X167973429Y-103465414D01*
X168021048Y-103560652D01*
X168068667Y-103608271D01*
X168163905Y-103655890D01*
X168354381Y-103655890D01*
X168449619Y-103608271D01*
X168497238Y-103560652D01*
X168544857Y-103465414D01*
X177379614Y-107013407D02*
X177379614Y-106013407D01*
X177617709Y-106013407D01*
X177760566Y-106061027D01*
X177855804Y-106156265D01*
X177903423Y-106251503D01*
X177951042Y-106441979D01*
X177951042Y-106584836D01*
X177903423Y-106775312D01*
X177855804Y-106870550D01*
X177760566Y-106965788D01*
X177617709Y-107013407D01*
X177379614Y-107013407D01*
X178808185Y-106346741D02*
X178808185Y-107013407D01*
X178570090Y-105965788D02*
X178331995Y-106680074D01*
X178951042Y-106680074D01*
X179808185Y-106013407D02*
X179331995Y-106013407D01*
X179284376Y-106489598D01*
X179331995Y-106441979D01*
X179427233Y-106394360D01*
X179665328Y-106394360D01*
X179760566Y-106441979D01*
X179808185Y-106489598D01*
X179855804Y-106584836D01*
X179855804Y-106822931D01*
X179808185Y-106918169D01*
X179760566Y-106965788D01*
X179665328Y-107013407D01*
X179427233Y-107013407D01*
X179331995Y-106965788D01*
X179284376Y-106918169D01*
X177379614Y-95107147D02*
X177379614Y-94107147D01*
X177617709Y-94107147D01*
X177760566Y-94154767D01*
X177855804Y-94250005D01*
X177903423Y-94345243D01*
X177951042Y-94535719D01*
X177951042Y-94678576D01*
X177903423Y-94869052D01*
X177855804Y-94964290D01*
X177760566Y-95059528D01*
X177617709Y-95107147D01*
X177379614Y-95107147D01*
X178855804Y-94107147D02*
X178379614Y-94107147D01*
X178331995Y-94583338D01*
X178379614Y-94535719D01*
X178474852Y-94488100D01*
X178712947Y-94488100D01*
X178808185Y-94535719D01*
X178855804Y-94583338D01*
X178903423Y-94678576D01*
X178903423Y-94916671D01*
X178855804Y-95011909D01*
X178808185Y-95059528D01*
X178712947Y-95107147D01*
X178474852Y-95107147D01*
X178379614Y-95059528D01*
X178331995Y-95011909D01*
X179855804Y-95107147D02*
X179284376Y-95107147D01*
X179570090Y-95107147D02*
X179570090Y-94107147D01*
X179474852Y-94250005D01*
X179379614Y-94345243D01*
X179284376Y-94392862D01*
X125468260Y-118919667D02*
X125468260Y-117919667D01*
X125706356Y-117919667D01*
X125849213Y-117967287D01*
X125944451Y-118062525D01*
X125992070Y-118157763D01*
X126039689Y-118348239D01*
X126039689Y-118491096D01*
X125992070Y-118681572D01*
X125944451Y-118776810D01*
X125849213Y-118872048D01*
X125706356Y-118919667D01*
X125468260Y-118919667D01*
X126896832Y-118253001D02*
X126896832Y-118919667D01*
X126658736Y-117872048D02*
X126420641Y-118586334D01*
X127039689Y-118586334D01*
X136303017Y-121896232D02*
X136303017Y-120896232D01*
X136541112Y-120896232D01*
X136683969Y-120943852D01*
X136779207Y-121039090D01*
X136826826Y-121134328D01*
X136874445Y-121324804D01*
X136874445Y-121467661D01*
X136826826Y-121658137D01*
X136779207Y-121753375D01*
X136683969Y-121848613D01*
X136541112Y-121896232D01*
X136303017Y-121896232D01*
X137826826Y-121896232D02*
X137255398Y-121896232D01*
X137541112Y-121896232D02*
X137541112Y-120896232D01*
X137445874Y-121039090D01*
X137350636Y-121134328D01*
X137255398Y-121181947D01*
X138445874Y-120896232D02*
X138541112Y-120896232D01*
X138636350Y-120943852D01*
X138683969Y-120991471D01*
X138731588Y-121086709D01*
X138779207Y-121277185D01*
X138779207Y-121515280D01*
X138731588Y-121705756D01*
X138683969Y-121800994D01*
X138636350Y-121848613D01*
X138541112Y-121896232D01*
X138445874Y-121896232D01*
X138350636Y-121848613D01*
X138303017Y-121800994D01*
X138255398Y-121705756D01*
X138207779Y-121515280D01*
X138207779Y-121277185D01*
X138255398Y-121086709D01*
X138303017Y-120991471D01*
X138350636Y-120943852D01*
X138445874Y-120896232D01*
X136303017Y-109989972D02*
X136303017Y-108989972D01*
X136541112Y-108989972D01*
X136683969Y-109037592D01*
X136779207Y-109132830D01*
X136826826Y-109228068D01*
X136874445Y-109418544D01*
X136874445Y-109561401D01*
X136826826Y-109751877D01*
X136779207Y-109847115D01*
X136683969Y-109942353D01*
X136541112Y-109989972D01*
X136303017Y-109989972D01*
X137826826Y-109989972D02*
X137255398Y-109989972D01*
X137541112Y-109989972D02*
X137541112Y-108989972D01*
X137445874Y-109132830D01*
X137350636Y-109228068D01*
X137255398Y-109275687D01*
X138683969Y-108989972D02*
X138493493Y-108989972D01*
X138398255Y-109037592D01*
X138350636Y-109085211D01*
X138255398Y-109228068D01*
X138207779Y-109418544D01*
X138207779Y-109799496D01*
X138255398Y-109894734D01*
X138303017Y-109942353D01*
X138398255Y-109989972D01*
X138588731Y-109989972D01*
X138683969Y-109942353D01*
X138731588Y-109894734D01*
X138779207Y-109799496D01*
X138779207Y-109561401D01*
X138731588Y-109466163D01*
X138683969Y-109418544D01*
X138588731Y-109370925D01*
X138398255Y-109370925D01*
X138303017Y-109418544D01*
X138255398Y-109466163D01*
X138207779Y-109561401D01*
X124992070Y-112966537D02*
X124992070Y-111966537D01*
X125230165Y-111966537D01*
X125373022Y-112014157D01*
X125468260Y-112109395D01*
X125515879Y-112204633D01*
X125563498Y-112395109D01*
X125563498Y-112537966D01*
X125515879Y-112728442D01*
X125468260Y-112823680D01*
X125373022Y-112918918D01*
X125230165Y-112966537D01*
X124992070Y-112966537D01*
X125944451Y-112061776D02*
X125992070Y-112014157D01*
X126087308Y-111966537D01*
X126325403Y-111966537D01*
X126420641Y-112014157D01*
X126468260Y-112061776D01*
X126515879Y-112157014D01*
X126515879Y-112252252D01*
X126468260Y-112395109D01*
X125896832Y-112966537D01*
X126515879Y-112966537D01*
X126896832Y-112061776D02*
X126944451Y-112014157D01*
X127039689Y-111966537D01*
X127277784Y-111966537D01*
X127373022Y-112014157D01*
X127420641Y-112061776D01*
X127468260Y-112157014D01*
X127468260Y-112252252D01*
X127420641Y-112395109D01*
X126849213Y-112966537D01*
X127468260Y-112966537D01*
X136303017Y-115943102D02*
X136303017Y-114943102D01*
X136541112Y-114943102D01*
X136683969Y-114990722D01*
X136779207Y-115085960D01*
X136826826Y-115181198D01*
X136874445Y-115371674D01*
X136874445Y-115514531D01*
X136826826Y-115705007D01*
X136779207Y-115800245D01*
X136683969Y-115895483D01*
X136541112Y-115943102D01*
X136303017Y-115943102D01*
X137255398Y-115038341D02*
X137303017Y-114990722D01*
X137398255Y-114943102D01*
X137636350Y-114943102D01*
X137731588Y-114990722D01*
X137779207Y-115038341D01*
X137826826Y-115133579D01*
X137826826Y-115228817D01*
X137779207Y-115371674D01*
X137207779Y-115943102D01*
X137826826Y-115943102D01*
X138398255Y-115371674D02*
X138303017Y-115324055D01*
X138255398Y-115276436D01*
X138207779Y-115181198D01*
X138207779Y-115133579D01*
X138255398Y-115038341D01*
X138303017Y-114990722D01*
X138398255Y-114943102D01*
X138588731Y-114943102D01*
X138683969Y-114990722D01*
X138731588Y-115038341D01*
X138779207Y-115133579D01*
X138779207Y-115181198D01*
X138731588Y-115276436D01*
X138683969Y-115324055D01*
X138588731Y-115371674D01*
X138398255Y-115371674D01*
X138303017Y-115419293D01*
X138255398Y-115466912D01*
X138207779Y-115562150D01*
X138207779Y-115752626D01*
X138255398Y-115847864D01*
X138303017Y-115895483D01*
X138398255Y-115943102D01*
X138588731Y-115943102D01*
X138683969Y-115895483D01*
X138731588Y-115847864D01*
X138779207Y-115752626D01*
X138779207Y-115562150D01*
X138731588Y-115466912D01*
X138683969Y-115419293D01*
X138588731Y-115371674D01*
X166068667Y-121896232D02*
X166068667Y-120896232D01*
X166306762Y-120896232D01*
X166449619Y-120943852D01*
X166544857Y-121039090D01*
X166592476Y-121134328D01*
X166640095Y-121324804D01*
X166640095Y-121467661D01*
X166592476Y-121658137D01*
X166544857Y-121753375D01*
X166449619Y-121848613D01*
X166306762Y-121896232D01*
X166068667Y-121896232D01*
X167497238Y-121229566D02*
X167497238Y-121896232D01*
X167259143Y-120848613D02*
X167021048Y-121562899D01*
X167640095Y-121562899D01*
X168211524Y-120896232D02*
X168306762Y-120896232D01*
X168402000Y-120943852D01*
X168449619Y-120991471D01*
X168497238Y-121086709D01*
X168544857Y-121277185D01*
X168544857Y-121515280D01*
X168497238Y-121705756D01*
X168449619Y-121800994D01*
X168402000Y-121848613D01*
X168306762Y-121896232D01*
X168211524Y-121896232D01*
X168116286Y-121848613D01*
X168068667Y-121800994D01*
X168021048Y-121705756D01*
X167973429Y-121515280D01*
X167973429Y-121277185D01*
X168021048Y-121086709D01*
X168068667Y-120991471D01*
X168116286Y-120943852D01*
X168211524Y-120896232D01*
X166068667Y-109989972D02*
X166068667Y-108989972D01*
X166306762Y-108989972D01*
X166449619Y-109037592D01*
X166544857Y-109132830D01*
X166592476Y-109228068D01*
X166640095Y-109418544D01*
X166640095Y-109561401D01*
X166592476Y-109751877D01*
X166544857Y-109847115D01*
X166449619Y-109942353D01*
X166306762Y-109989972D01*
X166068667Y-109989972D01*
X167497238Y-109323306D02*
X167497238Y-109989972D01*
X167259143Y-108942353D02*
X167021048Y-109656639D01*
X167640095Y-109656639D01*
X168449619Y-108989972D02*
X168259143Y-108989972D01*
X168163905Y-109037592D01*
X168116286Y-109085211D01*
X168021048Y-109228068D01*
X167973429Y-109418544D01*
X167973429Y-109799496D01*
X168021048Y-109894734D01*
X168068667Y-109942353D01*
X168163905Y-109989972D01*
X168354381Y-109989972D01*
X168449619Y-109942353D01*
X168497238Y-109894734D01*
X168544857Y-109799496D01*
X168544857Y-109561401D01*
X168497238Y-109466163D01*
X168449619Y-109418544D01*
X168354381Y-109370925D01*
X168163905Y-109370925D01*
X168068667Y-109418544D01*
X168021048Y-109466163D01*
X167973429Y-109561401D01*
X177379614Y-112966537D02*
X177379614Y-111966537D01*
X177617709Y-111966537D01*
X177760566Y-112014157D01*
X177855804Y-112109395D01*
X177903423Y-112204633D01*
X177951042Y-112395109D01*
X177951042Y-112537966D01*
X177903423Y-112728442D01*
X177855804Y-112823680D01*
X177760566Y-112918918D01*
X177617709Y-112966537D01*
X177379614Y-112966537D01*
X178855804Y-111966537D02*
X178379614Y-111966537D01*
X178331995Y-112442728D01*
X178379614Y-112395109D01*
X178474852Y-112347490D01*
X178712947Y-112347490D01*
X178808185Y-112395109D01*
X178855804Y-112442728D01*
X178903423Y-112537966D01*
X178903423Y-112776061D01*
X178855804Y-112871299D01*
X178808185Y-112918918D01*
X178712947Y-112966537D01*
X178474852Y-112966537D01*
X178379614Y-112918918D01*
X178331995Y-112871299D01*
X179284376Y-112061776D02*
X179331995Y-112014157D01*
X179427233Y-111966537D01*
X179665328Y-111966537D01*
X179760566Y-112014157D01*
X179808185Y-112061776D01*
X179855804Y-112157014D01*
X179855804Y-112252252D01*
X179808185Y-112395109D01*
X179236757Y-112966537D01*
X179855804Y-112966537D01*
X125468260Y-136779057D02*
X125468260Y-135779057D01*
X125706356Y-135779057D01*
X125849213Y-135826677D01*
X125944451Y-135921915D01*
X125992070Y-136017153D01*
X126039689Y-136207629D01*
X126039689Y-136350486D01*
X125992070Y-136540962D01*
X125944451Y-136636200D01*
X125849213Y-136731438D01*
X125706356Y-136779057D01*
X125468260Y-136779057D01*
X126944451Y-135779057D02*
X126468260Y-135779057D01*
X126420641Y-136255248D01*
X126468260Y-136207629D01*
X126563498Y-136160010D01*
X126801594Y-136160010D01*
X126896832Y-136207629D01*
X126944451Y-136255248D01*
X126992070Y-136350486D01*
X126992070Y-136588581D01*
X126944451Y-136683819D01*
X126896832Y-136731438D01*
X126801594Y-136779057D01*
X126563498Y-136779057D01*
X126468260Y-136731438D01*
X126420641Y-136683819D01*
X124992070Y-124872797D02*
X124992070Y-123872797D01*
X125230165Y-123872797D01*
X125373022Y-123920417D01*
X125468260Y-124015655D01*
X125515879Y-124110893D01*
X125563498Y-124301369D01*
X125563498Y-124444226D01*
X125515879Y-124634702D01*
X125468260Y-124729940D01*
X125373022Y-124825178D01*
X125230165Y-124872797D01*
X124992070Y-124872797D01*
X126515879Y-124872797D02*
X125944451Y-124872797D01*
X126230165Y-124872797D02*
X126230165Y-123872797D01*
X126134927Y-124015655D01*
X126039689Y-124110893D01*
X125944451Y-124158512D01*
X127468260Y-124872797D02*
X126896832Y-124872797D01*
X127182546Y-124872797D02*
X127182546Y-123872797D01*
X127087308Y-124015655D01*
X126992070Y-124110893D01*
X126896832Y-124158512D01*
X136303017Y-127849362D02*
X136303017Y-126849362D01*
X136541112Y-126849362D01*
X136683969Y-126896982D01*
X136779207Y-126992220D01*
X136826826Y-127087458D01*
X136874445Y-127277934D01*
X136874445Y-127420791D01*
X136826826Y-127611267D01*
X136779207Y-127706505D01*
X136683969Y-127801743D01*
X136541112Y-127849362D01*
X136303017Y-127849362D01*
X137826826Y-127849362D02*
X137255398Y-127849362D01*
X137541112Y-127849362D02*
X137541112Y-126849362D01*
X137445874Y-126992220D01*
X137350636Y-127087458D01*
X137255398Y-127135077D01*
X138160160Y-126849362D02*
X138826826Y-126849362D01*
X138398255Y-127849362D01*
X124992070Y-130825927D02*
X124992070Y-129825927D01*
X125230165Y-129825927D01*
X125373022Y-129873547D01*
X125468260Y-129968785D01*
X125515879Y-130064023D01*
X125563498Y-130254499D01*
X125563498Y-130397356D01*
X125515879Y-130587832D01*
X125468260Y-130683070D01*
X125373022Y-130778308D01*
X125230165Y-130825927D01*
X124992070Y-130825927D01*
X125944451Y-129921166D02*
X125992070Y-129873547D01*
X126087308Y-129825927D01*
X126325403Y-129825927D01*
X126420641Y-129873547D01*
X126468260Y-129921166D01*
X126515879Y-130016404D01*
X126515879Y-130111642D01*
X126468260Y-130254499D01*
X125896832Y-130825927D01*
X126515879Y-130825927D01*
X126849213Y-129825927D02*
X127468260Y-129825927D01*
X127134927Y-130206880D01*
X127277784Y-130206880D01*
X127373022Y-130254499D01*
X127420641Y-130302118D01*
X127468260Y-130397356D01*
X127468260Y-130635451D01*
X127420641Y-130730689D01*
X127373022Y-130778308D01*
X127277784Y-130825927D01*
X126992070Y-130825927D01*
X126896832Y-130778308D01*
X126849213Y-130730689D01*
X177379614Y-136779057D02*
X177379614Y-135779057D01*
X177617709Y-135779057D01*
X177760566Y-135826677D01*
X177855804Y-135921915D01*
X177903423Y-136017153D01*
X177951042Y-136207629D01*
X177951042Y-136350486D01*
X177903423Y-136540962D01*
X177855804Y-136636200D01*
X177760566Y-136731438D01*
X177617709Y-136779057D01*
X177379614Y-136779057D01*
X178284376Y-135779057D02*
X178903423Y-135779057D01*
X178570090Y-136160010D01*
X178712947Y-136160010D01*
X178808185Y-136207629D01*
X178855804Y-136255248D01*
X178903423Y-136350486D01*
X178903423Y-136588581D01*
X178855804Y-136683819D01*
X178808185Y-136731438D01*
X178712947Y-136779057D01*
X178427233Y-136779057D01*
X178331995Y-136731438D01*
X178284376Y-136683819D01*
X179808185Y-135779057D02*
X179331995Y-135779057D01*
X179284376Y-136255248D01*
X179331995Y-136207629D01*
X179427233Y-136160010D01*
X179665328Y-136160010D01*
X179760566Y-136207629D01*
X179808185Y-136255248D01*
X179855804Y-136350486D01*
X179855804Y-136588581D01*
X179808185Y-136683819D01*
X179760566Y-136731438D01*
X179665328Y-136779057D01*
X179427233Y-136779057D01*
X179331995Y-136731438D01*
X179284376Y-136683819D01*
X177379614Y-125468110D02*
X177379614Y-124468110D01*
X177617709Y-124468110D01*
X177760566Y-124515730D01*
X177855804Y-124610968D01*
X177903423Y-124706206D01*
X177951042Y-124896682D01*
X177951042Y-125039539D01*
X177903423Y-125230015D01*
X177855804Y-125325253D01*
X177760566Y-125420491D01*
X177617709Y-125468110D01*
X177379614Y-125468110D01*
X178808185Y-124801444D02*
X178808185Y-125468110D01*
X178570090Y-124420491D02*
X178331995Y-125134777D01*
X178951042Y-125134777D01*
X179855804Y-125468110D02*
X179284376Y-125468110D01*
X179570090Y-125468110D02*
X179570090Y-124468110D01*
X179474852Y-124610968D01*
X179379614Y-124706206D01*
X179284376Y-124753825D01*
X166068667Y-127849362D02*
X166068667Y-126849362D01*
X166306762Y-126849362D01*
X166449619Y-126896982D01*
X166544857Y-126992220D01*
X166592476Y-127087458D01*
X166640095Y-127277934D01*
X166640095Y-127420791D01*
X166592476Y-127611267D01*
X166544857Y-127706505D01*
X166449619Y-127801743D01*
X166306762Y-127849362D01*
X166068667Y-127849362D01*
X167497238Y-127182696D02*
X167497238Y-127849362D01*
X167259143Y-126801743D02*
X167021048Y-127516029D01*
X167640095Y-127516029D01*
X167925810Y-126849362D02*
X168592476Y-126849362D01*
X168163905Y-127849362D01*
X177379614Y-130825927D02*
X177379614Y-129825927D01*
X177617709Y-129825927D01*
X177760566Y-129873547D01*
X177855804Y-129968785D01*
X177903423Y-130064023D01*
X177951042Y-130254499D01*
X177951042Y-130397356D01*
X177903423Y-130587832D01*
X177855804Y-130683070D01*
X177760566Y-130778308D01*
X177617709Y-130825927D01*
X177379614Y-130825927D01*
X178855804Y-129825927D02*
X178379614Y-129825927D01*
X178331995Y-130302118D01*
X178379614Y-130254499D01*
X178474852Y-130206880D01*
X178712947Y-130206880D01*
X178808185Y-130254499D01*
X178855804Y-130302118D01*
X178903423Y-130397356D01*
X178903423Y-130635451D01*
X178855804Y-130730689D01*
X178808185Y-130778308D01*
X178712947Y-130825927D01*
X178474852Y-130825927D01*
X178379614Y-130778308D01*
X178331995Y-130730689D01*
X179236757Y-129825927D02*
X179855804Y-129825927D01*
X179522471Y-130206880D01*
X179665328Y-130206880D01*
X179760566Y-130254499D01*
X179808185Y-130302118D01*
X179855804Y-130397356D01*
X179855804Y-130635451D01*
X179808185Y-130730689D01*
X179760566Y-130778308D01*
X179665328Y-130825927D01*
X179379614Y-130825927D01*
X179284376Y-130778308D01*
X179236757Y-130730689D01*
X136183894Y-139755622D02*
X136183894Y-138755622D01*
X136421990Y-138755622D01*
X136564847Y-138803242D01*
X136660085Y-138898480D01*
X136707704Y-138993718D01*
X136755323Y-139184194D01*
X136755323Y-139327051D01*
X136707704Y-139517527D01*
X136660085Y-139612765D01*
X136564847Y-139708003D01*
X136421990Y-139755622D01*
X136183894Y-139755622D01*
X137612466Y-138755622D02*
X137421990Y-138755622D01*
X137326751Y-138803242D01*
X137279132Y-138850861D01*
X137183894Y-138993718D01*
X137136275Y-139184194D01*
X137136275Y-139565146D01*
X137183894Y-139660384D01*
X137231513Y-139708003D01*
X137326751Y-139755622D01*
X137517228Y-139755622D01*
X137612466Y-139708003D01*
X137660085Y-139660384D01*
X137707704Y-139565146D01*
X137707704Y-139327051D01*
X137660085Y-139231813D01*
X137612466Y-139184194D01*
X137517228Y-139136575D01*
X137326751Y-139136575D01*
X137231513Y-139184194D01*
X137183894Y-139231813D01*
X137136275Y-139327051D01*
X142732187Y-134564397D02*
X141732187Y-134564397D01*
X141732187Y-134326302D01*
X141779807Y-134183445D01*
X141875045Y-134088207D01*
X141970283Y-134040588D01*
X142160759Y-133992969D01*
X142303616Y-133992969D01*
X142494092Y-134040588D01*
X142589330Y-134088207D01*
X142684568Y-134183445D01*
X142732187Y-134326302D01*
X142732187Y-134564397D01*
X142732187Y-133040588D02*
X142732187Y-133612016D01*
X142732187Y-133326302D02*
X141732187Y-133326302D01*
X141875045Y-133421540D01*
X141970283Y-133516778D01*
X142017902Y-133612016D01*
X141827426Y-132659635D02*
X141779807Y-132612016D01*
X141732187Y-132516778D01*
X141732187Y-132278683D01*
X141779807Y-132183445D01*
X141827426Y-132135826D01*
X141922664Y-132088207D01*
X142017902Y-132088207D01*
X142160759Y-132135826D01*
X142732187Y-132707254D01*
X142732187Y-132088207D01*
X145708752Y-145875344D02*
X144708752Y-145875344D01*
X144708752Y-145637249D01*
X144756372Y-145494392D01*
X144851610Y-145399154D01*
X144946848Y-145351535D01*
X145137324Y-145303916D01*
X145280181Y-145303916D01*
X145470657Y-145351535D01*
X145565895Y-145399154D01*
X145661133Y-145494392D01*
X145708752Y-145637249D01*
X145708752Y-145875344D01*
X145708752Y-144351535D02*
X145708752Y-144922963D01*
X145708752Y-144637249D02*
X144708752Y-144637249D01*
X144851610Y-144732487D01*
X144946848Y-144827725D01*
X144994467Y-144922963D01*
X145137324Y-143780106D02*
X145089705Y-143875344D01*
X145042086Y-143922963D01*
X144946848Y-143970582D01*
X144899229Y-143970582D01*
X144803991Y-143922963D01*
X144756372Y-143875344D01*
X144708752Y-143780106D01*
X144708752Y-143589630D01*
X144756372Y-143494392D01*
X144803991Y-143446773D01*
X144899229Y-143399154D01*
X144946848Y-143399154D01*
X145042086Y-143446773D01*
X145089705Y-143494392D01*
X145137324Y-143589630D01*
X145137324Y-143780106D01*
X145184943Y-143875344D01*
X145232562Y-143922963D01*
X145327800Y-143970582D01*
X145518276Y-143970582D01*
X145613514Y-143922963D01*
X145661133Y-143875344D01*
X145708752Y-143780106D01*
X145708752Y-143589630D01*
X145661133Y-143494392D01*
X145613514Y-143446773D01*
X145518276Y-143399154D01*
X145327800Y-143399154D01*
X145232562Y-143446773D01*
X145184943Y-143494392D01*
X145137324Y-143589630D01*
X148685317Y-134564397D02*
X147685317Y-134564397D01*
X147685317Y-134326302D01*
X147732937Y-134183445D01*
X147828175Y-134088207D01*
X147923413Y-134040588D01*
X148113889Y-133992969D01*
X148256746Y-133992969D01*
X148447222Y-134040588D01*
X148542460Y-134088207D01*
X148637698Y-134183445D01*
X148685317Y-134326302D01*
X148685317Y-134564397D01*
X147780556Y-133612016D02*
X147732937Y-133564397D01*
X147685317Y-133469159D01*
X147685317Y-133231064D01*
X147732937Y-133135826D01*
X147780556Y-133088207D01*
X147875794Y-133040588D01*
X147971032Y-133040588D01*
X148113889Y-133088207D01*
X148685317Y-133659635D01*
X148685317Y-133040588D01*
X148018651Y-132183445D02*
X148685317Y-132183445D01*
X147637698Y-132421540D02*
X148351984Y-132659635D01*
X148351984Y-132040588D01*
X166068667Y-139755622D02*
X166068667Y-138755622D01*
X166306762Y-138755622D01*
X166449619Y-138803242D01*
X166544857Y-138898480D01*
X166592476Y-138993718D01*
X166640095Y-139184194D01*
X166640095Y-139327051D01*
X166592476Y-139517527D01*
X166544857Y-139612765D01*
X166449619Y-139708003D01*
X166306762Y-139755622D01*
X166068667Y-139755622D01*
X166973429Y-138755622D02*
X167592476Y-138755622D01*
X167259143Y-139136575D01*
X167402000Y-139136575D01*
X167497238Y-139184194D01*
X167544857Y-139231813D01*
X167592476Y-139327051D01*
X167592476Y-139565146D01*
X167544857Y-139660384D01*
X167497238Y-139708003D01*
X167402000Y-139755622D01*
X167116286Y-139755622D01*
X167021048Y-139708003D01*
X166973429Y-139660384D01*
X168449619Y-138755622D02*
X168259143Y-138755622D01*
X168163905Y-138803242D01*
X168116286Y-138850861D01*
X168021048Y-138993718D01*
X167973429Y-139184194D01*
X167973429Y-139565146D01*
X168021048Y-139660384D01*
X168068667Y-139708003D01*
X168163905Y-139755622D01*
X168354381Y-139755622D01*
X168449619Y-139708003D01*
X168497238Y-139660384D01*
X168544857Y-139565146D01*
X168544857Y-139327051D01*
X168497238Y-139231813D01*
X168449619Y-139184194D01*
X168354381Y-139136575D01*
X168163905Y-139136575D01*
X168068667Y-139184194D01*
X168021048Y-139231813D01*
X167973429Y-139327051D01*
X163568142Y-134564397D02*
X162568142Y-134564397D01*
X162568142Y-134326302D01*
X162615762Y-134183445D01*
X162711000Y-134088207D01*
X162806238Y-134040588D01*
X162996714Y-133992969D01*
X163139571Y-133992969D01*
X163330047Y-134040588D01*
X163425285Y-134088207D01*
X163520523Y-134183445D01*
X163568142Y-134326302D01*
X163568142Y-134564397D01*
X162901476Y-133135826D02*
X163568142Y-133135826D01*
X162520523Y-133373921D02*
X163234809Y-133612016D01*
X163234809Y-132992969D01*
X162663381Y-132659635D02*
X162615762Y-132612016D01*
X162568142Y-132516778D01*
X162568142Y-132278683D01*
X162615762Y-132183445D01*
X162663381Y-132135826D01*
X162758619Y-132088207D01*
X162853857Y-132088207D01*
X162996714Y-132135826D01*
X163568142Y-132707254D01*
X163568142Y-132088207D01*
X160591577Y-145875344D02*
X159591577Y-145875344D01*
X159591577Y-145637249D01*
X159639197Y-145494392D01*
X159734435Y-145399154D01*
X159829673Y-145351535D01*
X160020149Y-145303916D01*
X160163006Y-145303916D01*
X160353482Y-145351535D01*
X160448720Y-145399154D01*
X160543958Y-145494392D01*
X160591577Y-145637249D01*
X160591577Y-145875344D01*
X159924911Y-144446773D02*
X160591577Y-144446773D01*
X159543958Y-144684868D02*
X160258244Y-144922963D01*
X160258244Y-144303916D01*
X160020149Y-143780106D02*
X159972530Y-143875344D01*
X159924911Y-143922963D01*
X159829673Y-143970582D01*
X159782054Y-143970582D01*
X159686816Y-143922963D01*
X159639197Y-143875344D01*
X159591577Y-143780106D01*
X159591577Y-143589630D01*
X159639197Y-143494392D01*
X159686816Y-143446773D01*
X159782054Y-143399154D01*
X159829673Y-143399154D01*
X159924911Y-143446773D01*
X159972530Y-143494392D01*
X160020149Y-143589630D01*
X160020149Y-143780106D01*
X160067768Y-143875344D01*
X160115387Y-143922963D01*
X160210625Y-143970582D01*
X160401101Y-143970582D01*
X160496339Y-143922963D01*
X160543958Y-143875344D01*
X160591577Y-143780106D01*
X160591577Y-143589630D01*
X160543958Y-143494392D01*
X160496339Y-143446773D01*
X160401101Y-143399154D01*
X160210625Y-143399154D01*
X160115387Y-143446773D01*
X160067768Y-143494392D01*
X160020149Y-143589630D01*
X157615012Y-134564397D02*
X156615012Y-134564397D01*
X156615012Y-134326302D01*
X156662632Y-134183445D01*
X156757870Y-134088207D01*
X156853108Y-134040588D01*
X157043584Y-133992969D01*
X157186441Y-133992969D01*
X157376917Y-134040588D01*
X157472155Y-134088207D01*
X157567393Y-134183445D01*
X157615012Y-134326302D01*
X157615012Y-134564397D01*
X156615012Y-133088207D02*
X156615012Y-133564397D01*
X157091203Y-133612016D01*
X157043584Y-133564397D01*
X156995965Y-133469159D01*
X156995965Y-133231064D01*
X157043584Y-133135826D01*
X157091203Y-133088207D01*
X157186441Y-133040588D01*
X157424536Y-133040588D01*
X157519774Y-133088207D01*
X157567393Y-133135826D01*
X157615012Y-133231064D01*
X157615012Y-133469159D01*
X157567393Y-133564397D01*
X157519774Y-133612016D01*
X156948346Y-132183445D02*
X157615012Y-132183445D01*
X156567393Y-132421540D02*
X157281679Y-132659635D01*
X157281679Y-132040588D01*
X143327500Y-64817538D02*
X143327500Y-65293729D01*
X142327500Y-65293729D01*
X142803691Y-64484205D02*
X142803691Y-64150871D01*
X143327500Y-64008014D02*
X143327500Y-64484205D01*
X142327500Y-64484205D01*
X142327500Y-64008014D01*
X143327500Y-63579443D02*
X142327500Y-63579443D01*
X142327500Y-63341348D01*
X142375120Y-63198491D01*
X142470358Y-63103252D01*
X142565596Y-63055633D01*
X142756072Y-63008014D01*
X142898929Y-63008014D01*
X143089405Y-63055633D01*
X143184643Y-63103252D01*
X143279881Y-63198491D01*
X143327500Y-63341348D01*
X143327500Y-63579443D01*
X143327500Y-62055633D02*
X143327500Y-62627062D01*
X143327500Y-62341348D02*
X142327500Y-62341348D01*
X142470358Y-62436586D01*
X142565596Y-62531824D01*
X142613215Y-62627062D01*
X142732187Y-58507340D02*
X142255997Y-58840674D01*
X142732187Y-59078769D02*
X141732187Y-59078769D01*
X141732187Y-58697816D01*
X141779807Y-58602578D01*
X141827426Y-58554959D01*
X141922664Y-58507340D01*
X142065521Y-58507340D01*
X142160759Y-58554959D01*
X142208378Y-58602578D01*
X142255997Y-58697816D01*
X142255997Y-59078769D01*
X141732187Y-58174007D02*
X141732187Y-57507340D01*
X142732187Y-57935912D01*
X145939079Y-58702578D02*
X145481936Y-58702578D01*
X145710507Y-58702578D02*
X145710507Y-57902578D01*
X145634317Y-58016864D01*
X145558126Y-58093054D01*
X145481936Y-58131150D01*
X146281936Y-58626388D02*
X146320031Y-58664483D01*
X146281936Y-58702578D01*
X146243841Y-58664483D01*
X146281936Y-58626388D01*
X146281936Y-58702578D01*
X147043841Y-57902578D02*
X146662888Y-57902578D01*
X146624793Y-58283531D01*
X146662888Y-58245435D01*
X146739079Y-58207340D01*
X146929555Y-58207340D01*
X147005746Y-58245435D01*
X147043841Y-58283531D01*
X147081936Y-58359721D01*
X147081936Y-58550197D01*
X147043841Y-58626388D01*
X147005746Y-58664483D01*
X146929555Y-58702578D01*
X146739079Y-58702578D01*
X146662888Y-58664483D01*
X146624793Y-58626388D01*
X147424793Y-58702578D02*
X147424793Y-57902578D01*
X147500984Y-58397816D02*
X147729555Y-58702578D01*
X147729555Y-58169245D02*
X147424793Y-58474007D01*
X136303017Y-133802492D02*
X136303017Y-132802492D01*
X136541112Y-132802492D01*
X136683969Y-132850112D01*
X136779207Y-132945350D01*
X136826826Y-133040588D01*
X136874445Y-133231064D01*
X136874445Y-133373921D01*
X136826826Y-133564397D01*
X136779207Y-133659635D01*
X136683969Y-133754873D01*
X136541112Y-133802492D01*
X136303017Y-133802492D01*
X137255398Y-132897731D02*
X137303017Y-132850112D01*
X137398255Y-132802492D01*
X137636350Y-132802492D01*
X137731588Y-132850112D01*
X137779207Y-132897731D01*
X137826826Y-132992969D01*
X137826826Y-133088207D01*
X137779207Y-133231064D01*
X137207779Y-133802492D01*
X137826826Y-133802492D01*
X138303017Y-133802492D02*
X138493493Y-133802492D01*
X138588731Y-133754873D01*
X138636350Y-133707254D01*
X138731588Y-133564397D01*
X138779207Y-133373921D01*
X138779207Y-132992969D01*
X138731588Y-132897731D01*
X138683969Y-132850112D01*
X138588731Y-132802492D01*
X138398255Y-132802492D01*
X138303017Y-132850112D01*
X138255398Y-132897731D01*
X138207779Y-132992969D01*
X138207779Y-133231064D01*
X138255398Y-133326302D01*
X138303017Y-133373921D01*
X138398255Y-133421540D01*
X138588731Y-133421540D01*
X138683969Y-133373921D01*
X138731588Y-133326302D01*
X138779207Y-133231064D01*
X151661882Y-145875344D02*
X150661882Y-145875344D01*
X150661882Y-145637249D01*
X150709502Y-145494392D01*
X150804740Y-145399154D01*
X150899978Y-145351535D01*
X151090454Y-145303916D01*
X151233311Y-145303916D01*
X151423787Y-145351535D01*
X151519025Y-145399154D01*
X151614263Y-145494392D01*
X151661882Y-145637249D01*
X151661882Y-145875344D01*
X150661882Y-144970582D02*
X150661882Y-144351535D01*
X151042835Y-144684868D01*
X151042835Y-144542011D01*
X151090454Y-144446773D01*
X151138073Y-144399154D01*
X151233311Y-144351535D01*
X151471406Y-144351535D01*
X151566644Y-144399154D01*
X151614263Y-144446773D01*
X151661882Y-144542011D01*
X151661882Y-144827725D01*
X151614263Y-144922963D01*
X151566644Y-144970582D01*
X150661882Y-143732487D02*
X150661882Y-143637249D01*
X150709502Y-143542011D01*
X150757121Y-143494392D01*
X150852359Y-143446773D01*
X151042835Y-143399154D01*
X151280930Y-143399154D01*
X151471406Y-143446773D01*
X151566644Y-143494392D01*
X151614263Y-143542011D01*
X151661882Y-143637249D01*
X151661882Y-143732487D01*
X151614263Y-143827725D01*
X151566644Y-143875344D01*
X151471406Y-143922963D01*
X151280930Y-143970582D01*
X151042835Y-143970582D01*
X150852359Y-143922963D01*
X150757121Y-143875344D01*
X150709502Y-143827725D01*
X150661882Y-143732487D01*
X177379614Y-77247757D02*
X177379614Y-76247757D01*
X177617709Y-76247757D01*
X177760566Y-76295377D01*
X177855804Y-76390615D01*
X177903423Y-76485853D01*
X177951042Y-76676329D01*
X177951042Y-76819186D01*
X177903423Y-77009662D01*
X177855804Y-77104900D01*
X177760566Y-77200138D01*
X177617709Y-77247757D01*
X177379614Y-77247757D01*
X178855804Y-76247757D02*
X178379614Y-76247757D01*
X178331995Y-76723948D01*
X178379614Y-76676329D01*
X178474852Y-76628710D01*
X178712947Y-76628710D01*
X178808185Y-76676329D01*
X178855804Y-76723948D01*
X178903423Y-76819186D01*
X178903423Y-77057281D01*
X178855804Y-77152519D01*
X178808185Y-77200138D01*
X178712947Y-77247757D01*
X178474852Y-77247757D01*
X178379614Y-77200138D01*
X178331995Y-77152519D01*
X179808185Y-76247757D02*
X179331995Y-76247757D01*
X179284376Y-76723948D01*
X179331995Y-76676329D01*
X179427233Y-76628710D01*
X179665328Y-76628710D01*
X179760566Y-76676329D01*
X179808185Y-76723948D01*
X179855804Y-76819186D01*
X179855804Y-77057281D01*
X179808185Y-77152519D01*
X179760566Y-77200138D01*
X179665328Y-77247757D01*
X179427233Y-77247757D01*
X179331995Y-77200138D01*
X179284376Y-77152519D01*
X166068667Y-80224322D02*
X166068667Y-79224322D01*
X166306762Y-79224322D01*
X166449619Y-79271942D01*
X166544857Y-79367180D01*
X166592476Y-79462418D01*
X166640095Y-79652894D01*
X166640095Y-79795751D01*
X166592476Y-79986227D01*
X166544857Y-80081465D01*
X166449619Y-80176703D01*
X166306762Y-80224322D01*
X166068667Y-80224322D01*
X167544857Y-79224322D02*
X167068667Y-79224322D01*
X167021048Y-79700513D01*
X167068667Y-79652894D01*
X167163905Y-79605275D01*
X167402000Y-79605275D01*
X167497238Y-79652894D01*
X167544857Y-79700513D01*
X167592476Y-79795751D01*
X167592476Y-80033846D01*
X167544857Y-80129084D01*
X167497238Y-80176703D01*
X167402000Y-80224322D01*
X167163905Y-80224322D01*
X167068667Y-80176703D01*
X167021048Y-80129084D01*
X168449619Y-79224322D02*
X168259143Y-79224322D01*
X168163905Y-79271942D01*
X168116286Y-79319561D01*
X168021048Y-79462418D01*
X167973429Y-79652894D01*
X167973429Y-80033846D01*
X168021048Y-80129084D01*
X168068667Y-80176703D01*
X168163905Y-80224322D01*
X168354381Y-80224322D01*
X168449619Y-80176703D01*
X168497238Y-80129084D01*
X168544857Y-80033846D01*
X168544857Y-79795751D01*
X168497238Y-79700513D01*
X168449619Y-79652894D01*
X168354381Y-79605275D01*
X168163905Y-79605275D01*
X168068667Y-79652894D01*
X168021048Y-79700513D01*
X167973429Y-79795751D01*
X166068667Y-98083712D02*
X166068667Y-97083712D01*
X166306762Y-97083712D01*
X166449619Y-97131332D01*
X166544857Y-97226570D01*
X166592476Y-97321808D01*
X166640095Y-97512284D01*
X166640095Y-97655141D01*
X166592476Y-97845617D01*
X166544857Y-97940855D01*
X166449619Y-98036093D01*
X166306762Y-98083712D01*
X166068667Y-98083712D01*
X167544857Y-97083712D02*
X167068667Y-97083712D01*
X167021048Y-97559903D01*
X167068667Y-97512284D01*
X167163905Y-97464665D01*
X167402000Y-97464665D01*
X167497238Y-97512284D01*
X167544857Y-97559903D01*
X167592476Y-97655141D01*
X167592476Y-97893236D01*
X167544857Y-97988474D01*
X167497238Y-98036093D01*
X167402000Y-98083712D01*
X167163905Y-98083712D01*
X167068667Y-98036093D01*
X167021048Y-97988474D01*
X167925810Y-97083712D02*
X168592476Y-97083712D01*
X168163905Y-98083712D01*
X166068667Y-115943102D02*
X166068667Y-114943102D01*
X166306762Y-114943102D01*
X166449619Y-114990722D01*
X166544857Y-115085960D01*
X166592476Y-115181198D01*
X166640095Y-115371674D01*
X166640095Y-115514531D01*
X166592476Y-115705007D01*
X166544857Y-115800245D01*
X166449619Y-115895483D01*
X166306762Y-115943102D01*
X166068667Y-115943102D01*
X167544857Y-114943102D02*
X167068667Y-114943102D01*
X167021048Y-115419293D01*
X167068667Y-115371674D01*
X167163905Y-115324055D01*
X167402000Y-115324055D01*
X167497238Y-115371674D01*
X167544857Y-115419293D01*
X167592476Y-115514531D01*
X167592476Y-115752626D01*
X167544857Y-115847864D01*
X167497238Y-115895483D01*
X167402000Y-115943102D01*
X167163905Y-115943102D01*
X167068667Y-115895483D01*
X167021048Y-115847864D01*
X168163905Y-115371674D02*
X168068667Y-115324055D01*
X168021048Y-115276436D01*
X167973429Y-115181198D01*
X167973429Y-115133579D01*
X168021048Y-115038341D01*
X168068667Y-114990722D01*
X168163905Y-114943102D01*
X168354381Y-114943102D01*
X168449619Y-114990722D01*
X168497238Y-115038341D01*
X168544857Y-115133579D01*
X168544857Y-115181198D01*
X168497238Y-115276436D01*
X168449619Y-115324055D01*
X168354381Y-115371674D01*
X168163905Y-115371674D01*
X168068667Y-115419293D01*
X168021048Y-115466912D01*
X167973429Y-115562150D01*
X167973429Y-115752626D01*
X168021048Y-115847864D01*
X168068667Y-115895483D01*
X168163905Y-115943102D01*
X168354381Y-115943102D01*
X168449619Y-115895483D01*
X168497238Y-115847864D01*
X168544857Y-115752626D01*
X168544857Y-115562150D01*
X168497238Y-115466912D01*
X168449619Y-115419293D01*
X168354381Y-115371674D01*
X166068667Y-133802492D02*
X166068667Y-132802492D01*
X166306762Y-132802492D01*
X166449619Y-132850112D01*
X166544857Y-132945350D01*
X166592476Y-133040588D01*
X166640095Y-133231064D01*
X166640095Y-133373921D01*
X166592476Y-133564397D01*
X166544857Y-133659635D01*
X166449619Y-133754873D01*
X166306762Y-133802492D01*
X166068667Y-133802492D01*
X167544857Y-132802492D02*
X167068667Y-132802492D01*
X167021048Y-133278683D01*
X167068667Y-133231064D01*
X167163905Y-133183445D01*
X167402000Y-133183445D01*
X167497238Y-133231064D01*
X167544857Y-133278683D01*
X167592476Y-133373921D01*
X167592476Y-133612016D01*
X167544857Y-133707254D01*
X167497238Y-133754873D01*
X167402000Y-133802492D01*
X167163905Y-133802492D01*
X167068667Y-133754873D01*
X167021048Y-133707254D01*
X168068667Y-133802492D02*
X168259143Y-133802492D01*
X168354381Y-133754873D01*
X168402000Y-133707254D01*
X168497238Y-133564397D01*
X168544857Y-133373921D01*
X168544857Y-132992969D01*
X168497238Y-132897731D01*
X168449619Y-132850112D01*
X168354381Y-132802492D01*
X168163905Y-132802492D01*
X168068667Y-132850112D01*
X168021048Y-132897731D01*
X167973429Y-132992969D01*
X167973429Y-133231064D01*
X168021048Y-133326302D01*
X168068667Y-133373921D01*
X168163905Y-133421540D01*
X168354381Y-133421540D01*
X168449619Y-133373921D01*
X168497238Y-133326302D01*
X168544857Y-133231064D01*
X154638447Y-145875344D02*
X153638447Y-145875344D01*
X153638447Y-145637249D01*
X153686067Y-145494392D01*
X153781305Y-145399154D01*
X153876543Y-145351535D01*
X154067019Y-145303916D01*
X154209876Y-145303916D01*
X154400352Y-145351535D01*
X154495590Y-145399154D01*
X154590828Y-145494392D01*
X154638447Y-145637249D01*
X154638447Y-145875344D01*
X153638447Y-144446773D02*
X153638447Y-144637249D01*
X153686067Y-144732487D01*
X153733686Y-144780106D01*
X153876543Y-144875344D01*
X154067019Y-144922963D01*
X154447971Y-144922963D01*
X154543209Y-144875344D01*
X154590828Y-144827725D01*
X154638447Y-144732487D01*
X154638447Y-144542011D01*
X154590828Y-144446773D01*
X154543209Y-144399154D01*
X154447971Y-144351535D01*
X154209876Y-144351535D01*
X154114638Y-144399154D01*
X154067019Y-144446773D01*
X154019400Y-144542011D01*
X154019400Y-144732487D01*
X154067019Y-144827725D01*
X154114638Y-144875344D01*
X154209876Y-144922963D01*
X153638447Y-143732487D02*
X153638447Y-143637249D01*
X153686067Y-143542011D01*
X153733686Y-143494392D01*
X153828924Y-143446773D01*
X154019400Y-143399154D01*
X154257495Y-143399154D01*
X154447971Y-143446773D01*
X154543209Y-143494392D01*
X154590828Y-143542011D01*
X154638447Y-143637249D01*
X154638447Y-143732487D01*
X154590828Y-143827725D01*
X154543209Y-143875344D01*
X154447971Y-143922963D01*
X154257495Y-143970582D01*
X154019400Y-143970582D01*
X153828924Y-143922963D01*
X153733686Y-143875344D01*
X153686067Y-143827725D01*
X153638447Y-143732487D01*
D13*
X111614953Y-126018375D02*
X111614953Y-124748375D01*
X112122953Y-125655518D01*
X112630953Y-124748375D01*
X112630953Y-126018375D01*
X113211524Y-124748375D02*
X114227524Y-126018375D01*
X114227524Y-124748375D02*
X113211524Y-126018375D01*
X114735524Y-124869328D02*
X114808096Y-124808852D01*
X114953238Y-124748375D01*
X115316096Y-124748375D01*
X115461238Y-124808852D01*
X115533810Y-124869328D01*
X115606381Y-124990280D01*
X115606381Y-125111232D01*
X115533810Y-125292661D01*
X114662953Y-126018375D01*
X115606381Y-126018375D01*
X116332096Y-126018375D02*
X116622381Y-126018375D01*
X116767524Y-125957899D01*
X116840096Y-125897423D01*
X116985238Y-125715994D01*
X117057810Y-125474090D01*
X117057810Y-124990280D01*
X116985238Y-124869328D01*
X116912667Y-124808852D01*
X116767524Y-124748375D01*
X116477238Y-124748375D01*
X116332096Y-124808852D01*
X116259524Y-124869328D01*
X116186953Y-124990280D01*
X116186953Y-125292661D01*
X116259524Y-125413613D01*
X116332096Y-125474090D01*
X116477238Y-125534566D01*
X116767524Y-125534566D01*
X116912667Y-125474090D01*
X116985238Y-125413613D01*
X117057810Y-125292661D01*
X111614953Y-145068391D02*
X111614953Y-143798391D01*
X112122953Y-144705534D01*
X112630953Y-143798391D01*
X112630953Y-145068391D01*
X113211524Y-143798391D02*
X114227524Y-145068391D01*
X114227524Y-143798391D02*
X113211524Y-145068391D01*
X114662953Y-143798391D02*
X115606381Y-143798391D01*
X115098381Y-144282201D01*
X115316096Y-144282201D01*
X115461238Y-144342677D01*
X115533810Y-144403153D01*
X115606381Y-144524106D01*
X115606381Y-144826487D01*
X115533810Y-144947439D01*
X115461238Y-145007915D01*
X115316096Y-145068391D01*
X114880667Y-145068391D01*
X114735524Y-145007915D01*
X114662953Y-144947439D01*
X116549810Y-143798391D02*
X116694953Y-143798391D01*
X116840096Y-143858868D01*
X116912667Y-143919344D01*
X116985238Y-144040296D01*
X117057810Y-144282201D01*
X117057810Y-144584582D01*
X116985238Y-144826487D01*
X116912667Y-144947439D01*
X116840096Y-145007915D01*
X116694953Y-145068391D01*
X116549810Y-145068391D01*
X116404667Y-145007915D01*
X116332096Y-144947439D01*
X116259524Y-144826487D01*
X116186953Y-144584582D01*
X116186953Y-144282201D01*
X116259524Y-144040296D01*
X116332096Y-143919344D01*
X116404667Y-143858868D01*
X116549810Y-143798391D01*
X206865033Y-68868327D02*
X206865033Y-67598327D01*
X207373033Y-68505470D01*
X207881033Y-67598327D01*
X207881033Y-68868327D01*
X208461604Y-67598327D02*
X209477604Y-68868327D01*
X209477604Y-67598327D02*
X208461604Y-68868327D01*
X210783890Y-67598327D02*
X210058176Y-67598327D01*
X209985604Y-68203089D01*
X210058176Y-68142613D01*
X210203318Y-68082137D01*
X210566176Y-68082137D01*
X210711318Y-68142613D01*
X210783890Y-68203089D01*
X210856461Y-68324042D01*
X210856461Y-68626423D01*
X210783890Y-68747375D01*
X210711318Y-68807851D01*
X210566176Y-68868327D01*
X210203318Y-68868327D01*
X210058176Y-68807851D01*
X209985604Y-68747375D01*
X212235318Y-67598327D02*
X211509604Y-67598327D01*
X211437033Y-68203089D01*
X211509604Y-68142613D01*
X211654747Y-68082137D01*
X212017604Y-68082137D01*
X212162747Y-68142613D01*
X212235318Y-68203089D01*
X212307890Y-68324042D01*
X212307890Y-68626423D01*
X212235318Y-68747375D01*
X212162747Y-68807851D01*
X212017604Y-68868327D01*
X211654747Y-68868327D01*
X211509604Y-68807851D01*
X211437033Y-68747375D01*
X187815017Y-68868327D02*
X187815017Y-67598327D01*
X188323017Y-68505470D01*
X188831017Y-67598327D01*
X188831017Y-68868327D01*
X189411588Y-67598327D02*
X190427588Y-68868327D01*
X190427588Y-67598327D02*
X189411588Y-68868327D01*
X191733874Y-67598327D02*
X191008160Y-67598327D01*
X190935588Y-68203089D01*
X191008160Y-68142613D01*
X191153302Y-68082137D01*
X191516160Y-68082137D01*
X191661302Y-68142613D01*
X191733874Y-68203089D01*
X191806445Y-68324042D01*
X191806445Y-68626423D01*
X191733874Y-68747375D01*
X191661302Y-68807851D01*
X191516160Y-68868327D01*
X191153302Y-68868327D01*
X191008160Y-68807851D01*
X190935588Y-68747375D01*
X193112731Y-67598327D02*
X192822445Y-67598327D01*
X192677302Y-67658804D01*
X192604731Y-67719280D01*
X192459588Y-67900708D01*
X192387017Y-68142613D01*
X192387017Y-68626423D01*
X192459588Y-68747375D01*
X192532160Y-68807851D01*
X192677302Y-68868327D01*
X192967588Y-68868327D01*
X193112731Y-68807851D01*
X193185302Y-68747375D01*
X193257874Y-68626423D01*
X193257874Y-68324042D01*
X193185302Y-68203089D01*
X193112731Y-68142613D01*
X192967588Y-68082137D01*
X192677302Y-68082137D01*
X192532160Y-68142613D01*
X192459588Y-68203089D01*
X192387017Y-68324042D01*
X187815017Y-87918343D02*
X187815017Y-86648343D01*
X188323017Y-87555486D01*
X188831017Y-86648343D01*
X188831017Y-87918343D01*
X189411588Y-86648343D02*
X190427588Y-87918343D01*
X190427588Y-86648343D02*
X189411588Y-87918343D01*
X191733874Y-86648343D02*
X191008160Y-86648343D01*
X190935588Y-87253105D01*
X191008160Y-87192629D01*
X191153302Y-87132153D01*
X191516160Y-87132153D01*
X191661302Y-87192629D01*
X191733874Y-87253105D01*
X191806445Y-87374058D01*
X191806445Y-87676439D01*
X191733874Y-87797391D01*
X191661302Y-87857867D01*
X191516160Y-87918343D01*
X191153302Y-87918343D01*
X191008160Y-87857867D01*
X190935588Y-87797391D01*
X192314445Y-86648343D02*
X193330445Y-86648343D01*
X192677302Y-87918343D01*
X187815017Y-106968359D02*
X187815017Y-105698359D01*
X188323017Y-106605502D01*
X188831017Y-105698359D01*
X188831017Y-106968359D01*
X189411588Y-105698359D02*
X190427588Y-106968359D01*
X190427588Y-105698359D02*
X189411588Y-106968359D01*
X191733874Y-105698359D02*
X191008160Y-105698359D01*
X190935588Y-106303121D01*
X191008160Y-106242645D01*
X191153302Y-106182169D01*
X191516160Y-106182169D01*
X191661302Y-106242645D01*
X191733874Y-106303121D01*
X191806445Y-106424074D01*
X191806445Y-106726455D01*
X191733874Y-106847407D01*
X191661302Y-106907883D01*
X191516160Y-106968359D01*
X191153302Y-106968359D01*
X191008160Y-106907883D01*
X190935588Y-106847407D01*
X192677302Y-106242645D02*
X192532160Y-106182169D01*
X192459588Y-106121693D01*
X192387017Y-106000740D01*
X192387017Y-105940264D01*
X192459588Y-105819312D01*
X192532160Y-105758836D01*
X192677302Y-105698359D01*
X192967588Y-105698359D01*
X193112731Y-105758836D01*
X193185302Y-105819312D01*
X193257874Y-105940264D01*
X193257874Y-106000740D01*
X193185302Y-106121693D01*
X193112731Y-106182169D01*
X192967588Y-106242645D01*
X192677302Y-106242645D01*
X192532160Y-106303121D01*
X192459588Y-106363597D01*
X192387017Y-106484550D01*
X192387017Y-106726455D01*
X192459588Y-106847407D01*
X192532160Y-106907883D01*
X192677302Y-106968359D01*
X192967588Y-106968359D01*
X193112731Y-106907883D01*
X193185302Y-106847407D01*
X193257874Y-106726455D01*
X193257874Y-106484550D01*
X193185302Y-106363597D01*
X193112731Y-106303121D01*
X192967588Y-106242645D01*
X187815017Y-126018375D02*
X187815017Y-124748375D01*
X188323017Y-125655518D01*
X188831017Y-124748375D01*
X188831017Y-126018375D01*
X189411588Y-124748375D02*
X190427588Y-126018375D01*
X190427588Y-124748375D02*
X189411588Y-126018375D01*
X191733874Y-124748375D02*
X191008160Y-124748375D01*
X190935588Y-125353137D01*
X191008160Y-125292661D01*
X191153302Y-125232185D01*
X191516160Y-125232185D01*
X191661302Y-125292661D01*
X191733874Y-125353137D01*
X191806445Y-125474090D01*
X191806445Y-125776471D01*
X191733874Y-125897423D01*
X191661302Y-125957899D01*
X191516160Y-126018375D01*
X191153302Y-126018375D01*
X191008160Y-125957899D01*
X190935588Y-125897423D01*
X192532160Y-126018375D02*
X192822445Y-126018375D01*
X192967588Y-125957899D01*
X193040160Y-125897423D01*
X193185302Y-125715994D01*
X193257874Y-125474090D01*
X193257874Y-124990280D01*
X193185302Y-124869328D01*
X193112731Y-124808852D01*
X192967588Y-124748375D01*
X192677302Y-124748375D01*
X192532160Y-124808852D01*
X192459588Y-124869328D01*
X192387017Y-124990280D01*
X192387017Y-125292661D01*
X192459588Y-125413613D01*
X192532160Y-125474090D01*
X192677302Y-125534566D01*
X192967588Y-125534566D01*
X193112731Y-125474090D01*
X193185302Y-125413613D01*
X193257874Y-125292661D01*
X187815017Y-145068391D02*
X187815017Y-143798391D01*
X188323017Y-144705534D01*
X188831017Y-143798391D01*
X188831017Y-145068391D01*
X189411588Y-143798391D02*
X190427588Y-145068391D01*
X190427588Y-143798391D02*
X189411588Y-145068391D01*
X191661302Y-143798391D02*
X191371017Y-143798391D01*
X191225874Y-143858868D01*
X191153302Y-143919344D01*
X191008160Y-144100772D01*
X190935588Y-144342677D01*
X190935588Y-144826487D01*
X191008160Y-144947439D01*
X191080731Y-145007915D01*
X191225874Y-145068391D01*
X191516160Y-145068391D01*
X191661302Y-145007915D01*
X191733874Y-144947439D01*
X191806445Y-144826487D01*
X191806445Y-144524106D01*
X191733874Y-144403153D01*
X191661302Y-144342677D01*
X191516160Y-144282201D01*
X191225874Y-144282201D01*
X191080731Y-144342677D01*
X191008160Y-144403153D01*
X190935588Y-144524106D01*
X192749874Y-143798391D02*
X192895017Y-143798391D01*
X193040160Y-143858868D01*
X193112731Y-143919344D01*
X193185302Y-144040296D01*
X193257874Y-144282201D01*
X193257874Y-144584582D01*
X193185302Y-144826487D01*
X193112731Y-144947439D01*
X193040160Y-145007915D01*
X192895017Y-145068391D01*
X192749874Y-145068391D01*
X192604731Y-145007915D01*
X192532160Y-144947439D01*
X192459588Y-144826487D01*
X192387017Y-144584582D01*
X192387017Y-144282201D01*
X192459588Y-144040296D01*
X192532160Y-143919344D01*
X192604731Y-143858868D01*
X192749874Y-143798391D01*
X100021659Y-132180275D02*
X100094230Y-132119799D01*
X100239373Y-132059322D01*
X100602230Y-132059322D01*
X100747373Y-132119799D01*
X100819945Y-132180275D01*
X100892516Y-132301227D01*
X100892516Y-132422179D01*
X100819945Y-132603608D01*
X99949088Y-133329322D01*
X100892516Y-133329322D01*
X102198802Y-132482656D02*
X102198802Y-133329322D01*
X101545659Y-132482656D02*
X101545659Y-133147894D01*
X101618230Y-133268846D01*
X101763373Y-133329322D01*
X101981088Y-133329322D01*
X102126230Y-133268846D01*
X102198802Y-133208370D01*
X102561659Y-133450275D02*
X103722802Y-133450275D01*
X104085659Y-133329322D02*
X104085659Y-132059322D01*
X104593659Y-132966465D01*
X105101659Y-132059322D01*
X105101659Y-133329322D01*
X105682230Y-132059322D02*
X106698230Y-133329322D01*
X106698230Y-132059322D02*
X105682230Y-133329322D01*
X107133659Y-132059322D02*
X108077088Y-132059322D01*
X107569088Y-132543132D01*
X107786802Y-132543132D01*
X107931945Y-132603608D01*
X108004516Y-132664084D01*
X108077088Y-132785037D01*
X108077088Y-133087418D01*
X108004516Y-133208370D01*
X107931945Y-133268846D01*
X107786802Y-133329322D01*
X107351373Y-133329322D01*
X107206230Y-133268846D01*
X107133659Y-133208370D01*
X109020516Y-132059322D02*
X109165659Y-132059322D01*
X109310802Y-132119799D01*
X109383373Y-132180275D01*
X109455945Y-132301227D01*
X109528516Y-132543132D01*
X109528516Y-132845513D01*
X109455945Y-133087418D01*
X109383373Y-133208370D01*
X109310802Y-133268846D01*
X109165659Y-133329322D01*
X109020516Y-133329322D01*
X108875373Y-133268846D01*
X108802802Y-133208370D01*
X108730230Y-133087418D01*
X108657659Y-132845513D01*
X108657659Y-132543132D01*
X108730230Y-132301227D01*
X108802802Y-132180275D01*
X108875373Y-132119799D01*
X109020516Y-132059322D01*
X195271739Y-132180275D02*
X195344310Y-132119799D01*
X195489453Y-132059322D01*
X195852310Y-132059322D01*
X195997453Y-132119799D01*
X196070025Y-132180275D01*
X196142596Y-132301227D01*
X196142596Y-132422179D01*
X196070025Y-132603608D01*
X195199168Y-133329322D01*
X196142596Y-133329322D01*
X197448882Y-132482656D02*
X197448882Y-133329322D01*
X196795739Y-132482656D02*
X196795739Y-133147894D01*
X196868310Y-133268846D01*
X197013453Y-133329322D01*
X197231168Y-133329322D01*
X197376310Y-133268846D01*
X197448882Y-133208370D01*
X197811739Y-133450275D02*
X198972882Y-133450275D01*
X199335739Y-133329322D02*
X199335739Y-132059322D01*
X199843739Y-132966465D01*
X200351739Y-132059322D01*
X200351739Y-133329322D01*
X200932310Y-132059322D02*
X201948310Y-133329322D01*
X201948310Y-132059322D02*
X200932310Y-133329322D01*
X203182025Y-132059322D02*
X202891739Y-132059322D01*
X202746596Y-132119799D01*
X202674025Y-132180275D01*
X202528882Y-132361703D01*
X202456310Y-132603608D01*
X202456310Y-133087418D01*
X202528882Y-133208370D01*
X202601453Y-133268846D01*
X202746596Y-133329322D01*
X203036882Y-133329322D01*
X203182025Y-133268846D01*
X203254596Y-133208370D01*
X203327168Y-133087418D01*
X203327168Y-132785037D01*
X203254596Y-132664084D01*
X203182025Y-132603608D01*
X203036882Y-132543132D01*
X202746596Y-132543132D01*
X202601453Y-132603608D01*
X202528882Y-132664084D01*
X202456310Y-132785037D01*
X204270596Y-132059322D02*
X204415739Y-132059322D01*
X204560882Y-132119799D01*
X204633453Y-132180275D01*
X204706025Y-132301227D01*
X204778596Y-132543132D01*
X204778596Y-132845513D01*
X204706025Y-133087418D01*
X204633453Y-133208370D01*
X204560882Y-133268846D01*
X204415739Y-133329322D01*
X204270596Y-133329322D01*
X204125453Y-133268846D01*
X204052882Y-133208370D01*
X203980310Y-133087418D01*
X203907739Y-132845513D01*
X203907739Y-132543132D01*
X203980310Y-132301227D01*
X204052882Y-132180275D01*
X204125453Y-132119799D01*
X204270596Y-132059322D01*
M02*
