G04 #@! TF.GenerationSoftware,KiCad,Pcbnew,(5.1.4-0-10_14)*
G04 #@! TF.CreationDate,2021-01-10T19:21:07+01:00*
G04 #@! TF.ProjectId,lumberjack,6c756d62-6572-46a6-9163-6b2e6b696361,rev?*
G04 #@! TF.SameCoordinates,Original*
G04 #@! TF.FileFunction,Legend,Top*
G04 #@! TF.FilePolarity,Positive*
%FSLAX46Y46*%
G04 Gerber Fmt 4.6, Leading zero omitted, Abs format (unit mm)*
G04 Created by KiCad (PCBNEW (5.1.4-0-10_14)) date 2021-01-10 19:21:07*
%MOMM*%
%LPD*%
G04 APERTURE LIST*
%ADD10C,0.100000*%
%ADD11C,0.150000*%
%ADD12C,0.120000*%
%ADD13C,0.203200*%
G04 APERTURE END LIST*
D10*
X149083726Y-78347907D02*
X149083726Y-77547907D01*
X149350392Y-78119336D01*
X149617059Y-77547907D01*
X149617059Y-78347907D01*
X149998011Y-78347907D02*
X149998011Y-77547907D01*
X150340869Y-78309812D02*
X150455154Y-78347907D01*
X150645630Y-78347907D01*
X150721821Y-78309812D01*
X150759916Y-78271717D01*
X150798011Y-78195526D01*
X150798011Y-78119336D01*
X150759916Y-78043145D01*
X150721821Y-78005050D01*
X150645630Y-77966955D01*
X150493250Y-77928860D01*
X150417059Y-77890764D01*
X150378964Y-77852669D01*
X150340869Y-77776479D01*
X150340869Y-77700288D01*
X150378964Y-77624098D01*
X150417059Y-77586003D01*
X150493250Y-77547907D01*
X150683726Y-77547907D01*
X150798011Y-77586003D01*
X151293250Y-77547907D02*
X151445630Y-77547907D01*
X151521821Y-77586003D01*
X151598011Y-77662193D01*
X151636107Y-77814574D01*
X151636107Y-78081241D01*
X151598011Y-78233622D01*
X151521821Y-78309812D01*
X151445630Y-78347907D01*
X151293250Y-78347907D01*
X151217059Y-78309812D01*
X151140869Y-78233622D01*
X151102773Y-78081241D01*
X151102773Y-77814574D01*
X151140869Y-77662193D01*
X151217059Y-77586003D01*
X151293250Y-77547907D01*
X145253365Y-78309812D02*
X145367650Y-78347907D01*
X145558126Y-78347907D01*
X145634317Y-78309812D01*
X145672412Y-78271717D01*
X145710507Y-78195526D01*
X145710507Y-78119336D01*
X145672412Y-78043145D01*
X145634317Y-78005050D01*
X145558126Y-77966955D01*
X145405746Y-77928860D01*
X145329555Y-77890764D01*
X145291460Y-77852669D01*
X145253365Y-77776479D01*
X145253365Y-77700288D01*
X145291460Y-77624098D01*
X145329555Y-77586003D01*
X145405746Y-77547907D01*
X145596222Y-77547907D01*
X145710507Y-77586003D01*
X146510507Y-78271717D02*
X146472412Y-78309812D01*
X146358126Y-78347907D01*
X146281936Y-78347907D01*
X146167650Y-78309812D01*
X146091460Y-78233622D01*
X146053365Y-78157431D01*
X146015269Y-78005050D01*
X146015269Y-77890764D01*
X146053365Y-77738383D01*
X146091460Y-77662193D01*
X146167650Y-77586003D01*
X146281936Y-77547907D01*
X146358126Y-77547907D01*
X146472412Y-77586003D01*
X146510507Y-77624098D01*
X147234317Y-78347907D02*
X146853365Y-78347907D01*
X146853365Y-77547907D01*
X147500984Y-78347907D02*
X147500984Y-77547907D01*
X147958126Y-78347907D02*
X147615269Y-77890764D01*
X147958126Y-77547907D02*
X147500984Y-78005050D01*
X145348603Y-85491663D02*
X145348603Y-84691663D01*
X145615269Y-85263092D01*
X145881936Y-84691663D01*
X145881936Y-85491663D01*
X146415269Y-84691663D02*
X146567650Y-84691663D01*
X146643841Y-84729759D01*
X146720031Y-84805949D01*
X146758126Y-84958330D01*
X146758126Y-85224997D01*
X146720031Y-85377378D01*
X146643841Y-85453568D01*
X146567650Y-85491663D01*
X146415269Y-85491663D01*
X146339079Y-85453568D01*
X146262888Y-85377378D01*
X146224793Y-85224997D01*
X146224793Y-84958330D01*
X146262888Y-84805949D01*
X146339079Y-84729759D01*
X146415269Y-84691663D01*
X147062888Y-85453568D02*
X147177174Y-85491663D01*
X147367650Y-85491663D01*
X147443841Y-85453568D01*
X147481936Y-85415473D01*
X147520031Y-85339282D01*
X147520031Y-85263092D01*
X147481936Y-85186901D01*
X147443841Y-85148806D01*
X147367650Y-85110711D01*
X147215269Y-85072616D01*
X147139079Y-85034520D01*
X147100984Y-84996425D01*
X147062888Y-84920235D01*
X147062888Y-84844044D01*
X147100984Y-84767854D01*
X147139079Y-84729759D01*
X147215269Y-84691663D01*
X147405746Y-84691663D01*
X147520031Y-84729759D01*
X147862888Y-85491663D02*
X147862888Y-84691663D01*
X148969440Y-84691663D02*
X149236107Y-85491663D01*
X149502773Y-84691663D01*
X150226583Y-85415473D02*
X150188488Y-85453568D01*
X150074202Y-85491663D01*
X149998011Y-85491663D01*
X149883726Y-85453568D01*
X149807535Y-85377378D01*
X149769440Y-85301187D01*
X149731345Y-85148806D01*
X149731345Y-85034520D01*
X149769440Y-84882139D01*
X149807535Y-84805949D01*
X149883726Y-84729759D01*
X149998011Y-84691663D01*
X150074202Y-84691663D01*
X150188488Y-84729759D01*
X150226583Y-84767854D01*
X151026583Y-85415473D02*
X150988488Y-85453568D01*
X150874202Y-85491663D01*
X150798011Y-85491663D01*
X150683726Y-85453568D01*
X150607535Y-85377378D01*
X150569440Y-85301187D01*
X150531345Y-85148806D01*
X150531345Y-85034520D01*
X150569440Y-84882139D01*
X150607535Y-84805949D01*
X150683726Y-84729759D01*
X150798011Y-84691663D01*
X150874202Y-84691663D01*
X150988488Y-84729759D01*
X151026583Y-84767854D01*
X142767487Y-84729759D02*
X142691297Y-84691663D01*
X142577011Y-84691663D01*
X142462725Y-84729759D01*
X142386535Y-84805949D01*
X142348439Y-84882139D01*
X142310344Y-85034520D01*
X142310344Y-85148806D01*
X142348439Y-85301187D01*
X142386535Y-85377378D01*
X142462725Y-85453568D01*
X142577011Y-85491663D01*
X142653201Y-85491663D01*
X142767487Y-85453568D01*
X142805582Y-85415473D01*
X142805582Y-85148806D01*
X142653201Y-85148806D01*
X143148439Y-85491663D02*
X143148439Y-84691663D01*
X143605582Y-85491663D01*
X143605582Y-84691663D01*
X143986535Y-85491663D02*
X143986535Y-84691663D01*
X144177011Y-84691663D01*
X144291297Y-84729759D01*
X144367487Y-84805949D01*
X144405582Y-84882139D01*
X144443678Y-85034520D01*
X144443678Y-85148806D01*
X144405582Y-85301187D01*
X144367487Y-85377378D01*
X144291297Y-85453568D01*
X144177011Y-85491663D01*
X143986535Y-85491663D01*
X143072249Y-78347907D02*
X142805582Y-77966955D01*
X142615106Y-78347907D02*
X142615106Y-77547907D01*
X142919868Y-77547907D01*
X142996059Y-77586003D01*
X143034154Y-77624098D01*
X143072249Y-77700288D01*
X143072249Y-77814574D01*
X143034154Y-77890764D01*
X142996059Y-77928860D01*
X142919868Y-77966955D01*
X142615106Y-77966955D01*
X143377011Y-78309812D02*
X143491297Y-78347907D01*
X143681773Y-78347907D01*
X143757963Y-78309812D01*
X143796059Y-78271717D01*
X143834154Y-78195526D01*
X143834154Y-78119336D01*
X143796059Y-78043145D01*
X143757963Y-78005050D01*
X143681773Y-77966955D01*
X143529392Y-77928860D01*
X143453201Y-77890764D01*
X143415106Y-77852669D01*
X143377011Y-77776479D01*
X143377011Y-77700288D01*
X143415106Y-77624098D01*
X143453201Y-77586003D01*
X143529392Y-77547907D01*
X143719868Y-77547907D01*
X143834154Y-77586003D01*
X144062725Y-77547907D02*
X144519868Y-77547907D01*
X144291297Y-78347907D02*
X144291297Y-77547907D01*
D11*
X151989467Y-82546523D02*
X150989467Y-82546523D01*
X151941848Y-82117952D02*
X151989467Y-81975094D01*
X151989467Y-81736999D01*
X151941848Y-81641761D01*
X151894229Y-81594142D01*
X151798991Y-81546523D01*
X151703753Y-81546523D01*
X151608515Y-81594142D01*
X151560896Y-81641761D01*
X151513277Y-81736999D01*
X151465658Y-81927475D01*
X151418039Y-82022713D01*
X151370420Y-82070333D01*
X151275182Y-82117952D01*
X151179944Y-82117952D01*
X151084706Y-82070333D01*
X151037087Y-82022713D01*
X150989467Y-81927475D01*
X150989467Y-81689380D01*
X151037087Y-81546523D01*
X151989467Y-81117952D02*
X150989467Y-81117952D01*
X150989467Y-80736999D01*
X151037087Y-80641761D01*
X151084706Y-80594142D01*
X151179944Y-80546523D01*
X151322801Y-80546523D01*
X151418039Y-80594142D01*
X151465658Y-80641761D01*
X151513277Y-80736999D01*
X151513277Y-81117952D01*
D12*
X155721380Y-106561027D02*
X156671380Y-106561027D01*
X161461380Y-106561027D02*
X160511380Y-106561027D01*
X156671380Y-107481027D02*
X160511380Y-107481027D01*
X156671380Y-105641027D02*
X156671380Y-107481027D01*
X160511380Y-105641027D02*
X156671380Y-105641027D01*
X160511380Y-107481027D02*
X160511380Y-105641027D01*
X155721380Y-108942279D02*
X156671380Y-108942279D01*
X161461380Y-108942279D02*
X160511380Y-108942279D01*
X156671380Y-109862279D02*
X160511380Y-109862279D01*
X156671380Y-108022279D02*
X156671380Y-109862279D01*
X160511380Y-108022279D02*
X156671380Y-108022279D01*
X160511380Y-109862279D02*
X160511380Y-108022279D01*
X142001868Y-111146035D02*
X142001868Y-121046035D01*
X138801868Y-111146035D02*
X138801868Y-121026035D01*
X142001868Y-111146035D02*
X138801868Y-111146035D01*
X142001868Y-121046035D02*
X138801868Y-121046035D01*
X142804494Y-138611990D02*
X140564494Y-138611990D01*
X140564494Y-138611990D02*
X140564494Y-142851990D01*
X140564494Y-142851990D02*
X142804494Y-142851990D01*
X142804494Y-142851990D02*
X142804494Y-138611990D01*
X141684494Y-137961990D02*
X141684494Y-138611990D01*
X141684494Y-143501990D02*
X141684494Y-142851990D01*
X142804494Y-139331990D02*
X140564494Y-139331990D01*
X142804494Y-139451990D02*
X140564494Y-139451990D01*
X142804494Y-139211990D02*
X140564494Y-139211990D01*
X134636677Y-119587287D02*
X134636677Y-117347287D01*
X134636677Y-117347287D02*
X130396677Y-117347287D01*
X130396677Y-117347287D02*
X130396677Y-119587287D01*
X130396677Y-119587287D02*
X134636677Y-119587287D01*
X135286677Y-118467287D02*
X134636677Y-118467287D01*
X129746677Y-118467287D02*
X130396677Y-118467287D01*
X133916677Y-119587287D02*
X133916677Y-117347287D01*
X133796677Y-119587287D02*
X133796677Y-117347287D01*
X134036677Y-119587287D02*
X134036677Y-117347287D01*
X170163579Y-117347287D02*
X170163579Y-119587287D01*
X170163579Y-119587287D02*
X174403579Y-119587287D01*
X174403579Y-119587287D02*
X174403579Y-117347287D01*
X174403579Y-117347287D02*
X170163579Y-117347287D01*
X169513579Y-118467287D02*
X170163579Y-118467287D01*
X175053579Y-118467287D02*
X174403579Y-118467287D01*
X170883579Y-117347287D02*
X170883579Y-119587287D01*
X171003579Y-117347287D02*
X171003579Y-119587287D01*
X170763579Y-117347287D02*
X170763579Y-119587287D01*
X172544831Y-66745682D02*
X172544831Y-68985682D01*
X172544831Y-68985682D02*
X176784831Y-68985682D01*
X176784831Y-68985682D02*
X176784831Y-66745682D01*
X176784831Y-66745682D02*
X172544831Y-66745682D01*
X171894831Y-67865682D02*
X172544831Y-67865682D01*
X177434831Y-67865682D02*
X176784831Y-67865682D01*
X173264831Y-66745682D02*
X173264831Y-68985682D01*
X173384831Y-66745682D02*
X173384831Y-68985682D01*
X173144831Y-66745682D02*
X173144831Y-68985682D01*
X131655425Y-74938812D02*
X131655425Y-72698812D01*
X131415425Y-74938812D02*
X131415425Y-72698812D01*
X131535425Y-74938812D02*
X131535425Y-72698812D01*
X127365425Y-73818812D02*
X128015425Y-73818812D01*
X132905425Y-73818812D02*
X132255425Y-73818812D01*
X128015425Y-74938812D02*
X132255425Y-74938812D01*
X128015425Y-72698812D02*
X128015425Y-74938812D01*
X132255425Y-72698812D02*
X128015425Y-72698812D01*
X132255425Y-74938812D02*
X132255425Y-72698812D01*
X148412311Y-127992295D02*
G75*
G03X148412311Y-127992295I-2120000J0D01*
G01*
X146292311Y-127152295D02*
X146292311Y-125912295D01*
X146292311Y-130072295D02*
X146292311Y-128832295D01*
X146252311Y-127152295D02*
X146252311Y-125912295D01*
X146252311Y-130072295D02*
X146252311Y-128832295D01*
X146212311Y-127152295D02*
X146212311Y-125913295D01*
X146212311Y-130071295D02*
X146212311Y-128832295D01*
X146172311Y-130069295D02*
X146172311Y-128832295D01*
X146172311Y-127152295D02*
X146172311Y-125915295D01*
X146132311Y-130066295D02*
X146132311Y-128832295D01*
X146132311Y-127152295D02*
X146132311Y-125918295D01*
X146092311Y-130063295D02*
X146092311Y-128832295D01*
X146092311Y-127152295D02*
X146092311Y-125921295D01*
X146052311Y-130059295D02*
X146052311Y-128832295D01*
X146052311Y-127152295D02*
X146052311Y-125925295D01*
X146012311Y-130054295D02*
X146012311Y-128832295D01*
X146012311Y-127152295D02*
X146012311Y-125930295D01*
X145972311Y-130048295D02*
X145972311Y-128832295D01*
X145972311Y-127152295D02*
X145972311Y-125936295D01*
X145932311Y-130042295D02*
X145932311Y-128832295D01*
X145932311Y-127152295D02*
X145932311Y-125942295D01*
X145892311Y-130034295D02*
X145892311Y-128832295D01*
X145892311Y-127152295D02*
X145892311Y-125950295D01*
X145852311Y-130026295D02*
X145852311Y-128832295D01*
X145852311Y-127152295D02*
X145852311Y-125958295D01*
X145812311Y-130017295D02*
X145812311Y-128832295D01*
X145812311Y-127152295D02*
X145812311Y-125967295D01*
X145772311Y-130008295D02*
X145772311Y-128832295D01*
X145772311Y-127152295D02*
X145772311Y-125976295D01*
X145732311Y-129997295D02*
X145732311Y-128832295D01*
X145732311Y-127152295D02*
X145732311Y-125987295D01*
X145692311Y-129986295D02*
X145692311Y-128832295D01*
X145692311Y-127152295D02*
X145692311Y-125998295D01*
X145652311Y-129974295D02*
X145652311Y-128832295D01*
X145652311Y-127152295D02*
X145652311Y-126010295D01*
X145612311Y-129960295D02*
X145612311Y-128832295D01*
X145612311Y-127152295D02*
X145612311Y-126024295D01*
X145571311Y-129946295D02*
X145571311Y-128832295D01*
X145571311Y-127152295D02*
X145571311Y-126038295D01*
X145531311Y-129932295D02*
X145531311Y-128832295D01*
X145531311Y-127152295D02*
X145531311Y-126052295D01*
X145491311Y-129916295D02*
X145491311Y-128832295D01*
X145491311Y-127152295D02*
X145491311Y-126068295D01*
X145451311Y-129899295D02*
X145451311Y-128832295D01*
X145451311Y-127152295D02*
X145451311Y-126085295D01*
X145411311Y-129881295D02*
X145411311Y-128832295D01*
X145411311Y-127152295D02*
X145411311Y-126103295D01*
X145371311Y-129862295D02*
X145371311Y-128832295D01*
X145371311Y-127152295D02*
X145371311Y-126122295D01*
X145331311Y-129843295D02*
X145331311Y-128832295D01*
X145331311Y-127152295D02*
X145331311Y-126141295D01*
X145291311Y-129822295D02*
X145291311Y-128832295D01*
X145291311Y-127152295D02*
X145291311Y-126162295D01*
X145251311Y-129800295D02*
X145251311Y-128832295D01*
X145251311Y-127152295D02*
X145251311Y-126184295D01*
X145211311Y-129777295D02*
X145211311Y-128832295D01*
X145211311Y-127152295D02*
X145211311Y-126207295D01*
X145171311Y-129752295D02*
X145171311Y-128832295D01*
X145171311Y-127152295D02*
X145171311Y-126232295D01*
X145131311Y-129727295D02*
X145131311Y-128832295D01*
X145131311Y-127152295D02*
X145131311Y-126257295D01*
X145091311Y-129700295D02*
X145091311Y-128832295D01*
X145091311Y-127152295D02*
X145091311Y-126284295D01*
X145051311Y-129672295D02*
X145051311Y-128832295D01*
X145051311Y-127152295D02*
X145051311Y-126312295D01*
X145011311Y-129642295D02*
X145011311Y-128832295D01*
X145011311Y-127152295D02*
X145011311Y-126342295D01*
X144971311Y-129611295D02*
X144971311Y-128832295D01*
X144971311Y-127152295D02*
X144971311Y-126373295D01*
X144931311Y-129579295D02*
X144931311Y-128832295D01*
X144931311Y-127152295D02*
X144931311Y-126405295D01*
X144891311Y-129544295D02*
X144891311Y-128832295D01*
X144891311Y-127152295D02*
X144891311Y-126440295D01*
X144851311Y-129508295D02*
X144851311Y-128832295D01*
X144851311Y-127152295D02*
X144851311Y-126476295D01*
X144811311Y-129470295D02*
X144811311Y-128832295D01*
X144811311Y-127152295D02*
X144811311Y-126514295D01*
X144771311Y-129430295D02*
X144771311Y-128832295D01*
X144771311Y-127152295D02*
X144771311Y-126554295D01*
X144731311Y-129388295D02*
X144731311Y-128832295D01*
X144731311Y-127152295D02*
X144731311Y-126596295D01*
X144691311Y-129343295D02*
X144691311Y-126641295D01*
X144651311Y-129296295D02*
X144651311Y-126688295D01*
X144611311Y-129246295D02*
X144611311Y-126738295D01*
X144571311Y-129192295D02*
X144571311Y-126792295D01*
X144531311Y-129134295D02*
X144531311Y-126850295D01*
X144491311Y-129072295D02*
X144491311Y-126912295D01*
X144451311Y-129005295D02*
X144451311Y-126979295D01*
X144411311Y-128932295D02*
X144411311Y-127052295D01*
X144371311Y-128851295D02*
X144371311Y-127133295D01*
X144331311Y-128760295D02*
X144331311Y-127224295D01*
X144291311Y-128656295D02*
X144291311Y-127328295D01*
X144251311Y-128529295D02*
X144251311Y-127455295D01*
X144211311Y-128362295D02*
X144211311Y-127622295D01*
X148562112Y-129187295D02*
X148162112Y-129187295D01*
X148362112Y-129387295D02*
X148362112Y-128987295D01*
X155964510Y-125731669D02*
X160504510Y-125731669D01*
X155964510Y-127871669D02*
X160504510Y-127871669D01*
X155964510Y-125731669D02*
X155964510Y-125746669D01*
X155964510Y-127856669D02*
X155964510Y-127871669D01*
X160504510Y-125731669D02*
X160504510Y-125746669D01*
X160504510Y-127856669D02*
X160504510Y-127871669D01*
X160504510Y-130833234D02*
X160504510Y-130848234D01*
X160504510Y-128708234D02*
X160504510Y-128723234D01*
X155964510Y-130833234D02*
X155964510Y-130848234D01*
X155964510Y-128708234D02*
X155964510Y-128723234D01*
X155964510Y-130848234D02*
X160504510Y-130848234D01*
X155964510Y-128708234D02*
X160504510Y-128708234D01*
X143145746Y-94680454D02*
X143145746Y-95938454D01*
X144985746Y-94680454D02*
X144985746Y-95938454D01*
X144985746Y-89322637D02*
X144985746Y-90580637D01*
X143145746Y-89322637D02*
X143145746Y-90580637D01*
X150475746Y-84078507D02*
X150475746Y-78878507D01*
X145335746Y-84078507D02*
X150475746Y-84078507D01*
X142735746Y-78878507D02*
X150475746Y-78878507D01*
X145335746Y-84078507D02*
X145335746Y-81478507D01*
X145335746Y-81478507D02*
X142735746Y-81478507D01*
X142735746Y-81478507D02*
X142735746Y-78878507D01*
X144065746Y-84078507D02*
X142735746Y-84078507D01*
X142735746Y-84078507D02*
X142735746Y-82748507D01*
X156601549Y-64777099D02*
G75*
G03X159833884Y-64934007I1672335J1078608D01*
G01*
X156601549Y-62619883D02*
G75*
G02X159833884Y-62462975I1672335J-1078608D01*
G01*
X157232754Y-64778328D02*
G75*
G03X159314845Y-64778491I1041130J1079837D01*
G01*
X157232754Y-62618654D02*
G75*
G02X159314845Y-62618491I1041130J-1079837D01*
G01*
X159833884Y-64934491D02*
X159833884Y-64778491D01*
X159833884Y-62618491D02*
X159833884Y-62462491D01*
X149565746Y-74604751D02*
X149565746Y-70104751D01*
X145565746Y-75854751D02*
X147065746Y-75854751D01*
X143065746Y-70104751D02*
X143065746Y-74604751D01*
X147065746Y-68854751D02*
X145565746Y-68854751D01*
X147065746Y-100406340D02*
X145565746Y-100406340D01*
X143065746Y-101656340D02*
X143065746Y-106156340D01*
X145565746Y-107406340D02*
X147065746Y-107406340D01*
X149565746Y-106156340D02*
X149565746Y-101656340D01*
X151353250Y-89132263D02*
X151353250Y-95532263D01*
X146303250Y-89132263D02*
X146303250Y-95532263D01*
X146303250Y-89132263D02*
G75*
G02X151353250Y-89132263I2525000J0D01*
G01*
X146303250Y-95532263D02*
G75*
G03X151353250Y-95532263I2525000J0D01*
G01*
X159591380Y-67726308D02*
G75*
G02X157591380Y-67726308I-1000000J0D01*
G01*
X157591380Y-67726308D02*
X155941380Y-67726308D01*
X155941380Y-67726308D02*
X155941380Y-103406308D01*
X155941380Y-103406308D02*
X161241380Y-103406308D01*
X161241380Y-103406308D02*
X161241380Y-67726308D01*
X161241380Y-67726308D02*
X159591380Y-67726308D01*
X156590449Y-120323852D02*
X156590449Y-122563852D01*
X156590449Y-122563852D02*
X160830449Y-122563852D01*
X160830449Y-122563852D02*
X160830449Y-120323852D01*
X160830449Y-120323852D02*
X156590449Y-120323852D01*
X155940449Y-121443852D02*
X156590449Y-121443852D01*
X161480449Y-121443852D02*
X160830449Y-121443852D01*
X157310449Y-120323852D02*
X157310449Y-122563852D01*
X157430449Y-120323852D02*
X157430449Y-122563852D01*
X157190449Y-120323852D02*
X157190449Y-122563852D01*
X157190449Y-117347287D02*
X157190449Y-119587287D01*
X157430449Y-117347287D02*
X157430449Y-119587287D01*
X157310449Y-117347287D02*
X157310449Y-119587287D01*
X161480449Y-118467287D02*
X160830449Y-118467287D01*
X155940449Y-118467287D02*
X156590449Y-118467287D01*
X160830449Y-117347287D02*
X156590449Y-117347287D01*
X160830449Y-119587287D02*
X160830449Y-117347287D01*
X156590449Y-119587287D02*
X160830449Y-119587287D01*
X156590449Y-117347287D02*
X156590449Y-119587287D01*
X134636677Y-66009117D02*
X134636677Y-63769117D01*
X134636677Y-63769117D02*
X130396677Y-63769117D01*
X130396677Y-63769117D02*
X130396677Y-66009117D01*
X130396677Y-66009117D02*
X134636677Y-66009117D01*
X135286677Y-64889117D02*
X134636677Y-64889117D01*
X129746677Y-64889117D02*
X130396677Y-64889117D01*
X133916677Y-66009117D02*
X133916677Y-63769117D01*
X133796677Y-66009117D02*
X133796677Y-63769117D01*
X134036677Y-66009117D02*
X134036677Y-63769117D01*
X132255425Y-68985682D02*
X132255425Y-66745682D01*
X132255425Y-66745682D02*
X128015425Y-66745682D01*
X128015425Y-66745682D02*
X128015425Y-68985682D01*
X128015425Y-68985682D02*
X132255425Y-68985682D01*
X132905425Y-67865682D02*
X132255425Y-67865682D01*
X127365425Y-67865682D02*
X128015425Y-67865682D01*
X131535425Y-68985682D02*
X131535425Y-66745682D01*
X131415425Y-68985682D02*
X131415425Y-66745682D01*
X131655425Y-68985682D02*
X131655425Y-66745682D01*
X134036677Y-71962247D02*
X134036677Y-69722247D01*
X133796677Y-71962247D02*
X133796677Y-69722247D01*
X133916677Y-71962247D02*
X133916677Y-69722247D01*
X129746677Y-70842247D02*
X130396677Y-70842247D01*
X135286677Y-70842247D02*
X134636677Y-70842247D01*
X130396677Y-71962247D02*
X134636677Y-71962247D01*
X130396677Y-69722247D02*
X130396677Y-71962247D01*
X134636677Y-69722247D02*
X130396677Y-69722247D01*
X134636677Y-71962247D02*
X134636677Y-69722247D01*
X134636677Y-77915377D02*
X134636677Y-75675377D01*
X134636677Y-75675377D02*
X130396677Y-75675377D01*
X130396677Y-75675377D02*
X130396677Y-77915377D01*
X130396677Y-77915377D02*
X134636677Y-77915377D01*
X135286677Y-76795377D02*
X134636677Y-76795377D01*
X129746677Y-76795377D02*
X130396677Y-76795377D01*
X133916677Y-77915377D02*
X133916677Y-75675377D01*
X133796677Y-77915377D02*
X133796677Y-75675377D01*
X134036677Y-77915377D02*
X134036677Y-75675377D01*
X170163579Y-63769117D02*
X170163579Y-66009117D01*
X170163579Y-66009117D02*
X174403579Y-66009117D01*
X174403579Y-66009117D02*
X174403579Y-63769117D01*
X174403579Y-63769117D02*
X170163579Y-63769117D01*
X169513579Y-64889117D02*
X170163579Y-64889117D01*
X175053579Y-64889117D02*
X174403579Y-64889117D01*
X170883579Y-63769117D02*
X170883579Y-66009117D01*
X171003579Y-63769117D02*
X171003579Y-66009117D01*
X170763579Y-63769117D02*
X170763579Y-66009117D01*
X170763579Y-69722247D02*
X170763579Y-71962247D01*
X171003579Y-69722247D02*
X171003579Y-71962247D01*
X170883579Y-69722247D02*
X170883579Y-71962247D01*
X175053579Y-70842247D02*
X174403579Y-70842247D01*
X169513579Y-70842247D02*
X170163579Y-70842247D01*
X174403579Y-69722247D02*
X170163579Y-69722247D01*
X174403579Y-71962247D02*
X174403579Y-69722247D01*
X170163579Y-71962247D02*
X174403579Y-71962247D01*
X170163579Y-69722247D02*
X170163579Y-71962247D01*
X172544831Y-72698812D02*
X172544831Y-74938812D01*
X172544831Y-74938812D02*
X176784831Y-74938812D01*
X176784831Y-74938812D02*
X176784831Y-72698812D01*
X176784831Y-72698812D02*
X172544831Y-72698812D01*
X171894831Y-73818812D02*
X172544831Y-73818812D01*
X177434831Y-73818812D02*
X176784831Y-73818812D01*
X173264831Y-72698812D02*
X173264831Y-74938812D01*
X173384831Y-72698812D02*
X173384831Y-74938812D01*
X173144831Y-72698812D02*
X173144831Y-74938812D01*
X134636677Y-83868507D02*
X134636677Y-81628507D01*
X134636677Y-81628507D02*
X130396677Y-81628507D01*
X130396677Y-81628507D02*
X130396677Y-83868507D01*
X130396677Y-83868507D02*
X134636677Y-83868507D01*
X135286677Y-82748507D02*
X134636677Y-82748507D01*
X129746677Y-82748507D02*
X130396677Y-82748507D01*
X133916677Y-83868507D02*
X133916677Y-81628507D01*
X133796677Y-83868507D02*
X133796677Y-81628507D01*
X134036677Y-83868507D02*
X134036677Y-81628507D01*
X132255425Y-86845072D02*
X132255425Y-84605072D01*
X132255425Y-84605072D02*
X128015425Y-84605072D01*
X128015425Y-84605072D02*
X128015425Y-86845072D01*
X128015425Y-86845072D02*
X132255425Y-86845072D01*
X132905425Y-85725072D02*
X132255425Y-85725072D01*
X127365425Y-85725072D02*
X128015425Y-85725072D01*
X131535425Y-86845072D02*
X131535425Y-84605072D01*
X131415425Y-86845072D02*
X131415425Y-84605072D01*
X131655425Y-86845072D02*
X131655425Y-84605072D01*
X134036677Y-89821637D02*
X134036677Y-87581637D01*
X133796677Y-89821637D02*
X133796677Y-87581637D01*
X133916677Y-89821637D02*
X133916677Y-87581637D01*
X129746677Y-88701637D02*
X130396677Y-88701637D01*
X135286677Y-88701637D02*
X134636677Y-88701637D01*
X130396677Y-89821637D02*
X134636677Y-89821637D01*
X130396677Y-87581637D02*
X130396677Y-89821637D01*
X134636677Y-87581637D02*
X130396677Y-87581637D01*
X134636677Y-89821637D02*
X134636677Y-87581637D01*
X131655425Y-92798202D02*
X131655425Y-90558202D01*
X131415425Y-92798202D02*
X131415425Y-90558202D01*
X131535425Y-92798202D02*
X131535425Y-90558202D01*
X127365425Y-91678202D02*
X128015425Y-91678202D01*
X132905425Y-91678202D02*
X132255425Y-91678202D01*
X128015425Y-92798202D02*
X132255425Y-92798202D01*
X128015425Y-90558202D02*
X128015425Y-92798202D01*
X132255425Y-90558202D02*
X128015425Y-90558202D01*
X132255425Y-92798202D02*
X132255425Y-90558202D01*
X132255425Y-80891942D02*
X132255425Y-78651942D01*
X132255425Y-78651942D02*
X128015425Y-78651942D01*
X128015425Y-78651942D02*
X128015425Y-80891942D01*
X128015425Y-80891942D02*
X132255425Y-80891942D01*
X132905425Y-79771942D02*
X132255425Y-79771942D01*
X127365425Y-79771942D02*
X128015425Y-79771942D01*
X131535425Y-80891942D02*
X131535425Y-78651942D01*
X131415425Y-80891942D02*
X131415425Y-78651942D01*
X131655425Y-80891942D02*
X131655425Y-78651942D01*
X170763579Y-81628507D02*
X170763579Y-83868507D01*
X171003579Y-81628507D02*
X171003579Y-83868507D01*
X170883579Y-81628507D02*
X170883579Y-83868507D01*
X175053579Y-82748507D02*
X174403579Y-82748507D01*
X169513579Y-82748507D02*
X170163579Y-82748507D01*
X174403579Y-81628507D02*
X170163579Y-81628507D01*
X174403579Y-83868507D02*
X174403579Y-81628507D01*
X170163579Y-83868507D02*
X174403579Y-83868507D01*
X170163579Y-81628507D02*
X170163579Y-83868507D01*
X172544831Y-84605072D02*
X172544831Y-86845072D01*
X172544831Y-86845072D02*
X176784831Y-86845072D01*
X176784831Y-86845072D02*
X176784831Y-84605072D01*
X176784831Y-84605072D02*
X172544831Y-84605072D01*
X171894831Y-85725072D02*
X172544831Y-85725072D01*
X177434831Y-85725072D02*
X176784831Y-85725072D01*
X173264831Y-84605072D02*
X173264831Y-86845072D01*
X173384831Y-84605072D02*
X173384831Y-86845072D01*
X173144831Y-84605072D02*
X173144831Y-86845072D01*
X170163579Y-87581637D02*
X170163579Y-89821637D01*
X170163579Y-89821637D02*
X174403579Y-89821637D01*
X174403579Y-89821637D02*
X174403579Y-87581637D01*
X174403579Y-87581637D02*
X170163579Y-87581637D01*
X169513579Y-88701637D02*
X170163579Y-88701637D01*
X175053579Y-88701637D02*
X174403579Y-88701637D01*
X170883579Y-87581637D02*
X170883579Y-89821637D01*
X171003579Y-87581637D02*
X171003579Y-89821637D01*
X170763579Y-87581637D02*
X170763579Y-89821637D01*
X172544831Y-90558202D02*
X172544831Y-92798202D01*
X172544831Y-92798202D02*
X176784831Y-92798202D01*
X176784831Y-92798202D02*
X176784831Y-90558202D01*
X176784831Y-90558202D02*
X172544831Y-90558202D01*
X171894831Y-91678202D02*
X172544831Y-91678202D01*
X177434831Y-91678202D02*
X176784831Y-91678202D01*
X173264831Y-90558202D02*
X173264831Y-92798202D01*
X173384831Y-90558202D02*
X173384831Y-92798202D01*
X173144831Y-90558202D02*
X173144831Y-92798202D01*
X131655425Y-101727897D02*
X131655425Y-99487897D01*
X131415425Y-101727897D02*
X131415425Y-99487897D01*
X131535425Y-101727897D02*
X131535425Y-99487897D01*
X127365425Y-100607897D02*
X128015425Y-100607897D01*
X132905425Y-100607897D02*
X132255425Y-100607897D01*
X128015425Y-101727897D02*
X132255425Y-101727897D01*
X128015425Y-99487897D02*
X128015425Y-101727897D01*
X132255425Y-99487897D02*
X128015425Y-99487897D01*
X132255425Y-101727897D02*
X132255425Y-99487897D01*
X131655425Y-104704462D02*
X131655425Y-102464462D01*
X131415425Y-104704462D02*
X131415425Y-102464462D01*
X131535425Y-104704462D02*
X131535425Y-102464462D01*
X127365425Y-103584462D02*
X128015425Y-103584462D01*
X132905425Y-103584462D02*
X132255425Y-103584462D01*
X128015425Y-104704462D02*
X132255425Y-104704462D01*
X128015425Y-102464462D02*
X128015425Y-104704462D01*
X132255425Y-102464462D02*
X128015425Y-102464462D01*
X132255425Y-104704462D02*
X132255425Y-102464462D01*
X134036677Y-107681027D02*
X134036677Y-105441027D01*
X133796677Y-107681027D02*
X133796677Y-105441027D01*
X133916677Y-107681027D02*
X133916677Y-105441027D01*
X129746677Y-106561027D02*
X130396677Y-106561027D01*
X135286677Y-106561027D02*
X134636677Y-106561027D01*
X130396677Y-107681027D02*
X134636677Y-107681027D01*
X130396677Y-105441027D02*
X130396677Y-107681027D01*
X134636677Y-105441027D02*
X130396677Y-105441027D01*
X134636677Y-107681027D02*
X134636677Y-105441027D01*
X134636677Y-95774767D02*
X134636677Y-93534767D01*
X134636677Y-93534767D02*
X130396677Y-93534767D01*
X130396677Y-93534767D02*
X130396677Y-95774767D01*
X130396677Y-95774767D02*
X134636677Y-95774767D01*
X135286677Y-94654767D02*
X134636677Y-94654767D01*
X129746677Y-94654767D02*
X130396677Y-94654767D01*
X133916677Y-95774767D02*
X133916677Y-93534767D01*
X133796677Y-95774767D02*
X133796677Y-93534767D01*
X134036677Y-95774767D02*
X134036677Y-93534767D01*
X132255425Y-98751332D02*
X132255425Y-96511332D01*
X132255425Y-96511332D02*
X128015425Y-96511332D01*
X128015425Y-96511332D02*
X128015425Y-98751332D01*
X128015425Y-98751332D02*
X132255425Y-98751332D01*
X132905425Y-97631332D02*
X132255425Y-97631332D01*
X127365425Y-97631332D02*
X128015425Y-97631332D01*
X131535425Y-98751332D02*
X131535425Y-96511332D01*
X131415425Y-98751332D02*
X131415425Y-96511332D01*
X131655425Y-98751332D02*
X131655425Y-96511332D01*
X170163579Y-99487897D02*
X170163579Y-101727897D01*
X170163579Y-101727897D02*
X174403579Y-101727897D01*
X174403579Y-101727897D02*
X174403579Y-99487897D01*
X174403579Y-99487897D02*
X170163579Y-99487897D01*
X169513579Y-100607897D02*
X170163579Y-100607897D01*
X175053579Y-100607897D02*
X174403579Y-100607897D01*
X170883579Y-99487897D02*
X170883579Y-101727897D01*
X171003579Y-99487897D02*
X171003579Y-101727897D01*
X170763579Y-99487897D02*
X170763579Y-101727897D01*
X172544831Y-102464462D02*
X172544831Y-104704462D01*
X172544831Y-104704462D02*
X176784831Y-104704462D01*
X176784831Y-104704462D02*
X176784831Y-102464462D01*
X176784831Y-102464462D02*
X172544831Y-102464462D01*
X171894831Y-103584462D02*
X172544831Y-103584462D01*
X177434831Y-103584462D02*
X176784831Y-103584462D01*
X173264831Y-102464462D02*
X173264831Y-104704462D01*
X173384831Y-102464462D02*
X173384831Y-104704462D01*
X173144831Y-102464462D02*
X173144831Y-104704462D01*
X170163579Y-105441027D02*
X170163579Y-107681027D01*
X170163579Y-107681027D02*
X174403579Y-107681027D01*
X174403579Y-107681027D02*
X174403579Y-105441027D01*
X174403579Y-105441027D02*
X170163579Y-105441027D01*
X169513579Y-106561027D02*
X170163579Y-106561027D01*
X175053579Y-106561027D02*
X174403579Y-106561027D01*
X170883579Y-105441027D02*
X170883579Y-107681027D01*
X171003579Y-105441027D02*
X171003579Y-107681027D01*
X170763579Y-105441027D02*
X170763579Y-107681027D01*
X170163579Y-93534767D02*
X170163579Y-95774767D01*
X170163579Y-95774767D02*
X174403579Y-95774767D01*
X174403579Y-95774767D02*
X174403579Y-93534767D01*
X174403579Y-93534767D02*
X170163579Y-93534767D01*
X169513579Y-94654767D02*
X170163579Y-94654767D01*
X175053579Y-94654767D02*
X174403579Y-94654767D01*
X170883579Y-93534767D02*
X170883579Y-95774767D01*
X171003579Y-93534767D02*
X171003579Y-95774767D01*
X170763579Y-93534767D02*
X170763579Y-95774767D01*
X131655425Y-122563852D02*
X131655425Y-120323852D01*
X131415425Y-122563852D02*
X131415425Y-120323852D01*
X131535425Y-122563852D02*
X131535425Y-120323852D01*
X127365425Y-121443852D02*
X128015425Y-121443852D01*
X132905425Y-121443852D02*
X132255425Y-121443852D01*
X128015425Y-122563852D02*
X132255425Y-122563852D01*
X128015425Y-120323852D02*
X128015425Y-122563852D01*
X132255425Y-120323852D02*
X128015425Y-120323852D01*
X132255425Y-122563852D02*
X132255425Y-120323852D01*
X131655425Y-110657592D02*
X131655425Y-108417592D01*
X131415425Y-110657592D02*
X131415425Y-108417592D01*
X131535425Y-110657592D02*
X131535425Y-108417592D01*
X127365425Y-109537592D02*
X128015425Y-109537592D01*
X132905425Y-109537592D02*
X132255425Y-109537592D01*
X128015425Y-110657592D02*
X132255425Y-110657592D01*
X128015425Y-108417592D02*
X128015425Y-110657592D01*
X132255425Y-108417592D02*
X128015425Y-108417592D01*
X132255425Y-110657592D02*
X132255425Y-108417592D01*
X134636677Y-113634157D02*
X134636677Y-111394157D01*
X134636677Y-111394157D02*
X130396677Y-111394157D01*
X130396677Y-111394157D02*
X130396677Y-113634157D01*
X130396677Y-113634157D02*
X134636677Y-113634157D01*
X135286677Y-112514157D02*
X134636677Y-112514157D01*
X129746677Y-112514157D02*
X130396677Y-112514157D01*
X133916677Y-113634157D02*
X133916677Y-111394157D01*
X133796677Y-113634157D02*
X133796677Y-111394157D01*
X134036677Y-113634157D02*
X134036677Y-111394157D01*
X132255425Y-116610722D02*
X132255425Y-114370722D01*
X132255425Y-114370722D02*
X128015425Y-114370722D01*
X128015425Y-114370722D02*
X128015425Y-116610722D01*
X128015425Y-116610722D02*
X132255425Y-116610722D01*
X132905425Y-115490722D02*
X132255425Y-115490722D01*
X127365425Y-115490722D02*
X128015425Y-115490722D01*
X131535425Y-116610722D02*
X131535425Y-114370722D01*
X131415425Y-116610722D02*
X131415425Y-114370722D01*
X131655425Y-116610722D02*
X131655425Y-114370722D01*
X172544831Y-120323852D02*
X172544831Y-122563852D01*
X172544831Y-122563852D02*
X176784831Y-122563852D01*
X176784831Y-122563852D02*
X176784831Y-120323852D01*
X176784831Y-120323852D02*
X172544831Y-120323852D01*
X171894831Y-121443852D02*
X172544831Y-121443852D01*
X177434831Y-121443852D02*
X176784831Y-121443852D01*
X173264831Y-120323852D02*
X173264831Y-122563852D01*
X173384831Y-120323852D02*
X173384831Y-122563852D01*
X173144831Y-120323852D02*
X173144831Y-122563852D01*
X172544831Y-108417592D02*
X172544831Y-110657592D01*
X172544831Y-110657592D02*
X176784831Y-110657592D01*
X176784831Y-110657592D02*
X176784831Y-108417592D01*
X176784831Y-108417592D02*
X172544831Y-108417592D01*
X171894831Y-109537592D02*
X172544831Y-109537592D01*
X177434831Y-109537592D02*
X176784831Y-109537592D01*
X173264831Y-108417592D02*
X173264831Y-110657592D01*
X173384831Y-108417592D02*
X173384831Y-110657592D01*
X173144831Y-108417592D02*
X173144831Y-110657592D01*
X170163579Y-111394157D02*
X170163579Y-113634157D01*
X170163579Y-113634157D02*
X174403579Y-113634157D01*
X174403579Y-113634157D02*
X174403579Y-111394157D01*
X174403579Y-111394157D02*
X170163579Y-111394157D01*
X169513579Y-112514157D02*
X170163579Y-112514157D01*
X175053579Y-112514157D02*
X174403579Y-112514157D01*
X170883579Y-111394157D02*
X170883579Y-113634157D01*
X171003579Y-111394157D02*
X171003579Y-113634157D01*
X170763579Y-111394157D02*
X170763579Y-113634157D01*
X136851364Y-139211990D02*
X134611364Y-139211990D01*
X136851364Y-139451990D02*
X134611364Y-139451990D01*
X136851364Y-139331990D02*
X134611364Y-139331990D01*
X135731364Y-143501990D02*
X135731364Y-142851990D01*
X135731364Y-137961990D02*
X135731364Y-138611990D01*
X136851364Y-142851990D02*
X136851364Y-138611990D01*
X134611364Y-142851990D02*
X136851364Y-142851990D01*
X134611364Y-138611990D02*
X134611364Y-142851990D01*
X136851364Y-138611990D02*
X134611364Y-138611990D01*
X134036677Y-125540417D02*
X134036677Y-123300417D01*
X133796677Y-125540417D02*
X133796677Y-123300417D01*
X133916677Y-125540417D02*
X133916677Y-123300417D01*
X129746677Y-124420417D02*
X130396677Y-124420417D01*
X135286677Y-124420417D02*
X134636677Y-124420417D01*
X130396677Y-125540417D02*
X134636677Y-125540417D01*
X130396677Y-123300417D02*
X130396677Y-125540417D01*
X134636677Y-123300417D02*
X130396677Y-123300417D01*
X134636677Y-125540417D02*
X134636677Y-123300417D01*
X131655425Y-128516982D02*
X131655425Y-126276982D01*
X131415425Y-128516982D02*
X131415425Y-126276982D01*
X131535425Y-128516982D02*
X131535425Y-126276982D01*
X127365425Y-127396982D02*
X128015425Y-127396982D01*
X132905425Y-127396982D02*
X132255425Y-127396982D01*
X128015425Y-128516982D02*
X132255425Y-128516982D01*
X128015425Y-126276982D02*
X128015425Y-128516982D01*
X132255425Y-126276982D02*
X128015425Y-126276982D01*
X132255425Y-128516982D02*
X132255425Y-126276982D01*
X134036677Y-131493547D02*
X134036677Y-129253547D01*
X133796677Y-131493547D02*
X133796677Y-129253547D01*
X133916677Y-131493547D02*
X133916677Y-129253547D01*
X129746677Y-130373547D02*
X130396677Y-130373547D01*
X135286677Y-130373547D02*
X134636677Y-130373547D01*
X130396677Y-131493547D02*
X134636677Y-131493547D01*
X130396677Y-129253547D02*
X130396677Y-131493547D01*
X134636677Y-129253547D02*
X130396677Y-129253547D01*
X134636677Y-131493547D02*
X134636677Y-129253547D01*
X170188892Y-139211990D02*
X167948892Y-139211990D01*
X170188892Y-139451990D02*
X167948892Y-139451990D01*
X170188892Y-139331990D02*
X167948892Y-139331990D01*
X169068892Y-143501990D02*
X169068892Y-142851990D01*
X169068892Y-137961990D02*
X169068892Y-138611990D01*
X170188892Y-142851990D02*
X170188892Y-138611990D01*
X167948892Y-142851990D02*
X170188892Y-142851990D01*
X167948892Y-138611990D02*
X167948892Y-142851990D01*
X170188892Y-138611990D02*
X167948892Y-138611990D01*
X170763579Y-123300417D02*
X170763579Y-125540417D01*
X171003579Y-123300417D02*
X171003579Y-125540417D01*
X170883579Y-123300417D02*
X170883579Y-125540417D01*
X175053579Y-124420417D02*
X174403579Y-124420417D01*
X169513579Y-124420417D02*
X170163579Y-124420417D01*
X174403579Y-123300417D02*
X170163579Y-123300417D01*
X174403579Y-125540417D02*
X174403579Y-123300417D01*
X170163579Y-125540417D02*
X174403579Y-125540417D01*
X170163579Y-123300417D02*
X170163579Y-125540417D01*
X173144831Y-126276982D02*
X173144831Y-128516982D01*
X173384831Y-126276982D02*
X173384831Y-128516982D01*
X173264831Y-126276982D02*
X173264831Y-128516982D01*
X177434831Y-127396982D02*
X176784831Y-127396982D01*
X171894831Y-127396982D02*
X172544831Y-127396982D01*
X176784831Y-126276982D02*
X172544831Y-126276982D01*
X176784831Y-128516982D02*
X176784831Y-126276982D01*
X172544831Y-128516982D02*
X176784831Y-128516982D01*
X172544831Y-126276982D02*
X172544831Y-128516982D01*
X170763579Y-129253547D02*
X170763579Y-131493547D01*
X171003579Y-129253547D02*
X171003579Y-131493547D01*
X170883579Y-129253547D02*
X170883579Y-131493547D01*
X175053579Y-130373547D02*
X174403579Y-130373547D01*
X169513579Y-130373547D02*
X170163579Y-130373547D01*
X174403579Y-129253547D02*
X170163579Y-129253547D01*
X174403579Y-131493547D02*
X174403579Y-129253547D01*
X170163579Y-131493547D02*
X174403579Y-131493547D01*
X170163579Y-129253547D02*
X170163579Y-131493547D01*
X139827929Y-136230738D02*
X137587929Y-136230738D01*
X137587929Y-136230738D02*
X137587929Y-140470738D01*
X137587929Y-140470738D02*
X139827929Y-140470738D01*
X139827929Y-140470738D02*
X139827929Y-136230738D01*
X138707929Y-135580738D02*
X138707929Y-136230738D01*
X138707929Y-141120738D02*
X138707929Y-140470738D01*
X139827929Y-136950738D02*
X137587929Y-136950738D01*
X139827929Y-137070738D02*
X137587929Y-137070738D01*
X139827929Y-136830738D02*
X137587929Y-136830738D01*
X145781059Y-136230738D02*
X143541059Y-136230738D01*
X143541059Y-136230738D02*
X143541059Y-140470738D01*
X143541059Y-140470738D02*
X145781059Y-140470738D01*
X145781059Y-140470738D02*
X145781059Y-136230738D01*
X144661059Y-135580738D02*
X144661059Y-136230738D01*
X144661059Y-141120738D02*
X144661059Y-140470738D01*
X145781059Y-136950738D02*
X143541059Y-136950738D01*
X145781059Y-137070738D02*
X143541059Y-137070738D01*
X145781059Y-136830738D02*
X143541059Y-136830738D01*
X148757624Y-138611990D02*
X146517624Y-138611990D01*
X146517624Y-138611990D02*
X146517624Y-142851990D01*
X146517624Y-142851990D02*
X148757624Y-142851990D01*
X148757624Y-142851990D02*
X148757624Y-138611990D01*
X147637624Y-137961990D02*
X147637624Y-138611990D01*
X147637624Y-143501990D02*
X147637624Y-142851990D01*
X148757624Y-139331990D02*
X146517624Y-139331990D01*
X148757624Y-139451990D02*
X146517624Y-139451990D01*
X148757624Y-139211990D02*
X146517624Y-139211990D01*
X167212327Y-136230738D02*
X164972327Y-136230738D01*
X164972327Y-136230738D02*
X164972327Y-140470738D01*
X164972327Y-140470738D02*
X167212327Y-140470738D01*
X167212327Y-140470738D02*
X167212327Y-136230738D01*
X166092327Y-135580738D02*
X166092327Y-136230738D01*
X166092327Y-141120738D02*
X166092327Y-140470738D01*
X167212327Y-136950738D02*
X164972327Y-136950738D01*
X167212327Y-137070738D02*
X164972327Y-137070738D01*
X167212327Y-136830738D02*
X164972327Y-136830738D01*
X164235762Y-138611990D02*
X161995762Y-138611990D01*
X161995762Y-138611990D02*
X161995762Y-142851990D01*
X161995762Y-142851990D02*
X164235762Y-142851990D01*
X164235762Y-142851990D02*
X164235762Y-138611990D01*
X163115762Y-137961990D02*
X163115762Y-138611990D01*
X163115762Y-143501990D02*
X163115762Y-142851990D01*
X164235762Y-139331990D02*
X161995762Y-139331990D01*
X164235762Y-139451990D02*
X161995762Y-139451990D01*
X164235762Y-139211990D02*
X161995762Y-139211990D01*
X161259197Y-136230738D02*
X159019197Y-136230738D01*
X159019197Y-136230738D02*
X159019197Y-140470738D01*
X159019197Y-140470738D02*
X161259197Y-140470738D01*
X161259197Y-140470738D02*
X161259197Y-136230738D01*
X160139197Y-135580738D02*
X160139197Y-136230738D01*
X160139197Y-141120738D02*
X160139197Y-140470738D01*
X161259197Y-136950738D02*
X159019197Y-136950738D01*
X161259197Y-137070738D02*
X159019197Y-137070738D01*
X161259197Y-136830738D02*
X159019197Y-136830738D01*
X158282632Y-138611990D02*
X156042632Y-138611990D01*
X156042632Y-138611990D02*
X156042632Y-142851990D01*
X156042632Y-142851990D02*
X158282632Y-142851990D01*
X158282632Y-142851990D02*
X158282632Y-138611990D01*
X157162632Y-137961990D02*
X157162632Y-138611990D01*
X157162632Y-143501990D02*
X157162632Y-142851990D01*
X158282632Y-139331990D02*
X156042632Y-139331990D01*
X158282632Y-139451990D02*
X156042632Y-139451990D01*
X158282632Y-139211990D02*
X156042632Y-139211990D01*
X144854037Y-64777099D02*
G75*
G03X148086372Y-64934007I1672335J1078608D01*
G01*
X144854037Y-62619883D02*
G75*
G02X148086372Y-62462975I1672335J-1078608D01*
G01*
X145485242Y-64778328D02*
G75*
G03X147567333Y-64778491I1041130J1079837D01*
G01*
X145485242Y-62618654D02*
G75*
G02X147567333Y-62618491I1041130J-1079837D01*
G01*
X148086372Y-64934491D02*
X148086372Y-64778491D01*
X148086372Y-62618491D02*
X148086372Y-62462491D01*
X131655425Y-134470112D02*
X131655425Y-132230112D01*
X131415425Y-134470112D02*
X131415425Y-132230112D01*
X131535425Y-134470112D02*
X131535425Y-132230112D01*
X127365425Y-133350112D02*
X128015425Y-133350112D01*
X132905425Y-133350112D02*
X132255425Y-133350112D01*
X128015425Y-134470112D02*
X132255425Y-134470112D01*
X128015425Y-132230112D02*
X128015425Y-134470112D01*
X132255425Y-132230112D02*
X128015425Y-132230112D01*
X132255425Y-134470112D02*
X132255425Y-132230112D01*
X151734189Y-136230738D02*
X149494189Y-136230738D01*
X149494189Y-136230738D02*
X149494189Y-140470738D01*
X149494189Y-140470738D02*
X151734189Y-140470738D01*
X151734189Y-140470738D02*
X151734189Y-136230738D01*
X150614189Y-135580738D02*
X150614189Y-136230738D01*
X150614189Y-141120738D02*
X150614189Y-140470738D01*
X151734189Y-136950738D02*
X149494189Y-136950738D01*
X151734189Y-137070738D02*
X149494189Y-137070738D01*
X151734189Y-136830738D02*
X149494189Y-136830738D01*
X170763579Y-75675377D02*
X170763579Y-77915377D01*
X171003579Y-75675377D02*
X171003579Y-77915377D01*
X170883579Y-75675377D02*
X170883579Y-77915377D01*
X175053579Y-76795377D02*
X174403579Y-76795377D01*
X169513579Y-76795377D02*
X170163579Y-76795377D01*
X174403579Y-75675377D02*
X170163579Y-75675377D01*
X174403579Y-77915377D02*
X174403579Y-75675377D01*
X170163579Y-77915377D02*
X174403579Y-77915377D01*
X170163579Y-75675377D02*
X170163579Y-77915377D01*
X172544831Y-78651942D02*
X172544831Y-80891942D01*
X172544831Y-80891942D02*
X176784831Y-80891942D01*
X176784831Y-80891942D02*
X176784831Y-78651942D01*
X176784831Y-78651942D02*
X172544831Y-78651942D01*
X171894831Y-79771942D02*
X172544831Y-79771942D01*
X177434831Y-79771942D02*
X176784831Y-79771942D01*
X173264831Y-78651942D02*
X173264831Y-80891942D01*
X173384831Y-78651942D02*
X173384831Y-80891942D01*
X173144831Y-78651942D02*
X173144831Y-80891942D01*
X173144831Y-96511332D02*
X173144831Y-98751332D01*
X173384831Y-96511332D02*
X173384831Y-98751332D01*
X173264831Y-96511332D02*
X173264831Y-98751332D01*
X177434831Y-97631332D02*
X176784831Y-97631332D01*
X171894831Y-97631332D02*
X172544831Y-97631332D01*
X176784831Y-96511332D02*
X172544831Y-96511332D01*
X176784831Y-98751332D02*
X176784831Y-96511332D01*
X172544831Y-98751332D02*
X176784831Y-98751332D01*
X172544831Y-96511332D02*
X172544831Y-98751332D01*
X172544831Y-114370722D02*
X172544831Y-116610722D01*
X172544831Y-116610722D02*
X176784831Y-116610722D01*
X176784831Y-116610722D02*
X176784831Y-114370722D01*
X176784831Y-114370722D02*
X172544831Y-114370722D01*
X171894831Y-115490722D02*
X172544831Y-115490722D01*
X177434831Y-115490722D02*
X176784831Y-115490722D01*
X173264831Y-114370722D02*
X173264831Y-116610722D01*
X173384831Y-114370722D02*
X173384831Y-116610722D01*
X173144831Y-114370722D02*
X173144831Y-116610722D01*
X173144831Y-132230112D02*
X173144831Y-134470112D01*
X173384831Y-132230112D02*
X173384831Y-134470112D01*
X173264831Y-132230112D02*
X173264831Y-134470112D01*
X177434831Y-133350112D02*
X176784831Y-133350112D01*
X171894831Y-133350112D02*
X172544831Y-133350112D01*
X176784831Y-132230112D02*
X172544831Y-132230112D01*
X176784831Y-134470112D02*
X176784831Y-132230112D01*
X172544831Y-134470112D02*
X176784831Y-134470112D01*
X172544831Y-132230112D02*
X172544831Y-134470112D01*
X155306067Y-136230738D02*
X153066067Y-136230738D01*
X153066067Y-136230738D02*
X153066067Y-140470738D01*
X153066067Y-140470738D02*
X155306067Y-140470738D01*
X155306067Y-140470738D02*
X155306067Y-136230738D01*
X154186067Y-135580738D02*
X154186067Y-136230738D01*
X154186067Y-141120738D02*
X154186067Y-140470738D01*
X155306067Y-136950738D02*
X153066067Y-136950738D01*
X155306067Y-137070738D02*
X153066067Y-137070738D01*
X155306067Y-136830738D02*
X153066067Y-136830738D01*
X161461380Y-113704783D02*
X160511380Y-113704783D01*
X155721380Y-113704783D02*
X156671380Y-113704783D01*
X160511380Y-112784783D02*
X156671380Y-112784783D01*
X160511380Y-114624783D02*
X160511380Y-112784783D01*
X156671380Y-114624783D02*
X160511380Y-114624783D01*
X156671380Y-112784783D02*
X156671380Y-114624783D01*
X160511380Y-112243531D02*
X160511380Y-110403531D01*
X160511380Y-110403531D02*
X156671380Y-110403531D01*
X156671380Y-110403531D02*
X156671380Y-112243531D01*
X156671380Y-112243531D02*
X160511380Y-112243531D01*
X161461380Y-111323531D02*
X160511380Y-111323531D01*
X155721380Y-111323531D02*
X156671380Y-111323531D01*
X143338876Y-58340674D02*
X144288876Y-58340674D01*
X149078876Y-58340674D02*
X148128876Y-58340674D01*
X144288876Y-59260674D02*
X148128876Y-59260674D01*
X144288876Y-57420674D02*
X144288876Y-59260674D01*
X148128876Y-57420674D02*
X144288876Y-57420674D01*
X148128876Y-59260674D02*
X148128876Y-57420674D01*
X160511380Y-59260674D02*
X160511380Y-57420674D01*
X160511380Y-57420674D02*
X156671380Y-57420674D01*
X156671380Y-57420674D02*
X156671380Y-59260674D01*
X156671380Y-59260674D02*
X160511380Y-59260674D01*
X161461380Y-58340674D02*
X160511380Y-58340674D01*
X155721380Y-58340674D02*
X156671380Y-58340674D01*
D11*
X164758768Y-106727693D02*
X164282578Y-107061027D01*
X164758768Y-107299122D02*
X163758768Y-107299122D01*
X163758768Y-106918169D01*
X163806388Y-106822931D01*
X163854007Y-106775312D01*
X163949245Y-106727693D01*
X164092102Y-106727693D01*
X164187340Y-106775312D01*
X164234959Y-106822931D01*
X164282578Y-106918169D01*
X164282578Y-107299122D01*
X164092102Y-105870550D02*
X164758768Y-105870550D01*
X163711149Y-106108646D02*
X164425435Y-106346741D01*
X164425435Y-105727693D01*
X157877067Y-106922931D02*
X157419924Y-106922931D01*
X157648496Y-106922931D02*
X157648496Y-106122931D01*
X157572305Y-106237217D01*
X157496115Y-106313407D01*
X157419924Y-106351503D01*
X158372305Y-106122931D02*
X158448496Y-106122931D01*
X158524686Y-106161027D01*
X158562781Y-106199122D01*
X158600877Y-106275312D01*
X158638972Y-106427693D01*
X158638972Y-106618169D01*
X158600877Y-106770550D01*
X158562781Y-106846741D01*
X158524686Y-106884836D01*
X158448496Y-106922931D01*
X158372305Y-106922931D01*
X158296115Y-106884836D01*
X158258019Y-106846741D01*
X158219924Y-106770550D01*
X158181829Y-106618169D01*
X158181829Y-106427693D01*
X158219924Y-106275312D01*
X158258019Y-106199122D01*
X158296115Y-106161027D01*
X158372305Y-106122931D01*
X158981829Y-106922931D02*
X158981829Y-106122931D01*
X159058019Y-106618169D02*
X159286591Y-106922931D01*
X159286591Y-106389598D02*
X158981829Y-106694360D01*
X164758768Y-109108945D02*
X164282578Y-109442279D01*
X164758768Y-109680374D02*
X163758768Y-109680374D01*
X163758768Y-109299421D01*
X163806388Y-109204183D01*
X163854007Y-109156564D01*
X163949245Y-109108945D01*
X164092102Y-109108945D01*
X164187340Y-109156564D01*
X164234959Y-109204183D01*
X164282578Y-109299421D01*
X164282578Y-109680374D01*
X163758768Y-108775612D02*
X163758768Y-108156564D01*
X164139721Y-108489898D01*
X164139721Y-108347040D01*
X164187340Y-108251802D01*
X164234959Y-108204183D01*
X164330197Y-108156564D01*
X164568292Y-108156564D01*
X164663530Y-108204183D01*
X164711149Y-108251802D01*
X164758768Y-108347040D01*
X164758768Y-108632755D01*
X164711149Y-108727993D01*
X164663530Y-108775612D01*
X157305638Y-108504183D02*
X157838972Y-108504183D01*
X157496115Y-109304183D01*
X158524686Y-108504183D02*
X158143734Y-108504183D01*
X158105638Y-108885136D01*
X158143734Y-108847040D01*
X158219924Y-108808945D01*
X158410400Y-108808945D01*
X158486591Y-108847040D01*
X158524686Y-108885136D01*
X158562781Y-108961326D01*
X158562781Y-109151802D01*
X158524686Y-109227993D01*
X158486591Y-109266088D01*
X158410400Y-109304183D01*
X158219924Y-109304183D01*
X158143734Y-109266088D01*
X158105638Y-109227993D01*
X159362781Y-109304183D02*
X159096115Y-108923231D01*
X158905638Y-109304183D02*
X158905638Y-108504183D01*
X159210400Y-108504183D01*
X159286591Y-108542279D01*
X159324686Y-108580374D01*
X159362781Y-108656564D01*
X159362781Y-108770850D01*
X159324686Y-108847040D01*
X159286591Y-108885136D01*
X159210400Y-108923231D01*
X158905638Y-108923231D01*
X140073221Y-121808988D02*
X139739888Y-121808988D01*
X139739888Y-122332797D02*
X139739888Y-121332797D01*
X140216078Y-121332797D01*
X141120840Y-122332797D02*
X140549412Y-122332797D01*
X140835126Y-122332797D02*
X140835126Y-121332797D01*
X140739888Y-121475655D01*
X140644650Y-121570893D01*
X140549412Y-121618512D01*
X142136874Y-135159710D02*
X141136874Y-135159710D01*
X141136874Y-134921615D01*
X141184494Y-134778758D01*
X141279732Y-134683520D01*
X141374970Y-134635901D01*
X141565446Y-134588282D01*
X141708303Y-134588282D01*
X141898779Y-134635901D01*
X141994017Y-134683520D01*
X142089255Y-134778758D01*
X142136874Y-134921615D01*
X142136874Y-135159710D01*
X142136874Y-133635901D02*
X142136874Y-134207329D01*
X142136874Y-133921615D02*
X141136874Y-133921615D01*
X141279732Y-134016853D01*
X141374970Y-134112091D01*
X141422589Y-134207329D01*
X141232113Y-133254948D02*
X141184494Y-133207329D01*
X141136874Y-133112091D01*
X141136874Y-132873996D01*
X141184494Y-132778758D01*
X141232113Y-132731139D01*
X141327351Y-132683520D01*
X141422589Y-132683520D01*
X141565446Y-132731139D01*
X142136874Y-133302567D01*
X142136874Y-132683520D01*
X124872947Y-118919667D02*
X124872947Y-117919667D01*
X125111043Y-117919667D01*
X125253900Y-117967287D01*
X125349138Y-118062525D01*
X125396757Y-118157763D01*
X125444376Y-118348239D01*
X125444376Y-118491096D01*
X125396757Y-118681572D01*
X125349138Y-118776810D01*
X125253900Y-118872048D01*
X125111043Y-118919667D01*
X124872947Y-118919667D01*
X126301519Y-118253001D02*
X126301519Y-118919667D01*
X126063423Y-117872048D02*
X125825328Y-118586334D01*
X126444376Y-118586334D01*
D13*
X111614953Y-106968359D02*
X111614953Y-105698359D01*
X112122953Y-106605502D01*
X112630953Y-105698359D01*
X112630953Y-106968359D01*
X113211524Y-105698359D02*
X114227524Y-106968359D01*
X114227524Y-105698359D02*
X113211524Y-106968359D01*
X114735524Y-105819312D02*
X114808096Y-105758836D01*
X114953238Y-105698359D01*
X115316096Y-105698359D01*
X115461238Y-105758836D01*
X115533810Y-105819312D01*
X115606381Y-105940264D01*
X115606381Y-106061216D01*
X115533810Y-106242645D01*
X114662953Y-106968359D01*
X115606381Y-106968359D01*
X116477238Y-106242645D02*
X116332096Y-106182169D01*
X116259524Y-106121693D01*
X116186953Y-106000740D01*
X116186953Y-105940264D01*
X116259524Y-105819312D01*
X116332096Y-105758836D01*
X116477238Y-105698359D01*
X116767524Y-105698359D01*
X116912667Y-105758836D01*
X116985238Y-105819312D01*
X117057810Y-105940264D01*
X117057810Y-106000740D01*
X116985238Y-106121693D01*
X116912667Y-106182169D01*
X116767524Y-106242645D01*
X116477238Y-106242645D01*
X116332096Y-106303121D01*
X116259524Y-106363597D01*
X116186953Y-106484550D01*
X116186953Y-106726455D01*
X116259524Y-106847407D01*
X116332096Y-106907883D01*
X116477238Y-106968359D01*
X116767524Y-106968359D01*
X116912667Y-106907883D01*
X116985238Y-106847407D01*
X117057810Y-106726455D01*
X117057810Y-106484550D01*
X116985238Y-106363597D01*
X116912667Y-106303121D01*
X116767524Y-106242645D01*
X283065097Y-87918343D02*
X283065097Y-86648343D01*
X283573097Y-87555486D01*
X284081097Y-86648343D01*
X284081097Y-87918343D01*
X284661668Y-86648343D02*
X285677668Y-87918343D01*
X285677668Y-86648343D02*
X284661668Y-87918343D01*
X286113097Y-86648343D02*
X287056525Y-86648343D01*
X286548525Y-87132153D01*
X286766240Y-87132153D01*
X286911382Y-87192629D01*
X286983954Y-87253105D01*
X287056525Y-87374058D01*
X287056525Y-87676439D01*
X286983954Y-87797391D01*
X286911382Y-87857867D01*
X286766240Y-87918343D01*
X286330811Y-87918343D01*
X286185668Y-87857867D01*
X286113097Y-87797391D01*
X287637097Y-86769296D02*
X287709668Y-86708820D01*
X287854811Y-86648343D01*
X288217668Y-86648343D01*
X288362811Y-86708820D01*
X288435382Y-86769296D01*
X288507954Y-86890248D01*
X288507954Y-87011200D01*
X288435382Y-87192629D01*
X287564525Y-87918343D01*
X288507954Y-87918343D01*
D11*
X177974927Y-118919667D02*
X177974927Y-117919667D01*
X178213022Y-117919667D01*
X178355879Y-117967287D01*
X178451117Y-118062525D01*
X178498736Y-118157763D01*
X178546355Y-118348239D01*
X178546355Y-118491096D01*
X178498736Y-118681572D01*
X178451117Y-118776810D01*
X178355879Y-118872048D01*
X178213022Y-118919667D01*
X177974927Y-118919667D01*
X178879689Y-117919667D02*
X179498736Y-117919667D01*
X179165403Y-118300620D01*
X179308260Y-118300620D01*
X179403498Y-118348239D01*
X179451117Y-118395858D01*
X179498736Y-118491096D01*
X179498736Y-118729191D01*
X179451117Y-118824429D01*
X179403498Y-118872048D01*
X179308260Y-118919667D01*
X179022546Y-118919667D01*
X178927308Y-118872048D01*
X178879689Y-118824429D01*
X180355879Y-118253001D02*
X180355879Y-118919667D01*
X180117784Y-117872048D02*
X179879689Y-118586334D01*
X180498736Y-118586334D01*
X166663980Y-68318062D02*
X166663980Y-67318062D01*
X166902075Y-67318062D01*
X167044932Y-67365682D01*
X167140170Y-67460920D01*
X167187789Y-67556158D01*
X167235408Y-67746634D01*
X167235408Y-67889491D01*
X167187789Y-68079967D01*
X167140170Y-68175205D01*
X167044932Y-68270443D01*
X166902075Y-68318062D01*
X166663980Y-68318062D01*
X167568742Y-67318062D02*
X168187789Y-67318062D01*
X167854456Y-67699015D01*
X167997313Y-67699015D01*
X168092551Y-67746634D01*
X168140170Y-67794253D01*
X168187789Y-67889491D01*
X168187789Y-68127586D01*
X168140170Y-68222824D01*
X168092551Y-68270443D01*
X167997313Y-68318062D01*
X167711599Y-68318062D01*
X167616361Y-68270443D01*
X167568742Y-68222824D01*
X168521123Y-67318062D02*
X169187789Y-67318062D01*
X168759218Y-68318062D01*
X135112391Y-74271192D02*
X135112391Y-73271192D01*
X135350486Y-73271192D01*
X135493343Y-73318812D01*
X135588581Y-73414050D01*
X135636200Y-73509288D01*
X135683819Y-73699764D01*
X135683819Y-73842621D01*
X135636200Y-74033097D01*
X135588581Y-74128335D01*
X135493343Y-74223573D01*
X135350486Y-74271192D01*
X135112391Y-74271192D01*
X136636200Y-74271192D02*
X136064772Y-74271192D01*
X136350486Y-74271192D02*
X136350486Y-73271192D01*
X136255248Y-73414050D01*
X136160010Y-73509288D01*
X136064772Y-73556907D01*
X137112391Y-74271192D02*
X137302867Y-74271192D01*
X137398105Y-74223573D01*
X137445724Y-74175954D01*
X137540962Y-74033097D01*
X137588581Y-73842621D01*
X137588581Y-73461669D01*
X137540962Y-73366431D01*
X137493343Y-73318812D01*
X137398105Y-73271192D01*
X137207629Y-73271192D01*
X137112391Y-73318812D01*
X137064772Y-73366431D01*
X137017153Y-73461669D01*
X137017153Y-73699764D01*
X137064772Y-73795002D01*
X137112391Y-73842621D01*
X137207629Y-73890240D01*
X137398105Y-73890240D01*
X137493343Y-73842621D01*
X137540962Y-73795002D01*
X137588581Y-73699764D01*
D13*
X225915049Y-126018375D02*
X225915049Y-124748375D01*
X226423049Y-125655518D01*
X226931049Y-124748375D01*
X226931049Y-126018375D01*
X227511620Y-124748375D02*
X228527620Y-126018375D01*
X228527620Y-124748375D02*
X227511620Y-126018375D01*
X229761334Y-125171709D02*
X229761334Y-126018375D01*
X229398477Y-124687899D02*
X229035620Y-125595042D01*
X229979049Y-125595042D01*
X230414477Y-124748375D02*
X231430477Y-124748375D01*
X230777334Y-126018375D01*
X244965065Y-87918343D02*
X244965065Y-86648343D01*
X245473065Y-87555486D01*
X245981065Y-86648343D01*
X245981065Y-87918343D01*
X246561636Y-86648343D02*
X247577636Y-87918343D01*
X247577636Y-86648343D02*
X246561636Y-87918343D01*
X248811350Y-87071677D02*
X248811350Y-87918343D01*
X248448493Y-86587867D02*
X248085636Y-87495010D01*
X249029065Y-87495010D01*
X250262779Y-87071677D02*
X250262779Y-87918343D01*
X249899922Y-86587867D02*
X249537065Y-87495010D01*
X250480493Y-87495010D01*
X244965065Y-68868327D02*
X244965065Y-67598327D01*
X245473065Y-68505470D01*
X245981065Y-67598327D01*
X245981065Y-68868327D01*
X246561636Y-67598327D02*
X247577636Y-68868327D01*
X247577636Y-67598327D02*
X246561636Y-68868327D01*
X248811350Y-68021661D02*
X248811350Y-68868327D01*
X248448493Y-67537851D02*
X248085636Y-68444994D01*
X249029065Y-68444994D01*
X249464493Y-67598327D02*
X250407922Y-67598327D01*
X249899922Y-68082137D01*
X250117636Y-68082137D01*
X250262779Y-68142613D01*
X250335350Y-68203089D01*
X250407922Y-68324042D01*
X250407922Y-68626423D01*
X250335350Y-68747375D01*
X250262779Y-68807851D01*
X250117636Y-68868327D01*
X249682208Y-68868327D01*
X249537065Y-68807851D01*
X249464493Y-68747375D01*
X264015081Y-87918343D02*
X264015081Y-86648343D01*
X264523081Y-87555486D01*
X265031081Y-86648343D01*
X265031081Y-87918343D01*
X265611652Y-86648343D02*
X266627652Y-87918343D01*
X266627652Y-86648343D02*
X265611652Y-87918343D01*
X267063081Y-86648343D02*
X268006509Y-86648343D01*
X267498509Y-87132153D01*
X267716224Y-87132153D01*
X267861366Y-87192629D01*
X267933938Y-87253105D01*
X268006509Y-87374058D01*
X268006509Y-87676439D01*
X267933938Y-87797391D01*
X267861366Y-87857867D01*
X267716224Y-87918343D01*
X267280795Y-87918343D01*
X267135652Y-87857867D01*
X267063081Y-87797391D01*
X268877366Y-87192629D02*
X268732224Y-87132153D01*
X268659652Y-87071677D01*
X268587081Y-86950724D01*
X268587081Y-86890248D01*
X268659652Y-86769296D01*
X268732224Y-86708820D01*
X268877366Y-86648343D01*
X269167652Y-86648343D01*
X269312795Y-86708820D01*
X269385366Y-86769296D01*
X269457938Y-86890248D01*
X269457938Y-86950724D01*
X269385366Y-87071677D01*
X269312795Y-87132153D01*
X269167652Y-87192629D01*
X268877366Y-87192629D01*
X268732224Y-87253105D01*
X268659652Y-87313581D01*
X268587081Y-87434534D01*
X268587081Y-87676439D01*
X268659652Y-87797391D01*
X268732224Y-87857867D01*
X268877366Y-87918343D01*
X269167652Y-87918343D01*
X269312795Y-87857867D01*
X269385366Y-87797391D01*
X269457938Y-87676439D01*
X269457938Y-87434534D01*
X269385366Y-87313581D01*
X269312795Y-87253105D01*
X269167652Y-87192629D01*
X244965065Y-106968359D02*
X244965065Y-105698359D01*
X245473065Y-106605502D01*
X245981065Y-105698359D01*
X245981065Y-106968359D01*
X246561636Y-105698359D02*
X247577636Y-106968359D01*
X247577636Y-105698359D02*
X246561636Y-106968359D01*
X248811350Y-106121693D02*
X248811350Y-106968359D01*
X248448493Y-105637883D02*
X248085636Y-106545026D01*
X249029065Y-106545026D01*
X250335350Y-105698359D02*
X249609636Y-105698359D01*
X249537065Y-106303121D01*
X249609636Y-106242645D01*
X249754779Y-106182169D01*
X250117636Y-106182169D01*
X250262779Y-106242645D01*
X250335350Y-106303121D01*
X250407922Y-106424074D01*
X250407922Y-106726455D01*
X250335350Y-106847407D01*
X250262779Y-106907883D01*
X250117636Y-106968359D01*
X249754779Y-106968359D01*
X249609636Y-106907883D01*
X249537065Y-106847407D01*
X283065097Y-106968359D02*
X283065097Y-105698359D01*
X283573097Y-106605502D01*
X284081097Y-105698359D01*
X284081097Y-106968359D01*
X284661668Y-105698359D02*
X285677668Y-106968359D01*
X285677668Y-105698359D02*
X284661668Y-106968359D01*
X286113097Y-105698359D02*
X287056525Y-105698359D01*
X286548525Y-106182169D01*
X286766240Y-106182169D01*
X286911382Y-106242645D01*
X286983954Y-106303121D01*
X287056525Y-106424074D01*
X287056525Y-106726455D01*
X286983954Y-106847407D01*
X286911382Y-106907883D01*
X286766240Y-106968359D01*
X286330811Y-106968359D01*
X286185668Y-106907883D01*
X286113097Y-106847407D01*
X287564525Y-105698359D02*
X288507954Y-105698359D01*
X287999954Y-106182169D01*
X288217668Y-106182169D01*
X288362811Y-106242645D01*
X288435382Y-106303121D01*
X288507954Y-106424074D01*
X288507954Y-106726455D01*
X288435382Y-106847407D01*
X288362811Y-106907883D01*
X288217668Y-106968359D01*
X287782240Y-106968359D01*
X287637097Y-106907883D01*
X287564525Y-106847407D01*
X264015081Y-106968359D02*
X264015081Y-105698359D01*
X264523081Y-106605502D01*
X265031081Y-105698359D01*
X265031081Y-106968359D01*
X265611652Y-105698359D02*
X266627652Y-106968359D01*
X266627652Y-105698359D02*
X265611652Y-106968359D01*
X267063081Y-105698359D02*
X268006509Y-105698359D01*
X267498509Y-106182169D01*
X267716224Y-106182169D01*
X267861366Y-106242645D01*
X267933938Y-106303121D01*
X268006509Y-106424074D01*
X268006509Y-106726455D01*
X267933938Y-106847407D01*
X267861366Y-106907883D01*
X267716224Y-106968359D01*
X267280795Y-106968359D01*
X267135652Y-106907883D01*
X267063081Y-106847407D01*
X268732224Y-106968359D02*
X269022509Y-106968359D01*
X269167652Y-106907883D01*
X269240224Y-106847407D01*
X269385366Y-106665978D01*
X269457938Y-106424074D01*
X269457938Y-105940264D01*
X269385366Y-105819312D01*
X269312795Y-105758836D01*
X269167652Y-105698359D01*
X268877366Y-105698359D01*
X268732224Y-105758836D01*
X268659652Y-105819312D01*
X268587081Y-105940264D01*
X268587081Y-106242645D01*
X268659652Y-106363597D01*
X268732224Y-106424074D01*
X268877366Y-106484550D01*
X269167652Y-106484550D01*
X269312795Y-106424074D01*
X269385366Y-106363597D01*
X269457938Y-106242645D01*
X283065097Y-126018375D02*
X283065097Y-124748375D01*
X283573097Y-125655518D01*
X284081097Y-124748375D01*
X284081097Y-126018375D01*
X284661668Y-124748375D02*
X285677668Y-126018375D01*
X285677668Y-124748375D02*
X284661668Y-126018375D01*
X286113097Y-124748375D02*
X287056525Y-124748375D01*
X286548525Y-125232185D01*
X286766240Y-125232185D01*
X286911382Y-125292661D01*
X286983954Y-125353137D01*
X287056525Y-125474090D01*
X287056525Y-125776471D01*
X286983954Y-125897423D01*
X286911382Y-125957899D01*
X286766240Y-126018375D01*
X286330811Y-126018375D01*
X286185668Y-125957899D01*
X286113097Y-125897423D01*
X288362811Y-125171709D02*
X288362811Y-126018375D01*
X287999954Y-124687899D02*
X287637097Y-125595042D01*
X288580525Y-125595042D01*
X264015081Y-126018375D02*
X264015081Y-124748375D01*
X264523081Y-125655518D01*
X265031081Y-124748375D01*
X265031081Y-126018375D01*
X265611652Y-124748375D02*
X266627652Y-126018375D01*
X266627652Y-124748375D02*
X265611652Y-126018375D01*
X267861366Y-125171709D02*
X267861366Y-126018375D01*
X267498509Y-124687899D02*
X267135652Y-125595042D01*
X268079081Y-125595042D01*
X268949938Y-124748375D02*
X269095081Y-124748375D01*
X269240224Y-124808852D01*
X269312795Y-124869328D01*
X269385366Y-124990280D01*
X269457938Y-125232185D01*
X269457938Y-125534566D01*
X269385366Y-125776471D01*
X269312795Y-125897423D01*
X269240224Y-125957899D01*
X269095081Y-126018375D01*
X268949938Y-126018375D01*
X268804795Y-125957899D01*
X268732224Y-125897423D01*
X268659652Y-125776471D01*
X268587081Y-125534566D01*
X268587081Y-125232185D01*
X268659652Y-124990280D01*
X268732224Y-124869328D01*
X268804795Y-124808852D01*
X268949938Y-124748375D01*
X225915049Y-106968359D02*
X225915049Y-105698359D01*
X226423049Y-106605502D01*
X226931049Y-105698359D01*
X226931049Y-106968359D01*
X227511620Y-105698359D02*
X228527620Y-106968359D01*
X228527620Y-105698359D02*
X227511620Y-106968359D01*
X229761334Y-106121693D02*
X229761334Y-106968359D01*
X229398477Y-105637883D02*
X229035620Y-106545026D01*
X229979049Y-106545026D01*
X231212763Y-105698359D02*
X230922477Y-105698359D01*
X230777334Y-105758836D01*
X230704763Y-105819312D01*
X230559620Y-106000740D01*
X230487049Y-106242645D01*
X230487049Y-106726455D01*
X230559620Y-106847407D01*
X230632192Y-106907883D01*
X230777334Y-106968359D01*
X231067620Y-106968359D01*
X231212763Y-106907883D01*
X231285334Y-106847407D01*
X231357906Y-106726455D01*
X231357906Y-106424074D01*
X231285334Y-106303121D01*
X231212763Y-106242645D01*
X231067620Y-106182169D01*
X230777334Y-106182169D01*
X230632192Y-106242645D01*
X230559620Y-106303121D01*
X230487049Y-106424074D01*
X206865033Y-106968359D02*
X206865033Y-105698359D01*
X207373033Y-106605502D01*
X207881033Y-105698359D01*
X207881033Y-106968359D01*
X208461604Y-105698359D02*
X209477604Y-106968359D01*
X209477604Y-105698359D02*
X208461604Y-106968359D01*
X210783890Y-105698359D02*
X210058176Y-105698359D01*
X209985604Y-106303121D01*
X210058176Y-106242645D01*
X210203318Y-106182169D01*
X210566176Y-106182169D01*
X210711318Y-106242645D01*
X210783890Y-106303121D01*
X210856461Y-106424074D01*
X210856461Y-106726455D01*
X210783890Y-106847407D01*
X210711318Y-106907883D01*
X210566176Y-106968359D01*
X210203318Y-106968359D01*
X210058176Y-106907883D01*
X209985604Y-106847407D01*
X211437033Y-105819312D02*
X211509604Y-105758836D01*
X211654747Y-105698359D01*
X212017604Y-105698359D01*
X212162747Y-105758836D01*
X212235318Y-105819312D01*
X212307890Y-105940264D01*
X212307890Y-106061216D01*
X212235318Y-106242645D01*
X211364461Y-106968359D01*
X212307890Y-106968359D01*
X283065097Y-145068391D02*
X283065097Y-143798391D01*
X283573097Y-144705534D01*
X284081097Y-143798391D01*
X284081097Y-145068391D01*
X284661668Y-143798391D02*
X285677668Y-145068391D01*
X285677668Y-143798391D02*
X284661668Y-145068391D01*
X286113097Y-143798391D02*
X287056525Y-143798391D01*
X286548525Y-144282201D01*
X286766240Y-144282201D01*
X286911382Y-144342677D01*
X286983954Y-144403153D01*
X287056525Y-144524106D01*
X287056525Y-144826487D01*
X286983954Y-144947439D01*
X286911382Y-145007915D01*
X286766240Y-145068391D01*
X286330811Y-145068391D01*
X286185668Y-145007915D01*
X286113097Y-144947439D01*
X288435382Y-143798391D02*
X287709668Y-143798391D01*
X287637097Y-144403153D01*
X287709668Y-144342677D01*
X287854811Y-144282201D01*
X288217668Y-144282201D01*
X288362811Y-144342677D01*
X288435382Y-144403153D01*
X288507954Y-144524106D01*
X288507954Y-144826487D01*
X288435382Y-144947439D01*
X288362811Y-145007915D01*
X288217668Y-145068391D01*
X287854811Y-145068391D01*
X287709668Y-145007915D01*
X287637097Y-144947439D01*
X244965065Y-126018375D02*
X244965065Y-124748375D01*
X245473065Y-125655518D01*
X245981065Y-124748375D01*
X245981065Y-126018375D01*
X246561636Y-124748375D02*
X247577636Y-126018375D01*
X247577636Y-124748375D02*
X246561636Y-126018375D01*
X248811350Y-125171709D02*
X248811350Y-126018375D01*
X248448493Y-124687899D02*
X248085636Y-125595042D01*
X249029065Y-125595042D01*
X250407922Y-126018375D02*
X249537065Y-126018375D01*
X249972493Y-126018375D02*
X249972493Y-124748375D01*
X249827350Y-124929804D01*
X249682208Y-125050756D01*
X249537065Y-125111232D01*
X206865033Y-126018375D02*
X206865033Y-124748375D01*
X207373033Y-125655518D01*
X207881033Y-124748375D01*
X207881033Y-126018375D01*
X208461604Y-124748375D02*
X209477604Y-126018375D01*
X209477604Y-124748375D02*
X208461604Y-126018375D01*
X210783890Y-124748375D02*
X210058176Y-124748375D01*
X209985604Y-125353137D01*
X210058176Y-125292661D01*
X210203318Y-125232185D01*
X210566176Y-125232185D01*
X210711318Y-125292661D01*
X210783890Y-125353137D01*
X210856461Y-125474090D01*
X210856461Y-125776471D01*
X210783890Y-125897423D01*
X210711318Y-125957899D01*
X210566176Y-126018375D01*
X210203318Y-126018375D01*
X210058176Y-125957899D01*
X209985604Y-125897423D01*
X211364461Y-124748375D02*
X212307890Y-124748375D01*
X211799890Y-125232185D01*
X212017604Y-125232185D01*
X212162747Y-125292661D01*
X212235318Y-125353137D01*
X212307890Y-125474090D01*
X212307890Y-125776471D01*
X212235318Y-125897423D01*
X212162747Y-125957899D01*
X212017604Y-126018375D01*
X211582176Y-126018375D01*
X211437033Y-125957899D01*
X211364461Y-125897423D01*
X264015081Y-145068391D02*
X264015081Y-143798391D01*
X264523081Y-144705534D01*
X265031081Y-143798391D01*
X265031081Y-145068391D01*
X265611652Y-143798391D02*
X266627652Y-145068391D01*
X266627652Y-143798391D02*
X265611652Y-145068391D01*
X267063081Y-143798391D02*
X268006509Y-143798391D01*
X267498509Y-144282201D01*
X267716224Y-144282201D01*
X267861366Y-144342677D01*
X267933938Y-144403153D01*
X268006509Y-144524106D01*
X268006509Y-144826487D01*
X267933938Y-144947439D01*
X267861366Y-145007915D01*
X267716224Y-145068391D01*
X267280795Y-145068391D01*
X267135652Y-145007915D01*
X267063081Y-144947439D01*
X269312795Y-143798391D02*
X269022509Y-143798391D01*
X268877366Y-143858868D01*
X268804795Y-143919344D01*
X268659652Y-144100772D01*
X268587081Y-144342677D01*
X268587081Y-144826487D01*
X268659652Y-144947439D01*
X268732224Y-145007915D01*
X268877366Y-145068391D01*
X269167652Y-145068391D01*
X269312795Y-145007915D01*
X269385366Y-144947439D01*
X269457938Y-144826487D01*
X269457938Y-144524106D01*
X269385366Y-144403153D01*
X269312795Y-144342677D01*
X269167652Y-144282201D01*
X268877366Y-144282201D01*
X268732224Y-144342677D01*
X268659652Y-144403153D01*
X268587081Y-144524106D01*
X244965065Y-145068391D02*
X244965065Y-143798391D01*
X245473065Y-144705534D01*
X245981065Y-143798391D01*
X245981065Y-145068391D01*
X246561636Y-143798391D02*
X247577636Y-145068391D01*
X247577636Y-143798391D02*
X246561636Y-145068391D01*
X248811350Y-144221725D02*
X248811350Y-145068391D01*
X248448493Y-143737915D02*
X248085636Y-144645058D01*
X249029065Y-144645058D01*
X249537065Y-143919344D02*
X249609636Y-143858868D01*
X249754779Y-143798391D01*
X250117636Y-143798391D01*
X250262779Y-143858868D01*
X250335350Y-143919344D01*
X250407922Y-144040296D01*
X250407922Y-144161248D01*
X250335350Y-144342677D01*
X249464493Y-145068391D01*
X250407922Y-145068391D01*
X225915049Y-145068391D02*
X225915049Y-143798391D01*
X226423049Y-144705534D01*
X226931049Y-143798391D01*
X226931049Y-145068391D01*
X227511620Y-143798391D02*
X228527620Y-145068391D01*
X228527620Y-143798391D02*
X227511620Y-145068391D01*
X229761334Y-144221725D02*
X229761334Y-145068391D01*
X229398477Y-143737915D02*
X229035620Y-144645058D01*
X229979049Y-144645058D01*
X230777334Y-144342677D02*
X230632192Y-144282201D01*
X230559620Y-144221725D01*
X230487049Y-144100772D01*
X230487049Y-144040296D01*
X230559620Y-143919344D01*
X230632192Y-143858868D01*
X230777334Y-143798391D01*
X231067620Y-143798391D01*
X231212763Y-143858868D01*
X231285334Y-143919344D01*
X231357906Y-144040296D01*
X231357906Y-144100772D01*
X231285334Y-144221725D01*
X231212763Y-144282201D01*
X231067620Y-144342677D01*
X230777334Y-144342677D01*
X230632192Y-144403153D01*
X230559620Y-144463629D01*
X230487049Y-144584582D01*
X230487049Y-144826487D01*
X230559620Y-144947439D01*
X230632192Y-145007915D01*
X230777334Y-145068391D01*
X231067620Y-145068391D01*
X231212763Y-145007915D01*
X231285334Y-144947439D01*
X231357906Y-144826487D01*
X231357906Y-144584582D01*
X231285334Y-144463629D01*
X231212763Y-144403153D01*
X231067620Y-144342677D01*
X206865033Y-145068391D02*
X206865033Y-143798391D01*
X207373033Y-144705534D01*
X207881033Y-143798391D01*
X207881033Y-145068391D01*
X208461604Y-143798391D02*
X209477604Y-145068391D01*
X209477604Y-143798391D02*
X208461604Y-145068391D01*
X210783890Y-143798391D02*
X210058176Y-143798391D01*
X209985604Y-144403153D01*
X210058176Y-144342677D01*
X210203318Y-144282201D01*
X210566176Y-144282201D01*
X210711318Y-144342677D01*
X210783890Y-144403153D01*
X210856461Y-144524106D01*
X210856461Y-144826487D01*
X210783890Y-144947439D01*
X210711318Y-145007915D01*
X210566176Y-145068391D01*
X210203318Y-145068391D01*
X210058176Y-145007915D01*
X209985604Y-144947439D01*
X212162747Y-144221725D02*
X212162747Y-145068391D01*
X211799890Y-143737915D02*
X211437033Y-144645058D01*
X212380461Y-144645058D01*
X111614953Y-68868327D02*
X111614953Y-67598327D01*
X112122953Y-68505470D01*
X112630953Y-67598327D01*
X112630953Y-68868327D01*
X113211524Y-67598327D02*
X114227524Y-68868327D01*
X114227524Y-67598327D02*
X113211524Y-68868327D01*
X114735524Y-67719280D02*
X114808096Y-67658804D01*
X114953238Y-67598327D01*
X115316096Y-67598327D01*
X115461238Y-67658804D01*
X115533810Y-67719280D01*
X115606381Y-67840232D01*
X115606381Y-67961184D01*
X115533810Y-68142613D01*
X114662953Y-68868327D01*
X115606381Y-68868327D01*
X116912667Y-67598327D02*
X116622381Y-67598327D01*
X116477238Y-67658804D01*
X116404667Y-67719280D01*
X116259524Y-67900708D01*
X116186953Y-68142613D01*
X116186953Y-68626423D01*
X116259524Y-68747375D01*
X116332096Y-68807851D01*
X116477238Y-68868327D01*
X116767524Y-68868327D01*
X116912667Y-68807851D01*
X116985238Y-68747375D01*
X117057810Y-68626423D01*
X117057810Y-68324042D01*
X116985238Y-68203089D01*
X116912667Y-68142613D01*
X116767524Y-68082137D01*
X116477238Y-68082137D01*
X116332096Y-68142613D01*
X116259524Y-68203089D01*
X116186953Y-68324042D01*
X111614953Y-87918343D02*
X111614953Y-86648343D01*
X112122953Y-87555486D01*
X112630953Y-86648343D01*
X112630953Y-87918343D01*
X113211524Y-86648343D02*
X114227524Y-87918343D01*
X114227524Y-86648343D02*
X113211524Y-87918343D01*
X114735524Y-86769296D02*
X114808096Y-86708820D01*
X114953238Y-86648343D01*
X115316096Y-86648343D01*
X115461238Y-86708820D01*
X115533810Y-86769296D01*
X115606381Y-86890248D01*
X115606381Y-87011200D01*
X115533810Y-87192629D01*
X114662953Y-87918343D01*
X115606381Y-87918343D01*
X116114381Y-86648343D02*
X117130381Y-86648343D01*
X116477238Y-87918343D01*
X73514921Y-87918343D02*
X73514921Y-86648343D01*
X74022921Y-87555486D01*
X74530921Y-86648343D01*
X74530921Y-87918343D01*
X75111492Y-86648343D02*
X76127492Y-87918343D01*
X76127492Y-86648343D02*
X75111492Y-87918343D01*
X76635492Y-86769296D02*
X76708064Y-86708820D01*
X76853206Y-86648343D01*
X77216064Y-86648343D01*
X77361206Y-86708820D01*
X77433778Y-86769296D01*
X77506349Y-86890248D01*
X77506349Y-87011200D01*
X77433778Y-87192629D01*
X76562921Y-87918343D01*
X77506349Y-87918343D01*
X78449778Y-86648343D02*
X78594921Y-86648343D01*
X78740064Y-86708820D01*
X78812635Y-86769296D01*
X78885206Y-86890248D01*
X78957778Y-87132153D01*
X78957778Y-87434534D01*
X78885206Y-87676439D01*
X78812635Y-87797391D01*
X78740064Y-87857867D01*
X78594921Y-87918343D01*
X78449778Y-87918343D01*
X78304635Y-87857867D01*
X78232064Y-87797391D01*
X78159492Y-87676439D01*
X78086921Y-87434534D01*
X78086921Y-87132153D01*
X78159492Y-86890248D01*
X78232064Y-86769296D01*
X78304635Y-86708820D01*
X78449778Y-86648343D01*
X92564937Y-145068391D02*
X92564937Y-143798391D01*
X93072937Y-144705534D01*
X93580937Y-143798391D01*
X93580937Y-145068391D01*
X94161508Y-143798391D02*
X95177508Y-145068391D01*
X95177508Y-143798391D02*
X94161508Y-145068391D01*
X95685508Y-143919344D02*
X95758080Y-143858868D01*
X95903222Y-143798391D01*
X96266080Y-143798391D01*
X96411222Y-143858868D01*
X96483794Y-143919344D01*
X96556365Y-144040296D01*
X96556365Y-144161248D01*
X96483794Y-144342677D01*
X95612937Y-145068391D01*
X96556365Y-145068391D01*
X97862651Y-144221725D02*
X97862651Y-145068391D01*
X97499794Y-143737915D02*
X97136937Y-144645058D01*
X98080365Y-144645058D01*
X54464905Y-145068391D02*
X54464905Y-143798391D01*
X54972905Y-144705534D01*
X55480905Y-143798391D01*
X55480905Y-145068391D01*
X56061476Y-143798391D02*
X57077476Y-145068391D01*
X57077476Y-143798391D02*
X56061476Y-145068391D01*
X58456333Y-145068391D02*
X57585476Y-145068391D01*
X58020905Y-145068391D02*
X58020905Y-143798391D01*
X57875762Y-143979820D01*
X57730619Y-144100772D01*
X57585476Y-144161248D01*
X59036905Y-143919344D02*
X59109476Y-143858868D01*
X59254619Y-143798391D01*
X59617476Y-143798391D01*
X59762619Y-143858868D01*
X59835190Y-143919344D01*
X59907762Y-144040296D01*
X59907762Y-144161248D01*
X59835190Y-144342677D01*
X58964333Y-145068391D01*
X59907762Y-145068391D01*
X17090587Y-87918343D02*
X17090587Y-86648343D01*
X17598587Y-87555486D01*
X18106587Y-86648343D01*
X18106587Y-87918343D01*
X18687158Y-86648343D02*
X19703158Y-87918343D01*
X19703158Y-86648343D02*
X18687158Y-87918343D01*
X20211158Y-86769296D02*
X20283730Y-86708820D01*
X20428873Y-86648343D01*
X20791730Y-86648343D01*
X20936873Y-86708820D01*
X21009444Y-86769296D01*
X21082016Y-86890248D01*
X21082016Y-87011200D01*
X21009444Y-87192629D01*
X20138587Y-87918343D01*
X21082016Y-87918343D01*
X17090539Y-68868273D02*
X17090539Y-67598273D01*
X17598539Y-68505416D01*
X18106539Y-67598273D01*
X18106539Y-68868273D01*
X18687110Y-67598273D02*
X19703110Y-68868273D01*
X19703110Y-67598273D02*
X18687110Y-68868273D01*
X21081968Y-68868273D02*
X20211110Y-68868273D01*
X20646539Y-68868273D02*
X20646539Y-67598273D01*
X20501396Y-67779702D01*
X20356253Y-67900654D01*
X20211110Y-67961130D01*
X36140603Y-60868327D02*
X36140603Y-59598327D01*
X36648603Y-60505470D01*
X37156603Y-59598327D01*
X37156603Y-60868327D01*
X37737174Y-59598327D02*
X38753174Y-60868327D01*
X38753174Y-59598327D02*
X37737174Y-60868327D01*
X39188603Y-59598327D02*
X40204603Y-59598327D01*
X39551460Y-60868327D01*
X54464905Y-68868327D02*
X54464905Y-67598327D01*
X54972905Y-68505470D01*
X55480905Y-67598327D01*
X55480905Y-68868327D01*
X56061476Y-67598327D02*
X57077476Y-68868327D01*
X57077476Y-67598327D02*
X56061476Y-68868327D01*
X58456333Y-68868327D02*
X57585476Y-68868327D01*
X58020905Y-68868327D02*
X58020905Y-67598327D01*
X57875762Y-67779756D01*
X57730619Y-67900708D01*
X57585476Y-67961184D01*
X58964333Y-67598327D02*
X59907762Y-67598327D01*
X59399762Y-68082137D01*
X59617476Y-68082137D01*
X59762619Y-68142613D01*
X59835190Y-68203089D01*
X59907762Y-68324042D01*
X59907762Y-68626423D01*
X59835190Y-68747375D01*
X59762619Y-68807851D01*
X59617476Y-68868327D01*
X59182048Y-68868327D01*
X59036905Y-68807851D01*
X58964333Y-68747375D01*
X73514921Y-68868327D02*
X73514921Y-67598327D01*
X74022921Y-68505470D01*
X74530921Y-67598327D01*
X74530921Y-68868327D01*
X75111492Y-67598327D02*
X76127492Y-68868327D01*
X76127492Y-67598327D02*
X75111492Y-68868327D01*
X77506349Y-68868327D02*
X76635492Y-68868327D01*
X77070921Y-68868327D02*
X77070921Y-67598327D01*
X76925778Y-67779756D01*
X76780635Y-67900708D01*
X76635492Y-67961184D01*
X78232064Y-68868327D02*
X78522349Y-68868327D01*
X78667492Y-68807851D01*
X78740064Y-68747375D01*
X78885206Y-68565946D01*
X78957778Y-68324042D01*
X78957778Y-67840232D01*
X78885206Y-67719280D01*
X78812635Y-67658804D01*
X78667492Y-67598327D01*
X78377206Y-67598327D01*
X78232064Y-67658804D01*
X78159492Y-67719280D01*
X78086921Y-67840232D01*
X78086921Y-68142613D01*
X78159492Y-68263565D01*
X78232064Y-68324042D01*
X78377206Y-68384518D01*
X78667492Y-68384518D01*
X78812635Y-68324042D01*
X78885206Y-68263565D01*
X78957778Y-68142613D01*
X92564937Y-68868327D02*
X92564937Y-67598327D01*
X93072937Y-68505470D01*
X93580937Y-67598327D01*
X93580937Y-68868327D01*
X94161508Y-67598327D02*
X95177508Y-68868327D01*
X95177508Y-67598327D02*
X94161508Y-68868327D01*
X95685508Y-67719280D02*
X95758080Y-67658804D01*
X95903222Y-67598327D01*
X96266080Y-67598327D01*
X96411222Y-67658804D01*
X96483794Y-67719280D01*
X96556365Y-67840232D01*
X96556365Y-67961184D01*
X96483794Y-68142613D01*
X95612937Y-68868327D01*
X96556365Y-68868327D01*
X97935222Y-67598327D02*
X97209508Y-67598327D01*
X97136937Y-68203089D01*
X97209508Y-68142613D01*
X97354651Y-68082137D01*
X97717508Y-68082137D01*
X97862651Y-68142613D01*
X97935222Y-68203089D01*
X98007794Y-68324042D01*
X98007794Y-68626423D01*
X97935222Y-68747375D01*
X97862651Y-68807851D01*
X97717508Y-68868327D01*
X97354651Y-68868327D01*
X97209508Y-68807851D01*
X97136937Y-68747375D01*
X283065097Y-68868327D02*
X283065097Y-67598327D01*
X283573097Y-68505470D01*
X284081097Y-67598327D01*
X284081097Y-68868327D01*
X284661668Y-67598327D02*
X285677668Y-68868327D01*
X285677668Y-67598327D02*
X284661668Y-68868327D01*
X286113097Y-67598327D02*
X287056525Y-67598327D01*
X286548525Y-68082137D01*
X286766240Y-68082137D01*
X286911382Y-68142613D01*
X286983954Y-68203089D01*
X287056525Y-68324042D01*
X287056525Y-68626423D01*
X286983954Y-68747375D01*
X286911382Y-68807851D01*
X286766240Y-68868327D01*
X286330811Y-68868327D01*
X286185668Y-68807851D01*
X286113097Y-68747375D01*
X288507954Y-68868327D02*
X287637097Y-68868327D01*
X288072525Y-68868327D02*
X288072525Y-67598327D01*
X287927382Y-67779756D01*
X287782240Y-67900708D01*
X287637097Y-67961184D01*
X264015081Y-68868327D02*
X264015081Y-67598327D01*
X264523081Y-68505470D01*
X265031081Y-67598327D01*
X265031081Y-68868327D01*
X265611652Y-67598327D02*
X266627652Y-68868327D01*
X266627652Y-67598327D02*
X265611652Y-68868327D01*
X267063081Y-67598327D02*
X268006509Y-67598327D01*
X267498509Y-68082137D01*
X267716224Y-68082137D01*
X267861366Y-68142613D01*
X267933938Y-68203089D01*
X268006509Y-68324042D01*
X268006509Y-68626423D01*
X267933938Y-68747375D01*
X267861366Y-68807851D01*
X267716224Y-68868327D01*
X267280795Y-68868327D01*
X267135652Y-68807851D01*
X267063081Y-68747375D01*
X268514509Y-67598327D02*
X269530509Y-67598327D01*
X268877366Y-68868327D01*
X225915049Y-68868327D02*
X225915049Y-67598327D01*
X226423049Y-68505470D01*
X226931049Y-67598327D01*
X226931049Y-68868327D01*
X227511620Y-67598327D02*
X228527620Y-68868327D01*
X228527620Y-67598327D02*
X227511620Y-68868327D01*
X229761334Y-68021661D02*
X229761334Y-68868327D01*
X229398477Y-67537851D02*
X229035620Y-68444994D01*
X229979049Y-68444994D01*
X230632192Y-68868327D02*
X230922477Y-68868327D01*
X231067620Y-68807851D01*
X231140192Y-68747375D01*
X231285334Y-68565946D01*
X231357906Y-68324042D01*
X231357906Y-67840232D01*
X231285334Y-67719280D01*
X231212763Y-67658804D01*
X231067620Y-67598327D01*
X230777334Y-67598327D01*
X230632192Y-67658804D01*
X230559620Y-67719280D01*
X230487049Y-67840232D01*
X230487049Y-68142613D01*
X230559620Y-68263565D01*
X230632192Y-68324042D01*
X230777334Y-68384518D01*
X231067620Y-68384518D01*
X231212763Y-68324042D01*
X231285334Y-68263565D01*
X231357906Y-68142613D01*
X36140603Y-79918343D02*
X36140603Y-78648343D01*
X36648603Y-79555486D01*
X37156603Y-78648343D01*
X37156603Y-79918343D01*
X37737174Y-78648343D02*
X38753174Y-79918343D01*
X38753174Y-78648343D02*
X37737174Y-79918343D01*
X39551460Y-79192629D02*
X39406317Y-79132153D01*
X39333746Y-79071677D01*
X39261174Y-78950724D01*
X39261174Y-78890248D01*
X39333746Y-78769296D01*
X39406317Y-78708820D01*
X39551460Y-78648343D01*
X39841746Y-78648343D01*
X39986889Y-78708820D01*
X40059460Y-78769296D01*
X40132032Y-78890248D01*
X40132032Y-78950724D01*
X40059460Y-79071677D01*
X39986889Y-79132153D01*
X39841746Y-79192629D01*
X39551460Y-79192629D01*
X39406317Y-79253105D01*
X39333746Y-79313581D01*
X39261174Y-79434534D01*
X39261174Y-79676439D01*
X39333746Y-79797391D01*
X39406317Y-79857867D01*
X39551460Y-79918343D01*
X39841746Y-79918343D01*
X39986889Y-79857867D01*
X40059460Y-79797391D01*
X40132032Y-79676439D01*
X40132032Y-79434534D01*
X40059460Y-79313581D01*
X39986889Y-79253105D01*
X39841746Y-79192629D01*
X54464905Y-87918343D02*
X54464905Y-86648343D01*
X54972905Y-87555486D01*
X55480905Y-86648343D01*
X55480905Y-87918343D01*
X56061476Y-86648343D02*
X57077476Y-87918343D01*
X57077476Y-86648343D02*
X56061476Y-87918343D01*
X58456333Y-87918343D02*
X57585476Y-87918343D01*
X58020905Y-87918343D02*
X58020905Y-86648343D01*
X57875762Y-86829772D01*
X57730619Y-86950724D01*
X57585476Y-87011200D01*
X59762619Y-87071677D02*
X59762619Y-87918343D01*
X59399762Y-86587867D02*
X59036905Y-87495010D01*
X59980333Y-87495010D01*
X225915049Y-87918343D02*
X225915049Y-86648343D01*
X226423049Y-87555486D01*
X226931049Y-86648343D01*
X226931049Y-87918343D01*
X227511620Y-86648343D02*
X228527620Y-87918343D01*
X228527620Y-86648343D02*
X227511620Y-87918343D01*
X229833906Y-86648343D02*
X229108192Y-86648343D01*
X229035620Y-87253105D01*
X229108192Y-87192629D01*
X229253334Y-87132153D01*
X229616192Y-87132153D01*
X229761334Y-87192629D01*
X229833906Y-87253105D01*
X229906477Y-87374058D01*
X229906477Y-87676439D01*
X229833906Y-87797391D01*
X229761334Y-87857867D01*
X229616192Y-87918343D01*
X229253334Y-87918343D01*
X229108192Y-87857867D01*
X229035620Y-87797391D01*
X230849906Y-86648343D02*
X230995049Y-86648343D01*
X231140192Y-86708820D01*
X231212763Y-86769296D01*
X231285334Y-86890248D01*
X231357906Y-87132153D01*
X231357906Y-87434534D01*
X231285334Y-87676439D01*
X231212763Y-87797391D01*
X231140192Y-87857867D01*
X230995049Y-87918343D01*
X230849906Y-87918343D01*
X230704763Y-87857867D01*
X230632192Y-87797391D01*
X230559620Y-87676439D01*
X230487049Y-87434534D01*
X230487049Y-87132153D01*
X230559620Y-86890248D01*
X230632192Y-86769296D01*
X230704763Y-86708820D01*
X230849906Y-86648343D01*
X17090587Y-106968359D02*
X17090587Y-105698359D01*
X17598587Y-106605502D01*
X18106587Y-105698359D01*
X18106587Y-106968359D01*
X18687158Y-105698359D02*
X19703158Y-106968359D01*
X19703158Y-105698359D02*
X18687158Y-106968359D01*
X20138587Y-105698359D02*
X21082016Y-105698359D01*
X20574016Y-106182169D01*
X20791730Y-106182169D01*
X20936873Y-106242645D01*
X21009444Y-106303121D01*
X21082016Y-106424074D01*
X21082016Y-106726455D01*
X21009444Y-106847407D01*
X20936873Y-106907883D01*
X20791730Y-106968359D01*
X20356301Y-106968359D01*
X20211158Y-106907883D01*
X20138587Y-106847407D01*
X36140603Y-106968359D02*
X36140603Y-105698359D01*
X36648603Y-106605502D01*
X37156603Y-105698359D01*
X37156603Y-106968359D01*
X37737174Y-105698359D02*
X38753174Y-106968359D01*
X38753174Y-105698359D02*
X37737174Y-106968359D01*
X39406317Y-106968359D02*
X39696603Y-106968359D01*
X39841746Y-106907883D01*
X39914317Y-106847407D01*
X40059460Y-106665978D01*
X40132032Y-106424074D01*
X40132032Y-105940264D01*
X40059460Y-105819312D01*
X39986889Y-105758836D01*
X39841746Y-105698359D01*
X39551460Y-105698359D01*
X39406317Y-105758836D01*
X39333746Y-105819312D01*
X39261174Y-105940264D01*
X39261174Y-106242645D01*
X39333746Y-106363597D01*
X39406317Y-106424074D01*
X39551460Y-106484550D01*
X39841746Y-106484550D01*
X39986889Y-106424074D01*
X40059460Y-106363597D01*
X40132032Y-106242645D01*
X54464905Y-106968359D02*
X54464905Y-105698359D01*
X54972905Y-106605502D01*
X55480905Y-105698359D01*
X55480905Y-106968359D01*
X56061476Y-105698359D02*
X57077476Y-106968359D01*
X57077476Y-105698359D02*
X56061476Y-106968359D01*
X58456333Y-106968359D02*
X57585476Y-106968359D01*
X58020905Y-106968359D02*
X58020905Y-105698359D01*
X57875762Y-105879788D01*
X57730619Y-106000740D01*
X57585476Y-106061216D01*
X59835190Y-105698359D02*
X59109476Y-105698359D01*
X59036905Y-106303121D01*
X59109476Y-106242645D01*
X59254619Y-106182169D01*
X59617476Y-106182169D01*
X59762619Y-106242645D01*
X59835190Y-106303121D01*
X59907762Y-106424074D01*
X59907762Y-106726455D01*
X59835190Y-106847407D01*
X59762619Y-106907883D01*
X59617476Y-106968359D01*
X59254619Y-106968359D01*
X59109476Y-106907883D01*
X59036905Y-106847407D01*
X92564937Y-87918343D02*
X92564937Y-86648343D01*
X93072937Y-87555486D01*
X93580937Y-86648343D01*
X93580937Y-87918343D01*
X94161508Y-86648343D02*
X95177508Y-87918343D01*
X95177508Y-86648343D02*
X94161508Y-87918343D01*
X95685508Y-86769296D02*
X95758080Y-86708820D01*
X95903222Y-86648343D01*
X96266080Y-86648343D01*
X96411222Y-86708820D01*
X96483794Y-86769296D01*
X96556365Y-86890248D01*
X96556365Y-87011200D01*
X96483794Y-87192629D01*
X95612937Y-87918343D01*
X96556365Y-87918343D01*
X98007794Y-87918343D02*
X97136937Y-87918343D01*
X97572365Y-87918343D02*
X97572365Y-86648343D01*
X97427222Y-86829772D01*
X97282080Y-86950724D01*
X97136937Y-87011200D01*
X206865033Y-87918343D02*
X206865033Y-86648343D01*
X207373033Y-87555486D01*
X207881033Y-86648343D01*
X207881033Y-87918343D01*
X208461604Y-86648343D02*
X209477604Y-87918343D01*
X209477604Y-86648343D02*
X208461604Y-87918343D01*
X210783890Y-86648343D02*
X210058176Y-86648343D01*
X209985604Y-87253105D01*
X210058176Y-87192629D01*
X210203318Y-87132153D01*
X210566176Y-87132153D01*
X210711318Y-87192629D01*
X210783890Y-87253105D01*
X210856461Y-87374058D01*
X210856461Y-87676439D01*
X210783890Y-87797391D01*
X210711318Y-87857867D01*
X210566176Y-87918343D01*
X210203318Y-87918343D01*
X210058176Y-87857867D01*
X209985604Y-87797391D01*
X212307890Y-87918343D02*
X211437033Y-87918343D01*
X211872461Y-87918343D02*
X211872461Y-86648343D01*
X211727318Y-86829772D01*
X211582176Y-86950724D01*
X211437033Y-87011200D01*
X17090587Y-126018375D02*
X17090587Y-124748375D01*
X17598587Y-125655518D01*
X18106587Y-124748375D01*
X18106587Y-126018375D01*
X18687158Y-124748375D02*
X19703158Y-126018375D01*
X19703158Y-124748375D02*
X18687158Y-126018375D01*
X20936873Y-125171709D02*
X20936873Y-126018375D01*
X20574016Y-124687899D02*
X20211158Y-125595042D01*
X21154587Y-125595042D01*
X35414889Y-126018375D02*
X35414889Y-124748375D01*
X35922889Y-125655518D01*
X36430889Y-124748375D01*
X36430889Y-126018375D01*
X37011460Y-124748375D02*
X38027460Y-126018375D01*
X38027460Y-124748375D02*
X37011460Y-126018375D01*
X39406317Y-126018375D02*
X38535460Y-126018375D01*
X38970889Y-126018375D02*
X38970889Y-124748375D01*
X38825746Y-124929804D01*
X38680603Y-125050756D01*
X38535460Y-125111232D01*
X40349746Y-124748375D02*
X40494889Y-124748375D01*
X40640032Y-124808852D01*
X40712603Y-124869328D01*
X40785174Y-124990280D01*
X40857746Y-125232185D01*
X40857746Y-125534566D01*
X40785174Y-125776471D01*
X40712603Y-125897423D01*
X40640032Y-125957899D01*
X40494889Y-126018375D01*
X40349746Y-126018375D01*
X40204603Y-125957899D01*
X40132032Y-125897423D01*
X40059460Y-125776471D01*
X39986889Y-125534566D01*
X39986889Y-125232185D01*
X40059460Y-124990280D01*
X40132032Y-124869328D01*
X40204603Y-124808852D01*
X40349746Y-124748375D01*
X73514921Y-106968359D02*
X73514921Y-105698359D01*
X74022921Y-106605502D01*
X74530921Y-105698359D01*
X74530921Y-106968359D01*
X75111492Y-105698359D02*
X76127492Y-106968359D01*
X76127492Y-105698359D02*
X75111492Y-106968359D01*
X77506349Y-106968359D02*
X76635492Y-106968359D01*
X77070921Y-106968359D02*
X77070921Y-105698359D01*
X76925778Y-105879788D01*
X76780635Y-106000740D01*
X76635492Y-106061216D01*
X78812635Y-105698359D02*
X78522349Y-105698359D01*
X78377206Y-105758836D01*
X78304635Y-105819312D01*
X78159492Y-106000740D01*
X78086921Y-106242645D01*
X78086921Y-106726455D01*
X78159492Y-106847407D01*
X78232064Y-106907883D01*
X78377206Y-106968359D01*
X78667492Y-106968359D01*
X78812635Y-106907883D01*
X78885206Y-106847407D01*
X78957778Y-106726455D01*
X78957778Y-106424074D01*
X78885206Y-106303121D01*
X78812635Y-106242645D01*
X78667492Y-106182169D01*
X78377206Y-106182169D01*
X78232064Y-106242645D01*
X78159492Y-106303121D01*
X78086921Y-106424074D01*
X92564937Y-106968359D02*
X92564937Y-105698359D01*
X93072937Y-106605502D01*
X93580937Y-105698359D01*
X93580937Y-106968359D01*
X94161508Y-105698359D02*
X95177508Y-106968359D01*
X95177508Y-105698359D02*
X94161508Y-106968359D01*
X95685508Y-105819312D02*
X95758080Y-105758836D01*
X95903222Y-105698359D01*
X96266080Y-105698359D01*
X96411222Y-105758836D01*
X96483794Y-105819312D01*
X96556365Y-105940264D01*
X96556365Y-106061216D01*
X96483794Y-106242645D01*
X95612937Y-106968359D01*
X96556365Y-106968359D01*
X97136937Y-105819312D02*
X97209508Y-105758836D01*
X97354651Y-105698359D01*
X97717508Y-105698359D01*
X97862651Y-105758836D01*
X97935222Y-105819312D01*
X98007794Y-105940264D01*
X98007794Y-106061216D01*
X97935222Y-106242645D01*
X97064365Y-106968359D01*
X98007794Y-106968359D01*
X17090587Y-145068391D02*
X17090587Y-143798391D01*
X17598587Y-144705534D01*
X18106587Y-143798391D01*
X18106587Y-145068391D01*
X18687158Y-143798391D02*
X19703158Y-145068391D01*
X19703158Y-143798391D02*
X18687158Y-145068391D01*
X21009444Y-143798391D02*
X20283730Y-143798391D01*
X20211158Y-144403153D01*
X20283730Y-144342677D01*
X20428873Y-144282201D01*
X20791730Y-144282201D01*
X20936873Y-144342677D01*
X21009444Y-144403153D01*
X21082016Y-144524106D01*
X21082016Y-144826487D01*
X21009444Y-144947439D01*
X20936873Y-145007915D01*
X20791730Y-145068391D01*
X20428873Y-145068391D01*
X20283730Y-145007915D01*
X20211158Y-144947439D01*
X54464905Y-126018375D02*
X54464905Y-124748375D01*
X54972905Y-125655518D01*
X55480905Y-124748375D01*
X55480905Y-126018375D01*
X56061476Y-124748375D02*
X57077476Y-126018375D01*
X57077476Y-124748375D02*
X56061476Y-126018375D01*
X58456333Y-126018375D02*
X57585476Y-126018375D01*
X58020905Y-126018375D02*
X58020905Y-124748375D01*
X57875762Y-124929804D01*
X57730619Y-125050756D01*
X57585476Y-125111232D01*
X59907762Y-126018375D02*
X59036905Y-126018375D01*
X59472333Y-126018375D02*
X59472333Y-124748375D01*
X59327190Y-124929804D01*
X59182048Y-125050756D01*
X59036905Y-125111232D01*
X73514921Y-126018375D02*
X73514921Y-124748375D01*
X74022921Y-125655518D01*
X74530921Y-124748375D01*
X74530921Y-126018375D01*
X75111492Y-124748375D02*
X76127492Y-126018375D01*
X76127492Y-124748375D02*
X75111492Y-126018375D01*
X77506349Y-126018375D02*
X76635492Y-126018375D01*
X77070921Y-126018375D02*
X77070921Y-124748375D01*
X76925778Y-124929804D01*
X76780635Y-125050756D01*
X76635492Y-125111232D01*
X78014349Y-124748375D02*
X79030349Y-124748375D01*
X78377206Y-126018375D01*
X92564937Y-126018375D02*
X92564937Y-124748375D01*
X93072937Y-125655518D01*
X93580937Y-124748375D01*
X93580937Y-126018375D01*
X94161508Y-124748375D02*
X95177508Y-126018375D01*
X95177508Y-124748375D02*
X94161508Y-126018375D01*
X95685508Y-124869328D02*
X95758080Y-124808852D01*
X95903222Y-124748375D01*
X96266080Y-124748375D01*
X96411222Y-124808852D01*
X96483794Y-124869328D01*
X96556365Y-124990280D01*
X96556365Y-125111232D01*
X96483794Y-125292661D01*
X95612937Y-126018375D01*
X96556365Y-126018375D01*
X97064365Y-124748375D02*
X98007794Y-124748375D01*
X97499794Y-125232185D01*
X97717508Y-125232185D01*
X97862651Y-125292661D01*
X97935222Y-125353137D01*
X98007794Y-125474090D01*
X98007794Y-125776471D01*
X97935222Y-125897423D01*
X97862651Y-125957899D01*
X97717508Y-126018375D01*
X97282080Y-126018375D01*
X97136937Y-125957899D01*
X97064365Y-125897423D01*
X36140603Y-145068391D02*
X36140603Y-143798391D01*
X36648603Y-144705534D01*
X37156603Y-143798391D01*
X37156603Y-145068391D01*
X37737174Y-143798391D02*
X38753174Y-145068391D01*
X38753174Y-143798391D02*
X37737174Y-145068391D01*
X39986889Y-143798391D02*
X39696603Y-143798391D01*
X39551460Y-143858868D01*
X39478889Y-143919344D01*
X39333746Y-144100772D01*
X39261174Y-144342677D01*
X39261174Y-144826487D01*
X39333746Y-144947439D01*
X39406317Y-145007915D01*
X39551460Y-145068391D01*
X39841746Y-145068391D01*
X39986889Y-145007915D01*
X40059460Y-144947439D01*
X40132032Y-144826487D01*
X40132032Y-144524106D01*
X40059460Y-144403153D01*
X39986889Y-144342677D01*
X39841746Y-144282201D01*
X39551460Y-144282201D01*
X39406317Y-144342677D01*
X39333746Y-144403153D01*
X39261174Y-144524106D01*
X73514921Y-145068391D02*
X73514921Y-143798391D01*
X74022921Y-144705534D01*
X74530921Y-143798391D01*
X74530921Y-145068391D01*
X75111492Y-143798391D02*
X76127492Y-145068391D01*
X76127492Y-143798391D02*
X75111492Y-145068391D01*
X77506349Y-145068391D02*
X76635492Y-145068391D01*
X77070921Y-145068391D02*
X77070921Y-143798391D01*
X76925778Y-143979820D01*
X76780635Y-144100772D01*
X76635492Y-144161248D01*
X78377206Y-144342677D02*
X78232064Y-144282201D01*
X78159492Y-144221725D01*
X78086921Y-144100772D01*
X78086921Y-144040296D01*
X78159492Y-143919344D01*
X78232064Y-143858868D01*
X78377206Y-143798391D01*
X78667492Y-143798391D01*
X78812635Y-143858868D01*
X78885206Y-143919344D01*
X78957778Y-144040296D01*
X78957778Y-144100772D01*
X78885206Y-144221725D01*
X78812635Y-144282201D01*
X78667492Y-144342677D01*
X78377206Y-144342677D01*
X78232064Y-144403153D01*
X78159492Y-144463629D01*
X78086921Y-144584582D01*
X78086921Y-144826487D01*
X78159492Y-144947439D01*
X78232064Y-145007915D01*
X78377206Y-145068391D01*
X78667492Y-145068391D01*
X78812635Y-145007915D01*
X78885206Y-144947439D01*
X78957778Y-144826487D01*
X78957778Y-144584582D01*
X78885206Y-144463629D01*
X78812635Y-144403153D01*
X78667492Y-144342677D01*
D11*
X143232262Y-128158961D02*
X143279881Y-128206580D01*
X143327500Y-128349437D01*
X143327500Y-128444675D01*
X143279881Y-128587533D01*
X143184643Y-128682771D01*
X143089405Y-128730390D01*
X142898929Y-128778009D01*
X142756072Y-128778009D01*
X142565596Y-128730390D01*
X142470358Y-128682771D01*
X142375120Y-128587533D01*
X142327500Y-128444675D01*
X142327500Y-128349437D01*
X142375120Y-128206580D01*
X142422739Y-128158961D01*
X142327500Y-127825628D02*
X142327500Y-127206580D01*
X142708453Y-127539914D01*
X142708453Y-127397056D01*
X142756072Y-127301818D01*
X142803691Y-127254199D01*
X142898929Y-127206580D01*
X143137024Y-127206580D01*
X143232262Y-127254199D01*
X143279881Y-127301818D01*
X143327500Y-127397056D01*
X143327500Y-127682771D01*
X143279881Y-127778009D01*
X143232262Y-127825628D01*
X163472904Y-126968335D02*
X163520523Y-127015954D01*
X163568142Y-127158811D01*
X163568142Y-127254049D01*
X163520523Y-127396907D01*
X163425285Y-127492145D01*
X163330047Y-127539764D01*
X163139571Y-127587383D01*
X162996714Y-127587383D01*
X162806238Y-127539764D01*
X162711000Y-127492145D01*
X162615762Y-127396907D01*
X162568142Y-127254049D01*
X162568142Y-127158811D01*
X162615762Y-127015954D01*
X162663381Y-126968335D01*
X162901476Y-126111192D02*
X163568142Y-126111192D01*
X162520523Y-126349288D02*
X163234809Y-126587383D01*
X163234809Y-125968335D01*
X157339271Y-127163573D02*
X156882129Y-127163573D01*
X157110700Y-127163573D02*
X157110700Y-126363573D01*
X157034510Y-126477859D01*
X156958319Y-126554049D01*
X156882129Y-126592145D01*
X157834510Y-126363573D02*
X157910700Y-126363573D01*
X157986890Y-126401669D01*
X158024986Y-126439764D01*
X158063081Y-126515954D01*
X158101176Y-126668335D01*
X158101176Y-126858811D01*
X158063081Y-127011192D01*
X158024986Y-127087383D01*
X157986890Y-127125478D01*
X157910700Y-127163573D01*
X157834510Y-127163573D01*
X157758319Y-127125478D01*
X157720224Y-127087383D01*
X157682129Y-127011192D01*
X157644033Y-126858811D01*
X157644033Y-126668335D01*
X157682129Y-126515954D01*
X157720224Y-126439764D01*
X157758319Y-126401669D01*
X157834510Y-126363573D01*
X158596414Y-126363573D02*
X158672605Y-126363573D01*
X158748795Y-126401669D01*
X158786890Y-126439764D01*
X158824986Y-126515954D01*
X158863081Y-126668335D01*
X158863081Y-126858811D01*
X158824986Y-127011192D01*
X158786890Y-127087383D01*
X158748795Y-127125478D01*
X158672605Y-127163573D01*
X158596414Y-127163573D01*
X158520224Y-127125478D01*
X158482129Y-127087383D01*
X158444033Y-127011192D01*
X158405938Y-126858811D01*
X158405938Y-126668335D01*
X158444033Y-126515954D01*
X158482129Y-126439764D01*
X158520224Y-126401669D01*
X158596414Y-126363573D01*
X159205938Y-126630240D02*
X159205938Y-127163573D01*
X159205938Y-126706430D02*
X159244033Y-126668335D01*
X159320224Y-126630240D01*
X159434510Y-126630240D01*
X159510700Y-126668335D01*
X159548795Y-126744526D01*
X159548795Y-127163573D01*
X163472904Y-129944900D02*
X163520523Y-129992519D01*
X163568142Y-130135376D01*
X163568142Y-130230614D01*
X163520523Y-130373472D01*
X163425285Y-130468710D01*
X163330047Y-130516329D01*
X163139571Y-130563948D01*
X162996714Y-130563948D01*
X162806238Y-130516329D01*
X162711000Y-130468710D01*
X162615762Y-130373472D01*
X162568142Y-130230614D01*
X162568142Y-130135376D01*
X162615762Y-129992519D01*
X162663381Y-129944900D01*
X162568142Y-129040138D02*
X162568142Y-129516329D01*
X163044333Y-129563948D01*
X162996714Y-129516329D01*
X162949095Y-129421091D01*
X162949095Y-129182995D01*
X162996714Y-129087757D01*
X163044333Y-129040138D01*
X163139571Y-128992519D01*
X163377666Y-128992519D01*
X163472904Y-129040138D01*
X163520523Y-129087757D01*
X163568142Y-129182995D01*
X163568142Y-129421091D01*
X163520523Y-129516329D01*
X163472904Y-129563948D01*
X157458019Y-130140138D02*
X157000877Y-130140138D01*
X157229448Y-130140138D02*
X157229448Y-129340138D01*
X157153258Y-129454424D01*
X157077067Y-129530614D01*
X157000877Y-129568710D01*
X157953258Y-129340138D02*
X158029448Y-129340138D01*
X158105638Y-129378234D01*
X158143734Y-129416329D01*
X158181829Y-129492519D01*
X158219924Y-129644900D01*
X158219924Y-129835376D01*
X158181829Y-129987757D01*
X158143734Y-130063948D01*
X158105638Y-130102043D01*
X158029448Y-130140138D01*
X157953258Y-130140138D01*
X157877067Y-130102043D01*
X157838972Y-130063948D01*
X157800877Y-129987757D01*
X157762781Y-129835376D01*
X157762781Y-129644900D01*
X157800877Y-129492519D01*
X157838972Y-129416329D01*
X157877067Y-129378234D01*
X157953258Y-129340138D01*
X158715162Y-129340138D02*
X158791353Y-129340138D01*
X158867543Y-129378234D01*
X158905638Y-129416329D01*
X158943734Y-129492519D01*
X158981829Y-129644900D01*
X158981829Y-129835376D01*
X158943734Y-129987757D01*
X158905638Y-130063948D01*
X158867543Y-130102043D01*
X158791353Y-130140138D01*
X158715162Y-130140138D01*
X158638972Y-130102043D01*
X158600877Y-130063948D01*
X158562781Y-129987757D01*
X158524686Y-129835376D01*
X158524686Y-129644900D01*
X158562781Y-129492519D01*
X158600877Y-129416329D01*
X158638972Y-129378234D01*
X158715162Y-129340138D01*
X159324686Y-129606805D02*
X159324686Y-130140138D01*
X159324686Y-129682995D02*
X159362781Y-129644900D01*
X159438972Y-129606805D01*
X159553258Y-129606805D01*
X159629448Y-129644900D01*
X159667543Y-129721091D01*
X159667543Y-130140138D01*
X142636949Y-95476120D02*
X142684568Y-95523739D01*
X142732187Y-95666596D01*
X142732187Y-95761834D01*
X142684568Y-95904692D01*
X142589330Y-95999930D01*
X142494092Y-96047549D01*
X142303616Y-96095168D01*
X142160759Y-96095168D01*
X141970283Y-96047549D01*
X141875045Y-95999930D01*
X141779807Y-95904692D01*
X141732187Y-95761834D01*
X141732187Y-95666596D01*
X141779807Y-95523739D01*
X141827426Y-95476120D01*
X142732187Y-94523739D02*
X142732187Y-95095168D01*
X142732187Y-94809454D02*
X141732187Y-94809454D01*
X141875045Y-94904692D01*
X141970283Y-94999930D01*
X142017902Y-95095168D01*
X142636949Y-90118303D02*
X142684568Y-90165922D01*
X142732187Y-90308779D01*
X142732187Y-90404017D01*
X142684568Y-90546875D01*
X142589330Y-90642113D01*
X142494092Y-90689732D01*
X142303616Y-90737351D01*
X142160759Y-90737351D01*
X141970283Y-90689732D01*
X141875045Y-90642113D01*
X141779807Y-90546875D01*
X141732187Y-90404017D01*
X141732187Y-90308779D01*
X141779807Y-90165922D01*
X141827426Y-90118303D01*
X141827426Y-89737351D02*
X141779807Y-89689732D01*
X141732187Y-89594494D01*
X141732187Y-89356398D01*
X141779807Y-89261160D01*
X141827426Y-89213541D01*
X141922664Y-89165922D01*
X142017902Y-89165922D01*
X142160759Y-89213541D01*
X142732187Y-89784970D01*
X142732187Y-89165922D01*
X141136874Y-81903333D02*
X141851160Y-81903333D01*
X141994017Y-81950952D01*
X142089255Y-82046190D01*
X142136874Y-82189047D01*
X142136874Y-82284285D01*
X141232113Y-81474761D02*
X141184494Y-81427142D01*
X141136874Y-81331904D01*
X141136874Y-81093809D01*
X141184494Y-80998571D01*
X141232113Y-80950952D01*
X141327351Y-80903333D01*
X141422589Y-80903333D01*
X141565446Y-80950952D01*
X142136874Y-81522380D01*
X142136874Y-80903333D01*
X162218768Y-64817538D02*
X162218768Y-65293729D01*
X161218768Y-65293729D01*
X161694959Y-64484205D02*
X161694959Y-64150871D01*
X162218768Y-64008014D02*
X162218768Y-64484205D01*
X161218768Y-64484205D01*
X161218768Y-64008014D01*
X162218768Y-63579443D02*
X161218768Y-63579443D01*
X161218768Y-63341348D01*
X161266388Y-63198491D01*
X161361626Y-63103252D01*
X161456864Y-63055633D01*
X161647340Y-63008014D01*
X161790197Y-63008014D01*
X161980673Y-63055633D01*
X162075911Y-63103252D01*
X162171149Y-63198491D01*
X162218768Y-63341348D01*
X162218768Y-63579443D01*
X161314007Y-62627062D02*
X161266388Y-62579443D01*
X161218768Y-62484205D01*
X161218768Y-62246110D01*
X161266388Y-62150871D01*
X161314007Y-62103252D01*
X161409245Y-62055633D01*
X161504483Y-62055633D01*
X161647340Y-62103252D01*
X162218768Y-62674681D01*
X162218768Y-62055633D01*
X142470507Y-73688084D02*
X142518126Y-73545227D01*
X142518126Y-73307131D01*
X142470507Y-73211893D01*
X142422888Y-73164274D01*
X142327650Y-73116655D01*
X142232412Y-73116655D01*
X142137174Y-73164274D01*
X142089555Y-73211893D01*
X142041936Y-73307131D01*
X141994317Y-73497608D01*
X141946698Y-73592846D01*
X141899079Y-73640465D01*
X141803841Y-73688084D01*
X141708603Y-73688084D01*
X141613365Y-73640465D01*
X141565746Y-73592846D01*
X141518126Y-73497608D01*
X141518126Y-73259512D01*
X141565746Y-73116655D01*
X141518126Y-72783322D02*
X142518126Y-72545227D01*
X141803841Y-72354751D01*
X142518126Y-72164274D01*
X141518126Y-71926179D01*
X142518126Y-71021417D02*
X142518126Y-71592846D01*
X142518126Y-71307131D02*
X141518126Y-71307131D01*
X141660984Y-71402370D01*
X141756222Y-71497608D01*
X141803841Y-71592846D01*
X151066569Y-74080566D02*
X150590379Y-74413900D01*
X151066569Y-74651995D02*
X150066569Y-74651995D01*
X150066569Y-74271043D01*
X150114189Y-74175805D01*
X150161808Y-74128186D01*
X150257046Y-74080566D01*
X150399903Y-74080566D01*
X150495141Y-74128186D01*
X150542760Y-74175805D01*
X150590379Y-74271043D01*
X150590379Y-74651995D01*
X150542760Y-73651995D02*
X150542760Y-73318662D01*
X151066569Y-73175805D02*
X151066569Y-73651995D01*
X150066569Y-73651995D01*
X150066569Y-73175805D01*
X151018950Y-72794852D02*
X151066569Y-72651995D01*
X151066569Y-72413900D01*
X151018950Y-72318662D01*
X150971331Y-72271043D01*
X150876093Y-72223424D01*
X150780855Y-72223424D01*
X150685617Y-72271043D01*
X150637998Y-72318662D01*
X150590379Y-72413900D01*
X150542760Y-72604376D01*
X150495141Y-72699614D01*
X150447522Y-72747233D01*
X150352284Y-72794852D01*
X150257046Y-72794852D01*
X150161808Y-72747233D01*
X150114189Y-72699614D01*
X150066569Y-72604376D01*
X150066569Y-72366281D01*
X150114189Y-72223424D01*
X150542760Y-71794852D02*
X150542760Y-71461519D01*
X151066569Y-71318662D02*
X151066569Y-71794852D01*
X150066569Y-71794852D01*
X150066569Y-71318662D01*
X150066569Y-71032947D02*
X150066569Y-70461519D01*
X151066569Y-70747233D02*
X150066569Y-70747233D01*
X142470507Y-105239673D02*
X142518126Y-105096816D01*
X142518126Y-104858720D01*
X142470507Y-104763482D01*
X142422888Y-104715863D01*
X142327650Y-104668244D01*
X142232412Y-104668244D01*
X142137174Y-104715863D01*
X142089555Y-104763482D01*
X142041936Y-104858720D01*
X141994317Y-105049197D01*
X141946698Y-105144435D01*
X141899079Y-105192054D01*
X141803841Y-105239673D01*
X141708603Y-105239673D01*
X141613365Y-105192054D01*
X141565746Y-105144435D01*
X141518126Y-105049197D01*
X141518126Y-104811101D01*
X141565746Y-104668244D01*
X141518126Y-104334911D02*
X142518126Y-104096816D01*
X141803841Y-103906340D01*
X142518126Y-103715863D01*
X141518126Y-103477768D01*
X141613365Y-103144435D02*
X141565746Y-103096816D01*
X141518126Y-103001578D01*
X141518126Y-102763482D01*
X141565746Y-102668244D01*
X141613365Y-102620625D01*
X141708603Y-102573006D01*
X141803841Y-102573006D01*
X141946698Y-102620625D01*
X142518126Y-103192054D01*
X142518126Y-102573006D01*
X150542760Y-105536917D02*
X150590379Y-105394060D01*
X150637998Y-105346441D01*
X150733236Y-105298822D01*
X150876093Y-105298822D01*
X150971331Y-105346441D01*
X151018950Y-105394060D01*
X151066569Y-105489298D01*
X151066569Y-105870251D01*
X150066569Y-105870251D01*
X150066569Y-105536917D01*
X150114189Y-105441679D01*
X150161808Y-105394060D01*
X150257046Y-105346441D01*
X150352284Y-105346441D01*
X150447522Y-105394060D01*
X150495141Y-105441679D01*
X150542760Y-105536917D01*
X150542760Y-105870251D01*
X150066569Y-104679775D02*
X150066569Y-104489298D01*
X150114189Y-104394060D01*
X150209427Y-104298822D01*
X150399903Y-104251203D01*
X150733236Y-104251203D01*
X150923712Y-104298822D01*
X151018950Y-104394060D01*
X151066569Y-104489298D01*
X151066569Y-104679775D01*
X151018950Y-104775013D01*
X150923712Y-104870251D01*
X150733236Y-104917870D01*
X150399903Y-104917870D01*
X150209427Y-104870251D01*
X150114189Y-104775013D01*
X150066569Y-104679775D01*
X150066569Y-103632155D02*
X150066569Y-103441679D01*
X150114189Y-103346441D01*
X150209427Y-103251203D01*
X150399903Y-103203584D01*
X150733236Y-103203584D01*
X150923712Y-103251203D01*
X151018950Y-103346441D01*
X151066569Y-103441679D01*
X151066569Y-103632155D01*
X151018950Y-103727394D01*
X150923712Y-103822632D01*
X150733236Y-103870251D01*
X150399903Y-103870251D01*
X150209427Y-103822632D01*
X150114189Y-103727394D01*
X150066569Y-103632155D01*
X150066569Y-102917870D02*
X150066569Y-102346441D01*
X151066569Y-102632155D02*
X150066569Y-102632155D01*
X152376318Y-92749705D02*
X152852508Y-92749705D01*
X151852508Y-93083038D02*
X152376318Y-92749705D01*
X151852508Y-92416372D01*
X152852508Y-91559229D02*
X152852508Y-92130657D01*
X152852508Y-91844943D02*
X151852508Y-91844943D01*
X151995366Y-91940181D01*
X152090604Y-92035419D01*
X152138223Y-92130657D01*
X163758768Y-86486976D02*
X164568292Y-86486976D01*
X164663530Y-86439357D01*
X164711149Y-86391738D01*
X164758768Y-86296500D01*
X164758768Y-86106024D01*
X164711149Y-86010786D01*
X164663530Y-85963167D01*
X164568292Y-85915548D01*
X163758768Y-85915548D01*
X164758768Y-84915548D02*
X164758768Y-85486976D01*
X164758768Y-85201262D02*
X163758768Y-85201262D01*
X163901626Y-85296500D01*
X163996864Y-85391738D01*
X164044483Y-85486976D01*
X165342715Y-123253450D02*
X164342715Y-123253450D01*
X164342715Y-123015355D01*
X164390335Y-122872498D01*
X164485573Y-122777260D01*
X164580811Y-122729641D01*
X164771287Y-122682022D01*
X164914144Y-122682022D01*
X165104620Y-122729641D01*
X165199858Y-122777260D01*
X165295096Y-122872498D01*
X165342715Y-123015355D01*
X165342715Y-123253450D01*
X164342715Y-121824879D02*
X164342715Y-122015355D01*
X164390335Y-122110593D01*
X164437954Y-122158212D01*
X164580811Y-122253450D01*
X164771287Y-122301069D01*
X165152239Y-122301069D01*
X165247477Y-122253450D01*
X165295096Y-122205831D01*
X165342715Y-122110593D01*
X165342715Y-121920117D01*
X165295096Y-121824879D01*
X165247477Y-121777260D01*
X165152239Y-121729641D01*
X164914144Y-121729641D01*
X164818906Y-121777260D01*
X164771287Y-121824879D01*
X164723668Y-121920117D01*
X164723668Y-122110593D01*
X164771287Y-122205831D01*
X164818906Y-122253450D01*
X164914144Y-122301069D01*
X164342715Y-120872498D02*
X164342715Y-121062974D01*
X164390335Y-121158212D01*
X164437954Y-121205831D01*
X164580811Y-121301069D01*
X164771287Y-121348688D01*
X165152239Y-121348688D01*
X165247477Y-121301069D01*
X165295096Y-121253450D01*
X165342715Y-121158212D01*
X165342715Y-120967736D01*
X165295096Y-120872498D01*
X165247477Y-120824879D01*
X165152239Y-120777260D01*
X164914144Y-120777260D01*
X164818906Y-120824879D01*
X164771287Y-120872498D01*
X164723668Y-120967736D01*
X164723668Y-121158212D01*
X164771287Y-121253450D01*
X164818906Y-121301069D01*
X164914144Y-121348688D01*
X157886687Y-121005756D02*
X158381925Y-121005756D01*
X158115259Y-121310518D01*
X158229544Y-121310518D01*
X158305735Y-121348613D01*
X158343830Y-121386709D01*
X158381925Y-121462899D01*
X158381925Y-121653375D01*
X158343830Y-121729566D01*
X158305735Y-121767661D01*
X158229544Y-121805756D01*
X158000973Y-121805756D01*
X157924782Y-121767661D01*
X157886687Y-121729566D01*
X158724782Y-121729566D02*
X158762878Y-121767661D01*
X158724782Y-121805756D01*
X158686687Y-121767661D01*
X158724782Y-121729566D01*
X158724782Y-121805756D01*
X159448592Y-121005756D02*
X159296211Y-121005756D01*
X159220020Y-121043852D01*
X159181925Y-121081947D01*
X159105735Y-121196232D01*
X159067640Y-121348613D01*
X159067640Y-121653375D01*
X159105735Y-121729566D01*
X159143830Y-121767661D01*
X159220020Y-121805756D01*
X159372401Y-121805756D01*
X159448592Y-121767661D01*
X159486687Y-121729566D01*
X159524782Y-121653375D01*
X159524782Y-121462899D01*
X159486687Y-121386709D01*
X159448592Y-121348613D01*
X159372401Y-121310518D01*
X159220020Y-121310518D01*
X159143830Y-121348613D01*
X159105735Y-121386709D01*
X159067640Y-121462899D01*
X159753354Y-121005756D02*
X160020020Y-121805756D01*
X160286687Y-121005756D01*
X165354081Y-119086259D02*
X164354081Y-119086259D01*
X164354081Y-118848164D01*
X164401701Y-118705307D01*
X164496939Y-118610069D01*
X164592177Y-118562450D01*
X164782653Y-118514831D01*
X164925510Y-118514831D01*
X165115986Y-118562450D01*
X165211224Y-118610069D01*
X165306462Y-118705307D01*
X165354081Y-118848164D01*
X165354081Y-119086259D01*
X164354081Y-117657688D02*
X164354081Y-117848164D01*
X164401701Y-117943402D01*
X164449320Y-117991021D01*
X164592177Y-118086259D01*
X164782653Y-118133878D01*
X165163605Y-118133878D01*
X165258843Y-118086259D01*
X165306462Y-118038640D01*
X165354081Y-117943402D01*
X165354081Y-117752926D01*
X165306462Y-117657688D01*
X165258843Y-117610069D01*
X165163605Y-117562450D01*
X164925510Y-117562450D01*
X164830272Y-117610069D01*
X164782653Y-117657688D01*
X164735034Y-117752926D01*
X164735034Y-117943402D01*
X164782653Y-118038640D01*
X164830272Y-118086259D01*
X164925510Y-118133878D01*
X164354081Y-117229116D02*
X164354081Y-116562450D01*
X165354081Y-116991021D01*
X157886687Y-118029191D02*
X158381925Y-118029191D01*
X158115259Y-118333953D01*
X158229544Y-118333953D01*
X158305735Y-118372048D01*
X158343830Y-118410144D01*
X158381925Y-118486334D01*
X158381925Y-118676810D01*
X158343830Y-118753001D01*
X158305735Y-118791096D01*
X158229544Y-118829191D01*
X158000973Y-118829191D01*
X157924782Y-118791096D01*
X157886687Y-118753001D01*
X158724782Y-118753001D02*
X158762878Y-118791096D01*
X158724782Y-118829191D01*
X158686687Y-118791096D01*
X158724782Y-118753001D01*
X158724782Y-118829191D01*
X159448592Y-118029191D02*
X159296211Y-118029191D01*
X159220020Y-118067287D01*
X159181925Y-118105382D01*
X159105735Y-118219667D01*
X159067640Y-118372048D01*
X159067640Y-118676810D01*
X159105735Y-118753001D01*
X159143830Y-118791096D01*
X159220020Y-118829191D01*
X159372401Y-118829191D01*
X159448592Y-118791096D01*
X159486687Y-118753001D01*
X159524782Y-118676810D01*
X159524782Y-118486334D01*
X159486687Y-118410144D01*
X159448592Y-118372048D01*
X159372401Y-118333953D01*
X159220020Y-118333953D01*
X159143830Y-118372048D01*
X159105735Y-118410144D01*
X159067640Y-118486334D01*
X159753354Y-118029191D02*
X160020020Y-118829191D01*
X160286687Y-118029191D01*
X125468260Y-65341497D02*
X125468260Y-64341497D01*
X125706356Y-64341497D01*
X125849213Y-64389117D01*
X125944451Y-64484355D01*
X125992070Y-64579593D01*
X126039689Y-64770069D01*
X126039689Y-64912926D01*
X125992070Y-65103402D01*
X125944451Y-65198640D01*
X125849213Y-65293878D01*
X125706356Y-65341497D01*
X125468260Y-65341497D01*
X126992070Y-65341497D02*
X126420641Y-65341497D01*
X126706356Y-65341497D02*
X126706356Y-64341497D01*
X126611117Y-64484355D01*
X126515879Y-64579593D01*
X126420641Y-64627212D01*
X135588581Y-68318062D02*
X135588581Y-67318062D01*
X135826677Y-67318062D01*
X135969534Y-67365682D01*
X136064772Y-67460920D01*
X136112391Y-67556158D01*
X136160010Y-67746634D01*
X136160010Y-67889491D01*
X136112391Y-68079967D01*
X136064772Y-68175205D01*
X135969534Y-68270443D01*
X135826677Y-68318062D01*
X135588581Y-68318062D01*
X136493343Y-67318062D02*
X137160010Y-67318062D01*
X136731438Y-68318062D01*
X124992070Y-71294627D02*
X124992070Y-70294627D01*
X125230165Y-70294627D01*
X125373022Y-70342247D01*
X125468260Y-70437485D01*
X125515879Y-70532723D01*
X125563498Y-70723199D01*
X125563498Y-70866056D01*
X125515879Y-71056532D01*
X125468260Y-71151770D01*
X125373022Y-71247008D01*
X125230165Y-71294627D01*
X124992070Y-71294627D01*
X126515879Y-71294627D02*
X125944451Y-71294627D01*
X126230165Y-71294627D02*
X126230165Y-70294627D01*
X126134927Y-70437485D01*
X126039689Y-70532723D01*
X125944451Y-70580342D01*
X126849213Y-70294627D02*
X127468260Y-70294627D01*
X127134927Y-70675580D01*
X127277784Y-70675580D01*
X127373022Y-70723199D01*
X127420641Y-70770818D01*
X127468260Y-70866056D01*
X127468260Y-71104151D01*
X127420641Y-71199389D01*
X127373022Y-71247008D01*
X127277784Y-71294627D01*
X126992070Y-71294627D01*
X126896832Y-71247008D01*
X126849213Y-71199389D01*
X124992070Y-77247757D02*
X124992070Y-76247757D01*
X125230165Y-76247757D01*
X125373022Y-76295377D01*
X125468260Y-76390615D01*
X125515879Y-76485853D01*
X125563498Y-76676329D01*
X125563498Y-76819186D01*
X125515879Y-77009662D01*
X125468260Y-77104900D01*
X125373022Y-77200138D01*
X125230165Y-77247757D01*
X124992070Y-77247757D01*
X125944451Y-76342996D02*
X125992070Y-76295377D01*
X126087308Y-76247757D01*
X126325403Y-76247757D01*
X126420641Y-76295377D01*
X126468260Y-76342996D01*
X126515879Y-76438234D01*
X126515879Y-76533472D01*
X126468260Y-76676329D01*
X125896832Y-77247757D01*
X126515879Y-77247757D01*
X127420641Y-76247757D02*
X126944451Y-76247757D01*
X126896832Y-76723948D01*
X126944451Y-76676329D01*
X127039689Y-76628710D01*
X127277784Y-76628710D01*
X127373022Y-76676329D01*
X127420641Y-76723948D01*
X127468260Y-76819186D01*
X127468260Y-77057281D01*
X127420641Y-77152519D01*
X127373022Y-77200138D01*
X127277784Y-77247757D01*
X127039689Y-77247757D01*
X126944451Y-77200138D01*
X126896832Y-77152519D01*
X177974927Y-65341497D02*
X177974927Y-64341497D01*
X178213022Y-64341497D01*
X178355879Y-64389117D01*
X178451117Y-64484355D01*
X178498736Y-64579593D01*
X178546355Y-64770069D01*
X178546355Y-64912926D01*
X178498736Y-65103402D01*
X178451117Y-65198640D01*
X178355879Y-65293878D01*
X178213022Y-65341497D01*
X177974927Y-65341497D01*
X178879689Y-64341497D02*
X179498736Y-64341497D01*
X179165403Y-64722450D01*
X179308260Y-64722450D01*
X179403498Y-64770069D01*
X179451117Y-64817688D01*
X179498736Y-64912926D01*
X179498736Y-65151021D01*
X179451117Y-65246259D01*
X179403498Y-65293878D01*
X179308260Y-65341497D01*
X179022546Y-65341497D01*
X178927308Y-65293878D01*
X178879689Y-65246259D01*
X180451117Y-65341497D02*
X179879689Y-65341497D01*
X180165403Y-65341497D02*
X180165403Y-64341497D01*
X180070165Y-64484355D01*
X179974927Y-64579593D01*
X179879689Y-64627212D01*
X177974927Y-71294627D02*
X177974927Y-70294627D01*
X178213022Y-70294627D01*
X178355879Y-70342247D01*
X178451117Y-70437485D01*
X178498736Y-70532723D01*
X178546355Y-70723199D01*
X178546355Y-70866056D01*
X178498736Y-71056532D01*
X178451117Y-71151770D01*
X178355879Y-71247008D01*
X178213022Y-71294627D01*
X177974927Y-71294627D01*
X179403498Y-70627961D02*
X179403498Y-71294627D01*
X179165403Y-70247008D02*
X178927308Y-70961294D01*
X179546355Y-70961294D01*
X179832070Y-70294627D02*
X180451117Y-70294627D01*
X180117784Y-70675580D01*
X180260641Y-70675580D01*
X180355879Y-70723199D01*
X180403498Y-70770818D01*
X180451117Y-70866056D01*
X180451117Y-71104151D01*
X180403498Y-71199389D01*
X180355879Y-71247008D01*
X180260641Y-71294627D01*
X179974927Y-71294627D01*
X179879689Y-71247008D01*
X179832070Y-71199389D01*
X166663980Y-74271192D02*
X166663980Y-73271192D01*
X166902075Y-73271192D01*
X167044932Y-73318812D01*
X167140170Y-73414050D01*
X167187789Y-73509288D01*
X167235408Y-73699764D01*
X167235408Y-73842621D01*
X167187789Y-74033097D01*
X167140170Y-74128335D01*
X167044932Y-74223573D01*
X166902075Y-74271192D01*
X166663980Y-74271192D01*
X168092551Y-73604526D02*
X168092551Y-74271192D01*
X167854456Y-73223573D02*
X167616361Y-73937859D01*
X168235408Y-73937859D01*
X168663980Y-74271192D02*
X168854456Y-74271192D01*
X168949694Y-74223573D01*
X168997313Y-74175954D01*
X169092551Y-74033097D01*
X169140170Y-73842621D01*
X169140170Y-73461669D01*
X169092551Y-73366431D01*
X169044932Y-73318812D01*
X168949694Y-73271192D01*
X168759218Y-73271192D01*
X168663980Y-73318812D01*
X168616361Y-73366431D01*
X168568742Y-73461669D01*
X168568742Y-73699764D01*
X168616361Y-73795002D01*
X168663980Y-73842621D01*
X168759218Y-73890240D01*
X168949694Y-73890240D01*
X169044932Y-73842621D01*
X169092551Y-73795002D01*
X169140170Y-73699764D01*
X125468260Y-83200887D02*
X125468260Y-82200887D01*
X125706356Y-82200887D01*
X125849213Y-82248507D01*
X125944451Y-82343745D01*
X125992070Y-82438983D01*
X126039689Y-82629459D01*
X126039689Y-82772316D01*
X125992070Y-82962792D01*
X125944451Y-83058030D01*
X125849213Y-83153268D01*
X125706356Y-83200887D01*
X125468260Y-83200887D01*
X126420641Y-82296126D02*
X126468260Y-82248507D01*
X126563498Y-82200887D01*
X126801594Y-82200887D01*
X126896832Y-82248507D01*
X126944451Y-82296126D01*
X126992070Y-82391364D01*
X126992070Y-82486602D01*
X126944451Y-82629459D01*
X126373022Y-83200887D01*
X126992070Y-83200887D01*
X135588581Y-86177452D02*
X135588581Y-85177452D01*
X135826677Y-85177452D01*
X135969534Y-85225072D01*
X136064772Y-85320310D01*
X136112391Y-85415548D01*
X136160010Y-85606024D01*
X136160010Y-85748881D01*
X136112391Y-85939357D01*
X136064772Y-86034595D01*
X135969534Y-86129833D01*
X135826677Y-86177452D01*
X135588581Y-86177452D01*
X136731438Y-85606024D02*
X136636200Y-85558405D01*
X136588581Y-85510786D01*
X136540962Y-85415548D01*
X136540962Y-85367929D01*
X136588581Y-85272691D01*
X136636200Y-85225072D01*
X136731438Y-85177452D01*
X136921915Y-85177452D01*
X137017153Y-85225072D01*
X137064772Y-85272691D01*
X137112391Y-85367929D01*
X137112391Y-85415548D01*
X137064772Y-85510786D01*
X137017153Y-85558405D01*
X136921915Y-85606024D01*
X136731438Y-85606024D01*
X136636200Y-85653643D01*
X136588581Y-85701262D01*
X136540962Y-85796500D01*
X136540962Y-85986976D01*
X136588581Y-86082214D01*
X136636200Y-86129833D01*
X136731438Y-86177452D01*
X136921915Y-86177452D01*
X137017153Y-86129833D01*
X137064772Y-86082214D01*
X137112391Y-85986976D01*
X137112391Y-85796500D01*
X137064772Y-85701262D01*
X137017153Y-85653643D01*
X136921915Y-85606024D01*
X124396757Y-89154017D02*
X124396757Y-88154017D01*
X124634852Y-88154017D01*
X124777709Y-88201637D01*
X124872947Y-88296875D01*
X124920566Y-88392113D01*
X124968185Y-88582589D01*
X124968185Y-88725446D01*
X124920566Y-88915922D01*
X124872947Y-89011160D01*
X124777709Y-89106398D01*
X124634852Y-89154017D01*
X124396757Y-89154017D01*
X125920566Y-89154017D02*
X125349138Y-89154017D01*
X125634852Y-89154017D02*
X125634852Y-88154017D01*
X125539614Y-88296875D01*
X125444376Y-88392113D01*
X125349138Y-88439732D01*
X126777709Y-88487351D02*
X126777709Y-89154017D01*
X126539614Y-88106398D02*
X126301519Y-88820684D01*
X126920566Y-88820684D01*
X135707704Y-92130582D02*
X135707704Y-91130582D01*
X135945799Y-91130582D01*
X136088656Y-91178202D01*
X136183894Y-91273440D01*
X136231513Y-91368678D01*
X136279132Y-91559154D01*
X136279132Y-91702011D01*
X136231513Y-91892487D01*
X136183894Y-91987725D01*
X136088656Y-92082963D01*
X135945799Y-92130582D01*
X135707704Y-92130582D01*
X136660085Y-91225821D02*
X136707704Y-91178202D01*
X136802942Y-91130582D01*
X137041037Y-91130582D01*
X137136275Y-91178202D01*
X137183894Y-91225821D01*
X137231513Y-91321059D01*
X137231513Y-91416297D01*
X137183894Y-91559154D01*
X136612466Y-92130582D01*
X137231513Y-92130582D01*
X137850561Y-91130582D02*
X137945799Y-91130582D01*
X138041037Y-91178202D01*
X138088656Y-91225821D01*
X138136275Y-91321059D01*
X138183894Y-91511535D01*
X138183894Y-91749630D01*
X138136275Y-91940106D01*
X138088656Y-92035344D01*
X138041037Y-92082963D01*
X137945799Y-92130582D01*
X137850561Y-92130582D01*
X137755323Y-92082963D01*
X137707704Y-92035344D01*
X137660085Y-91940106D01*
X137612466Y-91749630D01*
X137612466Y-91511535D01*
X137660085Y-91321059D01*
X137707704Y-91225821D01*
X137755323Y-91178202D01*
X137850561Y-91130582D01*
X135707704Y-80224322D02*
X135707704Y-79224322D01*
X135945799Y-79224322D01*
X136088656Y-79271942D01*
X136183894Y-79367180D01*
X136231513Y-79462418D01*
X136279132Y-79652894D01*
X136279132Y-79795751D01*
X136231513Y-79986227D01*
X136183894Y-80081465D01*
X136088656Y-80176703D01*
X135945799Y-80224322D01*
X135707704Y-80224322D01*
X136660085Y-79319561D02*
X136707704Y-79271942D01*
X136802942Y-79224322D01*
X137041037Y-79224322D01*
X137136275Y-79271942D01*
X137183894Y-79319561D01*
X137231513Y-79414799D01*
X137231513Y-79510037D01*
X137183894Y-79652894D01*
X136612466Y-80224322D01*
X137231513Y-80224322D01*
X138088656Y-79224322D02*
X137898180Y-79224322D01*
X137802942Y-79271942D01*
X137755323Y-79319561D01*
X137660085Y-79462418D01*
X137612466Y-79652894D01*
X137612466Y-80033846D01*
X137660085Y-80129084D01*
X137707704Y-80176703D01*
X137802942Y-80224322D01*
X137993418Y-80224322D01*
X138088656Y-80176703D01*
X138136275Y-80129084D01*
X138183894Y-80033846D01*
X138183894Y-79795751D01*
X138136275Y-79700513D01*
X138088656Y-79652894D01*
X137993418Y-79605275D01*
X137802942Y-79605275D01*
X137707704Y-79652894D01*
X137660085Y-79700513D01*
X137612466Y-79795751D01*
X177974927Y-83200887D02*
X177974927Y-82200887D01*
X178213022Y-82200887D01*
X178355879Y-82248507D01*
X178451117Y-82343745D01*
X178498736Y-82438983D01*
X178546355Y-82629459D01*
X178546355Y-82772316D01*
X178498736Y-82962792D01*
X178451117Y-83058030D01*
X178355879Y-83153268D01*
X178213022Y-83200887D01*
X177974927Y-83200887D01*
X178879689Y-82200887D02*
X179498736Y-82200887D01*
X179165403Y-82581840D01*
X179308260Y-82581840D01*
X179403498Y-82629459D01*
X179451117Y-82677078D01*
X179498736Y-82772316D01*
X179498736Y-83010411D01*
X179451117Y-83105649D01*
X179403498Y-83153268D01*
X179308260Y-83200887D01*
X179022546Y-83200887D01*
X178927308Y-83153268D01*
X178879689Y-83105649D01*
X179879689Y-82296126D02*
X179927308Y-82248507D01*
X180022546Y-82200887D01*
X180260641Y-82200887D01*
X180355879Y-82248507D01*
X180403498Y-82296126D01*
X180451117Y-82391364D01*
X180451117Y-82486602D01*
X180403498Y-82629459D01*
X179832070Y-83200887D01*
X180451117Y-83200887D01*
X166663980Y-86177452D02*
X166663980Y-85177452D01*
X166902075Y-85177452D01*
X167044932Y-85225072D01*
X167140170Y-85320310D01*
X167187789Y-85415548D01*
X167235408Y-85606024D01*
X167235408Y-85748881D01*
X167187789Y-85939357D01*
X167140170Y-86034595D01*
X167044932Y-86129833D01*
X166902075Y-86177452D01*
X166663980Y-86177452D01*
X167568742Y-85177452D02*
X168187789Y-85177452D01*
X167854456Y-85558405D01*
X167997313Y-85558405D01*
X168092551Y-85606024D01*
X168140170Y-85653643D01*
X168187789Y-85748881D01*
X168187789Y-85986976D01*
X168140170Y-86082214D01*
X168092551Y-86129833D01*
X167997313Y-86177452D01*
X167711599Y-86177452D01*
X167616361Y-86129833D01*
X167568742Y-86082214D01*
X168759218Y-85606024D02*
X168663980Y-85558405D01*
X168616361Y-85510786D01*
X168568742Y-85415548D01*
X168568742Y-85367929D01*
X168616361Y-85272691D01*
X168663980Y-85225072D01*
X168759218Y-85177452D01*
X168949694Y-85177452D01*
X169044932Y-85225072D01*
X169092551Y-85272691D01*
X169140170Y-85367929D01*
X169140170Y-85415548D01*
X169092551Y-85510786D01*
X169044932Y-85558405D01*
X168949694Y-85606024D01*
X168759218Y-85606024D01*
X168663980Y-85653643D01*
X168616361Y-85701262D01*
X168568742Y-85796500D01*
X168568742Y-85986976D01*
X168616361Y-86082214D01*
X168663980Y-86129833D01*
X168759218Y-86177452D01*
X168949694Y-86177452D01*
X169044932Y-86129833D01*
X169092551Y-86082214D01*
X169140170Y-85986976D01*
X169140170Y-85796500D01*
X169092551Y-85701262D01*
X169044932Y-85653643D01*
X168949694Y-85606024D01*
X177974927Y-89154017D02*
X177974927Y-88154017D01*
X178213022Y-88154017D01*
X178355879Y-88201637D01*
X178451117Y-88296875D01*
X178498736Y-88392113D01*
X178546355Y-88582589D01*
X178546355Y-88725446D01*
X178498736Y-88915922D01*
X178451117Y-89011160D01*
X178355879Y-89106398D01*
X178213022Y-89154017D01*
X177974927Y-89154017D01*
X179403498Y-88487351D02*
X179403498Y-89154017D01*
X179165403Y-88106398D02*
X178927308Y-88820684D01*
X179546355Y-88820684D01*
X180355879Y-88487351D02*
X180355879Y-89154017D01*
X180117784Y-88106398D02*
X179879689Y-88820684D01*
X180498736Y-88820684D01*
X166663980Y-92130582D02*
X166663980Y-91130582D01*
X166902075Y-91130582D01*
X167044932Y-91178202D01*
X167140170Y-91273440D01*
X167187789Y-91368678D01*
X167235408Y-91559154D01*
X167235408Y-91702011D01*
X167187789Y-91892487D01*
X167140170Y-91987725D01*
X167044932Y-92082963D01*
X166902075Y-92130582D01*
X166663980Y-92130582D01*
X168140170Y-91130582D02*
X167663980Y-91130582D01*
X167616361Y-91606773D01*
X167663980Y-91559154D01*
X167759218Y-91511535D01*
X167997313Y-91511535D01*
X168092551Y-91559154D01*
X168140170Y-91606773D01*
X168187789Y-91702011D01*
X168187789Y-91940106D01*
X168140170Y-92035344D01*
X168092551Y-92082963D01*
X167997313Y-92130582D01*
X167759218Y-92130582D01*
X167663980Y-92082963D01*
X167616361Y-92035344D01*
X168806837Y-91130582D02*
X168902075Y-91130582D01*
X168997313Y-91178202D01*
X169044932Y-91225821D01*
X169092551Y-91321059D01*
X169140170Y-91511535D01*
X169140170Y-91749630D01*
X169092551Y-91940106D01*
X169044932Y-92035344D01*
X168997313Y-92082963D01*
X168902075Y-92130582D01*
X168806837Y-92130582D01*
X168711599Y-92082963D01*
X168663980Y-92035344D01*
X168616361Y-91940106D01*
X168568742Y-91749630D01*
X168568742Y-91511535D01*
X168616361Y-91321059D01*
X168663980Y-91225821D01*
X168711599Y-91178202D01*
X168806837Y-91130582D01*
X123087008Y-101060277D02*
X123087008Y-100060277D01*
X123325104Y-100060277D01*
X123467961Y-100107897D01*
X123563199Y-100203135D01*
X123610818Y-100298373D01*
X123658437Y-100488849D01*
X123658437Y-100631706D01*
X123610818Y-100822182D01*
X123563199Y-100917420D01*
X123467961Y-101012658D01*
X123325104Y-101060277D01*
X123087008Y-101060277D01*
X123991770Y-100060277D02*
X124610818Y-100060277D01*
X124277484Y-100441230D01*
X124420342Y-100441230D01*
X124515580Y-100488849D01*
X124563199Y-100536468D01*
X124610818Y-100631706D01*
X124610818Y-100869801D01*
X124563199Y-100965039D01*
X124515580Y-101012658D01*
X124420342Y-101060277D01*
X124134627Y-101060277D01*
X124039389Y-101012658D01*
X123991770Y-100965039D01*
X123087008Y-104036842D02*
X123087008Y-103036842D01*
X123325104Y-103036842D01*
X123467961Y-103084462D01*
X123563199Y-103179700D01*
X123610818Y-103274938D01*
X123658437Y-103465414D01*
X123658437Y-103608271D01*
X123610818Y-103798747D01*
X123563199Y-103893985D01*
X123467961Y-103989223D01*
X123325104Y-104036842D01*
X123087008Y-104036842D01*
X124134627Y-104036842D02*
X124325104Y-104036842D01*
X124420342Y-103989223D01*
X124467961Y-103941604D01*
X124563199Y-103798747D01*
X124610818Y-103608271D01*
X124610818Y-103227319D01*
X124563199Y-103132081D01*
X124515580Y-103084462D01*
X124420342Y-103036842D01*
X124229865Y-103036842D01*
X124134627Y-103084462D01*
X124087008Y-103132081D01*
X124039389Y-103227319D01*
X124039389Y-103465414D01*
X124087008Y-103560652D01*
X124134627Y-103608271D01*
X124229865Y-103655890D01*
X124420342Y-103655890D01*
X124515580Y-103608271D01*
X124563199Y-103560652D01*
X124610818Y-103465414D01*
X124396757Y-107013407D02*
X124396757Y-106013407D01*
X124634852Y-106013407D01*
X124777709Y-106061027D01*
X124872947Y-106156265D01*
X124920566Y-106251503D01*
X124968185Y-106441979D01*
X124968185Y-106584836D01*
X124920566Y-106775312D01*
X124872947Y-106870550D01*
X124777709Y-106965788D01*
X124634852Y-107013407D01*
X124396757Y-107013407D01*
X125920566Y-107013407D02*
X125349138Y-107013407D01*
X125634852Y-107013407D02*
X125634852Y-106013407D01*
X125539614Y-106156265D01*
X125444376Y-106251503D01*
X125349138Y-106299122D01*
X126825328Y-106013407D02*
X126349138Y-106013407D01*
X126301519Y-106489598D01*
X126349138Y-106441979D01*
X126444376Y-106394360D01*
X126682471Y-106394360D01*
X126777709Y-106441979D01*
X126825328Y-106489598D01*
X126872947Y-106584836D01*
X126872947Y-106822931D01*
X126825328Y-106918169D01*
X126777709Y-106965788D01*
X126682471Y-107013407D01*
X126444376Y-107013407D01*
X126349138Y-106965788D01*
X126301519Y-106918169D01*
X124396757Y-95107147D02*
X124396757Y-94107147D01*
X124634852Y-94107147D01*
X124777709Y-94154767D01*
X124872947Y-94250005D01*
X124920566Y-94345243D01*
X124968185Y-94535719D01*
X124968185Y-94678576D01*
X124920566Y-94869052D01*
X124872947Y-94964290D01*
X124777709Y-95059528D01*
X124634852Y-95107147D01*
X124396757Y-95107147D01*
X125349138Y-94202386D02*
X125396757Y-94154767D01*
X125491995Y-94107147D01*
X125730090Y-94107147D01*
X125825328Y-94154767D01*
X125872947Y-94202386D01*
X125920566Y-94297624D01*
X125920566Y-94392862D01*
X125872947Y-94535719D01*
X125301519Y-95107147D01*
X125920566Y-95107147D01*
X126872947Y-95107147D02*
X126301519Y-95107147D01*
X126587233Y-95107147D02*
X126587233Y-94107147D01*
X126491995Y-94250005D01*
X126396757Y-94345243D01*
X126301519Y-94392862D01*
X135707704Y-98083712D02*
X135707704Y-97083712D01*
X135945799Y-97083712D01*
X136088656Y-97131332D01*
X136183894Y-97226570D01*
X136231513Y-97321808D01*
X136279132Y-97512284D01*
X136279132Y-97655141D01*
X136231513Y-97845617D01*
X136183894Y-97940855D01*
X136088656Y-98036093D01*
X135945799Y-98083712D01*
X135707704Y-98083712D01*
X136660085Y-97178951D02*
X136707704Y-97131332D01*
X136802942Y-97083712D01*
X137041037Y-97083712D01*
X137136275Y-97131332D01*
X137183894Y-97178951D01*
X137231513Y-97274189D01*
X137231513Y-97369427D01*
X137183894Y-97512284D01*
X136612466Y-98083712D01*
X137231513Y-98083712D01*
X137564847Y-97083712D02*
X138231513Y-97083712D01*
X137802942Y-98083712D01*
X177974927Y-101060277D02*
X177974927Y-100060277D01*
X178213022Y-100060277D01*
X178355879Y-100107897D01*
X178451117Y-100203135D01*
X178498736Y-100298373D01*
X178546355Y-100488849D01*
X178546355Y-100631706D01*
X178498736Y-100822182D01*
X178451117Y-100917420D01*
X178355879Y-101012658D01*
X178213022Y-101060277D01*
X177974927Y-101060277D01*
X178879689Y-100060277D02*
X179498736Y-100060277D01*
X179165403Y-100441230D01*
X179308260Y-100441230D01*
X179403498Y-100488849D01*
X179451117Y-100536468D01*
X179498736Y-100631706D01*
X179498736Y-100869801D01*
X179451117Y-100965039D01*
X179403498Y-101012658D01*
X179308260Y-101060277D01*
X179022546Y-101060277D01*
X178927308Y-101012658D01*
X178879689Y-100965039D01*
X179832070Y-100060277D02*
X180451117Y-100060277D01*
X180117784Y-100441230D01*
X180260641Y-100441230D01*
X180355879Y-100488849D01*
X180403498Y-100536468D01*
X180451117Y-100631706D01*
X180451117Y-100869801D01*
X180403498Y-100965039D01*
X180355879Y-101012658D01*
X180260641Y-101060277D01*
X179974927Y-101060277D01*
X179879689Y-101012658D01*
X179832070Y-100965039D01*
X166663980Y-104036842D02*
X166663980Y-103036842D01*
X166902075Y-103036842D01*
X167044932Y-103084462D01*
X167140170Y-103179700D01*
X167187789Y-103274938D01*
X167235408Y-103465414D01*
X167235408Y-103608271D01*
X167187789Y-103798747D01*
X167140170Y-103893985D01*
X167044932Y-103989223D01*
X166902075Y-104036842D01*
X166663980Y-104036842D01*
X167568742Y-103036842D02*
X168187789Y-103036842D01*
X167854456Y-103417795D01*
X167997313Y-103417795D01*
X168092551Y-103465414D01*
X168140170Y-103513033D01*
X168187789Y-103608271D01*
X168187789Y-103846366D01*
X168140170Y-103941604D01*
X168092551Y-103989223D01*
X167997313Y-104036842D01*
X167711599Y-104036842D01*
X167616361Y-103989223D01*
X167568742Y-103941604D01*
X168663980Y-104036842D02*
X168854456Y-104036842D01*
X168949694Y-103989223D01*
X168997313Y-103941604D01*
X169092551Y-103798747D01*
X169140170Y-103608271D01*
X169140170Y-103227319D01*
X169092551Y-103132081D01*
X169044932Y-103084462D01*
X168949694Y-103036842D01*
X168759218Y-103036842D01*
X168663980Y-103084462D01*
X168616361Y-103132081D01*
X168568742Y-103227319D01*
X168568742Y-103465414D01*
X168616361Y-103560652D01*
X168663980Y-103608271D01*
X168759218Y-103655890D01*
X168949694Y-103655890D01*
X169044932Y-103608271D01*
X169092551Y-103560652D01*
X169140170Y-103465414D01*
X177974927Y-107013407D02*
X177974927Y-106013407D01*
X178213022Y-106013407D01*
X178355879Y-106061027D01*
X178451117Y-106156265D01*
X178498736Y-106251503D01*
X178546355Y-106441979D01*
X178546355Y-106584836D01*
X178498736Y-106775312D01*
X178451117Y-106870550D01*
X178355879Y-106965788D01*
X178213022Y-107013407D01*
X177974927Y-107013407D01*
X179403498Y-106346741D02*
X179403498Y-107013407D01*
X179165403Y-105965788D02*
X178927308Y-106680074D01*
X179546355Y-106680074D01*
X180403498Y-106013407D02*
X179927308Y-106013407D01*
X179879689Y-106489598D01*
X179927308Y-106441979D01*
X180022546Y-106394360D01*
X180260641Y-106394360D01*
X180355879Y-106441979D01*
X180403498Y-106489598D01*
X180451117Y-106584836D01*
X180451117Y-106822931D01*
X180403498Y-106918169D01*
X180355879Y-106965788D01*
X180260641Y-107013407D01*
X180022546Y-107013407D01*
X179927308Y-106965788D01*
X179879689Y-106918169D01*
X177974927Y-95107147D02*
X177974927Y-94107147D01*
X178213022Y-94107147D01*
X178355879Y-94154767D01*
X178451117Y-94250005D01*
X178498736Y-94345243D01*
X178546355Y-94535719D01*
X178546355Y-94678576D01*
X178498736Y-94869052D01*
X178451117Y-94964290D01*
X178355879Y-95059528D01*
X178213022Y-95107147D01*
X177974927Y-95107147D01*
X179451117Y-94107147D02*
X178974927Y-94107147D01*
X178927308Y-94583338D01*
X178974927Y-94535719D01*
X179070165Y-94488100D01*
X179308260Y-94488100D01*
X179403498Y-94535719D01*
X179451117Y-94583338D01*
X179498736Y-94678576D01*
X179498736Y-94916671D01*
X179451117Y-95011909D01*
X179403498Y-95059528D01*
X179308260Y-95107147D01*
X179070165Y-95107147D01*
X178974927Y-95059528D01*
X178927308Y-95011909D01*
X180451117Y-95107147D02*
X179879689Y-95107147D01*
X180165403Y-95107147D02*
X180165403Y-94107147D01*
X180070165Y-94250005D01*
X179974927Y-94345243D01*
X179879689Y-94392862D01*
X135707704Y-121896232D02*
X135707704Y-120896232D01*
X135945799Y-120896232D01*
X136088656Y-120943852D01*
X136183894Y-121039090D01*
X136231513Y-121134328D01*
X136279132Y-121324804D01*
X136279132Y-121467661D01*
X136231513Y-121658137D01*
X136183894Y-121753375D01*
X136088656Y-121848613D01*
X135945799Y-121896232D01*
X135707704Y-121896232D01*
X137231513Y-121896232D02*
X136660085Y-121896232D01*
X136945799Y-121896232D02*
X136945799Y-120896232D01*
X136850561Y-121039090D01*
X136755323Y-121134328D01*
X136660085Y-121181947D01*
X137850561Y-120896232D02*
X137945799Y-120896232D01*
X138041037Y-120943852D01*
X138088656Y-120991471D01*
X138136275Y-121086709D01*
X138183894Y-121277185D01*
X138183894Y-121515280D01*
X138136275Y-121705756D01*
X138088656Y-121800994D01*
X138041037Y-121848613D01*
X137945799Y-121896232D01*
X137850561Y-121896232D01*
X137755323Y-121848613D01*
X137707704Y-121800994D01*
X137660085Y-121705756D01*
X137612466Y-121515280D01*
X137612466Y-121277185D01*
X137660085Y-121086709D01*
X137707704Y-120991471D01*
X137755323Y-120943852D01*
X137850561Y-120896232D01*
X135707704Y-109989972D02*
X135707704Y-108989972D01*
X135945799Y-108989972D01*
X136088656Y-109037592D01*
X136183894Y-109132830D01*
X136231513Y-109228068D01*
X136279132Y-109418544D01*
X136279132Y-109561401D01*
X136231513Y-109751877D01*
X136183894Y-109847115D01*
X136088656Y-109942353D01*
X135945799Y-109989972D01*
X135707704Y-109989972D01*
X137231513Y-109989972D02*
X136660085Y-109989972D01*
X136945799Y-109989972D02*
X136945799Y-108989972D01*
X136850561Y-109132830D01*
X136755323Y-109228068D01*
X136660085Y-109275687D01*
X138088656Y-108989972D02*
X137898180Y-108989972D01*
X137802942Y-109037592D01*
X137755323Y-109085211D01*
X137660085Y-109228068D01*
X137612466Y-109418544D01*
X137612466Y-109799496D01*
X137660085Y-109894734D01*
X137707704Y-109942353D01*
X137802942Y-109989972D01*
X137993418Y-109989972D01*
X138088656Y-109942353D01*
X138136275Y-109894734D01*
X138183894Y-109799496D01*
X138183894Y-109561401D01*
X138136275Y-109466163D01*
X138088656Y-109418544D01*
X137993418Y-109370925D01*
X137802942Y-109370925D01*
X137707704Y-109418544D01*
X137660085Y-109466163D01*
X137612466Y-109561401D01*
X124396757Y-112966537D02*
X124396757Y-111966537D01*
X124634852Y-111966537D01*
X124777709Y-112014157D01*
X124872947Y-112109395D01*
X124920566Y-112204633D01*
X124968185Y-112395109D01*
X124968185Y-112537966D01*
X124920566Y-112728442D01*
X124872947Y-112823680D01*
X124777709Y-112918918D01*
X124634852Y-112966537D01*
X124396757Y-112966537D01*
X125349138Y-112061776D02*
X125396757Y-112014157D01*
X125491995Y-111966537D01*
X125730090Y-111966537D01*
X125825328Y-112014157D01*
X125872947Y-112061776D01*
X125920566Y-112157014D01*
X125920566Y-112252252D01*
X125872947Y-112395109D01*
X125301519Y-112966537D01*
X125920566Y-112966537D01*
X126301519Y-112061776D02*
X126349138Y-112014157D01*
X126444376Y-111966537D01*
X126682471Y-111966537D01*
X126777709Y-112014157D01*
X126825328Y-112061776D01*
X126872947Y-112157014D01*
X126872947Y-112252252D01*
X126825328Y-112395109D01*
X126253900Y-112966537D01*
X126872947Y-112966537D01*
X135707704Y-115943102D02*
X135707704Y-114943102D01*
X135945799Y-114943102D01*
X136088656Y-114990722D01*
X136183894Y-115085960D01*
X136231513Y-115181198D01*
X136279132Y-115371674D01*
X136279132Y-115514531D01*
X136231513Y-115705007D01*
X136183894Y-115800245D01*
X136088656Y-115895483D01*
X135945799Y-115943102D01*
X135707704Y-115943102D01*
X136660085Y-115038341D02*
X136707704Y-114990722D01*
X136802942Y-114943102D01*
X137041037Y-114943102D01*
X137136275Y-114990722D01*
X137183894Y-115038341D01*
X137231513Y-115133579D01*
X137231513Y-115228817D01*
X137183894Y-115371674D01*
X136612466Y-115943102D01*
X137231513Y-115943102D01*
X137802942Y-115371674D02*
X137707704Y-115324055D01*
X137660085Y-115276436D01*
X137612466Y-115181198D01*
X137612466Y-115133579D01*
X137660085Y-115038341D01*
X137707704Y-114990722D01*
X137802942Y-114943102D01*
X137993418Y-114943102D01*
X138088656Y-114990722D01*
X138136275Y-115038341D01*
X138183894Y-115133579D01*
X138183894Y-115181198D01*
X138136275Y-115276436D01*
X138088656Y-115324055D01*
X137993418Y-115371674D01*
X137802942Y-115371674D01*
X137707704Y-115419293D01*
X137660085Y-115466912D01*
X137612466Y-115562150D01*
X137612466Y-115752626D01*
X137660085Y-115847864D01*
X137707704Y-115895483D01*
X137802942Y-115943102D01*
X137993418Y-115943102D01*
X138088656Y-115895483D01*
X138136275Y-115847864D01*
X138183894Y-115752626D01*
X138183894Y-115562150D01*
X138136275Y-115466912D01*
X138088656Y-115419293D01*
X137993418Y-115371674D01*
X166663980Y-121896232D02*
X166663980Y-120896232D01*
X166902075Y-120896232D01*
X167044932Y-120943852D01*
X167140170Y-121039090D01*
X167187789Y-121134328D01*
X167235408Y-121324804D01*
X167235408Y-121467661D01*
X167187789Y-121658137D01*
X167140170Y-121753375D01*
X167044932Y-121848613D01*
X166902075Y-121896232D01*
X166663980Y-121896232D01*
X168092551Y-121229566D02*
X168092551Y-121896232D01*
X167854456Y-120848613D02*
X167616361Y-121562899D01*
X168235408Y-121562899D01*
X168806837Y-120896232D02*
X168902075Y-120896232D01*
X168997313Y-120943852D01*
X169044932Y-120991471D01*
X169092551Y-121086709D01*
X169140170Y-121277185D01*
X169140170Y-121515280D01*
X169092551Y-121705756D01*
X169044932Y-121800994D01*
X168997313Y-121848613D01*
X168902075Y-121896232D01*
X168806837Y-121896232D01*
X168711599Y-121848613D01*
X168663980Y-121800994D01*
X168616361Y-121705756D01*
X168568742Y-121515280D01*
X168568742Y-121277185D01*
X168616361Y-121086709D01*
X168663980Y-120991471D01*
X168711599Y-120943852D01*
X168806837Y-120896232D01*
X166663980Y-109989972D02*
X166663980Y-108989972D01*
X166902075Y-108989972D01*
X167044932Y-109037592D01*
X167140170Y-109132830D01*
X167187789Y-109228068D01*
X167235408Y-109418544D01*
X167235408Y-109561401D01*
X167187789Y-109751877D01*
X167140170Y-109847115D01*
X167044932Y-109942353D01*
X166902075Y-109989972D01*
X166663980Y-109989972D01*
X168092551Y-109323306D02*
X168092551Y-109989972D01*
X167854456Y-108942353D02*
X167616361Y-109656639D01*
X168235408Y-109656639D01*
X169044932Y-108989972D02*
X168854456Y-108989972D01*
X168759218Y-109037592D01*
X168711599Y-109085211D01*
X168616361Y-109228068D01*
X168568742Y-109418544D01*
X168568742Y-109799496D01*
X168616361Y-109894734D01*
X168663980Y-109942353D01*
X168759218Y-109989972D01*
X168949694Y-109989972D01*
X169044932Y-109942353D01*
X169092551Y-109894734D01*
X169140170Y-109799496D01*
X169140170Y-109561401D01*
X169092551Y-109466163D01*
X169044932Y-109418544D01*
X168949694Y-109370925D01*
X168759218Y-109370925D01*
X168663980Y-109418544D01*
X168616361Y-109466163D01*
X168568742Y-109561401D01*
X177974927Y-112966537D02*
X177974927Y-111966537D01*
X178213022Y-111966537D01*
X178355879Y-112014157D01*
X178451117Y-112109395D01*
X178498736Y-112204633D01*
X178546355Y-112395109D01*
X178546355Y-112537966D01*
X178498736Y-112728442D01*
X178451117Y-112823680D01*
X178355879Y-112918918D01*
X178213022Y-112966537D01*
X177974927Y-112966537D01*
X179451117Y-111966537D02*
X178974927Y-111966537D01*
X178927308Y-112442728D01*
X178974927Y-112395109D01*
X179070165Y-112347490D01*
X179308260Y-112347490D01*
X179403498Y-112395109D01*
X179451117Y-112442728D01*
X179498736Y-112537966D01*
X179498736Y-112776061D01*
X179451117Y-112871299D01*
X179403498Y-112918918D01*
X179308260Y-112966537D01*
X179070165Y-112966537D01*
X178974927Y-112918918D01*
X178927308Y-112871299D01*
X179879689Y-112061776D02*
X179927308Y-112014157D01*
X180022546Y-111966537D01*
X180260641Y-111966537D01*
X180355879Y-112014157D01*
X180403498Y-112061776D01*
X180451117Y-112157014D01*
X180451117Y-112252252D01*
X180403498Y-112395109D01*
X179832070Y-112966537D01*
X180451117Y-112966537D01*
X136779057Y-135278833D02*
X135779057Y-135278833D01*
X135779057Y-135040738D01*
X135826677Y-134897880D01*
X135921915Y-134802642D01*
X136017153Y-134755023D01*
X136207629Y-134707404D01*
X136350486Y-134707404D01*
X136540962Y-134755023D01*
X136636200Y-134802642D01*
X136731438Y-134897880D01*
X136779057Y-135040738D01*
X136779057Y-135278833D01*
X135779057Y-133802642D02*
X135779057Y-134278833D01*
X136255248Y-134326452D01*
X136207629Y-134278833D01*
X136160010Y-134183595D01*
X136160010Y-133945499D01*
X136207629Y-133850261D01*
X136255248Y-133802642D01*
X136350486Y-133755023D01*
X136588581Y-133755023D01*
X136683819Y-133802642D01*
X136731438Y-133850261D01*
X136779057Y-133945499D01*
X136779057Y-134183595D01*
X136731438Y-134278833D01*
X136683819Y-134326452D01*
X124396757Y-124872797D02*
X124396757Y-123872797D01*
X124634852Y-123872797D01*
X124777709Y-123920417D01*
X124872947Y-124015655D01*
X124920566Y-124110893D01*
X124968185Y-124301369D01*
X124968185Y-124444226D01*
X124920566Y-124634702D01*
X124872947Y-124729940D01*
X124777709Y-124825178D01*
X124634852Y-124872797D01*
X124396757Y-124872797D01*
X125920566Y-124872797D02*
X125349138Y-124872797D01*
X125634852Y-124872797D02*
X125634852Y-123872797D01*
X125539614Y-124015655D01*
X125444376Y-124110893D01*
X125349138Y-124158512D01*
X126872947Y-124872797D02*
X126301519Y-124872797D01*
X126587233Y-124872797D02*
X126587233Y-123872797D01*
X126491995Y-124015655D01*
X126396757Y-124110893D01*
X126301519Y-124158512D01*
X135707704Y-127849362D02*
X135707704Y-126849362D01*
X135945799Y-126849362D01*
X136088656Y-126896982D01*
X136183894Y-126992220D01*
X136231513Y-127087458D01*
X136279132Y-127277934D01*
X136279132Y-127420791D01*
X136231513Y-127611267D01*
X136183894Y-127706505D01*
X136088656Y-127801743D01*
X135945799Y-127849362D01*
X135707704Y-127849362D01*
X137231513Y-127849362D02*
X136660085Y-127849362D01*
X136945799Y-127849362D02*
X136945799Y-126849362D01*
X136850561Y-126992220D01*
X136755323Y-127087458D01*
X136660085Y-127135077D01*
X137564847Y-126849362D02*
X138231513Y-126849362D01*
X137802942Y-127849362D01*
X124396757Y-130825927D02*
X124396757Y-129825927D01*
X124634852Y-129825927D01*
X124777709Y-129873547D01*
X124872947Y-129968785D01*
X124920566Y-130064023D01*
X124968185Y-130254499D01*
X124968185Y-130397356D01*
X124920566Y-130587832D01*
X124872947Y-130683070D01*
X124777709Y-130778308D01*
X124634852Y-130825927D01*
X124396757Y-130825927D01*
X125349138Y-129921166D02*
X125396757Y-129873547D01*
X125491995Y-129825927D01*
X125730090Y-129825927D01*
X125825328Y-129873547D01*
X125872947Y-129921166D01*
X125920566Y-130016404D01*
X125920566Y-130111642D01*
X125872947Y-130254499D01*
X125301519Y-130825927D01*
X125920566Y-130825927D01*
X126253900Y-129825927D02*
X126872947Y-129825927D01*
X126539614Y-130206880D01*
X126682471Y-130206880D01*
X126777709Y-130254499D01*
X126825328Y-130302118D01*
X126872947Y-130397356D01*
X126872947Y-130635451D01*
X126825328Y-130730689D01*
X126777709Y-130778308D01*
X126682471Y-130825927D01*
X126396757Y-130825927D01*
X126301519Y-130778308D01*
X126253900Y-130730689D01*
X168925959Y-135159710D02*
X167925959Y-135159710D01*
X167925959Y-134921615D01*
X167973579Y-134778758D01*
X168068817Y-134683520D01*
X168164055Y-134635901D01*
X168354531Y-134588282D01*
X168497388Y-134588282D01*
X168687864Y-134635901D01*
X168783102Y-134683520D01*
X168878340Y-134778758D01*
X168925959Y-134921615D01*
X168925959Y-135159710D01*
X167925959Y-134254948D02*
X167925959Y-133635901D01*
X168306912Y-133969234D01*
X168306912Y-133826377D01*
X168354531Y-133731139D01*
X168402150Y-133683520D01*
X168497388Y-133635901D01*
X168735483Y-133635901D01*
X168830721Y-133683520D01*
X168878340Y-133731139D01*
X168925959Y-133826377D01*
X168925959Y-134112091D01*
X168878340Y-134207329D01*
X168830721Y-134254948D01*
X167925959Y-132731139D02*
X167925959Y-133207329D01*
X168402150Y-133254948D01*
X168354531Y-133207329D01*
X168306912Y-133112091D01*
X168306912Y-132873996D01*
X168354531Y-132778758D01*
X168402150Y-132731139D01*
X168497388Y-132683520D01*
X168735483Y-132683520D01*
X168830721Y-132731139D01*
X168878340Y-132778758D01*
X168925959Y-132873996D01*
X168925959Y-133112091D01*
X168878340Y-133207329D01*
X168830721Y-133254948D01*
X177974927Y-125468110D02*
X177974927Y-124468110D01*
X178213022Y-124468110D01*
X178355879Y-124515730D01*
X178451117Y-124610968D01*
X178498736Y-124706206D01*
X178546355Y-124896682D01*
X178546355Y-125039539D01*
X178498736Y-125230015D01*
X178451117Y-125325253D01*
X178355879Y-125420491D01*
X178213022Y-125468110D01*
X177974927Y-125468110D01*
X179403498Y-124801444D02*
X179403498Y-125468110D01*
X179165403Y-124420491D02*
X178927308Y-125134777D01*
X179546355Y-125134777D01*
X180451117Y-125468110D02*
X179879689Y-125468110D01*
X180165403Y-125468110D02*
X180165403Y-124468110D01*
X180070165Y-124610968D01*
X179974927Y-124706206D01*
X179879689Y-124753825D01*
X166663980Y-127849362D02*
X166663980Y-126849362D01*
X166902075Y-126849362D01*
X167044932Y-126896982D01*
X167140170Y-126992220D01*
X167187789Y-127087458D01*
X167235408Y-127277934D01*
X167235408Y-127420791D01*
X167187789Y-127611267D01*
X167140170Y-127706505D01*
X167044932Y-127801743D01*
X166902075Y-127849362D01*
X166663980Y-127849362D01*
X168092551Y-127182696D02*
X168092551Y-127849362D01*
X167854456Y-126801743D02*
X167616361Y-127516029D01*
X168235408Y-127516029D01*
X168521123Y-126849362D02*
X169187789Y-126849362D01*
X168759218Y-127849362D01*
X177974927Y-130825927D02*
X177974927Y-129825927D01*
X178213022Y-129825927D01*
X178355879Y-129873547D01*
X178451117Y-129968785D01*
X178498736Y-130064023D01*
X178546355Y-130254499D01*
X178546355Y-130397356D01*
X178498736Y-130587832D01*
X178451117Y-130683070D01*
X178355879Y-130778308D01*
X178213022Y-130825927D01*
X177974927Y-130825927D01*
X179451117Y-129825927D02*
X178974927Y-129825927D01*
X178927308Y-130302118D01*
X178974927Y-130254499D01*
X179070165Y-130206880D01*
X179308260Y-130206880D01*
X179403498Y-130254499D01*
X179451117Y-130302118D01*
X179498736Y-130397356D01*
X179498736Y-130635451D01*
X179451117Y-130730689D01*
X179403498Y-130778308D01*
X179308260Y-130825927D01*
X179070165Y-130825927D01*
X178974927Y-130778308D01*
X178927308Y-130730689D01*
X179832070Y-129825927D02*
X180451117Y-129825927D01*
X180117784Y-130206880D01*
X180260641Y-130206880D01*
X180355879Y-130254499D01*
X180403498Y-130302118D01*
X180451117Y-130397356D01*
X180451117Y-130635451D01*
X180403498Y-130730689D01*
X180355879Y-130778308D01*
X180260641Y-130825927D01*
X179974927Y-130825927D01*
X179879689Y-130778308D01*
X179832070Y-130730689D01*
X139160309Y-145399154D02*
X138160309Y-145399154D01*
X138160309Y-145161059D01*
X138207929Y-145018201D01*
X138303167Y-144922963D01*
X138398405Y-144875344D01*
X138588881Y-144827725D01*
X138731738Y-144827725D01*
X138922214Y-144875344D01*
X139017452Y-144922963D01*
X139112690Y-145018201D01*
X139160309Y-145161059D01*
X139160309Y-145399154D01*
X138160309Y-143970582D02*
X138160309Y-144161059D01*
X138207929Y-144256297D01*
X138255548Y-144303916D01*
X138398405Y-144399154D01*
X138588881Y-144446773D01*
X138969833Y-144446773D01*
X139065071Y-144399154D01*
X139112690Y-144351535D01*
X139160309Y-144256297D01*
X139160309Y-144065820D01*
X139112690Y-143970582D01*
X139065071Y-143922963D01*
X138969833Y-143875344D01*
X138731738Y-143875344D01*
X138636500Y-143922963D01*
X138588881Y-143970582D01*
X138541262Y-144065820D01*
X138541262Y-144256297D01*
X138588881Y-144351535D01*
X138636500Y-144399154D01*
X138731738Y-144446773D01*
X145113439Y-146470657D02*
X144113439Y-146470657D01*
X144113439Y-146232562D01*
X144161059Y-146089705D01*
X144256297Y-145994467D01*
X144351535Y-145946848D01*
X144542011Y-145899229D01*
X144684868Y-145899229D01*
X144875344Y-145946848D01*
X144970582Y-145994467D01*
X145065820Y-146089705D01*
X145113439Y-146232562D01*
X145113439Y-146470657D01*
X145113439Y-144946848D02*
X145113439Y-145518276D01*
X145113439Y-145232562D02*
X144113439Y-145232562D01*
X144256297Y-145327800D01*
X144351535Y-145423038D01*
X144399154Y-145518276D01*
X144542011Y-144375419D02*
X144494392Y-144470657D01*
X144446773Y-144518276D01*
X144351535Y-144565895D01*
X144303916Y-144565895D01*
X144208678Y-144518276D01*
X144161059Y-144470657D01*
X144113439Y-144375419D01*
X144113439Y-144184943D01*
X144161059Y-144089705D01*
X144208678Y-144042086D01*
X144303916Y-143994467D01*
X144351535Y-143994467D01*
X144446773Y-144042086D01*
X144494392Y-144089705D01*
X144542011Y-144184943D01*
X144542011Y-144375419D01*
X144589630Y-144470657D01*
X144637249Y-144518276D01*
X144732487Y-144565895D01*
X144922963Y-144565895D01*
X145018201Y-144518276D01*
X145065820Y-144470657D01*
X145113439Y-144375419D01*
X145113439Y-144184943D01*
X145065820Y-144089705D01*
X145018201Y-144042086D01*
X144922963Y-143994467D01*
X144732487Y-143994467D01*
X144637249Y-144042086D01*
X144589630Y-144089705D01*
X144542011Y-144184943D01*
X148090004Y-135159710D02*
X147090004Y-135159710D01*
X147090004Y-134921615D01*
X147137624Y-134778758D01*
X147232862Y-134683520D01*
X147328100Y-134635901D01*
X147518576Y-134588282D01*
X147661433Y-134588282D01*
X147851909Y-134635901D01*
X147947147Y-134683520D01*
X148042385Y-134778758D01*
X148090004Y-134921615D01*
X148090004Y-135159710D01*
X147185243Y-134207329D02*
X147137624Y-134159710D01*
X147090004Y-134064472D01*
X147090004Y-133826377D01*
X147137624Y-133731139D01*
X147185243Y-133683520D01*
X147280481Y-133635901D01*
X147375719Y-133635901D01*
X147518576Y-133683520D01*
X148090004Y-134254948D01*
X148090004Y-133635901D01*
X147423338Y-132778758D02*
X148090004Y-132778758D01*
X147042385Y-133016853D02*
X147756671Y-133254948D01*
X147756671Y-132635901D01*
X166544707Y-146470657D02*
X165544707Y-146470657D01*
X165544707Y-146232562D01*
X165592327Y-146089705D01*
X165687565Y-145994467D01*
X165782803Y-145946848D01*
X165973279Y-145899229D01*
X166116136Y-145899229D01*
X166306612Y-145946848D01*
X166401850Y-145994467D01*
X166497088Y-146089705D01*
X166544707Y-146232562D01*
X166544707Y-146470657D01*
X165544707Y-145565895D02*
X165544707Y-144946848D01*
X165925660Y-145280181D01*
X165925660Y-145137324D01*
X165973279Y-145042086D01*
X166020898Y-144994467D01*
X166116136Y-144946848D01*
X166354231Y-144946848D01*
X166449469Y-144994467D01*
X166497088Y-145042086D01*
X166544707Y-145137324D01*
X166544707Y-145423038D01*
X166497088Y-145518276D01*
X166449469Y-145565895D01*
X165544707Y-144089705D02*
X165544707Y-144280181D01*
X165592327Y-144375419D01*
X165639946Y-144423038D01*
X165782803Y-144518276D01*
X165973279Y-144565895D01*
X166354231Y-144565895D01*
X166449469Y-144518276D01*
X166497088Y-144470657D01*
X166544707Y-144375419D01*
X166544707Y-144184943D01*
X166497088Y-144089705D01*
X166449469Y-144042086D01*
X166354231Y-143994467D01*
X166116136Y-143994467D01*
X166020898Y-144042086D01*
X165973279Y-144089705D01*
X165925660Y-144184943D01*
X165925660Y-144375419D01*
X165973279Y-144470657D01*
X166020898Y-144518276D01*
X166116136Y-144565895D01*
X163568142Y-135159710D02*
X162568142Y-135159710D01*
X162568142Y-134921615D01*
X162615762Y-134778758D01*
X162711000Y-134683520D01*
X162806238Y-134635901D01*
X162996714Y-134588282D01*
X163139571Y-134588282D01*
X163330047Y-134635901D01*
X163425285Y-134683520D01*
X163520523Y-134778758D01*
X163568142Y-134921615D01*
X163568142Y-135159710D01*
X162901476Y-133731139D02*
X163568142Y-133731139D01*
X162520523Y-133969234D02*
X163234809Y-134207329D01*
X163234809Y-133588282D01*
X162663381Y-133254948D02*
X162615762Y-133207329D01*
X162568142Y-133112091D01*
X162568142Y-132873996D01*
X162615762Y-132778758D01*
X162663381Y-132731139D01*
X162758619Y-132683520D01*
X162853857Y-132683520D01*
X162996714Y-132731139D01*
X163568142Y-133302567D01*
X163568142Y-132683520D01*
X160591577Y-146470657D02*
X159591577Y-146470657D01*
X159591577Y-146232562D01*
X159639197Y-146089705D01*
X159734435Y-145994467D01*
X159829673Y-145946848D01*
X160020149Y-145899229D01*
X160163006Y-145899229D01*
X160353482Y-145946848D01*
X160448720Y-145994467D01*
X160543958Y-146089705D01*
X160591577Y-146232562D01*
X160591577Y-146470657D01*
X159924911Y-145042086D02*
X160591577Y-145042086D01*
X159543958Y-145280181D02*
X160258244Y-145518276D01*
X160258244Y-144899229D01*
X160020149Y-144375419D02*
X159972530Y-144470657D01*
X159924911Y-144518276D01*
X159829673Y-144565895D01*
X159782054Y-144565895D01*
X159686816Y-144518276D01*
X159639197Y-144470657D01*
X159591577Y-144375419D01*
X159591577Y-144184943D01*
X159639197Y-144089705D01*
X159686816Y-144042086D01*
X159782054Y-143994467D01*
X159829673Y-143994467D01*
X159924911Y-144042086D01*
X159972530Y-144089705D01*
X160020149Y-144184943D01*
X160020149Y-144375419D01*
X160067768Y-144470657D01*
X160115387Y-144518276D01*
X160210625Y-144565895D01*
X160401101Y-144565895D01*
X160496339Y-144518276D01*
X160543958Y-144470657D01*
X160591577Y-144375419D01*
X160591577Y-144184943D01*
X160543958Y-144089705D01*
X160496339Y-144042086D01*
X160401101Y-143994467D01*
X160210625Y-143994467D01*
X160115387Y-144042086D01*
X160067768Y-144089705D01*
X160020149Y-144184943D01*
X157615012Y-135159710D02*
X156615012Y-135159710D01*
X156615012Y-134921615D01*
X156662632Y-134778758D01*
X156757870Y-134683520D01*
X156853108Y-134635901D01*
X157043584Y-134588282D01*
X157186441Y-134588282D01*
X157376917Y-134635901D01*
X157472155Y-134683520D01*
X157567393Y-134778758D01*
X157615012Y-134921615D01*
X157615012Y-135159710D01*
X156615012Y-133683520D02*
X156615012Y-134159710D01*
X157091203Y-134207329D01*
X157043584Y-134159710D01*
X156995965Y-134064472D01*
X156995965Y-133826377D01*
X157043584Y-133731139D01*
X157091203Y-133683520D01*
X157186441Y-133635901D01*
X157424536Y-133635901D01*
X157519774Y-133683520D01*
X157567393Y-133731139D01*
X157615012Y-133826377D01*
X157615012Y-134064472D01*
X157567393Y-134159710D01*
X157519774Y-134207329D01*
X156948346Y-132778758D02*
X157615012Y-132778758D01*
X156567393Y-133016853D02*
X157281679Y-133254948D01*
X157281679Y-132635901D01*
X143327500Y-64817538D02*
X143327500Y-65293729D01*
X142327500Y-65293729D01*
X142803691Y-64484205D02*
X142803691Y-64150871D01*
X143327500Y-64008014D02*
X143327500Y-64484205D01*
X142327500Y-64484205D01*
X142327500Y-64008014D01*
X143327500Y-63579443D02*
X142327500Y-63579443D01*
X142327500Y-63341348D01*
X142375120Y-63198491D01*
X142470358Y-63103252D01*
X142565596Y-63055633D01*
X142756072Y-63008014D01*
X142898929Y-63008014D01*
X143089405Y-63055633D01*
X143184643Y-63103252D01*
X143279881Y-63198491D01*
X143327500Y-63341348D01*
X143327500Y-63579443D01*
X143327500Y-62055633D02*
X143327500Y-62627062D01*
X143327500Y-62341348D02*
X142327500Y-62341348D01*
X142470358Y-62436586D01*
X142565596Y-62531824D01*
X142613215Y-62627062D01*
X128563948Y-136183744D02*
X128563948Y-135183744D01*
X128802043Y-135183744D01*
X128944900Y-135231364D01*
X129040138Y-135326602D01*
X129087757Y-135421840D01*
X129135376Y-135612316D01*
X129135376Y-135755173D01*
X129087757Y-135945649D01*
X129040138Y-136040887D01*
X128944900Y-136136125D01*
X128802043Y-136183744D01*
X128563948Y-136183744D01*
X129516329Y-135278983D02*
X129563948Y-135231364D01*
X129659186Y-135183744D01*
X129897281Y-135183744D01*
X129992519Y-135231364D01*
X130040138Y-135278983D01*
X130087757Y-135374221D01*
X130087757Y-135469459D01*
X130040138Y-135612316D01*
X129468710Y-136183744D01*
X130087757Y-136183744D01*
X130563948Y-136183744D02*
X130754424Y-136183744D01*
X130849662Y-136136125D01*
X130897281Y-136088506D01*
X130992519Y-135945649D01*
X131040138Y-135755173D01*
X131040138Y-135374221D01*
X130992519Y-135278983D01*
X130944900Y-135231364D01*
X130849662Y-135183744D01*
X130659186Y-135183744D01*
X130563948Y-135231364D01*
X130516329Y-135278983D01*
X130468710Y-135374221D01*
X130468710Y-135612316D01*
X130516329Y-135707554D01*
X130563948Y-135755173D01*
X130659186Y-135802792D01*
X130849662Y-135802792D01*
X130944900Y-135755173D01*
X130992519Y-135707554D01*
X131040138Y-135612316D01*
X151066569Y-146470657D02*
X150066569Y-146470657D01*
X150066569Y-146232562D01*
X150114189Y-146089705D01*
X150209427Y-145994467D01*
X150304665Y-145946848D01*
X150495141Y-145899229D01*
X150637998Y-145899229D01*
X150828474Y-145946848D01*
X150923712Y-145994467D01*
X151018950Y-146089705D01*
X151066569Y-146232562D01*
X151066569Y-146470657D01*
X150066569Y-145565895D02*
X150066569Y-144946848D01*
X150447522Y-145280181D01*
X150447522Y-145137324D01*
X150495141Y-145042086D01*
X150542760Y-144994467D01*
X150637998Y-144946848D01*
X150876093Y-144946848D01*
X150971331Y-144994467D01*
X151018950Y-145042086D01*
X151066569Y-145137324D01*
X151066569Y-145423038D01*
X151018950Y-145518276D01*
X150971331Y-145565895D01*
X150066569Y-144327800D02*
X150066569Y-144232562D01*
X150114189Y-144137324D01*
X150161808Y-144089705D01*
X150257046Y-144042086D01*
X150447522Y-143994467D01*
X150685617Y-143994467D01*
X150876093Y-144042086D01*
X150971331Y-144089705D01*
X151018950Y-144137324D01*
X151066569Y-144232562D01*
X151066569Y-144327800D01*
X151018950Y-144423038D01*
X150971331Y-144470657D01*
X150876093Y-144518276D01*
X150685617Y-144565895D01*
X150447522Y-144565895D01*
X150257046Y-144518276D01*
X150161808Y-144470657D01*
X150114189Y-144423038D01*
X150066569Y-144327800D01*
X177974927Y-77247757D02*
X177974927Y-76247757D01*
X178213022Y-76247757D01*
X178355879Y-76295377D01*
X178451117Y-76390615D01*
X178498736Y-76485853D01*
X178546355Y-76676329D01*
X178546355Y-76819186D01*
X178498736Y-77009662D01*
X178451117Y-77104900D01*
X178355879Y-77200138D01*
X178213022Y-77247757D01*
X177974927Y-77247757D01*
X179451117Y-76247757D02*
X178974927Y-76247757D01*
X178927308Y-76723948D01*
X178974927Y-76676329D01*
X179070165Y-76628710D01*
X179308260Y-76628710D01*
X179403498Y-76676329D01*
X179451117Y-76723948D01*
X179498736Y-76819186D01*
X179498736Y-77057281D01*
X179451117Y-77152519D01*
X179403498Y-77200138D01*
X179308260Y-77247757D01*
X179070165Y-77247757D01*
X178974927Y-77200138D01*
X178927308Y-77152519D01*
X180403498Y-76247757D02*
X179927308Y-76247757D01*
X179879689Y-76723948D01*
X179927308Y-76676329D01*
X180022546Y-76628710D01*
X180260641Y-76628710D01*
X180355879Y-76676329D01*
X180403498Y-76723948D01*
X180451117Y-76819186D01*
X180451117Y-77057281D01*
X180403498Y-77152519D01*
X180355879Y-77200138D01*
X180260641Y-77247757D01*
X180022546Y-77247757D01*
X179927308Y-77200138D01*
X179879689Y-77152519D01*
X166663980Y-80224322D02*
X166663980Y-79224322D01*
X166902075Y-79224322D01*
X167044932Y-79271942D01*
X167140170Y-79367180D01*
X167187789Y-79462418D01*
X167235408Y-79652894D01*
X167235408Y-79795751D01*
X167187789Y-79986227D01*
X167140170Y-80081465D01*
X167044932Y-80176703D01*
X166902075Y-80224322D01*
X166663980Y-80224322D01*
X168140170Y-79224322D02*
X167663980Y-79224322D01*
X167616361Y-79700513D01*
X167663980Y-79652894D01*
X167759218Y-79605275D01*
X167997313Y-79605275D01*
X168092551Y-79652894D01*
X168140170Y-79700513D01*
X168187789Y-79795751D01*
X168187789Y-80033846D01*
X168140170Y-80129084D01*
X168092551Y-80176703D01*
X167997313Y-80224322D01*
X167759218Y-80224322D01*
X167663980Y-80176703D01*
X167616361Y-80129084D01*
X169044932Y-79224322D02*
X168854456Y-79224322D01*
X168759218Y-79271942D01*
X168711599Y-79319561D01*
X168616361Y-79462418D01*
X168568742Y-79652894D01*
X168568742Y-80033846D01*
X168616361Y-80129084D01*
X168663980Y-80176703D01*
X168759218Y-80224322D01*
X168949694Y-80224322D01*
X169044932Y-80176703D01*
X169092551Y-80129084D01*
X169140170Y-80033846D01*
X169140170Y-79795751D01*
X169092551Y-79700513D01*
X169044932Y-79652894D01*
X168949694Y-79605275D01*
X168759218Y-79605275D01*
X168663980Y-79652894D01*
X168616361Y-79700513D01*
X168568742Y-79795751D01*
X166663980Y-98083712D02*
X166663980Y-97083712D01*
X166902075Y-97083712D01*
X167044932Y-97131332D01*
X167140170Y-97226570D01*
X167187789Y-97321808D01*
X167235408Y-97512284D01*
X167235408Y-97655141D01*
X167187789Y-97845617D01*
X167140170Y-97940855D01*
X167044932Y-98036093D01*
X166902075Y-98083712D01*
X166663980Y-98083712D01*
X168140170Y-97083712D02*
X167663980Y-97083712D01*
X167616361Y-97559903D01*
X167663980Y-97512284D01*
X167759218Y-97464665D01*
X167997313Y-97464665D01*
X168092551Y-97512284D01*
X168140170Y-97559903D01*
X168187789Y-97655141D01*
X168187789Y-97893236D01*
X168140170Y-97988474D01*
X168092551Y-98036093D01*
X167997313Y-98083712D01*
X167759218Y-98083712D01*
X167663980Y-98036093D01*
X167616361Y-97988474D01*
X168521123Y-97083712D02*
X169187789Y-97083712D01*
X168759218Y-98083712D01*
X166663980Y-115943102D02*
X166663980Y-114943102D01*
X166902075Y-114943102D01*
X167044932Y-114990722D01*
X167140170Y-115085960D01*
X167187789Y-115181198D01*
X167235408Y-115371674D01*
X167235408Y-115514531D01*
X167187789Y-115705007D01*
X167140170Y-115800245D01*
X167044932Y-115895483D01*
X166902075Y-115943102D01*
X166663980Y-115943102D01*
X168140170Y-114943102D02*
X167663980Y-114943102D01*
X167616361Y-115419293D01*
X167663980Y-115371674D01*
X167759218Y-115324055D01*
X167997313Y-115324055D01*
X168092551Y-115371674D01*
X168140170Y-115419293D01*
X168187789Y-115514531D01*
X168187789Y-115752626D01*
X168140170Y-115847864D01*
X168092551Y-115895483D01*
X167997313Y-115943102D01*
X167759218Y-115943102D01*
X167663980Y-115895483D01*
X167616361Y-115847864D01*
X168759218Y-115371674D02*
X168663980Y-115324055D01*
X168616361Y-115276436D01*
X168568742Y-115181198D01*
X168568742Y-115133579D01*
X168616361Y-115038341D01*
X168663980Y-114990722D01*
X168759218Y-114943102D01*
X168949694Y-114943102D01*
X169044932Y-114990722D01*
X169092551Y-115038341D01*
X169140170Y-115133579D01*
X169140170Y-115181198D01*
X169092551Y-115276436D01*
X169044932Y-115324055D01*
X168949694Y-115371674D01*
X168759218Y-115371674D01*
X168663980Y-115419293D01*
X168616361Y-115466912D01*
X168568742Y-115562150D01*
X168568742Y-115752626D01*
X168616361Y-115847864D01*
X168663980Y-115895483D01*
X168759218Y-115943102D01*
X168949694Y-115943102D01*
X169044932Y-115895483D01*
X169092551Y-115847864D01*
X169140170Y-115752626D01*
X169140170Y-115562150D01*
X169092551Y-115466912D01*
X169044932Y-115419293D01*
X168949694Y-115371674D01*
X173807736Y-136183744D02*
X173807736Y-135183744D01*
X174045831Y-135183744D01*
X174188688Y-135231364D01*
X174283926Y-135326602D01*
X174331545Y-135421840D01*
X174379164Y-135612316D01*
X174379164Y-135755173D01*
X174331545Y-135945649D01*
X174283926Y-136040887D01*
X174188688Y-136136125D01*
X174045831Y-136183744D01*
X173807736Y-136183744D01*
X175283926Y-135183744D02*
X174807736Y-135183744D01*
X174760117Y-135659935D01*
X174807736Y-135612316D01*
X174902974Y-135564697D01*
X175141069Y-135564697D01*
X175236307Y-135612316D01*
X175283926Y-135659935D01*
X175331545Y-135755173D01*
X175331545Y-135993268D01*
X175283926Y-136088506D01*
X175236307Y-136136125D01*
X175141069Y-136183744D01*
X174902974Y-136183744D01*
X174807736Y-136136125D01*
X174760117Y-136088506D01*
X175807736Y-136183744D02*
X175998212Y-136183744D01*
X176093450Y-136136125D01*
X176141069Y-136088506D01*
X176236307Y-135945649D01*
X176283926Y-135755173D01*
X176283926Y-135374221D01*
X176236307Y-135278983D01*
X176188688Y-135231364D01*
X176093450Y-135183744D01*
X175902974Y-135183744D01*
X175807736Y-135231364D01*
X175760117Y-135278983D01*
X175712498Y-135374221D01*
X175712498Y-135612316D01*
X175760117Y-135707554D01*
X175807736Y-135755173D01*
X175902974Y-135802792D01*
X176093450Y-135802792D01*
X176188688Y-135755173D01*
X176236307Y-135707554D01*
X176283926Y-135612316D01*
X154638447Y-146470657D02*
X153638447Y-146470657D01*
X153638447Y-146232562D01*
X153686067Y-146089705D01*
X153781305Y-145994467D01*
X153876543Y-145946848D01*
X154067019Y-145899229D01*
X154209876Y-145899229D01*
X154400352Y-145946848D01*
X154495590Y-145994467D01*
X154590828Y-146089705D01*
X154638447Y-146232562D01*
X154638447Y-146470657D01*
X153638447Y-145042086D02*
X153638447Y-145232562D01*
X153686067Y-145327800D01*
X153733686Y-145375419D01*
X153876543Y-145470657D01*
X154067019Y-145518276D01*
X154447971Y-145518276D01*
X154543209Y-145470657D01*
X154590828Y-145423038D01*
X154638447Y-145327800D01*
X154638447Y-145137324D01*
X154590828Y-145042086D01*
X154543209Y-144994467D01*
X154447971Y-144946848D01*
X154209876Y-144946848D01*
X154114638Y-144994467D01*
X154067019Y-145042086D01*
X154019400Y-145137324D01*
X154019400Y-145327800D01*
X154067019Y-145423038D01*
X154114638Y-145470657D01*
X154209876Y-145518276D01*
X153638447Y-144327800D02*
X153638447Y-144232562D01*
X153686067Y-144137324D01*
X153733686Y-144089705D01*
X153828924Y-144042086D01*
X154019400Y-143994467D01*
X154257495Y-143994467D01*
X154447971Y-144042086D01*
X154543209Y-144089705D01*
X154590828Y-144137324D01*
X154638447Y-144232562D01*
X154638447Y-144327800D01*
X154590828Y-144423038D01*
X154543209Y-144470657D01*
X154447971Y-144518276D01*
X154257495Y-144565895D01*
X154019400Y-144565895D01*
X153828924Y-144518276D01*
X153733686Y-144470657D01*
X153686067Y-144423038D01*
X153638447Y-144327800D01*
D13*
X111614953Y-126018375D02*
X111614953Y-124748375D01*
X112122953Y-125655518D01*
X112630953Y-124748375D01*
X112630953Y-126018375D01*
X113211524Y-124748375D02*
X114227524Y-126018375D01*
X114227524Y-124748375D02*
X113211524Y-126018375D01*
X114735524Y-124869328D02*
X114808096Y-124808852D01*
X114953238Y-124748375D01*
X115316096Y-124748375D01*
X115461238Y-124808852D01*
X115533810Y-124869328D01*
X115606381Y-124990280D01*
X115606381Y-125111232D01*
X115533810Y-125292661D01*
X114662953Y-126018375D01*
X115606381Y-126018375D01*
X116332096Y-126018375D02*
X116622381Y-126018375D01*
X116767524Y-125957899D01*
X116840096Y-125897423D01*
X116985238Y-125715994D01*
X117057810Y-125474090D01*
X117057810Y-124990280D01*
X116985238Y-124869328D01*
X116912667Y-124808852D01*
X116767524Y-124748375D01*
X116477238Y-124748375D01*
X116332096Y-124808852D01*
X116259524Y-124869328D01*
X116186953Y-124990280D01*
X116186953Y-125292661D01*
X116259524Y-125413613D01*
X116332096Y-125474090D01*
X116477238Y-125534566D01*
X116767524Y-125534566D01*
X116912667Y-125474090D01*
X116985238Y-125413613D01*
X117057810Y-125292661D01*
X111614953Y-145068391D02*
X111614953Y-143798391D01*
X112122953Y-144705534D01*
X112630953Y-143798391D01*
X112630953Y-145068391D01*
X113211524Y-143798391D02*
X114227524Y-145068391D01*
X114227524Y-143798391D02*
X113211524Y-145068391D01*
X114662953Y-143798391D02*
X115606381Y-143798391D01*
X115098381Y-144282201D01*
X115316096Y-144282201D01*
X115461238Y-144342677D01*
X115533810Y-144403153D01*
X115606381Y-144524106D01*
X115606381Y-144826487D01*
X115533810Y-144947439D01*
X115461238Y-145007915D01*
X115316096Y-145068391D01*
X114880667Y-145068391D01*
X114735524Y-145007915D01*
X114662953Y-144947439D01*
X116549810Y-143798391D02*
X116694953Y-143798391D01*
X116840096Y-143858868D01*
X116912667Y-143919344D01*
X116985238Y-144040296D01*
X117057810Y-144282201D01*
X117057810Y-144584582D01*
X116985238Y-144826487D01*
X116912667Y-144947439D01*
X116840096Y-145007915D01*
X116694953Y-145068391D01*
X116549810Y-145068391D01*
X116404667Y-145007915D01*
X116332096Y-144947439D01*
X116259524Y-144826487D01*
X116186953Y-144584582D01*
X116186953Y-144282201D01*
X116259524Y-144040296D01*
X116332096Y-143919344D01*
X116404667Y-143858868D01*
X116549810Y-143798391D01*
X206865033Y-68868327D02*
X206865033Y-67598327D01*
X207373033Y-68505470D01*
X207881033Y-67598327D01*
X207881033Y-68868327D01*
X208461604Y-67598327D02*
X209477604Y-68868327D01*
X209477604Y-67598327D02*
X208461604Y-68868327D01*
X210783890Y-67598327D02*
X210058176Y-67598327D01*
X209985604Y-68203089D01*
X210058176Y-68142613D01*
X210203318Y-68082137D01*
X210566176Y-68082137D01*
X210711318Y-68142613D01*
X210783890Y-68203089D01*
X210856461Y-68324042D01*
X210856461Y-68626423D01*
X210783890Y-68747375D01*
X210711318Y-68807851D01*
X210566176Y-68868327D01*
X210203318Y-68868327D01*
X210058176Y-68807851D01*
X209985604Y-68747375D01*
X212235318Y-67598327D02*
X211509604Y-67598327D01*
X211437033Y-68203089D01*
X211509604Y-68142613D01*
X211654747Y-68082137D01*
X212017604Y-68082137D01*
X212162747Y-68142613D01*
X212235318Y-68203089D01*
X212307890Y-68324042D01*
X212307890Y-68626423D01*
X212235318Y-68747375D01*
X212162747Y-68807851D01*
X212017604Y-68868327D01*
X211654747Y-68868327D01*
X211509604Y-68807851D01*
X211437033Y-68747375D01*
X187815017Y-68868327D02*
X187815017Y-67598327D01*
X188323017Y-68505470D01*
X188831017Y-67598327D01*
X188831017Y-68868327D01*
X189411588Y-67598327D02*
X190427588Y-68868327D01*
X190427588Y-67598327D02*
X189411588Y-68868327D01*
X191733874Y-67598327D02*
X191008160Y-67598327D01*
X190935588Y-68203089D01*
X191008160Y-68142613D01*
X191153302Y-68082137D01*
X191516160Y-68082137D01*
X191661302Y-68142613D01*
X191733874Y-68203089D01*
X191806445Y-68324042D01*
X191806445Y-68626423D01*
X191733874Y-68747375D01*
X191661302Y-68807851D01*
X191516160Y-68868327D01*
X191153302Y-68868327D01*
X191008160Y-68807851D01*
X190935588Y-68747375D01*
X193112731Y-67598327D02*
X192822445Y-67598327D01*
X192677302Y-67658804D01*
X192604731Y-67719280D01*
X192459588Y-67900708D01*
X192387017Y-68142613D01*
X192387017Y-68626423D01*
X192459588Y-68747375D01*
X192532160Y-68807851D01*
X192677302Y-68868327D01*
X192967588Y-68868327D01*
X193112731Y-68807851D01*
X193185302Y-68747375D01*
X193257874Y-68626423D01*
X193257874Y-68324042D01*
X193185302Y-68203089D01*
X193112731Y-68142613D01*
X192967588Y-68082137D01*
X192677302Y-68082137D01*
X192532160Y-68142613D01*
X192459588Y-68203089D01*
X192387017Y-68324042D01*
X187815017Y-87918343D02*
X187815017Y-86648343D01*
X188323017Y-87555486D01*
X188831017Y-86648343D01*
X188831017Y-87918343D01*
X189411588Y-86648343D02*
X190427588Y-87918343D01*
X190427588Y-86648343D02*
X189411588Y-87918343D01*
X191733874Y-86648343D02*
X191008160Y-86648343D01*
X190935588Y-87253105D01*
X191008160Y-87192629D01*
X191153302Y-87132153D01*
X191516160Y-87132153D01*
X191661302Y-87192629D01*
X191733874Y-87253105D01*
X191806445Y-87374058D01*
X191806445Y-87676439D01*
X191733874Y-87797391D01*
X191661302Y-87857867D01*
X191516160Y-87918343D01*
X191153302Y-87918343D01*
X191008160Y-87857867D01*
X190935588Y-87797391D01*
X192314445Y-86648343D02*
X193330445Y-86648343D01*
X192677302Y-87918343D01*
X187815017Y-106968359D02*
X187815017Y-105698359D01*
X188323017Y-106605502D01*
X188831017Y-105698359D01*
X188831017Y-106968359D01*
X189411588Y-105698359D02*
X190427588Y-106968359D01*
X190427588Y-105698359D02*
X189411588Y-106968359D01*
X191733874Y-105698359D02*
X191008160Y-105698359D01*
X190935588Y-106303121D01*
X191008160Y-106242645D01*
X191153302Y-106182169D01*
X191516160Y-106182169D01*
X191661302Y-106242645D01*
X191733874Y-106303121D01*
X191806445Y-106424074D01*
X191806445Y-106726455D01*
X191733874Y-106847407D01*
X191661302Y-106907883D01*
X191516160Y-106968359D01*
X191153302Y-106968359D01*
X191008160Y-106907883D01*
X190935588Y-106847407D01*
X192677302Y-106242645D02*
X192532160Y-106182169D01*
X192459588Y-106121693D01*
X192387017Y-106000740D01*
X192387017Y-105940264D01*
X192459588Y-105819312D01*
X192532160Y-105758836D01*
X192677302Y-105698359D01*
X192967588Y-105698359D01*
X193112731Y-105758836D01*
X193185302Y-105819312D01*
X193257874Y-105940264D01*
X193257874Y-106000740D01*
X193185302Y-106121693D01*
X193112731Y-106182169D01*
X192967588Y-106242645D01*
X192677302Y-106242645D01*
X192532160Y-106303121D01*
X192459588Y-106363597D01*
X192387017Y-106484550D01*
X192387017Y-106726455D01*
X192459588Y-106847407D01*
X192532160Y-106907883D01*
X192677302Y-106968359D01*
X192967588Y-106968359D01*
X193112731Y-106907883D01*
X193185302Y-106847407D01*
X193257874Y-106726455D01*
X193257874Y-106484550D01*
X193185302Y-106363597D01*
X193112731Y-106303121D01*
X192967588Y-106242645D01*
X187815017Y-126018375D02*
X187815017Y-124748375D01*
X188323017Y-125655518D01*
X188831017Y-124748375D01*
X188831017Y-126018375D01*
X189411588Y-124748375D02*
X190427588Y-126018375D01*
X190427588Y-124748375D02*
X189411588Y-126018375D01*
X191733874Y-124748375D02*
X191008160Y-124748375D01*
X190935588Y-125353137D01*
X191008160Y-125292661D01*
X191153302Y-125232185D01*
X191516160Y-125232185D01*
X191661302Y-125292661D01*
X191733874Y-125353137D01*
X191806445Y-125474090D01*
X191806445Y-125776471D01*
X191733874Y-125897423D01*
X191661302Y-125957899D01*
X191516160Y-126018375D01*
X191153302Y-126018375D01*
X191008160Y-125957899D01*
X190935588Y-125897423D01*
X192532160Y-126018375D02*
X192822445Y-126018375D01*
X192967588Y-125957899D01*
X193040160Y-125897423D01*
X193185302Y-125715994D01*
X193257874Y-125474090D01*
X193257874Y-124990280D01*
X193185302Y-124869328D01*
X193112731Y-124808852D01*
X192967588Y-124748375D01*
X192677302Y-124748375D01*
X192532160Y-124808852D01*
X192459588Y-124869328D01*
X192387017Y-124990280D01*
X192387017Y-125292661D01*
X192459588Y-125413613D01*
X192532160Y-125474090D01*
X192677302Y-125534566D01*
X192967588Y-125534566D01*
X193112731Y-125474090D01*
X193185302Y-125413613D01*
X193257874Y-125292661D01*
X187815017Y-145068391D02*
X187815017Y-143798391D01*
X188323017Y-144705534D01*
X188831017Y-143798391D01*
X188831017Y-145068391D01*
X189411588Y-143798391D02*
X190427588Y-145068391D01*
X190427588Y-143798391D02*
X189411588Y-145068391D01*
X191661302Y-143798391D02*
X191371017Y-143798391D01*
X191225874Y-143858868D01*
X191153302Y-143919344D01*
X191008160Y-144100772D01*
X190935588Y-144342677D01*
X190935588Y-144826487D01*
X191008160Y-144947439D01*
X191080731Y-145007915D01*
X191225874Y-145068391D01*
X191516160Y-145068391D01*
X191661302Y-145007915D01*
X191733874Y-144947439D01*
X191806445Y-144826487D01*
X191806445Y-144524106D01*
X191733874Y-144403153D01*
X191661302Y-144342677D01*
X191516160Y-144282201D01*
X191225874Y-144282201D01*
X191080731Y-144342677D01*
X191008160Y-144403153D01*
X190935588Y-144524106D01*
X192749874Y-143798391D02*
X192895017Y-143798391D01*
X193040160Y-143858868D01*
X193112731Y-143919344D01*
X193185302Y-144040296D01*
X193257874Y-144282201D01*
X193257874Y-144584582D01*
X193185302Y-144826487D01*
X193112731Y-144947439D01*
X193040160Y-145007915D01*
X192895017Y-145068391D01*
X192749874Y-145068391D01*
X192604731Y-145007915D01*
X192532160Y-144947439D01*
X192459588Y-144826487D01*
X192387017Y-144584582D01*
X192387017Y-144282201D01*
X192459588Y-144040296D01*
X192532160Y-143919344D01*
X192604731Y-143858868D01*
X192749874Y-143798391D01*
X100021659Y-132180275D02*
X100094230Y-132119799D01*
X100239373Y-132059322D01*
X100602230Y-132059322D01*
X100747373Y-132119799D01*
X100819945Y-132180275D01*
X100892516Y-132301227D01*
X100892516Y-132422179D01*
X100819945Y-132603608D01*
X99949088Y-133329322D01*
X100892516Y-133329322D01*
X102198802Y-132482656D02*
X102198802Y-133329322D01*
X101545659Y-132482656D02*
X101545659Y-133147894D01*
X101618230Y-133268846D01*
X101763373Y-133329322D01*
X101981088Y-133329322D01*
X102126230Y-133268846D01*
X102198802Y-133208370D01*
X102561659Y-133450275D02*
X103722802Y-133450275D01*
X104085659Y-133329322D02*
X104085659Y-132059322D01*
X104593659Y-132966465D01*
X105101659Y-132059322D01*
X105101659Y-133329322D01*
X105682230Y-132059322D02*
X106698230Y-133329322D01*
X106698230Y-132059322D02*
X105682230Y-133329322D01*
X107133659Y-132059322D02*
X108077088Y-132059322D01*
X107569088Y-132543132D01*
X107786802Y-132543132D01*
X107931945Y-132603608D01*
X108004516Y-132664084D01*
X108077088Y-132785037D01*
X108077088Y-133087418D01*
X108004516Y-133208370D01*
X107931945Y-133268846D01*
X107786802Y-133329322D01*
X107351373Y-133329322D01*
X107206230Y-133268846D01*
X107133659Y-133208370D01*
X109020516Y-132059322D02*
X109165659Y-132059322D01*
X109310802Y-132119799D01*
X109383373Y-132180275D01*
X109455945Y-132301227D01*
X109528516Y-132543132D01*
X109528516Y-132845513D01*
X109455945Y-133087418D01*
X109383373Y-133208370D01*
X109310802Y-133268846D01*
X109165659Y-133329322D01*
X109020516Y-133329322D01*
X108875373Y-133268846D01*
X108802802Y-133208370D01*
X108730230Y-133087418D01*
X108657659Y-132845513D01*
X108657659Y-132543132D01*
X108730230Y-132301227D01*
X108802802Y-132180275D01*
X108875373Y-132119799D01*
X109020516Y-132059322D01*
X195271739Y-132180275D02*
X195344310Y-132119799D01*
X195489453Y-132059322D01*
X195852310Y-132059322D01*
X195997453Y-132119799D01*
X196070025Y-132180275D01*
X196142596Y-132301227D01*
X196142596Y-132422179D01*
X196070025Y-132603608D01*
X195199168Y-133329322D01*
X196142596Y-133329322D01*
X197448882Y-132482656D02*
X197448882Y-133329322D01*
X196795739Y-132482656D02*
X196795739Y-133147894D01*
X196868310Y-133268846D01*
X197013453Y-133329322D01*
X197231168Y-133329322D01*
X197376310Y-133268846D01*
X197448882Y-133208370D01*
X197811739Y-133450275D02*
X198972882Y-133450275D01*
X199335739Y-133329322D02*
X199335739Y-132059322D01*
X199843739Y-132966465D01*
X200351739Y-132059322D01*
X200351739Y-133329322D01*
X200932310Y-132059322D02*
X201948310Y-133329322D01*
X201948310Y-132059322D02*
X200932310Y-133329322D01*
X203182025Y-132059322D02*
X202891739Y-132059322D01*
X202746596Y-132119799D01*
X202674025Y-132180275D01*
X202528882Y-132361703D01*
X202456310Y-132603608D01*
X202456310Y-133087418D01*
X202528882Y-133208370D01*
X202601453Y-133268846D01*
X202746596Y-133329322D01*
X203036882Y-133329322D01*
X203182025Y-133268846D01*
X203254596Y-133208370D01*
X203327168Y-133087418D01*
X203327168Y-132785037D01*
X203254596Y-132664084D01*
X203182025Y-132603608D01*
X203036882Y-132543132D01*
X202746596Y-132543132D01*
X202601453Y-132603608D01*
X202528882Y-132664084D01*
X202456310Y-132785037D01*
X204270596Y-132059322D02*
X204415739Y-132059322D01*
X204560882Y-132119799D01*
X204633453Y-132180275D01*
X204706025Y-132301227D01*
X204778596Y-132543132D01*
X204778596Y-132845513D01*
X204706025Y-133087418D01*
X204633453Y-133208370D01*
X204560882Y-133268846D01*
X204415739Y-133329322D01*
X204270596Y-133329322D01*
X204125453Y-133268846D01*
X204052882Y-133208370D01*
X203980310Y-133087418D01*
X203907739Y-132845513D01*
X203907739Y-132543132D01*
X203980310Y-132301227D01*
X204052882Y-132180275D01*
X204125453Y-132119799D01*
X204270596Y-132059322D01*
D11*
X164758768Y-113871449D02*
X164282578Y-114204783D01*
X164758768Y-114442878D02*
X163758768Y-114442878D01*
X163758768Y-114061925D01*
X163806388Y-113966687D01*
X163854007Y-113919068D01*
X163949245Y-113871449D01*
X164092102Y-113871449D01*
X164187340Y-113919068D01*
X164234959Y-113966687D01*
X164282578Y-114061925D01*
X164282578Y-114442878D01*
X164758768Y-112919068D02*
X164758768Y-113490497D01*
X164758768Y-113204783D02*
X163758768Y-113204783D01*
X163901626Y-113300021D01*
X163996864Y-113395259D01*
X164044483Y-113490497D01*
X157686591Y-114066687D02*
X157229448Y-114066687D01*
X157458019Y-114066687D02*
X157458019Y-113266687D01*
X157381829Y-113380973D01*
X157305638Y-113457163D01*
X157229448Y-113495259D01*
X158029448Y-113990497D02*
X158067543Y-114028592D01*
X158029448Y-114066687D01*
X157991353Y-114028592D01*
X158029448Y-113990497D01*
X158029448Y-114066687D01*
X158791353Y-113266687D02*
X158410400Y-113266687D01*
X158372305Y-113647640D01*
X158410400Y-113609544D01*
X158486591Y-113571449D01*
X158677067Y-113571449D01*
X158753258Y-113609544D01*
X158791353Y-113647640D01*
X158829448Y-113723830D01*
X158829448Y-113914306D01*
X158791353Y-113990497D01*
X158753258Y-114028592D01*
X158677067Y-114066687D01*
X158486591Y-114066687D01*
X158410400Y-114028592D01*
X158372305Y-113990497D01*
X159172305Y-114066687D02*
X159172305Y-113266687D01*
X159248496Y-113761925D02*
X159477067Y-114066687D01*
X159477067Y-113533354D02*
X159172305Y-113838116D01*
X164758768Y-111490197D02*
X164282578Y-111823531D01*
X164758768Y-112061626D02*
X163758768Y-112061626D01*
X163758768Y-111680673D01*
X163806388Y-111585435D01*
X163854007Y-111537816D01*
X163949245Y-111490197D01*
X164092102Y-111490197D01*
X164187340Y-111537816D01*
X164234959Y-111585435D01*
X164282578Y-111680673D01*
X164282578Y-112061626D01*
X163854007Y-111109245D02*
X163806388Y-111061626D01*
X163758768Y-110966388D01*
X163758768Y-110728292D01*
X163806388Y-110633054D01*
X163854007Y-110585435D01*
X163949245Y-110537816D01*
X164044483Y-110537816D01*
X164187340Y-110585435D01*
X164758768Y-111156864D01*
X164758768Y-110537816D01*
X157305638Y-110885435D02*
X157838972Y-110885435D01*
X157496115Y-111685435D01*
X158524686Y-110885435D02*
X158143734Y-110885435D01*
X158105638Y-111266388D01*
X158143734Y-111228292D01*
X158219924Y-111190197D01*
X158410400Y-111190197D01*
X158486591Y-111228292D01*
X158524686Y-111266388D01*
X158562781Y-111342578D01*
X158562781Y-111533054D01*
X158524686Y-111609245D01*
X158486591Y-111647340D01*
X158410400Y-111685435D01*
X158219924Y-111685435D01*
X158143734Y-111647340D01*
X158105638Y-111609245D01*
X159362781Y-111685435D02*
X159096115Y-111304483D01*
X158905638Y-111685435D02*
X158905638Y-110885435D01*
X159210400Y-110885435D01*
X159286591Y-110923531D01*
X159324686Y-110961626D01*
X159362781Y-111037816D01*
X159362781Y-111152102D01*
X159324686Y-111228292D01*
X159286591Y-111266388D01*
X159210400Y-111304483D01*
X158905638Y-111304483D01*
X146042209Y-60713054D02*
X145708876Y-60236864D01*
X145470780Y-60713054D02*
X145470780Y-59713054D01*
X145851733Y-59713054D01*
X145946971Y-59760674D01*
X145994590Y-59808293D01*
X146042209Y-59903531D01*
X146042209Y-60046388D01*
X145994590Y-60141626D01*
X145946971Y-60189245D01*
X145851733Y-60236864D01*
X145470780Y-60236864D01*
X146375542Y-59713054D02*
X147042209Y-59713054D01*
X146613637Y-60713054D01*
X158424713Y-60713054D02*
X158091380Y-60236864D01*
X157853284Y-60713054D02*
X157853284Y-59713054D01*
X158234237Y-59713054D01*
X158329475Y-59760674D01*
X158377094Y-59808293D01*
X158424713Y-59903531D01*
X158424713Y-60046388D01*
X158377094Y-60141626D01*
X158329475Y-60189245D01*
X158234237Y-60236864D01*
X157853284Y-60236864D01*
X158996141Y-60141626D02*
X158900903Y-60094007D01*
X158853284Y-60046388D01*
X158805665Y-59951150D01*
X158805665Y-59903531D01*
X158853284Y-59808293D01*
X158900903Y-59760674D01*
X158996141Y-59713054D01*
X159186618Y-59713054D01*
X159281856Y-59760674D01*
X159329475Y-59808293D01*
X159377094Y-59903531D01*
X159377094Y-59951150D01*
X159329475Y-60046388D01*
X159281856Y-60094007D01*
X159186618Y-60141626D01*
X158996141Y-60141626D01*
X158900903Y-60189245D01*
X158853284Y-60236864D01*
X158805665Y-60332102D01*
X158805665Y-60522578D01*
X158853284Y-60617816D01*
X158900903Y-60665435D01*
X158996141Y-60713054D01*
X159186618Y-60713054D01*
X159281856Y-60665435D01*
X159329475Y-60617816D01*
X159377094Y-60522578D01*
X159377094Y-60332102D01*
X159329475Y-60236864D01*
X159281856Y-60189245D01*
X159186618Y-60141626D01*
M02*
