G04 #@! TF.GenerationSoftware,KiCad,Pcbnew,(5.1.12-1-10_14)*
G04 #@! TF.CreationDate,2022-03-20T18:00:09+01:00*
G04 #@! TF.ProjectId,lumberjack,6c756d62-6572-46a6-9163-6b2e6b696361,1.7*
G04 #@! TF.SameCoordinates,Original*
G04 #@! TF.FileFunction,Profile,NP*
%FSLAX46Y46*%
G04 Gerber Fmt 4.6, Leading zero omitted, Abs format (unit mm)*
G04 Created by KiCad (PCBNEW (5.1.12-1-10_14)) date 2022-03-20 18:00:09*
%MOMM*%
%LPD*%
G01*
G04 APERTURE LIST*
G04 #@! TA.AperFunction,Profile*
%ADD10C,0.200000*%
G04 #@! TD*
G04 APERTURE END LIST*
D10*
X286896549Y-55293750D02*
G75*
G03*
X285566514Y-56100201I-1J-1500000D01*
G01*
X286896549Y-55293750D02*
X292500000Y-55293750D01*
X279980371Y-56100202D02*
G75*
G03*
X278650337Y-55293750I-1330034J-693548D01*
G01*
X279980372Y-56100201D02*
G75*
G03*
X285566514Y-56100201I2793071J1456451D01*
G01*
X198469969Y-148693548D02*
G75*
G03*
X192883824Y-148693548I-2793073J-1456452D01*
G01*
X191553790Y-149500000D02*
G75*
G03*
X192883824Y-148693548I0J1500000D01*
G01*
X198469967Y-148693548D02*
G75*
G03*
X199800001Y-149500000I1330034J693548D01*
G01*
X199800001Y-149500000D02*
X238764395Y-149493750D01*
X105000000Y-149500000D02*
X66035606Y-149493750D01*
X106330032Y-148693548D02*
G75*
G02*
X111916177Y-148693548I2793073J-1456452D01*
G01*
X113246211Y-149500000D02*
G75*
G02*
X111916177Y-148693548I0J1500000D01*
G01*
X106330034Y-148693548D02*
G75*
G02*
X105000000Y-149500000I-1330034J693548D01*
G01*
X170810606Y-55293750D02*
X191753788Y-55300000D01*
X193083822Y-56106452D02*
G75*
G03*
X191753788Y-55300000I-1330034J-693548D01*
G01*
X193083823Y-56106451D02*
G75*
G03*
X198669965Y-56106451I2793071J1456451D01*
G01*
X200000000Y-55300000D02*
G75*
G03*
X198669965Y-56106451I-1J-1500000D01*
G01*
X133989394Y-55293750D02*
X113046212Y-55300000D01*
X111716178Y-56106452D02*
G75*
G02*
X113046212Y-55300000I1330034J-693548D01*
G01*
X111716177Y-56106451D02*
G75*
G02*
X106130035Y-56106451I-2793071J1456451D01*
G01*
X104800000Y-55300000D02*
G75*
G02*
X106130035Y-56106451I1J-1500000D01*
G01*
X279980372Y-148687299D02*
G75*
G02*
X285566514Y-148687299I2793071J-1456451D01*
G01*
X279980371Y-148687298D02*
G75*
G02*
X278650337Y-149493750I-1330034J693548D01*
G01*
X286896549Y-149493750D02*
X292500000Y-149493750D01*
X286896549Y-149493750D02*
G75*
G02*
X285566514Y-148687299I-1J1500000D01*
G01*
X23033689Y-56100201D02*
G75*
G02*
X17447547Y-56100201I-2793071J1456451D01*
G01*
X23033690Y-56100202D02*
G75*
G02*
X24363724Y-55293750I1330034J-693548D01*
G01*
X16117512Y-55293750D02*
X12300000Y-55293750D01*
X16117512Y-55293750D02*
G75*
G02*
X17447547Y-56100201I1J-1500000D01*
G01*
X17903451Y-149493750D02*
G75*
G03*
X19233486Y-148687299I1J1500000D01*
G01*
X24819628Y-148687299D02*
G75*
G03*
X19233486Y-148687299I-2793071J-1456451D01*
G01*
X17903451Y-149493750D02*
X12300000Y-149493750D01*
X24819629Y-148687298D02*
G75*
G03*
X26149663Y-149493750I1330034J693548D01*
G01*
X43501894Y-55293750D02*
X24363724Y-55293750D01*
X43501893Y-55293750D02*
G75*
G02*
X44831928Y-56100201I1J-1500000D01*
G01*
X50418070Y-56100201D02*
G75*
G02*
X44831928Y-56100201I-2793071J1456451D01*
G01*
X50418071Y-56100202D02*
G75*
G02*
X51748105Y-55293750I1330034J-693548D01*
G01*
X259968071Y-56100201D02*
G75*
G02*
X254381929Y-56100201I-2793071J1456451D01*
G01*
X57789395Y-149493750D02*
X26149663Y-149493750D01*
X169480571Y-56100201D02*
G75*
G02*
X163894429Y-56100201I-2793071J1456451D01*
G01*
X162564394Y-55293750D02*
X142235606Y-55293750D01*
X10050000Y-147243750D02*
X10050000Y-57543750D01*
X169480572Y-56100202D02*
G75*
G02*
X170810606Y-55293750I1330034J-693548D01*
G01*
X278650337Y-55293750D02*
X261298106Y-55293750D01*
X278650337Y-149493750D02*
X247010606Y-149493750D01*
X259968072Y-56100202D02*
G75*
G02*
X261298106Y-55293750I1330034J-693548D01*
G01*
X12300000Y-149493750D02*
G75*
G02*
X10050000Y-147243750I0J2250000D01*
G01*
X133989394Y-55293750D02*
G75*
G02*
X135319429Y-56100201I1J-1500000D01*
G01*
X294750000Y-147243750D02*
G75*
G02*
X292500000Y-149493750I-2250000J0D01*
G01*
X140905571Y-56100201D02*
G75*
G02*
X135319429Y-56100201I-2793071J1456451D01*
G01*
X59119429Y-148687298D02*
G75*
G02*
X57789395Y-149493750I-1330034J693548D01*
G01*
X66035606Y-149493750D02*
G75*
G02*
X64705572Y-148687298I0J1500000D01*
G01*
X59119427Y-148687298D02*
G75*
G02*
X64705572Y-148687298I2793073J-1456452D01*
G01*
X240094427Y-148687298D02*
G75*
G02*
X245680572Y-148687298I2793073J-1456452D01*
G01*
X162564394Y-55293750D02*
G75*
G02*
X163894429Y-56100201I1J-1500000D01*
G01*
X292500000Y-55293750D02*
G75*
G02*
X294750000Y-57543750I0J-2250000D01*
G01*
X247010606Y-149493750D02*
G75*
G02*
X245680572Y-148687298I0J1500000D01*
G01*
X253051894Y-55293750D02*
G75*
G02*
X254381929Y-56100201I1J-1500000D01*
G01*
X10050000Y-57543750D02*
G75*
G02*
X12300000Y-55293750I2250000J0D01*
G01*
X104800000Y-55300000D02*
X51748105Y-55293750D01*
X191553790Y-149500000D02*
X113246211Y-149500000D01*
X140905572Y-56100202D02*
G75*
G02*
X142235606Y-55293750I1330034J-693548D01*
G01*
X294750000Y-147243750D02*
X294750000Y-57543750D01*
X240094429Y-148687298D02*
G75*
G02*
X238764395Y-149493750I-1330034J693548D01*
G01*
X253051895Y-55293750D02*
X200000000Y-55300000D01*
M02*
