G04 #@! TF.GenerationSoftware,KiCad,Pcbnew,(5.1.10-1-10_14)*
G04 #@! TF.CreationDate,2021-12-25T12:09:55+01:00*
G04 #@! TF.ProjectId,lumberjack,6c756d62-6572-46a6-9163-6b2e6b696361,1.5*
G04 #@! TF.SameCoordinates,Original*
G04 #@! TF.FileFunction,Profile,NP*
%FSLAX46Y46*%
G04 Gerber Fmt 4.6, Leading zero omitted, Abs format (unit mm)*
G04 Created by KiCad (PCBNEW (5.1.10-1-10_14)) date 2021-12-25 12:09:55*
%MOMM*%
%LPD*%
G01*
G04 APERTURE LIST*
G04 #@! TA.AperFunction,Profile*
%ADD10C,0.200000*%
G04 #@! TD*
G04 APERTURE END LIST*
D10*
X279018070Y-56100201D02*
G75*
G02*
X273431928Y-56100201I-2793071J1456451D01*
G01*
X272101893Y-55293750D02*
G75*
G02*
X273431928Y-56100201I1J-1500000D01*
G01*
X279018071Y-56100202D02*
G75*
G02*
X280348105Y-55293750I1330034J-693548D01*
G01*
X292500000Y-55293750D02*
X280348105Y-55293750D01*
X43501894Y-55293750D02*
X32698106Y-55293750D01*
X43501893Y-55293750D02*
G75*
G02*
X44831928Y-56100201I1J-1500000D01*
G01*
X50418070Y-56100201D02*
G75*
G02*
X44831928Y-56100201I-2793071J1456451D01*
G01*
X50418071Y-56100202D02*
G75*
G02*
X51748105Y-55293750I1330034J-693548D01*
G01*
X259968071Y-56100201D02*
G75*
G02*
X254381929Y-56100201I-2793071J1456451D01*
G01*
X57789395Y-149493750D02*
X12300000Y-149493750D01*
X169480571Y-56100201D02*
G75*
G02*
X163894429Y-56100201I-2793071J1456451D01*
G01*
X162564394Y-55293750D02*
X142235606Y-55293750D01*
X10050000Y-147243750D02*
X10050000Y-57543750D01*
X169480572Y-56100202D02*
G75*
G02*
X170810606Y-55293750I1330034J-693548D01*
G01*
X272101893Y-55293750D02*
X261298106Y-55293750D01*
X292500000Y-149493750D02*
X247010606Y-149493750D01*
X31368072Y-56100202D02*
G75*
G02*
X32698106Y-55293750I1330034J-693548D01*
G01*
X259968072Y-56100202D02*
G75*
G02*
X261298106Y-55293750I1330034J-693548D01*
G01*
X12300000Y-149493750D02*
G75*
G02*
X10050000Y-147243750I0J2250000D01*
G01*
X133989394Y-55293750D02*
G75*
G02*
X135319429Y-56100201I1J-1500000D01*
G01*
X294750000Y-147243750D02*
G75*
G02*
X292500000Y-149493750I-2250000J0D01*
G01*
X140905571Y-56100201D02*
G75*
G02*
X135319429Y-56100201I-2793071J1456451D01*
G01*
X59119429Y-148687298D02*
G75*
G02*
X57789395Y-149493750I-1330034J693548D01*
G01*
X24451895Y-55293750D02*
X12300000Y-55293750D01*
X66035606Y-149493750D02*
G75*
G02*
X64705572Y-148687298I0J1500000D01*
G01*
X59119427Y-148687298D02*
G75*
G02*
X64705572Y-148687298I2793073J-1456452D01*
G01*
X240094427Y-148687298D02*
G75*
G02*
X245680572Y-148687298I2793073J-1456452D01*
G01*
X162564394Y-55293750D02*
G75*
G02*
X163894429Y-56100201I1J-1500000D01*
G01*
X292500000Y-55293750D02*
G75*
G02*
X294750000Y-57543750I0J-2250000D01*
G01*
X247010606Y-149493750D02*
G75*
G02*
X245680572Y-148687298I0J1500000D01*
G01*
X31368071Y-56100201D02*
G75*
G02*
X25781929Y-56100201I-2793071J1456451D01*
G01*
X253051894Y-55293750D02*
G75*
G02*
X254381929Y-56100201I1J-1500000D01*
G01*
X10050000Y-57543750D02*
G75*
G02*
X12300000Y-55293750I2250000J0D01*
G01*
X133989395Y-55293750D02*
X51748105Y-55293750D01*
X24451894Y-55293750D02*
G75*
G02*
X25781929Y-56100201I1J-1500000D01*
G01*
X238764395Y-149493750D02*
X66035606Y-149493750D01*
X140905572Y-56100202D02*
G75*
G02*
X142235606Y-55293750I1330034J-693548D01*
G01*
X294750000Y-147243750D02*
X294750000Y-57543750D01*
X240094429Y-148687298D02*
G75*
G02*
X238764395Y-149493750I-1330034J693548D01*
G01*
X253051895Y-55293750D02*
X170810606Y-55293750D01*
M02*
