M48
METRIC
T1C0.400
T2C0.600
T3C0.700
T4C0.710
T5C0.737
T6C0.800
T7C0.900
T8C1.000
T9C1.100
T10C1.200
T11C1.470
T12C1.499
%
G90
G05
T1
X23.114Y-67.818
X24.051Y-90.249
X26.692Y-64.516
X27.305Y-65.532
X28.448Y-65.574
X28.458Y-64.516
X29.718Y-64.389
X30.226Y-91.44
X31.844Y-76.421
X32.794Y-76.355
X40.719Y-67.627
X47.625Y-83.344
X66.437Y-88.106
X66.675Y-103.108
X69.056Y-76.2
X83.3Y-126.7
X84.7Y-138.1
X84.8Y-119.0
X101.092Y-70.104
X122.039Y-89.297
X130.374Y-102.394
X158.353Y-80.963
X182.761Y-144.066
X199.1Y-108.35
X218.9Y-136.35
X236.5Y-110.4
X256.7Y-127.7
T2
X145.542Y-127.992
X147.042Y-127.992
T3
X15.478Y-73.819
X23.098Y-73.819
X34.052Y-73.819
X41.672Y-73.819
X142.399Y-58.341
X150.019Y-58.341
X154.781Y-58.341
X154.781Y-106.561
X154.781Y-108.942
X154.781Y-111.324
X154.781Y-113.705
X162.401Y-58.341
X162.401Y-106.561
X162.401Y-108.942
X162.401Y-111.324
X162.401Y-113.705
T4
X140.494Y-113.546
X140.494Y-118.626
T5
X66.675Y-71.575
X66.675Y-73.075
X66.675Y-74.575
X66.675Y-76.075
T6
X126.325Y-67.866
X126.325Y-73.819
X126.325Y-79.772
X126.325Y-85.725
X126.325Y-91.678
X126.325Y-97.631
X126.325Y-100.608
X126.325Y-103.584
X126.325Y-109.538
X126.325Y-115.491
X126.325Y-121.444
X126.325Y-127.397
X126.325Y-133.35
X128.707Y-64.889
X128.707Y-70.842
X128.707Y-76.795
X128.707Y-82.749
X128.707Y-88.702
X128.707Y-94.655
X128.707Y-106.561
X128.707Y-112.514
X128.707Y-118.467
X128.707Y-124.42
X128.707Y-130.374
X133.945Y-67.866
X133.945Y-73.819
X133.945Y-79.772
X133.945Y-85.725
X133.945Y-91.678
X133.945Y-97.631
X133.945Y-100.608
X133.945Y-103.584
X133.945Y-109.538
X133.945Y-115.491
X133.945Y-121.444
X133.945Y-127.397
X133.945Y-133.35
X135.731Y-136.922
X135.731Y-144.542
X136.327Y-64.889
X136.327Y-70.842
X136.327Y-76.795
X136.327Y-82.749
X136.327Y-88.702
X136.327Y-94.655
X136.327Y-106.561
X136.327Y-112.514
X136.327Y-118.467
X136.327Y-124.42
X136.327Y-130.374
X138.708Y-134.541
X138.708Y-142.161
X141.684Y-136.922
X141.684Y-144.542
X144.066Y-88.702
X144.066Y-91.202
X144.066Y-94.059
X144.066Y-96.559
X144.661Y-134.541
X144.661Y-142.161
X147.638Y-136.922
X147.638Y-144.542
X148.828Y-89.892
X148.828Y-94.772
X150.614Y-134.541
X150.614Y-142.161
X154.186Y-134.541
X154.186Y-142.161
X154.781Y-69.056
X154.781Y-71.596
X154.781Y-74.136
X154.781Y-76.676
X154.781Y-79.216
X154.781Y-81.756
X154.781Y-84.296
X154.781Y-86.836
X154.781Y-89.376
X154.781Y-91.916
X154.781Y-94.456
X154.781Y-96.996
X154.781Y-99.536
X154.781Y-102.076
X154.9Y-118.467
X154.9Y-121.444
X155.735Y-126.802
X155.735Y-129.778
X157.163Y-136.922
X157.163Y-144.542
X160.139Y-134.541
X160.139Y-142.161
X160.735Y-126.802
X160.735Y-129.778
X162.401Y-69.056
X162.401Y-71.596
X162.401Y-74.136
X162.401Y-76.676
X162.401Y-79.216
X162.401Y-81.756
X162.401Y-84.296
X162.401Y-86.836
X162.401Y-89.376
X162.401Y-91.916
X162.401Y-94.456
X162.401Y-96.996
X162.401Y-99.536
X162.401Y-102.076
X162.52Y-118.467
X162.52Y-121.444
X163.116Y-136.922
X163.116Y-144.542
X166.092Y-134.541
X166.092Y-142.161
X168.474Y-64.889
X168.474Y-70.842
X168.474Y-76.795
X168.474Y-82.749
X168.474Y-88.702
X168.474Y-94.655
X168.474Y-100.608
X168.474Y-106.561
X168.474Y-112.514
X168.474Y-118.467
X168.474Y-124.42
X168.474Y-130.374
X169.069Y-136.922
X169.069Y-144.542
X170.855Y-67.866
X170.855Y-73.819
X170.855Y-79.772
X170.855Y-85.725
X170.855Y-91.678
X170.855Y-97.631
X170.855Y-103.584
X170.855Y-109.538
X170.855Y-115.491
X170.855Y-121.444
X170.855Y-127.397
X170.855Y-133.35
X176.094Y-64.889
X176.094Y-70.842
X176.094Y-76.795
X176.094Y-82.749
X176.094Y-88.702
X176.094Y-94.655
X176.094Y-100.608
X176.094Y-106.561
X176.094Y-112.514
X176.094Y-118.467
X176.094Y-124.42
X176.094Y-130.374
X178.475Y-67.866
X178.475Y-73.819
X178.475Y-79.772
X178.475Y-85.725
X178.475Y-91.678
X178.475Y-97.631
X178.475Y-103.584
X178.475Y-109.538
X178.475Y-115.491
X178.475Y-121.444
X178.475Y-127.397
X178.475Y-133.35
T7
X145.256Y-63.698
X147.796Y-63.698
X157.004Y-63.698
X159.544Y-63.698
T8
X144.066Y-80.209
X144.066Y-82.749
X146.606Y-80.209
X146.606Y-82.749
X149.146Y-80.209
X149.146Y-82.749
T9
X144.066Y-69.105
X144.066Y-75.605
X144.066Y-100.656
X144.066Y-107.156
X148.566Y-69.105
X148.566Y-75.605
X148.566Y-100.656
X148.566Y-107.156
T10
X14.05Y-68.094
X14.05Y-87.144
X14.05Y-106.194
X14.05Y-125.244
X14.05Y-144.294
X19.05Y-70.194
X19.05Y-89.244
X19.05Y-108.294
X19.05Y-127.344
X19.05Y-146.394
X33.1Y-68.094
X33.1Y-87.144
X33.1Y-106.194
X33.1Y-125.244
X33.1Y-144.294
X38.1Y-70.194
X38.1Y-89.244
X38.1Y-108.294
X38.1Y-127.344
X38.1Y-146.394
X52.15Y-68.094
X52.15Y-87.144
X52.15Y-106.194
X52.15Y-125.244
X52.15Y-144.294
X57.15Y-70.194
X57.15Y-89.244
X57.15Y-108.294
X57.15Y-127.344
X57.15Y-146.394
X71.2Y-68.094
X71.2Y-87.144
X71.2Y-106.194
X71.2Y-125.244
X71.2Y-144.294
X76.2Y-70.194
X76.2Y-89.244
X76.2Y-108.294
X76.2Y-127.344
X76.2Y-146.394
X90.25Y-68.094
X90.25Y-87.144
X90.25Y-106.194
X90.25Y-125.244
X90.25Y-144.294
X95.25Y-70.194
X95.25Y-89.244
X95.25Y-108.294
X95.25Y-127.344
X95.25Y-146.394
X109.3Y-68.094
X109.3Y-87.144
X109.3Y-106.194
X109.3Y-125.244
X109.3Y-144.294
X114.3Y-70.194
X114.3Y-89.244
X114.3Y-108.294
X114.3Y-127.344
X114.3Y-146.394
X185.5Y-68.094
X185.5Y-87.144
X185.5Y-106.194
X185.5Y-125.244
X185.5Y-144.294
X190.5Y-70.194
X190.5Y-89.244
X190.5Y-108.294
X190.5Y-127.344
X190.5Y-146.394
X204.55Y-68.094
X204.55Y-87.144
X204.55Y-106.194
X204.55Y-125.244
X204.55Y-144.294
X209.55Y-70.194
X209.55Y-89.244
X209.55Y-108.294
X209.55Y-127.344
X209.55Y-146.394
X223.6Y-68.094
X223.6Y-87.144
X223.6Y-106.194
X223.6Y-125.244
X223.6Y-144.294
X228.6Y-70.194
X228.6Y-89.244
X228.6Y-108.294
X228.6Y-127.344
X228.6Y-146.394
X242.65Y-68.094
X242.65Y-87.144
X242.65Y-106.194
X242.65Y-125.244
X242.65Y-144.294
X247.65Y-70.194
X247.65Y-89.244
X247.65Y-108.294
X247.65Y-127.344
X247.65Y-146.394
X261.7Y-68.094
X261.7Y-87.144
X261.7Y-106.194
X261.7Y-125.244
X261.7Y-144.294
X266.7Y-70.194
X266.7Y-89.244
X266.7Y-108.294
X266.7Y-127.344
X266.7Y-146.394
X280.75Y-68.094
X280.75Y-87.144
X280.75Y-106.194
X280.75Y-125.244
X280.75Y-144.294
X285.75Y-70.194
X285.75Y-89.244
X285.75Y-108.294
X285.75Y-127.344
X285.75Y-146.394
T11
X15.24Y-61.754
X15.24Y-80.804
X15.24Y-99.854
X15.24Y-118.904
X15.24Y-137.954
X16.55Y-60.294
X16.55Y-79.344
X16.55Y-98.394
X16.55Y-117.444
X16.55Y-136.494
X21.55Y-59.794
X21.55Y-78.844
X21.55Y-97.894
X21.55Y-116.944
X21.55Y-135.994
X21.59Y-59.214
X21.59Y-78.264
X21.59Y-97.314
X21.59Y-116.364
X21.59Y-135.414
X34.29Y-61.754
X34.29Y-80.804
X34.29Y-99.854
X34.29Y-118.904
X34.29Y-137.954
X35.56Y-88.424
X35.6Y-60.294
X35.6Y-79.344
X35.6Y-87.844
X35.6Y-98.394
X35.6Y-117.444
X35.6Y-136.494
X40.6Y-59.794
X40.6Y-78.844
X40.6Y-87.344
X40.6Y-97.894
X40.6Y-116.944
X40.6Y-135.994
X40.64Y-59.214
X40.64Y-78.264
X40.64Y-97.314
X40.64Y-116.364
X40.64Y-135.414
X41.91Y-85.884
X53.34Y-61.754
X53.34Y-80.804
X53.34Y-99.854
X53.34Y-118.904
X53.34Y-137.954
X54.65Y-60.294
X54.65Y-79.344
X54.65Y-98.394
X54.65Y-117.444
X54.65Y-136.494
X59.65Y-59.794
X59.65Y-78.844
X59.65Y-97.894
X59.65Y-116.944
X59.65Y-135.994
X59.69Y-59.214
X59.69Y-78.264
X59.69Y-97.314
X59.69Y-116.364
X59.69Y-135.414
X72.39Y-61.754
X72.39Y-80.804
X72.39Y-99.854
X72.39Y-118.904
X72.39Y-137.954
X73.7Y-60.294
X73.7Y-79.344
X73.7Y-98.394
X73.7Y-117.444
X73.7Y-136.494
X78.7Y-59.794
X78.7Y-78.844
X78.7Y-97.894
X78.7Y-116.944
X78.7Y-135.994
X78.74Y-59.214
X78.74Y-78.264
X78.74Y-97.314
X78.74Y-116.364
X78.74Y-135.414
X91.44Y-61.754
X91.44Y-80.804
X91.44Y-99.854
X91.44Y-118.904
X91.44Y-137.954
X92.75Y-60.294
X92.75Y-79.344
X92.75Y-98.394
X92.75Y-117.444
X92.75Y-136.494
X97.75Y-59.794
X97.75Y-78.844
X97.75Y-97.894
X97.75Y-116.944
X97.75Y-135.994
X97.79Y-59.214
X97.79Y-78.264
X97.79Y-97.314
X97.79Y-116.364
X97.79Y-135.414
X110.49Y-61.754
X110.49Y-80.804
X110.49Y-99.854
X110.49Y-118.904
X110.49Y-137.954
X111.8Y-60.294
X111.8Y-79.344
X111.8Y-98.394
X111.8Y-117.444
X111.8Y-136.494
X116.8Y-59.794
X116.8Y-78.844
X116.8Y-97.894
X116.8Y-116.944
X116.8Y-135.994
X116.84Y-59.214
X116.84Y-78.264
X116.84Y-97.314
X116.84Y-116.364
X116.84Y-135.414
X186.69Y-61.754
X186.69Y-80.804
X186.69Y-99.854
X186.69Y-118.904
X186.69Y-137.954
X188.0Y-60.294
X188.0Y-79.344
X188.0Y-98.394
X188.0Y-117.444
X188.0Y-136.494
X193.0Y-59.794
X193.0Y-78.844
X193.0Y-97.894
X193.0Y-116.944
X193.0Y-135.994
X193.04Y-59.214
X193.04Y-78.264
X193.04Y-97.314
X193.04Y-116.364
X193.04Y-135.414
X205.74Y-61.754
X205.74Y-80.804
X205.74Y-99.854
X205.74Y-118.904
X205.74Y-137.954
X207.05Y-60.294
X207.05Y-79.344
X207.05Y-98.394
X207.05Y-117.444
X207.05Y-136.494
X212.05Y-59.794
X212.05Y-78.844
X212.05Y-97.894
X212.05Y-116.944
X212.05Y-135.994
X212.09Y-59.214
X212.09Y-78.264
X212.09Y-97.314
X212.09Y-116.364
X212.09Y-135.414
X224.79Y-61.754
X224.79Y-80.804
X224.79Y-99.854
X224.79Y-118.904
X224.79Y-137.954
X226.1Y-60.294
X226.1Y-79.344
X226.1Y-98.394
X226.1Y-117.444
X226.1Y-136.494
X231.1Y-59.794
X231.1Y-78.844
X231.1Y-97.894
X231.1Y-116.944
X231.1Y-135.994
X231.14Y-59.214
X231.14Y-78.264
X231.14Y-97.314
X231.14Y-116.364
X231.14Y-135.414
X243.84Y-61.754
X243.84Y-80.804
X243.84Y-99.854
X243.84Y-118.904
X243.84Y-137.954
X245.15Y-60.294
X245.15Y-79.344
X245.15Y-98.394
X245.15Y-117.444
X245.15Y-136.494
X250.15Y-59.794
X250.15Y-78.844
X250.15Y-97.894
X250.15Y-116.944
X250.15Y-135.994
X250.19Y-59.214
X250.19Y-78.264
X250.19Y-97.314
X250.19Y-116.364
X250.19Y-135.414
X262.89Y-61.754
X262.89Y-80.804
X262.89Y-99.854
X262.89Y-118.904
X262.89Y-137.954
X264.2Y-60.294
X264.2Y-79.344
X264.2Y-98.394
X264.2Y-117.444
X264.2Y-136.494
X269.2Y-59.794
X269.2Y-78.844
X269.2Y-97.894
X269.2Y-116.944
X269.2Y-135.994
X269.24Y-59.214
X269.24Y-78.264
X269.24Y-97.314
X269.24Y-116.364
X269.24Y-135.414
X281.94Y-61.754
X281.94Y-80.804
X281.94Y-99.854
X281.94Y-118.904
X281.94Y-137.954
X283.25Y-60.294
X283.25Y-79.344
X283.25Y-98.394
X283.25Y-117.444
X283.25Y-136.494
X288.25Y-59.794
X288.25Y-78.844
X288.25Y-97.894
X288.25Y-116.944
X288.25Y-135.994
X288.29Y-59.214
X288.29Y-78.264
X288.29Y-97.314
X288.29Y-116.364
X288.29Y-135.414
T12
X100.965Y-137.954
X107.315Y-135.414
X196.215Y-137.954
X202.565Y-135.414
T2
X23.767Y-57.119G85X23.767Y-57.719
G05
X23.767Y-61.069G85X23.767Y-62.169
G05
X32.367Y-57.119G85X32.367Y-57.719
G05
X32.367Y-61.069G85X32.367Y-62.169
G05
T0
M30
