G04 #@! TF.GenerationSoftware,KiCad,Pcbnew,7.0.5-0*
G04 #@! TF.CreationDate,2024-03-20T20:04:46+01:00*
G04 #@! TF.ProjectId,lumberjack,6c756d62-6572-46a6-9163-6b2e6b696361,1.8*
G04 #@! TF.SameCoordinates,Original*
G04 #@! TF.FileFunction,Soldermask,Bot*
G04 #@! TF.FilePolarity,Negative*
%FSLAX46Y46*%
G04 Gerber Fmt 4.6, Leading zero omitted, Abs format (unit mm)*
G04 Created by KiCad (PCBNEW 7.0.5-0) date 2024-03-20 20:04:46*
%MOMM*%
%LPD*%
G01*
G04 APERTURE LIST*
G04 Aperture macros list*
%AMRoundRect*
0 Rectangle with rounded corners*
0 $1 Rounding radius*
0 $2 $3 $4 $5 $6 $7 $8 $9 X,Y pos of 4 corners*
0 Add a 4 corners polygon primitive as box body*
4,1,4,$2,$3,$4,$5,$6,$7,$8,$9,$2,$3,0*
0 Add four circle primitives for the rounded corners*
1,1,$1+$1,$2,$3*
1,1,$1+$1,$4,$5*
1,1,$1+$1,$6,$7*
1,1,$1+$1,$8,$9*
0 Add four rect primitives between the rounded corners*
20,1,$1+$1,$2,$3,$4,$5,0*
20,1,$1+$1,$4,$5,$6,$7,0*
20,1,$1+$1,$6,$7,$8,$9,0*
20,1,$1+$1,$8,$9,$2,$3,0*%
G04 Aperture macros list end*
%ADD10C,0.200000*%
%ADD11C,0.250000*%
%ADD12C,0.150000*%
%ADD13C,0.300000*%
%ADD14C,0.010000*%
%ADD15C,0.120000*%
%ADD16C,0.500000*%
%ADD17C,0.160000*%
%ADD18C,0.100000*%
%ADD19C,1.600000*%
%ADD20R,1.800000X1.800000*%
%ADD21C,1.800000*%
%ADD22R,1.600000X1.600000*%
%ADD23O,1.600000X1.600000*%
%ADD24C,1.710000*%
%ADD25R,1.200000X1.200000*%
%ADD26C,1.200000*%
%ADD27C,2.000000*%
%ADD28C,5.000000*%
%ADD29O,11.600000X5.000000*%
%ADD30C,3.987800*%
%ADD31C,3.048000*%
%ADD32C,2.286000*%
%ADD33R,1.700000X1.700000*%
%ADD34O,1.700000X1.700000*%
%ADD35C,1.400000*%
%ADD36O,1.400000X1.400000*%
%ADD37C,1.500000*%
%ADD38C,1.701800*%
%ADD39C,0.650000*%
%ADD40RoundRect,0.150000X-0.150000X-0.575000X0.150000X-0.575000X0.150000X0.575000X-0.150000X0.575000X0*%
%ADD41RoundRect,0.075000X-0.075000X-0.650000X0.075000X-0.650000X0.075000X0.650000X-0.075000X0.650000X0*%
%ADD42O,1.300000X1.900000*%
%ADD43O,1.100000X2.200000*%
%ADD44RoundRect,0.150000X-0.625000X0.150000X-0.625000X-0.150000X0.625000X-0.150000X0.625000X0.150000X0*%
%ADD45RoundRect,0.249999X-0.650001X0.350001X-0.650001X-0.350001X0.650001X-0.350001X0.650001X0.350001X0*%
%ADD46C,1.244600*%
%ADD47RoundRect,0.100000X-0.400000X0.250000X-0.400000X-0.250000X0.400000X-0.250000X0.400000X0.250000X0*%
%ADD48RoundRect,0.125000X-0.475000X0.250000X-0.475000X-0.250000X0.475000X-0.250000X0.475000X0.250000X0*%
G04 APERTURE END LIST*
D10*
X52589326Y-109756219D02*
X52589326Y-109089552D01*
X52589326Y-109280028D02*
X52541707Y-109184790D01*
X52541707Y-109184790D02*
X52494088Y-109137171D01*
X52494088Y-109137171D02*
X52398850Y-109089552D01*
X52398850Y-109089552D02*
X52303612Y-109089552D01*
X51589326Y-109708600D02*
X51684564Y-109756219D01*
X51684564Y-109756219D02*
X51875040Y-109756219D01*
X51875040Y-109756219D02*
X51970278Y-109708600D01*
X51970278Y-109708600D02*
X52017897Y-109613361D01*
X52017897Y-109613361D02*
X52017897Y-109232409D01*
X52017897Y-109232409D02*
X51970278Y-109137171D01*
X51970278Y-109137171D02*
X51875040Y-109089552D01*
X51875040Y-109089552D02*
X51684564Y-109089552D01*
X51684564Y-109089552D02*
X51589326Y-109137171D01*
X51589326Y-109137171D02*
X51541707Y-109232409D01*
X51541707Y-109232409D02*
X51541707Y-109327647D01*
X51541707Y-109327647D02*
X52017897Y-109422885D01*
X51208373Y-109089552D02*
X50970278Y-109756219D01*
X50970278Y-109756219D02*
X50732183Y-109089552D01*
X49827421Y-109756219D02*
X50398849Y-109756219D01*
X50113135Y-109756219D02*
X50113135Y-108756219D01*
X50113135Y-108756219D02*
X50208373Y-108899076D01*
X50208373Y-108899076D02*
X50303611Y-108994314D01*
X50303611Y-108994314D02*
X50398849Y-109041933D01*
X49398849Y-109660980D02*
X49351230Y-109708600D01*
X49351230Y-109708600D02*
X49398849Y-109756219D01*
X49398849Y-109756219D02*
X49446468Y-109708600D01*
X49446468Y-109708600D02*
X49398849Y-109660980D01*
X49398849Y-109660980D02*
X49398849Y-109756219D01*
X48779802Y-109184790D02*
X48875040Y-109137171D01*
X48875040Y-109137171D02*
X48922659Y-109089552D01*
X48922659Y-109089552D02*
X48970278Y-108994314D01*
X48970278Y-108994314D02*
X48970278Y-108946695D01*
X48970278Y-108946695D02*
X48922659Y-108851457D01*
X48922659Y-108851457D02*
X48875040Y-108803838D01*
X48875040Y-108803838D02*
X48779802Y-108756219D01*
X48779802Y-108756219D02*
X48589326Y-108756219D01*
X48589326Y-108756219D02*
X48494088Y-108803838D01*
X48494088Y-108803838D02*
X48446469Y-108851457D01*
X48446469Y-108851457D02*
X48398850Y-108946695D01*
X48398850Y-108946695D02*
X48398850Y-108994314D01*
X48398850Y-108994314D02*
X48446469Y-109089552D01*
X48446469Y-109089552D02*
X48494088Y-109137171D01*
X48494088Y-109137171D02*
X48589326Y-109184790D01*
X48589326Y-109184790D02*
X48779802Y-109184790D01*
X48779802Y-109184790D02*
X48875040Y-109232409D01*
X48875040Y-109232409D02*
X48922659Y-109280028D01*
X48922659Y-109280028D02*
X48970278Y-109375266D01*
X48970278Y-109375266D02*
X48970278Y-109565742D01*
X48970278Y-109565742D02*
X48922659Y-109660980D01*
X48922659Y-109660980D02*
X48875040Y-109708600D01*
X48875040Y-109708600D02*
X48779802Y-109756219D01*
X48779802Y-109756219D02*
X48589326Y-109756219D01*
X48589326Y-109756219D02*
X48494088Y-109708600D01*
X48494088Y-109708600D02*
X48446469Y-109660980D01*
X48446469Y-109660980D02*
X48398850Y-109565742D01*
X48398850Y-109565742D02*
X48398850Y-109375266D01*
X48398850Y-109375266D02*
X48446469Y-109280028D01*
X48446469Y-109280028D02*
X48494088Y-109232409D01*
X48494088Y-109232409D02*
X48589326Y-109184790D01*
X52398850Y-110366219D02*
X52303612Y-110366219D01*
X52303612Y-110366219D02*
X52208374Y-110413838D01*
X52208374Y-110413838D02*
X52160755Y-110461457D01*
X52160755Y-110461457D02*
X52113136Y-110556695D01*
X52113136Y-110556695D02*
X52065517Y-110747171D01*
X52065517Y-110747171D02*
X52065517Y-110985266D01*
X52065517Y-110985266D02*
X52113136Y-111175742D01*
X52113136Y-111175742D02*
X52160755Y-111270980D01*
X52160755Y-111270980D02*
X52208374Y-111318600D01*
X52208374Y-111318600D02*
X52303612Y-111366219D01*
X52303612Y-111366219D02*
X52398850Y-111366219D01*
X52398850Y-111366219D02*
X52494088Y-111318600D01*
X52494088Y-111318600D02*
X52541707Y-111270980D01*
X52541707Y-111270980D02*
X52589326Y-111175742D01*
X52589326Y-111175742D02*
X52636945Y-110985266D01*
X52636945Y-110985266D02*
X52636945Y-110747171D01*
X52636945Y-110747171D02*
X52589326Y-110556695D01*
X52589326Y-110556695D02*
X52541707Y-110461457D01*
X52541707Y-110461457D02*
X52494088Y-110413838D01*
X52494088Y-110413838D02*
X52398850Y-110366219D01*
X51732183Y-110366219D02*
X51113136Y-110366219D01*
X51113136Y-110366219D02*
X51446469Y-110747171D01*
X51446469Y-110747171D02*
X51303612Y-110747171D01*
X51303612Y-110747171D02*
X51208374Y-110794790D01*
X51208374Y-110794790D02*
X51160755Y-110842409D01*
X51160755Y-110842409D02*
X51113136Y-110937647D01*
X51113136Y-110937647D02*
X51113136Y-111175742D01*
X51113136Y-111175742D02*
X51160755Y-111270980D01*
X51160755Y-111270980D02*
X51208374Y-111318600D01*
X51208374Y-111318600D02*
X51303612Y-111366219D01*
X51303612Y-111366219D02*
X51589326Y-111366219D01*
X51589326Y-111366219D02*
X51684564Y-111318600D01*
X51684564Y-111318600D02*
X51732183Y-111270980D01*
X49970279Y-110318600D02*
X50827421Y-111604314D01*
X49684564Y-110461457D02*
X49636945Y-110413838D01*
X49636945Y-110413838D02*
X49541707Y-110366219D01*
X49541707Y-110366219D02*
X49303612Y-110366219D01*
X49303612Y-110366219D02*
X49208374Y-110413838D01*
X49208374Y-110413838D02*
X49160755Y-110461457D01*
X49160755Y-110461457D02*
X49113136Y-110556695D01*
X49113136Y-110556695D02*
X49113136Y-110651933D01*
X49113136Y-110651933D02*
X49160755Y-110794790D01*
X49160755Y-110794790D02*
X49732183Y-111366219D01*
X49732183Y-111366219D02*
X49113136Y-111366219D01*
X48494088Y-110366219D02*
X48398850Y-110366219D01*
X48398850Y-110366219D02*
X48303612Y-110413838D01*
X48303612Y-110413838D02*
X48255993Y-110461457D01*
X48255993Y-110461457D02*
X48208374Y-110556695D01*
X48208374Y-110556695D02*
X48160755Y-110747171D01*
X48160755Y-110747171D02*
X48160755Y-110985266D01*
X48160755Y-110985266D02*
X48208374Y-111175742D01*
X48208374Y-111175742D02*
X48255993Y-111270980D01*
X48255993Y-111270980D02*
X48303612Y-111318600D01*
X48303612Y-111318600D02*
X48398850Y-111366219D01*
X48398850Y-111366219D02*
X48494088Y-111366219D01*
X48494088Y-111366219D02*
X48589326Y-111318600D01*
X48589326Y-111318600D02*
X48636945Y-111270980D01*
X48636945Y-111270980D02*
X48684564Y-111175742D01*
X48684564Y-111175742D02*
X48732183Y-110985266D01*
X48732183Y-110985266D02*
X48732183Y-110747171D01*
X48732183Y-110747171D02*
X48684564Y-110556695D01*
X48684564Y-110556695D02*
X48636945Y-110461457D01*
X48636945Y-110461457D02*
X48589326Y-110413838D01*
X48589326Y-110413838D02*
X48494088Y-110366219D01*
X47779802Y-110461457D02*
X47732183Y-110413838D01*
X47732183Y-110413838D02*
X47636945Y-110366219D01*
X47636945Y-110366219D02*
X47398850Y-110366219D01*
X47398850Y-110366219D02*
X47303612Y-110413838D01*
X47303612Y-110413838D02*
X47255993Y-110461457D01*
X47255993Y-110461457D02*
X47208374Y-110556695D01*
X47208374Y-110556695D02*
X47208374Y-110651933D01*
X47208374Y-110651933D02*
X47255993Y-110794790D01*
X47255993Y-110794790D02*
X47827421Y-111366219D01*
X47827421Y-111366219D02*
X47208374Y-111366219D01*
X46351231Y-110699552D02*
X46351231Y-111366219D01*
X46589326Y-110318600D02*
X46827421Y-111032885D01*
X46827421Y-111032885D02*
X46208374Y-111032885D01*
D11*
X60495428Y-109889988D02*
X60495428Y-111318559D01*
X60495428Y-111318559D02*
X60590667Y-111604273D01*
X60590667Y-111604273D02*
X60781143Y-111794750D01*
X60781143Y-111794750D02*
X61066857Y-111889988D01*
X61066857Y-111889988D02*
X61257333Y-111889988D01*
X59638285Y-111318559D02*
X58685904Y-111318559D01*
X59828761Y-111889988D02*
X59162095Y-109889988D01*
X59162095Y-109889988D02*
X58495428Y-111889988D01*
X56685904Y-111699511D02*
X56781142Y-111794750D01*
X56781142Y-111794750D02*
X57066856Y-111889988D01*
X57066856Y-111889988D02*
X57257332Y-111889988D01*
X57257332Y-111889988D02*
X57543047Y-111794750D01*
X57543047Y-111794750D02*
X57733523Y-111604273D01*
X57733523Y-111604273D02*
X57828761Y-111413797D01*
X57828761Y-111413797D02*
X57923999Y-111032845D01*
X57923999Y-111032845D02*
X57923999Y-110747130D01*
X57923999Y-110747130D02*
X57828761Y-110366178D01*
X57828761Y-110366178D02*
X57733523Y-110175702D01*
X57733523Y-110175702D02*
X57543047Y-109985226D01*
X57543047Y-109985226D02*
X57257332Y-109889988D01*
X57257332Y-109889988D02*
X57066856Y-109889988D01*
X57066856Y-109889988D02*
X56781142Y-109985226D01*
X56781142Y-109985226D02*
X56685904Y-110080464D01*
X55828761Y-111889988D02*
X55828761Y-109889988D01*
X54685904Y-111889988D02*
X55543047Y-110747130D01*
X54685904Y-109889988D02*
X55828761Y-111032845D01*
D12*
X60072095Y-109632569D02*
X60548285Y-109632569D01*
X60548285Y-109632569D02*
X60548285Y-108632569D01*
X59738761Y-108632569D02*
X59738761Y-109442092D01*
X59738761Y-109442092D02*
X59691142Y-109537330D01*
X59691142Y-109537330D02*
X59643523Y-109584950D01*
X59643523Y-109584950D02*
X59548285Y-109632569D01*
X59548285Y-109632569D02*
X59357809Y-109632569D01*
X59357809Y-109632569D02*
X59262571Y-109584950D01*
X59262571Y-109584950D02*
X59214952Y-109537330D01*
X59214952Y-109537330D02*
X59167333Y-109442092D01*
X59167333Y-109442092D02*
X59167333Y-108632569D01*
X58691142Y-109632569D02*
X58691142Y-108632569D01*
X58691142Y-108632569D02*
X58357809Y-109346854D01*
X58357809Y-109346854D02*
X58024476Y-108632569D01*
X58024476Y-108632569D02*
X58024476Y-109632569D01*
X57214952Y-109108759D02*
X57072095Y-109156378D01*
X57072095Y-109156378D02*
X57024476Y-109203997D01*
X57024476Y-109203997D02*
X56976857Y-109299235D01*
X56976857Y-109299235D02*
X56976857Y-109442092D01*
X56976857Y-109442092D02*
X57024476Y-109537330D01*
X57024476Y-109537330D02*
X57072095Y-109584950D01*
X57072095Y-109584950D02*
X57167333Y-109632569D01*
X57167333Y-109632569D02*
X57548285Y-109632569D01*
X57548285Y-109632569D02*
X57548285Y-108632569D01*
X57548285Y-108632569D02*
X57214952Y-108632569D01*
X57214952Y-108632569D02*
X57119714Y-108680188D01*
X57119714Y-108680188D02*
X57072095Y-108727807D01*
X57072095Y-108727807D02*
X57024476Y-108823045D01*
X57024476Y-108823045D02*
X57024476Y-108918283D01*
X57024476Y-108918283D02*
X57072095Y-109013521D01*
X57072095Y-109013521D02*
X57119714Y-109061140D01*
X57119714Y-109061140D02*
X57214952Y-109108759D01*
X57214952Y-109108759D02*
X57548285Y-109108759D01*
X56548285Y-109108759D02*
X56214952Y-109108759D01*
X56072095Y-109632569D02*
X56548285Y-109632569D01*
X56548285Y-109632569D02*
X56548285Y-108632569D01*
X56548285Y-108632569D02*
X56072095Y-108632569D01*
X55072095Y-109632569D02*
X55405428Y-109156378D01*
X55643523Y-109632569D02*
X55643523Y-108632569D01*
X55643523Y-108632569D02*
X55262571Y-108632569D01*
X55262571Y-108632569D02*
X55167333Y-108680188D01*
X55167333Y-108680188D02*
X55119714Y-108727807D01*
X55119714Y-108727807D02*
X55072095Y-108823045D01*
X55072095Y-108823045D02*
X55072095Y-108965902D01*
X55072095Y-108965902D02*
X55119714Y-109061140D01*
X55119714Y-109061140D02*
X55167333Y-109108759D01*
X55167333Y-109108759D02*
X55262571Y-109156378D01*
X55262571Y-109156378D02*
X55643523Y-109156378D01*
D13*
X255375761Y-111006590D02*
X255375761Y-109406590D01*
X255375761Y-109406590D02*
X254461475Y-111006590D01*
X254461475Y-111006590D02*
X254461475Y-109406590D01*
X252937666Y-111006590D02*
X253699571Y-111006590D01*
X253699571Y-111006590D02*
X253699571Y-109406590D01*
D14*
X235848684Y-112168216D02*
X235889650Y-112181005D01*
X235940099Y-112202261D01*
X235964526Y-112213684D01*
X235982155Y-112215749D01*
X235986053Y-112199916D01*
X235986057Y-112199468D01*
X235994312Y-112184351D01*
X236022781Y-112176603D01*
X236077961Y-112174421D01*
X236169869Y-112174421D01*
X236169869Y-112976526D01*
X235986053Y-112976526D01*
X235986053Y-112423483D01*
X235940358Y-112381134D01*
X235926082Y-112369098D01*
X235883558Y-112348534D01*
X235831192Y-112347710D01*
X235759889Y-112365856D01*
X235735852Y-112367005D01*
X235707656Y-112349402D01*
X235670126Y-112307562D01*
X235651921Y-112284419D01*
X235630391Y-112251742D01*
X235627073Y-112230942D01*
X235639128Y-112213395D01*
X235676135Y-112191206D01*
X235733612Y-112173645D01*
X235795972Y-112164938D01*
X235848684Y-112168216D01*
G36*
X235848684Y-112168216D02*
G01*
X235889650Y-112181005D01*
X235940099Y-112202261D01*
X235964526Y-112213684D01*
X235982155Y-112215749D01*
X235986053Y-112199916D01*
X235986057Y-112199468D01*
X235994312Y-112184351D01*
X236022781Y-112176603D01*
X236077961Y-112174421D01*
X236169869Y-112174421D01*
X236169869Y-112976526D01*
X235986053Y-112976526D01*
X235986053Y-112423483D01*
X235940358Y-112381134D01*
X235926082Y-112369098D01*
X235883558Y-112348534D01*
X235831192Y-112347710D01*
X235759889Y-112365856D01*
X235735852Y-112367005D01*
X235707656Y-112349402D01*
X235670126Y-112307562D01*
X235651921Y-112284419D01*
X235630391Y-112251742D01*
X235627073Y-112230942D01*
X235639128Y-112213395D01*
X235676135Y-112191206D01*
X235733612Y-112173645D01*
X235795972Y-112164938D01*
X235848684Y-112168216D01*
G37*
X236092063Y-113438716D02*
X236142550Y-113462344D01*
X236186579Y-113496978D01*
X236186579Y-113462344D01*
X236187676Y-113449194D01*
X236197885Y-113435252D01*
X236225493Y-113429094D01*
X236278487Y-113427710D01*
X236370395Y-113427710D01*
X236370395Y-114246526D01*
X236186579Y-114246526D01*
X236186579Y-113979944D01*
X236186557Y-113964640D01*
X236184989Y-113857060D01*
X236181141Y-113769427D01*
X236175287Y-113706224D01*
X236167701Y-113671929D01*
X236160736Y-113658982D01*
X236117860Y-113618378D01*
X236059458Y-113600404D01*
X235995686Y-113608789D01*
X235980044Y-113614472D01*
X235946721Y-113624517D01*
X235923947Y-113621398D01*
X235901031Y-113600979D01*
X235867283Y-113559127D01*
X235812547Y-113490017D01*
X235851020Y-113458864D01*
X235887592Y-113440112D01*
X235951833Y-113427447D01*
X236024240Y-113427033D01*
X236092063Y-113438716D01*
G36*
X236092063Y-113438716D02*
G01*
X236142550Y-113462344D01*
X236186579Y-113496978D01*
X236186579Y-113462344D01*
X236187676Y-113449194D01*
X236197885Y-113435252D01*
X236225493Y-113429094D01*
X236278487Y-113427710D01*
X236370395Y-113427710D01*
X236370395Y-114246526D01*
X236186579Y-114246526D01*
X236186579Y-113979944D01*
X236186557Y-113964640D01*
X236184989Y-113857060D01*
X236181141Y-113769427D01*
X236175287Y-113706224D01*
X236167701Y-113671929D01*
X236160736Y-113658982D01*
X236117860Y-113618378D01*
X236059458Y-113600404D01*
X235995686Y-113608789D01*
X235980044Y-113614472D01*
X235946721Y-113624517D01*
X235923947Y-113621398D01*
X235901031Y-113600979D01*
X235867283Y-113559127D01*
X235812547Y-113490017D01*
X235851020Y-113458864D01*
X235887592Y-113440112D01*
X235951833Y-113427447D01*
X236024240Y-113427033D01*
X236092063Y-113438716D01*
G37*
X239578816Y-114246526D02*
X239411711Y-114246526D01*
X239411711Y-113988601D01*
X239411526Y-113928605D01*
X239409626Y-113829237D01*
X239404816Y-113755673D01*
X239396052Y-113702827D01*
X239382290Y-113665614D01*
X239362487Y-113638949D01*
X239335600Y-113617746D01*
X239306248Y-113601947D01*
X239271491Y-113597467D01*
X239222058Y-113607429D01*
X239206173Y-113611576D01*
X239166520Y-113617818D01*
X239138167Y-113608875D01*
X239105306Y-113581195D01*
X239099070Y-113575175D01*
X239064594Y-113537937D01*
X239042361Y-113507660D01*
X239039311Y-113500366D01*
X239045354Y-113473432D01*
X239075998Y-113451898D01*
X239124363Y-113436786D01*
X239183566Y-113429114D01*
X239246728Y-113429904D01*
X239306967Y-113440175D01*
X239357402Y-113460948D01*
X239373388Y-113470648D01*
X239400302Y-113484845D01*
X239410264Y-113481594D01*
X239411711Y-113460886D01*
X239412050Y-113453451D01*
X239420112Y-113436982D01*
X239445119Y-113429486D01*
X239495264Y-113427710D01*
X239578816Y-113427710D01*
X239578816Y-114246526D01*
G36*
X239578816Y-114246526D02*
G01*
X239411711Y-114246526D01*
X239411711Y-113988601D01*
X239411526Y-113928605D01*
X239409626Y-113829237D01*
X239404816Y-113755673D01*
X239396052Y-113702827D01*
X239382290Y-113665614D01*
X239362487Y-113638949D01*
X239335600Y-113617746D01*
X239306248Y-113601947D01*
X239271491Y-113597467D01*
X239222058Y-113607429D01*
X239206173Y-113611576D01*
X239166520Y-113617818D01*
X239138167Y-113608875D01*
X239105306Y-113581195D01*
X239099070Y-113575175D01*
X239064594Y-113537937D01*
X239042361Y-113507660D01*
X239039311Y-113500366D01*
X239045354Y-113473432D01*
X239075998Y-113451898D01*
X239124363Y-113436786D01*
X239183566Y-113429114D01*
X239246728Y-113429904D01*
X239306967Y-113440175D01*
X239357402Y-113460948D01*
X239373388Y-113470648D01*
X239400302Y-113484845D01*
X239410264Y-113481594D01*
X239411711Y-113460886D01*
X239412050Y-113453451D01*
X239420112Y-113436982D01*
X239445119Y-113429486D01*
X239495264Y-113427710D01*
X239578816Y-113427710D01*
X239578816Y-114246526D01*
G37*
X236504079Y-112434533D02*
X236505489Y-112551550D01*
X236511007Y-112646058D01*
X236522185Y-112714751D01*
X236540572Y-112761478D01*
X236567717Y-112790089D01*
X236605168Y-112804432D01*
X236654474Y-112808358D01*
X236701552Y-112804854D01*
X236739574Y-112791139D01*
X236767210Y-112763355D01*
X236786009Y-112717651D01*
X236797519Y-112650179D01*
X236803290Y-112557089D01*
X236804869Y-112434533D01*
X236804869Y-112174421D01*
X236971974Y-112174421D01*
X236971974Y-112488004D01*
X236971688Y-112571705D01*
X236969459Y-112679943D01*
X236963869Y-112762489D01*
X236953561Y-112824068D01*
X236937183Y-112869405D01*
X236913379Y-112903226D01*
X236880796Y-112930257D01*
X236838079Y-112955221D01*
X236748377Y-112986825D01*
X236654761Y-112988887D01*
X236566496Y-112959783D01*
X236527986Y-112940917D01*
X236508880Y-112938097D01*
X236504079Y-112951428D01*
X236496109Y-112966396D01*
X236467578Y-112974281D01*
X236412172Y-112976526D01*
X236320264Y-112976526D01*
X236320264Y-112174421D01*
X236504079Y-112174421D01*
X236504079Y-112434533D01*
G36*
X236504079Y-112434533D02*
G01*
X236505489Y-112551550D01*
X236511007Y-112646058D01*
X236522185Y-112714751D01*
X236540572Y-112761478D01*
X236567717Y-112790089D01*
X236605168Y-112804432D01*
X236654474Y-112808358D01*
X236701552Y-112804854D01*
X236739574Y-112791139D01*
X236767210Y-112763355D01*
X236786009Y-112717651D01*
X236797519Y-112650179D01*
X236803290Y-112557089D01*
X236804869Y-112434533D01*
X236804869Y-112174421D01*
X236971974Y-112174421D01*
X236971974Y-112488004D01*
X236971688Y-112571705D01*
X236969459Y-112679943D01*
X236963869Y-112762489D01*
X236953561Y-112824068D01*
X236937183Y-112869405D01*
X236913379Y-112903226D01*
X236880796Y-112930257D01*
X236838079Y-112955221D01*
X236748377Y-112986825D01*
X236654761Y-112988887D01*
X236566496Y-112959783D01*
X236527986Y-112940917D01*
X236508880Y-112938097D01*
X236504079Y-112951428D01*
X236496109Y-112966396D01*
X236467578Y-112974281D01*
X236412172Y-112976526D01*
X236320264Y-112976526D01*
X236320264Y-112174421D01*
X236504079Y-112174421D01*
X236504079Y-112434533D01*
G37*
X239297937Y-112172840D02*
X239374112Y-112196773D01*
X239407699Y-112213040D01*
X239424592Y-112214720D01*
X239428422Y-112199916D01*
X239428425Y-112199468D01*
X239436680Y-112184351D01*
X239465149Y-112176603D01*
X239520329Y-112174421D01*
X239612237Y-112174421D01*
X239612237Y-112976526D01*
X239428422Y-112976526D01*
X239428422Y-112700043D01*
X239428296Y-112606680D01*
X239427436Y-112529988D01*
X239425137Y-112476322D01*
X239420690Y-112440212D01*
X239413390Y-112416191D01*
X239402530Y-112398791D01*
X239387405Y-112382543D01*
X239366801Y-112365261D01*
X239307555Y-112342042D01*
X239245366Y-112348857D01*
X239188398Y-112385581D01*
X239172115Y-112402673D01*
X239160426Y-112419971D01*
X239152586Y-112442990D01*
X239147827Y-112477271D01*
X239145379Y-112528353D01*
X239144473Y-112601777D01*
X239144343Y-112703081D01*
X239144343Y-112976526D01*
X238960527Y-112976526D01*
X238960894Y-112679914D01*
X238960919Y-112666702D01*
X238962513Y-112540535D01*
X238967408Y-112442528D01*
X238976864Y-112367915D01*
X238992139Y-112311931D01*
X239014490Y-112269809D01*
X239045175Y-112236784D01*
X239085454Y-112208090D01*
X239127043Y-112188226D01*
X239210800Y-112170178D01*
X239297937Y-112172840D01*
G36*
X239297937Y-112172840D02*
G01*
X239374112Y-112196773D01*
X239407699Y-112213040D01*
X239424592Y-112214720D01*
X239428422Y-112199916D01*
X239428425Y-112199468D01*
X239436680Y-112184351D01*
X239465149Y-112176603D01*
X239520329Y-112174421D01*
X239612237Y-112174421D01*
X239612237Y-112976526D01*
X239428422Y-112976526D01*
X239428422Y-112700043D01*
X239428296Y-112606680D01*
X239427436Y-112529988D01*
X239425137Y-112476322D01*
X239420690Y-112440212D01*
X239413390Y-112416191D01*
X239402530Y-112398791D01*
X239387405Y-112382543D01*
X239366801Y-112365261D01*
X239307555Y-112342042D01*
X239245366Y-112348857D01*
X239188398Y-112385581D01*
X239172115Y-112402673D01*
X239160426Y-112419971D01*
X239152586Y-112442990D01*
X239147827Y-112477271D01*
X239145379Y-112528353D01*
X239144473Y-112601777D01*
X239144343Y-112703081D01*
X239144343Y-112976526D01*
X238960527Y-112976526D01*
X238960894Y-112679914D01*
X238960919Y-112666702D01*
X238962513Y-112540535D01*
X238967408Y-112442528D01*
X238976864Y-112367915D01*
X238992139Y-112311931D01*
X239014490Y-112269809D01*
X239045175Y-112236784D01*
X239085454Y-112208090D01*
X239127043Y-112188226D01*
X239210800Y-112170178D01*
X239297937Y-112172840D01*
G37*
X235378610Y-112178247D02*
X235469791Y-112213771D01*
X235546907Y-112272413D01*
X235603864Y-112352956D01*
X235607710Y-112361169D01*
X235632130Y-112441267D01*
X235644330Y-112536948D01*
X235644234Y-112636569D01*
X235631764Y-112728488D01*
X235606843Y-112801066D01*
X235576073Y-112851650D01*
X235508344Y-112923310D01*
X235423657Y-112968862D01*
X235351202Y-112987282D01*
X235240875Y-112989293D01*
X235135302Y-112961513D01*
X235041682Y-112905142D01*
X234981088Y-112855196D01*
X235035664Y-112798887D01*
X235070144Y-112765530D01*
X235101332Y-112746958D01*
X235130250Y-112751047D01*
X235167237Y-112776000D01*
X235181985Y-112785768D01*
X235244291Y-112805762D01*
X235315903Y-112805749D01*
X235382950Y-112785143D01*
X235408196Y-112768595D01*
X235445228Y-112719730D01*
X235463792Y-112647958D01*
X235464987Y-112550136D01*
X235464983Y-112550081D01*
X235451171Y-112462562D01*
X235420744Y-112401881D01*
X235370676Y-112364345D01*
X235297941Y-112346261D01*
X235252137Y-112343829D01*
X235212116Y-112353789D01*
X235171070Y-112382642D01*
X235117954Y-112427336D01*
X235050688Y-112373279D01*
X235026113Y-112352570D01*
X234995416Y-112322899D01*
X234983422Y-112305413D01*
X234987669Y-112297533D01*
X235012135Y-112273340D01*
X235051110Y-112242571D01*
X235081605Y-112222549D01*
X235178424Y-112181419D01*
X235279457Y-112167057D01*
X235378610Y-112178247D01*
G36*
X235378610Y-112178247D02*
G01*
X235469791Y-112213771D01*
X235546907Y-112272413D01*
X235603864Y-112352956D01*
X235607710Y-112361169D01*
X235632130Y-112441267D01*
X235644330Y-112536948D01*
X235644234Y-112636569D01*
X235631764Y-112728488D01*
X235606843Y-112801066D01*
X235576073Y-112851650D01*
X235508344Y-112923310D01*
X235423657Y-112968862D01*
X235351202Y-112987282D01*
X235240875Y-112989293D01*
X235135302Y-112961513D01*
X235041682Y-112905142D01*
X234981088Y-112855196D01*
X235035664Y-112798887D01*
X235070144Y-112765530D01*
X235101332Y-112746958D01*
X235130250Y-112751047D01*
X235167237Y-112776000D01*
X235181985Y-112785768D01*
X235244291Y-112805762D01*
X235315903Y-112805749D01*
X235382950Y-112785143D01*
X235408196Y-112768595D01*
X235445228Y-112719730D01*
X235463792Y-112647958D01*
X235464987Y-112550136D01*
X235464983Y-112550081D01*
X235451171Y-112462562D01*
X235420744Y-112401881D01*
X235370676Y-112364345D01*
X235297941Y-112346261D01*
X235252137Y-112343829D01*
X235212116Y-112353789D01*
X235171070Y-112382642D01*
X235117954Y-112427336D01*
X235050688Y-112373279D01*
X235026113Y-112352570D01*
X234995416Y-112322899D01*
X234983422Y-112305413D01*
X234987669Y-112297533D01*
X235012135Y-112273340D01*
X235051110Y-112242571D01*
X235081605Y-112222549D01*
X235178424Y-112181419D01*
X235279457Y-112167057D01*
X235378610Y-112178247D01*
G37*
X237769982Y-112633116D02*
X237765320Y-112686001D01*
X237744714Y-112786965D01*
X237707857Y-112864007D01*
X237651761Y-112922201D01*
X237573434Y-112966617D01*
X237543023Y-112977188D01*
X237464263Y-112990377D01*
X237381384Y-112990018D01*
X237311450Y-112975531D01*
X237310076Y-112975005D01*
X237253718Y-112941852D01*
X237196780Y-112890530D01*
X237149535Y-112831840D01*
X237122255Y-112776584D01*
X237114169Y-112736193D01*
X237107246Y-112660569D01*
X237106085Y-112593161D01*
X237274442Y-112593161D01*
X237284507Y-112674014D01*
X237308151Y-112740451D01*
X237343973Y-112783862D01*
X237357551Y-112791316D01*
X237409327Y-112804864D01*
X237469213Y-112807651D01*
X237519596Y-112798237D01*
X237539260Y-112784736D01*
X237566862Y-112737523D01*
X237584230Y-112663630D01*
X237590264Y-112566663D01*
X237590167Y-112538750D01*
X237588071Y-112482190D01*
X237581100Y-112445294D01*
X237566475Y-112418031D01*
X237541418Y-112390372D01*
X237493736Y-112356849D01*
X237431663Y-112343143D01*
X237371689Y-112356197D01*
X237321891Y-112393951D01*
X237290345Y-112454349D01*
X237279358Y-112506502D01*
X237274442Y-112593161D01*
X237106085Y-112593161D01*
X237105763Y-112574442D01*
X237109478Y-112488719D01*
X237118145Y-112414305D01*
X237131522Y-112362106D01*
X237162679Y-112303006D01*
X237228808Y-112230340D01*
X237313331Y-112184310D01*
X237413734Y-112166090D01*
X237527505Y-112176858D01*
X237546435Y-112181445D01*
X237634595Y-112221000D01*
X237701028Y-112285941D01*
X237745735Y-112376271D01*
X237768718Y-112491994D01*
X237769387Y-112566663D01*
X237769982Y-112633116D01*
G36*
X237769982Y-112633116D02*
G01*
X237765320Y-112686001D01*
X237744714Y-112786965D01*
X237707857Y-112864007D01*
X237651761Y-112922201D01*
X237573434Y-112966617D01*
X237543023Y-112977188D01*
X237464263Y-112990377D01*
X237381384Y-112990018D01*
X237311450Y-112975531D01*
X237310076Y-112975005D01*
X237253718Y-112941852D01*
X237196780Y-112890530D01*
X237149535Y-112831840D01*
X237122255Y-112776584D01*
X237114169Y-112736193D01*
X237107246Y-112660569D01*
X237106085Y-112593161D01*
X237274442Y-112593161D01*
X237284507Y-112674014D01*
X237308151Y-112740451D01*
X237343973Y-112783862D01*
X237357551Y-112791316D01*
X237409327Y-112804864D01*
X237469213Y-112807651D01*
X237519596Y-112798237D01*
X237539260Y-112784736D01*
X237566862Y-112737523D01*
X237584230Y-112663630D01*
X237590264Y-112566663D01*
X237590167Y-112538750D01*
X237588071Y-112482190D01*
X237581100Y-112445294D01*
X237566475Y-112418031D01*
X237541418Y-112390372D01*
X237493736Y-112356849D01*
X237431663Y-112343143D01*
X237371689Y-112356197D01*
X237321891Y-112393951D01*
X237290345Y-112454349D01*
X237279358Y-112506502D01*
X237274442Y-112593161D01*
X237106085Y-112593161D01*
X237105763Y-112574442D01*
X237109478Y-112488719D01*
X237118145Y-112414305D01*
X237131522Y-112362106D01*
X237162679Y-112303006D01*
X237228808Y-112230340D01*
X237313331Y-112184310D01*
X237413734Y-112166090D01*
X237527505Y-112176858D01*
X237546435Y-112181445D01*
X237634595Y-112221000D01*
X237701028Y-112285941D01*
X237745735Y-112376271D01*
X237768718Y-112491994D01*
X237769387Y-112566663D01*
X237769982Y-112633116D01*
G37*
X237903063Y-113690107D02*
X237925655Y-113757510D01*
X237952379Y-113832127D01*
X237974696Y-113888654D01*
X237990759Y-113922486D01*
X237998724Y-113929016D01*
X238000646Y-113923337D01*
X238011049Y-113888507D01*
X238027619Y-113830335D01*
X238048516Y-113755333D01*
X238071900Y-113670013D01*
X238135518Y-113436066D01*
X238232655Y-113430990D01*
X238240854Y-113430584D01*
X238293235Y-113430046D01*
X238318406Y-113435423D01*
X238321612Y-113447701D01*
X238317562Y-113459692D01*
X238304241Y-113500734D01*
X238283384Y-113565736D01*
X238256479Y-113650048D01*
X238225012Y-113749022D01*
X238190469Y-113858006D01*
X238067505Y-114246526D01*
X237913689Y-114246526D01*
X237841213Y-114000046D01*
X237827830Y-113954785D01*
X237803096Y-113872502D01*
X237781962Y-113803940D01*
X237766329Y-113755225D01*
X237758102Y-113732483D01*
X237755758Y-113730787D01*
X237744351Y-113745456D01*
X237728065Y-113784248D01*
X237709606Y-113841102D01*
X237708631Y-113844441D01*
X237683917Y-113928347D01*
X237655641Y-114023351D01*
X237629730Y-114109528D01*
X237587714Y-114248253D01*
X237432750Y-114238171D01*
X237360987Y-114012579D01*
X237329480Y-113913454D01*
X237294187Y-113802281D01*
X237260393Y-113695704D01*
X237232418Y-113607349D01*
X237175613Y-113427710D01*
X237365656Y-113427710D01*
X237411720Y-113598993D01*
X237423965Y-113644251D01*
X237447125Y-113728625D01*
X237468572Y-113805384D01*
X237484876Y-113862184D01*
X237511969Y-113954092D01*
X237598374Y-113695079D01*
X237684780Y-113436066D01*
X237750870Y-113431104D01*
X237816959Y-113426143D01*
X237903063Y-113690107D01*
G36*
X237903063Y-113690107D02*
G01*
X237925655Y-113757510D01*
X237952379Y-113832127D01*
X237974696Y-113888654D01*
X237990759Y-113922486D01*
X237998724Y-113929016D01*
X238000646Y-113923337D01*
X238011049Y-113888507D01*
X238027619Y-113830335D01*
X238048516Y-113755333D01*
X238071900Y-113670013D01*
X238135518Y-113436066D01*
X238232655Y-113430990D01*
X238240854Y-113430584D01*
X238293235Y-113430046D01*
X238318406Y-113435423D01*
X238321612Y-113447701D01*
X238317562Y-113459692D01*
X238304241Y-113500734D01*
X238283384Y-113565736D01*
X238256479Y-113650048D01*
X238225012Y-113749022D01*
X238190469Y-113858006D01*
X238067505Y-114246526D01*
X237913689Y-114246526D01*
X237841213Y-114000046D01*
X237827830Y-113954785D01*
X237803096Y-113872502D01*
X237781962Y-113803940D01*
X237766329Y-113755225D01*
X237758102Y-113732483D01*
X237755758Y-113730787D01*
X237744351Y-113745456D01*
X237728065Y-113784248D01*
X237709606Y-113841102D01*
X237708631Y-113844441D01*
X237683917Y-113928347D01*
X237655641Y-114023351D01*
X237629730Y-114109528D01*
X237587714Y-114248253D01*
X237432750Y-114238171D01*
X237360987Y-114012579D01*
X237329480Y-113913454D01*
X237294187Y-113802281D01*
X237260393Y-113695704D01*
X237232418Y-113607349D01*
X237175613Y-113427710D01*
X237365656Y-113427710D01*
X237411720Y-113598993D01*
X237423965Y-113644251D01*
X237447125Y-113728625D01*
X237468572Y-113805384D01*
X237484876Y-113862184D01*
X237511969Y-113954092D01*
X237598374Y-113695079D01*
X237684780Y-113436066D01*
X237750870Y-113431104D01*
X237816959Y-113426143D01*
X237903063Y-113690107D01*
G37*
X241932431Y-112621368D02*
X241930273Y-112673701D01*
X241925376Y-112737519D01*
X241917033Y-112782752D01*
X241903256Y-112818593D01*
X241882057Y-112854236D01*
X241881154Y-112855587D01*
X241828953Y-112913335D01*
X241765083Y-112957380D01*
X241690813Y-112983517D01*
X241593110Y-112992003D01*
X241497350Y-112975316D01*
X241411755Y-112935106D01*
X241344545Y-112873022D01*
X241325250Y-112843688D01*
X241289216Y-112752496D01*
X241271344Y-112639984D01*
X241271650Y-112611524D01*
X241451249Y-112611524D01*
X241451588Y-112664750D01*
X241457231Y-112700284D01*
X241470089Y-112727589D01*
X241492072Y-112756124D01*
X241522579Y-112784440D01*
X241583592Y-112809710D01*
X241649106Y-112805016D01*
X241711719Y-112769896D01*
X241729381Y-112753122D01*
X241748239Y-112724407D01*
X241758696Y-112684046D01*
X241764624Y-112621154D01*
X241766257Y-112573910D01*
X241757311Y-112477428D01*
X241729860Y-112408352D01*
X241683781Y-112366301D01*
X241629766Y-112346165D01*
X241565349Y-112347860D01*
X241505637Y-112381855D01*
X241491361Y-112394797D01*
X241473347Y-112417440D01*
X241462659Y-112447064D01*
X241456729Y-112492482D01*
X241452988Y-112562506D01*
X241451249Y-112611524D01*
X241271650Y-112611524D01*
X241272723Y-112511624D01*
X241274482Y-112493418D01*
X241299024Y-112376812D01*
X241344430Y-112286290D01*
X241410795Y-112221754D01*
X241498216Y-112183104D01*
X241606791Y-112170243D01*
X241647811Y-112171450D01*
X241731934Y-112186220D01*
X241800722Y-112221474D01*
X241864854Y-112281828D01*
X241875110Y-112293942D01*
X241902774Y-112334737D01*
X241920955Y-112380930D01*
X241931036Y-112439468D01*
X241934401Y-112517299D01*
X241933329Y-112573910D01*
X241932431Y-112621368D01*
G36*
X241932431Y-112621368D02*
G01*
X241930273Y-112673701D01*
X241925376Y-112737519D01*
X241917033Y-112782752D01*
X241903256Y-112818593D01*
X241882057Y-112854236D01*
X241881154Y-112855587D01*
X241828953Y-112913335D01*
X241765083Y-112957380D01*
X241690813Y-112983517D01*
X241593110Y-112992003D01*
X241497350Y-112975316D01*
X241411755Y-112935106D01*
X241344545Y-112873022D01*
X241325250Y-112843688D01*
X241289216Y-112752496D01*
X241271344Y-112639984D01*
X241271650Y-112611524D01*
X241451249Y-112611524D01*
X241451588Y-112664750D01*
X241457231Y-112700284D01*
X241470089Y-112727589D01*
X241492072Y-112756124D01*
X241522579Y-112784440D01*
X241583592Y-112809710D01*
X241649106Y-112805016D01*
X241711719Y-112769896D01*
X241729381Y-112753122D01*
X241748239Y-112724407D01*
X241758696Y-112684046D01*
X241764624Y-112621154D01*
X241766257Y-112573910D01*
X241757311Y-112477428D01*
X241729860Y-112408352D01*
X241683781Y-112366301D01*
X241629766Y-112346165D01*
X241565349Y-112347860D01*
X241505637Y-112381855D01*
X241491361Y-112394797D01*
X241473347Y-112417440D01*
X241462659Y-112447064D01*
X241456729Y-112492482D01*
X241452988Y-112562506D01*
X241451249Y-112611524D01*
X241271650Y-112611524D01*
X241272723Y-112511624D01*
X241274482Y-112493418D01*
X241299024Y-112376812D01*
X241344430Y-112286290D01*
X241410795Y-112221754D01*
X241498216Y-112183104D01*
X241606791Y-112170243D01*
X241647811Y-112171450D01*
X241731934Y-112186220D01*
X241800722Y-112221474D01*
X241864854Y-112281828D01*
X241875110Y-112293942D01*
X241902774Y-112334737D01*
X241920955Y-112380930D01*
X241931036Y-112439468D01*
X241934401Y-112517299D01*
X241933329Y-112573910D01*
X241932431Y-112621368D01*
G37*
X239042986Y-113899659D02*
X239040868Y-113971101D01*
X239036608Y-114020866D01*
X239035878Y-114025427D01*
X239007206Y-114107004D01*
X238954846Y-114176165D01*
X238886158Y-114223021D01*
X238812396Y-114242416D01*
X238721668Y-114240911D01*
X238638205Y-114214906D01*
X238616465Y-114203932D01*
X238588510Y-114192174D01*
X238577872Y-114195832D01*
X238576185Y-114214906D01*
X238575410Y-114224418D01*
X238565407Y-114238485D01*
X238537623Y-114244962D01*
X238484277Y-114246526D01*
X238392369Y-114246526D01*
X238392369Y-113845328D01*
X238576185Y-113845328D01*
X238577502Y-113914832D01*
X238582848Y-113961106D01*
X238594262Y-113992807D01*
X238613783Y-114019373D01*
X238665329Y-114058873D01*
X238725650Y-114072115D01*
X238784144Y-114055740D01*
X238833410Y-114010060D01*
X238846432Y-113976634D01*
X238856051Y-113917441D01*
X238860280Y-113845626D01*
X238858948Y-113771967D01*
X238851884Y-113707239D01*
X238838917Y-113662222D01*
X238834774Y-113654840D01*
X238794840Y-113617738D01*
X238740722Y-113601301D01*
X238682600Y-113605124D01*
X238630653Y-113628802D01*
X238595063Y-113671929D01*
X238593592Y-113675556D01*
X238584767Y-113716026D01*
X238578542Y-113776499D01*
X238576185Y-113845328D01*
X238392369Y-113845328D01*
X238392369Y-113110210D01*
X238576185Y-113110210D01*
X238576185Y-113499732D01*
X238610232Y-113468920D01*
X238643014Y-113449769D01*
X238705059Y-113433760D01*
X238777589Y-113428602D01*
X238848419Y-113434935D01*
X238905368Y-113453400D01*
X238946128Y-113479666D01*
X238988113Y-113524412D01*
X239016370Y-113584588D01*
X239033355Y-113665988D01*
X239041528Y-113774405D01*
X239042729Y-113818230D01*
X239042816Y-113845626D01*
X239042986Y-113899659D01*
G36*
X239042986Y-113899659D02*
G01*
X239040868Y-113971101D01*
X239036608Y-114020866D01*
X239035878Y-114025427D01*
X239007206Y-114107004D01*
X238954846Y-114176165D01*
X238886158Y-114223021D01*
X238812396Y-114242416D01*
X238721668Y-114240911D01*
X238638205Y-114214906D01*
X238616465Y-114203932D01*
X238588510Y-114192174D01*
X238577872Y-114195832D01*
X238576185Y-114214906D01*
X238575410Y-114224418D01*
X238565407Y-114238485D01*
X238537623Y-114244962D01*
X238484277Y-114246526D01*
X238392369Y-114246526D01*
X238392369Y-113845328D01*
X238576185Y-113845328D01*
X238577502Y-113914832D01*
X238582848Y-113961106D01*
X238594262Y-113992807D01*
X238613783Y-114019373D01*
X238665329Y-114058873D01*
X238725650Y-114072115D01*
X238784144Y-114055740D01*
X238833410Y-114010060D01*
X238846432Y-113976634D01*
X238856051Y-113917441D01*
X238860280Y-113845626D01*
X238858948Y-113771967D01*
X238851884Y-113707239D01*
X238838917Y-113662222D01*
X238834774Y-113654840D01*
X238794840Y-113617738D01*
X238740722Y-113601301D01*
X238682600Y-113605124D01*
X238630653Y-113628802D01*
X238595063Y-113671929D01*
X238593592Y-113675556D01*
X238584767Y-113716026D01*
X238578542Y-113776499D01*
X238576185Y-113845328D01*
X238392369Y-113845328D01*
X238392369Y-113110210D01*
X238576185Y-113110210D01*
X238576185Y-113499732D01*
X238610232Y-113468920D01*
X238643014Y-113449769D01*
X238705059Y-113433760D01*
X238777589Y-113428602D01*
X238848419Y-113434935D01*
X238905368Y-113453400D01*
X238946128Y-113479666D01*
X238988113Y-113524412D01*
X239016370Y-113584588D01*
X239033355Y-113665988D01*
X239041528Y-113774405D01*
X239042729Y-113818230D01*
X239042816Y-113845626D01*
X239042986Y-113899659D01*
G37*
X234961367Y-112521627D02*
X234959216Y-112649529D01*
X234958936Y-112652044D01*
X234934909Y-112769405D01*
X234891499Y-112860652D01*
X234827353Y-112927791D01*
X234741119Y-112972824D01*
X234725289Y-112977974D01*
X234627173Y-112993151D01*
X234525698Y-112984688D01*
X234431359Y-112954445D01*
X234354649Y-112904285D01*
X234297190Y-112851197D01*
X234358266Y-112802904D01*
X234419341Y-112754611D01*
X234492947Y-112790371D01*
X234578115Y-112819347D01*
X234653301Y-112820215D01*
X234714816Y-112793592D01*
X234759083Y-112740155D01*
X234774952Y-112708136D01*
X234783811Y-112680771D01*
X234778685Y-112662285D01*
X234755687Y-112650938D01*
X234710931Y-112644987D01*
X234640529Y-112642693D01*
X234540593Y-112642316D01*
X234298290Y-112642316D01*
X234298290Y-112526430D01*
X234300100Y-112475555D01*
X234470706Y-112475555D01*
X234478900Y-112484912D01*
X234503160Y-112489783D01*
X234549272Y-112491630D01*
X234623019Y-112491921D01*
X234662566Y-112491457D01*
X234724971Y-112488388D01*
X234767303Y-112483013D01*
X234782895Y-112475997D01*
X234778906Y-112450108D01*
X234750788Y-112400570D01*
X234703932Y-112359875D01*
X234648074Y-112335295D01*
X234592951Y-112334105D01*
X234551458Y-112353815D01*
X234504440Y-112398668D01*
X234474545Y-112454322D01*
X234472794Y-112460245D01*
X234470706Y-112475555D01*
X234300100Y-112475555D01*
X234300471Y-112465138D01*
X234306876Y-112404496D01*
X234316025Y-112363502D01*
X234322695Y-112347852D01*
X234371243Y-112278149D01*
X234441391Y-112220013D01*
X234523426Y-112181949D01*
X234566216Y-112171554D01*
X234668170Y-112166822D01*
X234759015Y-112190893D01*
X234836253Y-112241088D01*
X234897389Y-112314727D01*
X234939926Y-112409133D01*
X234952671Y-112475997D01*
X234961367Y-112521627D01*
G36*
X234961367Y-112521627D02*
G01*
X234959216Y-112649529D01*
X234958936Y-112652044D01*
X234934909Y-112769405D01*
X234891499Y-112860652D01*
X234827353Y-112927791D01*
X234741119Y-112972824D01*
X234725289Y-112977974D01*
X234627173Y-112993151D01*
X234525698Y-112984688D01*
X234431359Y-112954445D01*
X234354649Y-112904285D01*
X234297190Y-112851197D01*
X234358266Y-112802904D01*
X234419341Y-112754611D01*
X234492947Y-112790371D01*
X234578115Y-112819347D01*
X234653301Y-112820215D01*
X234714816Y-112793592D01*
X234759083Y-112740155D01*
X234774952Y-112708136D01*
X234783811Y-112680771D01*
X234778685Y-112662285D01*
X234755687Y-112650938D01*
X234710931Y-112644987D01*
X234640529Y-112642693D01*
X234540593Y-112642316D01*
X234298290Y-112642316D01*
X234298290Y-112526430D01*
X234300100Y-112475555D01*
X234470706Y-112475555D01*
X234478900Y-112484912D01*
X234503160Y-112489783D01*
X234549272Y-112491630D01*
X234623019Y-112491921D01*
X234662566Y-112491457D01*
X234724971Y-112488388D01*
X234767303Y-112483013D01*
X234782895Y-112475997D01*
X234778906Y-112450108D01*
X234750788Y-112400570D01*
X234703932Y-112359875D01*
X234648074Y-112335295D01*
X234592951Y-112334105D01*
X234551458Y-112353815D01*
X234504440Y-112398668D01*
X234474545Y-112454322D01*
X234472794Y-112460245D01*
X234470706Y-112475555D01*
X234300100Y-112475555D01*
X234300471Y-112465138D01*
X234306876Y-112404496D01*
X234316025Y-112363502D01*
X234322695Y-112347852D01*
X234371243Y-112278149D01*
X234441391Y-112220013D01*
X234523426Y-112181949D01*
X234566216Y-112171554D01*
X234668170Y-112166822D01*
X234759015Y-112190893D01*
X234836253Y-112241088D01*
X234897389Y-112314727D01*
X234939926Y-112409133D01*
X234952671Y-112475997D01*
X234961367Y-112521627D01*
G37*
X238256399Y-112173879D02*
X238352909Y-112198068D01*
X238423411Y-112242902D01*
X238468307Y-112308681D01*
X238487999Y-112395707D01*
X238484012Y-112479023D01*
X238455235Y-112549297D01*
X238400048Y-112601254D01*
X238317348Y-112635910D01*
X238206026Y-112654279D01*
X238133692Y-112663906D01*
X238067670Y-112684737D01*
X238033583Y-112714904D01*
X238031526Y-112754352D01*
X238045243Y-112778949D01*
X238087726Y-112808101D01*
X238148117Y-112821889D01*
X238218889Y-112820004D01*
X238292512Y-112802133D01*
X238361457Y-112767967D01*
X238430197Y-112722477D01*
X238551119Y-112844835D01*
X238500987Y-112885755D01*
X238481494Y-112899973D01*
X238426650Y-112932275D01*
X238367303Y-112960109D01*
X238320335Y-112976083D01*
X238251562Y-112987654D01*
X238166777Y-112987807D01*
X238062806Y-112975067D01*
X237969145Y-112942777D01*
X237902849Y-112891486D01*
X237863760Y-112821065D01*
X237851722Y-112731387D01*
X237860436Y-112652497D01*
X237888408Y-112587907D01*
X237938768Y-112541651D01*
X238014703Y-112510888D01*
X238119400Y-112492778D01*
X238131425Y-112491467D01*
X238196611Y-112483106D01*
X238249490Y-112474357D01*
X238279573Y-112466913D01*
X238289612Y-112460920D01*
X238306584Y-112430013D01*
X238303828Y-112390450D01*
X238281146Y-112356105D01*
X238269236Y-112348615D01*
X238219606Y-112336613D01*
X238155500Y-112337420D01*
X238088653Y-112350192D01*
X238030799Y-112374086D01*
X237970008Y-112409954D01*
X237922854Y-112354852D01*
X237911412Y-112340853D01*
X237885634Y-112303353D01*
X237875022Y-112277937D01*
X237886166Y-112262353D01*
X237920644Y-112238026D01*
X237970428Y-112211848D01*
X237977443Y-112208648D01*
X238043092Y-112183548D01*
X238106372Y-112171547D01*
X238184900Y-112169137D01*
X238256399Y-112173879D01*
G36*
X238256399Y-112173879D02*
G01*
X238352909Y-112198068D01*
X238423411Y-112242902D01*
X238468307Y-112308681D01*
X238487999Y-112395707D01*
X238484012Y-112479023D01*
X238455235Y-112549297D01*
X238400048Y-112601254D01*
X238317348Y-112635910D01*
X238206026Y-112654279D01*
X238133692Y-112663906D01*
X238067670Y-112684737D01*
X238033583Y-112714904D01*
X238031526Y-112754352D01*
X238045243Y-112778949D01*
X238087726Y-112808101D01*
X238148117Y-112821889D01*
X238218889Y-112820004D01*
X238292512Y-112802133D01*
X238361457Y-112767967D01*
X238430197Y-112722477D01*
X238551119Y-112844835D01*
X238500987Y-112885755D01*
X238481494Y-112899973D01*
X238426650Y-112932275D01*
X238367303Y-112960109D01*
X238320335Y-112976083D01*
X238251562Y-112987654D01*
X238166777Y-112987807D01*
X238062806Y-112975067D01*
X237969145Y-112942777D01*
X237902849Y-112891486D01*
X237863760Y-112821065D01*
X237851722Y-112731387D01*
X237860436Y-112652497D01*
X237888408Y-112587907D01*
X237938768Y-112541651D01*
X238014703Y-112510888D01*
X238119400Y-112492778D01*
X238131425Y-112491467D01*
X238196611Y-112483106D01*
X238249490Y-112474357D01*
X238279573Y-112466913D01*
X238289612Y-112460920D01*
X238306584Y-112430013D01*
X238303828Y-112390450D01*
X238281146Y-112356105D01*
X238269236Y-112348615D01*
X238219606Y-112336613D01*
X238155500Y-112337420D01*
X238088653Y-112350192D01*
X238030799Y-112374086D01*
X237970008Y-112409954D01*
X237922854Y-112354852D01*
X237911412Y-112340853D01*
X237885634Y-112303353D01*
X237875022Y-112277937D01*
X237886166Y-112262353D01*
X237920644Y-112238026D01*
X237970428Y-112211848D01*
X237977443Y-112208648D01*
X238043092Y-112183548D01*
X238106372Y-112171547D01*
X238184900Y-112169137D01*
X238256399Y-112173879D01*
G37*
X235818418Y-113837118D02*
X235816245Y-113899498D01*
X235796455Y-114018794D01*
X235755734Y-114112598D01*
X235693724Y-114181581D01*
X235610066Y-114226412D01*
X235583037Y-114234332D01*
X235486524Y-114245395D01*
X235384615Y-114236059D01*
X235292566Y-114207246D01*
X235260138Y-114190892D01*
X235213643Y-114162878D01*
X235185465Y-114139827D01*
X235181305Y-114134560D01*
X235173522Y-114115299D01*
X235184736Y-114094361D01*
X235218886Y-114062650D01*
X235235367Y-114048845D01*
X235267832Y-114023583D01*
X235284855Y-114013258D01*
X235289732Y-114014321D01*
X235317681Y-114025819D01*
X235359408Y-114046000D01*
X235373013Y-114052638D01*
X235453271Y-114077289D01*
X235522997Y-114070935D01*
X235584140Y-114033467D01*
X235591255Y-114026544D01*
X235625268Y-113983178D01*
X235644702Y-113941559D01*
X235655466Y-113895605D01*
X235150527Y-113895605D01*
X235150620Y-113807875D01*
X235150673Y-113799150D01*
X235157490Y-113728763D01*
X235334343Y-113728763D01*
X235336431Y-113743361D01*
X235347152Y-113753422D01*
X235372707Y-113759006D01*
X235419289Y-113761408D01*
X235493093Y-113761921D01*
X235534124Y-113761389D01*
X235594688Y-113758280D01*
X235636345Y-113753012D01*
X235651843Y-113746298D01*
X235638626Y-113691033D01*
X235599930Y-113639452D01*
X235544121Y-113603666D01*
X235479651Y-113591288D01*
X235432185Y-113605242D01*
X235384738Y-113639353D01*
X235348669Y-113683796D01*
X235334343Y-113728763D01*
X235157490Y-113728763D01*
X235161127Y-113691216D01*
X235191555Y-113603413D01*
X235244649Y-113527723D01*
X235277038Y-113495705D01*
X235343932Y-113452845D01*
X235423807Y-113432078D01*
X235524700Y-113430618D01*
X235573435Y-113436343D01*
X235663396Y-113466071D01*
X235732271Y-113520178D01*
X235780664Y-113599498D01*
X235809179Y-113704866D01*
X235812074Y-113746298D01*
X235818418Y-113837118D01*
G36*
X235818418Y-113837118D02*
G01*
X235816245Y-113899498D01*
X235796455Y-114018794D01*
X235755734Y-114112598D01*
X235693724Y-114181581D01*
X235610066Y-114226412D01*
X235583037Y-114234332D01*
X235486524Y-114245395D01*
X235384615Y-114236059D01*
X235292566Y-114207246D01*
X235260138Y-114190892D01*
X235213643Y-114162878D01*
X235185465Y-114139827D01*
X235181305Y-114134560D01*
X235173522Y-114115299D01*
X235184736Y-114094361D01*
X235218886Y-114062650D01*
X235235367Y-114048845D01*
X235267832Y-114023583D01*
X235284855Y-114013258D01*
X235289732Y-114014321D01*
X235317681Y-114025819D01*
X235359408Y-114046000D01*
X235373013Y-114052638D01*
X235453271Y-114077289D01*
X235522997Y-114070935D01*
X235584140Y-114033467D01*
X235591255Y-114026544D01*
X235625268Y-113983178D01*
X235644702Y-113941559D01*
X235655466Y-113895605D01*
X235150527Y-113895605D01*
X235150620Y-113807875D01*
X235150673Y-113799150D01*
X235157490Y-113728763D01*
X235334343Y-113728763D01*
X235336431Y-113743361D01*
X235347152Y-113753422D01*
X235372707Y-113759006D01*
X235419289Y-113761408D01*
X235493093Y-113761921D01*
X235534124Y-113761389D01*
X235594688Y-113758280D01*
X235636345Y-113753012D01*
X235651843Y-113746298D01*
X235638626Y-113691033D01*
X235599930Y-113639452D01*
X235544121Y-113603666D01*
X235479651Y-113591288D01*
X235432185Y-113605242D01*
X235384738Y-113639353D01*
X235348669Y-113683796D01*
X235334343Y-113728763D01*
X235157490Y-113728763D01*
X235161127Y-113691216D01*
X235191555Y-113603413D01*
X235244649Y-113527723D01*
X235277038Y-113495705D01*
X235343932Y-113452845D01*
X235423807Y-113432078D01*
X235524700Y-113430618D01*
X235573435Y-113436343D01*
X235663396Y-113466071D01*
X235732271Y-113520178D01*
X235780664Y-113599498D01*
X235809179Y-113704866D01*
X235812074Y-113746298D01*
X235818418Y-113837118D01*
G37*
X240393543Y-112475091D02*
X240399389Y-112592138D01*
X240397928Y-112643216D01*
X240381454Y-112754843D01*
X240345151Y-112842856D01*
X240287120Y-112910884D01*
X240205461Y-112962551D01*
X240126246Y-112986670D01*
X240026871Y-112991285D01*
X239926607Y-112973537D01*
X239837172Y-112934327D01*
X239804030Y-112912515D01*
X239767515Y-112884556D01*
X239750853Y-112866158D01*
X239751798Y-112858567D01*
X239770448Y-112832703D01*
X239805498Y-112801367D01*
X239866241Y-112755036D01*
X239937418Y-112790584D01*
X239956665Y-112799383D01*
X240013323Y-112818506D01*
X240060811Y-112826131D01*
X240095828Y-112819848D01*
X240150778Y-112789591D01*
X240196967Y-112742620D01*
X240223387Y-112688270D01*
X240234150Y-112642316D01*
X239729211Y-112642316D01*
X239729304Y-112554585D01*
X239730069Y-112526781D01*
X239735649Y-112467119D01*
X239913027Y-112467119D01*
X239913352Y-112470537D01*
X239922540Y-112481181D01*
X239948504Y-112487720D01*
X239996779Y-112491014D01*
X240072903Y-112491921D01*
X240097923Y-112491910D01*
X240162902Y-112491310D01*
X240201964Y-112488715D01*
X240220903Y-112482662D01*
X240225511Y-112471686D01*
X240221581Y-112454322D01*
X240220981Y-112452353D01*
X240187127Y-112391930D01*
X240133757Y-112350329D01*
X240070115Y-112334842D01*
X240046591Y-112336080D01*
X240002928Y-112350896D01*
X239961041Y-112388579D01*
X239949758Y-112401903D01*
X239923513Y-112439956D01*
X239913027Y-112467119D01*
X239735649Y-112467119D01*
X239736366Y-112459449D01*
X239746926Y-112403734D01*
X239758501Y-112372543D01*
X239799195Y-112304700D01*
X239853695Y-112243086D01*
X239911330Y-112200866D01*
X239927982Y-112193027D01*
X240024945Y-112167021D01*
X240123960Y-112169762D01*
X240217052Y-112200092D01*
X240296244Y-112256848D01*
X240339078Y-112309190D01*
X240374101Y-112382928D01*
X240392825Y-112471686D01*
X240393543Y-112475091D01*
G36*
X240393543Y-112475091D02*
G01*
X240399389Y-112592138D01*
X240397928Y-112643216D01*
X240381454Y-112754843D01*
X240345151Y-112842856D01*
X240287120Y-112910884D01*
X240205461Y-112962551D01*
X240126246Y-112986670D01*
X240026871Y-112991285D01*
X239926607Y-112973537D01*
X239837172Y-112934327D01*
X239804030Y-112912515D01*
X239767515Y-112884556D01*
X239750853Y-112866158D01*
X239751798Y-112858567D01*
X239770448Y-112832703D01*
X239805498Y-112801367D01*
X239866241Y-112755036D01*
X239937418Y-112790584D01*
X239956665Y-112799383D01*
X240013323Y-112818506D01*
X240060811Y-112826131D01*
X240095828Y-112819848D01*
X240150778Y-112789591D01*
X240196967Y-112742620D01*
X240223387Y-112688270D01*
X240234150Y-112642316D01*
X239729211Y-112642316D01*
X239729304Y-112554585D01*
X239730069Y-112526781D01*
X239735649Y-112467119D01*
X239913027Y-112467119D01*
X239913352Y-112470537D01*
X239922540Y-112481181D01*
X239948504Y-112487720D01*
X239996779Y-112491014D01*
X240072903Y-112491921D01*
X240097923Y-112491910D01*
X240162902Y-112491310D01*
X240201964Y-112488715D01*
X240220903Y-112482662D01*
X240225511Y-112471686D01*
X240221581Y-112454322D01*
X240220981Y-112452353D01*
X240187127Y-112391930D01*
X240133757Y-112350329D01*
X240070115Y-112334842D01*
X240046591Y-112336080D01*
X240002928Y-112350896D01*
X239961041Y-112388579D01*
X239949758Y-112401903D01*
X239923513Y-112439956D01*
X239913027Y-112467119D01*
X239735649Y-112467119D01*
X239736366Y-112459449D01*
X239746926Y-112403734D01*
X239758501Y-112372543D01*
X239799195Y-112304700D01*
X239853695Y-112243086D01*
X239911330Y-112200866D01*
X239927982Y-112193027D01*
X240024945Y-112167021D01*
X240123960Y-112169762D01*
X240217052Y-112200092D01*
X240296244Y-112256848D01*
X240339078Y-112309190D01*
X240374101Y-112382928D01*
X240392825Y-112471686D01*
X240393543Y-112475091D01*
G37*
X237180668Y-114026600D02*
X237160509Y-114102464D01*
X237116698Y-114167365D01*
X237050241Y-114214051D01*
X237043719Y-114216889D01*
X236971005Y-114237330D01*
X236889071Y-114245299D01*
X236811172Y-114240427D01*
X236750560Y-114222348D01*
X236726348Y-114210554D01*
X236708580Y-114207741D01*
X236704606Y-114222451D01*
X236697078Y-114236055D01*
X236667953Y-114244156D01*
X236611420Y-114246526D01*
X236518235Y-114246526D01*
X236523194Y-113954092D01*
X236704606Y-113954092D01*
X236710900Y-113997806D01*
X236738027Y-114046000D01*
X236748040Y-114054858D01*
X236789081Y-114073494D01*
X236850823Y-114078290D01*
X236887871Y-114076417D01*
X236957195Y-114062309D01*
X237000163Y-114036024D01*
X237014655Y-113999344D01*
X236998551Y-113954052D01*
X236989154Y-113942200D01*
X236947187Y-113915613D01*
X236880766Y-113900432D01*
X236786070Y-113895605D01*
X236704606Y-113895605D01*
X236704606Y-113954092D01*
X236523194Y-113954092D01*
X236523690Y-113924849D01*
X236525172Y-113850462D01*
X236529076Y-113739099D01*
X236535657Y-113653946D01*
X236546214Y-113590360D01*
X236562048Y-113543699D01*
X236584459Y-113509321D01*
X236614747Y-113482583D01*
X236654213Y-113458844D01*
X236674573Y-113449780D01*
X236745008Y-113432673D01*
X236829959Y-113425600D01*
X236917788Y-113428432D01*
X236996857Y-113441041D01*
X237055527Y-113463297D01*
X237075935Y-113476219D01*
X237122921Y-113514519D01*
X237138824Y-113546589D01*
X237134962Y-113552786D01*
X237110894Y-113574432D01*
X237072039Y-113603308D01*
X237052174Y-113616824D01*
X237018346Y-113635974D01*
X236996363Y-113637803D01*
X236975953Y-113624585D01*
X236925086Y-113597816D01*
X236856640Y-113586808D01*
X236786694Y-113595236D01*
X236785370Y-113595618D01*
X236736036Y-113617052D01*
X236711616Y-113650603D01*
X236704862Y-113706091D01*
X236704606Y-113758879D01*
X236879010Y-113764577D01*
X236906796Y-113765515D01*
X236976848Y-113768775D01*
X237023809Y-113773897D01*
X237055552Y-113782798D01*
X237079948Y-113797397D01*
X237104869Y-113819612D01*
X237146015Y-113870995D01*
X237176171Y-113947026D01*
X237179128Y-113999344D01*
X237180668Y-114026600D01*
G36*
X237180668Y-114026600D02*
G01*
X237160509Y-114102464D01*
X237116698Y-114167365D01*
X237050241Y-114214051D01*
X237043719Y-114216889D01*
X236971005Y-114237330D01*
X236889071Y-114245299D01*
X236811172Y-114240427D01*
X236750560Y-114222348D01*
X236726348Y-114210554D01*
X236708580Y-114207741D01*
X236704606Y-114222451D01*
X236697078Y-114236055D01*
X236667953Y-114244156D01*
X236611420Y-114246526D01*
X236518235Y-114246526D01*
X236523194Y-113954092D01*
X236704606Y-113954092D01*
X236710900Y-113997806D01*
X236738027Y-114046000D01*
X236748040Y-114054858D01*
X236789081Y-114073494D01*
X236850823Y-114078290D01*
X236887871Y-114076417D01*
X236957195Y-114062309D01*
X237000163Y-114036024D01*
X237014655Y-113999344D01*
X236998551Y-113954052D01*
X236989154Y-113942200D01*
X236947187Y-113915613D01*
X236880766Y-113900432D01*
X236786070Y-113895605D01*
X236704606Y-113895605D01*
X236704606Y-113954092D01*
X236523194Y-113954092D01*
X236523690Y-113924849D01*
X236525172Y-113850462D01*
X236529076Y-113739099D01*
X236535657Y-113653946D01*
X236546214Y-113590360D01*
X236562048Y-113543699D01*
X236584459Y-113509321D01*
X236614747Y-113482583D01*
X236654213Y-113458844D01*
X236674573Y-113449780D01*
X236745008Y-113432673D01*
X236829959Y-113425600D01*
X236917788Y-113428432D01*
X236996857Y-113441041D01*
X237055527Y-113463297D01*
X237075935Y-113476219D01*
X237122921Y-113514519D01*
X237138824Y-113546589D01*
X237134962Y-113552786D01*
X237110894Y-113574432D01*
X237072039Y-113603308D01*
X237052174Y-113616824D01*
X237018346Y-113635974D01*
X236996363Y-113637803D01*
X236975953Y-113624585D01*
X236925086Y-113597816D01*
X236856640Y-113586808D01*
X236786694Y-113595236D01*
X236785370Y-113595618D01*
X236736036Y-113617052D01*
X236711616Y-113650603D01*
X236704862Y-113706091D01*
X236704606Y-113758879D01*
X236879010Y-113764577D01*
X236906796Y-113765515D01*
X236976848Y-113768775D01*
X237023809Y-113773897D01*
X237055552Y-113782798D01*
X237079948Y-113797397D01*
X237104869Y-113819612D01*
X237146015Y-113870995D01*
X237176171Y-113947026D01*
X237179128Y-113999344D01*
X237180668Y-114026600D01*
G37*
X240393912Y-114023796D02*
X240393722Y-114026000D01*
X240373360Y-114111846D01*
X240328067Y-114176412D01*
X240255593Y-114222937D01*
X240218140Y-114234256D01*
X240153990Y-114243078D01*
X240083840Y-114245185D01*
X240020548Y-114240330D01*
X239976976Y-114228268D01*
X239950512Y-114218606D01*
X239924601Y-114228268D01*
X239915123Y-114233866D01*
X239877294Y-114242943D01*
X239826132Y-114246526D01*
X239745922Y-114246526D01*
X239745922Y-113959857D01*
X239929737Y-113959857D01*
X239935915Y-114008753D01*
X239960297Y-114051765D01*
X239974249Y-114061074D01*
X240024051Y-114075583D01*
X240086225Y-114079205D01*
X240147196Y-114071845D01*
X240193388Y-114053408D01*
X240216399Y-114029030D01*
X240230527Y-113985713D01*
X240217998Y-113951376D01*
X240176582Y-113921520D01*
X240110005Y-113902366D01*
X240022182Y-113895605D01*
X239929737Y-113895605D01*
X239929737Y-113959857D01*
X239745922Y-113959857D01*
X239745922Y-113923142D01*
X239745928Y-113895176D01*
X239746232Y-113789767D01*
X239747376Y-113711401D01*
X239749877Y-113654871D01*
X239754256Y-113614970D01*
X239761032Y-113586492D01*
X239770725Y-113564230D01*
X239783853Y-113542978D01*
X239826084Y-113493180D01*
X239885930Y-113455160D01*
X239964543Y-113434184D01*
X240068136Y-113427736D01*
X240071503Y-113427743D01*
X240143513Y-113430995D01*
X240207966Y-113439103D01*
X240251952Y-113450470D01*
X240264010Y-113456166D01*
X240302391Y-113480289D01*
X240337124Y-113508960D01*
X240359977Y-113534760D01*
X240362716Y-113550273D01*
X240357370Y-113554465D01*
X240299127Y-113599218D01*
X240260181Y-113625613D01*
X240234431Y-113636262D01*
X240215772Y-113633780D01*
X240198101Y-113620782D01*
X240165490Y-113604556D01*
X240110533Y-113593737D01*
X240048420Y-113590931D01*
X239992217Y-113596642D01*
X239954984Y-113611376D01*
X239953025Y-113613169D01*
X239936294Y-113646850D01*
X239929737Y-113697125D01*
X239929737Y-113761921D01*
X240084310Y-113761983D01*
X240155314Y-113763107D01*
X240215082Y-113767996D01*
X240257837Y-113778055D01*
X240292380Y-113794665D01*
X240300419Y-113799767D01*
X240358576Y-113855847D01*
X240389510Y-113930004D01*
X240392125Y-113985713D01*
X240393912Y-114023796D01*
G36*
X240393912Y-114023796D02*
G01*
X240393722Y-114026000D01*
X240373360Y-114111846D01*
X240328067Y-114176412D01*
X240255593Y-114222937D01*
X240218140Y-114234256D01*
X240153990Y-114243078D01*
X240083840Y-114245185D01*
X240020548Y-114240330D01*
X239976976Y-114228268D01*
X239950512Y-114218606D01*
X239924601Y-114228268D01*
X239915123Y-114233866D01*
X239877294Y-114242943D01*
X239826132Y-114246526D01*
X239745922Y-114246526D01*
X239745922Y-113959857D01*
X239929737Y-113959857D01*
X239935915Y-114008753D01*
X239960297Y-114051765D01*
X239974249Y-114061074D01*
X240024051Y-114075583D01*
X240086225Y-114079205D01*
X240147196Y-114071845D01*
X240193388Y-114053408D01*
X240216399Y-114029030D01*
X240230527Y-113985713D01*
X240217998Y-113951376D01*
X240176582Y-113921520D01*
X240110005Y-113902366D01*
X240022182Y-113895605D01*
X239929737Y-113895605D01*
X239929737Y-113959857D01*
X239745922Y-113959857D01*
X239745922Y-113923142D01*
X239745928Y-113895176D01*
X239746232Y-113789767D01*
X239747376Y-113711401D01*
X239749877Y-113654871D01*
X239754256Y-113614970D01*
X239761032Y-113586492D01*
X239770725Y-113564230D01*
X239783853Y-113542978D01*
X239826084Y-113493180D01*
X239885930Y-113455160D01*
X239964543Y-113434184D01*
X240068136Y-113427736D01*
X240071503Y-113427743D01*
X240143513Y-113430995D01*
X240207966Y-113439103D01*
X240251952Y-113450470D01*
X240264010Y-113456166D01*
X240302391Y-113480289D01*
X240337124Y-113508960D01*
X240359977Y-113534760D01*
X240362716Y-113550273D01*
X240357370Y-113554465D01*
X240299127Y-113599218D01*
X240260181Y-113625613D01*
X240234431Y-113636262D01*
X240215772Y-113633780D01*
X240198101Y-113620782D01*
X240165490Y-113604556D01*
X240110533Y-113593737D01*
X240048420Y-113590931D01*
X239992217Y-113596642D01*
X239954984Y-113611376D01*
X239953025Y-113613169D01*
X239936294Y-113646850D01*
X239929737Y-113697125D01*
X239929737Y-113761921D01*
X240084310Y-113761983D01*
X240155314Y-113763107D01*
X240215082Y-113767996D01*
X240257837Y-113778055D01*
X240292380Y-113794665D01*
X240300419Y-113799767D01*
X240358576Y-113855847D01*
X240389510Y-113930004D01*
X240392125Y-113985713D01*
X240393912Y-114023796D01*
G37*
X241149606Y-114248273D02*
X241061875Y-114243222D01*
X240974145Y-114238171D01*
X240969974Y-113970802D01*
X240968740Y-113905788D01*
X240965237Y-113808111D01*
X240959224Y-113736434D01*
X240949597Y-113685940D01*
X240935249Y-113651810D01*
X240915075Y-113629227D01*
X240887970Y-113613372D01*
X240837112Y-113597180D01*
X240786534Y-113603472D01*
X240733125Y-113638077D01*
X240681711Y-113681339D01*
X240681711Y-114246526D01*
X240497895Y-114246526D01*
X240497895Y-113940010D01*
X240498072Y-113843935D01*
X240499049Y-113758562D01*
X240501399Y-113696071D01*
X240505691Y-113650794D01*
X240512495Y-113617068D01*
X240522378Y-113589227D01*
X240535910Y-113561605D01*
X240539119Y-113555741D01*
X240581792Y-113498627D01*
X240631735Y-113458714D01*
X240691948Y-113437756D01*
X240771680Y-113428427D01*
X240851527Y-113433480D01*
X240916488Y-113453205D01*
X240965790Y-113478700D01*
X240965790Y-112926931D01*
X240898237Y-112962142D01*
X240870019Y-112974934D01*
X240780950Y-112993023D01*
X240692434Y-112980521D01*
X240610381Y-112938952D01*
X240540704Y-112869843D01*
X240529789Y-112853600D01*
X240519298Y-112829790D01*
X240512455Y-112797418D01*
X240508504Y-112750271D01*
X240506688Y-112682135D01*
X240506362Y-112611142D01*
X240682891Y-112611142D01*
X240683040Y-112670431D01*
X240687573Y-112709969D01*
X240697760Y-112738189D01*
X240714872Y-112763519D01*
X240736610Y-112787069D01*
X240771372Y-112804892D01*
X240823750Y-112809421D01*
X240870020Y-112805480D01*
X240915817Y-112785759D01*
X240945312Y-112745809D01*
X240961104Y-112681600D01*
X240965790Y-112589101D01*
X240964578Y-112539894D01*
X240952481Y-112447006D01*
X240927523Y-112384196D01*
X240889844Y-112351906D01*
X240851789Y-112342822D01*
X240785513Y-112347081D01*
X240729516Y-112373452D01*
X240716114Y-112385545D01*
X240701913Y-112406467D01*
X240693133Y-112437611D01*
X240687919Y-112486710D01*
X240684416Y-112561498D01*
X240682891Y-112611142D01*
X240506362Y-112611142D01*
X240506250Y-112586797D01*
X240506400Y-112543296D01*
X240508962Y-112442111D01*
X240516097Y-112366522D01*
X240529606Y-112310817D01*
X240551294Y-112269283D01*
X240582960Y-112236206D01*
X240626408Y-112205874D01*
X240661640Y-112188468D01*
X240745173Y-112169271D01*
X240833222Y-112171887D01*
X240911481Y-112196772D01*
X240945067Y-112213039D01*
X240961960Y-112214720D01*
X240965790Y-112199916D01*
X240965794Y-112199468D01*
X240974048Y-112184351D01*
X241002517Y-112176603D01*
X241057698Y-112174421D01*
X241149606Y-112174421D01*
X241149606Y-112589101D01*
X241149606Y-114248273D01*
G36*
X241149606Y-114248273D02*
G01*
X241061875Y-114243222D01*
X240974145Y-114238171D01*
X240969974Y-113970802D01*
X240968740Y-113905788D01*
X240965237Y-113808111D01*
X240959224Y-113736434D01*
X240949597Y-113685940D01*
X240935249Y-113651810D01*
X240915075Y-113629227D01*
X240887970Y-113613372D01*
X240837112Y-113597180D01*
X240786534Y-113603472D01*
X240733125Y-113638077D01*
X240681711Y-113681339D01*
X240681711Y-114246526D01*
X240497895Y-114246526D01*
X240497895Y-113940010D01*
X240498072Y-113843935D01*
X240499049Y-113758562D01*
X240501399Y-113696071D01*
X240505691Y-113650794D01*
X240512495Y-113617068D01*
X240522378Y-113589227D01*
X240535910Y-113561605D01*
X240539119Y-113555741D01*
X240581792Y-113498627D01*
X240631735Y-113458714D01*
X240691948Y-113437756D01*
X240771680Y-113428427D01*
X240851527Y-113433480D01*
X240916488Y-113453205D01*
X240965790Y-113478700D01*
X240965790Y-112926931D01*
X240898237Y-112962142D01*
X240870019Y-112974934D01*
X240780950Y-112993023D01*
X240692434Y-112980521D01*
X240610381Y-112938952D01*
X240540704Y-112869843D01*
X240529789Y-112853600D01*
X240519298Y-112829790D01*
X240512455Y-112797418D01*
X240508504Y-112750271D01*
X240506688Y-112682135D01*
X240506362Y-112611142D01*
X240682891Y-112611142D01*
X240683040Y-112670431D01*
X240687573Y-112709969D01*
X240697760Y-112738189D01*
X240714872Y-112763519D01*
X240736610Y-112787069D01*
X240771372Y-112804892D01*
X240823750Y-112809421D01*
X240870020Y-112805480D01*
X240915817Y-112785759D01*
X240945312Y-112745809D01*
X240961104Y-112681600D01*
X240965790Y-112589101D01*
X240964578Y-112539894D01*
X240952481Y-112447006D01*
X240927523Y-112384196D01*
X240889844Y-112351906D01*
X240851789Y-112342822D01*
X240785513Y-112347081D01*
X240729516Y-112373452D01*
X240716114Y-112385545D01*
X240701913Y-112406467D01*
X240693133Y-112437611D01*
X240687919Y-112486710D01*
X240684416Y-112561498D01*
X240682891Y-112611142D01*
X240506362Y-112611142D01*
X240506250Y-112586797D01*
X240506400Y-112543296D01*
X240508962Y-112442111D01*
X240516097Y-112366522D01*
X240529606Y-112310817D01*
X240551294Y-112269283D01*
X240582960Y-112236206D01*
X240626408Y-112205874D01*
X240661640Y-112188468D01*
X240745173Y-112169271D01*
X240833222Y-112171887D01*
X240911481Y-112196772D01*
X240945067Y-112213039D01*
X240961960Y-112214720D01*
X240965790Y-112199916D01*
X240965794Y-112199468D01*
X240974048Y-112184351D01*
X241002517Y-112176603D01*
X241057698Y-112174421D01*
X241149606Y-112174421D01*
X241149606Y-112589101D01*
X241149606Y-114248273D01*
G37*
X238609254Y-106634576D02*
X238684803Y-107035322D01*
X238963567Y-107150238D01*
X239242332Y-107265154D01*
X239576756Y-107037748D01*
X239642946Y-106992917D01*
X239730693Y-106934071D01*
X239806663Y-106883810D01*
X239866911Y-106844715D01*
X239907491Y-106819365D01*
X239924457Y-106810342D01*
X239934877Y-106816759D01*
X239966025Y-106843647D01*
X240013161Y-106887774D01*
X240072293Y-106945087D01*
X240139426Y-107011535D01*
X240210566Y-107083065D01*
X240281719Y-107155626D01*
X240348892Y-107225167D01*
X240408090Y-107287635D01*
X240455319Y-107338978D01*
X240486586Y-107375145D01*
X240497895Y-107392083D01*
X240495264Y-107399361D01*
X240477048Y-107431824D01*
X240443782Y-107485249D01*
X240398164Y-107555449D01*
X240342890Y-107638236D01*
X240280658Y-107729421D01*
X240246506Y-107779152D01*
X240187757Y-107865731D01*
X240137388Y-107941291D01*
X240098086Y-108001733D01*
X240072535Y-108042961D01*
X240063422Y-108060876D01*
X240063571Y-108061869D01*
X240071611Y-108084580D01*
X240090054Y-108130955D01*
X240116331Y-108194937D01*
X240147871Y-108270468D01*
X240182102Y-108351489D01*
X240216454Y-108431943D01*
X240248355Y-108505772D01*
X240275235Y-108566918D01*
X240294522Y-108609322D01*
X240303646Y-108626926D01*
X240309045Y-108628488D01*
X240341846Y-108635531D01*
X240400306Y-108647199D01*
X240479746Y-108662580D01*
X240575486Y-108680760D01*
X240682846Y-108700830D01*
X240739431Y-108711471D01*
X240843289Y-108731773D01*
X240934097Y-108750522D01*
X241006891Y-108766642D01*
X241056708Y-108779056D01*
X241078586Y-108786686D01*
X241082516Y-108794250D01*
X241089034Y-108831209D01*
X241094156Y-108892765D01*
X241097884Y-108973127D01*
X241100223Y-109066503D01*
X241101177Y-109167101D01*
X241100749Y-109269128D01*
X241098945Y-109366793D01*
X241095766Y-109454304D01*
X241091219Y-109525869D01*
X241085306Y-109575696D01*
X241078031Y-109597993D01*
X241073617Y-109600508D01*
X241040694Y-109611296D01*
X240983582Y-109625569D01*
X240908882Y-109641764D01*
X240823196Y-109658319D01*
X240794285Y-109663592D01*
X240660755Y-109688113D01*
X240555813Y-109707821D01*
X240475820Y-109723531D01*
X240417139Y-109736062D01*
X240376132Y-109746229D01*
X240349161Y-109754851D01*
X240332588Y-109762745D01*
X240322775Y-109770727D01*
X240321635Y-109772067D01*
X240305588Y-109799997D01*
X240281843Y-109851104D01*
X240252701Y-109919392D01*
X240220463Y-109998866D01*
X240187430Y-110083529D01*
X240155904Y-110167387D01*
X240128186Y-110244444D01*
X240106577Y-110308704D01*
X240093379Y-110354172D01*
X240090893Y-110374852D01*
X240092555Y-110377535D01*
X240109765Y-110403484D01*
X240142130Y-110451345D01*
X240186650Y-110516710D01*
X240240323Y-110595170D01*
X240300149Y-110682315D01*
X240316567Y-110706292D01*
X240374303Y-110792295D01*
X240424200Y-110869211D01*
X240463409Y-110932477D01*
X240489083Y-110977532D01*
X240498374Y-110999815D01*
X240496372Y-111005673D01*
X240475503Y-111034541D01*
X240434331Y-111081680D01*
X240375803Y-111143920D01*
X240302867Y-111218087D01*
X240218473Y-111301008D01*
X240170234Y-111347421D01*
X240093962Y-111419708D01*
X240027205Y-111481624D01*
X239973546Y-111529911D01*
X239936570Y-111561307D01*
X239919863Y-111572554D01*
X239908385Y-111568384D01*
X239873045Y-111548663D01*
X239821723Y-111516410D01*
X239761113Y-111475711D01*
X239718020Y-111446011D01*
X239631987Y-111387030D01*
X239540179Y-111324390D01*
X239456323Y-111267469D01*
X239292053Y-111156359D01*
X239154160Y-111230916D01*
X239121690Y-111248125D01*
X239062642Y-111277560D01*
X239016979Y-111297883D01*
X238992574Y-111305460D01*
X238984588Y-111295730D01*
X238964756Y-111258679D01*
X238935462Y-111197593D01*
X238898338Y-111116349D01*
X238855013Y-111018823D01*
X238807118Y-110908891D01*
X238756281Y-110790432D01*
X238704133Y-110667321D01*
X238652304Y-110543435D01*
X238602424Y-110422650D01*
X238556123Y-110308844D01*
X238515031Y-110205893D01*
X238480778Y-110117673D01*
X238454993Y-110048062D01*
X238439308Y-110000936D01*
X238435351Y-109980172D01*
X238435619Y-109979565D01*
X238454050Y-109960370D01*
X238492602Y-109930306D01*
X238543316Y-109895609D01*
X238559324Y-109885014D01*
X238681125Y-109784498D01*
X238781929Y-109664777D01*
X238859351Y-109530834D01*
X238911004Y-109387653D01*
X238934500Y-109240216D01*
X238927454Y-109093507D01*
X238898910Y-108963020D01*
X238847659Y-108831257D01*
X238772945Y-108713706D01*
X238670414Y-108602042D01*
X238630127Y-108566369D01*
X238499889Y-108478480D01*
X238359197Y-108419288D01*
X238212127Y-108388265D01*
X238062758Y-108384879D01*
X237915167Y-108408602D01*
X237773429Y-108458904D01*
X237641623Y-108535255D01*
X237523826Y-108637125D01*
X237424114Y-108763984D01*
X237404943Y-108795400D01*
X237339783Y-108938992D01*
X237305177Y-109088517D01*
X237300218Y-109240105D01*
X237324001Y-109389882D01*
X237375619Y-109533976D01*
X237454166Y-109668515D01*
X237558736Y-109789625D01*
X237688422Y-109893434D01*
X237692634Y-109896232D01*
X237742810Y-109931590D01*
X237780417Y-109961653D01*
X237797594Y-109980172D01*
X237795426Y-109994690D01*
X237781951Y-110036965D01*
X237758058Y-110102486D01*
X237725375Y-110187377D01*
X237685533Y-110287759D01*
X237640160Y-110399757D01*
X237590887Y-110519491D01*
X237539341Y-110643084D01*
X237487154Y-110766659D01*
X237435953Y-110886339D01*
X237387368Y-110998245D01*
X237343030Y-111098500D01*
X237304566Y-111183227D01*
X237273606Y-111248547D01*
X237251779Y-111290584D01*
X237240716Y-111305460D01*
X237231516Y-111303446D01*
X237195371Y-111288966D01*
X237141951Y-111263578D01*
X237079131Y-111230916D01*
X236941238Y-111156359D01*
X236776968Y-111267469D01*
X236728436Y-111300370D01*
X236638166Y-111361845D01*
X236548171Y-111423418D01*
X236472177Y-111475711D01*
X236430237Y-111504209D01*
X236375726Y-111539616D01*
X236335309Y-111563855D01*
X236315568Y-111572842D01*
X236307087Y-111569026D01*
X236276429Y-111545656D01*
X236229168Y-111504510D01*
X236169416Y-111449635D01*
X236101288Y-111385077D01*
X236028896Y-111314885D01*
X235956356Y-111243106D01*
X235887780Y-111173786D01*
X235827282Y-111110973D01*
X235778976Y-111058714D01*
X235746976Y-111021057D01*
X235735395Y-111002048D01*
X235736063Y-110998431D01*
X235749847Y-110968993D01*
X235779292Y-110918062D01*
X235821553Y-110850238D01*
X235873785Y-110770123D01*
X235933142Y-110682315D01*
X235949789Y-110658096D01*
X236008244Y-110572868D01*
X236059733Y-110497521D01*
X236101256Y-110436463D01*
X236129811Y-110394104D01*
X236142398Y-110374852D01*
X236142707Y-110374027D01*
X236138993Y-110350473D01*
X236124807Y-110302759D01*
X236102451Y-110236879D01*
X236074227Y-110158830D01*
X236042435Y-110074607D01*
X236009378Y-109990205D01*
X235977356Y-109911621D01*
X235948671Y-109844850D01*
X235925623Y-109795886D01*
X235910515Y-109770727D01*
X235909002Y-109769165D01*
X235898185Y-109761263D01*
X235879915Y-109753294D01*
X235850556Y-109744441D01*
X235806470Y-109733887D01*
X235744018Y-109720815D01*
X235659564Y-109704408D01*
X235549469Y-109683848D01*
X235410095Y-109658319D01*
X235381187Y-109652946D01*
X235298377Y-109636337D01*
X235228718Y-109620600D01*
X235178812Y-109607298D01*
X235155259Y-109597993D01*
X235151319Y-109590230D01*
X235144750Y-109552942D01*
X235139544Y-109491125D01*
X235135706Y-109410572D01*
X235133239Y-109317075D01*
X235132147Y-109216426D01*
X235132435Y-109114417D01*
X235134107Y-109016839D01*
X235137165Y-108929485D01*
X235141615Y-108858147D01*
X235147460Y-108808617D01*
X235154704Y-108786686D01*
X235162101Y-108783446D01*
X235198896Y-108773233D01*
X235261091Y-108758789D01*
X235343723Y-108741189D01*
X235441828Y-108721510D01*
X235550444Y-108700830D01*
X235609750Y-108689781D01*
X235711398Y-108670621D01*
X235798890Y-108653844D01*
X235867549Y-108640361D01*
X235912693Y-108631084D01*
X235929644Y-108626926D01*
X235930281Y-108626069D01*
X235941077Y-108604293D01*
X235961657Y-108558671D01*
X235989449Y-108495258D01*
X236021882Y-108420107D01*
X236056382Y-108339270D01*
X236090378Y-108258799D01*
X236121297Y-108184749D01*
X236146566Y-108123172D01*
X236163615Y-108080121D01*
X236169869Y-108061650D01*
X236167110Y-108055150D01*
X236148750Y-108024222D01*
X236115446Y-107972163D01*
X236069874Y-107903059D01*
X236014711Y-107820993D01*
X235952632Y-107730052D01*
X235918573Y-107680248D01*
X235859797Y-107592931D01*
X235809403Y-107516298D01*
X235770080Y-107454531D01*
X235744514Y-107411806D01*
X235735395Y-107392305D01*
X235741732Y-107381727D01*
X235768237Y-107350119D01*
X235811720Y-107302283D01*
X235868189Y-107242273D01*
X235933653Y-107174142D01*
X236004121Y-107101945D01*
X236075601Y-107029733D01*
X236144100Y-106961562D01*
X236205629Y-106901483D01*
X236256194Y-106853551D01*
X236291805Y-106821820D01*
X236308470Y-106810342D01*
X236317720Y-106814805D01*
X236351689Y-106835502D01*
X236406505Y-106870727D01*
X236478218Y-106917896D01*
X236562878Y-106974431D01*
X236656535Y-107037748D01*
X236990959Y-107265154D01*
X237548487Y-107035322D01*
X237624036Y-106634576D01*
X237699585Y-106233829D01*
X238533706Y-106233829D01*
X238609254Y-106634576D01*
G36*
X238609254Y-106634576D02*
G01*
X238684803Y-107035322D01*
X238963567Y-107150238D01*
X239242332Y-107265154D01*
X239576756Y-107037748D01*
X239642946Y-106992917D01*
X239730693Y-106934071D01*
X239806663Y-106883810D01*
X239866911Y-106844715D01*
X239907491Y-106819365D01*
X239924457Y-106810342D01*
X239934877Y-106816759D01*
X239966025Y-106843647D01*
X240013161Y-106887774D01*
X240072293Y-106945087D01*
X240139426Y-107011535D01*
X240210566Y-107083065D01*
X240281719Y-107155626D01*
X240348892Y-107225167D01*
X240408090Y-107287635D01*
X240455319Y-107338978D01*
X240486586Y-107375145D01*
X240497895Y-107392083D01*
X240495264Y-107399361D01*
X240477048Y-107431824D01*
X240443782Y-107485249D01*
X240398164Y-107555449D01*
X240342890Y-107638236D01*
X240280658Y-107729421D01*
X240246506Y-107779152D01*
X240187757Y-107865731D01*
X240137388Y-107941291D01*
X240098086Y-108001733D01*
X240072535Y-108042961D01*
X240063422Y-108060876D01*
X240063571Y-108061869D01*
X240071611Y-108084580D01*
X240090054Y-108130955D01*
X240116331Y-108194937D01*
X240147871Y-108270468D01*
X240182102Y-108351489D01*
X240216454Y-108431943D01*
X240248355Y-108505772D01*
X240275235Y-108566918D01*
X240294522Y-108609322D01*
X240303646Y-108626926D01*
X240309045Y-108628488D01*
X240341846Y-108635531D01*
X240400306Y-108647199D01*
X240479746Y-108662580D01*
X240575486Y-108680760D01*
X240682846Y-108700830D01*
X240739431Y-108711471D01*
X240843289Y-108731773D01*
X240934097Y-108750522D01*
X241006891Y-108766642D01*
X241056708Y-108779056D01*
X241078586Y-108786686D01*
X241082516Y-108794250D01*
X241089034Y-108831209D01*
X241094156Y-108892765D01*
X241097884Y-108973127D01*
X241100223Y-109066503D01*
X241101177Y-109167101D01*
X241100749Y-109269128D01*
X241098945Y-109366793D01*
X241095766Y-109454304D01*
X241091219Y-109525869D01*
X241085306Y-109575696D01*
X241078031Y-109597993D01*
X241073617Y-109600508D01*
X241040694Y-109611296D01*
X240983582Y-109625569D01*
X240908882Y-109641764D01*
X240823196Y-109658319D01*
X240794285Y-109663592D01*
X240660755Y-109688113D01*
X240555813Y-109707821D01*
X240475820Y-109723531D01*
X240417139Y-109736062D01*
X240376132Y-109746229D01*
X240349161Y-109754851D01*
X240332588Y-109762745D01*
X240322775Y-109770727D01*
X240321635Y-109772067D01*
X240305588Y-109799997D01*
X240281843Y-109851104D01*
X240252701Y-109919392D01*
X240220463Y-109998866D01*
X240187430Y-110083529D01*
X240155904Y-110167387D01*
X240128186Y-110244444D01*
X240106577Y-110308704D01*
X240093379Y-110354172D01*
X240090893Y-110374852D01*
X240092555Y-110377535D01*
X240109765Y-110403484D01*
X240142130Y-110451345D01*
X240186650Y-110516710D01*
X240240323Y-110595170D01*
X240300149Y-110682315D01*
X240316567Y-110706292D01*
X240374303Y-110792295D01*
X240424200Y-110869211D01*
X240463409Y-110932477D01*
X240489083Y-110977532D01*
X240498374Y-110999815D01*
X240496372Y-111005673D01*
X240475503Y-111034541D01*
X240434331Y-111081680D01*
X240375803Y-111143920D01*
X240302867Y-111218087D01*
X240218473Y-111301008D01*
X240170234Y-111347421D01*
X240093962Y-111419708D01*
X240027205Y-111481624D01*
X239973546Y-111529911D01*
X239936570Y-111561307D01*
X239919863Y-111572554D01*
X239908385Y-111568384D01*
X239873045Y-111548663D01*
X239821723Y-111516410D01*
X239761113Y-111475711D01*
X239718020Y-111446011D01*
X239631987Y-111387030D01*
X239540179Y-111324390D01*
X239456323Y-111267469D01*
X239292053Y-111156359D01*
X239154160Y-111230916D01*
X239121690Y-111248125D01*
X239062642Y-111277560D01*
X239016979Y-111297883D01*
X238992574Y-111305460D01*
X238984588Y-111295730D01*
X238964756Y-111258679D01*
X238935462Y-111197593D01*
X238898338Y-111116349D01*
X238855013Y-111018823D01*
X238807118Y-110908891D01*
X238756281Y-110790432D01*
X238704133Y-110667321D01*
X238652304Y-110543435D01*
X238602424Y-110422650D01*
X238556123Y-110308844D01*
X238515031Y-110205893D01*
X238480778Y-110117673D01*
X238454993Y-110048062D01*
X238439308Y-110000936D01*
X238435351Y-109980172D01*
X238435619Y-109979565D01*
X238454050Y-109960370D01*
X238492602Y-109930306D01*
X238543316Y-109895609D01*
X238559324Y-109885014D01*
X238681125Y-109784498D01*
X238781929Y-109664777D01*
X238859351Y-109530834D01*
X238911004Y-109387653D01*
X238934500Y-109240216D01*
X238927454Y-109093507D01*
X238898910Y-108963020D01*
X238847659Y-108831257D01*
X238772945Y-108713706D01*
X238670414Y-108602042D01*
X238630127Y-108566369D01*
X238499889Y-108478480D01*
X238359197Y-108419288D01*
X238212127Y-108388265D01*
X238062758Y-108384879D01*
X237915167Y-108408602D01*
X237773429Y-108458904D01*
X237641623Y-108535255D01*
X237523826Y-108637125D01*
X237424114Y-108763984D01*
X237404943Y-108795400D01*
X237339783Y-108938992D01*
X237305177Y-109088517D01*
X237300218Y-109240105D01*
X237324001Y-109389882D01*
X237375619Y-109533976D01*
X237454166Y-109668515D01*
X237558736Y-109789625D01*
X237688422Y-109893434D01*
X237692634Y-109896232D01*
X237742810Y-109931590D01*
X237780417Y-109961653D01*
X237797594Y-109980172D01*
X237795426Y-109994690D01*
X237781951Y-110036965D01*
X237758058Y-110102486D01*
X237725375Y-110187377D01*
X237685533Y-110287759D01*
X237640160Y-110399757D01*
X237590887Y-110519491D01*
X237539341Y-110643084D01*
X237487154Y-110766659D01*
X237435953Y-110886339D01*
X237387368Y-110998245D01*
X237343030Y-111098500D01*
X237304566Y-111183227D01*
X237273606Y-111248547D01*
X237251779Y-111290584D01*
X237240716Y-111305460D01*
X237231516Y-111303446D01*
X237195371Y-111288966D01*
X237141951Y-111263578D01*
X237079131Y-111230916D01*
X236941238Y-111156359D01*
X236776968Y-111267469D01*
X236728436Y-111300370D01*
X236638166Y-111361845D01*
X236548171Y-111423418D01*
X236472177Y-111475711D01*
X236430237Y-111504209D01*
X236375726Y-111539616D01*
X236335309Y-111563855D01*
X236315568Y-111572842D01*
X236307087Y-111569026D01*
X236276429Y-111545656D01*
X236229168Y-111504510D01*
X236169416Y-111449635D01*
X236101288Y-111385077D01*
X236028896Y-111314885D01*
X235956356Y-111243106D01*
X235887780Y-111173786D01*
X235827282Y-111110973D01*
X235778976Y-111058714D01*
X235746976Y-111021057D01*
X235735395Y-111002048D01*
X235736063Y-110998431D01*
X235749847Y-110968993D01*
X235779292Y-110918062D01*
X235821553Y-110850238D01*
X235873785Y-110770123D01*
X235933142Y-110682315D01*
X235949789Y-110658096D01*
X236008244Y-110572868D01*
X236059733Y-110497521D01*
X236101256Y-110436463D01*
X236129811Y-110394104D01*
X236142398Y-110374852D01*
X236142707Y-110374027D01*
X236138993Y-110350473D01*
X236124807Y-110302759D01*
X236102451Y-110236879D01*
X236074227Y-110158830D01*
X236042435Y-110074607D01*
X236009378Y-109990205D01*
X235977356Y-109911621D01*
X235948671Y-109844850D01*
X235925623Y-109795886D01*
X235910515Y-109770727D01*
X235909002Y-109769165D01*
X235898185Y-109761263D01*
X235879915Y-109753294D01*
X235850556Y-109744441D01*
X235806470Y-109733887D01*
X235744018Y-109720815D01*
X235659564Y-109704408D01*
X235549469Y-109683848D01*
X235410095Y-109658319D01*
X235381187Y-109652946D01*
X235298377Y-109636337D01*
X235228718Y-109620600D01*
X235178812Y-109607298D01*
X235155259Y-109597993D01*
X235151319Y-109590230D01*
X235144750Y-109552942D01*
X235139544Y-109491125D01*
X235135706Y-109410572D01*
X235133239Y-109317075D01*
X235132147Y-109216426D01*
X235132435Y-109114417D01*
X235134107Y-109016839D01*
X235137165Y-108929485D01*
X235141615Y-108858147D01*
X235147460Y-108808617D01*
X235154704Y-108786686D01*
X235162101Y-108783446D01*
X235198896Y-108773233D01*
X235261091Y-108758789D01*
X235343723Y-108741189D01*
X235441828Y-108721510D01*
X235550444Y-108700830D01*
X235609750Y-108689781D01*
X235711398Y-108670621D01*
X235798890Y-108653844D01*
X235867549Y-108640361D01*
X235912693Y-108631084D01*
X235929644Y-108626926D01*
X235930281Y-108626069D01*
X235941077Y-108604293D01*
X235961657Y-108558671D01*
X235989449Y-108495258D01*
X236021882Y-108420107D01*
X236056382Y-108339270D01*
X236090378Y-108258799D01*
X236121297Y-108184749D01*
X236146566Y-108123172D01*
X236163615Y-108080121D01*
X236169869Y-108061650D01*
X236167110Y-108055150D01*
X236148750Y-108024222D01*
X236115446Y-107972163D01*
X236069874Y-107903059D01*
X236014711Y-107820993D01*
X235952632Y-107730052D01*
X235918573Y-107680248D01*
X235859797Y-107592931D01*
X235809403Y-107516298D01*
X235770080Y-107454531D01*
X235744514Y-107411806D01*
X235735395Y-107392305D01*
X235741732Y-107381727D01*
X235768237Y-107350119D01*
X235811720Y-107302283D01*
X235868189Y-107242273D01*
X235933653Y-107174142D01*
X236004121Y-107101945D01*
X236075601Y-107029733D01*
X236144100Y-106961562D01*
X236205629Y-106901483D01*
X236256194Y-106853551D01*
X236291805Y-106821820D01*
X236308470Y-106810342D01*
X236317720Y-106814805D01*
X236351689Y-106835502D01*
X236406505Y-106870727D01*
X236478218Y-106917896D01*
X236562878Y-106974431D01*
X236656535Y-107037748D01*
X236990959Y-107265154D01*
X237548487Y-107035322D01*
X237624036Y-106634576D01*
X237699585Y-106233829D01*
X238533706Y-106233829D01*
X238609254Y-106634576D01*
G37*
D11*
X61234000Y-109787750D02*
X54534000Y-109777750D01*
D15*
X251971000Y-111082000D02*
X251971000Y-109282000D01*
X251971000Y-109282000D02*
X248971000Y-109282000D01*
X248971000Y-111082000D02*
X251971000Y-111082000D01*
X248971000Y-109282000D02*
X248971000Y-111082000D01*
X247312421Y-110182000D02*
G75*
G03*
X247312421Y-110182000I-141421J0D01*
G01*
X247212421Y-110482000D02*
G75*
G03*
X247212421Y-110482000I-141421J0D01*
G01*
X247212421Y-109882000D02*
G75*
G03*
X247212421Y-109882000I-141421J0D01*
G01*
X247012421Y-110682000D02*
G75*
G03*
X247012421Y-110682000I-141421J0D01*
G01*
X247012421Y-109682000D02*
G75*
G03*
X247012421Y-109682000I-141421J0D01*
G01*
X246712421Y-110782000D02*
G75*
G03*
X246712421Y-110782000I-141421J0D01*
G01*
D16*
X246794607Y-110182000D02*
G75*
G03*
X246794607Y-110182000I-223607J0D01*
G01*
D17*
X247332577Y-110182000D02*
G75*
G03*
X247332577Y-110182000I-761577J0D01*
G01*
D15*
X246712421Y-109582000D02*
G75*
G03*
X246712421Y-109582000I-141421J0D01*
G01*
X246412421Y-110682000D02*
G75*
G03*
X246412421Y-110682000I-141421J0D01*
G01*
X246412421Y-109682000D02*
G75*
G03*
X246412421Y-109682000I-141421J0D01*
G01*
X246212421Y-110482000D02*
G75*
G03*
X246212421Y-110482000I-141421J0D01*
G01*
X246212421Y-109882000D02*
G75*
G03*
X246212421Y-109882000I-141421J0D01*
G01*
X246112421Y-110182000D02*
G75*
G03*
X246112421Y-110182000I-141421J0D01*
G01*
D18*
X251971000Y-111082000D02*
X248971000Y-111082000D01*
X248971000Y-110582000D01*
X251971000Y-110582000D01*
X251971000Y-111082000D01*
G36*
X251971000Y-111082000D02*
G01*
X248971000Y-111082000D01*
X248971000Y-110582000D01*
X251971000Y-110582000D01*
X251971000Y-111082000D01*
G37*
X257471000Y-110682000D02*
X257471000Y-111082000D01*
X256671000Y-111082000D01*
X256671000Y-110682000D01*
X256971000Y-109782000D01*
X257171000Y-109782000D01*
X257471000Y-110682000D01*
G36*
X257471000Y-110682000D02*
G01*
X257471000Y-111082000D01*
X256671000Y-111082000D01*
X256671000Y-110682000D01*
X256971000Y-109782000D01*
X257171000Y-109782000D01*
X257471000Y-110682000D01*
G37*
D15*
X246571000Y-109382000D02*
X246271000Y-109382000D01*
X245971000Y-109582000D01*
X245771000Y-109982000D01*
X245771000Y-110382000D01*
X245971000Y-110782000D01*
X246371000Y-110982000D01*
X246571000Y-110982000D01*
X246571000Y-111082000D01*
X245071000Y-111082000D01*
X245071000Y-109282000D01*
X246571000Y-109282000D01*
X246571000Y-109382000D01*
G36*
X246571000Y-109382000D02*
G01*
X246271000Y-109382000D01*
X245971000Y-109582000D01*
X245771000Y-109982000D01*
X245771000Y-110382000D01*
X245971000Y-110782000D01*
X246371000Y-110982000D01*
X246571000Y-110982000D01*
X246571000Y-111082000D01*
X245071000Y-111082000D01*
X245071000Y-109282000D01*
X246571000Y-109282000D01*
X246571000Y-109382000D01*
G37*
X248071000Y-111082000D02*
X246571000Y-111082000D01*
X246571000Y-110982000D01*
X246871000Y-110982000D01*
X247171000Y-110782000D01*
X247371000Y-110382000D01*
X247371000Y-109982000D01*
X247171000Y-109582000D01*
X246771000Y-109382000D01*
X246571000Y-109382000D01*
X246571000Y-109282000D01*
X248071000Y-109282000D01*
X248071000Y-111082000D01*
G36*
X248071000Y-111082000D02*
G01*
X246571000Y-111082000D01*
X246571000Y-110982000D01*
X246871000Y-110982000D01*
X247171000Y-110782000D01*
X247371000Y-110382000D01*
X247371000Y-109982000D01*
X247171000Y-109582000D01*
X246771000Y-109382000D01*
X246571000Y-109382000D01*
X246571000Y-109282000D01*
X248071000Y-109282000D01*
X248071000Y-111082000D01*
G37*
D19*
X144065746Y-94059454D03*
X144065746Y-96559454D03*
X144065746Y-88701637D03*
X144065746Y-91201637D03*
D20*
X159543884Y-63698491D03*
D21*
X157003884Y-63698491D03*
D22*
X154781380Y-69056308D03*
D23*
X154781380Y-71596308D03*
X154781380Y-74136308D03*
X154781380Y-76676308D03*
X154781380Y-79216308D03*
X154781380Y-81756308D03*
X154781380Y-84296308D03*
X154781380Y-86836308D03*
X154781380Y-89376308D03*
X154781380Y-91916308D03*
X154781380Y-94456308D03*
X154781380Y-96996308D03*
X154781380Y-99536308D03*
X154781380Y-102076308D03*
X162401380Y-102076308D03*
X162401380Y-99536308D03*
X162401380Y-96996308D03*
X162401380Y-94456308D03*
X162401380Y-91916308D03*
X162401380Y-89376308D03*
X162401380Y-86836308D03*
X162401380Y-84296308D03*
X162401380Y-81756308D03*
X162401380Y-79216308D03*
X162401380Y-76676308D03*
X162401380Y-74136308D03*
X162401380Y-71596308D03*
X162401380Y-69056308D03*
D24*
X140493868Y-113546035D03*
X140493868Y-118626035D03*
D22*
X133945000Y-91675000D03*
D23*
X126325000Y-91675000D03*
D22*
X136326677Y-118467287D03*
D23*
X128706677Y-118467287D03*
D22*
X150614189Y-134540738D03*
D23*
X150614189Y-142160738D03*
D22*
X147637624Y-136921990D03*
D23*
X147637624Y-144541990D03*
D22*
X144661059Y-134540738D03*
D23*
X144661059Y-142160738D03*
D22*
X138707929Y-134540738D03*
D23*
X138707929Y-142160738D03*
D25*
X147042311Y-127992295D03*
D26*
X145542311Y-127992295D03*
D22*
X136326677Y-76795377D03*
D23*
X128706677Y-76795377D03*
D27*
X144065746Y-107156340D03*
X144065746Y-100656340D03*
X148565746Y-107156340D03*
X148565746Y-100656340D03*
D28*
X128587608Y-59531300D03*
X176212648Y-59531300D03*
X128587608Y-144661059D03*
X176212648Y-144661059D03*
D29*
X13096886Y-111323531D03*
X291703370Y-111323531D03*
D22*
X166092327Y-134540738D03*
D23*
X166092327Y-142160738D03*
D20*
X147796372Y-63698491D03*
D21*
X145256372Y-63698491D03*
D22*
X136335000Y-130375000D03*
D23*
X128715000Y-130375000D03*
D22*
X136310000Y-124500000D03*
D23*
X128690000Y-124500000D03*
D22*
X133945425Y-115490722D03*
D23*
X126325425Y-115490722D03*
D22*
X136326677Y-112514157D03*
D23*
X128706677Y-112514157D03*
D22*
X133945425Y-109537592D03*
D23*
X126325425Y-109537592D03*
D22*
X133945425Y-121443852D03*
D23*
X126325425Y-121443852D03*
D22*
X136326677Y-94654767D03*
D23*
X128706677Y-94654767D03*
D22*
X133935000Y-97625000D03*
D23*
X126315000Y-97625000D03*
D22*
X133945425Y-103584462D03*
D23*
X126325425Y-103584462D03*
D22*
X136350000Y-82750000D03*
D23*
X128730000Y-82750000D03*
D22*
X133950000Y-85750000D03*
D23*
X126330000Y-85750000D03*
D22*
X136326677Y-88701637D03*
D23*
X128706677Y-88701637D03*
D22*
X168473579Y-76795377D03*
D23*
X176093579Y-76795377D03*
D22*
X133945425Y-73818812D03*
D23*
X126325425Y-73818812D03*
D22*
X170854831Y-73818812D03*
D23*
X178474831Y-73818812D03*
D22*
X133945425Y-67865682D03*
D23*
X126325425Y-67865682D03*
D22*
X163115762Y-136921990D03*
D23*
X163115762Y-144541990D03*
D27*
X144065746Y-75604751D03*
X144065746Y-69104751D03*
X148565746Y-75604751D03*
X148565746Y-69104751D03*
D19*
X155734510Y-126801669D03*
X160734510Y-126801669D03*
D22*
X135731364Y-136921990D03*
D23*
X135731364Y-144541990D03*
D22*
X170854831Y-115490722D03*
D23*
X178474831Y-115490722D03*
D22*
X169068892Y-136921990D03*
D23*
X169068892Y-144541990D03*
D22*
X170854831Y-79771942D03*
D23*
X178474831Y-79771942D03*
D22*
X168473579Y-64889117D03*
D23*
X176093579Y-64889117D03*
D22*
X170854831Y-67865682D03*
D23*
X178474831Y-67865682D03*
D22*
X168473579Y-82748507D03*
D23*
X176093579Y-82748507D03*
D22*
X170854831Y-97631332D03*
D23*
X178474831Y-97631332D03*
D22*
X170854831Y-91678202D03*
D23*
X178474831Y-91678202D03*
D22*
X168473579Y-94654767D03*
D23*
X176093579Y-94654767D03*
D22*
X168473579Y-106561027D03*
D23*
X176093579Y-106561027D03*
D22*
X170854831Y-103584462D03*
D23*
X178474831Y-103584462D03*
D22*
X168473579Y-100607897D03*
D23*
X176093579Y-100607897D03*
D22*
X170854831Y-85725072D03*
D23*
X178474831Y-85725072D03*
D22*
X168473579Y-112514157D03*
D23*
X176093579Y-112514157D03*
D22*
X170854831Y-109537592D03*
D23*
X178474831Y-109537592D03*
D22*
X168473579Y-118467287D03*
D23*
X176093579Y-118467287D03*
D22*
X168473579Y-88701637D03*
D23*
X176093579Y-88701637D03*
D22*
X168473579Y-70842247D03*
D23*
X176093579Y-70842247D03*
D22*
X170854831Y-133350112D03*
D23*
X178474831Y-133350112D03*
D22*
X168473579Y-124420417D03*
D23*
X176093579Y-124420417D03*
D22*
X154186067Y-134540738D03*
D23*
X154186067Y-142160738D03*
D22*
X170854831Y-121443852D03*
D23*
X178474831Y-121443852D03*
D22*
X170854831Y-127396982D03*
D23*
X178474831Y-127396982D03*
D22*
X168473579Y-130373547D03*
D23*
X176093579Y-130373547D03*
D22*
X157162632Y-136921990D03*
D23*
X157162632Y-144541990D03*
D30*
X188087168Y-132238868D03*
D31*
X188087168Y-147478868D03*
D30*
X200025168Y-140493868D03*
X211963168Y-132238868D03*
D31*
X211963168Y-147478868D03*
D32*
X202565168Y-135413868D03*
X196215168Y-137953868D03*
D30*
X92837088Y-132238868D03*
D31*
X92837088Y-147478868D03*
D30*
X104775088Y-140493868D03*
X116713088Y-132238868D03*
D31*
X116713088Y-147478868D03*
D32*
X107315088Y-135413868D03*
X100965088Y-137953868D03*
D19*
X155734510Y-129778234D03*
X160734510Y-129778234D03*
D33*
X144065746Y-82748507D03*
D34*
X144065746Y-80208507D03*
X146605746Y-82748507D03*
X146605746Y-80208507D03*
X149145746Y-82748507D03*
X149145746Y-80208507D03*
D28*
X138112616Y-102393836D03*
D22*
X160139197Y-134540738D03*
D23*
X160139197Y-142160738D03*
D22*
X133960000Y-133350000D03*
D23*
X126340000Y-133350000D03*
D22*
X136326677Y-106561027D03*
D23*
X128706677Y-106561027D03*
D22*
X133945425Y-100607897D03*
D23*
X126325425Y-100607897D03*
D22*
X133945425Y-79771942D03*
D23*
X126325425Y-79771942D03*
D35*
X162401380Y-106561027D03*
D36*
X154781380Y-106561027D03*
D37*
X148828250Y-89892263D03*
X148828250Y-94772263D03*
D22*
X133910000Y-127400000D03*
D23*
X126290000Y-127400000D03*
D35*
X154781380Y-113704783D03*
D36*
X162401380Y-113704783D03*
D35*
X150018876Y-58340674D03*
D36*
X142398876Y-58340674D03*
D35*
X162401380Y-58340674D03*
D36*
X154781380Y-58340674D03*
D35*
X154781380Y-111323531D03*
D36*
X162401380Y-111323531D03*
D22*
X154900449Y-121443852D03*
D23*
X162520449Y-121443852D03*
D22*
X154900449Y-118467287D03*
D23*
X162520449Y-118467287D03*
D35*
X15478138Y-73818812D03*
D36*
X23098138Y-73818812D03*
D35*
X41671910Y-73818812D03*
D36*
X34051910Y-73818812D03*
D35*
X154781380Y-108942279D03*
D36*
X162401380Y-108942279D03*
D22*
X136326677Y-64889117D03*
D23*
X128706677Y-64889117D03*
D22*
X136326677Y-70842247D03*
D23*
X128706677Y-70842247D03*
D22*
X141684494Y-136921990D03*
D23*
X141684494Y-144541990D03*
D38*
X13970016Y-83343820D03*
D30*
X19050016Y-83343820D03*
D38*
X24130016Y-83343820D03*
D32*
X21590016Y-78263820D03*
X15240016Y-80803820D03*
D38*
X13970016Y-102393836D03*
D30*
X19050016Y-102393836D03*
D38*
X24130016Y-102393836D03*
D32*
X21590016Y-97313836D03*
X15240016Y-99853836D03*
D38*
X13970016Y-121443852D03*
D30*
X19050016Y-121443852D03*
D38*
X24130016Y-121443852D03*
D32*
X21590016Y-116363852D03*
X15240016Y-118903852D03*
D38*
X13970016Y-140493868D03*
D30*
X19050016Y-140493868D03*
D38*
X24130016Y-140493868D03*
D32*
X21590016Y-135413868D03*
X15240016Y-137953868D03*
D38*
X33020032Y-140493868D03*
D30*
X38100032Y-140493868D03*
D38*
X43180032Y-140493868D03*
D32*
X40640032Y-135413868D03*
X34290032Y-137953868D03*
D38*
X33020032Y-64293804D03*
D30*
X38100032Y-64293804D03*
D38*
X43180032Y-64293804D03*
D32*
X40640032Y-59213804D03*
X34290032Y-61753804D03*
D38*
X33020032Y-83343820D03*
X43180032Y-83343820D03*
D32*
X35560032Y-88423820D03*
X40640032Y-78263820D03*
X34290032Y-80803820D03*
X41910032Y-85883820D03*
D38*
X33020032Y-102393836D03*
D30*
X38100032Y-102393836D03*
D38*
X43180032Y-102393836D03*
D32*
X40640032Y-97313836D03*
X34290032Y-99853836D03*
D38*
X33020032Y-121443852D03*
D30*
X38100032Y-121443852D03*
D38*
X43180032Y-121443852D03*
D32*
X40640032Y-116363852D03*
X34290032Y-118903852D03*
D38*
X52070048Y-121443852D03*
D30*
X57150048Y-121443852D03*
D38*
X62230048Y-121443852D03*
D32*
X59690048Y-116363852D03*
X53340048Y-118903852D03*
D38*
X52070048Y-140493868D03*
D30*
X57150048Y-140493868D03*
D38*
X62230048Y-140493868D03*
D32*
X59690048Y-135413868D03*
X53340048Y-137953868D03*
D38*
X52070048Y-102393836D03*
D30*
X57150048Y-102393836D03*
D38*
X62230048Y-102393836D03*
D32*
X59690048Y-97313836D03*
X53340048Y-99853836D03*
D38*
X71120064Y-102393836D03*
D30*
X76200064Y-102393836D03*
D38*
X81280064Y-102393836D03*
D32*
X78740064Y-97313836D03*
X72390064Y-99853836D03*
D38*
X71120064Y-121443852D03*
D30*
X76200064Y-121443852D03*
D38*
X81280064Y-121443852D03*
D32*
X78740064Y-116363852D03*
X72390064Y-118903852D03*
D38*
X71120064Y-140493868D03*
D30*
X76200064Y-140493868D03*
D38*
X81280064Y-140493868D03*
D32*
X78740064Y-135413868D03*
X72390064Y-137953868D03*
D38*
X71120064Y-64293804D03*
D30*
X76200064Y-64293804D03*
D38*
X81280064Y-64293804D03*
D32*
X78740064Y-59213804D03*
X72390064Y-61753804D03*
D38*
X71120064Y-83343820D03*
D30*
X76200064Y-83343820D03*
D38*
X81280064Y-83343820D03*
D32*
X78740064Y-78263820D03*
X72390064Y-80803820D03*
D38*
X90170080Y-83343820D03*
D30*
X95250080Y-83343820D03*
D38*
X100330080Y-83343820D03*
D32*
X97790080Y-78263820D03*
X91440080Y-80803820D03*
D38*
X90170080Y-102393836D03*
D30*
X95250080Y-102393836D03*
D38*
X100330080Y-102393836D03*
D32*
X97790080Y-97313836D03*
X91440080Y-99853836D03*
D38*
X90170080Y-121443852D03*
D30*
X95250080Y-121443852D03*
D38*
X100330080Y-121443852D03*
D32*
X97790080Y-116363852D03*
X91440080Y-118903852D03*
D38*
X90170080Y-140493868D03*
D30*
X95250080Y-140493868D03*
D38*
X100330080Y-140493868D03*
D32*
X97790080Y-135413868D03*
X91440080Y-137953868D03*
D38*
X90170080Y-64293804D03*
D30*
X95250080Y-64293804D03*
D38*
X100330080Y-64293804D03*
D32*
X97790080Y-59213804D03*
X91440080Y-61753804D03*
D38*
X109220096Y-64293804D03*
D30*
X114300096Y-64293804D03*
D38*
X119380096Y-64293804D03*
D32*
X116840096Y-59213804D03*
X110490096Y-61753804D03*
D38*
X109220096Y-83343820D03*
D30*
X114300096Y-83343820D03*
D38*
X119380096Y-83343820D03*
D32*
X116840096Y-78263820D03*
X110490096Y-80803820D03*
D38*
X109220096Y-102393836D03*
D30*
X114300096Y-102393836D03*
D38*
X119380096Y-102393836D03*
D32*
X116840096Y-97313836D03*
X110490096Y-99853836D03*
D38*
X109220096Y-121443852D03*
D30*
X114300096Y-121443852D03*
D38*
X119380096Y-121443852D03*
D32*
X116840096Y-116363852D03*
X110490096Y-118903852D03*
D38*
X109220096Y-140493868D03*
D30*
X114300096Y-140493868D03*
D38*
X119380096Y-140493868D03*
D32*
X116840096Y-135413868D03*
X110490096Y-137953868D03*
D38*
X280670240Y-64293804D03*
D30*
X285750240Y-64293804D03*
D38*
X290830240Y-64293804D03*
D32*
X288290240Y-59213804D03*
X281940240Y-61753804D03*
D38*
X280670240Y-83343820D03*
D30*
X285750240Y-83343820D03*
D38*
X290830240Y-83343820D03*
D32*
X288290240Y-78263820D03*
X281940240Y-80803820D03*
D38*
X280670240Y-102393836D03*
D30*
X285750240Y-102393836D03*
D38*
X290830240Y-102393836D03*
D32*
X288290240Y-97313836D03*
X281940240Y-99853836D03*
D38*
X280670240Y-121443852D03*
D30*
X285750240Y-121443852D03*
D38*
X290830240Y-121443852D03*
D32*
X288290240Y-116363852D03*
X281940240Y-118903852D03*
D38*
X280670240Y-140493868D03*
D30*
X285750240Y-140493868D03*
D38*
X290830240Y-140493868D03*
D32*
X288290240Y-135413868D03*
X281940240Y-137953868D03*
D38*
X261620224Y-140493868D03*
D30*
X266700224Y-140493868D03*
D38*
X271780224Y-140493868D03*
D32*
X269240224Y-135413868D03*
X262890224Y-137953868D03*
D38*
X261620224Y-64293804D03*
D30*
X266700224Y-64293804D03*
D38*
X271780224Y-64293804D03*
D32*
X269240224Y-59213804D03*
X262890224Y-61753804D03*
D38*
X261620224Y-83343820D03*
D30*
X266700224Y-83343820D03*
D38*
X271780224Y-83343820D03*
D32*
X269240224Y-78263820D03*
X262890224Y-80803820D03*
D38*
X261620224Y-102393836D03*
D30*
X266700224Y-102393836D03*
D38*
X271780224Y-102393836D03*
D32*
X269240224Y-97313836D03*
X262890224Y-99853836D03*
D38*
X261620224Y-121443852D03*
D30*
X266700224Y-121443852D03*
D38*
X271780224Y-121443852D03*
D32*
X269240224Y-116363852D03*
X262890224Y-118903852D03*
D38*
X242570208Y-121443852D03*
D30*
X247650208Y-121443852D03*
D38*
X252730208Y-121443852D03*
D32*
X250190208Y-116363852D03*
X243840208Y-118903852D03*
D38*
X242570208Y-140493868D03*
D30*
X247650208Y-140493868D03*
D38*
X252730208Y-140493868D03*
D32*
X250190208Y-135413868D03*
X243840208Y-137953868D03*
D38*
X242570208Y-64293804D03*
D30*
X247650208Y-64293804D03*
D38*
X252730208Y-64293804D03*
D32*
X250190208Y-59213804D03*
X243840208Y-61753804D03*
D38*
X242570208Y-83343820D03*
D30*
X247650208Y-83343820D03*
D38*
X252730208Y-83343820D03*
D32*
X250190208Y-78263820D03*
X243840208Y-80803820D03*
D38*
X242570208Y-102393836D03*
D30*
X247650208Y-102393836D03*
D38*
X252730208Y-102393836D03*
D32*
X250190208Y-97313836D03*
X243840208Y-99853836D03*
D38*
X223520192Y-102393836D03*
D30*
X228600192Y-102393836D03*
D38*
X233680192Y-102393836D03*
D32*
X231140192Y-97313836D03*
X224790192Y-99853836D03*
D38*
X223520192Y-121443852D03*
D30*
X228600192Y-121443852D03*
D38*
X233680192Y-121443852D03*
D32*
X231140192Y-116363852D03*
X224790192Y-118903852D03*
D38*
X223520192Y-140493868D03*
D30*
X228600192Y-140493868D03*
D38*
X233680192Y-140493868D03*
D32*
X231140192Y-135413868D03*
X224790192Y-137953868D03*
D38*
X223520192Y-64293804D03*
D30*
X228600192Y-64293804D03*
D38*
X233680192Y-64293804D03*
D32*
X231140192Y-59213804D03*
X224790192Y-61753804D03*
D38*
X223520192Y-83343820D03*
D30*
X228600192Y-83343820D03*
D38*
X233680192Y-83343820D03*
D32*
X231140192Y-78263820D03*
X224790192Y-80803820D03*
D38*
X204470176Y-83343820D03*
D30*
X209550176Y-83343820D03*
D38*
X214630176Y-83343820D03*
D32*
X212090176Y-78263820D03*
X205740176Y-80803820D03*
D38*
X204470176Y-102393836D03*
D30*
X209550176Y-102393836D03*
D38*
X214630176Y-102393836D03*
D32*
X212090176Y-97313836D03*
X205740176Y-99853836D03*
D38*
X204470176Y-121443852D03*
D30*
X209550176Y-121443852D03*
D38*
X214630176Y-121443852D03*
D32*
X212090176Y-116363852D03*
X205740176Y-118903852D03*
D38*
X204470176Y-140493868D03*
D30*
X209550176Y-140493868D03*
D38*
X214630176Y-140493868D03*
D32*
X212090176Y-135413868D03*
X205740176Y-137953868D03*
D38*
X204470176Y-64293804D03*
D30*
X209550176Y-64293804D03*
D38*
X214630176Y-64293804D03*
D32*
X212090176Y-59213804D03*
X205740176Y-61753804D03*
D38*
X185420160Y-64293804D03*
D30*
X190500160Y-64293804D03*
D38*
X195580160Y-64293804D03*
D32*
X193040160Y-59213804D03*
X186690160Y-61753804D03*
D38*
X185420160Y-83343820D03*
D30*
X190500160Y-83343820D03*
D38*
X195580160Y-83343820D03*
D32*
X193040160Y-78263820D03*
X186690160Y-80803820D03*
D38*
X185420160Y-102393836D03*
D30*
X190500160Y-102393836D03*
D38*
X195580160Y-102393836D03*
D32*
X193040160Y-97313836D03*
X186690160Y-99853836D03*
D38*
X185420160Y-121443852D03*
D30*
X190500160Y-121443852D03*
D38*
X195580160Y-121443852D03*
D32*
X193040160Y-116363852D03*
X186690160Y-118903852D03*
D38*
X185420160Y-140493868D03*
D30*
X190500160Y-140493868D03*
D38*
X195580160Y-140493868D03*
D32*
X193040160Y-135413868D03*
X186690160Y-137953868D03*
D38*
X52070048Y-64293804D03*
D30*
X57150048Y-64293804D03*
D38*
X62230048Y-64293804D03*
D32*
X59690048Y-59213804D03*
X53340048Y-61753804D03*
D38*
X52070048Y-83343820D03*
D30*
X57150048Y-83343820D03*
D38*
X62230048Y-83343820D03*
D32*
X59690048Y-78263820D03*
X53340048Y-80803820D03*
D28*
X28575024Y-130968860D03*
X276225232Y-73818812D03*
X276225232Y-130968860D03*
X28575024Y-73818812D03*
D38*
X13969968Y-64293750D03*
D30*
X19049968Y-64293750D03*
D38*
X24129968Y-64293750D03*
D32*
X21589968Y-59213750D03*
X15239968Y-61753750D03*
D39*
X25177000Y-61068000D03*
X30957000Y-61068000D03*
D40*
X24817000Y-62394000D03*
X25617000Y-62394000D03*
D41*
X26817000Y-62394000D03*
X27813000Y-62394000D03*
X28317000Y-62394000D03*
X29317000Y-62394000D03*
D40*
X31317000Y-62394000D03*
X30517000Y-62394000D03*
D41*
X29817000Y-62394000D03*
X28817000Y-62394000D03*
X27317000Y-62394000D03*
X26317000Y-62394000D03*
D42*
X23767000Y-57419000D03*
D43*
X23767000Y-61619000D03*
D42*
X32367000Y-57419000D03*
D43*
X32367000Y-61619000D03*
D44*
X49690000Y-72310000D03*
X49690000Y-73310000D03*
X49690000Y-74310000D03*
X49690000Y-75310000D03*
D45*
X53565000Y-71010000D03*
X53565000Y-76610000D03*
D46*
X85696659Y-76075000D03*
X85696659Y-74575001D03*
X85696659Y-73074999D03*
X85696659Y-71574999D03*
D47*
X67627000Y-70815000D03*
D48*
X63627000Y-71965000D03*
X63627000Y-73165000D03*
X63627000Y-74365000D03*
X63627000Y-75565000D03*
D47*
X67627000Y-76715000D03*
M02*
