G04 #@! TF.GenerationSoftware,KiCad,Pcbnew,(6.0.7-1)-1*
G04 #@! TF.CreationDate,2023-04-12T18:45:54+02:00*
G04 #@! TF.ProjectId,lumberjack,6c756d62-6572-46a6-9163-6b2e6b696361,1.7*
G04 #@! TF.SameCoordinates,Original*
G04 #@! TF.FileFunction,Soldermask,Top*
G04 #@! TF.FilePolarity,Negative*
%FSLAX46Y46*%
G04 Gerber Fmt 4.6, Leading zero omitted, Abs format (unit mm)*
G04 Created by KiCad (PCBNEW (6.0.7-1)-1) date 2023-04-12 18:45:54*
%MOMM*%
%LPD*%
G01*
G04 APERTURE LIST*
G04 Aperture macros list*
%AMHorizOval*
0 Thick line with rounded ends*
0 $1 width*
0 $2 $3 position (X,Y) of the first rounded end (center of the circle)*
0 $4 $5 position (X,Y) of the second rounded end (center of the circle)*
0 Add line between two ends*
20,1,$1,$2,$3,$4,$5,0*
0 Add two circle primitives to create the rounded ends*
1,1,$1,$2,$3*
1,1,$1,$4,$5*%
G04 Aperture macros list end*
%ADD10C,1.600000*%
%ADD11R,1.800000X1.800000*%
%ADD12C,1.800000*%
%ADD13R,1.600000X1.600000*%
%ADD14O,1.600000X1.600000*%
%ADD15C,1.710000*%
%ADD16R,1.200000X1.200000*%
%ADD17C,1.200000*%
%ADD18C,2.000000*%
%ADD19C,5.000000*%
%ADD20O,11.600000X5.000000*%
%ADD21C,3.048000*%
%ADD22C,3.987800*%
%ADD23C,2.286000*%
%ADD24R,1.700000X1.700000*%
%ADD25O,1.700000X1.700000*%
%ADD26C,1.400000*%
%ADD27O,1.400000X1.400000*%
%ADD28C,1.500000*%
%ADD29C,1.700000*%
%ADD30C,1.750000*%
%ADD31HorizOval,2.250000X0.019771X0.290016X-0.019771X-0.290016X0*%
%ADD32C,2.250000*%
%ADD33HorizOval,2.250000X0.654995X0.730004X-0.654995X-0.730004X0*%
%ADD34HorizOval,2.250000X-0.019771X-0.290016X0.019771X0.290016X0*%
%ADD35HorizOval,2.250000X-0.654995X-0.730004X0.654995X0.730004X0*%
%ADD36C,0.650000*%
%ADD37O,1.100000X2.200000*%
%ADD38O,1.300000X1.900000*%
%ADD39C,1.244600*%
G04 APERTURE END LIST*
D10*
X144065746Y-94059454D03*
X144065746Y-96559454D03*
X144065746Y-88701637D03*
X144065746Y-91201637D03*
D11*
X159543884Y-63698491D03*
D12*
X157003884Y-63698491D03*
D13*
X154781380Y-69056308D03*
D14*
X154781380Y-71596308D03*
X154781380Y-74136308D03*
X154781380Y-76676308D03*
X154781380Y-79216308D03*
X154781380Y-81756308D03*
X154781380Y-84296308D03*
X154781380Y-86836308D03*
X154781380Y-89376308D03*
X154781380Y-91916308D03*
X154781380Y-94456308D03*
X154781380Y-96996308D03*
X154781380Y-99536308D03*
X154781380Y-102076308D03*
X162401380Y-102076308D03*
X162401380Y-99536308D03*
X162401380Y-96996308D03*
X162401380Y-94456308D03*
X162401380Y-91916308D03*
X162401380Y-89376308D03*
X162401380Y-86836308D03*
X162401380Y-84296308D03*
X162401380Y-81756308D03*
X162401380Y-79216308D03*
X162401380Y-76676308D03*
X162401380Y-74136308D03*
X162401380Y-71596308D03*
X162401380Y-69056308D03*
D15*
X140493868Y-113546035D03*
X140493868Y-118626035D03*
D13*
X136326677Y-82748507D03*
D14*
X128706677Y-82748507D03*
D13*
X136326677Y-118467287D03*
D14*
X128706677Y-118467287D03*
D13*
X150614189Y-134540738D03*
D14*
X150614189Y-142160738D03*
D13*
X147637624Y-136921990D03*
D14*
X147637624Y-144541990D03*
D13*
X144661059Y-134540738D03*
D14*
X144661059Y-142160738D03*
D13*
X138707929Y-134540738D03*
D14*
X138707929Y-142160738D03*
D16*
X147042311Y-127992295D03*
D17*
X145542311Y-127992295D03*
D13*
X136326677Y-76795377D03*
D14*
X128706677Y-76795377D03*
D18*
X144065746Y-100656340D03*
X144065746Y-107156340D03*
X148565746Y-107156340D03*
X148565746Y-100656340D03*
D19*
X128587608Y-59531300D03*
X176212648Y-59531300D03*
X128587608Y-144661059D03*
X176212648Y-144661059D03*
D20*
X13096886Y-111323531D03*
X291703370Y-111323531D03*
D13*
X166092327Y-134540738D03*
D14*
X166092327Y-142160738D03*
D11*
X147796372Y-63698491D03*
D12*
X145256372Y-63698491D03*
D13*
X136326677Y-130373547D03*
D14*
X128706677Y-130373547D03*
D13*
X136326677Y-124420417D03*
D14*
X128706677Y-124420417D03*
D13*
X133945425Y-115490722D03*
D14*
X126325425Y-115490722D03*
D13*
X136326677Y-112514157D03*
D14*
X128706677Y-112514157D03*
D13*
X133945425Y-109537592D03*
D14*
X126325425Y-109537592D03*
D13*
X133945425Y-121443852D03*
D14*
X126325425Y-121443852D03*
D13*
X133945425Y-97631332D03*
D14*
X126325425Y-97631332D03*
D13*
X136326677Y-94654767D03*
D14*
X128706677Y-94654767D03*
D13*
X133945425Y-103584462D03*
D14*
X126325425Y-103584462D03*
D13*
X133945425Y-91678202D03*
D14*
X126325425Y-91678202D03*
D13*
X136326677Y-88701637D03*
D14*
X128706677Y-88701637D03*
D13*
X133945425Y-85725072D03*
D14*
X126325425Y-85725072D03*
D13*
X168473579Y-76795377D03*
D14*
X176093579Y-76795377D03*
D13*
X133945425Y-73818812D03*
D14*
X126325425Y-73818812D03*
D13*
X170854831Y-73818812D03*
D14*
X178474831Y-73818812D03*
D13*
X133945425Y-67865682D03*
D14*
X126325425Y-67865682D03*
D13*
X163115762Y-136921990D03*
D14*
X163115762Y-144541990D03*
D18*
X144065746Y-75604751D03*
X144065746Y-69104751D03*
X148565746Y-75604751D03*
X148565746Y-69104751D03*
D10*
X155734510Y-126801669D03*
X160734510Y-126801669D03*
D13*
X135731364Y-136921990D03*
D14*
X135731364Y-144541990D03*
D13*
X170854831Y-115490722D03*
D14*
X178474831Y-115490722D03*
D13*
X169068892Y-136921990D03*
D14*
X169068892Y-144541990D03*
D13*
X170854831Y-79771942D03*
D14*
X178474831Y-79771942D03*
D13*
X168473579Y-64889117D03*
D14*
X176093579Y-64889117D03*
D13*
X170854831Y-67865682D03*
D14*
X178474831Y-67865682D03*
D13*
X168473579Y-82748507D03*
D14*
X176093579Y-82748507D03*
D13*
X170854831Y-97631332D03*
D14*
X178474831Y-97631332D03*
D13*
X170854831Y-91678202D03*
D14*
X178474831Y-91678202D03*
D13*
X168473579Y-94654767D03*
D14*
X176093579Y-94654767D03*
D13*
X168473579Y-106561027D03*
D14*
X176093579Y-106561027D03*
D13*
X170854831Y-103584462D03*
D14*
X178474831Y-103584462D03*
D13*
X168473579Y-100607897D03*
D14*
X176093579Y-100607897D03*
D13*
X170854831Y-85725072D03*
D14*
X178474831Y-85725072D03*
D13*
X168473579Y-112514157D03*
D14*
X176093579Y-112514157D03*
D13*
X170854831Y-109537592D03*
D14*
X178474831Y-109537592D03*
D13*
X168473579Y-118467287D03*
D14*
X176093579Y-118467287D03*
D13*
X168473579Y-88701637D03*
D14*
X176093579Y-88701637D03*
D13*
X168473579Y-70842247D03*
D14*
X176093579Y-70842247D03*
D13*
X170854831Y-133350112D03*
D14*
X178474831Y-133350112D03*
D13*
X168473579Y-124420417D03*
D14*
X176093579Y-124420417D03*
D13*
X154186067Y-134540738D03*
D14*
X154186067Y-142160738D03*
D13*
X170854831Y-121443852D03*
D14*
X178474831Y-121443852D03*
D13*
X170854831Y-127396982D03*
D14*
X178474831Y-127396982D03*
D13*
X168473579Y-130373547D03*
D14*
X176093579Y-130373547D03*
D13*
X157162632Y-136921990D03*
D14*
X157162632Y-144541990D03*
D21*
X211963168Y-147478868D03*
X188087168Y-147478868D03*
D22*
X200025168Y-140493868D03*
X188087168Y-132238868D03*
X211963168Y-132238868D03*
D23*
X202565168Y-135413868D03*
X196215168Y-137953868D03*
D21*
X92837088Y-147478868D03*
D22*
X92837088Y-132238868D03*
X104775088Y-140493868D03*
D21*
X116713088Y-147478868D03*
D22*
X116713088Y-132238868D03*
D23*
X107315088Y-135413868D03*
X100965088Y-137953868D03*
D10*
X155734510Y-129778234D03*
X160734510Y-129778234D03*
D24*
X144065746Y-82748507D03*
D25*
X144065746Y-80208507D03*
X146605746Y-82748507D03*
X146605746Y-80208507D03*
X149145746Y-82748507D03*
X149145746Y-80208507D03*
D19*
X138112616Y-102393836D03*
D13*
X160139197Y-134540738D03*
D14*
X160139197Y-142160738D03*
D13*
X133945425Y-133350112D03*
D14*
X126325425Y-133350112D03*
D13*
X136326677Y-106561027D03*
D14*
X128706677Y-106561027D03*
D13*
X133945425Y-100607897D03*
D14*
X126325425Y-100607897D03*
D13*
X133945425Y-79771942D03*
D14*
X126325425Y-79771942D03*
D26*
X162401380Y-106561027D03*
D27*
X154781380Y-106561027D03*
D28*
X148828250Y-89892263D03*
X148828250Y-94772263D03*
D13*
X133945425Y-127396982D03*
D14*
X126325425Y-127396982D03*
D27*
X162401380Y-113704783D03*
D26*
X154781380Y-113704783D03*
X150018876Y-58340674D03*
D27*
X142398876Y-58340674D03*
D26*
X162401380Y-58340674D03*
D27*
X154781380Y-58340674D03*
D26*
X154781380Y-111323531D03*
D27*
X162401380Y-111323531D03*
D13*
X154900449Y-121443852D03*
D14*
X162520449Y-121443852D03*
D13*
X154900449Y-118467287D03*
D14*
X162520449Y-118467287D03*
D26*
X15478138Y-73818812D03*
D27*
X23098138Y-73818812D03*
D26*
X41671910Y-73818812D03*
D27*
X34051910Y-73818812D03*
D26*
X154781380Y-108942279D03*
D27*
X162401380Y-108942279D03*
D13*
X136326677Y-64889117D03*
D14*
X128706677Y-64889117D03*
D13*
X136326677Y-70842247D03*
D14*
X128706677Y-70842247D03*
D13*
X141684494Y-136921990D03*
D14*
X141684494Y-144541990D03*
D29*
X24550016Y-83343820D03*
D30*
X13970016Y-83343820D03*
X24130016Y-83343820D03*
D29*
X13550016Y-83343820D03*
D30*
X13970016Y-83343820D03*
D29*
X24550016Y-83343820D03*
D30*
X24130016Y-83343820D03*
D22*
X19050016Y-83343820D03*
X19050016Y-83343820D03*
D29*
X13550016Y-83343820D03*
D18*
X14050016Y-87143820D03*
D31*
X21569787Y-78553804D03*
D32*
X21590016Y-78263820D03*
D18*
X19050016Y-89243820D03*
D33*
X15895011Y-80073816D03*
D32*
X16550016Y-79343820D03*
D30*
X24130016Y-102393836D03*
D22*
X19050016Y-102393836D03*
D29*
X24550016Y-102393836D03*
X13550016Y-102393836D03*
X24550016Y-102393836D03*
X13550016Y-102393836D03*
D30*
X13970016Y-102393836D03*
D22*
X19050016Y-102393836D03*
D30*
X13970016Y-102393836D03*
X24130016Y-102393836D03*
D32*
X21590016Y-97313836D03*
D31*
X21569787Y-97603820D03*
D18*
X14050016Y-106193836D03*
D32*
X16550016Y-98393836D03*
D18*
X19050016Y-108293836D03*
D33*
X15895011Y-99123832D03*
D29*
X13550016Y-121443852D03*
X13550016Y-121443852D03*
D30*
X24130016Y-121443852D03*
X13970016Y-121443852D03*
X24130016Y-121443852D03*
D29*
X24550016Y-121443852D03*
D22*
X19050016Y-121443852D03*
D29*
X24550016Y-121443852D03*
D22*
X19050016Y-121443852D03*
D30*
X13970016Y-121443852D03*
D18*
X14050016Y-125243852D03*
D32*
X21590016Y-116363852D03*
D31*
X21569787Y-116653836D03*
D32*
X16550016Y-117443852D03*
D18*
X19050016Y-127343852D03*
D33*
X15895011Y-118173848D03*
D30*
X13970016Y-140493868D03*
D29*
X24550016Y-140493868D03*
X13550016Y-140493868D03*
X24550016Y-140493868D03*
D30*
X13970016Y-140493868D03*
D22*
X19050016Y-140493868D03*
D29*
X13550016Y-140493868D03*
D30*
X24130016Y-140493868D03*
D22*
X19050016Y-140493868D03*
D30*
X24130016Y-140493868D03*
D32*
X21590016Y-135413868D03*
D31*
X21569787Y-135703852D03*
D18*
X14050016Y-144293868D03*
D33*
X15895011Y-137223864D03*
D18*
X19050016Y-146393868D03*
D32*
X16550016Y-136493868D03*
D29*
X32600032Y-140493868D03*
D22*
X38100032Y-140493868D03*
D29*
X43600032Y-140493868D03*
X32600032Y-140493868D03*
D30*
X43180032Y-140493868D03*
X43180032Y-140493868D03*
D29*
X43600032Y-140493868D03*
D22*
X38100032Y-140493868D03*
D30*
X33020032Y-140493868D03*
X33020032Y-140493868D03*
D32*
X40640032Y-135413868D03*
D31*
X40619803Y-135703852D03*
D18*
X33100032Y-144293868D03*
D32*
X35600032Y-136493868D03*
D18*
X38100032Y-146393868D03*
D33*
X34945027Y-137223864D03*
D29*
X32600032Y-64293804D03*
D30*
X43180032Y-64293804D03*
D29*
X32600032Y-64293804D03*
X43600032Y-64293804D03*
D30*
X33020032Y-64293804D03*
X43180032Y-64293804D03*
D22*
X38100032Y-64293804D03*
D29*
X43600032Y-64293804D03*
D22*
X38100032Y-64293804D03*
D30*
X33020032Y-64293804D03*
D31*
X40619803Y-59503788D03*
D32*
X40640032Y-59213804D03*
D18*
X33100032Y-68093804D03*
D32*
X35600032Y-60293804D03*
D18*
X38100032Y-70193804D03*
D33*
X34945027Y-61023800D03*
D30*
X33020032Y-83343820D03*
D22*
X38100032Y-83343820D03*
D29*
X32600032Y-83343820D03*
D30*
X43180032Y-83343820D03*
D22*
X38100032Y-83343820D03*
D30*
X33020032Y-83343820D03*
X43180032Y-83343820D03*
D29*
X43600032Y-83343820D03*
X32600032Y-83343820D03*
X43600032Y-83343820D03*
D32*
X35560032Y-88423820D03*
D31*
X40619803Y-78553804D03*
D32*
X40640032Y-78263820D03*
D34*
X35580261Y-88133836D03*
D18*
X33100032Y-87143820D03*
D32*
X40600032Y-87343820D03*
X35600032Y-79343820D03*
D18*
X38100032Y-89243820D03*
D35*
X41255037Y-86613824D03*
D33*
X34945027Y-80073816D03*
D30*
X43180032Y-102393836D03*
D29*
X43600032Y-102393836D03*
D30*
X43180032Y-102393836D03*
D29*
X32600032Y-102393836D03*
D30*
X33020032Y-102393836D03*
D29*
X32600032Y-102393836D03*
X43600032Y-102393836D03*
D22*
X38100032Y-102393836D03*
X38100032Y-102393836D03*
D30*
X33020032Y-102393836D03*
D31*
X40619803Y-97603820D03*
D32*
X40640032Y-97313836D03*
D18*
X33100032Y-106193836D03*
X38100032Y-108293836D03*
D33*
X34945027Y-99123832D03*
D32*
X35600032Y-98393836D03*
D30*
X33020032Y-121443852D03*
D29*
X43600032Y-121443852D03*
D30*
X33020032Y-121443852D03*
D29*
X32600032Y-121443852D03*
D22*
X38100032Y-121443852D03*
D29*
X32600032Y-121443852D03*
D30*
X43180032Y-121443852D03*
D29*
X43600032Y-121443852D03*
D30*
X43180032Y-121443852D03*
D22*
X38100032Y-121443852D03*
D31*
X40619803Y-116653836D03*
D32*
X40640032Y-116363852D03*
D18*
X33100032Y-125243852D03*
X38100032Y-127343852D03*
D33*
X34945027Y-118173848D03*
D32*
X35600032Y-117443852D03*
D29*
X51650048Y-121443852D03*
D30*
X62230048Y-121443852D03*
D29*
X62650048Y-121443852D03*
D30*
X52070048Y-121443852D03*
D22*
X57150048Y-121443852D03*
D29*
X62650048Y-121443852D03*
D30*
X52070048Y-121443852D03*
D29*
X51650048Y-121443852D03*
D30*
X62230048Y-121443852D03*
D22*
X57150048Y-121443852D03*
D31*
X59669819Y-116653836D03*
D32*
X59690048Y-116363852D03*
D18*
X52150048Y-125243852D03*
D32*
X54650048Y-117443852D03*
D33*
X53995043Y-118173848D03*
D18*
X57150048Y-127343852D03*
D29*
X51650048Y-140493868D03*
X62650048Y-140493868D03*
X51650048Y-140493868D03*
D30*
X52070048Y-140493868D03*
D29*
X62650048Y-140493868D03*
D30*
X62230048Y-140493868D03*
X52070048Y-140493868D03*
D22*
X57150048Y-140493868D03*
D30*
X62230048Y-140493868D03*
D22*
X57150048Y-140493868D03*
D31*
X59669819Y-135703852D03*
D32*
X59690048Y-135413868D03*
D18*
X52150048Y-144293868D03*
D33*
X53995043Y-137223864D03*
D18*
X57150048Y-146393868D03*
D32*
X54650048Y-136493868D03*
D29*
X51650048Y-102393836D03*
X51650048Y-102393836D03*
D22*
X57150048Y-102393836D03*
D30*
X62230048Y-102393836D03*
X62230048Y-102393836D03*
X52070048Y-102393836D03*
D29*
X62650048Y-102393836D03*
X62650048Y-102393836D03*
D22*
X57150048Y-102393836D03*
D30*
X52070048Y-102393836D03*
D18*
X52150048Y-106193836D03*
D32*
X59690048Y-97313836D03*
D31*
X59669819Y-97603820D03*
D32*
X54650048Y-98393836D03*
D33*
X53995043Y-99123832D03*
D18*
X57150048Y-108293836D03*
D29*
X70700064Y-102393836D03*
D22*
X76200064Y-102393836D03*
D29*
X81700064Y-102393836D03*
D30*
X71120064Y-102393836D03*
D29*
X81700064Y-102393836D03*
D22*
X76200064Y-102393836D03*
D30*
X81280064Y-102393836D03*
D29*
X70700064Y-102393836D03*
D30*
X71120064Y-102393836D03*
X81280064Y-102393836D03*
D32*
X78740064Y-97313836D03*
D31*
X78719835Y-97603820D03*
D18*
X71200064Y-106193836D03*
X76200064Y-108293836D03*
D32*
X73700064Y-98393836D03*
D33*
X73045059Y-99123832D03*
D22*
X76200064Y-121443852D03*
D29*
X70700064Y-121443852D03*
X81700064Y-121443852D03*
D30*
X81280064Y-121443852D03*
X71120064Y-121443852D03*
D29*
X70700064Y-121443852D03*
X81700064Y-121443852D03*
D30*
X81280064Y-121443852D03*
D22*
X76200064Y-121443852D03*
D30*
X71120064Y-121443852D03*
D18*
X71200064Y-125243852D03*
D32*
X78740064Y-116363852D03*
D31*
X78719835Y-116653836D03*
D32*
X73700064Y-117443852D03*
D33*
X73045059Y-118173848D03*
D18*
X76200064Y-127343852D03*
D30*
X71120064Y-140493868D03*
D29*
X70700064Y-140493868D03*
X70700064Y-140493868D03*
D30*
X71120064Y-140493868D03*
X81280064Y-140493868D03*
X81280064Y-140493868D03*
D29*
X81700064Y-140493868D03*
X81700064Y-140493868D03*
D22*
X76200064Y-140493868D03*
X76200064Y-140493868D03*
D18*
X71200064Y-144293868D03*
D32*
X78740064Y-135413868D03*
D31*
X78719835Y-135703852D03*
D32*
X73700064Y-136493868D03*
D33*
X73045059Y-137223864D03*
D18*
X76200064Y-146393868D03*
D22*
X76200064Y-64293804D03*
D30*
X81280064Y-64293804D03*
D29*
X81700064Y-64293804D03*
X70700064Y-64293804D03*
D22*
X76200064Y-64293804D03*
D29*
X81700064Y-64293804D03*
X70700064Y-64293804D03*
D30*
X71120064Y-64293804D03*
X81280064Y-64293804D03*
X71120064Y-64293804D03*
D32*
X78740064Y-59213804D03*
D18*
X71200064Y-68093804D03*
D31*
X78719835Y-59503788D03*
D18*
X76200064Y-70193804D03*
D32*
X73700064Y-60293804D03*
D33*
X73045059Y-61023800D03*
D29*
X81700064Y-83343820D03*
D22*
X76200064Y-83343820D03*
D30*
X81280064Y-83343820D03*
D29*
X70700064Y-83343820D03*
X70700064Y-83343820D03*
D30*
X81280064Y-83343820D03*
X71120064Y-83343820D03*
D29*
X81700064Y-83343820D03*
D30*
X71120064Y-83343820D03*
D22*
X76200064Y-83343820D03*
D32*
X78740064Y-78263820D03*
D31*
X78719835Y-78553804D03*
D18*
X71200064Y-87143820D03*
X76200064Y-89243820D03*
D33*
X73045059Y-80073816D03*
D32*
X73700064Y-79343820D03*
D29*
X100750080Y-83343820D03*
X89750080Y-83343820D03*
X100750080Y-83343820D03*
X89750080Y-83343820D03*
D30*
X90170080Y-83343820D03*
D22*
X95250080Y-83343820D03*
D30*
X100330080Y-83343820D03*
X90170080Y-83343820D03*
X100330080Y-83343820D03*
D22*
X95250080Y-83343820D03*
D32*
X97790080Y-78263820D03*
D18*
X90250080Y-87143820D03*
D31*
X97769851Y-78553804D03*
D33*
X92095075Y-80073816D03*
D32*
X92750080Y-79343820D03*
D18*
X95250080Y-89243820D03*
D30*
X90170080Y-102393836D03*
D22*
X95250080Y-102393836D03*
D30*
X100330080Y-102393836D03*
D29*
X100750080Y-102393836D03*
D22*
X95250080Y-102393836D03*
D29*
X89750080Y-102393836D03*
X89750080Y-102393836D03*
X100750080Y-102393836D03*
D30*
X90170080Y-102393836D03*
X100330080Y-102393836D03*
D31*
X97769851Y-97603820D03*
D32*
X97790080Y-97313836D03*
D18*
X90250080Y-106193836D03*
X95250080Y-108293836D03*
D33*
X92095075Y-99123832D03*
D32*
X92750080Y-98393836D03*
D22*
X95250080Y-121443852D03*
D30*
X90170080Y-121443852D03*
X90170080Y-121443852D03*
D22*
X95250080Y-121443852D03*
D30*
X100330080Y-121443852D03*
D29*
X89750080Y-121443852D03*
X100750080Y-121443852D03*
D30*
X100330080Y-121443852D03*
D29*
X100750080Y-121443852D03*
X89750080Y-121443852D03*
D32*
X97790080Y-116363852D03*
D18*
X90250080Y-125243852D03*
D31*
X97769851Y-116653836D03*
D18*
X95250080Y-127343852D03*
D33*
X92095075Y-118173848D03*
D32*
X92750080Y-117443852D03*
D29*
X100750080Y-140493868D03*
D22*
X95250080Y-140493868D03*
X95250080Y-140493868D03*
D29*
X89750080Y-140493868D03*
X89750080Y-140493868D03*
D30*
X100330080Y-140493868D03*
X90170080Y-140493868D03*
D29*
X100750080Y-140493868D03*
D30*
X100330080Y-140493868D03*
X90170080Y-140493868D03*
D32*
X97790080Y-135413868D03*
D18*
X90250080Y-144293868D03*
D31*
X97769851Y-135703852D03*
D33*
X92095075Y-137223864D03*
D32*
X92750080Y-136493868D03*
D18*
X95250080Y-146393868D03*
D29*
X89750080Y-64293804D03*
D30*
X90170080Y-64293804D03*
D22*
X95250080Y-64293804D03*
D29*
X100750080Y-64293804D03*
X89750080Y-64293804D03*
D30*
X100330080Y-64293804D03*
X100330080Y-64293804D03*
X90170080Y-64293804D03*
D29*
X100750080Y-64293804D03*
D22*
X95250080Y-64293804D03*
D18*
X90250080Y-68093804D03*
D31*
X97769851Y-59503788D03*
D32*
X97790080Y-59213804D03*
D33*
X92095075Y-61023800D03*
D18*
X95250080Y-70193804D03*
D32*
X92750080Y-60293804D03*
D29*
X119800096Y-64293804D03*
D22*
X114300096Y-64293804D03*
D30*
X119380096Y-64293804D03*
D29*
X108800096Y-64293804D03*
X119800096Y-64293804D03*
D30*
X119380096Y-64293804D03*
D22*
X114300096Y-64293804D03*
D30*
X109220096Y-64293804D03*
D29*
X108800096Y-64293804D03*
D30*
X109220096Y-64293804D03*
D31*
X116819867Y-59503788D03*
D18*
X109300096Y-68093804D03*
D32*
X116840096Y-59213804D03*
D33*
X111145091Y-61023800D03*
D32*
X111800096Y-60293804D03*
D18*
X114300096Y-70193804D03*
D29*
X108800096Y-83343820D03*
X119800096Y-83343820D03*
D22*
X114300096Y-83343820D03*
D30*
X109220096Y-83343820D03*
D29*
X119800096Y-83343820D03*
D30*
X109220096Y-83343820D03*
D22*
X114300096Y-83343820D03*
D30*
X119380096Y-83343820D03*
D29*
X108800096Y-83343820D03*
D30*
X119380096Y-83343820D03*
D32*
X116840096Y-78263820D03*
D31*
X116819867Y-78553804D03*
D18*
X109300096Y-87143820D03*
D33*
X111145091Y-80073816D03*
D18*
X114300096Y-89243820D03*
D32*
X111800096Y-79343820D03*
D30*
X109220096Y-102393836D03*
X109220096Y-102393836D03*
D29*
X108800096Y-102393836D03*
X108800096Y-102393836D03*
D30*
X119380096Y-102393836D03*
D22*
X114300096Y-102393836D03*
D29*
X119800096Y-102393836D03*
X119800096Y-102393836D03*
D22*
X114300096Y-102393836D03*
D30*
X119380096Y-102393836D03*
D31*
X116819867Y-97603820D03*
D18*
X109300096Y-106193836D03*
D32*
X116840096Y-97313836D03*
D18*
X114300096Y-108293836D03*
D32*
X111800096Y-98393836D03*
D33*
X111145091Y-99123832D03*
D29*
X108800096Y-121443852D03*
D30*
X109220096Y-121443852D03*
X119380096Y-121443852D03*
X109220096Y-121443852D03*
D29*
X119800096Y-121443852D03*
D22*
X114300096Y-121443852D03*
D29*
X108800096Y-121443852D03*
D22*
X114300096Y-121443852D03*
D30*
X119380096Y-121443852D03*
D29*
X119800096Y-121443852D03*
D18*
X109300096Y-125243852D03*
D32*
X116840096Y-116363852D03*
D31*
X116819867Y-116653836D03*
D18*
X114300096Y-127343852D03*
D33*
X111145091Y-118173848D03*
D32*
X111800096Y-117443852D03*
D30*
X109220096Y-140493868D03*
D29*
X108800096Y-140493868D03*
D30*
X119380096Y-140493868D03*
X119380096Y-140493868D03*
D22*
X114300096Y-140493868D03*
X114300096Y-140493868D03*
D29*
X119800096Y-140493868D03*
X119800096Y-140493868D03*
D30*
X109220096Y-140493868D03*
D29*
X108800096Y-140493868D03*
D32*
X116840096Y-135413868D03*
D18*
X109300096Y-144293868D03*
D31*
X116819867Y-135703852D03*
D32*
X111800096Y-136493868D03*
D18*
X114300096Y-146393868D03*
D33*
X111145091Y-137223864D03*
D29*
X291250240Y-64293804D03*
D22*
X285750240Y-64293804D03*
D30*
X280670240Y-64293804D03*
D29*
X291250240Y-64293804D03*
D30*
X290830240Y-64293804D03*
D29*
X280250240Y-64293804D03*
X280250240Y-64293804D03*
D22*
X285750240Y-64293804D03*
D30*
X280670240Y-64293804D03*
X290830240Y-64293804D03*
D32*
X288290240Y-59213804D03*
D31*
X288270011Y-59503788D03*
D18*
X280750240Y-68093804D03*
X285750240Y-70193804D03*
D32*
X283250240Y-60293804D03*
D33*
X282595235Y-61023800D03*
D29*
X280250240Y-83343820D03*
D30*
X280670240Y-83343820D03*
X280670240Y-83343820D03*
D22*
X285750240Y-83343820D03*
D30*
X290830240Y-83343820D03*
D29*
X291250240Y-83343820D03*
D22*
X285750240Y-83343820D03*
D29*
X291250240Y-83343820D03*
D30*
X290830240Y-83343820D03*
D29*
X280250240Y-83343820D03*
D31*
X288270011Y-78553804D03*
D18*
X280750240Y-87143820D03*
D32*
X288290240Y-78263820D03*
D33*
X282595235Y-80073816D03*
D18*
X285750240Y-89243820D03*
D32*
X283250240Y-79343820D03*
D30*
X290830240Y-102393836D03*
D22*
X285750240Y-102393836D03*
D30*
X280670240Y-102393836D03*
D29*
X291250240Y-102393836D03*
D22*
X285750240Y-102393836D03*
D30*
X280670240Y-102393836D03*
D29*
X291250240Y-102393836D03*
X280250240Y-102393836D03*
X280250240Y-102393836D03*
D30*
X290830240Y-102393836D03*
D18*
X280750240Y-106193836D03*
D31*
X288270011Y-97603820D03*
D32*
X288290240Y-97313836D03*
D33*
X282595235Y-99123832D03*
D18*
X285750240Y-108293836D03*
D32*
X283250240Y-98393836D03*
D22*
X285750240Y-121443852D03*
D30*
X290830240Y-121443852D03*
D22*
X285750240Y-121443852D03*
D30*
X280670240Y-121443852D03*
D29*
X291250240Y-121443852D03*
X291250240Y-121443852D03*
D30*
X290830240Y-121443852D03*
D29*
X280250240Y-121443852D03*
D30*
X280670240Y-121443852D03*
D29*
X280250240Y-121443852D03*
D31*
X288270011Y-116653836D03*
D18*
X280750240Y-125243852D03*
D32*
X288290240Y-116363852D03*
D18*
X285750240Y-127343852D03*
D32*
X283250240Y-117443852D03*
D33*
X282595235Y-118173848D03*
D29*
X291250240Y-140493868D03*
D30*
X290830240Y-140493868D03*
D29*
X291250240Y-140493868D03*
D22*
X285750240Y-140493868D03*
D30*
X280670240Y-140493868D03*
D29*
X280250240Y-140493868D03*
D30*
X290830240Y-140493868D03*
D22*
X285750240Y-140493868D03*
D30*
X280670240Y-140493868D03*
D29*
X280250240Y-140493868D03*
D31*
X288270011Y-135703852D03*
D18*
X280750240Y-144293868D03*
D32*
X288290240Y-135413868D03*
X283250240Y-136493868D03*
D33*
X282595235Y-137223864D03*
D18*
X285750240Y-146393868D03*
D30*
X261620224Y-140493868D03*
D29*
X261200224Y-140493868D03*
D30*
X271780224Y-140493868D03*
X271780224Y-140493868D03*
D29*
X272200224Y-140493868D03*
D22*
X266700224Y-140493868D03*
D29*
X272200224Y-140493868D03*
X261200224Y-140493868D03*
D22*
X266700224Y-140493868D03*
D30*
X261620224Y-140493868D03*
D18*
X261700224Y-144293868D03*
D32*
X269240224Y-135413868D03*
D31*
X269219995Y-135703852D03*
D18*
X266700224Y-146393868D03*
D32*
X264200224Y-136493868D03*
D33*
X263545219Y-137223864D03*
D30*
X261620224Y-64293804D03*
X261620224Y-64293804D03*
D29*
X272200224Y-64293804D03*
D22*
X266700224Y-64293804D03*
D29*
X272200224Y-64293804D03*
D30*
X271780224Y-64293804D03*
D29*
X261200224Y-64293804D03*
D30*
X271780224Y-64293804D03*
D29*
X261200224Y-64293804D03*
D22*
X266700224Y-64293804D03*
D18*
X261700224Y-68093804D03*
D31*
X269219995Y-59503788D03*
D32*
X269240224Y-59213804D03*
X264200224Y-60293804D03*
D18*
X266700224Y-70193804D03*
D33*
X263545219Y-61023800D03*
D30*
X271780224Y-83343820D03*
X261620224Y-83343820D03*
D29*
X261200224Y-83343820D03*
X272200224Y-83343820D03*
X272200224Y-83343820D03*
X261200224Y-83343820D03*
D22*
X266700224Y-83343820D03*
D30*
X261620224Y-83343820D03*
X271780224Y-83343820D03*
D22*
X266700224Y-83343820D03*
D31*
X269219995Y-78553804D03*
D32*
X269240224Y-78263820D03*
D18*
X261700224Y-87143820D03*
D33*
X263545219Y-80073816D03*
D32*
X264200224Y-79343820D03*
D18*
X266700224Y-89243820D03*
D30*
X261620224Y-102393836D03*
D29*
X272200224Y-102393836D03*
X272200224Y-102393836D03*
X261200224Y-102393836D03*
D30*
X271780224Y-102393836D03*
X271780224Y-102393836D03*
X261620224Y-102393836D03*
D22*
X266700224Y-102393836D03*
X266700224Y-102393836D03*
D29*
X261200224Y-102393836D03*
D18*
X261700224Y-106193836D03*
D32*
X269240224Y-97313836D03*
D31*
X269219995Y-97603820D03*
D33*
X263545219Y-99123832D03*
D32*
X264200224Y-98393836D03*
D18*
X266700224Y-108293836D03*
D30*
X261620224Y-121443852D03*
D29*
X261200224Y-121443852D03*
X272200224Y-121443852D03*
D22*
X266700224Y-121443852D03*
X266700224Y-121443852D03*
D29*
X261200224Y-121443852D03*
D30*
X261620224Y-121443852D03*
D29*
X272200224Y-121443852D03*
D30*
X271780224Y-121443852D03*
X271780224Y-121443852D03*
D31*
X269219995Y-116653836D03*
D18*
X261700224Y-125243852D03*
D32*
X269240224Y-116363852D03*
D33*
X263545219Y-118173848D03*
D32*
X264200224Y-117443852D03*
D18*
X266700224Y-127343852D03*
D29*
X253150208Y-121443852D03*
X242150208Y-121443852D03*
D22*
X247650208Y-121443852D03*
D30*
X242570208Y-121443852D03*
D22*
X247650208Y-121443852D03*
D29*
X253150208Y-121443852D03*
D30*
X252730208Y-121443852D03*
X252730208Y-121443852D03*
D29*
X242150208Y-121443852D03*
D30*
X242570208Y-121443852D03*
D32*
X250190208Y-116363852D03*
D31*
X250169979Y-116653836D03*
D18*
X242650208Y-125243852D03*
D32*
X245150208Y-117443852D03*
D33*
X244495203Y-118173848D03*
D18*
X247650208Y-127343852D03*
D30*
X242570208Y-140493868D03*
D29*
X242150208Y-140493868D03*
X253150208Y-140493868D03*
D22*
X247650208Y-140493868D03*
X247650208Y-140493868D03*
D30*
X242570208Y-140493868D03*
D29*
X253150208Y-140493868D03*
D30*
X252730208Y-140493868D03*
X252730208Y-140493868D03*
D29*
X242150208Y-140493868D03*
D32*
X250190208Y-135413868D03*
D31*
X250169979Y-135703852D03*
D18*
X242650208Y-144293868D03*
D32*
X245150208Y-136493868D03*
D18*
X247650208Y-146393868D03*
D33*
X244495203Y-137223864D03*
D30*
X252730208Y-64293804D03*
D22*
X247650208Y-64293804D03*
D29*
X242150208Y-64293804D03*
D30*
X252730208Y-64293804D03*
D22*
X247650208Y-64293804D03*
D29*
X242150208Y-64293804D03*
X253150208Y-64293804D03*
X253150208Y-64293804D03*
D30*
X242570208Y-64293804D03*
X242570208Y-64293804D03*
D32*
X250190208Y-59213804D03*
D31*
X250169979Y-59503788D03*
D18*
X242650208Y-68093804D03*
X247650208Y-70193804D03*
D32*
X245150208Y-60293804D03*
D33*
X244495203Y-61023800D03*
D30*
X252730208Y-83343820D03*
D22*
X247650208Y-83343820D03*
D29*
X253150208Y-83343820D03*
D30*
X252730208Y-83343820D03*
D22*
X247650208Y-83343820D03*
D30*
X242570208Y-83343820D03*
X242570208Y-83343820D03*
D29*
X253150208Y-83343820D03*
X242150208Y-83343820D03*
X242150208Y-83343820D03*
D18*
X242650208Y-87143820D03*
D31*
X250169979Y-78553804D03*
D32*
X250190208Y-78263820D03*
X245150208Y-79343820D03*
D18*
X247650208Y-89243820D03*
D33*
X244495203Y-80073816D03*
D30*
X252730208Y-102393836D03*
X252730208Y-102393836D03*
D29*
X242150208Y-102393836D03*
X242150208Y-102393836D03*
D30*
X242570208Y-102393836D03*
D22*
X247650208Y-102393836D03*
D29*
X253150208Y-102393836D03*
D22*
X247650208Y-102393836D03*
D29*
X253150208Y-102393836D03*
D30*
X242570208Y-102393836D03*
D18*
X242650208Y-106193836D03*
D32*
X250190208Y-97313836D03*
D31*
X250169979Y-97603820D03*
D18*
X247650208Y-108293836D03*
D33*
X244495203Y-99123832D03*
D32*
X245150208Y-98393836D03*
D30*
X223520192Y-102393836D03*
X223520192Y-102393836D03*
D22*
X228600192Y-102393836D03*
D30*
X233680192Y-102393836D03*
X233680192Y-102393836D03*
D29*
X234100192Y-102393836D03*
X223100192Y-102393836D03*
X223100192Y-102393836D03*
X234100192Y-102393836D03*
D22*
X228600192Y-102393836D03*
D31*
X231119963Y-97603820D03*
D32*
X231140192Y-97313836D03*
D18*
X223600192Y-106193836D03*
X228600192Y-108293836D03*
D32*
X226100192Y-98393836D03*
D33*
X225445187Y-99123832D03*
D29*
X234100192Y-121443852D03*
D30*
X223520192Y-121443852D03*
D29*
X223100192Y-121443852D03*
D30*
X233680192Y-121443852D03*
X233680192Y-121443852D03*
D29*
X234100192Y-121443852D03*
X223100192Y-121443852D03*
D30*
X223520192Y-121443852D03*
D22*
X228600192Y-121443852D03*
X228600192Y-121443852D03*
D32*
X231140192Y-116363852D03*
D18*
X223600192Y-125243852D03*
D31*
X231119963Y-116653836D03*
D32*
X226100192Y-117443852D03*
D18*
X228600192Y-127343852D03*
D33*
X225445187Y-118173848D03*
D30*
X233680192Y-140493868D03*
D29*
X234100192Y-140493868D03*
D22*
X228600192Y-140493868D03*
D30*
X223520192Y-140493868D03*
D29*
X223100192Y-140493868D03*
D30*
X223520192Y-140493868D03*
D29*
X223100192Y-140493868D03*
D30*
X233680192Y-140493868D03*
D29*
X234100192Y-140493868D03*
D22*
X228600192Y-140493868D03*
D31*
X231119963Y-135703852D03*
D18*
X223600192Y-144293868D03*
D32*
X231140192Y-135413868D03*
D18*
X228600192Y-146393868D03*
D33*
X225445187Y-137223864D03*
D32*
X226100192Y-136493868D03*
D22*
X228600192Y-64293804D03*
D30*
X223520192Y-64293804D03*
D29*
X223100192Y-64293804D03*
D30*
X233680192Y-64293804D03*
D22*
X228600192Y-64293804D03*
D30*
X223520192Y-64293804D03*
D29*
X234100192Y-64293804D03*
X234100192Y-64293804D03*
D30*
X233680192Y-64293804D03*
D29*
X223100192Y-64293804D03*
D18*
X223600192Y-68093804D03*
D31*
X231119963Y-59503788D03*
D32*
X231140192Y-59213804D03*
D33*
X225445187Y-61023800D03*
D32*
X226100192Y-60293804D03*
D18*
X228600192Y-70193804D03*
D29*
X234100192Y-83343820D03*
D30*
X223520192Y-83343820D03*
D29*
X223100192Y-83343820D03*
X223100192Y-83343820D03*
D30*
X223520192Y-83343820D03*
X233680192Y-83343820D03*
X233680192Y-83343820D03*
D22*
X228600192Y-83343820D03*
X228600192Y-83343820D03*
D29*
X234100192Y-83343820D03*
D18*
X223600192Y-87143820D03*
D31*
X231119963Y-78553804D03*
D32*
X231140192Y-78263820D03*
D18*
X228600192Y-89243820D03*
D32*
X226100192Y-79343820D03*
D33*
X225445187Y-80073816D03*
D30*
X204470176Y-83343820D03*
D22*
X209550176Y-83343820D03*
D29*
X204050176Y-83343820D03*
X204050176Y-83343820D03*
D30*
X204470176Y-83343820D03*
D29*
X215050176Y-83343820D03*
D22*
X209550176Y-83343820D03*
D30*
X214630176Y-83343820D03*
X214630176Y-83343820D03*
D29*
X215050176Y-83343820D03*
D18*
X204550176Y-87143820D03*
D32*
X212090176Y-78263820D03*
D31*
X212069947Y-78553804D03*
D32*
X207050176Y-79343820D03*
D18*
X209550176Y-89243820D03*
D33*
X206395171Y-80073816D03*
D22*
X209550176Y-102393836D03*
X209550176Y-102393836D03*
D29*
X215050176Y-102393836D03*
D30*
X204470176Y-102393836D03*
D29*
X204050176Y-102393836D03*
D30*
X214630176Y-102393836D03*
D29*
X204050176Y-102393836D03*
D30*
X204470176Y-102393836D03*
X214630176Y-102393836D03*
D29*
X215050176Y-102393836D03*
D18*
X204550176Y-106193836D03*
D31*
X212069947Y-97603820D03*
D32*
X212090176Y-97313836D03*
X207050176Y-98393836D03*
D33*
X206395171Y-99123832D03*
D18*
X209550176Y-108293836D03*
D29*
X215050176Y-121443852D03*
D30*
X204470176Y-121443852D03*
X214630176Y-121443852D03*
D29*
X204050176Y-121443852D03*
D22*
X209550176Y-121443852D03*
X209550176Y-121443852D03*
D30*
X214630176Y-121443852D03*
D29*
X204050176Y-121443852D03*
X215050176Y-121443852D03*
D30*
X204470176Y-121443852D03*
D31*
X212069947Y-116653836D03*
D18*
X204550176Y-125243852D03*
D32*
X212090176Y-116363852D03*
D18*
X209550176Y-127343852D03*
D32*
X207050176Y-117443852D03*
D33*
X206395171Y-118173848D03*
D29*
X215050176Y-140493868D03*
X204050176Y-140493868D03*
D30*
X204470176Y-140493868D03*
X214630176Y-140493868D03*
D22*
X209550176Y-140493868D03*
X209550176Y-140493868D03*
D30*
X214630176Y-140493868D03*
X204470176Y-140493868D03*
D29*
X204050176Y-140493868D03*
X215050176Y-140493868D03*
D31*
X212069947Y-135703852D03*
D18*
X204550176Y-144293868D03*
D32*
X212090176Y-135413868D03*
D18*
X209550176Y-146393868D03*
D32*
X207050176Y-136493868D03*
D33*
X206395171Y-137223864D03*
D30*
X204470176Y-64293804D03*
D29*
X204050176Y-64293804D03*
D22*
X209550176Y-64293804D03*
X209550176Y-64293804D03*
D29*
X215050176Y-64293804D03*
D30*
X214630176Y-64293804D03*
X204470176Y-64293804D03*
X214630176Y-64293804D03*
D29*
X215050176Y-64293804D03*
X204050176Y-64293804D03*
D31*
X212069947Y-59503788D03*
D32*
X212090176Y-59213804D03*
D18*
X204550176Y-68093804D03*
X209550176Y-70193804D03*
D33*
X206395171Y-61023800D03*
D32*
X207050176Y-60293804D03*
D30*
X195580160Y-64293804D03*
X185420160Y-64293804D03*
D29*
X185000160Y-64293804D03*
X196000160Y-64293804D03*
D30*
X185420160Y-64293804D03*
D22*
X190500160Y-64293804D03*
D30*
X195580160Y-64293804D03*
D22*
X190500160Y-64293804D03*
D29*
X196000160Y-64293804D03*
X185000160Y-64293804D03*
D31*
X193019931Y-59503788D03*
D32*
X193040160Y-59213804D03*
D18*
X185500160Y-68093804D03*
X190500160Y-70193804D03*
D32*
X188000160Y-60293804D03*
D33*
X187345155Y-61023800D03*
D29*
X196000160Y-83343820D03*
D30*
X185420160Y-83343820D03*
X195580160Y-83343820D03*
D22*
X190500160Y-83343820D03*
D29*
X185000160Y-83343820D03*
D22*
X190500160Y-83343820D03*
D29*
X196000160Y-83343820D03*
X185000160Y-83343820D03*
D30*
X185420160Y-83343820D03*
X195580160Y-83343820D03*
D18*
X185500160Y-87143820D03*
D32*
X193040160Y-78263820D03*
D31*
X193019931Y-78553804D03*
D32*
X188000160Y-79343820D03*
D33*
X187345155Y-80073816D03*
D18*
X190500160Y-89243820D03*
D30*
X195580160Y-102393836D03*
X195580160Y-102393836D03*
D29*
X185000160Y-102393836D03*
X196000160Y-102393836D03*
D22*
X190500160Y-102393836D03*
D30*
X185420160Y-102393836D03*
D29*
X196000160Y-102393836D03*
D22*
X190500160Y-102393836D03*
D29*
X185000160Y-102393836D03*
D30*
X185420160Y-102393836D03*
D18*
X185500160Y-106193836D03*
D32*
X193040160Y-97313836D03*
D31*
X193019931Y-97603820D03*
D32*
X188000160Y-98393836D03*
D33*
X187345155Y-99123832D03*
D18*
X190500160Y-108293836D03*
D30*
X195580160Y-121443852D03*
X185420160Y-121443852D03*
D29*
X185000160Y-121443852D03*
X185000160Y-121443852D03*
D22*
X190500160Y-121443852D03*
D29*
X196000160Y-121443852D03*
D30*
X185420160Y-121443852D03*
X195580160Y-121443852D03*
D22*
X190500160Y-121443852D03*
D29*
X196000160Y-121443852D03*
D32*
X193040160Y-116363852D03*
D18*
X185500160Y-125243852D03*
D31*
X193019931Y-116653836D03*
D18*
X190500160Y-127343852D03*
D33*
X187345155Y-118173848D03*
D32*
X188000160Y-117443852D03*
D22*
X190500160Y-140493868D03*
D30*
X185420160Y-140493868D03*
D29*
X196000160Y-140493868D03*
X185000160Y-140493868D03*
D30*
X185420160Y-140493868D03*
X195580160Y-140493868D03*
D29*
X196000160Y-140493868D03*
D22*
X190500160Y-140493868D03*
D30*
X195580160Y-140493868D03*
D29*
X185000160Y-140493868D03*
D32*
X193040160Y-135413868D03*
D18*
X185500160Y-144293868D03*
D31*
X193019931Y-135703852D03*
D33*
X187345155Y-137223864D03*
D18*
X190500160Y-146393868D03*
D32*
X188000160Y-136493868D03*
D29*
X62650048Y-64293804D03*
D30*
X52070048Y-64293804D03*
D22*
X57150048Y-64293804D03*
D29*
X51650048Y-64293804D03*
D30*
X52070048Y-64293804D03*
D29*
X62650048Y-64293804D03*
D22*
X57150048Y-64293804D03*
D30*
X62230048Y-64293804D03*
D29*
X51650048Y-64293804D03*
D30*
X62230048Y-64293804D03*
D18*
X52150048Y-68093804D03*
D31*
X59669819Y-59503788D03*
D32*
X59690048Y-59213804D03*
X54650048Y-60293804D03*
D18*
X57150048Y-70193804D03*
D33*
X53995043Y-61023800D03*
D29*
X62650048Y-83343820D03*
D30*
X52070048Y-83343820D03*
D22*
X57150048Y-83343820D03*
D29*
X51650048Y-83343820D03*
D30*
X52070048Y-83343820D03*
X62230048Y-83343820D03*
D22*
X57150048Y-83343820D03*
D29*
X62650048Y-83343820D03*
D30*
X62230048Y-83343820D03*
D29*
X51650048Y-83343820D03*
D31*
X59669819Y-78553804D03*
D18*
X52150048Y-87143820D03*
D32*
X59690048Y-78263820D03*
X54650048Y-79343820D03*
D33*
X53995043Y-80073816D03*
D18*
X57150048Y-89243820D03*
D19*
X28575024Y-130968860D03*
X276225232Y-73818812D03*
X276225232Y-130968860D03*
X28575024Y-73818812D03*
D18*
X19049968Y-70193750D03*
D33*
X15894963Y-61023746D03*
D32*
X16549968Y-60293750D03*
D31*
X21569739Y-59503734D03*
D18*
X14049968Y-68093750D03*
D32*
X21589968Y-59213750D03*
D30*
X24129968Y-64293750D03*
D29*
X13549968Y-64293750D03*
X24549968Y-64293750D03*
D22*
X19049968Y-64293750D03*
D30*
X24129968Y-64293750D03*
X13969968Y-64293750D03*
X13969968Y-64293750D03*
D29*
X24549968Y-64293750D03*
X13549968Y-64293750D03*
D22*
X19049968Y-64293750D03*
D36*
X25177000Y-61068000D03*
X30957000Y-61068000D03*
D37*
X23767000Y-61619000D03*
X32367000Y-61619000D03*
D38*
X23767000Y-57419000D03*
X32367000Y-57419000D03*
D39*
X66675000Y-76075000D03*
X66675000Y-74575001D03*
X66675000Y-73074999D03*
X66675000Y-71574999D03*
M02*
