G04 #@! TF.GenerationSoftware,KiCad,Pcbnew,(5.1.12-1-10_14)*
G04 #@! TF.CreationDate,2022-03-20T18:00:09+01:00*
G04 #@! TF.ProjectId,lumberjack,6c756d62-6572-46a6-9163-6b2e6b696361,1.7*
G04 #@! TF.SameCoordinates,Original*
G04 #@! TF.FileFunction,Paste,Bot*
G04 #@! TF.FilePolarity,Positive*
%FSLAX46Y46*%
G04 Gerber Fmt 4.6, Leading zero omitted, Abs format (unit mm)*
G04 Created by KiCad (PCBNEW (5.1.12-1-10_14)) date 2022-03-20 18:00:09*
%MOMM*%
%LPD*%
G01*
G04 APERTURE LIST*
G04 APERTURE END LIST*
G36*
G01*
X49065000Y-72010000D02*
X50315000Y-72010000D01*
G75*
G02*
X50465000Y-72160000I0J-150000D01*
G01*
X50465000Y-72460000D01*
G75*
G02*
X50315000Y-72610000I-150000J0D01*
G01*
X49065000Y-72610000D01*
G75*
G02*
X48915000Y-72460000I0J150000D01*
G01*
X48915000Y-72160000D01*
G75*
G02*
X49065000Y-72010000I150000J0D01*
G01*
G37*
G36*
G01*
X49065000Y-73010000D02*
X50315000Y-73010000D01*
G75*
G02*
X50465000Y-73160000I0J-150000D01*
G01*
X50465000Y-73460000D01*
G75*
G02*
X50315000Y-73610000I-150000J0D01*
G01*
X49065000Y-73610000D01*
G75*
G02*
X48915000Y-73460000I0J150000D01*
G01*
X48915000Y-73160000D01*
G75*
G02*
X49065000Y-73010000I150000J0D01*
G01*
G37*
G36*
G01*
X49065000Y-74010000D02*
X50315000Y-74010000D01*
G75*
G02*
X50465000Y-74160000I0J-150000D01*
G01*
X50465000Y-74460000D01*
G75*
G02*
X50315000Y-74610000I-150000J0D01*
G01*
X49065000Y-74610000D01*
G75*
G02*
X48915000Y-74460000I0J150000D01*
G01*
X48915000Y-74160000D01*
G75*
G02*
X49065000Y-74010000I150000J0D01*
G01*
G37*
G36*
G01*
X49065000Y-75010000D02*
X50315000Y-75010000D01*
G75*
G02*
X50465000Y-75160000I0J-150000D01*
G01*
X50465000Y-75460000D01*
G75*
G02*
X50315000Y-75610000I-150000J0D01*
G01*
X49065000Y-75610000D01*
G75*
G02*
X48915000Y-75460000I0J150000D01*
G01*
X48915000Y-75160000D01*
G75*
G02*
X49065000Y-75010000I150000J0D01*
G01*
G37*
G36*
G01*
X52914999Y-70410000D02*
X54215001Y-70410000D01*
G75*
G02*
X54465000Y-70659999I0J-249999D01*
G01*
X54465000Y-71360001D01*
G75*
G02*
X54215001Y-71610000I-249999J0D01*
G01*
X52914999Y-71610000D01*
G75*
G02*
X52665000Y-71360001I0J249999D01*
G01*
X52665000Y-70659999D01*
G75*
G02*
X52914999Y-70410000I249999J0D01*
G01*
G37*
G36*
G01*
X52914999Y-76010000D02*
X54215001Y-76010000D01*
G75*
G02*
X54465000Y-76259999I0J-249999D01*
G01*
X54465000Y-76960001D01*
G75*
G02*
X54215001Y-77210000I-249999J0D01*
G01*
X52914999Y-77210000D01*
G75*
G02*
X52665000Y-76960001I0J249999D01*
G01*
X52665000Y-76259999D01*
G75*
G02*
X52914999Y-76010000I249999J0D01*
G01*
G37*
M02*
