M48
; DRILL file {KiCad (5.1.10-1-10_14)} date Saturday, December 25, 2021 at 12:09:57 PM
; FORMAT={-:-/ absolute / metric / decimal}
; #@! TF.CreationDate,2021-12-25T12:09:57+01:00
; #@! TF.GenerationSoftware,Kicad,Pcbnew,(5.1.10-1-10_14)
; #@! TF.FileFunction,NonPlated,1,2,NPTH
FMAT,2
METRIC
T1C1.200
T2C1.700
T3C1.702
T4C1.750
T5C2.200
T6C3.048
T7C3.988
%
G90
G05
T1
X24.27Y-60.094
X24.27Y-79.144
X24.27Y-98.194
X24.27Y-117.244
X24.27Y-136.294
X32.88Y-87.544
X43.32Y-60.094
X43.32Y-79.144
X43.32Y-98.194
X43.32Y-117.244
X43.32Y-136.294
X62.37Y-60.094
X62.37Y-79.144
X62.37Y-98.194
X62.37Y-117.244
X62.37Y-136.294
X81.42Y-60.094
X81.42Y-79.144
X81.42Y-98.194
X81.42Y-117.244
X81.42Y-136.294
X100.47Y-60.094
X100.47Y-79.144
X100.47Y-98.194
X100.47Y-117.244
X100.47Y-136.294
X119.52Y-60.094
X119.52Y-79.144
X119.52Y-98.194
X119.52Y-117.244
X119.52Y-136.294
X195.72Y-60.094
X195.72Y-79.144
X195.72Y-98.194
X195.72Y-117.244
X195.72Y-136.294
X214.77Y-60.094
X214.77Y-79.144
X214.77Y-98.194
X214.77Y-117.244
X214.77Y-136.294
X233.82Y-60.094
X233.82Y-79.144
X233.82Y-98.194
X233.82Y-117.244
X233.82Y-136.294
X252.87Y-60.094
X252.87Y-79.144
X252.87Y-98.194
X252.87Y-117.244
X252.87Y-136.294
X271.92Y-60.094
X271.92Y-79.144
X271.92Y-98.194
X271.92Y-117.244
X271.92Y-136.294
X290.97Y-60.094
X290.97Y-79.144
X290.97Y-98.194
X290.97Y-117.244
X290.97Y-136.294
T2
X13.55Y-64.294
X13.55Y-64.294
X13.55Y-83.344
X13.55Y-83.344
X13.55Y-102.394
X13.55Y-102.394
X13.55Y-121.444
X13.55Y-121.444
X13.55Y-140.494
X13.55Y-140.494
X24.55Y-64.294
X24.55Y-64.294
X24.55Y-83.344
X24.55Y-83.344
X24.55Y-102.394
X24.55Y-102.394
X24.55Y-121.444
X24.55Y-121.444
X24.55Y-140.494
X24.55Y-140.494
X32.6Y-64.294
X32.6Y-64.294
X32.6Y-83.344
X32.6Y-83.344
X32.6Y-102.394
X32.6Y-102.394
X32.6Y-121.444
X32.6Y-121.444
X32.6Y-140.494
X32.6Y-140.494
X43.6Y-64.294
X43.6Y-64.294
X43.6Y-83.344
X43.6Y-83.344
X43.6Y-102.394
X43.6Y-102.394
X43.6Y-121.444
X43.6Y-121.444
X43.6Y-140.494
X43.6Y-140.494
X51.65Y-64.294
X51.65Y-64.294
X51.65Y-83.344
X51.65Y-83.344
X51.65Y-102.394
X51.65Y-102.394
X51.65Y-121.444
X51.65Y-121.444
X51.65Y-140.494
X51.65Y-140.494
X62.65Y-64.294
X62.65Y-64.294
X62.65Y-83.344
X62.65Y-83.344
X62.65Y-102.394
X62.65Y-102.394
X62.65Y-121.444
X62.65Y-121.444
X62.65Y-140.494
X62.65Y-140.494
X70.7Y-64.294
X70.7Y-64.294
X70.7Y-83.344
X70.7Y-83.344
X70.7Y-102.394
X70.7Y-102.394
X70.7Y-121.444
X70.7Y-121.444
X70.7Y-140.494
X70.7Y-140.494
X81.7Y-64.294
X81.7Y-64.294
X81.7Y-83.344
X81.7Y-83.344
X81.7Y-102.394
X81.7Y-102.394
X81.7Y-121.444
X81.7Y-121.444
X81.7Y-140.494
X81.7Y-140.494
X89.75Y-64.294
X89.75Y-64.294
X89.75Y-83.344
X89.75Y-83.344
X89.75Y-102.394
X89.75Y-102.394
X89.75Y-121.444
X89.75Y-121.444
X89.75Y-140.494
X89.75Y-140.494
X100.75Y-64.294
X100.75Y-64.294
X100.75Y-83.344
X100.75Y-83.344
X100.75Y-102.394
X100.75Y-102.394
X100.75Y-121.444
X100.75Y-121.444
X100.75Y-140.494
X100.75Y-140.494
X108.8Y-64.294
X108.8Y-64.294
X108.8Y-83.344
X108.8Y-83.344
X108.8Y-102.394
X108.8Y-102.394
X108.8Y-121.444
X108.8Y-121.444
X108.8Y-140.494
X108.8Y-140.494
X119.8Y-64.294
X119.8Y-64.294
X119.8Y-83.344
X119.8Y-83.344
X119.8Y-102.394
X119.8Y-102.394
X119.8Y-121.444
X119.8Y-121.444
X119.8Y-140.494
X119.8Y-140.494
X185.0Y-64.294
X185.0Y-64.294
X185.0Y-83.344
X185.0Y-83.344
X185.0Y-102.394
X185.0Y-102.394
X185.0Y-121.444
X185.0Y-121.444
X185.0Y-140.494
X185.0Y-140.494
X196.0Y-64.294
X196.0Y-64.294
X196.0Y-83.344
X196.0Y-83.344
X196.0Y-102.394
X196.0Y-102.394
X196.0Y-121.444
X196.0Y-121.444
X196.0Y-140.494
X196.0Y-140.494
X204.05Y-64.294
X204.05Y-64.294
X204.05Y-83.344
X204.05Y-83.344
X204.05Y-102.394
X204.05Y-102.394
X204.05Y-121.444
X204.05Y-121.444
X204.05Y-140.494
X204.05Y-140.494
X215.05Y-64.294
X215.05Y-64.294
X215.05Y-83.344
X215.05Y-83.344
X215.05Y-102.394
X215.05Y-102.394
X215.05Y-121.444
X215.05Y-121.444
X215.05Y-140.494
X215.05Y-140.494
X223.1Y-64.294
X223.1Y-64.294
X223.1Y-83.344
X223.1Y-83.344
X223.1Y-102.394
X223.1Y-102.394
X223.1Y-121.444
X223.1Y-121.444
X223.1Y-140.494
X223.1Y-140.494
X234.1Y-64.294
X234.1Y-64.294
X234.1Y-83.344
X234.1Y-83.344
X234.1Y-102.394
X234.1Y-102.394
X234.1Y-121.444
X234.1Y-121.444
X234.1Y-140.494
X234.1Y-140.494
X242.15Y-64.294
X242.15Y-64.294
X242.15Y-83.344
X242.15Y-83.344
X242.15Y-102.394
X242.15Y-102.394
X242.15Y-121.444
X242.15Y-121.444
X242.15Y-140.494
X242.15Y-140.494
X253.15Y-64.294
X253.15Y-64.294
X253.15Y-83.344
X253.15Y-83.344
X253.15Y-102.394
X253.15Y-102.394
X253.15Y-121.444
X253.15Y-121.444
X253.15Y-140.494
X253.15Y-140.494
X261.2Y-64.294
X261.2Y-64.294
X261.2Y-83.344
X261.2Y-83.344
X261.2Y-102.394
X261.2Y-102.394
X261.2Y-121.444
X261.2Y-121.444
X261.2Y-140.494
X261.2Y-140.494
X272.2Y-64.294
X272.2Y-64.294
X272.2Y-83.344
X272.2Y-83.344
X272.2Y-102.394
X272.2Y-102.394
X272.2Y-121.444
X272.2Y-121.444
X272.2Y-140.494
X272.2Y-140.494
X280.25Y-64.294
X280.25Y-64.294
X280.25Y-83.344
X280.25Y-83.344
X280.25Y-102.394
X280.25Y-102.394
X280.25Y-121.444
X280.25Y-121.444
X280.25Y-140.494
X280.25Y-140.494
X291.25Y-64.294
X291.25Y-64.294
X291.25Y-83.344
X291.25Y-83.344
X291.25Y-102.394
X291.25Y-102.394
X291.25Y-121.444
X291.25Y-121.444
X291.25Y-140.494
X291.25Y-140.494
T3
X99.695Y-140.494
X109.855Y-140.494
X194.945Y-140.494
X205.105Y-140.494
T4
X13.97Y-64.294
X13.97Y-64.294
X13.97Y-83.344
X13.97Y-83.344
X13.97Y-102.394
X13.97Y-102.394
X13.97Y-121.444
X13.97Y-121.444
X13.97Y-140.494
X13.97Y-140.494
X24.13Y-64.294
X24.13Y-64.294
X24.13Y-83.344
X24.13Y-83.344
X24.13Y-102.394
X24.13Y-102.394
X24.13Y-121.444
X24.13Y-121.444
X24.13Y-140.494
X24.13Y-140.494
X33.02Y-64.294
X33.02Y-64.294
X33.02Y-83.344
X33.02Y-83.344
X33.02Y-102.394
X33.02Y-102.394
X33.02Y-121.444
X33.02Y-121.444
X33.02Y-140.494
X33.02Y-140.494
X43.18Y-64.294
X43.18Y-64.294
X43.18Y-83.344
X43.18Y-83.344
X43.18Y-102.394
X43.18Y-102.394
X43.18Y-121.444
X43.18Y-121.444
X43.18Y-140.494
X43.18Y-140.494
X52.07Y-64.294
X52.07Y-64.294
X52.07Y-83.344
X52.07Y-83.344
X52.07Y-102.394
X52.07Y-102.394
X52.07Y-121.444
X52.07Y-121.444
X52.07Y-140.494
X52.07Y-140.494
X62.23Y-64.294
X62.23Y-64.294
X62.23Y-83.344
X62.23Y-83.344
X62.23Y-102.394
X62.23Y-102.394
X62.23Y-121.444
X62.23Y-121.444
X62.23Y-140.494
X62.23Y-140.494
X71.12Y-64.294
X71.12Y-64.294
X71.12Y-83.344
X71.12Y-83.344
X71.12Y-102.394
X71.12Y-102.394
X71.12Y-121.444
X71.12Y-121.444
X71.12Y-140.494
X71.12Y-140.494
X81.28Y-64.294
X81.28Y-64.294
X81.28Y-83.344
X81.28Y-83.344
X81.28Y-102.394
X81.28Y-102.394
X81.28Y-121.444
X81.28Y-121.444
X81.28Y-140.494
X81.28Y-140.494
X90.17Y-64.294
X90.17Y-64.294
X90.17Y-83.344
X90.17Y-83.344
X90.17Y-102.394
X90.17Y-102.394
X90.17Y-121.444
X90.17Y-121.444
X90.17Y-140.494
X90.17Y-140.494
X100.33Y-64.294
X100.33Y-64.294
X100.33Y-83.344
X100.33Y-83.344
X100.33Y-102.394
X100.33Y-102.394
X100.33Y-121.444
X100.33Y-121.444
X100.33Y-140.494
X100.33Y-140.494
X109.22Y-64.294
X109.22Y-64.294
X109.22Y-83.344
X109.22Y-83.344
X109.22Y-102.394
X109.22Y-102.394
X109.22Y-121.444
X109.22Y-121.444
X109.22Y-140.494
X109.22Y-140.494
X119.38Y-64.294
X119.38Y-64.294
X119.38Y-83.344
X119.38Y-83.344
X119.38Y-102.394
X119.38Y-102.394
X119.38Y-121.444
X119.38Y-121.444
X119.38Y-140.494
X119.38Y-140.494
X185.42Y-64.294
X185.42Y-64.294
X185.42Y-83.344
X185.42Y-83.344
X185.42Y-102.394
X185.42Y-102.394
X185.42Y-121.444
X185.42Y-121.444
X185.42Y-140.494
X185.42Y-140.494
X195.58Y-64.294
X195.58Y-64.294
X195.58Y-83.344
X195.58Y-83.344
X195.58Y-102.394
X195.58Y-102.394
X195.58Y-121.444
X195.58Y-121.444
X195.58Y-140.494
X195.58Y-140.494
X204.47Y-64.294
X204.47Y-64.294
X204.47Y-83.344
X204.47Y-83.344
X204.47Y-102.394
X204.47Y-102.394
X204.47Y-121.444
X204.47Y-121.444
X204.47Y-140.494
X204.47Y-140.494
X214.63Y-64.294
X214.63Y-64.294
X214.63Y-83.344
X214.63Y-83.344
X214.63Y-102.394
X214.63Y-102.394
X214.63Y-121.444
X214.63Y-121.444
X214.63Y-140.494
X214.63Y-140.494
X223.52Y-64.294
X223.52Y-64.294
X223.52Y-83.344
X223.52Y-83.344
X223.52Y-102.394
X223.52Y-102.394
X223.52Y-121.444
X223.52Y-121.444
X223.52Y-140.494
X223.52Y-140.494
X233.68Y-64.294
X233.68Y-64.294
X233.68Y-83.344
X233.68Y-83.344
X233.68Y-102.394
X233.68Y-102.394
X233.68Y-121.444
X233.68Y-121.444
X233.68Y-140.494
X233.68Y-140.494
X242.57Y-64.294
X242.57Y-64.294
X242.57Y-83.344
X242.57Y-83.344
X242.57Y-102.394
X242.57Y-102.394
X242.57Y-121.444
X242.57Y-121.444
X242.57Y-140.494
X242.57Y-140.494
X252.73Y-64.294
X252.73Y-64.294
X252.73Y-83.344
X252.73Y-83.344
X252.73Y-102.394
X252.73Y-102.394
X252.73Y-121.444
X252.73Y-121.444
X252.73Y-140.494
X252.73Y-140.494
X261.62Y-64.294
X261.62Y-64.294
X261.62Y-83.344
X261.62Y-83.344
X261.62Y-102.394
X261.62Y-102.394
X261.62Y-121.444
X261.62Y-121.444
X261.62Y-140.494
X261.62Y-140.494
X271.78Y-64.294
X271.78Y-64.294
X271.78Y-83.344
X271.78Y-83.344
X271.78Y-102.394
X271.78Y-102.394
X271.78Y-121.444
X271.78Y-121.444
X271.78Y-140.494
X271.78Y-140.494
X280.67Y-64.294
X280.67Y-64.294
X280.67Y-83.344
X280.67Y-83.344
X280.67Y-102.394
X280.67Y-102.394
X280.67Y-121.444
X280.67Y-121.444
X280.67Y-140.494
X280.67Y-140.494
X290.83Y-64.294
X290.83Y-64.294
X290.83Y-83.344
X290.83Y-83.344
X290.83Y-102.394
X290.83Y-102.394
X290.83Y-121.444
X290.83Y-121.444
X290.83Y-140.494
X290.83Y-140.494
T5
X128.588Y-59.531
X128.588Y-144.661
X176.213Y-59.531
X176.213Y-144.661
T6
X92.837Y-147.479
X116.713Y-147.479
X188.087Y-147.479
X211.963Y-147.479
T7
X19.05Y-64.294
X19.05Y-64.294
X19.05Y-83.344
X19.05Y-83.344
X19.05Y-102.394
X19.05Y-102.394
X19.05Y-121.444
X19.05Y-121.444
X19.05Y-140.494
X19.05Y-140.494
X38.1Y-64.294
X38.1Y-64.294
X38.1Y-83.344
X38.1Y-83.344
X38.1Y-102.394
X38.1Y-102.394
X38.1Y-121.444
X38.1Y-121.444
X38.1Y-140.494
X38.1Y-140.494
X57.15Y-64.294
X57.15Y-64.294
X57.15Y-83.344
X57.15Y-83.344
X57.15Y-102.394
X57.15Y-102.394
X57.15Y-121.444
X57.15Y-121.444
X57.15Y-140.494
X57.15Y-140.494
X76.2Y-64.294
X76.2Y-64.294
X76.2Y-83.344
X76.2Y-83.344
X76.2Y-102.394
X76.2Y-102.394
X76.2Y-121.444
X76.2Y-121.444
X76.2Y-140.494
X76.2Y-140.494
X92.837Y-132.239
X95.25Y-64.294
X95.25Y-64.294
X95.25Y-83.344
X95.25Y-83.344
X95.25Y-102.394
X95.25Y-102.394
X95.25Y-121.444
X95.25Y-121.444
X95.25Y-140.494
X95.25Y-140.494
X104.775Y-140.494
X114.3Y-64.294
X114.3Y-64.294
X114.3Y-83.344
X114.3Y-83.344
X114.3Y-102.394
X114.3Y-102.394
X114.3Y-121.444
X114.3Y-121.444
X114.3Y-140.494
X114.3Y-140.494
X116.713Y-132.239
X188.087Y-132.239
X190.5Y-64.294
X190.5Y-64.294
X190.5Y-83.344
X190.5Y-83.344
X190.5Y-102.394
X190.5Y-102.394
X190.5Y-121.444
X190.5Y-121.444
X190.5Y-140.494
X190.5Y-140.494
X200.025Y-140.494
X209.55Y-64.294
X209.55Y-64.294
X209.55Y-83.344
X209.55Y-83.344
X209.55Y-102.394
X209.55Y-102.394
X209.55Y-121.444
X209.55Y-121.444
X209.55Y-140.494
X209.55Y-140.494
X211.963Y-132.239
X228.6Y-64.294
X228.6Y-64.294
X228.6Y-83.344
X228.6Y-83.344
X228.6Y-102.394
X228.6Y-102.394
X228.6Y-121.444
X228.6Y-121.444
X228.6Y-140.494
X228.6Y-140.494
X247.65Y-64.294
X247.65Y-64.294
X247.65Y-83.344
X247.65Y-83.344
X247.65Y-102.394
X247.65Y-102.394
X247.65Y-121.444
X247.65Y-121.444
X247.65Y-140.494
X247.65Y-140.494
X266.7Y-64.294
X266.7Y-64.294
X266.7Y-83.344
X266.7Y-83.344
X266.7Y-102.394
X266.7Y-102.394
X266.7Y-121.444
X266.7Y-121.444
X266.7Y-140.494
X266.7Y-140.494
X285.75Y-64.294
X285.75Y-64.294
X285.75Y-83.344
X285.75Y-83.344
X285.75Y-102.394
X285.75Y-102.394
X285.75Y-121.444
X285.75Y-121.444
X285.75Y-140.494
X285.75Y-140.494
T5
G00X9.797Y-111.324
M15
G01X16.397Y-111.324
M16
G05
G00X138.113Y-103.394
M15
G01X138.113Y-101.394
M16
G05
G00X288.403Y-111.324
M15
G01X295.003Y-111.324
M16
G05
T0
M30
