G04 #@! TF.GenerationSoftware,KiCad,Pcbnew,(5.1.4-0-10_14)*
G04 #@! TF.CreationDate,2020-12-31T16:30:40+01:00*
G04 #@! TF.ProjectId,lumberjack,6c756d62-6572-46a6-9163-6b2e6b696361,rev?*
G04 #@! TF.SameCoordinates,Original*
G04 #@! TF.FileFunction,Soldermask,Top*
G04 #@! TF.FilePolarity,Negative*
%FSLAX46Y46*%
G04 Gerber Fmt 4.6, Leading zero omitted, Abs format (unit mm)*
G04 Created by KiCad (PCBNEW (5.1.4-0-10_14)) date 2020-12-31 16:30:40*
%MOMM*%
%LPD*%
G04 APERTURE LIST*
%ADD10O,1.800000X1.800000*%
%ADD11C,1.800000*%
%ADD12C,2.110000*%
%ADD13R,2.000000X2.000000*%
%ADD14O,2.000000X2.000000*%
%ADD15C,2.101800*%
%ADD16C,4.387800*%
%ADD17C,2.686000*%
%ADD18C,5.400000*%
%ADD19O,12.000000X5.400000*%
%ADD20R,1.600000X1.600000*%
%ADD21C,1.600000*%
%ADD22C,2.000000*%
%ADD23R,1.500000X1.500000*%
%ADD24C,1.500000*%
%ADD25O,2.400000X2.400000*%
%ADD26R,2.100000X2.100000*%
%ADD27O,2.100000X2.100000*%
%ADD28R,2.200000X2.200000*%
%ADD29C,2.200000*%
%ADD30C,2.400000*%
%ADD31C,1.900000*%
%ADD32C,3.448000*%
G04 APERTURE END LIST*
D10*
X154781380Y-106561027D03*
D11*
X162401380Y-106561027D03*
D10*
X154781380Y-108942279D03*
D11*
X162401380Y-108942279D03*
D12*
X140493868Y-113546035D03*
X140493868Y-118626035D03*
D13*
X141684494Y-136921990D03*
D14*
X141684494Y-144541990D03*
D13*
X136326677Y-118467287D03*
D14*
X128706677Y-118467287D03*
D15*
X119380096Y-102393836D03*
X109220096Y-102393836D03*
D16*
X114300096Y-102393836D03*
D17*
X110490096Y-99853836D03*
X116840096Y-97313836D03*
D18*
X138112616Y-102393836D03*
D15*
X290830240Y-83343820D03*
X280670240Y-83343820D03*
D16*
X285750240Y-83343820D03*
D17*
X281940240Y-80803820D03*
X288290240Y-78263820D03*
D13*
X168473579Y-118467287D03*
D14*
X176093579Y-118467287D03*
D13*
X170854831Y-67865682D03*
D14*
X178474831Y-67865682D03*
X126325425Y-73818812D03*
D13*
X133945425Y-73818812D03*
D15*
X233680192Y-121443852D03*
X223520192Y-121443852D03*
D16*
X228600192Y-121443852D03*
D17*
X224790192Y-118903852D03*
X231140192Y-116363852D03*
D15*
X252730208Y-83343820D03*
X242570208Y-83343820D03*
D16*
X247650208Y-83343820D03*
D17*
X243840208Y-80803820D03*
X250190208Y-78263820D03*
D15*
X252730208Y-64293804D03*
X242570208Y-64293804D03*
D16*
X247650208Y-64293804D03*
D17*
X243840208Y-61753804D03*
X250190208Y-59213804D03*
D15*
X271780224Y-83343820D03*
X261620224Y-83343820D03*
D16*
X266700224Y-83343820D03*
D17*
X262890224Y-80803820D03*
X269240224Y-78263820D03*
D15*
X252730208Y-102393836D03*
X242570208Y-102393836D03*
D16*
X247650208Y-102393836D03*
D17*
X243840208Y-99853836D03*
X250190208Y-97313836D03*
D15*
X290830240Y-102393836D03*
X280670240Y-102393836D03*
D16*
X285750240Y-102393836D03*
D17*
X281940240Y-99853836D03*
X288290240Y-97313836D03*
D15*
X271780224Y-102393836D03*
X261620224Y-102393836D03*
D16*
X266700224Y-102393836D03*
D17*
X262890224Y-99853836D03*
X269240224Y-97313836D03*
D15*
X290830240Y-121443852D03*
X280670240Y-121443852D03*
D16*
X285750240Y-121443852D03*
D17*
X281940240Y-118903852D03*
X288290240Y-116363852D03*
D15*
X271780224Y-121443852D03*
X261620224Y-121443852D03*
D16*
X266700224Y-121443852D03*
D17*
X262890224Y-118903852D03*
X269240224Y-116363852D03*
D15*
X233680192Y-102393836D03*
X223520192Y-102393836D03*
D16*
X228600192Y-102393836D03*
D17*
X224790192Y-99853836D03*
X231140192Y-97313836D03*
D15*
X214630176Y-102393836D03*
X204470176Y-102393836D03*
D16*
X209550176Y-102393836D03*
D17*
X205740176Y-99853836D03*
X212090176Y-97313836D03*
D15*
X290830240Y-140493868D03*
X280670240Y-140493868D03*
D16*
X285750240Y-140493868D03*
D17*
X281940240Y-137953868D03*
X288290240Y-135413868D03*
D15*
X252730208Y-121443852D03*
X242570208Y-121443852D03*
D16*
X247650208Y-121443852D03*
D17*
X243840208Y-118903852D03*
X250190208Y-116363852D03*
D15*
X214630176Y-121443852D03*
X204470176Y-121443852D03*
D16*
X209550176Y-121443852D03*
D17*
X205740176Y-118903852D03*
X212090176Y-116363852D03*
D15*
X271780224Y-140493868D03*
X261620224Y-140493868D03*
D16*
X266700224Y-140493868D03*
D17*
X262890224Y-137953868D03*
X269240224Y-135413868D03*
D15*
X252730208Y-140493868D03*
X242570208Y-140493868D03*
D16*
X247650208Y-140493868D03*
D17*
X243840208Y-137953868D03*
X250190208Y-135413868D03*
D15*
X233680192Y-140493868D03*
X223520192Y-140493868D03*
D16*
X228600192Y-140493868D03*
D17*
X224790192Y-137953868D03*
X231140192Y-135413868D03*
X212090176Y-135413868D03*
X205740176Y-137953868D03*
D16*
X209550176Y-140493868D03*
D15*
X204470176Y-140493868D03*
X214630176Y-140493868D03*
X119380096Y-64293804D03*
X109220096Y-64293804D03*
D16*
X114300096Y-64293804D03*
D17*
X110490096Y-61753804D03*
X116840096Y-59213804D03*
D15*
X119380096Y-83343820D03*
X109220096Y-83343820D03*
D16*
X114300096Y-83343820D03*
D17*
X110490096Y-80803820D03*
X116840096Y-78263820D03*
D15*
X81280064Y-83343820D03*
X71120064Y-83343820D03*
D16*
X76200064Y-83343820D03*
D17*
X72390064Y-80803820D03*
X78740064Y-78263820D03*
D15*
X100330080Y-140493868D03*
X90170080Y-140493868D03*
D16*
X95250080Y-140493868D03*
D17*
X91440080Y-137953868D03*
X97790080Y-135413868D03*
D15*
X62230048Y-140493868D03*
X52070048Y-140493868D03*
D16*
X57150048Y-140493868D03*
D17*
X53340048Y-137953868D03*
X59690048Y-135413868D03*
D15*
X24130016Y-83343820D03*
X13970016Y-83343820D03*
D16*
X19050016Y-83343820D03*
D17*
X15240016Y-80803820D03*
X21590016Y-78263820D03*
D19*
X13096886Y-111323531D03*
X291703370Y-111323531D03*
D18*
X128587608Y-59531300D03*
X176212648Y-59531300D03*
X128587608Y-144661059D03*
X176212648Y-144661059D03*
D15*
X24129968Y-64293750D03*
X13969968Y-64293750D03*
D16*
X19049968Y-64293750D03*
D17*
X15239968Y-61753750D03*
X21589968Y-59213750D03*
D15*
X33020032Y-64293804D03*
X43180032Y-64293804D03*
D16*
X38100032Y-64293804D03*
D17*
X41910032Y-66833804D03*
X35560032Y-69373804D03*
D15*
X62230048Y-64293804D03*
X52070048Y-64293804D03*
D16*
X57150048Y-64293804D03*
D17*
X53340048Y-61753804D03*
X59690048Y-59213804D03*
D15*
X81280064Y-64293804D03*
X71120064Y-64293804D03*
D16*
X76200064Y-64293804D03*
D17*
X72390064Y-61753804D03*
X78740064Y-59213804D03*
D15*
X100330080Y-64293804D03*
X90170080Y-64293804D03*
D16*
X95250080Y-64293804D03*
D17*
X91440080Y-61753804D03*
X97790080Y-59213804D03*
D15*
X290830240Y-64293804D03*
X280670240Y-64293804D03*
D16*
X285750240Y-64293804D03*
D17*
X281940240Y-61753804D03*
X288290240Y-59213804D03*
D15*
X271780224Y-64293804D03*
X261620224Y-64293804D03*
D16*
X266700224Y-64293804D03*
D17*
X262890224Y-61753804D03*
X269240224Y-59213804D03*
D15*
X233680192Y-64293804D03*
X223520192Y-64293804D03*
D16*
X228600192Y-64293804D03*
D17*
X224790192Y-61753804D03*
X231140192Y-59213804D03*
D15*
X33020032Y-83343820D03*
X43180032Y-83343820D03*
D16*
X38100032Y-83343820D03*
D17*
X41910032Y-85883820D03*
X35560032Y-88423820D03*
D15*
X62230048Y-83343820D03*
X52070048Y-83343820D03*
D16*
X57150048Y-83343820D03*
D17*
X53340048Y-80803820D03*
X59690048Y-78263820D03*
D15*
X233680192Y-83343820D03*
X223520192Y-83343820D03*
D16*
X228600192Y-83343820D03*
D17*
X224790192Y-80803820D03*
X231140192Y-78263820D03*
D15*
X24130016Y-102393836D03*
X13970016Y-102393836D03*
D16*
X19050016Y-102393836D03*
D17*
X15240016Y-99853836D03*
X21590016Y-97313836D03*
D15*
X43180032Y-102393836D03*
X33020032Y-102393836D03*
D16*
X38100032Y-102393836D03*
D17*
X34290032Y-99853836D03*
X40640032Y-97313836D03*
D15*
X62230048Y-102393836D03*
X52070048Y-102393836D03*
D16*
X57150048Y-102393836D03*
D17*
X53340048Y-99853836D03*
X59690048Y-97313836D03*
D15*
X100330080Y-83343820D03*
X90170080Y-83343820D03*
D16*
X95250080Y-83343820D03*
D17*
X91440080Y-80803820D03*
X97790080Y-78263820D03*
D15*
X214630176Y-83343820D03*
X204470176Y-83343820D03*
D16*
X209550176Y-83343820D03*
D17*
X205740176Y-80803820D03*
X212090176Y-78263820D03*
D15*
X24130016Y-121443852D03*
X13970016Y-121443852D03*
D16*
X19050016Y-121443852D03*
D17*
X15240016Y-118903852D03*
X21590016Y-116363852D03*
D15*
X43180032Y-121443852D03*
X33020032Y-121443852D03*
D16*
X38100032Y-121443852D03*
D17*
X34290032Y-118903852D03*
X40640032Y-116363852D03*
D15*
X81280064Y-102393836D03*
X71120064Y-102393836D03*
D16*
X76200064Y-102393836D03*
D17*
X72390064Y-99853836D03*
X78740064Y-97313836D03*
D15*
X100330080Y-102393836D03*
X90170080Y-102393836D03*
D16*
X95250080Y-102393836D03*
D17*
X91440080Y-99853836D03*
X97790080Y-97313836D03*
D15*
X24130016Y-140493868D03*
X13970016Y-140493868D03*
D16*
X19050016Y-140493868D03*
D17*
X15240016Y-137953868D03*
X21590016Y-135413868D03*
D15*
X62230048Y-121443852D03*
X52070048Y-121443852D03*
D16*
X57150048Y-121443852D03*
D17*
X53340048Y-118903852D03*
X59690048Y-116363852D03*
D15*
X81280064Y-121443852D03*
X71120064Y-121443852D03*
D16*
X76200064Y-121443852D03*
D17*
X72390064Y-118903852D03*
X78740064Y-116363852D03*
D15*
X100330080Y-121443852D03*
X90170080Y-121443852D03*
D16*
X95250080Y-121443852D03*
D17*
X91440080Y-118903852D03*
X97790080Y-116363852D03*
D15*
X43180032Y-140493868D03*
X33020032Y-140493868D03*
D16*
X38100032Y-140493868D03*
D17*
X34290032Y-137953868D03*
X40640032Y-135413868D03*
D15*
X81280064Y-140493868D03*
X71120064Y-140493868D03*
D16*
X76200064Y-140493868D03*
D17*
X72390064Y-137953868D03*
X78740064Y-135413868D03*
D20*
X147042311Y-127992295D03*
D21*
X145542311Y-127992295D03*
D22*
X155734510Y-126801669D03*
X160734510Y-126801669D03*
X160734510Y-129778234D03*
X155734510Y-129778234D03*
X144065746Y-96559454D03*
X144065746Y-94059454D03*
X144065746Y-88701637D03*
X144065746Y-91201637D03*
D23*
X29765650Y-63103178D03*
D24*
X28965650Y-61353178D03*
X28165650Y-63103178D03*
X27365650Y-61353178D03*
X26565650Y-63103178D03*
D25*
X32065650Y-61353178D03*
X32065650Y-56653178D03*
X24265650Y-56653178D03*
X24265650Y-61353178D03*
D26*
X144065746Y-82748507D03*
D27*
X144065746Y-80208507D03*
X146605746Y-82748507D03*
X146605746Y-80208507D03*
X149145746Y-82748507D03*
X149145746Y-80208507D03*
D28*
X159543884Y-63698491D03*
D29*
X157003884Y-63698491D03*
D30*
X148565746Y-75604751D03*
X144065746Y-75604751D03*
X148565746Y-69104751D03*
X144065746Y-69104751D03*
X144065746Y-100656340D03*
X148565746Y-100656340D03*
X144065746Y-107156340D03*
X148565746Y-107156340D03*
D31*
X148828250Y-89892263D03*
X148828250Y-94772263D03*
D13*
X154781380Y-69056308D03*
D14*
X162401380Y-102076308D03*
X154781380Y-71596308D03*
X162401380Y-99536308D03*
X154781380Y-74136308D03*
X162401380Y-96996308D03*
X154781380Y-76676308D03*
X162401380Y-94456308D03*
X154781380Y-79216308D03*
X162401380Y-91916308D03*
X154781380Y-81756308D03*
X162401380Y-89376308D03*
X154781380Y-84296308D03*
X162401380Y-86836308D03*
X154781380Y-86836308D03*
X162401380Y-84296308D03*
X154781380Y-89376308D03*
X162401380Y-81756308D03*
X154781380Y-91916308D03*
X162401380Y-79216308D03*
X154781380Y-94456308D03*
X162401380Y-76676308D03*
X154781380Y-96996308D03*
X162401380Y-74136308D03*
X154781380Y-99536308D03*
X162401380Y-71596308D03*
X154781380Y-102076308D03*
X162401380Y-69056308D03*
D13*
X154900449Y-121443852D03*
D14*
X162520449Y-121443852D03*
X162520449Y-118467287D03*
D13*
X154900449Y-118467287D03*
X136326677Y-64889117D03*
D14*
X128706677Y-64889117D03*
D13*
X133945425Y-67865682D03*
D14*
X126325425Y-67865682D03*
X128706677Y-70842247D03*
D13*
X136326677Y-70842247D03*
X136326677Y-76795377D03*
D14*
X128706677Y-76795377D03*
D13*
X168473579Y-64889117D03*
D14*
X176093579Y-64889117D03*
X176093579Y-70842247D03*
D13*
X168473579Y-70842247D03*
X170854831Y-73818812D03*
D14*
X178474831Y-73818812D03*
D13*
X136326677Y-82748507D03*
D14*
X128706677Y-82748507D03*
D13*
X133945425Y-85725072D03*
D14*
X126325425Y-85725072D03*
X128706677Y-88701637D03*
D13*
X136326677Y-88701637D03*
D14*
X126325425Y-91678202D03*
D13*
X133945425Y-91678202D03*
X133945425Y-79771942D03*
D14*
X126325425Y-79771942D03*
X176093579Y-82748507D03*
D13*
X168473579Y-82748507D03*
X170854831Y-85725072D03*
D14*
X178474831Y-85725072D03*
D13*
X168473579Y-88701637D03*
D14*
X176093579Y-88701637D03*
D13*
X170854831Y-91678202D03*
D14*
X178474831Y-91678202D03*
X126325425Y-100607897D03*
D13*
X133945425Y-100607897D03*
D14*
X126325425Y-103584462D03*
D13*
X133945425Y-103584462D03*
D14*
X128706677Y-106561027D03*
D13*
X136326677Y-106561027D03*
X136326677Y-94654767D03*
D14*
X128706677Y-94654767D03*
D13*
X133945425Y-97631332D03*
D14*
X126325425Y-97631332D03*
D13*
X168473579Y-100607897D03*
D14*
X176093579Y-100607897D03*
D13*
X170854831Y-103584462D03*
D14*
X178474831Y-103584462D03*
D13*
X168473579Y-106561027D03*
D14*
X176093579Y-106561027D03*
D13*
X168473579Y-94654767D03*
D14*
X176093579Y-94654767D03*
X126325425Y-121443852D03*
D13*
X133945425Y-121443852D03*
D14*
X126325425Y-109537592D03*
D13*
X133945425Y-109537592D03*
X136326677Y-112514157D03*
D14*
X128706677Y-112514157D03*
D13*
X133945425Y-115490722D03*
D14*
X126325425Y-115490722D03*
D13*
X170854831Y-121443852D03*
D14*
X178474831Y-121443852D03*
D13*
X170854831Y-109537592D03*
D14*
X178474831Y-109537592D03*
D13*
X168473579Y-112514157D03*
D14*
X176093579Y-112514157D03*
X135731364Y-144541990D03*
D13*
X135731364Y-136921990D03*
D14*
X128706677Y-124420417D03*
D13*
X136326677Y-124420417D03*
D14*
X126325425Y-127396982D03*
D13*
X133945425Y-127396982D03*
D14*
X128706677Y-130373547D03*
D13*
X136326677Y-130373547D03*
D14*
X169068892Y-144541990D03*
D13*
X169068892Y-136921990D03*
D14*
X176093579Y-124420417D03*
D13*
X168473579Y-124420417D03*
D14*
X178474831Y-127396982D03*
D13*
X170854831Y-127396982D03*
D14*
X176093579Y-130373547D03*
D13*
X168473579Y-130373547D03*
X138707929Y-134540738D03*
D14*
X138707929Y-142160738D03*
D13*
X144661059Y-134540738D03*
D14*
X144661059Y-142160738D03*
D13*
X147637624Y-136921990D03*
D14*
X147637624Y-144541990D03*
D13*
X166092327Y-134540738D03*
D14*
X166092327Y-142160738D03*
D13*
X163115762Y-136921990D03*
D14*
X163115762Y-144541990D03*
D13*
X160139197Y-134540738D03*
D14*
X160139197Y-142160738D03*
D13*
X157162632Y-136921990D03*
D14*
X157162632Y-144541990D03*
D28*
X147796372Y-63698491D03*
D29*
X145256372Y-63698491D03*
D14*
X126325425Y-133350112D03*
D13*
X133945425Y-133350112D03*
X150614189Y-134540738D03*
D14*
X150614189Y-142160738D03*
X176093579Y-76795377D03*
D13*
X168473579Y-76795377D03*
X170854831Y-79771942D03*
D14*
X178474831Y-79771942D03*
X178474831Y-97631332D03*
D13*
X170854831Y-97631332D03*
X170854831Y-115490722D03*
D14*
X178474831Y-115490722D03*
X178474831Y-133350112D03*
D13*
X170854831Y-133350112D03*
X154186067Y-134540738D03*
D14*
X154186067Y-142160738D03*
D15*
X119380096Y-121443852D03*
X109220096Y-121443852D03*
D16*
X114300096Y-121443852D03*
D17*
X110490096Y-118903852D03*
X116840096Y-116363852D03*
X116840096Y-135413868D03*
X110490096Y-137953868D03*
D16*
X114300096Y-140493868D03*
D15*
X109220096Y-140493868D03*
X119380096Y-140493868D03*
X214630176Y-64293804D03*
X204470176Y-64293804D03*
D16*
X209550176Y-64293804D03*
D17*
X205740176Y-61753804D03*
X212090176Y-59213804D03*
X193040160Y-59213804D03*
X186690160Y-61753804D03*
D16*
X190500160Y-64293804D03*
D15*
X185420160Y-64293804D03*
X195580160Y-64293804D03*
X195580160Y-83343820D03*
X185420160Y-83343820D03*
D16*
X190500160Y-83343820D03*
D17*
X186690160Y-80803820D03*
X193040160Y-78263820D03*
D15*
X195580160Y-102393836D03*
X185420160Y-102393836D03*
D16*
X190500160Y-102393836D03*
D17*
X186690160Y-99853836D03*
X193040160Y-97313836D03*
X193040160Y-116363852D03*
X186690160Y-118903852D03*
D16*
X190500160Y-121443852D03*
D15*
X185420160Y-121443852D03*
X195580160Y-121443852D03*
D17*
X193040160Y-135413868D03*
X186690160Y-137953868D03*
D16*
X190500160Y-140493868D03*
D15*
X185420160Y-140493868D03*
X195580160Y-140493868D03*
D17*
X107315088Y-135413868D03*
X100965088Y-137953868D03*
D16*
X104775088Y-140493868D03*
D32*
X92837088Y-147478868D03*
X116713088Y-147478868D03*
D16*
X92837088Y-132238868D03*
X116713088Y-132238868D03*
X211963168Y-132238868D03*
X188087168Y-132238868D03*
D32*
X211963168Y-147478868D03*
X188087168Y-147478868D03*
D16*
X200025168Y-140493868D03*
D17*
X196215168Y-137953868D03*
X202565168Y-135413868D03*
D10*
X162401380Y-113704783D03*
D11*
X154781380Y-113704783D03*
X162401380Y-111323531D03*
D10*
X154781380Y-111323531D03*
X142398876Y-58340674D03*
D11*
X150018876Y-58340674D03*
X162401380Y-58340674D03*
D10*
X154781380Y-58340674D03*
M02*
