G04 #@! TF.GenerationSoftware,KiCad,Pcbnew,(5.1.9-0-10_14)*
G04 #@! TF.CreationDate,2021-01-23T16:12:16+01:00*
G04 #@! TF.ProjectId,lumberjack,6c756d62-6572-46a6-9163-6b2e6b696361,1.2*
G04 #@! TF.SameCoordinates,Original*
G04 #@! TF.FileFunction,Soldermask,Bot*
G04 #@! TF.FilePolarity,Negative*
%FSLAX46Y46*%
G04 Gerber Fmt 4.6, Leading zero omitted, Abs format (unit mm)*
G04 Created by KiCad (PCBNEW (5.1.9-0-10_14)) date 2021-01-23 16:12:16*
%MOMM*%
%LPD*%
G01*
G04 APERTURE LIST*
%ADD10C,0.300000*%
%ADD11C,0.010000*%
%ADD12O,1.400000X1.400000*%
%ADD13C,1.400000*%
%ADD14C,1.710000*%
%ADD15R,1.600000X1.600000*%
%ADD16O,1.600000X1.600000*%
%ADD17C,1.701800*%
%ADD18C,3.987800*%
%ADD19C,2.286000*%
%ADD20C,5.000000*%
%ADD21O,11.600000X5.000000*%
%ADD22R,1.200000X1.200000*%
%ADD23C,1.200000*%
%ADD24C,1.600000*%
%ADD25R,1.100000X1.100000*%
%ADD26C,1.100000*%
%ADD27O,2.000000X2.000000*%
%ADD28R,1.700000X1.700000*%
%ADD29O,1.700000X1.700000*%
%ADD30R,1.800000X1.800000*%
%ADD31C,1.800000*%
%ADD32C,2.000000*%
%ADD33C,1.500000*%
%ADD34C,3.048000*%
G04 APERTURE END LIST*
D10*
X291627567Y-147720882D02*
X292341853Y-147720882D01*
X292341853Y-146220882D01*
X290484710Y-146720882D02*
X290484710Y-147720882D01*
X291127567Y-146720882D02*
X291127567Y-147506596D01*
X291056138Y-147649453D01*
X290913281Y-147720882D01*
X290698996Y-147720882D01*
X290556138Y-147649453D01*
X290484710Y-147578025D01*
X289770424Y-147720882D02*
X289770424Y-146720882D01*
X289770424Y-146863739D02*
X289698996Y-146792311D01*
X289556138Y-146720882D01*
X289341853Y-146720882D01*
X289198996Y-146792311D01*
X289127567Y-146935168D01*
X289127567Y-147720882D01*
X289127567Y-146935168D02*
X289056138Y-146792311D01*
X288913281Y-146720882D01*
X288698996Y-146720882D01*
X288556138Y-146792311D01*
X288484710Y-146935168D01*
X288484710Y-147720882D01*
X287770424Y-147720882D02*
X287770424Y-146220882D01*
X287770424Y-146792311D02*
X287627567Y-146720882D01*
X287341853Y-146720882D01*
X287198996Y-146792311D01*
X287127567Y-146863739D01*
X287056138Y-147006596D01*
X287056138Y-147435168D01*
X287127567Y-147578025D01*
X287198996Y-147649453D01*
X287341853Y-147720882D01*
X287627567Y-147720882D01*
X287770424Y-147649453D01*
X285841853Y-147649453D02*
X285984710Y-147720882D01*
X286270424Y-147720882D01*
X286413281Y-147649453D01*
X286484710Y-147506596D01*
X286484710Y-146935168D01*
X286413281Y-146792311D01*
X286270424Y-146720882D01*
X285984710Y-146720882D01*
X285841853Y-146792311D01*
X285770424Y-146935168D01*
X285770424Y-147078025D01*
X286484710Y-147220882D01*
X285127567Y-147720882D02*
X285127567Y-146720882D01*
X285127567Y-147006596D02*
X285056138Y-146863739D01*
X284984710Y-146792311D01*
X284841853Y-146720882D01*
X284698996Y-146720882D01*
X284198996Y-146720882D02*
X284198996Y-148006596D01*
X284270424Y-148149453D01*
X284413281Y-148220882D01*
X284484710Y-148220882D01*
X284198996Y-146220882D02*
X284270424Y-146292311D01*
X284198996Y-146363739D01*
X284127567Y-146292311D01*
X284198996Y-146220882D01*
X284198996Y-146363739D01*
X282841853Y-147720882D02*
X282841853Y-146935168D01*
X282913281Y-146792311D01*
X283056138Y-146720882D01*
X283341853Y-146720882D01*
X283484710Y-146792311D01*
X282841853Y-147649453D02*
X282984710Y-147720882D01*
X283341853Y-147720882D01*
X283484710Y-147649453D01*
X283556138Y-147506596D01*
X283556138Y-147363739D01*
X283484710Y-147220882D01*
X283341853Y-147149453D01*
X282984710Y-147149453D01*
X282841853Y-147078025D01*
X281484710Y-147649453D02*
X281627567Y-147720882D01*
X281913281Y-147720882D01*
X282056138Y-147649453D01*
X282127567Y-147578025D01*
X282198996Y-147435168D01*
X282198996Y-147006596D01*
X282127567Y-146863739D01*
X282056138Y-146792311D01*
X281913281Y-146720882D01*
X281627567Y-146720882D01*
X281484710Y-146792311D01*
X280841853Y-147720882D02*
X280841853Y-146220882D01*
X280698996Y-147149453D02*
X280270424Y-147720882D01*
X280270424Y-146720882D02*
X280841853Y-147292311D01*
X278484710Y-147720882D02*
X278484710Y-146720882D01*
X278484710Y-147006596D02*
X278413281Y-146863739D01*
X278341853Y-146792311D01*
X278198996Y-146720882D01*
X278056138Y-146720882D01*
X276984710Y-147649453D02*
X277127567Y-147720882D01*
X277413281Y-147720882D01*
X277556138Y-147649453D01*
X277627567Y-147506596D01*
X277627567Y-146935168D01*
X277556138Y-146792311D01*
X277413281Y-146720882D01*
X277127567Y-146720882D01*
X276984710Y-146792311D01*
X276913281Y-146935168D01*
X276913281Y-147078025D01*
X277627567Y-147220882D01*
X276413281Y-146720882D02*
X276056138Y-147720882D01*
X275698996Y-146720882D01*
X274341853Y-147720882D02*
X275198996Y-147720882D01*
X274770424Y-147720882D02*
X274770424Y-146220882D01*
X274913281Y-146435168D01*
X275056138Y-146578025D01*
X275198996Y-146649453D01*
X273698996Y-147578025D02*
X273627567Y-147649453D01*
X273698996Y-147720882D01*
X273770424Y-147649453D01*
X273698996Y-147578025D01*
X273698996Y-147720882D01*
X273056138Y-146363739D02*
X272984710Y-146292311D01*
X272841853Y-146220882D01*
X272484710Y-146220882D01*
X272341853Y-146292311D01*
X272270424Y-146363739D01*
X272198996Y-146506596D01*
X272198996Y-146649453D01*
X272270424Y-146863739D01*
X273127567Y-147720882D01*
X272198996Y-147720882D01*
X269770424Y-146720882D02*
X269770424Y-147720882D01*
X270413281Y-146720882D02*
X270413281Y-147506596D01*
X270341853Y-147649453D01*
X270198996Y-147720882D01*
X269984710Y-147720882D01*
X269841853Y-147649453D01*
X269770424Y-147578025D01*
X267984710Y-146149453D02*
X269270424Y-148078025D01*
X267484710Y-146720882D02*
X267484710Y-148220882D01*
X267484710Y-146792311D02*
X267341853Y-146720882D01*
X267056138Y-146720882D01*
X266913281Y-146792311D01*
X266841853Y-146863739D01*
X266770424Y-147006596D01*
X266770424Y-147435168D01*
X266841853Y-147578025D01*
X266913281Y-147649453D01*
X267056138Y-147720882D01*
X267341853Y-147720882D01*
X267484710Y-147649453D01*
X265556138Y-147649453D02*
X265698996Y-147720882D01*
X265984710Y-147720882D01*
X266127567Y-147649453D01*
X266198996Y-147506596D01*
X266198996Y-146935168D01*
X266127567Y-146792311D01*
X265984710Y-146720882D01*
X265698996Y-146720882D01*
X265556138Y-146792311D01*
X265484710Y-146935168D01*
X265484710Y-147078025D01*
X266198996Y-147220882D01*
X264270424Y-147649453D02*
X264413281Y-147720882D01*
X264698996Y-147720882D01*
X264841853Y-147649453D01*
X264913281Y-147506596D01*
X264913281Y-146935168D01*
X264841853Y-146792311D01*
X264698996Y-146720882D01*
X264413281Y-146720882D01*
X264270424Y-146792311D01*
X264198996Y-146935168D01*
X264198996Y-147078025D01*
X264913281Y-147220882D01*
X263556138Y-146720882D02*
X263556138Y-148006596D01*
X263627567Y-148149453D01*
X263770424Y-148220882D01*
X263841853Y-148220882D01*
X263556138Y-146220882D02*
X263627567Y-146292311D01*
X263556138Y-146363739D01*
X263484710Y-146292311D01*
X263556138Y-146220882D01*
X263556138Y-146363739D01*
X262270424Y-147649453D02*
X262413281Y-147720882D01*
X262698996Y-147720882D01*
X262841853Y-147649453D01*
X262913281Y-147506596D01*
X262913281Y-146935168D01*
X262841853Y-146792311D01*
X262698996Y-146720882D01*
X262413281Y-146720882D01*
X262270424Y-146792311D01*
X262198996Y-146935168D01*
X262198996Y-147078025D01*
X262913281Y-147220882D01*
X261556138Y-147720882D02*
X261556138Y-146220882D01*
X260913281Y-147720882D02*
X260913281Y-146935168D01*
X260984710Y-146792311D01*
X261127567Y-146720882D01*
X261341853Y-146720882D01*
X261484710Y-146792311D01*
X261556138Y-146863739D01*
X258770424Y-146220882D02*
X258627567Y-146220882D01*
X258484710Y-146292311D01*
X258413281Y-146363739D01*
X258341853Y-146506596D01*
X258270424Y-146792311D01*
X258270424Y-147149453D01*
X258341853Y-147435168D01*
X258413281Y-147578025D01*
X258484710Y-147649453D01*
X258627567Y-147720882D01*
X258770424Y-147720882D01*
X258913281Y-147649453D01*
X258984710Y-147578025D01*
X259056138Y-147435168D01*
X259127567Y-147149453D01*
X259127567Y-146792311D01*
X259056138Y-146506596D01*
X258984710Y-146363739D01*
X258913281Y-146292311D01*
X258770424Y-146220882D01*
X256841853Y-147720882D02*
X257698996Y-147720882D01*
X257270424Y-147720882D02*
X257270424Y-146220882D01*
X257413281Y-146435168D01*
X257556138Y-146578025D01*
X257698996Y-146649453D01*
X255127567Y-146149453D02*
X256413281Y-148078025D01*
X254698996Y-146363739D02*
X254627567Y-146292311D01*
X254484710Y-146220882D01*
X254127567Y-146220882D01*
X253984710Y-146292311D01*
X253913281Y-146363739D01*
X253841853Y-146506596D01*
X253841853Y-146649453D01*
X253913281Y-146863739D01*
X254770424Y-147720882D01*
X253841853Y-147720882D01*
X252913281Y-146220882D02*
X252770424Y-146220882D01*
X252627567Y-146292311D01*
X252556138Y-146363739D01*
X252484710Y-146506596D01*
X252413281Y-146792311D01*
X252413281Y-147149453D01*
X252484710Y-147435168D01*
X252556138Y-147578025D01*
X252627567Y-147649453D01*
X252770424Y-147720882D01*
X252913281Y-147720882D01*
X253056138Y-147649453D01*
X253127567Y-147578025D01*
X253198996Y-147435168D01*
X253270424Y-147149453D01*
X253270424Y-146792311D01*
X253198996Y-146506596D01*
X253127567Y-146363739D01*
X253056138Y-146292311D01*
X252913281Y-146220882D01*
X251841853Y-146363739D02*
X251770424Y-146292311D01*
X251627567Y-146220882D01*
X251270424Y-146220882D01*
X251127567Y-146292311D01*
X251056138Y-146363739D01*
X250984710Y-146506596D01*
X250984710Y-146649453D01*
X251056138Y-146863739D01*
X251913281Y-147720882D01*
X250984710Y-147720882D01*
X249556138Y-147720882D02*
X250413281Y-147720882D01*
X249984710Y-147720882D02*
X249984710Y-146220882D01*
X250127567Y-146435168D01*
X250270424Y-146578025D01*
X250413281Y-146649453D01*
D11*
G36*
X150868738Y-118670540D02*
G01*
X150794085Y-118707762D01*
X150728193Y-118776296D01*
X150710047Y-118801683D01*
X150690279Y-118834901D01*
X150677452Y-118870980D01*
X150670114Y-118919133D01*
X150666811Y-118988571D01*
X150666086Y-119080241D01*
X150669361Y-119205865D01*
X150680747Y-119300189D01*
X150702583Y-119370558D01*
X150737205Y-119424321D01*
X150786954Y-119468823D01*
X150790610Y-119471458D01*
X150839639Y-119498412D01*
X150898679Y-119511747D01*
X150973765Y-119515035D01*
X151095829Y-119515035D01*
X151095880Y-119633532D01*
X151097016Y-119699527D01*
X151103938Y-119738237D01*
X151122026Y-119761454D01*
X151156662Y-119780968D01*
X151164979Y-119784955D01*
X151203904Y-119803638D01*
X151234041Y-119815438D01*
X151256450Y-119816457D01*
X151272191Y-119802796D01*
X151282322Y-119770557D01*
X151287901Y-119715839D01*
X151289989Y-119634746D01*
X151289643Y-119523379D01*
X151287924Y-119377837D01*
X151287387Y-119334304D01*
X151285452Y-119184240D01*
X151283720Y-119086077D01*
X151095932Y-119086077D01*
X151094876Y-119169399D01*
X151090186Y-119223915D01*
X151079573Y-119259872D01*
X151060752Y-119287517D01*
X151047974Y-119301000D01*
X150995734Y-119340452D01*
X150949482Y-119343663D01*
X150901757Y-119311084D01*
X150900547Y-119309881D01*
X150881130Y-119284703D01*
X150869317Y-119250482D01*
X150863359Y-119197783D01*
X150861504Y-119117166D01*
X150861470Y-119099306D01*
X150865954Y-118988210D01*
X150880550Y-118911196D01*
X150906974Y-118864182D01*
X150946941Y-118843085D01*
X150970040Y-118840958D01*
X151024862Y-118850935D01*
X151062466Y-118883787D01*
X151085101Y-118943892D01*
X151095018Y-119035633D01*
X151095932Y-119086077D01*
X151283720Y-119086077D01*
X151283402Y-119068095D01*
X151280751Y-118980714D01*
X151277018Y-118916940D01*
X151271717Y-118871617D01*
X151264366Y-118839590D01*
X151254481Y-118815703D01*
X151241578Y-118794799D01*
X151236045Y-118786933D01*
X151162655Y-118712630D01*
X151069864Y-118670502D01*
X150962528Y-118658757D01*
X150868738Y-118670540D01*
G37*
X150868738Y-118670540D02*
X150794085Y-118707762D01*
X150728193Y-118776296D01*
X150710047Y-118801683D01*
X150690279Y-118834901D01*
X150677452Y-118870980D01*
X150670114Y-118919133D01*
X150666811Y-118988571D01*
X150666086Y-119080241D01*
X150669361Y-119205865D01*
X150680747Y-119300189D01*
X150702583Y-119370558D01*
X150737205Y-119424321D01*
X150786954Y-119468823D01*
X150790610Y-119471458D01*
X150839639Y-119498412D01*
X150898679Y-119511747D01*
X150973765Y-119515035D01*
X151095829Y-119515035D01*
X151095880Y-119633532D01*
X151097016Y-119699527D01*
X151103938Y-119738237D01*
X151122026Y-119761454D01*
X151156662Y-119780968D01*
X151164979Y-119784955D01*
X151203904Y-119803638D01*
X151234041Y-119815438D01*
X151256450Y-119816457D01*
X151272191Y-119802796D01*
X151282322Y-119770557D01*
X151287901Y-119715839D01*
X151289989Y-119634746D01*
X151289643Y-119523379D01*
X151287924Y-119377837D01*
X151287387Y-119334304D01*
X151285452Y-119184240D01*
X151283720Y-119086077D01*
X151095932Y-119086077D01*
X151094876Y-119169399D01*
X151090186Y-119223915D01*
X151079573Y-119259872D01*
X151060752Y-119287517D01*
X151047974Y-119301000D01*
X150995734Y-119340452D01*
X150949482Y-119343663D01*
X150901757Y-119311084D01*
X150900547Y-119309881D01*
X150881130Y-119284703D01*
X150869317Y-119250482D01*
X150863359Y-119197783D01*
X150861504Y-119117166D01*
X150861470Y-119099306D01*
X150865954Y-118988210D01*
X150880550Y-118911196D01*
X150906974Y-118864182D01*
X150946941Y-118843085D01*
X150970040Y-118840958D01*
X151024862Y-118850935D01*
X151062466Y-118883787D01*
X151085101Y-118943892D01*
X151095018Y-119035633D01*
X151095932Y-119086077D01*
X151283720Y-119086077D01*
X151283402Y-119068095D01*
X151280751Y-118980714D01*
X151277018Y-118916940D01*
X151271717Y-118871617D01*
X151264366Y-118839590D01*
X151254481Y-118815703D01*
X151241578Y-118794799D01*
X151236045Y-118786933D01*
X151162655Y-118712630D01*
X151069864Y-118670502D01*
X150962528Y-118658757D01*
X150868738Y-118670540D01*
G36*
X149365960Y-118681124D02*
G01*
X149303257Y-118717393D01*
X149259663Y-118753393D01*
X149227779Y-118791110D01*
X149205814Y-118837234D01*
X149191975Y-118898456D01*
X149184471Y-118981466D01*
X149181507Y-119092954D01*
X149181163Y-119173097D01*
X149181163Y-119468100D01*
X149347239Y-119542550D01*
X149357009Y-119219437D01*
X149361045Y-119098764D01*
X149365280Y-119011176D01*
X149370527Y-118950685D01*
X149377599Y-118911303D01*
X149387313Y-118887042D01*
X149400480Y-118871915D01*
X149404705Y-118868641D01*
X149468715Y-118843069D01*
X149533416Y-118853188D01*
X149571932Y-118880035D01*
X149587599Y-118899059D01*
X149598444Y-118924023D01*
X149605336Y-118961869D01*
X149609145Y-119019537D01*
X149610741Y-119103970D01*
X149611009Y-119191963D01*
X149611061Y-119302358D01*
X149612952Y-119380498D01*
X149619279Y-119433200D01*
X149632641Y-119467277D01*
X149655639Y-119489546D01*
X149690870Y-119506822D01*
X149737927Y-119524773D01*
X149789321Y-119544313D01*
X149783203Y-119197520D01*
X149780740Y-119072503D01*
X149777857Y-118980117D01*
X149773726Y-118913916D01*
X149767517Y-118867455D01*
X149758398Y-118834291D01*
X149745541Y-118807979D01*
X149730040Y-118784764D01*
X149655253Y-118710604D01*
X149563996Y-118667719D01*
X149464741Y-118657447D01*
X149365960Y-118681124D01*
G37*
X149365960Y-118681124D02*
X149303257Y-118717393D01*
X149259663Y-118753393D01*
X149227779Y-118791110D01*
X149205814Y-118837234D01*
X149191975Y-118898456D01*
X149184471Y-118981466D01*
X149181507Y-119092954D01*
X149181163Y-119173097D01*
X149181163Y-119468100D01*
X149347239Y-119542550D01*
X149357009Y-119219437D01*
X149361045Y-119098764D01*
X149365280Y-119011176D01*
X149370527Y-118950685D01*
X149377599Y-118911303D01*
X149387313Y-118887042D01*
X149400480Y-118871915D01*
X149404705Y-118868641D01*
X149468715Y-118843069D01*
X149533416Y-118853188D01*
X149571932Y-118880035D01*
X149587599Y-118899059D01*
X149598444Y-118924023D01*
X149605336Y-118961869D01*
X149609145Y-119019537D01*
X149610741Y-119103970D01*
X149611009Y-119191963D01*
X149611061Y-119302358D01*
X149612952Y-119380498D01*
X149619279Y-119433200D01*
X149632641Y-119467277D01*
X149655639Y-119489546D01*
X149690870Y-119506822D01*
X149737927Y-119524773D01*
X149789321Y-119544313D01*
X149783203Y-119197520D01*
X149780740Y-119072503D01*
X149777857Y-118980117D01*
X149773726Y-118913916D01*
X149767517Y-118867455D01*
X149758398Y-118834291D01*
X149745541Y-118807979D01*
X149730040Y-118784764D01*
X149655253Y-118710604D01*
X149563996Y-118667719D01*
X149464741Y-118657447D01*
X149365960Y-118681124D01*
G36*
X151620738Y-118673291D02*
G01*
X151529160Y-118721444D01*
X151461575Y-118798940D01*
X151437567Y-118848762D01*
X151418886Y-118923568D01*
X151409323Y-119018087D01*
X151408416Y-119121245D01*
X151415703Y-119221970D01*
X151430721Y-119309188D01*
X151453009Y-119371826D01*
X151459859Y-119382614D01*
X151540992Y-119463140D01*
X151637358Y-119511371D01*
X151741923Y-119525485D01*
X151847656Y-119503664D01*
X151877081Y-119490582D01*
X151934383Y-119450266D01*
X151984674Y-119396810D01*
X151989427Y-119390030D01*
X152008746Y-119357356D01*
X152021516Y-119322429D01*
X152029060Y-119276449D01*
X152032700Y-119210619D01*
X152033759Y-119116140D01*
X152033778Y-119094958D01*
X152033730Y-119088217D01*
X151838393Y-119088217D01*
X151837256Y-119177384D01*
X151832783Y-119236555D01*
X151823378Y-119274776D01*
X151807448Y-119301088D01*
X151799316Y-119309881D01*
X151752566Y-119343296D01*
X151707177Y-119341772D01*
X151661284Y-119312787D01*
X151633912Y-119281844D01*
X151617701Y-119236678D01*
X151608598Y-119165455D01*
X151607973Y-119157149D01*
X151606420Y-119028072D01*
X151622659Y-118932207D01*
X151656472Y-118870142D01*
X151707640Y-118842467D01*
X151725904Y-118840958D01*
X151773864Y-118848548D01*
X151806671Y-118874843D01*
X151826729Y-118925130D01*
X151836446Y-119004699D01*
X151838393Y-119088217D01*
X152033730Y-119088217D01*
X152033050Y-118994284D01*
X152029995Y-118923941D01*
X152023302Y-118875198D01*
X152011664Y-118839323D01*
X151993771Y-118807583D01*
X151989816Y-118801683D01*
X151923357Y-118722139D01*
X151850939Y-118675964D01*
X151762775Y-118657634D01*
X151732837Y-118656738D01*
X151620738Y-118673291D01*
G37*
X151620738Y-118673291D02*
X151529160Y-118721444D01*
X151461575Y-118798940D01*
X151437567Y-118848762D01*
X151418886Y-118923568D01*
X151409323Y-119018087D01*
X151408416Y-119121245D01*
X151415703Y-119221970D01*
X151430721Y-119309188D01*
X151453009Y-119371826D01*
X151459859Y-119382614D01*
X151540992Y-119463140D01*
X151637358Y-119511371D01*
X151741923Y-119525485D01*
X151847656Y-119503664D01*
X151877081Y-119490582D01*
X151934383Y-119450266D01*
X151984674Y-119396810D01*
X151989427Y-119390030D01*
X152008746Y-119357356D01*
X152021516Y-119322429D01*
X152029060Y-119276449D01*
X152032700Y-119210619D01*
X152033759Y-119116140D01*
X152033778Y-119094958D01*
X152033730Y-119088217D01*
X151838393Y-119088217D01*
X151837256Y-119177384D01*
X151832783Y-119236555D01*
X151823378Y-119274776D01*
X151807448Y-119301088D01*
X151799316Y-119309881D01*
X151752566Y-119343296D01*
X151707177Y-119341772D01*
X151661284Y-119312787D01*
X151633912Y-119281844D01*
X151617701Y-119236678D01*
X151608598Y-119165455D01*
X151607973Y-119157149D01*
X151606420Y-119028072D01*
X151622659Y-118932207D01*
X151656472Y-118870142D01*
X151707640Y-118842467D01*
X151725904Y-118840958D01*
X151773864Y-118848548D01*
X151806671Y-118874843D01*
X151826729Y-118925130D01*
X151836446Y-119004699D01*
X151838393Y-119088217D01*
X152033730Y-119088217D01*
X152033050Y-118994284D01*
X152029995Y-118923941D01*
X152023302Y-118875198D01*
X152011664Y-118839323D01*
X151993771Y-118807583D01*
X151989816Y-118801683D01*
X151923357Y-118722139D01*
X151850939Y-118675964D01*
X151762775Y-118657634D01*
X151732837Y-118656738D01*
X151620738Y-118673291D01*
G36*
X150103370Y-118685780D02*
G01*
X150026338Y-118737602D01*
X149966808Y-118812447D01*
X149931246Y-118907689D01*
X149924053Y-118977791D01*
X149924870Y-119007044D01*
X149931710Y-119029442D01*
X149950512Y-119049509D01*
X149987216Y-119071768D01*
X150047762Y-119100744D01*
X150138090Y-119140962D01*
X150138547Y-119141164D01*
X150221691Y-119179245D01*
X150289871Y-119213060D01*
X150336119Y-119238968D01*
X150353466Y-119253330D01*
X150353470Y-119253446D01*
X150338181Y-119284720D01*
X150302428Y-119319192D01*
X150261382Y-119344025D01*
X150240587Y-119348958D01*
X150183854Y-119331897D01*
X150134997Y-119289168D01*
X150111159Y-119242190D01*
X150088227Y-119207557D01*
X150043306Y-119168116D01*
X149990501Y-119134044D01*
X149943914Y-119115515D01*
X149934172Y-119114497D01*
X149923206Y-119131250D01*
X149922545Y-119174074D01*
X149930604Y-119231816D01*
X149945797Y-119293324D01*
X149966538Y-119347444D01*
X149967586Y-119349545D01*
X150030003Y-119436695D01*
X150110898Y-119495974D01*
X150202768Y-119525069D01*
X150298111Y-119521669D01*
X150389426Y-119483463D01*
X150393486Y-119480776D01*
X150465318Y-119415677D01*
X150512551Y-119330740D01*
X150538690Y-119219056D01*
X150542198Y-119187678D01*
X150548411Y-119039571D01*
X150540963Y-118970503D01*
X150353470Y-118970503D01*
X150351034Y-119013587D01*
X150337710Y-119026161D01*
X150304492Y-119016754D01*
X150252130Y-118994518D01*
X150193600Y-118966645D01*
X150192145Y-118965907D01*
X150142535Y-118939812D01*
X150122624Y-118922398D01*
X150127534Y-118904142D01*
X150148208Y-118880155D01*
X150200805Y-118845441D01*
X150257447Y-118842891D01*
X150308255Y-118868154D01*
X150343348Y-118916882D01*
X150353470Y-118970503D01*
X150540963Y-118970503D01*
X150535632Y-118921071D01*
X150502846Y-118827090D01*
X150457203Y-118761250D01*
X150374822Y-118694716D01*
X150284078Y-118661711D01*
X150191439Y-118659608D01*
X150103370Y-118685780D01*
G37*
X150103370Y-118685780D02*
X150026338Y-118737602D01*
X149966808Y-118812447D01*
X149931246Y-118907689D01*
X149924053Y-118977791D01*
X149924870Y-119007044D01*
X149931710Y-119029442D01*
X149950512Y-119049509D01*
X149987216Y-119071768D01*
X150047762Y-119100744D01*
X150138090Y-119140962D01*
X150138547Y-119141164D01*
X150221691Y-119179245D01*
X150289871Y-119213060D01*
X150336119Y-119238968D01*
X150353466Y-119253330D01*
X150353470Y-119253446D01*
X150338181Y-119284720D01*
X150302428Y-119319192D01*
X150261382Y-119344025D01*
X150240587Y-119348958D01*
X150183854Y-119331897D01*
X150134997Y-119289168D01*
X150111159Y-119242190D01*
X150088227Y-119207557D01*
X150043306Y-119168116D01*
X149990501Y-119134044D01*
X149943914Y-119115515D01*
X149934172Y-119114497D01*
X149923206Y-119131250D01*
X149922545Y-119174074D01*
X149930604Y-119231816D01*
X149945797Y-119293324D01*
X149966538Y-119347444D01*
X149967586Y-119349545D01*
X150030003Y-119436695D01*
X150110898Y-119495974D01*
X150202768Y-119525069D01*
X150298111Y-119521669D01*
X150389426Y-119483463D01*
X150393486Y-119480776D01*
X150465318Y-119415677D01*
X150512551Y-119330740D01*
X150538690Y-119219056D01*
X150542198Y-119187678D01*
X150548411Y-119039571D01*
X150540963Y-118970503D01*
X150353470Y-118970503D01*
X150351034Y-119013587D01*
X150337710Y-119026161D01*
X150304492Y-119016754D01*
X150252130Y-118994518D01*
X150193600Y-118966645D01*
X150192145Y-118965907D01*
X150142535Y-118939812D01*
X150122624Y-118922398D01*
X150127534Y-118904142D01*
X150148208Y-118880155D01*
X150200805Y-118845441D01*
X150257447Y-118842891D01*
X150308255Y-118868154D01*
X150343348Y-118916882D01*
X150353470Y-118970503D01*
X150540963Y-118970503D01*
X150535632Y-118921071D01*
X150502846Y-118827090D01*
X150457203Y-118761250D01*
X150374822Y-118694716D01*
X150284078Y-118661711D01*
X150191439Y-118659608D01*
X150103370Y-118685780D01*
G36*
X148477778Y-118578155D02*
G01*
X148472052Y-118658015D01*
X148465475Y-118705074D01*
X148456362Y-118725601D01*
X148443026Y-118725864D01*
X148438701Y-118723413D01*
X148381180Y-118705671D01*
X148306356Y-118706707D01*
X148230285Y-118724945D01*
X148182706Y-118748540D01*
X148133922Y-118786233D01*
X148098260Y-118828890D01*
X148073779Y-118883092D01*
X148058537Y-118955419D01*
X148050594Y-119052454D01*
X148048008Y-119180777D01*
X148047962Y-119205393D01*
X148047932Y-119481905D01*
X148109463Y-119503355D01*
X148153165Y-119517947D01*
X148177142Y-119524741D01*
X148177847Y-119524804D01*
X148180209Y-119506380D01*
X148182218Y-119455561D01*
X148183723Y-119379028D01*
X148184571Y-119283465D01*
X148184701Y-119225364D01*
X148184973Y-119110806D01*
X148186372Y-119028702D01*
X148189775Y-118972428D01*
X148196057Y-118935361D01*
X148206095Y-118910879D01*
X148220763Y-118892360D01*
X148229922Y-118883441D01*
X148292835Y-118847501D01*
X148361488Y-118844810D01*
X148423776Y-118875205D01*
X148435295Y-118886179D01*
X148452191Y-118906814D01*
X148463910Y-118931291D01*
X148471391Y-118966682D01*
X148475570Y-119020061D01*
X148477387Y-119098501D01*
X148477778Y-119206652D01*
X148477778Y-119481905D01*
X148539309Y-119503355D01*
X148583011Y-119517947D01*
X148606988Y-119524741D01*
X148607694Y-119524804D01*
X148609498Y-119506104D01*
X148611124Y-119453357D01*
X148612507Y-119371592D01*
X148613582Y-119265840D01*
X148614284Y-119141129D01*
X148614547Y-119002490D01*
X148614547Y-118467841D01*
X148487547Y-118414271D01*
X148477778Y-118578155D01*
G37*
X148477778Y-118578155D02*
X148472052Y-118658015D01*
X148465475Y-118705074D01*
X148456362Y-118725601D01*
X148443026Y-118725864D01*
X148438701Y-118723413D01*
X148381180Y-118705671D01*
X148306356Y-118706707D01*
X148230285Y-118724945D01*
X148182706Y-118748540D01*
X148133922Y-118786233D01*
X148098260Y-118828890D01*
X148073779Y-118883092D01*
X148058537Y-118955419D01*
X148050594Y-119052454D01*
X148048008Y-119180777D01*
X148047962Y-119205393D01*
X148047932Y-119481905D01*
X148109463Y-119503355D01*
X148153165Y-119517947D01*
X148177142Y-119524741D01*
X148177847Y-119524804D01*
X148180209Y-119506380D01*
X148182218Y-119455561D01*
X148183723Y-119379028D01*
X148184571Y-119283465D01*
X148184701Y-119225364D01*
X148184973Y-119110806D01*
X148186372Y-119028702D01*
X148189775Y-118972428D01*
X148196057Y-118935361D01*
X148206095Y-118910879D01*
X148220763Y-118892360D01*
X148229922Y-118883441D01*
X148292835Y-118847501D01*
X148361488Y-118844810D01*
X148423776Y-118875205D01*
X148435295Y-118886179D01*
X148452191Y-118906814D01*
X148463910Y-118931291D01*
X148471391Y-118966682D01*
X148475570Y-119020061D01*
X148477387Y-119098501D01*
X148477778Y-119206652D01*
X148477778Y-119481905D01*
X148539309Y-119503355D01*
X148583011Y-119517947D01*
X148606988Y-119524741D01*
X148607694Y-119524804D01*
X148609498Y-119506104D01*
X148611124Y-119453357D01*
X148612507Y-119371592D01*
X148613582Y-119265840D01*
X148614284Y-119141129D01*
X148614547Y-119002490D01*
X148614547Y-118467841D01*
X148487547Y-118414271D01*
X148477778Y-118578155D01*
G36*
X147584123Y-118712338D02*
G01*
X147507564Y-118740768D01*
X147506688Y-118741314D01*
X147459339Y-118776162D01*
X147424383Y-118816887D01*
X147399799Y-118869960D01*
X147383562Y-118941849D01*
X147373649Y-119039027D01*
X147368038Y-119167963D01*
X147367547Y-119186333D01*
X147360483Y-119463322D01*
X147419929Y-119494063D01*
X147462943Y-119514837D01*
X147488914Y-119524681D01*
X147490115Y-119524804D01*
X147494610Y-119506641D01*
X147498180Y-119457647D01*
X147500376Y-119386066D01*
X147500855Y-119328103D01*
X147500866Y-119234205D01*
X147505158Y-119175238D01*
X147520121Y-119147114D01*
X147552142Y-119145741D01*
X147607610Y-119167033D01*
X147691355Y-119206171D01*
X147752935Y-119238678D01*
X147784607Y-119266880D01*
X147793918Y-119297617D01*
X147793932Y-119299139D01*
X147778567Y-119352089D01*
X147733077Y-119380695D01*
X147663458Y-119384838D01*
X147613311Y-119384119D01*
X147586870Y-119398562D01*
X147570381Y-119433253D01*
X147560891Y-119477451D01*
X147574567Y-119502528D01*
X147579717Y-119506117D01*
X147628199Y-119520531D01*
X147696093Y-119522572D01*
X147766012Y-119513018D01*
X147815556Y-119495557D01*
X147884054Y-119437399D01*
X147922990Y-119356443D01*
X147930701Y-119293195D01*
X147924817Y-119236146D01*
X147903523Y-119189577D01*
X147861359Y-119148216D01*
X147792865Y-119106790D01*
X147692580Y-119060028D01*
X147686470Y-119057385D01*
X147596134Y-119015652D01*
X147540389Y-118981426D01*
X147516495Y-118950670D01*
X147521711Y-118919346D01*
X147553296Y-118883418D01*
X147562741Y-118875151D01*
X147626007Y-118843093D01*
X147691560Y-118844442D01*
X147748652Y-118875873D01*
X147786531Y-118934059D01*
X147790050Y-118945481D01*
X147824324Y-119000872D01*
X147867815Y-119027553D01*
X147930701Y-119053995D01*
X147930701Y-118985583D01*
X147911572Y-118886145D01*
X147854793Y-118794937D01*
X147825246Y-118764424D01*
X147758082Y-118725263D01*
X147672668Y-118707535D01*
X147584123Y-118712338D01*
G37*
X147584123Y-118712338D02*
X147507564Y-118740768D01*
X147506688Y-118741314D01*
X147459339Y-118776162D01*
X147424383Y-118816887D01*
X147399799Y-118869960D01*
X147383562Y-118941849D01*
X147373649Y-119039027D01*
X147368038Y-119167963D01*
X147367547Y-119186333D01*
X147360483Y-119463322D01*
X147419929Y-119494063D01*
X147462943Y-119514837D01*
X147488914Y-119524681D01*
X147490115Y-119524804D01*
X147494610Y-119506641D01*
X147498180Y-119457647D01*
X147500376Y-119386066D01*
X147500855Y-119328103D01*
X147500866Y-119234205D01*
X147505158Y-119175238D01*
X147520121Y-119147114D01*
X147552142Y-119145741D01*
X147607610Y-119167033D01*
X147691355Y-119206171D01*
X147752935Y-119238678D01*
X147784607Y-119266880D01*
X147793918Y-119297617D01*
X147793932Y-119299139D01*
X147778567Y-119352089D01*
X147733077Y-119380695D01*
X147663458Y-119384838D01*
X147613311Y-119384119D01*
X147586870Y-119398562D01*
X147570381Y-119433253D01*
X147560891Y-119477451D01*
X147574567Y-119502528D01*
X147579717Y-119506117D01*
X147628199Y-119520531D01*
X147696093Y-119522572D01*
X147766012Y-119513018D01*
X147815556Y-119495557D01*
X147884054Y-119437399D01*
X147922990Y-119356443D01*
X147930701Y-119293195D01*
X147924817Y-119236146D01*
X147903523Y-119189577D01*
X147861359Y-119148216D01*
X147792865Y-119106790D01*
X147692580Y-119060028D01*
X147686470Y-119057385D01*
X147596134Y-119015652D01*
X147540389Y-118981426D01*
X147516495Y-118950670D01*
X147521711Y-118919346D01*
X147553296Y-118883418D01*
X147562741Y-118875151D01*
X147626007Y-118843093D01*
X147691560Y-118844442D01*
X147748652Y-118875873D01*
X147786531Y-118934059D01*
X147790050Y-118945481D01*
X147824324Y-119000872D01*
X147867815Y-119027553D01*
X147930701Y-119053995D01*
X147930701Y-118985583D01*
X147911572Y-118886145D01*
X147854793Y-118794937D01*
X147825246Y-118764424D01*
X147758082Y-118725263D01*
X147672668Y-118707535D01*
X147584123Y-118712338D01*
G36*
X146924262Y-118710705D02*
G01*
X146835507Y-118743456D01*
X146763602Y-118801385D01*
X146735480Y-118842163D01*
X146704822Y-118916989D01*
X146705459Y-118971093D01*
X146737637Y-119007481D01*
X146749543Y-119013668D01*
X146800949Y-119032960D01*
X146827202Y-119028017D01*
X146836094Y-118995622D01*
X146836547Y-118977727D01*
X146852827Y-118911894D01*
X146895259Y-118865842D01*
X146954236Y-118843599D01*
X147020149Y-118849196D01*
X147073729Y-118878264D01*
X147091826Y-118894845D01*
X147104653Y-118914960D01*
X147113318Y-118945367D01*
X147118928Y-118992823D01*
X147122589Y-119064085D01*
X147125409Y-119165910D01*
X147126140Y-119198150D01*
X147128804Y-119308445D01*
X147131832Y-119386071D01*
X147136374Y-119437431D01*
X147143578Y-119468925D01*
X147154591Y-119486955D01*
X147170564Y-119497923D01*
X147180790Y-119502768D01*
X147224218Y-119519336D01*
X147249782Y-119524804D01*
X147258229Y-119506542D01*
X147263385Y-119451331D01*
X147265278Y-119358534D01*
X147263935Y-119227513D01*
X147263517Y-119207304D01*
X147260566Y-119087768D01*
X147257076Y-119000484D01*
X147252110Y-118938626D01*
X147244731Y-118895371D01*
X147234000Y-118863895D01*
X147218979Y-118837374D01*
X147211122Y-118826010D01*
X147166071Y-118775727D01*
X147115684Y-118736616D01*
X147109516Y-118733202D01*
X147019166Y-118706247D01*
X146924262Y-118710705D01*
G37*
X146924262Y-118710705D02*
X146835507Y-118743456D01*
X146763602Y-118801385D01*
X146735480Y-118842163D01*
X146704822Y-118916989D01*
X146705459Y-118971093D01*
X146737637Y-119007481D01*
X146749543Y-119013668D01*
X146800949Y-119032960D01*
X146827202Y-119028017D01*
X146836094Y-118995622D01*
X146836547Y-118977727D01*
X146852827Y-118911894D01*
X146895259Y-118865842D01*
X146954236Y-118843599D01*
X147020149Y-118849196D01*
X147073729Y-118878264D01*
X147091826Y-118894845D01*
X147104653Y-118914960D01*
X147113318Y-118945367D01*
X147118928Y-118992823D01*
X147122589Y-119064085D01*
X147125409Y-119165910D01*
X147126140Y-119198150D01*
X147128804Y-119308445D01*
X147131832Y-119386071D01*
X147136374Y-119437431D01*
X147143578Y-119468925D01*
X147154591Y-119486955D01*
X147170564Y-119497923D01*
X147180790Y-119502768D01*
X147224218Y-119519336D01*
X147249782Y-119524804D01*
X147258229Y-119506542D01*
X147263385Y-119451331D01*
X147265278Y-119358534D01*
X147263935Y-119227513D01*
X147263517Y-119207304D01*
X147260566Y-119087768D01*
X147257076Y-119000484D01*
X147252110Y-118938626D01*
X147244731Y-118895371D01*
X147234000Y-118863895D01*
X147218979Y-118837374D01*
X147211122Y-118826010D01*
X147166071Y-118775727D01*
X147115684Y-118736616D01*
X147109516Y-118733202D01*
X147019166Y-118706247D01*
X146924262Y-118710705D01*
G36*
X146035543Y-118866324D02*
G01*
X146035791Y-119012355D01*
X146036752Y-119124690D01*
X146038830Y-119208713D01*
X146042431Y-119269804D01*
X146047959Y-119313344D01*
X146055820Y-119344714D01*
X146066417Y-119369297D01*
X146074442Y-119383329D01*
X146140896Y-119459423D01*
X146225154Y-119507119D01*
X146318375Y-119524234D01*
X146411724Y-119508581D01*
X146467312Y-119480453D01*
X146525667Y-119431795D01*
X146565438Y-119372368D01*
X146589434Y-119294542D01*
X146600463Y-119190687D01*
X146602025Y-119114497D01*
X146601815Y-119109021D01*
X146465316Y-119109021D01*
X146464483Y-119196390D01*
X146460663Y-119254227D01*
X146451878Y-119292064D01*
X146436150Y-119319433D01*
X146417358Y-119340077D01*
X146354249Y-119379925D01*
X146286487Y-119383330D01*
X146222445Y-119350060D01*
X146217460Y-119345552D01*
X146196185Y-119322102D01*
X146182845Y-119294201D01*
X146175623Y-119252676D01*
X146172701Y-119188351D01*
X146172239Y-119117235D01*
X146173241Y-119027893D01*
X146177386Y-118968293D01*
X146186388Y-118929124D01*
X146201957Y-118901075D01*
X146214722Y-118886179D01*
X146274024Y-118848610D01*
X146342323Y-118844092D01*
X146407514Y-118872788D01*
X146420096Y-118883441D01*
X146441513Y-118907098D01*
X146454880Y-118935286D01*
X146462058Y-118977280D01*
X146464905Y-119042354D01*
X146465316Y-119109021D01*
X146601815Y-119109021D01*
X146597302Y-118991800D01*
X146581262Y-118899612D01*
X146551096Y-118830304D01*
X146503995Y-118776246D01*
X146467312Y-118748540D01*
X146400634Y-118718607D01*
X146323352Y-118704713D01*
X146251514Y-118708432D01*
X146211316Y-118723435D01*
X146195542Y-118727705D01*
X146185074Y-118711785D01*
X146177768Y-118669124D01*
X146172239Y-118604141D01*
X146166187Y-118531767D01*
X146157780Y-118488222D01*
X146142483Y-118463322D01*
X146115760Y-118446880D01*
X146098970Y-118439599D01*
X146035470Y-118412998D01*
X146035543Y-118866324D01*
G37*
X146035543Y-118866324D02*
X146035791Y-119012355D01*
X146036752Y-119124690D01*
X146038830Y-119208713D01*
X146042431Y-119269804D01*
X146047959Y-119313344D01*
X146055820Y-119344714D01*
X146066417Y-119369297D01*
X146074442Y-119383329D01*
X146140896Y-119459423D01*
X146225154Y-119507119D01*
X146318375Y-119524234D01*
X146411724Y-119508581D01*
X146467312Y-119480453D01*
X146525667Y-119431795D01*
X146565438Y-119372368D01*
X146589434Y-119294542D01*
X146600463Y-119190687D01*
X146602025Y-119114497D01*
X146601815Y-119109021D01*
X146465316Y-119109021D01*
X146464483Y-119196390D01*
X146460663Y-119254227D01*
X146451878Y-119292064D01*
X146436150Y-119319433D01*
X146417358Y-119340077D01*
X146354249Y-119379925D01*
X146286487Y-119383330D01*
X146222445Y-119350060D01*
X146217460Y-119345552D01*
X146196185Y-119322102D01*
X146182845Y-119294201D01*
X146175623Y-119252676D01*
X146172701Y-119188351D01*
X146172239Y-119117235D01*
X146173241Y-119027893D01*
X146177386Y-118968293D01*
X146186388Y-118929124D01*
X146201957Y-118901075D01*
X146214722Y-118886179D01*
X146274024Y-118848610D01*
X146342323Y-118844092D01*
X146407514Y-118872788D01*
X146420096Y-118883441D01*
X146441513Y-118907098D01*
X146454880Y-118935286D01*
X146462058Y-118977280D01*
X146464905Y-119042354D01*
X146465316Y-119109021D01*
X146601815Y-119109021D01*
X146597302Y-118991800D01*
X146581262Y-118899612D01*
X146551096Y-118830304D01*
X146503995Y-118776246D01*
X146467312Y-118748540D01*
X146400634Y-118718607D01*
X146323352Y-118704713D01*
X146251514Y-118708432D01*
X146211316Y-118723435D01*
X146195542Y-118727705D01*
X146185074Y-118711785D01*
X146177768Y-118669124D01*
X146172239Y-118604141D01*
X146166187Y-118531767D01*
X146157780Y-118488222D01*
X146142483Y-118463322D01*
X146115760Y-118446880D01*
X146098970Y-118439599D01*
X146035470Y-118412998D01*
X146035543Y-118866324D01*
G36*
X145241695Y-118722697D02*
G01*
X145238713Y-118774103D01*
X145236377Y-118852227D01*
X145234875Y-118950892D01*
X145234393Y-119054378D01*
X145234393Y-119404568D01*
X145296223Y-119466398D01*
X145338831Y-119504497D01*
X145376234Y-119519930D01*
X145427354Y-119518953D01*
X145447646Y-119516468D01*
X145511070Y-119509235D01*
X145563529Y-119505090D01*
X145576316Y-119504707D01*
X145619425Y-119507211D01*
X145681080Y-119513497D01*
X145704986Y-119516468D01*
X145763702Y-119521063D01*
X145803160Y-119511081D01*
X145842286Y-119480263D01*
X145856409Y-119466398D01*
X145918239Y-119404568D01*
X145918239Y-118749538D01*
X145868474Y-118726864D01*
X145825622Y-118710069D01*
X145800551Y-118704189D01*
X145794123Y-118722771D01*
X145788115Y-118774690D01*
X145782927Y-118854207D01*
X145778960Y-118955581D01*
X145777047Y-119041227D01*
X145771701Y-119378266D01*
X145725064Y-119384860D01*
X145682648Y-119380249D01*
X145661864Y-119365322D01*
X145656054Y-119337412D01*
X145651094Y-119277960D01*
X145647378Y-119194501D01*
X145645300Y-119094567D01*
X145645000Y-119043139D01*
X145644701Y-118747089D01*
X145583170Y-118725639D01*
X145539620Y-118711055D01*
X145515930Y-118704254D01*
X145515247Y-118704189D01*
X145512870Y-118722677D01*
X145510258Y-118773941D01*
X145507629Y-118851684D01*
X145505203Y-118949609D01*
X145503509Y-119041227D01*
X145498163Y-119378266D01*
X145380932Y-119378266D01*
X145375552Y-119070781D01*
X145370173Y-118763296D01*
X145313023Y-118733742D01*
X145270827Y-118713448D01*
X145245854Y-118704239D01*
X145245133Y-118704189D01*
X145241695Y-118722697D01*
G37*
X145241695Y-118722697D02*
X145238713Y-118774103D01*
X145236377Y-118852227D01*
X145234875Y-118950892D01*
X145234393Y-119054378D01*
X145234393Y-119404568D01*
X145296223Y-119466398D01*
X145338831Y-119504497D01*
X145376234Y-119519930D01*
X145427354Y-119518953D01*
X145447646Y-119516468D01*
X145511070Y-119509235D01*
X145563529Y-119505090D01*
X145576316Y-119504707D01*
X145619425Y-119507211D01*
X145681080Y-119513497D01*
X145704986Y-119516468D01*
X145763702Y-119521063D01*
X145803160Y-119511081D01*
X145842286Y-119480263D01*
X145856409Y-119466398D01*
X145918239Y-119404568D01*
X145918239Y-118749538D01*
X145868474Y-118726864D01*
X145825622Y-118710069D01*
X145800551Y-118704189D01*
X145794123Y-118722771D01*
X145788115Y-118774690D01*
X145782927Y-118854207D01*
X145778960Y-118955581D01*
X145777047Y-119041227D01*
X145771701Y-119378266D01*
X145725064Y-119384860D01*
X145682648Y-119380249D01*
X145661864Y-119365322D01*
X145656054Y-119337412D01*
X145651094Y-119277960D01*
X145647378Y-119194501D01*
X145645300Y-119094567D01*
X145645000Y-119043139D01*
X145644701Y-118747089D01*
X145583170Y-118725639D01*
X145539620Y-118711055D01*
X145515930Y-118704254D01*
X145515247Y-118704189D01*
X145512870Y-118722677D01*
X145510258Y-118773941D01*
X145507629Y-118851684D01*
X145505203Y-118949609D01*
X145503509Y-119041227D01*
X145498163Y-119378266D01*
X145380932Y-119378266D01*
X145375552Y-119070781D01*
X145370173Y-118763296D01*
X145313023Y-118733742D01*
X145270827Y-118713448D01*
X145245854Y-118704239D01*
X145245133Y-118704189D01*
X145241695Y-118722697D01*
G36*
X144750291Y-118719563D02*
G01*
X144694034Y-118745152D01*
X144649877Y-118776159D01*
X144617523Y-118810830D01*
X144595186Y-118855555D01*
X144581078Y-118916727D01*
X144573413Y-119000736D01*
X144570404Y-119113975D01*
X144570086Y-119188544D01*
X144570086Y-119479455D01*
X144619851Y-119502130D01*
X144659048Y-119518702D01*
X144678467Y-119524804D01*
X144682182Y-119506645D01*
X144685129Y-119457683D01*
X144686933Y-119386188D01*
X144687316Y-119329420D01*
X144688963Y-119247406D01*
X144693402Y-119182344D01*
X144699884Y-119142502D01*
X144705034Y-119134035D01*
X144739647Y-119142681D01*
X144793984Y-119164858D01*
X144856902Y-119194921D01*
X144917256Y-119227227D01*
X144963903Y-119256133D01*
X144985698Y-119275996D01*
X144985785Y-119276210D01*
X144983910Y-119312970D01*
X144967099Y-119348061D01*
X144937585Y-119376563D01*
X144894508Y-119386096D01*
X144857692Y-119384985D01*
X144805550Y-119384168D01*
X144778180Y-119396384D01*
X144761742Y-119428659D01*
X144759669Y-119434745D01*
X144752543Y-119480774D01*
X144771600Y-119508722D01*
X144821271Y-119522042D01*
X144874927Y-119524505D01*
X144971482Y-119506245D01*
X145021465Y-119480166D01*
X145083195Y-119418903D01*
X145115934Y-119343705D01*
X145118871Y-119264246D01*
X145091200Y-119190202D01*
X145049577Y-119143804D01*
X145008020Y-119117828D01*
X144942702Y-119084942D01*
X144866586Y-119051592D01*
X144853898Y-119046496D01*
X144770291Y-119009600D01*
X144722094Y-118977081D01*
X144706594Y-118944753D01*
X144721074Y-118908429D01*
X144745932Y-118880035D01*
X144804685Y-118845074D01*
X144869331Y-118842452D01*
X144928616Y-118869393D01*
X144971285Y-118923123D01*
X144976885Y-118936985D01*
X145009491Y-118987971D01*
X145057094Y-119025822D01*
X145117163Y-119056885D01*
X145117163Y-118968803D01*
X145113627Y-118914986D01*
X145098468Y-118872569D01*
X145064856Y-118827314D01*
X145032589Y-118792455D01*
X144982415Y-118743097D01*
X144943431Y-118716582D01*
X144901560Y-118705946D01*
X144854164Y-118704189D01*
X144750291Y-118719563D01*
G37*
X144750291Y-118719563D02*
X144694034Y-118745152D01*
X144649877Y-118776159D01*
X144617523Y-118810830D01*
X144595186Y-118855555D01*
X144581078Y-118916727D01*
X144573413Y-119000736D01*
X144570404Y-119113975D01*
X144570086Y-119188544D01*
X144570086Y-119479455D01*
X144619851Y-119502130D01*
X144659048Y-119518702D01*
X144678467Y-119524804D01*
X144682182Y-119506645D01*
X144685129Y-119457683D01*
X144686933Y-119386188D01*
X144687316Y-119329420D01*
X144688963Y-119247406D01*
X144693402Y-119182344D01*
X144699884Y-119142502D01*
X144705034Y-119134035D01*
X144739647Y-119142681D01*
X144793984Y-119164858D01*
X144856902Y-119194921D01*
X144917256Y-119227227D01*
X144963903Y-119256133D01*
X144985698Y-119275996D01*
X144985785Y-119276210D01*
X144983910Y-119312970D01*
X144967099Y-119348061D01*
X144937585Y-119376563D01*
X144894508Y-119386096D01*
X144857692Y-119384985D01*
X144805550Y-119384168D01*
X144778180Y-119396384D01*
X144761742Y-119428659D01*
X144759669Y-119434745D01*
X144752543Y-119480774D01*
X144771600Y-119508722D01*
X144821271Y-119522042D01*
X144874927Y-119524505D01*
X144971482Y-119506245D01*
X145021465Y-119480166D01*
X145083195Y-119418903D01*
X145115934Y-119343705D01*
X145118871Y-119264246D01*
X145091200Y-119190202D01*
X145049577Y-119143804D01*
X145008020Y-119117828D01*
X144942702Y-119084942D01*
X144866586Y-119051592D01*
X144853898Y-119046496D01*
X144770291Y-119009600D01*
X144722094Y-118977081D01*
X144706594Y-118944753D01*
X144721074Y-118908429D01*
X144745932Y-118880035D01*
X144804685Y-118845074D01*
X144869331Y-118842452D01*
X144928616Y-118869393D01*
X144971285Y-118923123D01*
X144976885Y-118936985D01*
X145009491Y-118987971D01*
X145057094Y-119025822D01*
X145117163Y-119056885D01*
X145117163Y-118968803D01*
X145113627Y-118914986D01*
X145098468Y-118872569D01*
X145064856Y-118827314D01*
X145032589Y-118792455D01*
X144982415Y-118743097D01*
X144943431Y-118716582D01*
X144901560Y-118705946D01*
X144854164Y-118704189D01*
X144750291Y-118719563D01*
G36*
X144066817Y-118722817D02*
G01*
X144043463Y-118733023D01*
X143987722Y-118777169D01*
X143940055Y-118841002D01*
X143910576Y-118909122D01*
X143905778Y-118942705D01*
X143921864Y-118989591D01*
X143957149Y-119014400D01*
X143994980Y-119029422D01*
X144012303Y-119032190D01*
X144020738Y-119012101D01*
X144037394Y-118968386D01*
X144044701Y-118948633D01*
X144085676Y-118880306D01*
X144145002Y-118846226D01*
X144221072Y-118847274D01*
X144226706Y-118848616D01*
X144267319Y-118867871D01*
X144297176Y-118905410D01*
X144317569Y-118965844D01*
X144329788Y-119053786D01*
X144335124Y-119173848D01*
X144335624Y-119237733D01*
X144335872Y-119338438D01*
X144337498Y-119407089D01*
X144341823Y-119450708D01*
X144350170Y-119476317D01*
X144363859Y-119490938D01*
X144384213Y-119501593D01*
X144385390Y-119502130D01*
X144424586Y-119518702D01*
X144444005Y-119524804D01*
X144446989Y-119506354D01*
X144449543Y-119455358D01*
X144451484Y-119378343D01*
X144452627Y-119281840D01*
X144452855Y-119211219D01*
X144451692Y-119074560D01*
X144447145Y-118970886D01*
X144437625Y-118894143D01*
X144421543Y-118838281D01*
X144397311Y-118797247D01*
X144363338Y-118764989D01*
X144329791Y-118742475D01*
X144249125Y-118712511D01*
X144155243Y-118705753D01*
X144066817Y-118722817D01*
G37*
X144066817Y-118722817D02*
X144043463Y-118733023D01*
X143987722Y-118777169D01*
X143940055Y-118841002D01*
X143910576Y-118909122D01*
X143905778Y-118942705D01*
X143921864Y-118989591D01*
X143957149Y-119014400D01*
X143994980Y-119029422D01*
X144012303Y-119032190D01*
X144020738Y-119012101D01*
X144037394Y-118968386D01*
X144044701Y-118948633D01*
X144085676Y-118880306D01*
X144145002Y-118846226D01*
X144221072Y-118847274D01*
X144226706Y-118848616D01*
X144267319Y-118867871D01*
X144297176Y-118905410D01*
X144317569Y-118965844D01*
X144329788Y-119053786D01*
X144335124Y-119173848D01*
X144335624Y-119237733D01*
X144335872Y-119338438D01*
X144337498Y-119407089D01*
X144341823Y-119450708D01*
X144350170Y-119476317D01*
X144363859Y-119490938D01*
X144384213Y-119501593D01*
X144385390Y-119502130D01*
X144424586Y-119518702D01*
X144444005Y-119524804D01*
X144446989Y-119506354D01*
X144449543Y-119455358D01*
X144451484Y-119378343D01*
X144452627Y-119281840D01*
X144452855Y-119211219D01*
X144451692Y-119074560D01*
X144447145Y-118970886D01*
X144437625Y-118894143D01*
X144421543Y-118838281D01*
X144397311Y-118797247D01*
X144363338Y-118764989D01*
X144329791Y-118742475D01*
X144249125Y-118712511D01*
X144155243Y-118705753D01*
X144066817Y-118722817D01*
G36*
X143392400Y-118733873D02*
G01*
X143315096Y-118784396D01*
X143277810Y-118829625D01*
X143248271Y-118911698D01*
X143245925Y-118976642D01*
X143251239Y-119063480D01*
X143451509Y-119151138D01*
X143548885Y-119195922D01*
X143612511Y-119231948D01*
X143645595Y-119263152D01*
X143651344Y-119293471D01*
X143632966Y-119326840D01*
X143612701Y-119348958D01*
X143553735Y-119384428D01*
X143489600Y-119386914D01*
X143430698Y-119359270D01*
X143387427Y-119304355D01*
X143379688Y-119284963D01*
X143342618Y-119224399D01*
X143299970Y-119198587D01*
X143241470Y-119176506D01*
X143241470Y-119260219D01*
X143246642Y-119317185D01*
X143266901Y-119365224D01*
X143309362Y-119420381D01*
X143315673Y-119427549D01*
X143362904Y-119476620D01*
X143403503Y-119502955D01*
X143454296Y-119515070D01*
X143496404Y-119519038D01*
X143571722Y-119520026D01*
X143625338Y-119507501D01*
X143658786Y-119488904D01*
X143711356Y-119448010D01*
X143747745Y-119403783D01*
X143770774Y-119348161D01*
X143783265Y-119273082D01*
X143788037Y-119170484D01*
X143788418Y-119118411D01*
X143787123Y-119055983D01*
X143669153Y-119055983D01*
X143667785Y-119089473D01*
X143664375Y-119094958D01*
X143641871Y-119087507D01*
X143593442Y-119067788D01*
X143528716Y-119039753D01*
X143515181Y-119033727D01*
X143433380Y-118992131D01*
X143388312Y-118955573D01*
X143378407Y-118921331D01*
X143402098Y-118886683D01*
X143421664Y-118871374D01*
X143492264Y-118840756D01*
X143558344Y-118845815D01*
X143613665Y-118883186D01*
X143651988Y-118949508D01*
X143664275Y-119002151D01*
X143669153Y-119055983D01*
X143787123Y-119055983D01*
X143785894Y-118996755D01*
X143776592Y-118906745D01*
X143758164Y-118841202D01*
X143728264Y-118792947D01*
X143684544Y-118754802D01*
X143665483Y-118742475D01*
X143578898Y-118710371D01*
X143484102Y-118708351D01*
X143392400Y-118733873D01*
G37*
X143392400Y-118733873D02*
X143315096Y-118784396D01*
X143277810Y-118829625D01*
X143248271Y-118911698D01*
X143245925Y-118976642D01*
X143251239Y-119063480D01*
X143451509Y-119151138D01*
X143548885Y-119195922D01*
X143612511Y-119231948D01*
X143645595Y-119263152D01*
X143651344Y-119293471D01*
X143632966Y-119326840D01*
X143612701Y-119348958D01*
X143553735Y-119384428D01*
X143489600Y-119386914D01*
X143430698Y-119359270D01*
X143387427Y-119304355D01*
X143379688Y-119284963D01*
X143342618Y-119224399D01*
X143299970Y-119198587D01*
X143241470Y-119176506D01*
X143241470Y-119260219D01*
X143246642Y-119317185D01*
X143266901Y-119365224D01*
X143309362Y-119420381D01*
X143315673Y-119427549D01*
X143362904Y-119476620D01*
X143403503Y-119502955D01*
X143454296Y-119515070D01*
X143496404Y-119519038D01*
X143571722Y-119520026D01*
X143625338Y-119507501D01*
X143658786Y-119488904D01*
X143711356Y-119448010D01*
X143747745Y-119403783D01*
X143770774Y-119348161D01*
X143783265Y-119273082D01*
X143788037Y-119170484D01*
X143788418Y-119118411D01*
X143787123Y-119055983D01*
X143669153Y-119055983D01*
X143667785Y-119089473D01*
X143664375Y-119094958D01*
X143641871Y-119087507D01*
X143593442Y-119067788D01*
X143528716Y-119039753D01*
X143515181Y-119033727D01*
X143433380Y-118992131D01*
X143388312Y-118955573D01*
X143378407Y-118921331D01*
X143402098Y-118886683D01*
X143421664Y-118871374D01*
X143492264Y-118840756D01*
X143558344Y-118845815D01*
X143613665Y-118883186D01*
X143651988Y-118949508D01*
X143664275Y-119002151D01*
X143669153Y-119055983D01*
X143787123Y-119055983D01*
X143785894Y-118996755D01*
X143776592Y-118906745D01*
X143758164Y-118841202D01*
X143728264Y-118792947D01*
X143684544Y-118754802D01*
X143665483Y-118742475D01*
X143578898Y-118710371D01*
X143484102Y-118708351D01*
X143392400Y-118733873D01*
G36*
X147497746Y-112373811D02*
G01*
X147392012Y-112374390D01*
X147315492Y-112375957D01*
X147263252Y-112379007D01*
X147230361Y-112384031D01*
X147211887Y-112391524D01*
X147202897Y-112401979D01*
X147198461Y-112415888D01*
X147198030Y-112417689D01*
X147191291Y-112450180D01*
X147178816Y-112514287D01*
X147161905Y-112603186D01*
X147141853Y-112710054D01*
X147119960Y-112828068D01*
X147119195Y-112832213D01*
X147097265Y-112947866D01*
X147076747Y-113050049D01*
X147058965Y-113132633D01*
X147045243Y-113189491D01*
X147036906Y-113214493D01*
X147036508Y-113214936D01*
X147011947Y-113227145D01*
X146961309Y-113247491D01*
X146895529Y-113271580D01*
X146895163Y-113271709D01*
X146812307Y-113302853D01*
X146714624Y-113342526D01*
X146622547Y-113382416D01*
X146618190Y-113384388D01*
X146468217Y-113452455D01*
X146136126Y-113225674D01*
X146034250Y-113156539D01*
X145941967Y-113094732D01*
X145864621Y-113043768D01*
X145807560Y-113007162D01*
X145776129Y-112988429D01*
X145773145Y-112987039D01*
X145750303Y-112993225D01*
X145707642Y-113023070D01*
X145643496Y-113077982D01*
X145556203Y-113159369D01*
X145467089Y-113245957D01*
X145381183Y-113331282D01*
X145304297Y-113409143D01*
X145241060Y-113474732D01*
X145196101Y-113523240D01*
X145174048Y-113549860D01*
X145173228Y-113551230D01*
X145170790Y-113569498D01*
X145179974Y-113599330D01*
X145203050Y-113644756D01*
X145242287Y-113709805D01*
X145299954Y-113798505D01*
X145376829Y-113912692D01*
X145445054Y-114013197D01*
X145506042Y-114103338D01*
X145556268Y-114177884D01*
X145592208Y-114231600D01*
X145610337Y-114259253D01*
X145611478Y-114261130D01*
X145609265Y-114287625D01*
X145592486Y-114339121D01*
X145564482Y-114405886D01*
X145554502Y-114427207D01*
X145510952Y-114522194D01*
X145464490Y-114629972D01*
X145426747Y-114723227D01*
X145399551Y-114792441D01*
X145377949Y-114845041D01*
X145365466Y-114872532D01*
X145363915Y-114874651D01*
X145340956Y-114878159D01*
X145286838Y-114887773D01*
X145208756Y-114902124D01*
X145113905Y-114919842D01*
X145009481Y-114939560D01*
X144902680Y-114959909D01*
X144800698Y-114979521D01*
X144710730Y-114997026D01*
X144639971Y-115011057D01*
X144595618Y-115020244D01*
X144584739Y-115022842D01*
X144573502Y-115029253D01*
X144565019Y-115043732D01*
X144558910Y-115071168D01*
X144554792Y-115116446D01*
X144552283Y-115184455D01*
X144551003Y-115280082D01*
X144550570Y-115408215D01*
X144550547Y-115460736D01*
X144550547Y-115887880D01*
X144653124Y-115908126D01*
X144710193Y-115919105D01*
X144795355Y-115935130D01*
X144898252Y-115954268D01*
X145008528Y-115974586D01*
X145039009Y-115980167D01*
X145140769Y-115999952D01*
X145229419Y-116019408D01*
X145297516Y-116036732D01*
X145337620Y-116050123D01*
X145344301Y-116054114D01*
X145360705Y-116082377D01*
X145384225Y-116137144D01*
X145410308Y-116207623D01*
X145415482Y-116222804D01*
X145449668Y-116316931D01*
X145492101Y-116423136D01*
X145533627Y-116518508D01*
X145533832Y-116518951D01*
X145602984Y-116668560D01*
X145148112Y-117337652D01*
X145440124Y-117630151D01*
X145528444Y-117717205D01*
X145608999Y-117793944D01*
X145677264Y-117856272D01*
X145728716Y-117900091D01*
X145758830Y-117921305D01*
X145763150Y-117922651D01*
X145788513Y-117912051D01*
X145840266Y-117882582D01*
X145912756Y-117837740D01*
X146000330Y-117781019D01*
X146095012Y-117717497D01*
X146191108Y-117652703D01*
X146276787Y-117596322D01*
X146346608Y-117551823D01*
X146395130Y-117522674D01*
X146416842Y-117512343D01*
X146443331Y-117521085D01*
X146493562Y-117544122D01*
X146557173Y-117576666D01*
X146563916Y-117580284D01*
X146649578Y-117623245D01*
X146708318Y-117644314D01*
X146744852Y-117644538D01*
X146763893Y-117624963D01*
X146764004Y-117624689D01*
X146773522Y-117601507D01*
X146796221Y-117546476D01*
X146830342Y-117463857D01*
X146874124Y-117357907D01*
X146925808Y-117232887D01*
X146983632Y-117093055D01*
X147039633Y-116957672D01*
X147101177Y-116808269D01*
X147157685Y-116669867D01*
X147207463Y-116546708D01*
X147248818Y-116443037D01*
X147280056Y-116363094D01*
X147299483Y-116311123D01*
X147305470Y-116291727D01*
X147290456Y-116269478D01*
X147251185Y-116234017D01*
X147198817Y-116194922D01*
X147049683Y-116071280D01*
X146933113Y-115929557D01*
X146850506Y-115772739D01*
X146803258Y-115603810D01*
X146792767Y-115425757D01*
X146800393Y-115343574D01*
X146841942Y-115173066D01*
X146913501Y-115022494D01*
X147010629Y-114893344D01*
X147128890Y-114787099D01*
X147263844Y-114705245D01*
X147411053Y-114649267D01*
X147566080Y-114620650D01*
X147724485Y-114620879D01*
X147881830Y-114651440D01*
X148033678Y-114713817D01*
X148175589Y-114809495D01*
X148234821Y-114863607D01*
X148348421Y-115002555D01*
X148427518Y-115154396D01*
X148472638Y-115314702D01*
X148484308Y-115479047D01*
X148463055Y-115643006D01*
X148409404Y-115802153D01*
X148323884Y-115952060D01*
X148207019Y-116088302D01*
X148076431Y-116194922D01*
X148022036Y-116235677D01*
X147983610Y-116270753D01*
X147969778Y-116291761D01*
X147977021Y-116314670D01*
X147997619Y-116369400D01*
X148029878Y-116451707D01*
X148072103Y-116557350D01*
X148122601Y-116682085D01*
X148179676Y-116821671D01*
X148235770Y-116957705D01*
X148297657Y-117107236D01*
X148354980Y-117245802D01*
X148405980Y-117369142D01*
X148448897Y-117472999D01*
X148481971Y-117553115D01*
X148503443Y-117605230D01*
X148511399Y-117624689D01*
X148530195Y-117644458D01*
X148566550Y-117644400D01*
X148625145Y-117623476D01*
X148710656Y-117580648D01*
X148711332Y-117580284D01*
X148775717Y-117547047D01*
X148827763Y-117522837D01*
X148857112Y-117512439D01*
X148858407Y-117512343D01*
X148880500Y-117522890D01*
X148929276Y-117552219D01*
X148999293Y-117596862D01*
X149085110Y-117653349D01*
X149180236Y-117717497D01*
X149277084Y-117782446D01*
X149364371Y-117838931D01*
X149436443Y-117883456D01*
X149487647Y-117912525D01*
X149512098Y-117922651D01*
X149534614Y-117909342D01*
X149579882Y-117872147D01*
X149643380Y-117815163D01*
X149720585Y-117742484D01*
X149806973Y-117658206D01*
X149835225Y-117630051D01*
X150127337Y-117337451D01*
X149904993Y-117011139D01*
X149837422Y-116910932D01*
X149778117Y-116820998D01*
X149730407Y-116746545D01*
X149697617Y-116692786D01*
X149683076Y-116664929D01*
X149682650Y-116662947D01*
X149690316Y-116636690D01*
X149710935Y-116583872D01*
X149740939Y-116513345D01*
X149761999Y-116466128D01*
X149801376Y-116375729D01*
X149838459Y-116284401D01*
X149867209Y-116207235D01*
X149875019Y-116183727D01*
X149897207Y-116120951D01*
X149918897Y-116072446D01*
X149930811Y-116054114D01*
X149957101Y-116042894D01*
X150014482Y-116026989D01*
X150095506Y-116008202D01*
X150192729Y-115988334D01*
X150236239Y-115980167D01*
X150346728Y-115959864D01*
X150452708Y-115940205D01*
X150543823Y-115923123D01*
X150609716Y-115910553D01*
X150622124Y-115908126D01*
X150724701Y-115887880D01*
X150724701Y-115460736D01*
X150724471Y-115320281D01*
X150723525Y-115214014D01*
X150721483Y-115137048D01*
X150717962Y-115084495D01*
X150712581Y-115051468D01*
X150704958Y-115033080D01*
X150694712Y-115024443D01*
X150690509Y-115022842D01*
X150665154Y-115017162D01*
X150609140Y-115005830D01*
X150529660Y-114990214D01*
X150433912Y-114971682D01*
X150329091Y-114951604D01*
X150222392Y-114931347D01*
X150121011Y-114912281D01*
X150032145Y-114895774D01*
X149962987Y-114883194D01*
X149920735Y-114875910D01*
X149911334Y-114874651D01*
X149902817Y-114857798D01*
X149883964Y-114812905D01*
X149858300Y-114748465D01*
X149848501Y-114723227D01*
X149808976Y-114625721D01*
X149762432Y-114517994D01*
X149720747Y-114427207D01*
X149690074Y-114357788D01*
X149669668Y-114300745D01*
X149662856Y-114265812D01*
X149663942Y-114261130D01*
X149678339Y-114239026D01*
X149711212Y-114189866D01*
X149759034Y-114118883D01*
X149818276Y-114031313D01*
X149885409Y-113932392D01*
X149898683Y-113912865D01*
X149976578Y-113797175D01*
X150033837Y-113709079D01*
X150072743Y-113644521D01*
X150095580Y-113599446D01*
X150104630Y-113569798D01*
X150102176Y-113551520D01*
X150102113Y-113551404D01*
X150082797Y-113527396D01*
X150040073Y-113480982D01*
X149978573Y-113416972D01*
X149902926Y-113340180D01*
X149817763Y-113255417D01*
X149808159Y-113245957D01*
X149700834Y-113142024D01*
X149618009Y-113065710D01*
X149558019Y-113015606D01*
X149519201Y-112990305D01*
X149502104Y-112987039D01*
X149477151Y-113001285D01*
X149425369Y-113034191D01*
X149352104Y-113082243D01*
X149262704Y-113141925D01*
X149162513Y-113209723D01*
X149139123Y-113225674D01*
X148807031Y-113452455D01*
X148657059Y-113384388D01*
X148565854Y-113344720D01*
X148467955Y-113304826D01*
X148383793Y-113273018D01*
X148380086Y-113271709D01*
X148314255Y-113247611D01*
X148263508Y-113227235D01*
X148238782Y-113214971D01*
X148238740Y-113214936D01*
X148230895Y-113192769D01*
X148217558Y-113138252D01*
X148200054Y-113057515D01*
X148179707Y-112956685D01*
X148157842Y-112841891D01*
X148156053Y-112832213D01*
X148134120Y-112713939D01*
X148113984Y-112606577D01*
X148096944Y-112516952D01*
X148084296Y-112451886D01*
X148077340Y-112418203D01*
X148077218Y-112417689D01*
X148072985Y-112403360D01*
X148064753Y-112392542D01*
X148047591Y-112384741D01*
X148016566Y-112379464D01*
X147966746Y-112376217D01*
X147893200Y-112374507D01*
X147790995Y-112373842D01*
X147655199Y-112373728D01*
X147637624Y-112373727D01*
X147497746Y-112373811D01*
G37*
X147497746Y-112373811D02*
X147392012Y-112374390D01*
X147315492Y-112375957D01*
X147263252Y-112379007D01*
X147230361Y-112384031D01*
X147211887Y-112391524D01*
X147202897Y-112401979D01*
X147198461Y-112415888D01*
X147198030Y-112417689D01*
X147191291Y-112450180D01*
X147178816Y-112514287D01*
X147161905Y-112603186D01*
X147141853Y-112710054D01*
X147119960Y-112828068D01*
X147119195Y-112832213D01*
X147097265Y-112947866D01*
X147076747Y-113050049D01*
X147058965Y-113132633D01*
X147045243Y-113189491D01*
X147036906Y-113214493D01*
X147036508Y-113214936D01*
X147011947Y-113227145D01*
X146961309Y-113247491D01*
X146895529Y-113271580D01*
X146895163Y-113271709D01*
X146812307Y-113302853D01*
X146714624Y-113342526D01*
X146622547Y-113382416D01*
X146618190Y-113384388D01*
X146468217Y-113452455D01*
X146136126Y-113225674D01*
X146034250Y-113156539D01*
X145941967Y-113094732D01*
X145864621Y-113043768D01*
X145807560Y-113007162D01*
X145776129Y-112988429D01*
X145773145Y-112987039D01*
X145750303Y-112993225D01*
X145707642Y-113023070D01*
X145643496Y-113077982D01*
X145556203Y-113159369D01*
X145467089Y-113245957D01*
X145381183Y-113331282D01*
X145304297Y-113409143D01*
X145241060Y-113474732D01*
X145196101Y-113523240D01*
X145174048Y-113549860D01*
X145173228Y-113551230D01*
X145170790Y-113569498D01*
X145179974Y-113599330D01*
X145203050Y-113644756D01*
X145242287Y-113709805D01*
X145299954Y-113798505D01*
X145376829Y-113912692D01*
X145445054Y-114013197D01*
X145506042Y-114103338D01*
X145556268Y-114177884D01*
X145592208Y-114231600D01*
X145610337Y-114259253D01*
X145611478Y-114261130D01*
X145609265Y-114287625D01*
X145592486Y-114339121D01*
X145564482Y-114405886D01*
X145554502Y-114427207D01*
X145510952Y-114522194D01*
X145464490Y-114629972D01*
X145426747Y-114723227D01*
X145399551Y-114792441D01*
X145377949Y-114845041D01*
X145365466Y-114872532D01*
X145363915Y-114874651D01*
X145340956Y-114878159D01*
X145286838Y-114887773D01*
X145208756Y-114902124D01*
X145113905Y-114919842D01*
X145009481Y-114939560D01*
X144902680Y-114959909D01*
X144800698Y-114979521D01*
X144710730Y-114997026D01*
X144639971Y-115011057D01*
X144595618Y-115020244D01*
X144584739Y-115022842D01*
X144573502Y-115029253D01*
X144565019Y-115043732D01*
X144558910Y-115071168D01*
X144554792Y-115116446D01*
X144552283Y-115184455D01*
X144551003Y-115280082D01*
X144550570Y-115408215D01*
X144550547Y-115460736D01*
X144550547Y-115887880D01*
X144653124Y-115908126D01*
X144710193Y-115919105D01*
X144795355Y-115935130D01*
X144898252Y-115954268D01*
X145008528Y-115974586D01*
X145039009Y-115980167D01*
X145140769Y-115999952D01*
X145229419Y-116019408D01*
X145297516Y-116036732D01*
X145337620Y-116050123D01*
X145344301Y-116054114D01*
X145360705Y-116082377D01*
X145384225Y-116137144D01*
X145410308Y-116207623D01*
X145415482Y-116222804D01*
X145449668Y-116316931D01*
X145492101Y-116423136D01*
X145533627Y-116518508D01*
X145533832Y-116518951D01*
X145602984Y-116668560D01*
X145148112Y-117337652D01*
X145440124Y-117630151D01*
X145528444Y-117717205D01*
X145608999Y-117793944D01*
X145677264Y-117856272D01*
X145728716Y-117900091D01*
X145758830Y-117921305D01*
X145763150Y-117922651D01*
X145788513Y-117912051D01*
X145840266Y-117882582D01*
X145912756Y-117837740D01*
X146000330Y-117781019D01*
X146095012Y-117717497D01*
X146191108Y-117652703D01*
X146276787Y-117596322D01*
X146346608Y-117551823D01*
X146395130Y-117522674D01*
X146416842Y-117512343D01*
X146443331Y-117521085D01*
X146493562Y-117544122D01*
X146557173Y-117576666D01*
X146563916Y-117580284D01*
X146649578Y-117623245D01*
X146708318Y-117644314D01*
X146744852Y-117644538D01*
X146763893Y-117624963D01*
X146764004Y-117624689D01*
X146773522Y-117601507D01*
X146796221Y-117546476D01*
X146830342Y-117463857D01*
X146874124Y-117357907D01*
X146925808Y-117232887D01*
X146983632Y-117093055D01*
X147039633Y-116957672D01*
X147101177Y-116808269D01*
X147157685Y-116669867D01*
X147207463Y-116546708D01*
X147248818Y-116443037D01*
X147280056Y-116363094D01*
X147299483Y-116311123D01*
X147305470Y-116291727D01*
X147290456Y-116269478D01*
X147251185Y-116234017D01*
X147198817Y-116194922D01*
X147049683Y-116071280D01*
X146933113Y-115929557D01*
X146850506Y-115772739D01*
X146803258Y-115603810D01*
X146792767Y-115425757D01*
X146800393Y-115343574D01*
X146841942Y-115173066D01*
X146913501Y-115022494D01*
X147010629Y-114893344D01*
X147128890Y-114787099D01*
X147263844Y-114705245D01*
X147411053Y-114649267D01*
X147566080Y-114620650D01*
X147724485Y-114620879D01*
X147881830Y-114651440D01*
X148033678Y-114713817D01*
X148175589Y-114809495D01*
X148234821Y-114863607D01*
X148348421Y-115002555D01*
X148427518Y-115154396D01*
X148472638Y-115314702D01*
X148484308Y-115479047D01*
X148463055Y-115643006D01*
X148409404Y-115802153D01*
X148323884Y-115952060D01*
X148207019Y-116088302D01*
X148076431Y-116194922D01*
X148022036Y-116235677D01*
X147983610Y-116270753D01*
X147969778Y-116291761D01*
X147977021Y-116314670D01*
X147997619Y-116369400D01*
X148029878Y-116451707D01*
X148072103Y-116557350D01*
X148122601Y-116682085D01*
X148179676Y-116821671D01*
X148235770Y-116957705D01*
X148297657Y-117107236D01*
X148354980Y-117245802D01*
X148405980Y-117369142D01*
X148448897Y-117472999D01*
X148481971Y-117553115D01*
X148503443Y-117605230D01*
X148511399Y-117624689D01*
X148530195Y-117644458D01*
X148566550Y-117644400D01*
X148625145Y-117623476D01*
X148710656Y-117580648D01*
X148711332Y-117580284D01*
X148775717Y-117547047D01*
X148827763Y-117522837D01*
X148857112Y-117512439D01*
X148858407Y-117512343D01*
X148880500Y-117522890D01*
X148929276Y-117552219D01*
X148999293Y-117596862D01*
X149085110Y-117653349D01*
X149180236Y-117717497D01*
X149277084Y-117782446D01*
X149364371Y-117838931D01*
X149436443Y-117883456D01*
X149487647Y-117912525D01*
X149512098Y-117922651D01*
X149534614Y-117909342D01*
X149579882Y-117872147D01*
X149643380Y-117815163D01*
X149720585Y-117742484D01*
X149806973Y-117658206D01*
X149835225Y-117630051D01*
X150127337Y-117337451D01*
X149904993Y-117011139D01*
X149837422Y-116910932D01*
X149778117Y-116820998D01*
X149730407Y-116746545D01*
X149697617Y-116692786D01*
X149683076Y-116664929D01*
X149682650Y-116662947D01*
X149690316Y-116636690D01*
X149710935Y-116583872D01*
X149740939Y-116513345D01*
X149761999Y-116466128D01*
X149801376Y-116375729D01*
X149838459Y-116284401D01*
X149867209Y-116207235D01*
X149875019Y-116183727D01*
X149897207Y-116120951D01*
X149918897Y-116072446D01*
X149930811Y-116054114D01*
X149957101Y-116042894D01*
X150014482Y-116026989D01*
X150095506Y-116008202D01*
X150192729Y-115988334D01*
X150236239Y-115980167D01*
X150346728Y-115959864D01*
X150452708Y-115940205D01*
X150543823Y-115923123D01*
X150609716Y-115910553D01*
X150622124Y-115908126D01*
X150724701Y-115887880D01*
X150724701Y-115460736D01*
X150724471Y-115320281D01*
X150723525Y-115214014D01*
X150721483Y-115137048D01*
X150717962Y-115084495D01*
X150712581Y-115051468D01*
X150704958Y-115033080D01*
X150694712Y-115024443D01*
X150690509Y-115022842D01*
X150665154Y-115017162D01*
X150609140Y-115005830D01*
X150529660Y-114990214D01*
X150433912Y-114971682D01*
X150329091Y-114951604D01*
X150222392Y-114931347D01*
X150121011Y-114912281D01*
X150032145Y-114895774D01*
X149962987Y-114883194D01*
X149920735Y-114875910D01*
X149911334Y-114874651D01*
X149902817Y-114857798D01*
X149883964Y-114812905D01*
X149858300Y-114748465D01*
X149848501Y-114723227D01*
X149808976Y-114625721D01*
X149762432Y-114517994D01*
X149720747Y-114427207D01*
X149690074Y-114357788D01*
X149669668Y-114300745D01*
X149662856Y-114265812D01*
X149663942Y-114261130D01*
X149678339Y-114239026D01*
X149711212Y-114189866D01*
X149759034Y-114118883D01*
X149818276Y-114031313D01*
X149885409Y-113932392D01*
X149898683Y-113912865D01*
X149976578Y-113797175D01*
X150033837Y-113709079D01*
X150072743Y-113644521D01*
X150095580Y-113599446D01*
X150104630Y-113569798D01*
X150102176Y-113551520D01*
X150102113Y-113551404D01*
X150082797Y-113527396D01*
X150040073Y-113480982D01*
X149978573Y-113416972D01*
X149902926Y-113340180D01*
X149817763Y-113255417D01*
X149808159Y-113245957D01*
X149700834Y-113142024D01*
X149618009Y-113065710D01*
X149558019Y-113015606D01*
X149519201Y-112990305D01*
X149502104Y-112987039D01*
X149477151Y-113001285D01*
X149425369Y-113034191D01*
X149352104Y-113082243D01*
X149262704Y-113141925D01*
X149162513Y-113209723D01*
X149139123Y-113225674D01*
X148807031Y-113452455D01*
X148657059Y-113384388D01*
X148565854Y-113344720D01*
X148467955Y-113304826D01*
X148383793Y-113273018D01*
X148380086Y-113271709D01*
X148314255Y-113247611D01*
X148263508Y-113227235D01*
X148238782Y-113214971D01*
X148238740Y-113214936D01*
X148230895Y-113192769D01*
X148217558Y-113138252D01*
X148200054Y-113057515D01*
X148179707Y-112956685D01*
X148157842Y-112841891D01*
X148156053Y-112832213D01*
X148134120Y-112713939D01*
X148113984Y-112606577D01*
X148096944Y-112516952D01*
X148084296Y-112451886D01*
X148077340Y-112418203D01*
X148077218Y-112417689D01*
X148072985Y-112403360D01*
X148064753Y-112392542D01*
X148047591Y-112384741D01*
X148016566Y-112379464D01*
X147966746Y-112376217D01*
X147893200Y-112374507D01*
X147790995Y-112373842D01*
X147655199Y-112373728D01*
X147637624Y-112373727D01*
X147497746Y-112373811D01*
D12*
X154781380Y-106561027D03*
D13*
X162401380Y-106561027D03*
D12*
X154781380Y-108942279D03*
D13*
X162401380Y-108942279D03*
D14*
X140493868Y-113546035D03*
X140493868Y-118626035D03*
D15*
X141684494Y-136921990D03*
D16*
X141684494Y-144541990D03*
D15*
X136326677Y-118467287D03*
D16*
X128706677Y-118467287D03*
D17*
X119380096Y-102393836D03*
X109220096Y-102393836D03*
D18*
X114300096Y-102393836D03*
D19*
X110490096Y-99853836D03*
X116840096Y-97313836D03*
D20*
X138112616Y-102393836D03*
D17*
X290830240Y-83343820D03*
X280670240Y-83343820D03*
D18*
X285750240Y-83343820D03*
D19*
X281940240Y-80803820D03*
X288290240Y-78263820D03*
D15*
X168473579Y-118467287D03*
D16*
X176093579Y-118467287D03*
D15*
X170854831Y-67865682D03*
D16*
X178474831Y-67865682D03*
X126325425Y-73818812D03*
D15*
X133945425Y-73818812D03*
D17*
X233680192Y-121443852D03*
X223520192Y-121443852D03*
D18*
X228600192Y-121443852D03*
D19*
X224790192Y-118903852D03*
X231140192Y-116363852D03*
D17*
X252730208Y-83343820D03*
X242570208Y-83343820D03*
D18*
X247650208Y-83343820D03*
D19*
X243840208Y-80803820D03*
X250190208Y-78263820D03*
D17*
X252730208Y-64293804D03*
X242570208Y-64293804D03*
D18*
X247650208Y-64293804D03*
D19*
X243840208Y-61753804D03*
X250190208Y-59213804D03*
D17*
X271780224Y-83343820D03*
X261620224Y-83343820D03*
D18*
X266700224Y-83343820D03*
D19*
X262890224Y-80803820D03*
X269240224Y-78263820D03*
D17*
X252730208Y-102393836D03*
X242570208Y-102393836D03*
D18*
X247650208Y-102393836D03*
D19*
X243840208Y-99853836D03*
X250190208Y-97313836D03*
D17*
X290830240Y-102393836D03*
X280670240Y-102393836D03*
D18*
X285750240Y-102393836D03*
D19*
X281940240Y-99853836D03*
X288290240Y-97313836D03*
D17*
X271780224Y-102393836D03*
X261620224Y-102393836D03*
D18*
X266700224Y-102393836D03*
D19*
X262890224Y-99853836D03*
X269240224Y-97313836D03*
D17*
X290830240Y-121443852D03*
X280670240Y-121443852D03*
D18*
X285750240Y-121443852D03*
D19*
X281940240Y-118903852D03*
X288290240Y-116363852D03*
D17*
X271780224Y-121443852D03*
X261620224Y-121443852D03*
D18*
X266700224Y-121443852D03*
D19*
X262890224Y-118903852D03*
X269240224Y-116363852D03*
D17*
X233680192Y-102393836D03*
X223520192Y-102393836D03*
D18*
X228600192Y-102393836D03*
D19*
X224790192Y-99853836D03*
X231140192Y-97313836D03*
D17*
X214630176Y-102393836D03*
X204470176Y-102393836D03*
D18*
X209550176Y-102393836D03*
D19*
X205740176Y-99853836D03*
X212090176Y-97313836D03*
D17*
X290830240Y-140493868D03*
X280670240Y-140493868D03*
D18*
X285750240Y-140493868D03*
D19*
X281940240Y-137953868D03*
X288290240Y-135413868D03*
D17*
X252730208Y-121443852D03*
X242570208Y-121443852D03*
D18*
X247650208Y-121443852D03*
D19*
X243840208Y-118903852D03*
X250190208Y-116363852D03*
D17*
X214630176Y-121443852D03*
X204470176Y-121443852D03*
D18*
X209550176Y-121443852D03*
D19*
X205740176Y-118903852D03*
X212090176Y-116363852D03*
D17*
X271780224Y-140493868D03*
X261620224Y-140493868D03*
D18*
X266700224Y-140493868D03*
D19*
X262890224Y-137953868D03*
X269240224Y-135413868D03*
D17*
X252730208Y-140493868D03*
X242570208Y-140493868D03*
D18*
X247650208Y-140493868D03*
D19*
X243840208Y-137953868D03*
X250190208Y-135413868D03*
D17*
X233680192Y-140493868D03*
X223520192Y-140493868D03*
D18*
X228600192Y-140493868D03*
D19*
X224790192Y-137953868D03*
X231140192Y-135413868D03*
X212090176Y-135413868D03*
X205740176Y-137953868D03*
D18*
X209550176Y-140493868D03*
D17*
X204470176Y-140493868D03*
X214630176Y-140493868D03*
X119380096Y-64293804D03*
X109220096Y-64293804D03*
D18*
X114300096Y-64293804D03*
D19*
X110490096Y-61753804D03*
X116840096Y-59213804D03*
D17*
X119380096Y-83343820D03*
X109220096Y-83343820D03*
D18*
X114300096Y-83343820D03*
D19*
X110490096Y-80803820D03*
X116840096Y-78263820D03*
D17*
X81280064Y-83343820D03*
X71120064Y-83343820D03*
D18*
X76200064Y-83343820D03*
D19*
X72390064Y-80803820D03*
X78740064Y-78263820D03*
D17*
X100330080Y-140493868D03*
X90170080Y-140493868D03*
D18*
X95250080Y-140493868D03*
D19*
X91440080Y-137953868D03*
X97790080Y-135413868D03*
D17*
X62230048Y-140493868D03*
X52070048Y-140493868D03*
D18*
X57150048Y-140493868D03*
D19*
X53340048Y-137953868D03*
X59690048Y-135413868D03*
D17*
X24130016Y-83343820D03*
X13970016Y-83343820D03*
D18*
X19050016Y-83343820D03*
D19*
X15240016Y-80803820D03*
X21590016Y-78263820D03*
D21*
X13096886Y-111323531D03*
X291703370Y-111323531D03*
D20*
X128587608Y-59531300D03*
X176212648Y-59531300D03*
X128587608Y-144661059D03*
X176212648Y-144661059D03*
D17*
X24129968Y-64293750D03*
X13969968Y-64293750D03*
D18*
X19049968Y-64293750D03*
D19*
X15239968Y-61753750D03*
X21589968Y-59213750D03*
D17*
X33020032Y-64293804D03*
X43180032Y-64293804D03*
D18*
X38100032Y-64293804D03*
D19*
X41910032Y-66833804D03*
X35560032Y-69373804D03*
D17*
X62230048Y-64293804D03*
X52070048Y-64293804D03*
D18*
X57150048Y-64293804D03*
D19*
X53340048Y-61753804D03*
X59690048Y-59213804D03*
D17*
X81280064Y-64293804D03*
X71120064Y-64293804D03*
D18*
X76200064Y-64293804D03*
D19*
X72390064Y-61753804D03*
X78740064Y-59213804D03*
D17*
X100330080Y-64293804D03*
X90170080Y-64293804D03*
D18*
X95250080Y-64293804D03*
D19*
X91440080Y-61753804D03*
X97790080Y-59213804D03*
D17*
X290830240Y-64293804D03*
X280670240Y-64293804D03*
D18*
X285750240Y-64293804D03*
D19*
X281940240Y-61753804D03*
X288290240Y-59213804D03*
D17*
X271780224Y-64293804D03*
X261620224Y-64293804D03*
D18*
X266700224Y-64293804D03*
D19*
X262890224Y-61753804D03*
X269240224Y-59213804D03*
D17*
X233680192Y-64293804D03*
X223520192Y-64293804D03*
D18*
X228600192Y-64293804D03*
D19*
X224790192Y-61753804D03*
X231140192Y-59213804D03*
D17*
X33020032Y-83343820D03*
X43180032Y-83343820D03*
D18*
X38100032Y-83343820D03*
D19*
X41910032Y-85883820D03*
X35560032Y-88423820D03*
D17*
X62230048Y-83343820D03*
X52070048Y-83343820D03*
D18*
X57150048Y-83343820D03*
D19*
X53340048Y-80803820D03*
X59690048Y-78263820D03*
D17*
X233680192Y-83343820D03*
X223520192Y-83343820D03*
D18*
X228600192Y-83343820D03*
D19*
X224790192Y-80803820D03*
X231140192Y-78263820D03*
D17*
X24130016Y-102393836D03*
X13970016Y-102393836D03*
D18*
X19050016Y-102393836D03*
D19*
X15240016Y-99853836D03*
X21590016Y-97313836D03*
D17*
X43180032Y-102393836D03*
X33020032Y-102393836D03*
D18*
X38100032Y-102393836D03*
D19*
X34290032Y-99853836D03*
X40640032Y-97313836D03*
D17*
X62230048Y-102393836D03*
X52070048Y-102393836D03*
D18*
X57150048Y-102393836D03*
D19*
X53340048Y-99853836D03*
X59690048Y-97313836D03*
D17*
X100330080Y-83343820D03*
X90170080Y-83343820D03*
D18*
X95250080Y-83343820D03*
D19*
X91440080Y-80803820D03*
X97790080Y-78263820D03*
D17*
X214630176Y-83343820D03*
X204470176Y-83343820D03*
D18*
X209550176Y-83343820D03*
D19*
X205740176Y-80803820D03*
X212090176Y-78263820D03*
D17*
X24130016Y-121443852D03*
X13970016Y-121443852D03*
D18*
X19050016Y-121443852D03*
D19*
X15240016Y-118903852D03*
X21590016Y-116363852D03*
D17*
X43180032Y-121443852D03*
X33020032Y-121443852D03*
D18*
X38100032Y-121443852D03*
D19*
X34290032Y-118903852D03*
X40640032Y-116363852D03*
D17*
X81280064Y-102393836D03*
X71120064Y-102393836D03*
D18*
X76200064Y-102393836D03*
D19*
X72390064Y-99853836D03*
X78740064Y-97313836D03*
D17*
X100330080Y-102393836D03*
X90170080Y-102393836D03*
D18*
X95250080Y-102393836D03*
D19*
X91440080Y-99853836D03*
X97790080Y-97313836D03*
D17*
X24130016Y-140493868D03*
X13970016Y-140493868D03*
D18*
X19050016Y-140493868D03*
D19*
X15240016Y-137953868D03*
X21590016Y-135413868D03*
D17*
X62230048Y-121443852D03*
X52070048Y-121443852D03*
D18*
X57150048Y-121443852D03*
D19*
X53340048Y-118903852D03*
X59690048Y-116363852D03*
D17*
X81280064Y-121443852D03*
X71120064Y-121443852D03*
D18*
X76200064Y-121443852D03*
D19*
X72390064Y-118903852D03*
X78740064Y-116363852D03*
D17*
X100330080Y-121443852D03*
X90170080Y-121443852D03*
D18*
X95250080Y-121443852D03*
D19*
X91440080Y-118903852D03*
X97790080Y-116363852D03*
D17*
X43180032Y-140493868D03*
X33020032Y-140493868D03*
D18*
X38100032Y-140493868D03*
D19*
X34290032Y-137953868D03*
X40640032Y-135413868D03*
D17*
X81280064Y-140493868D03*
X71120064Y-140493868D03*
D18*
X76200064Y-140493868D03*
D19*
X72390064Y-137953868D03*
X78740064Y-135413868D03*
D22*
X147042311Y-127992295D03*
D23*
X145542311Y-127992295D03*
D24*
X155734510Y-126801669D03*
X160734510Y-126801669D03*
X160734510Y-129778234D03*
X155734510Y-129778234D03*
X144065746Y-96559454D03*
X144065746Y-94059454D03*
X144065746Y-88701637D03*
X144065746Y-91201637D03*
D25*
X29765650Y-63103178D03*
D26*
X28965650Y-61353178D03*
X28165650Y-63103178D03*
X27365650Y-61353178D03*
X26565650Y-63103178D03*
D27*
X32065650Y-61353178D03*
X32065650Y-56653178D03*
X24265650Y-56653178D03*
X24265650Y-61353178D03*
D28*
X144065746Y-82748507D03*
D29*
X144065746Y-80208507D03*
X146605746Y-82748507D03*
X146605746Y-80208507D03*
X149145746Y-82748507D03*
X149145746Y-80208507D03*
D30*
X159543884Y-63698491D03*
D31*
X157003884Y-63698491D03*
D32*
X148565746Y-75604751D03*
X144065746Y-75604751D03*
X148565746Y-69104751D03*
X144065746Y-69104751D03*
X144065746Y-100656340D03*
X148565746Y-100656340D03*
X144065746Y-107156340D03*
X148565746Y-107156340D03*
D33*
X148828250Y-89892263D03*
X148828250Y-94772263D03*
D15*
X154781380Y-69056308D03*
D16*
X162401380Y-102076308D03*
X154781380Y-71596308D03*
X162401380Y-99536308D03*
X154781380Y-74136308D03*
X162401380Y-96996308D03*
X154781380Y-76676308D03*
X162401380Y-94456308D03*
X154781380Y-79216308D03*
X162401380Y-91916308D03*
X154781380Y-81756308D03*
X162401380Y-89376308D03*
X154781380Y-84296308D03*
X162401380Y-86836308D03*
X154781380Y-86836308D03*
X162401380Y-84296308D03*
X154781380Y-89376308D03*
X162401380Y-81756308D03*
X154781380Y-91916308D03*
X162401380Y-79216308D03*
X154781380Y-94456308D03*
X162401380Y-76676308D03*
X154781380Y-96996308D03*
X162401380Y-74136308D03*
X154781380Y-99536308D03*
X162401380Y-71596308D03*
X154781380Y-102076308D03*
X162401380Y-69056308D03*
D15*
X154900449Y-121443852D03*
D16*
X162520449Y-121443852D03*
X162520449Y-118467287D03*
D15*
X154900449Y-118467287D03*
X136326677Y-64889117D03*
D16*
X128706677Y-64889117D03*
D15*
X133945425Y-67865682D03*
D16*
X126325425Y-67865682D03*
X128706677Y-70842247D03*
D15*
X136326677Y-70842247D03*
X136326677Y-76795377D03*
D16*
X128706677Y-76795377D03*
D15*
X168473579Y-64889117D03*
D16*
X176093579Y-64889117D03*
X176093579Y-70842247D03*
D15*
X168473579Y-70842247D03*
X170854831Y-73818812D03*
D16*
X178474831Y-73818812D03*
D15*
X136326677Y-82748507D03*
D16*
X128706677Y-82748507D03*
D15*
X133945425Y-85725072D03*
D16*
X126325425Y-85725072D03*
X128706677Y-88701637D03*
D15*
X136326677Y-88701637D03*
D16*
X126325425Y-91678202D03*
D15*
X133945425Y-91678202D03*
X133945425Y-79771942D03*
D16*
X126325425Y-79771942D03*
X176093579Y-82748507D03*
D15*
X168473579Y-82748507D03*
X170854831Y-85725072D03*
D16*
X178474831Y-85725072D03*
D15*
X168473579Y-88701637D03*
D16*
X176093579Y-88701637D03*
D15*
X170854831Y-91678202D03*
D16*
X178474831Y-91678202D03*
X126325425Y-100607897D03*
D15*
X133945425Y-100607897D03*
D16*
X126325425Y-103584462D03*
D15*
X133945425Y-103584462D03*
D16*
X128706677Y-106561027D03*
D15*
X136326677Y-106561027D03*
X136326677Y-94654767D03*
D16*
X128706677Y-94654767D03*
D15*
X133945425Y-97631332D03*
D16*
X126325425Y-97631332D03*
D15*
X168473579Y-100607897D03*
D16*
X176093579Y-100607897D03*
D15*
X170854831Y-103584462D03*
D16*
X178474831Y-103584462D03*
D15*
X168473579Y-106561027D03*
D16*
X176093579Y-106561027D03*
D15*
X168473579Y-94654767D03*
D16*
X176093579Y-94654767D03*
X126325425Y-121443852D03*
D15*
X133945425Y-121443852D03*
D16*
X126325425Y-109537592D03*
D15*
X133945425Y-109537592D03*
X136326677Y-112514157D03*
D16*
X128706677Y-112514157D03*
D15*
X133945425Y-115490722D03*
D16*
X126325425Y-115490722D03*
D15*
X170854831Y-121443852D03*
D16*
X178474831Y-121443852D03*
D15*
X170854831Y-109537592D03*
D16*
X178474831Y-109537592D03*
D15*
X168473579Y-112514157D03*
D16*
X176093579Y-112514157D03*
X135731364Y-144541990D03*
D15*
X135731364Y-136921990D03*
D16*
X128706677Y-124420417D03*
D15*
X136326677Y-124420417D03*
D16*
X126325425Y-127396982D03*
D15*
X133945425Y-127396982D03*
D16*
X128706677Y-130373547D03*
D15*
X136326677Y-130373547D03*
D16*
X169068892Y-144541990D03*
D15*
X169068892Y-136921990D03*
D16*
X176093579Y-124420417D03*
D15*
X168473579Y-124420417D03*
D16*
X178474831Y-127396982D03*
D15*
X170854831Y-127396982D03*
D16*
X176093579Y-130373547D03*
D15*
X168473579Y-130373547D03*
X138707929Y-134540738D03*
D16*
X138707929Y-142160738D03*
D15*
X144661059Y-134540738D03*
D16*
X144661059Y-142160738D03*
D15*
X147637624Y-136921990D03*
D16*
X147637624Y-144541990D03*
D15*
X166092327Y-134540738D03*
D16*
X166092327Y-142160738D03*
D15*
X163115762Y-136921990D03*
D16*
X163115762Y-144541990D03*
D15*
X160139197Y-134540738D03*
D16*
X160139197Y-142160738D03*
D15*
X157162632Y-136921990D03*
D16*
X157162632Y-144541990D03*
D30*
X147796372Y-63698491D03*
D31*
X145256372Y-63698491D03*
D16*
X126325425Y-133350112D03*
D15*
X133945425Y-133350112D03*
X150614189Y-134540738D03*
D16*
X150614189Y-142160738D03*
X176093579Y-76795377D03*
D15*
X168473579Y-76795377D03*
X170854831Y-79771942D03*
D16*
X178474831Y-79771942D03*
X178474831Y-97631332D03*
D15*
X170854831Y-97631332D03*
X170854831Y-115490722D03*
D16*
X178474831Y-115490722D03*
X178474831Y-133350112D03*
D15*
X170854831Y-133350112D03*
X154186067Y-134540738D03*
D16*
X154186067Y-142160738D03*
D17*
X119380096Y-121443852D03*
X109220096Y-121443852D03*
D18*
X114300096Y-121443852D03*
D19*
X110490096Y-118903852D03*
X116840096Y-116363852D03*
X116840096Y-135413868D03*
X110490096Y-137953868D03*
D18*
X114300096Y-140493868D03*
D17*
X109220096Y-140493868D03*
X119380096Y-140493868D03*
X214630176Y-64293804D03*
X204470176Y-64293804D03*
D18*
X209550176Y-64293804D03*
D19*
X205740176Y-61753804D03*
X212090176Y-59213804D03*
X193040160Y-59213804D03*
X186690160Y-61753804D03*
D18*
X190500160Y-64293804D03*
D17*
X185420160Y-64293804D03*
X195580160Y-64293804D03*
X195580160Y-83343820D03*
X185420160Y-83343820D03*
D18*
X190500160Y-83343820D03*
D19*
X186690160Y-80803820D03*
X193040160Y-78263820D03*
D17*
X195580160Y-102393836D03*
X185420160Y-102393836D03*
D18*
X190500160Y-102393836D03*
D19*
X186690160Y-99853836D03*
X193040160Y-97313836D03*
X193040160Y-116363852D03*
X186690160Y-118903852D03*
D18*
X190500160Y-121443852D03*
D17*
X185420160Y-121443852D03*
X195580160Y-121443852D03*
D19*
X193040160Y-135413868D03*
X186690160Y-137953868D03*
D18*
X190500160Y-140493868D03*
D17*
X185420160Y-140493868D03*
X195580160Y-140493868D03*
D19*
X107315088Y-135413868D03*
X100965088Y-137953868D03*
D18*
X104775088Y-140493868D03*
D34*
X92837088Y-147478868D03*
X116713088Y-147478868D03*
D18*
X92837088Y-132238868D03*
X116713088Y-132238868D03*
X211963168Y-132238868D03*
X188087168Y-132238868D03*
D34*
X211963168Y-147478868D03*
X188087168Y-147478868D03*
D18*
X200025168Y-140493868D03*
D19*
X196215168Y-137953868D03*
X202565168Y-135413868D03*
D12*
X162401380Y-113704783D03*
D13*
X154781380Y-113704783D03*
X162401380Y-111323531D03*
D12*
X154781380Y-111323531D03*
X142398876Y-58340674D03*
D13*
X150018876Y-58340674D03*
X162401380Y-58340674D03*
D12*
X154781380Y-58340674D03*
G36*
G01*
X25354711Y-72018812D02*
X26604711Y-72018812D01*
G75*
G02*
X26754711Y-72168812I0J-150000D01*
G01*
X26754711Y-72468812D01*
G75*
G02*
X26604711Y-72618812I-150000J0D01*
G01*
X25354711Y-72618812D01*
G75*
G02*
X25204711Y-72468812I0J150000D01*
G01*
X25204711Y-72168812D01*
G75*
G02*
X25354711Y-72018812I150000J0D01*
G01*
G37*
G36*
G01*
X25354711Y-73018812D02*
X26604711Y-73018812D01*
G75*
G02*
X26754711Y-73168812I0J-150000D01*
G01*
X26754711Y-73468812D01*
G75*
G02*
X26604711Y-73618812I-150000J0D01*
G01*
X25354711Y-73618812D01*
G75*
G02*
X25204711Y-73468812I0J150000D01*
G01*
X25204711Y-73168812D01*
G75*
G02*
X25354711Y-73018812I150000J0D01*
G01*
G37*
G36*
G01*
X25354711Y-74018812D02*
X26604711Y-74018812D01*
G75*
G02*
X26754711Y-74168812I0J-150000D01*
G01*
X26754711Y-74468812D01*
G75*
G02*
X26604711Y-74618812I-150000J0D01*
G01*
X25354711Y-74618812D01*
G75*
G02*
X25204711Y-74468812I0J150000D01*
G01*
X25204711Y-74168812D01*
G75*
G02*
X25354711Y-74018812I150000J0D01*
G01*
G37*
G36*
G01*
X25354711Y-75018812D02*
X26604711Y-75018812D01*
G75*
G02*
X26754711Y-75168812I0J-150000D01*
G01*
X26754711Y-75468812D01*
G75*
G02*
X26604711Y-75618812I-150000J0D01*
G01*
X25354711Y-75618812D01*
G75*
G02*
X25204711Y-75468812I0J150000D01*
G01*
X25204711Y-75168812D01*
G75*
G02*
X25354711Y-75018812I150000J0D01*
G01*
G37*
G36*
G01*
X29204710Y-70418812D02*
X30504712Y-70418812D01*
G75*
G02*
X30754711Y-70668811I0J-249999D01*
G01*
X30754711Y-71368813D01*
G75*
G02*
X30504712Y-71618812I-249999J0D01*
G01*
X29204710Y-71618812D01*
G75*
G02*
X28954711Y-71368813I0J249999D01*
G01*
X28954711Y-70668811D01*
G75*
G02*
X29204710Y-70418812I249999J0D01*
G01*
G37*
G36*
G01*
X29204710Y-76018812D02*
X30504712Y-76018812D01*
G75*
G02*
X30754711Y-76268811I0J-249999D01*
G01*
X30754711Y-76968813D01*
G75*
G02*
X30504712Y-77218812I-249999J0D01*
G01*
X29204710Y-77218812D01*
G75*
G02*
X28954711Y-76968813I0J249999D01*
G01*
X28954711Y-76268811D01*
G75*
G02*
X29204710Y-76018812I249999J0D01*
G01*
G37*
M02*
