G04 #@! TF.GenerationSoftware,KiCad,Pcbnew,(5.1.12-1-10_14)*
G04 #@! TF.CreationDate,2022-02-25T17:32:09+01:00*
G04 #@! TF.ProjectId,lumberjack,6c756d62-6572-46a6-9163-6b2e6b696361,1.5*
G04 #@! TF.SameCoordinates,Original*
G04 #@! TF.FileFunction,Soldermask,Top*
G04 #@! TF.FilePolarity,Negative*
%FSLAX46Y46*%
G04 Gerber Fmt 4.6, Leading zero omitted, Abs format (unit mm)*
G04 Created by KiCad (PCBNEW (5.1.12-1-10_14)) date 2022-02-25 17:32:09*
%MOMM*%
%LPD*%
G01*
G04 APERTURE LIST*
%ADD10C,2.250000*%
%ADD11C,3.987800*%
%ADD12C,1.750000*%
%ADD13C,2.000000*%
%ADD14C,1.700000*%
%ADD15C,1.100000*%
%ADD16O,1.100000X1.100000*%
%ADD17R,1.100000X1.100000*%
%ADD18O,0.850000X2.000000*%
%ADD19O,0.900000X1.700000*%
%ADD20O,0.900000X2.400000*%
%ADD21O,0.700000X1.000000*%
%ADD22O,0.700000X0.900000*%
%ADD23O,1.400000X1.400000*%
%ADD24C,1.400000*%
%ADD25C,1.710000*%
%ADD26R,1.600000X1.600000*%
%ADD27O,1.600000X1.600000*%
%ADD28C,5.000000*%
%ADD29O,11.600000X5.000000*%
%ADD30R,1.200000X1.200000*%
%ADD31C,1.200000*%
%ADD32C,1.600000*%
%ADD33R,1.700000X1.700000*%
%ADD34O,1.700000X1.700000*%
%ADD35R,1.800000X1.800000*%
%ADD36C,1.800000*%
%ADD37C,1.500000*%
%ADD38C,2.286000*%
%ADD39C,3.048000*%
%ADD40C,1.244600*%
G04 APERTURE END LIST*
G36*
G01*
X35676549Y-86721425D02*
X35676549Y-86721425D01*
G75*
G02*
X36722427Y-87920337I-76517J-1122395D01*
G01*
X36682885Y-88500369D01*
G75*
G02*
X35483973Y-89546247I-1122395J76517D01*
G01*
X35483973Y-89546247D01*
G75*
G02*
X34438095Y-88347335I76517J1122395D01*
G01*
X34477637Y-87767303D01*
G75*
G02*
X35676549Y-86721425I1122395J-76517D01*
G01*
G37*
D10*
X35560032Y-88423820D03*
G36*
G01*
X42661344Y-85046470D02*
X42661344Y-85046470D01*
G75*
G02*
X42747382Y-86635132I-751312J-837350D01*
G01*
X41437392Y-88095140D01*
G75*
G02*
X39848730Y-88181178I-837350J751312D01*
G01*
X39848730Y-88181178D01*
G75*
G02*
X39762692Y-86592516I751312J837350D01*
G01*
X41072682Y-85132508D01*
G75*
G02*
X42661344Y-85046470I837350J-751312D01*
G01*
G37*
D11*
X38100032Y-83343820D03*
D10*
X40600032Y-87343820D03*
D12*
X43180032Y-83343820D03*
X33020032Y-83343820D03*
D13*
X33100032Y-87143820D03*
X38100032Y-89243820D03*
D14*
X43600032Y-83343820D03*
X32600032Y-83343820D03*
X43600032Y-83343820D03*
X32600032Y-83343820D03*
D12*
X43180032Y-83343820D03*
X33020032Y-83343820D03*
D10*
X35600032Y-79343820D03*
D11*
X38100032Y-83343820D03*
G36*
G01*
X33538720Y-81641170D02*
X33538720Y-81641170D01*
G75*
G02*
X33452682Y-80052508I751312J837350D01*
G01*
X34762672Y-78592500D01*
G75*
G02*
X36351334Y-78506462I837350J-751312D01*
G01*
X36351334Y-78506462D01*
G75*
G02*
X36437372Y-80095124I-751312J-837350D01*
G01*
X35127382Y-81555132D01*
G75*
G02*
X33538720Y-81641170I-837350J751312D01*
G01*
G37*
D10*
X40640032Y-78263820D03*
G36*
G01*
X40523515Y-79966215D02*
X40523515Y-79966215D01*
G75*
G02*
X39477637Y-78767303I76517J1122395D01*
G01*
X39517179Y-78187271D01*
G75*
G02*
X40716091Y-77141393I1122395J-76517D01*
G01*
X40716091Y-77141393D01*
G75*
G02*
X41761969Y-78340305I-76517J-1122395D01*
G01*
X41722427Y-78920337D01*
G75*
G02*
X40523515Y-79966215I-1122395J76517D01*
G01*
G37*
D11*
X76200064Y-121443852D03*
D12*
X81280064Y-121443852D03*
X71120064Y-121443852D03*
D13*
X71200064Y-125243852D03*
X76200064Y-127343852D03*
D14*
X81700064Y-121443852D03*
X70700064Y-121443852D03*
X81700064Y-121443852D03*
X70700064Y-121443852D03*
D12*
X81280064Y-121443852D03*
X71120064Y-121443852D03*
D10*
X73700064Y-117443852D03*
D11*
X76200064Y-121443852D03*
G36*
G01*
X71638752Y-119741202D02*
X71638752Y-119741202D01*
G75*
G02*
X71552714Y-118152540I751312J837350D01*
G01*
X72862704Y-116692532D01*
G75*
G02*
X74451366Y-116606494I837350J-751312D01*
G01*
X74451366Y-116606494D01*
G75*
G02*
X74537404Y-118195156I-751312J-837350D01*
G01*
X73227414Y-119655164D01*
G75*
G02*
X71638752Y-119741202I-837350J751312D01*
G01*
G37*
D10*
X78740064Y-116363852D03*
G36*
G01*
X78623547Y-118066247D02*
X78623547Y-118066247D01*
G75*
G02*
X77577669Y-116867335I76517J1122395D01*
G01*
X77617211Y-116287303D01*
G75*
G02*
X78816123Y-115241425I1122395J-76517D01*
G01*
X78816123Y-115241425D01*
G75*
G02*
X79862001Y-116440337I-76517J-1122395D01*
G01*
X79822459Y-117020369D01*
G75*
G02*
X78623547Y-118066247I-1122395J76517D01*
G01*
G37*
D11*
X285750240Y-83343820D03*
D12*
X290830240Y-83343820D03*
X280670240Y-83343820D03*
D13*
X280750240Y-87143820D03*
X285750240Y-89243820D03*
D14*
X291250240Y-83343820D03*
X280250240Y-83343820D03*
X291250240Y-83343820D03*
X280250240Y-83343820D03*
D12*
X290830240Y-83343820D03*
X280670240Y-83343820D03*
D10*
X283250240Y-79343820D03*
D11*
X285750240Y-83343820D03*
G36*
G01*
X281188928Y-81641170D02*
X281188928Y-81641170D01*
G75*
G02*
X281102890Y-80052508I751312J837350D01*
G01*
X282412880Y-78592500D01*
G75*
G02*
X284001542Y-78506462I837350J-751312D01*
G01*
X284001542Y-78506462D01*
G75*
G02*
X284087580Y-80095124I-751312J-837350D01*
G01*
X282777590Y-81555132D01*
G75*
G02*
X281188928Y-81641170I-837350J751312D01*
G01*
G37*
D10*
X288290240Y-78263820D03*
G36*
G01*
X288173723Y-79966215D02*
X288173723Y-79966215D01*
G75*
G02*
X287127845Y-78767303I76517J1122395D01*
G01*
X287167387Y-78187271D01*
G75*
G02*
X288366299Y-77141393I1122395J-76517D01*
G01*
X288366299Y-77141393D01*
G75*
G02*
X289412177Y-78340305I-76517J-1122395D01*
G01*
X289372635Y-78920337D01*
G75*
G02*
X288173723Y-79966215I-1122395J76517D01*
G01*
G37*
D11*
X19049968Y-64293750D03*
D12*
X24129968Y-64293750D03*
X13969968Y-64293750D03*
D13*
X14049968Y-68093750D03*
X19049968Y-70193750D03*
D14*
X24549968Y-64293750D03*
X13549968Y-64293750D03*
X24549968Y-64293750D03*
X13549968Y-64293750D03*
D12*
X24129968Y-64293750D03*
X13969968Y-64293750D03*
D10*
X16549968Y-60293750D03*
D11*
X19049968Y-64293750D03*
G36*
G01*
X14488656Y-62591100D02*
X14488656Y-62591100D01*
G75*
G02*
X14402618Y-61002438I751312J837350D01*
G01*
X15712608Y-59542430D01*
G75*
G02*
X17301270Y-59456392I837350J-751312D01*
G01*
X17301270Y-59456392D01*
G75*
G02*
X17387308Y-61045054I-751312J-837350D01*
G01*
X16077318Y-62505062D01*
G75*
G02*
X14488656Y-62591100I-837350J751312D01*
G01*
G37*
D10*
X21589968Y-59213750D03*
G36*
G01*
X21473451Y-60916145D02*
X21473451Y-60916145D01*
G75*
G02*
X20427573Y-59717233I76517J1122395D01*
G01*
X20467115Y-59137201D01*
G75*
G02*
X21666027Y-58091323I1122395J-76517D01*
G01*
X21666027Y-58091323D01*
G75*
G02*
X22711905Y-59290235I-76517J-1122395D01*
G01*
X22672363Y-59870267D01*
G75*
G02*
X21473451Y-60916145I-1122395J76517D01*
G01*
G37*
D11*
X95250080Y-121443852D03*
D12*
X100330080Y-121443852D03*
X90170080Y-121443852D03*
D13*
X90250080Y-125243852D03*
X95250080Y-127343852D03*
D14*
X100750080Y-121443852D03*
X89750080Y-121443852D03*
X100750080Y-121443852D03*
X89750080Y-121443852D03*
D12*
X100330080Y-121443852D03*
X90170080Y-121443852D03*
D10*
X92750080Y-117443852D03*
D11*
X95250080Y-121443852D03*
G36*
G01*
X90688768Y-119741202D02*
X90688768Y-119741202D01*
G75*
G02*
X90602730Y-118152540I751312J837350D01*
G01*
X91912720Y-116692532D01*
G75*
G02*
X93501382Y-116606494I837350J-751312D01*
G01*
X93501382Y-116606494D01*
G75*
G02*
X93587420Y-118195156I-751312J-837350D01*
G01*
X92277430Y-119655164D01*
G75*
G02*
X90688768Y-119741202I-837350J751312D01*
G01*
G37*
D10*
X97790080Y-116363852D03*
G36*
G01*
X97673563Y-118066247D02*
X97673563Y-118066247D01*
G75*
G02*
X96627685Y-116867335I76517J1122395D01*
G01*
X96667227Y-116287303D01*
G75*
G02*
X97866139Y-115241425I1122395J-76517D01*
G01*
X97866139Y-115241425D01*
G75*
G02*
X98912017Y-116440337I-76517J-1122395D01*
G01*
X98872475Y-117020369D01*
G75*
G02*
X97673563Y-118066247I-1122395J76517D01*
G01*
G37*
D11*
X190500160Y-140493868D03*
D12*
X195580160Y-140493868D03*
X185420160Y-140493868D03*
D13*
X185500160Y-144293868D03*
X190500160Y-146393868D03*
D14*
X196000160Y-140493868D03*
X185000160Y-140493868D03*
X196000160Y-140493868D03*
X185000160Y-140493868D03*
D12*
X195580160Y-140493868D03*
X185420160Y-140493868D03*
D10*
X188000160Y-136493868D03*
D11*
X190500160Y-140493868D03*
G36*
G01*
X185938848Y-138791218D02*
X185938848Y-138791218D01*
G75*
G02*
X185852810Y-137202556I751312J837350D01*
G01*
X187162800Y-135742548D01*
G75*
G02*
X188751462Y-135656510I837350J-751312D01*
G01*
X188751462Y-135656510D01*
G75*
G02*
X188837500Y-137245172I-751312J-837350D01*
G01*
X187527510Y-138705180D01*
G75*
G02*
X185938848Y-138791218I-837350J751312D01*
G01*
G37*
D10*
X193040160Y-135413868D03*
G36*
G01*
X192923643Y-137116263D02*
X192923643Y-137116263D01*
G75*
G02*
X191877765Y-135917351I76517J1122395D01*
G01*
X191917307Y-135337319D01*
G75*
G02*
X193116219Y-134291441I1122395J-76517D01*
G01*
X193116219Y-134291441D01*
G75*
G02*
X194162097Y-135490353I-76517J-1122395D01*
G01*
X194122555Y-136070385D01*
G75*
G02*
X192923643Y-137116263I-1122395J76517D01*
G01*
G37*
D11*
X190500160Y-121443852D03*
D12*
X195580160Y-121443852D03*
X185420160Y-121443852D03*
D13*
X185500160Y-125243852D03*
X190500160Y-127343852D03*
D14*
X196000160Y-121443852D03*
X185000160Y-121443852D03*
X196000160Y-121443852D03*
X185000160Y-121443852D03*
D12*
X195580160Y-121443852D03*
X185420160Y-121443852D03*
D10*
X188000160Y-117443852D03*
D11*
X190500160Y-121443852D03*
G36*
G01*
X185938848Y-119741202D02*
X185938848Y-119741202D01*
G75*
G02*
X185852810Y-118152540I751312J837350D01*
G01*
X187162800Y-116692532D01*
G75*
G02*
X188751462Y-116606494I837350J-751312D01*
G01*
X188751462Y-116606494D01*
G75*
G02*
X188837500Y-118195156I-751312J-837350D01*
G01*
X187527510Y-119655164D01*
G75*
G02*
X185938848Y-119741202I-837350J751312D01*
G01*
G37*
D10*
X193040160Y-116363852D03*
G36*
G01*
X192923643Y-118066247D02*
X192923643Y-118066247D01*
G75*
G02*
X191877765Y-116867335I76517J1122395D01*
G01*
X191917307Y-116287303D01*
G75*
G02*
X193116219Y-115241425I1122395J-76517D01*
G01*
X193116219Y-115241425D01*
G75*
G02*
X194162097Y-116440337I-76517J-1122395D01*
G01*
X194122555Y-117020369D01*
G75*
G02*
X192923643Y-118066247I-1122395J76517D01*
G01*
G37*
D11*
X190500160Y-102393836D03*
D12*
X195580160Y-102393836D03*
X185420160Y-102393836D03*
D13*
X185500160Y-106193836D03*
X190500160Y-108293836D03*
D14*
X196000160Y-102393836D03*
X185000160Y-102393836D03*
X196000160Y-102393836D03*
X185000160Y-102393836D03*
D12*
X195580160Y-102393836D03*
X185420160Y-102393836D03*
D10*
X188000160Y-98393836D03*
D11*
X190500160Y-102393836D03*
G36*
G01*
X185938848Y-100691186D02*
X185938848Y-100691186D01*
G75*
G02*
X185852810Y-99102524I751312J837350D01*
G01*
X187162800Y-97642516D01*
G75*
G02*
X188751462Y-97556478I837350J-751312D01*
G01*
X188751462Y-97556478D01*
G75*
G02*
X188837500Y-99145140I-751312J-837350D01*
G01*
X187527510Y-100605148D01*
G75*
G02*
X185938848Y-100691186I-837350J751312D01*
G01*
G37*
D10*
X193040160Y-97313836D03*
G36*
G01*
X192923643Y-99016231D02*
X192923643Y-99016231D01*
G75*
G02*
X191877765Y-97817319I76517J1122395D01*
G01*
X191917307Y-97237287D01*
G75*
G02*
X193116219Y-96191409I1122395J-76517D01*
G01*
X193116219Y-96191409D01*
G75*
G02*
X194162097Y-97390321I-76517J-1122395D01*
G01*
X194122555Y-97970353D01*
G75*
G02*
X192923643Y-99016231I-1122395J76517D01*
G01*
G37*
D11*
X190500160Y-83343820D03*
D12*
X195580160Y-83343820D03*
X185420160Y-83343820D03*
D13*
X185500160Y-87143820D03*
X190500160Y-89243820D03*
D14*
X196000160Y-83343820D03*
X185000160Y-83343820D03*
X196000160Y-83343820D03*
X185000160Y-83343820D03*
D12*
X195580160Y-83343820D03*
X185420160Y-83343820D03*
D10*
X188000160Y-79343820D03*
D11*
X190500160Y-83343820D03*
G36*
G01*
X185938848Y-81641170D02*
X185938848Y-81641170D01*
G75*
G02*
X185852810Y-80052508I751312J837350D01*
G01*
X187162800Y-78592500D01*
G75*
G02*
X188751462Y-78506462I837350J-751312D01*
G01*
X188751462Y-78506462D01*
G75*
G02*
X188837500Y-80095124I-751312J-837350D01*
G01*
X187527510Y-81555132D01*
G75*
G02*
X185938848Y-81641170I-837350J751312D01*
G01*
G37*
D10*
X193040160Y-78263820D03*
G36*
G01*
X192923643Y-79966215D02*
X192923643Y-79966215D01*
G75*
G02*
X191877765Y-78767303I76517J1122395D01*
G01*
X191917307Y-78187271D01*
G75*
G02*
X193116219Y-77141393I1122395J-76517D01*
G01*
X193116219Y-77141393D01*
G75*
G02*
X194162097Y-78340305I-76517J-1122395D01*
G01*
X194122555Y-78920337D01*
G75*
G02*
X192923643Y-79966215I-1122395J76517D01*
G01*
G37*
D11*
X190500160Y-64293804D03*
D12*
X195580160Y-64293804D03*
X185420160Y-64293804D03*
D13*
X185500160Y-68093804D03*
X190500160Y-70193804D03*
D14*
X196000160Y-64293804D03*
X185000160Y-64293804D03*
X196000160Y-64293804D03*
X185000160Y-64293804D03*
D12*
X195580160Y-64293804D03*
X185420160Y-64293804D03*
D10*
X188000160Y-60293804D03*
D11*
X190500160Y-64293804D03*
G36*
G01*
X185938848Y-62591154D02*
X185938848Y-62591154D01*
G75*
G02*
X185852810Y-61002492I751312J837350D01*
G01*
X187162800Y-59542484D01*
G75*
G02*
X188751462Y-59456446I837350J-751312D01*
G01*
X188751462Y-59456446D01*
G75*
G02*
X188837500Y-61045108I-751312J-837350D01*
G01*
X187527510Y-62505116D01*
G75*
G02*
X185938848Y-62591154I-837350J751312D01*
G01*
G37*
D10*
X193040160Y-59213804D03*
G36*
G01*
X192923643Y-60916199D02*
X192923643Y-60916199D01*
G75*
G02*
X191877765Y-59717287I76517J1122395D01*
G01*
X191917307Y-59137255D01*
G75*
G02*
X193116219Y-58091377I1122395J-76517D01*
G01*
X193116219Y-58091377D01*
G75*
G02*
X194162097Y-59290289I-76517J-1122395D01*
G01*
X194122555Y-59870321D01*
G75*
G02*
X192923643Y-60916199I-1122395J76517D01*
G01*
G37*
D11*
X209550176Y-64293804D03*
D12*
X214630176Y-64293804D03*
X204470176Y-64293804D03*
D13*
X204550176Y-68093804D03*
X209550176Y-70193804D03*
D14*
X215050176Y-64293804D03*
X204050176Y-64293804D03*
X215050176Y-64293804D03*
X204050176Y-64293804D03*
D12*
X214630176Y-64293804D03*
X204470176Y-64293804D03*
D10*
X207050176Y-60293804D03*
D11*
X209550176Y-64293804D03*
G36*
G01*
X204988864Y-62591154D02*
X204988864Y-62591154D01*
G75*
G02*
X204902826Y-61002492I751312J837350D01*
G01*
X206212816Y-59542484D01*
G75*
G02*
X207801478Y-59456446I837350J-751312D01*
G01*
X207801478Y-59456446D01*
G75*
G02*
X207887516Y-61045108I-751312J-837350D01*
G01*
X206577526Y-62505116D01*
G75*
G02*
X204988864Y-62591154I-837350J751312D01*
G01*
G37*
D10*
X212090176Y-59213804D03*
G36*
G01*
X211973659Y-60916199D02*
X211973659Y-60916199D01*
G75*
G02*
X210927781Y-59717287I76517J1122395D01*
G01*
X210967323Y-59137255D01*
G75*
G02*
X212166235Y-58091377I1122395J-76517D01*
G01*
X212166235Y-58091377D01*
G75*
G02*
X213212113Y-59290289I-76517J-1122395D01*
G01*
X213172571Y-59870321D01*
G75*
G02*
X211973659Y-60916199I-1122395J76517D01*
G01*
G37*
D11*
X209550176Y-140493868D03*
D12*
X214630176Y-140493868D03*
X204470176Y-140493868D03*
D13*
X204550176Y-144293868D03*
X209550176Y-146393868D03*
D14*
X215050176Y-140493868D03*
X204050176Y-140493868D03*
X215050176Y-140493868D03*
X204050176Y-140493868D03*
D12*
X214630176Y-140493868D03*
X204470176Y-140493868D03*
D10*
X207050176Y-136493868D03*
D11*
X209550176Y-140493868D03*
G36*
G01*
X204988864Y-138791218D02*
X204988864Y-138791218D01*
G75*
G02*
X204902826Y-137202556I751312J837350D01*
G01*
X206212816Y-135742548D01*
G75*
G02*
X207801478Y-135656510I837350J-751312D01*
G01*
X207801478Y-135656510D01*
G75*
G02*
X207887516Y-137245172I-751312J-837350D01*
G01*
X206577526Y-138705180D01*
G75*
G02*
X204988864Y-138791218I-837350J751312D01*
G01*
G37*
D10*
X212090176Y-135413868D03*
G36*
G01*
X211973659Y-137116263D02*
X211973659Y-137116263D01*
G75*
G02*
X210927781Y-135917351I76517J1122395D01*
G01*
X210967323Y-135337319D01*
G75*
G02*
X212166235Y-134291441I1122395J-76517D01*
G01*
X212166235Y-134291441D01*
G75*
G02*
X213212113Y-135490353I-76517J-1122395D01*
G01*
X213172571Y-136070385D01*
G75*
G02*
X211973659Y-137116263I-1122395J76517D01*
G01*
G37*
D11*
X209550176Y-121443852D03*
D12*
X214630176Y-121443852D03*
X204470176Y-121443852D03*
D13*
X204550176Y-125243852D03*
X209550176Y-127343852D03*
D14*
X215050176Y-121443852D03*
X204050176Y-121443852D03*
X215050176Y-121443852D03*
X204050176Y-121443852D03*
D12*
X214630176Y-121443852D03*
X204470176Y-121443852D03*
D10*
X207050176Y-117443852D03*
D11*
X209550176Y-121443852D03*
G36*
G01*
X204988864Y-119741202D02*
X204988864Y-119741202D01*
G75*
G02*
X204902826Y-118152540I751312J837350D01*
G01*
X206212816Y-116692532D01*
G75*
G02*
X207801478Y-116606494I837350J-751312D01*
G01*
X207801478Y-116606494D01*
G75*
G02*
X207887516Y-118195156I-751312J-837350D01*
G01*
X206577526Y-119655164D01*
G75*
G02*
X204988864Y-119741202I-837350J751312D01*
G01*
G37*
D10*
X212090176Y-116363852D03*
G36*
G01*
X211973659Y-118066247D02*
X211973659Y-118066247D01*
G75*
G02*
X210927781Y-116867335I76517J1122395D01*
G01*
X210967323Y-116287303D01*
G75*
G02*
X212166235Y-115241425I1122395J-76517D01*
G01*
X212166235Y-115241425D01*
G75*
G02*
X213212113Y-116440337I-76517J-1122395D01*
G01*
X213172571Y-117020369D01*
G75*
G02*
X211973659Y-118066247I-1122395J76517D01*
G01*
G37*
D11*
X209550176Y-102393836D03*
D12*
X214630176Y-102393836D03*
X204470176Y-102393836D03*
D13*
X204550176Y-106193836D03*
X209550176Y-108293836D03*
D14*
X215050176Y-102393836D03*
X204050176Y-102393836D03*
X215050176Y-102393836D03*
X204050176Y-102393836D03*
D12*
X214630176Y-102393836D03*
X204470176Y-102393836D03*
D10*
X207050176Y-98393836D03*
D11*
X209550176Y-102393836D03*
G36*
G01*
X204988864Y-100691186D02*
X204988864Y-100691186D01*
G75*
G02*
X204902826Y-99102524I751312J837350D01*
G01*
X206212816Y-97642516D01*
G75*
G02*
X207801478Y-97556478I837350J-751312D01*
G01*
X207801478Y-97556478D01*
G75*
G02*
X207887516Y-99145140I-751312J-837350D01*
G01*
X206577526Y-100605148D01*
G75*
G02*
X204988864Y-100691186I-837350J751312D01*
G01*
G37*
D10*
X212090176Y-97313836D03*
G36*
G01*
X211973659Y-99016231D02*
X211973659Y-99016231D01*
G75*
G02*
X210927781Y-97817319I76517J1122395D01*
G01*
X210967323Y-97237287D01*
G75*
G02*
X212166235Y-96191409I1122395J-76517D01*
G01*
X212166235Y-96191409D01*
G75*
G02*
X213212113Y-97390321I-76517J-1122395D01*
G01*
X213172571Y-97970353D01*
G75*
G02*
X211973659Y-99016231I-1122395J76517D01*
G01*
G37*
D11*
X209550176Y-83343820D03*
D12*
X214630176Y-83343820D03*
X204470176Y-83343820D03*
D13*
X204550176Y-87143820D03*
X209550176Y-89243820D03*
D14*
X215050176Y-83343820D03*
X204050176Y-83343820D03*
X215050176Y-83343820D03*
X204050176Y-83343820D03*
D12*
X214630176Y-83343820D03*
X204470176Y-83343820D03*
D10*
X207050176Y-79343820D03*
D11*
X209550176Y-83343820D03*
G36*
G01*
X204988864Y-81641170D02*
X204988864Y-81641170D01*
G75*
G02*
X204902826Y-80052508I751312J837350D01*
G01*
X206212816Y-78592500D01*
G75*
G02*
X207801478Y-78506462I837350J-751312D01*
G01*
X207801478Y-78506462D01*
G75*
G02*
X207887516Y-80095124I-751312J-837350D01*
G01*
X206577526Y-81555132D01*
G75*
G02*
X204988864Y-81641170I-837350J751312D01*
G01*
G37*
D10*
X212090176Y-78263820D03*
G36*
G01*
X211973659Y-79966215D02*
X211973659Y-79966215D01*
G75*
G02*
X210927781Y-78767303I76517J1122395D01*
G01*
X210967323Y-78187271D01*
G75*
G02*
X212166235Y-77141393I1122395J-76517D01*
G01*
X212166235Y-77141393D01*
G75*
G02*
X213212113Y-78340305I-76517J-1122395D01*
G01*
X213172571Y-78920337D01*
G75*
G02*
X211973659Y-79966215I-1122395J76517D01*
G01*
G37*
D11*
X228600192Y-83343820D03*
D12*
X233680192Y-83343820D03*
X223520192Y-83343820D03*
D13*
X223600192Y-87143820D03*
X228600192Y-89243820D03*
D14*
X234100192Y-83343820D03*
X223100192Y-83343820D03*
X234100192Y-83343820D03*
X223100192Y-83343820D03*
D12*
X233680192Y-83343820D03*
X223520192Y-83343820D03*
D10*
X226100192Y-79343820D03*
D11*
X228600192Y-83343820D03*
G36*
G01*
X224038880Y-81641170D02*
X224038880Y-81641170D01*
G75*
G02*
X223952842Y-80052508I751312J837350D01*
G01*
X225262832Y-78592500D01*
G75*
G02*
X226851494Y-78506462I837350J-751312D01*
G01*
X226851494Y-78506462D01*
G75*
G02*
X226937532Y-80095124I-751312J-837350D01*
G01*
X225627542Y-81555132D01*
G75*
G02*
X224038880Y-81641170I-837350J751312D01*
G01*
G37*
D10*
X231140192Y-78263820D03*
G36*
G01*
X231023675Y-79966215D02*
X231023675Y-79966215D01*
G75*
G02*
X229977797Y-78767303I76517J1122395D01*
G01*
X230017339Y-78187271D01*
G75*
G02*
X231216251Y-77141393I1122395J-76517D01*
G01*
X231216251Y-77141393D01*
G75*
G02*
X232262129Y-78340305I-76517J-1122395D01*
G01*
X232222587Y-78920337D01*
G75*
G02*
X231023675Y-79966215I-1122395J76517D01*
G01*
G37*
D11*
X228600192Y-64293804D03*
D12*
X233680192Y-64293804D03*
X223520192Y-64293804D03*
D13*
X223600192Y-68093804D03*
X228600192Y-70193804D03*
D14*
X234100192Y-64293804D03*
X223100192Y-64293804D03*
X234100192Y-64293804D03*
X223100192Y-64293804D03*
D12*
X233680192Y-64293804D03*
X223520192Y-64293804D03*
D10*
X226100192Y-60293804D03*
D11*
X228600192Y-64293804D03*
G36*
G01*
X224038880Y-62591154D02*
X224038880Y-62591154D01*
G75*
G02*
X223952842Y-61002492I751312J837350D01*
G01*
X225262832Y-59542484D01*
G75*
G02*
X226851494Y-59456446I837350J-751312D01*
G01*
X226851494Y-59456446D01*
G75*
G02*
X226937532Y-61045108I-751312J-837350D01*
G01*
X225627542Y-62505116D01*
G75*
G02*
X224038880Y-62591154I-837350J751312D01*
G01*
G37*
D10*
X231140192Y-59213804D03*
G36*
G01*
X231023675Y-60916199D02*
X231023675Y-60916199D01*
G75*
G02*
X229977797Y-59717287I76517J1122395D01*
G01*
X230017339Y-59137255D01*
G75*
G02*
X231216251Y-58091377I1122395J-76517D01*
G01*
X231216251Y-58091377D01*
G75*
G02*
X232262129Y-59290289I-76517J-1122395D01*
G01*
X232222587Y-59870321D01*
G75*
G02*
X231023675Y-60916199I-1122395J76517D01*
G01*
G37*
D11*
X228600192Y-140493868D03*
D12*
X233680192Y-140493868D03*
X223520192Y-140493868D03*
D13*
X223600192Y-144293868D03*
X228600192Y-146393868D03*
D14*
X234100192Y-140493868D03*
X223100192Y-140493868D03*
X234100192Y-140493868D03*
X223100192Y-140493868D03*
D12*
X233680192Y-140493868D03*
X223520192Y-140493868D03*
D10*
X226100192Y-136493868D03*
D11*
X228600192Y-140493868D03*
G36*
G01*
X224038880Y-138791218D02*
X224038880Y-138791218D01*
G75*
G02*
X223952842Y-137202556I751312J837350D01*
G01*
X225262832Y-135742548D01*
G75*
G02*
X226851494Y-135656510I837350J-751312D01*
G01*
X226851494Y-135656510D01*
G75*
G02*
X226937532Y-137245172I-751312J-837350D01*
G01*
X225627542Y-138705180D01*
G75*
G02*
X224038880Y-138791218I-837350J751312D01*
G01*
G37*
D10*
X231140192Y-135413868D03*
G36*
G01*
X231023675Y-137116263D02*
X231023675Y-137116263D01*
G75*
G02*
X229977797Y-135917351I76517J1122395D01*
G01*
X230017339Y-135337319D01*
G75*
G02*
X231216251Y-134291441I1122395J-76517D01*
G01*
X231216251Y-134291441D01*
G75*
G02*
X232262129Y-135490353I-76517J-1122395D01*
G01*
X232222587Y-136070385D01*
G75*
G02*
X231023675Y-137116263I-1122395J76517D01*
G01*
G37*
D11*
X228600192Y-121443852D03*
D12*
X233680192Y-121443852D03*
X223520192Y-121443852D03*
D13*
X223600192Y-125243852D03*
X228600192Y-127343852D03*
D14*
X234100192Y-121443852D03*
X223100192Y-121443852D03*
X234100192Y-121443852D03*
X223100192Y-121443852D03*
D12*
X233680192Y-121443852D03*
X223520192Y-121443852D03*
D10*
X226100192Y-117443852D03*
D11*
X228600192Y-121443852D03*
G36*
G01*
X224038880Y-119741202D02*
X224038880Y-119741202D01*
G75*
G02*
X223952842Y-118152540I751312J837350D01*
G01*
X225262832Y-116692532D01*
G75*
G02*
X226851494Y-116606494I837350J-751312D01*
G01*
X226851494Y-116606494D01*
G75*
G02*
X226937532Y-118195156I-751312J-837350D01*
G01*
X225627542Y-119655164D01*
G75*
G02*
X224038880Y-119741202I-837350J751312D01*
G01*
G37*
D10*
X231140192Y-116363852D03*
G36*
G01*
X231023675Y-118066247D02*
X231023675Y-118066247D01*
G75*
G02*
X229977797Y-116867335I76517J1122395D01*
G01*
X230017339Y-116287303D01*
G75*
G02*
X231216251Y-115241425I1122395J-76517D01*
G01*
X231216251Y-115241425D01*
G75*
G02*
X232262129Y-116440337I-76517J-1122395D01*
G01*
X232222587Y-117020369D01*
G75*
G02*
X231023675Y-118066247I-1122395J76517D01*
G01*
G37*
D11*
X228600192Y-102393836D03*
D12*
X233680192Y-102393836D03*
X223520192Y-102393836D03*
D13*
X223600192Y-106193836D03*
X228600192Y-108293836D03*
D14*
X234100192Y-102393836D03*
X223100192Y-102393836D03*
X234100192Y-102393836D03*
X223100192Y-102393836D03*
D12*
X233680192Y-102393836D03*
X223520192Y-102393836D03*
D10*
X226100192Y-98393836D03*
D11*
X228600192Y-102393836D03*
G36*
G01*
X224038880Y-100691186D02*
X224038880Y-100691186D01*
G75*
G02*
X223952842Y-99102524I751312J837350D01*
G01*
X225262832Y-97642516D01*
G75*
G02*
X226851494Y-97556478I837350J-751312D01*
G01*
X226851494Y-97556478D01*
G75*
G02*
X226937532Y-99145140I-751312J-837350D01*
G01*
X225627542Y-100605148D01*
G75*
G02*
X224038880Y-100691186I-837350J751312D01*
G01*
G37*
D10*
X231140192Y-97313836D03*
G36*
G01*
X231023675Y-99016231D02*
X231023675Y-99016231D01*
G75*
G02*
X229977797Y-97817319I76517J1122395D01*
G01*
X230017339Y-97237287D01*
G75*
G02*
X231216251Y-96191409I1122395J-76517D01*
G01*
X231216251Y-96191409D01*
G75*
G02*
X232262129Y-97390321I-76517J-1122395D01*
G01*
X232222587Y-97970353D01*
G75*
G02*
X231023675Y-99016231I-1122395J76517D01*
G01*
G37*
D11*
X247650208Y-102393836D03*
D12*
X252730208Y-102393836D03*
X242570208Y-102393836D03*
D13*
X242650208Y-106193836D03*
X247650208Y-108293836D03*
D14*
X253150208Y-102393836D03*
X242150208Y-102393836D03*
X253150208Y-102393836D03*
X242150208Y-102393836D03*
D12*
X252730208Y-102393836D03*
X242570208Y-102393836D03*
D10*
X245150208Y-98393836D03*
D11*
X247650208Y-102393836D03*
G36*
G01*
X243088896Y-100691186D02*
X243088896Y-100691186D01*
G75*
G02*
X243002858Y-99102524I751312J837350D01*
G01*
X244312848Y-97642516D01*
G75*
G02*
X245901510Y-97556478I837350J-751312D01*
G01*
X245901510Y-97556478D01*
G75*
G02*
X245987548Y-99145140I-751312J-837350D01*
G01*
X244677558Y-100605148D01*
G75*
G02*
X243088896Y-100691186I-837350J751312D01*
G01*
G37*
D10*
X250190208Y-97313836D03*
G36*
G01*
X250073691Y-99016231D02*
X250073691Y-99016231D01*
G75*
G02*
X249027813Y-97817319I76517J1122395D01*
G01*
X249067355Y-97237287D01*
G75*
G02*
X250266267Y-96191409I1122395J-76517D01*
G01*
X250266267Y-96191409D01*
G75*
G02*
X251312145Y-97390321I-76517J-1122395D01*
G01*
X251272603Y-97970353D01*
G75*
G02*
X250073691Y-99016231I-1122395J76517D01*
G01*
G37*
D11*
X247650208Y-83343820D03*
D12*
X252730208Y-83343820D03*
X242570208Y-83343820D03*
D13*
X242650208Y-87143820D03*
X247650208Y-89243820D03*
D14*
X253150208Y-83343820D03*
X242150208Y-83343820D03*
X253150208Y-83343820D03*
X242150208Y-83343820D03*
D12*
X252730208Y-83343820D03*
X242570208Y-83343820D03*
D10*
X245150208Y-79343820D03*
D11*
X247650208Y-83343820D03*
G36*
G01*
X243088896Y-81641170D02*
X243088896Y-81641170D01*
G75*
G02*
X243002858Y-80052508I751312J837350D01*
G01*
X244312848Y-78592500D01*
G75*
G02*
X245901510Y-78506462I837350J-751312D01*
G01*
X245901510Y-78506462D01*
G75*
G02*
X245987548Y-80095124I-751312J-837350D01*
G01*
X244677558Y-81555132D01*
G75*
G02*
X243088896Y-81641170I-837350J751312D01*
G01*
G37*
D10*
X250190208Y-78263820D03*
G36*
G01*
X250073691Y-79966215D02*
X250073691Y-79966215D01*
G75*
G02*
X249027813Y-78767303I76517J1122395D01*
G01*
X249067355Y-78187271D01*
G75*
G02*
X250266267Y-77141393I1122395J-76517D01*
G01*
X250266267Y-77141393D01*
G75*
G02*
X251312145Y-78340305I-76517J-1122395D01*
G01*
X251272603Y-78920337D01*
G75*
G02*
X250073691Y-79966215I-1122395J76517D01*
G01*
G37*
D11*
X247650208Y-64293804D03*
D12*
X252730208Y-64293804D03*
X242570208Y-64293804D03*
D13*
X242650208Y-68093804D03*
X247650208Y-70193804D03*
D14*
X253150208Y-64293804D03*
X242150208Y-64293804D03*
X253150208Y-64293804D03*
X242150208Y-64293804D03*
D12*
X252730208Y-64293804D03*
X242570208Y-64293804D03*
D10*
X245150208Y-60293804D03*
D11*
X247650208Y-64293804D03*
G36*
G01*
X243088896Y-62591154D02*
X243088896Y-62591154D01*
G75*
G02*
X243002858Y-61002492I751312J837350D01*
G01*
X244312848Y-59542484D01*
G75*
G02*
X245901510Y-59456446I837350J-751312D01*
G01*
X245901510Y-59456446D01*
G75*
G02*
X245987548Y-61045108I-751312J-837350D01*
G01*
X244677558Y-62505116D01*
G75*
G02*
X243088896Y-62591154I-837350J751312D01*
G01*
G37*
D10*
X250190208Y-59213804D03*
G36*
G01*
X250073691Y-60916199D02*
X250073691Y-60916199D01*
G75*
G02*
X249027813Y-59717287I76517J1122395D01*
G01*
X249067355Y-59137255D01*
G75*
G02*
X250266267Y-58091377I1122395J-76517D01*
G01*
X250266267Y-58091377D01*
G75*
G02*
X251312145Y-59290289I-76517J-1122395D01*
G01*
X251272603Y-59870321D01*
G75*
G02*
X250073691Y-60916199I-1122395J76517D01*
G01*
G37*
D11*
X247650208Y-140493868D03*
D12*
X252730208Y-140493868D03*
X242570208Y-140493868D03*
D13*
X242650208Y-144293868D03*
X247650208Y-146393868D03*
D14*
X253150208Y-140493868D03*
X242150208Y-140493868D03*
X253150208Y-140493868D03*
X242150208Y-140493868D03*
D12*
X252730208Y-140493868D03*
X242570208Y-140493868D03*
D10*
X245150208Y-136493868D03*
D11*
X247650208Y-140493868D03*
G36*
G01*
X243088896Y-138791218D02*
X243088896Y-138791218D01*
G75*
G02*
X243002858Y-137202556I751312J837350D01*
G01*
X244312848Y-135742548D01*
G75*
G02*
X245901510Y-135656510I837350J-751312D01*
G01*
X245901510Y-135656510D01*
G75*
G02*
X245987548Y-137245172I-751312J-837350D01*
G01*
X244677558Y-138705180D01*
G75*
G02*
X243088896Y-138791218I-837350J751312D01*
G01*
G37*
D10*
X250190208Y-135413868D03*
G36*
G01*
X250073691Y-137116263D02*
X250073691Y-137116263D01*
G75*
G02*
X249027813Y-135917351I76517J1122395D01*
G01*
X249067355Y-135337319D01*
G75*
G02*
X250266267Y-134291441I1122395J-76517D01*
G01*
X250266267Y-134291441D01*
G75*
G02*
X251312145Y-135490353I-76517J-1122395D01*
G01*
X251272603Y-136070385D01*
G75*
G02*
X250073691Y-137116263I-1122395J76517D01*
G01*
G37*
D11*
X247650208Y-121443852D03*
D12*
X252730208Y-121443852D03*
X242570208Y-121443852D03*
D13*
X242650208Y-125243852D03*
X247650208Y-127343852D03*
D14*
X253150208Y-121443852D03*
X242150208Y-121443852D03*
X253150208Y-121443852D03*
X242150208Y-121443852D03*
D12*
X252730208Y-121443852D03*
X242570208Y-121443852D03*
D10*
X245150208Y-117443852D03*
D11*
X247650208Y-121443852D03*
G36*
G01*
X243088896Y-119741202D02*
X243088896Y-119741202D01*
G75*
G02*
X243002858Y-118152540I751312J837350D01*
G01*
X244312848Y-116692532D01*
G75*
G02*
X245901510Y-116606494I837350J-751312D01*
G01*
X245901510Y-116606494D01*
G75*
G02*
X245987548Y-118195156I-751312J-837350D01*
G01*
X244677558Y-119655164D01*
G75*
G02*
X243088896Y-119741202I-837350J751312D01*
G01*
G37*
D10*
X250190208Y-116363852D03*
G36*
G01*
X250073691Y-118066247D02*
X250073691Y-118066247D01*
G75*
G02*
X249027813Y-116867335I76517J1122395D01*
G01*
X249067355Y-116287303D01*
G75*
G02*
X250266267Y-115241425I1122395J-76517D01*
G01*
X250266267Y-115241425D01*
G75*
G02*
X251312145Y-116440337I-76517J-1122395D01*
G01*
X251272603Y-117020369D01*
G75*
G02*
X250073691Y-118066247I-1122395J76517D01*
G01*
G37*
D11*
X266700224Y-121443852D03*
D12*
X271780224Y-121443852D03*
X261620224Y-121443852D03*
D13*
X261700224Y-125243852D03*
X266700224Y-127343852D03*
D14*
X272200224Y-121443852D03*
X261200224Y-121443852D03*
X272200224Y-121443852D03*
X261200224Y-121443852D03*
D12*
X271780224Y-121443852D03*
X261620224Y-121443852D03*
D10*
X264200224Y-117443852D03*
D11*
X266700224Y-121443852D03*
G36*
G01*
X262138912Y-119741202D02*
X262138912Y-119741202D01*
G75*
G02*
X262052874Y-118152540I751312J837350D01*
G01*
X263362864Y-116692532D01*
G75*
G02*
X264951526Y-116606494I837350J-751312D01*
G01*
X264951526Y-116606494D01*
G75*
G02*
X265037564Y-118195156I-751312J-837350D01*
G01*
X263727574Y-119655164D01*
G75*
G02*
X262138912Y-119741202I-837350J751312D01*
G01*
G37*
D10*
X269240224Y-116363852D03*
G36*
G01*
X269123707Y-118066247D02*
X269123707Y-118066247D01*
G75*
G02*
X268077829Y-116867335I76517J1122395D01*
G01*
X268117371Y-116287303D01*
G75*
G02*
X269316283Y-115241425I1122395J-76517D01*
G01*
X269316283Y-115241425D01*
G75*
G02*
X270362161Y-116440337I-76517J-1122395D01*
G01*
X270322619Y-117020369D01*
G75*
G02*
X269123707Y-118066247I-1122395J76517D01*
G01*
G37*
D11*
X266700224Y-102393836D03*
D12*
X271780224Y-102393836D03*
X261620224Y-102393836D03*
D13*
X261700224Y-106193836D03*
X266700224Y-108293836D03*
D14*
X272200224Y-102393836D03*
X261200224Y-102393836D03*
X272200224Y-102393836D03*
X261200224Y-102393836D03*
D12*
X271780224Y-102393836D03*
X261620224Y-102393836D03*
D10*
X264200224Y-98393836D03*
D11*
X266700224Y-102393836D03*
G36*
G01*
X262138912Y-100691186D02*
X262138912Y-100691186D01*
G75*
G02*
X262052874Y-99102524I751312J837350D01*
G01*
X263362864Y-97642516D01*
G75*
G02*
X264951526Y-97556478I837350J-751312D01*
G01*
X264951526Y-97556478D01*
G75*
G02*
X265037564Y-99145140I-751312J-837350D01*
G01*
X263727574Y-100605148D01*
G75*
G02*
X262138912Y-100691186I-837350J751312D01*
G01*
G37*
D10*
X269240224Y-97313836D03*
G36*
G01*
X269123707Y-99016231D02*
X269123707Y-99016231D01*
G75*
G02*
X268077829Y-97817319I76517J1122395D01*
G01*
X268117371Y-97237287D01*
G75*
G02*
X269316283Y-96191409I1122395J-76517D01*
G01*
X269316283Y-96191409D01*
G75*
G02*
X270362161Y-97390321I-76517J-1122395D01*
G01*
X270322619Y-97970353D01*
G75*
G02*
X269123707Y-99016231I-1122395J76517D01*
G01*
G37*
D11*
X266700224Y-83343820D03*
D12*
X271780224Y-83343820D03*
X261620224Y-83343820D03*
D13*
X261700224Y-87143820D03*
X266700224Y-89243820D03*
D14*
X272200224Y-83343820D03*
X261200224Y-83343820D03*
X272200224Y-83343820D03*
X261200224Y-83343820D03*
D12*
X271780224Y-83343820D03*
X261620224Y-83343820D03*
D10*
X264200224Y-79343820D03*
D11*
X266700224Y-83343820D03*
G36*
G01*
X262138912Y-81641170D02*
X262138912Y-81641170D01*
G75*
G02*
X262052874Y-80052508I751312J837350D01*
G01*
X263362864Y-78592500D01*
G75*
G02*
X264951526Y-78506462I837350J-751312D01*
G01*
X264951526Y-78506462D01*
G75*
G02*
X265037564Y-80095124I-751312J-837350D01*
G01*
X263727574Y-81555132D01*
G75*
G02*
X262138912Y-81641170I-837350J751312D01*
G01*
G37*
D10*
X269240224Y-78263820D03*
G36*
G01*
X269123707Y-79966215D02*
X269123707Y-79966215D01*
G75*
G02*
X268077829Y-78767303I76517J1122395D01*
G01*
X268117371Y-78187271D01*
G75*
G02*
X269316283Y-77141393I1122395J-76517D01*
G01*
X269316283Y-77141393D01*
G75*
G02*
X270362161Y-78340305I-76517J-1122395D01*
G01*
X270322619Y-78920337D01*
G75*
G02*
X269123707Y-79966215I-1122395J76517D01*
G01*
G37*
D11*
X266700224Y-64293804D03*
D12*
X271780224Y-64293804D03*
X261620224Y-64293804D03*
D13*
X261700224Y-68093804D03*
X266700224Y-70193804D03*
D14*
X272200224Y-64293804D03*
X261200224Y-64293804D03*
X272200224Y-64293804D03*
X261200224Y-64293804D03*
D12*
X271780224Y-64293804D03*
X261620224Y-64293804D03*
D10*
X264200224Y-60293804D03*
D11*
X266700224Y-64293804D03*
G36*
G01*
X262138912Y-62591154D02*
X262138912Y-62591154D01*
G75*
G02*
X262052874Y-61002492I751312J837350D01*
G01*
X263362864Y-59542484D01*
G75*
G02*
X264951526Y-59456446I837350J-751312D01*
G01*
X264951526Y-59456446D01*
G75*
G02*
X265037564Y-61045108I-751312J-837350D01*
G01*
X263727574Y-62505116D01*
G75*
G02*
X262138912Y-62591154I-837350J751312D01*
G01*
G37*
D10*
X269240224Y-59213804D03*
G36*
G01*
X269123707Y-60916199D02*
X269123707Y-60916199D01*
G75*
G02*
X268077829Y-59717287I76517J1122395D01*
G01*
X268117371Y-59137255D01*
G75*
G02*
X269316283Y-58091377I1122395J-76517D01*
G01*
X269316283Y-58091377D01*
G75*
G02*
X270362161Y-59290289I-76517J-1122395D01*
G01*
X270322619Y-59870321D01*
G75*
G02*
X269123707Y-60916199I-1122395J76517D01*
G01*
G37*
D11*
X266700224Y-140493868D03*
D12*
X271780224Y-140493868D03*
X261620224Y-140493868D03*
D13*
X261700224Y-144293868D03*
X266700224Y-146393868D03*
D14*
X272200224Y-140493868D03*
X261200224Y-140493868D03*
X272200224Y-140493868D03*
X261200224Y-140493868D03*
D12*
X271780224Y-140493868D03*
X261620224Y-140493868D03*
D10*
X264200224Y-136493868D03*
D11*
X266700224Y-140493868D03*
G36*
G01*
X262138912Y-138791218D02*
X262138912Y-138791218D01*
G75*
G02*
X262052874Y-137202556I751312J837350D01*
G01*
X263362864Y-135742548D01*
G75*
G02*
X264951526Y-135656510I837350J-751312D01*
G01*
X264951526Y-135656510D01*
G75*
G02*
X265037564Y-137245172I-751312J-837350D01*
G01*
X263727574Y-138705180D01*
G75*
G02*
X262138912Y-138791218I-837350J751312D01*
G01*
G37*
D10*
X269240224Y-135413868D03*
G36*
G01*
X269123707Y-137116263D02*
X269123707Y-137116263D01*
G75*
G02*
X268077829Y-135917351I76517J1122395D01*
G01*
X268117371Y-135337319D01*
G75*
G02*
X269316283Y-134291441I1122395J-76517D01*
G01*
X269316283Y-134291441D01*
G75*
G02*
X270362161Y-135490353I-76517J-1122395D01*
G01*
X270322619Y-136070385D01*
G75*
G02*
X269123707Y-137116263I-1122395J76517D01*
G01*
G37*
D11*
X285750240Y-140493868D03*
D12*
X290830240Y-140493868D03*
X280670240Y-140493868D03*
D13*
X280750240Y-144293868D03*
X285750240Y-146393868D03*
D14*
X291250240Y-140493868D03*
X280250240Y-140493868D03*
X291250240Y-140493868D03*
X280250240Y-140493868D03*
D12*
X290830240Y-140493868D03*
X280670240Y-140493868D03*
D10*
X283250240Y-136493868D03*
D11*
X285750240Y-140493868D03*
G36*
G01*
X281188928Y-138791218D02*
X281188928Y-138791218D01*
G75*
G02*
X281102890Y-137202556I751312J837350D01*
G01*
X282412880Y-135742548D01*
G75*
G02*
X284001542Y-135656510I837350J-751312D01*
G01*
X284001542Y-135656510D01*
G75*
G02*
X284087580Y-137245172I-751312J-837350D01*
G01*
X282777590Y-138705180D01*
G75*
G02*
X281188928Y-138791218I-837350J751312D01*
G01*
G37*
D10*
X288290240Y-135413868D03*
G36*
G01*
X288173723Y-137116263D02*
X288173723Y-137116263D01*
G75*
G02*
X287127845Y-135917351I76517J1122395D01*
G01*
X287167387Y-135337319D01*
G75*
G02*
X288366299Y-134291441I1122395J-76517D01*
G01*
X288366299Y-134291441D01*
G75*
G02*
X289412177Y-135490353I-76517J-1122395D01*
G01*
X289372635Y-136070385D01*
G75*
G02*
X288173723Y-137116263I-1122395J76517D01*
G01*
G37*
D11*
X285750240Y-121443852D03*
D12*
X290830240Y-121443852D03*
X280670240Y-121443852D03*
D13*
X280750240Y-125243852D03*
X285750240Y-127343852D03*
D14*
X291250240Y-121443852D03*
X280250240Y-121443852D03*
X291250240Y-121443852D03*
X280250240Y-121443852D03*
D12*
X290830240Y-121443852D03*
X280670240Y-121443852D03*
D10*
X283250240Y-117443852D03*
D11*
X285750240Y-121443852D03*
G36*
G01*
X281188928Y-119741202D02*
X281188928Y-119741202D01*
G75*
G02*
X281102890Y-118152540I751312J837350D01*
G01*
X282412880Y-116692532D01*
G75*
G02*
X284001542Y-116606494I837350J-751312D01*
G01*
X284001542Y-116606494D01*
G75*
G02*
X284087580Y-118195156I-751312J-837350D01*
G01*
X282777590Y-119655164D01*
G75*
G02*
X281188928Y-119741202I-837350J751312D01*
G01*
G37*
D10*
X288290240Y-116363852D03*
G36*
G01*
X288173723Y-118066247D02*
X288173723Y-118066247D01*
G75*
G02*
X287127845Y-116867335I76517J1122395D01*
G01*
X287167387Y-116287303D01*
G75*
G02*
X288366299Y-115241425I1122395J-76517D01*
G01*
X288366299Y-115241425D01*
G75*
G02*
X289412177Y-116440337I-76517J-1122395D01*
G01*
X289372635Y-117020369D01*
G75*
G02*
X288173723Y-118066247I-1122395J76517D01*
G01*
G37*
D11*
X285750240Y-102393836D03*
D12*
X290830240Y-102393836D03*
X280670240Y-102393836D03*
D13*
X280750240Y-106193836D03*
X285750240Y-108293836D03*
D14*
X291250240Y-102393836D03*
X280250240Y-102393836D03*
X291250240Y-102393836D03*
X280250240Y-102393836D03*
D12*
X290830240Y-102393836D03*
X280670240Y-102393836D03*
D10*
X283250240Y-98393836D03*
D11*
X285750240Y-102393836D03*
G36*
G01*
X281188928Y-100691186D02*
X281188928Y-100691186D01*
G75*
G02*
X281102890Y-99102524I751312J837350D01*
G01*
X282412880Y-97642516D01*
G75*
G02*
X284001542Y-97556478I837350J-751312D01*
G01*
X284001542Y-97556478D01*
G75*
G02*
X284087580Y-99145140I-751312J-837350D01*
G01*
X282777590Y-100605148D01*
G75*
G02*
X281188928Y-100691186I-837350J751312D01*
G01*
G37*
D10*
X288290240Y-97313836D03*
G36*
G01*
X288173723Y-99016231D02*
X288173723Y-99016231D01*
G75*
G02*
X287127845Y-97817319I76517J1122395D01*
G01*
X287167387Y-97237287D01*
G75*
G02*
X288366299Y-96191409I1122395J-76517D01*
G01*
X288366299Y-96191409D01*
G75*
G02*
X289412177Y-97390321I-76517J-1122395D01*
G01*
X289372635Y-97970353D01*
G75*
G02*
X288173723Y-99016231I-1122395J76517D01*
G01*
G37*
D11*
X285750240Y-64293804D03*
D12*
X290830240Y-64293804D03*
X280670240Y-64293804D03*
D13*
X280750240Y-68093804D03*
X285750240Y-70193804D03*
D14*
X291250240Y-64293804D03*
X280250240Y-64293804D03*
X291250240Y-64293804D03*
X280250240Y-64293804D03*
D12*
X290830240Y-64293804D03*
X280670240Y-64293804D03*
D10*
X283250240Y-60293804D03*
D11*
X285750240Y-64293804D03*
G36*
G01*
X281188928Y-62591154D02*
X281188928Y-62591154D01*
G75*
G02*
X281102890Y-61002492I751312J837350D01*
G01*
X282412880Y-59542484D01*
G75*
G02*
X284001542Y-59456446I837350J-751312D01*
G01*
X284001542Y-59456446D01*
G75*
G02*
X284087580Y-61045108I-751312J-837350D01*
G01*
X282777590Y-62505116D01*
G75*
G02*
X281188928Y-62591154I-837350J751312D01*
G01*
G37*
D10*
X288290240Y-59213804D03*
G36*
G01*
X288173723Y-60916199D02*
X288173723Y-60916199D01*
G75*
G02*
X287127845Y-59717287I76517J1122395D01*
G01*
X287167387Y-59137255D01*
G75*
G02*
X288366299Y-58091377I1122395J-76517D01*
G01*
X288366299Y-58091377D01*
G75*
G02*
X289412177Y-59290289I-76517J-1122395D01*
G01*
X289372635Y-59870321D01*
G75*
G02*
X288173723Y-60916199I-1122395J76517D01*
G01*
G37*
D11*
X114300096Y-140493868D03*
D12*
X119380096Y-140493868D03*
X109220096Y-140493868D03*
D13*
X109300096Y-144293868D03*
X114300096Y-146393868D03*
D14*
X119800096Y-140493868D03*
X108800096Y-140493868D03*
X119800096Y-140493868D03*
X108800096Y-140493868D03*
D12*
X119380096Y-140493868D03*
X109220096Y-140493868D03*
D10*
X111800096Y-136493868D03*
D11*
X114300096Y-140493868D03*
G36*
G01*
X109738784Y-138791218D02*
X109738784Y-138791218D01*
G75*
G02*
X109652746Y-137202556I751312J837350D01*
G01*
X110962736Y-135742548D01*
G75*
G02*
X112551398Y-135656510I837350J-751312D01*
G01*
X112551398Y-135656510D01*
G75*
G02*
X112637436Y-137245172I-751312J-837350D01*
G01*
X111327446Y-138705180D01*
G75*
G02*
X109738784Y-138791218I-837350J751312D01*
G01*
G37*
D10*
X116840096Y-135413868D03*
G36*
G01*
X116723579Y-137116263D02*
X116723579Y-137116263D01*
G75*
G02*
X115677701Y-135917351I76517J1122395D01*
G01*
X115717243Y-135337319D01*
G75*
G02*
X116916155Y-134291441I1122395J-76517D01*
G01*
X116916155Y-134291441D01*
G75*
G02*
X117962033Y-135490353I-76517J-1122395D01*
G01*
X117922491Y-136070385D01*
G75*
G02*
X116723579Y-137116263I-1122395J76517D01*
G01*
G37*
D11*
X114300096Y-121443852D03*
D12*
X119380096Y-121443852D03*
X109220096Y-121443852D03*
D13*
X109300096Y-125243852D03*
X114300096Y-127343852D03*
D14*
X119800096Y-121443852D03*
X108800096Y-121443852D03*
X119800096Y-121443852D03*
X108800096Y-121443852D03*
D12*
X119380096Y-121443852D03*
X109220096Y-121443852D03*
D10*
X111800096Y-117443852D03*
D11*
X114300096Y-121443852D03*
G36*
G01*
X109738784Y-119741202D02*
X109738784Y-119741202D01*
G75*
G02*
X109652746Y-118152540I751312J837350D01*
G01*
X110962736Y-116692532D01*
G75*
G02*
X112551398Y-116606494I837350J-751312D01*
G01*
X112551398Y-116606494D01*
G75*
G02*
X112637436Y-118195156I-751312J-837350D01*
G01*
X111327446Y-119655164D01*
G75*
G02*
X109738784Y-119741202I-837350J751312D01*
G01*
G37*
D10*
X116840096Y-116363852D03*
G36*
G01*
X116723579Y-118066247D02*
X116723579Y-118066247D01*
G75*
G02*
X115677701Y-116867335I76517J1122395D01*
G01*
X115717243Y-116287303D01*
G75*
G02*
X116916155Y-115241425I1122395J-76517D01*
G01*
X116916155Y-115241425D01*
G75*
G02*
X117962033Y-116440337I-76517J-1122395D01*
G01*
X117922491Y-117020369D01*
G75*
G02*
X116723579Y-118066247I-1122395J76517D01*
G01*
G37*
D11*
X114300096Y-102393836D03*
D12*
X119380096Y-102393836D03*
X109220096Y-102393836D03*
D13*
X109300096Y-106193836D03*
X114300096Y-108293836D03*
D14*
X119800096Y-102393836D03*
X108800096Y-102393836D03*
X119800096Y-102393836D03*
X108800096Y-102393836D03*
D12*
X119380096Y-102393836D03*
X109220096Y-102393836D03*
D10*
X111800096Y-98393836D03*
D11*
X114300096Y-102393836D03*
G36*
G01*
X109738784Y-100691186D02*
X109738784Y-100691186D01*
G75*
G02*
X109652746Y-99102524I751312J837350D01*
G01*
X110962736Y-97642516D01*
G75*
G02*
X112551398Y-97556478I837350J-751312D01*
G01*
X112551398Y-97556478D01*
G75*
G02*
X112637436Y-99145140I-751312J-837350D01*
G01*
X111327446Y-100605148D01*
G75*
G02*
X109738784Y-100691186I-837350J751312D01*
G01*
G37*
D10*
X116840096Y-97313836D03*
G36*
G01*
X116723579Y-99016231D02*
X116723579Y-99016231D01*
G75*
G02*
X115677701Y-97817319I76517J1122395D01*
G01*
X115717243Y-97237287D01*
G75*
G02*
X116916155Y-96191409I1122395J-76517D01*
G01*
X116916155Y-96191409D01*
G75*
G02*
X117962033Y-97390321I-76517J-1122395D01*
G01*
X117922491Y-97970353D01*
G75*
G02*
X116723579Y-99016231I-1122395J76517D01*
G01*
G37*
D11*
X114300096Y-83343820D03*
D12*
X119380096Y-83343820D03*
X109220096Y-83343820D03*
D13*
X109300096Y-87143820D03*
X114300096Y-89243820D03*
D14*
X119800096Y-83343820D03*
X108800096Y-83343820D03*
X119800096Y-83343820D03*
X108800096Y-83343820D03*
D12*
X119380096Y-83343820D03*
X109220096Y-83343820D03*
D10*
X111800096Y-79343820D03*
D11*
X114300096Y-83343820D03*
G36*
G01*
X109738784Y-81641170D02*
X109738784Y-81641170D01*
G75*
G02*
X109652746Y-80052508I751312J837350D01*
G01*
X110962736Y-78592500D01*
G75*
G02*
X112551398Y-78506462I837350J-751312D01*
G01*
X112551398Y-78506462D01*
G75*
G02*
X112637436Y-80095124I-751312J-837350D01*
G01*
X111327446Y-81555132D01*
G75*
G02*
X109738784Y-81641170I-837350J751312D01*
G01*
G37*
D10*
X116840096Y-78263820D03*
G36*
G01*
X116723579Y-79966215D02*
X116723579Y-79966215D01*
G75*
G02*
X115677701Y-78767303I76517J1122395D01*
G01*
X115717243Y-78187271D01*
G75*
G02*
X116916155Y-77141393I1122395J-76517D01*
G01*
X116916155Y-77141393D01*
G75*
G02*
X117962033Y-78340305I-76517J-1122395D01*
G01*
X117922491Y-78920337D01*
G75*
G02*
X116723579Y-79966215I-1122395J76517D01*
G01*
G37*
D11*
X114300096Y-64293804D03*
D12*
X119380096Y-64293804D03*
X109220096Y-64293804D03*
D13*
X109300096Y-68093804D03*
X114300096Y-70193804D03*
D14*
X119800096Y-64293804D03*
X108800096Y-64293804D03*
X119800096Y-64293804D03*
X108800096Y-64293804D03*
D12*
X119380096Y-64293804D03*
X109220096Y-64293804D03*
D10*
X111800096Y-60293804D03*
D11*
X114300096Y-64293804D03*
G36*
G01*
X109738784Y-62591154D02*
X109738784Y-62591154D01*
G75*
G02*
X109652746Y-61002492I751312J837350D01*
G01*
X110962736Y-59542484D01*
G75*
G02*
X112551398Y-59456446I837350J-751312D01*
G01*
X112551398Y-59456446D01*
G75*
G02*
X112637436Y-61045108I-751312J-837350D01*
G01*
X111327446Y-62505116D01*
G75*
G02*
X109738784Y-62591154I-837350J751312D01*
G01*
G37*
D10*
X116840096Y-59213804D03*
G36*
G01*
X116723579Y-60916199D02*
X116723579Y-60916199D01*
G75*
G02*
X115677701Y-59717287I76517J1122395D01*
G01*
X115717243Y-59137255D01*
G75*
G02*
X116916155Y-58091377I1122395J-76517D01*
G01*
X116916155Y-58091377D01*
G75*
G02*
X117962033Y-59290289I-76517J-1122395D01*
G01*
X117922491Y-59870321D01*
G75*
G02*
X116723579Y-60916199I-1122395J76517D01*
G01*
G37*
D11*
X95250080Y-64293804D03*
D12*
X100330080Y-64293804D03*
X90170080Y-64293804D03*
D13*
X90250080Y-68093804D03*
X95250080Y-70193804D03*
D14*
X100750080Y-64293804D03*
X89750080Y-64293804D03*
X100750080Y-64293804D03*
X89750080Y-64293804D03*
D12*
X100330080Y-64293804D03*
X90170080Y-64293804D03*
D10*
X92750080Y-60293804D03*
D11*
X95250080Y-64293804D03*
G36*
G01*
X90688768Y-62591154D02*
X90688768Y-62591154D01*
G75*
G02*
X90602730Y-61002492I751312J837350D01*
G01*
X91912720Y-59542484D01*
G75*
G02*
X93501382Y-59456446I837350J-751312D01*
G01*
X93501382Y-59456446D01*
G75*
G02*
X93587420Y-61045108I-751312J-837350D01*
G01*
X92277430Y-62505116D01*
G75*
G02*
X90688768Y-62591154I-837350J751312D01*
G01*
G37*
D10*
X97790080Y-59213804D03*
G36*
G01*
X97673563Y-60916199D02*
X97673563Y-60916199D01*
G75*
G02*
X96627685Y-59717287I76517J1122395D01*
G01*
X96667227Y-59137255D01*
G75*
G02*
X97866139Y-58091377I1122395J-76517D01*
G01*
X97866139Y-58091377D01*
G75*
G02*
X98912017Y-59290289I-76517J-1122395D01*
G01*
X98872475Y-59870321D01*
G75*
G02*
X97673563Y-60916199I-1122395J76517D01*
G01*
G37*
D11*
X95250080Y-140493868D03*
D12*
X100330080Y-140493868D03*
X90170080Y-140493868D03*
D13*
X90250080Y-144293868D03*
X95250080Y-146393868D03*
D14*
X100750080Y-140493868D03*
X89750080Y-140493868D03*
X100750080Y-140493868D03*
X89750080Y-140493868D03*
D12*
X100330080Y-140493868D03*
X90170080Y-140493868D03*
D10*
X92750080Y-136493868D03*
D11*
X95250080Y-140493868D03*
G36*
G01*
X90688768Y-138791218D02*
X90688768Y-138791218D01*
G75*
G02*
X90602730Y-137202556I751312J837350D01*
G01*
X91912720Y-135742548D01*
G75*
G02*
X93501382Y-135656510I837350J-751312D01*
G01*
X93501382Y-135656510D01*
G75*
G02*
X93587420Y-137245172I-751312J-837350D01*
G01*
X92277430Y-138705180D01*
G75*
G02*
X90688768Y-138791218I-837350J751312D01*
G01*
G37*
D10*
X97790080Y-135413868D03*
G36*
G01*
X97673563Y-137116263D02*
X97673563Y-137116263D01*
G75*
G02*
X96627685Y-135917351I76517J1122395D01*
G01*
X96667227Y-135337319D01*
G75*
G02*
X97866139Y-134291441I1122395J-76517D01*
G01*
X97866139Y-134291441D01*
G75*
G02*
X98912017Y-135490353I-76517J-1122395D01*
G01*
X98872475Y-136070385D01*
G75*
G02*
X97673563Y-137116263I-1122395J76517D01*
G01*
G37*
D11*
X95250080Y-102393836D03*
D12*
X100330080Y-102393836D03*
X90170080Y-102393836D03*
D13*
X90250080Y-106193836D03*
X95250080Y-108293836D03*
D14*
X100750080Y-102393836D03*
X89750080Y-102393836D03*
X100750080Y-102393836D03*
X89750080Y-102393836D03*
D12*
X100330080Y-102393836D03*
X90170080Y-102393836D03*
D10*
X92750080Y-98393836D03*
D11*
X95250080Y-102393836D03*
G36*
G01*
X90688768Y-100691186D02*
X90688768Y-100691186D01*
G75*
G02*
X90602730Y-99102524I751312J837350D01*
G01*
X91912720Y-97642516D01*
G75*
G02*
X93501382Y-97556478I837350J-751312D01*
G01*
X93501382Y-97556478D01*
G75*
G02*
X93587420Y-99145140I-751312J-837350D01*
G01*
X92277430Y-100605148D01*
G75*
G02*
X90688768Y-100691186I-837350J751312D01*
G01*
G37*
D10*
X97790080Y-97313836D03*
G36*
G01*
X97673563Y-99016231D02*
X97673563Y-99016231D01*
G75*
G02*
X96627685Y-97817319I76517J1122395D01*
G01*
X96667227Y-97237287D01*
G75*
G02*
X97866139Y-96191409I1122395J-76517D01*
G01*
X97866139Y-96191409D01*
G75*
G02*
X98912017Y-97390321I-76517J-1122395D01*
G01*
X98872475Y-97970353D01*
G75*
G02*
X97673563Y-99016231I-1122395J76517D01*
G01*
G37*
D11*
X95250080Y-83343820D03*
D12*
X100330080Y-83343820D03*
X90170080Y-83343820D03*
D13*
X90250080Y-87143820D03*
X95250080Y-89243820D03*
D14*
X100750080Y-83343820D03*
X89750080Y-83343820D03*
X100750080Y-83343820D03*
X89750080Y-83343820D03*
D12*
X100330080Y-83343820D03*
X90170080Y-83343820D03*
D10*
X92750080Y-79343820D03*
D11*
X95250080Y-83343820D03*
G36*
G01*
X90688768Y-81641170D02*
X90688768Y-81641170D01*
G75*
G02*
X90602730Y-80052508I751312J837350D01*
G01*
X91912720Y-78592500D01*
G75*
G02*
X93501382Y-78506462I837350J-751312D01*
G01*
X93501382Y-78506462D01*
G75*
G02*
X93587420Y-80095124I-751312J-837350D01*
G01*
X92277430Y-81555132D01*
G75*
G02*
X90688768Y-81641170I-837350J751312D01*
G01*
G37*
D10*
X97790080Y-78263820D03*
G36*
G01*
X97673563Y-79966215D02*
X97673563Y-79966215D01*
G75*
G02*
X96627685Y-78767303I76517J1122395D01*
G01*
X96667227Y-78187271D01*
G75*
G02*
X97866139Y-77141393I1122395J-76517D01*
G01*
X97866139Y-77141393D01*
G75*
G02*
X98912017Y-78340305I-76517J-1122395D01*
G01*
X98872475Y-78920337D01*
G75*
G02*
X97673563Y-79966215I-1122395J76517D01*
G01*
G37*
D11*
X76200064Y-83343820D03*
D12*
X81280064Y-83343820D03*
X71120064Y-83343820D03*
D13*
X71200064Y-87143820D03*
X76200064Y-89243820D03*
D14*
X81700064Y-83343820D03*
X70700064Y-83343820D03*
X81700064Y-83343820D03*
X70700064Y-83343820D03*
D12*
X81280064Y-83343820D03*
X71120064Y-83343820D03*
D10*
X73700064Y-79343820D03*
D11*
X76200064Y-83343820D03*
G36*
G01*
X71638752Y-81641170D02*
X71638752Y-81641170D01*
G75*
G02*
X71552714Y-80052508I751312J837350D01*
G01*
X72862704Y-78592500D01*
G75*
G02*
X74451366Y-78506462I837350J-751312D01*
G01*
X74451366Y-78506462D01*
G75*
G02*
X74537404Y-80095124I-751312J-837350D01*
G01*
X73227414Y-81555132D01*
G75*
G02*
X71638752Y-81641170I-837350J751312D01*
G01*
G37*
D10*
X78740064Y-78263820D03*
G36*
G01*
X78623547Y-79966215D02*
X78623547Y-79966215D01*
G75*
G02*
X77577669Y-78767303I76517J1122395D01*
G01*
X77617211Y-78187271D01*
G75*
G02*
X78816123Y-77141393I1122395J-76517D01*
G01*
X78816123Y-77141393D01*
G75*
G02*
X79862001Y-78340305I-76517J-1122395D01*
G01*
X79822459Y-78920337D01*
G75*
G02*
X78623547Y-79966215I-1122395J76517D01*
G01*
G37*
D11*
X76200064Y-64293804D03*
D12*
X81280064Y-64293804D03*
X71120064Y-64293804D03*
D13*
X71200064Y-68093804D03*
X76200064Y-70193804D03*
D14*
X81700064Y-64293804D03*
X70700064Y-64293804D03*
X81700064Y-64293804D03*
X70700064Y-64293804D03*
D12*
X81280064Y-64293804D03*
X71120064Y-64293804D03*
D10*
X73700064Y-60293804D03*
D11*
X76200064Y-64293804D03*
G36*
G01*
X71638752Y-62591154D02*
X71638752Y-62591154D01*
G75*
G02*
X71552714Y-61002492I751312J837350D01*
G01*
X72862704Y-59542484D01*
G75*
G02*
X74451366Y-59456446I837350J-751312D01*
G01*
X74451366Y-59456446D01*
G75*
G02*
X74537404Y-61045108I-751312J-837350D01*
G01*
X73227414Y-62505116D01*
G75*
G02*
X71638752Y-62591154I-837350J751312D01*
G01*
G37*
D10*
X78740064Y-59213804D03*
G36*
G01*
X78623547Y-60916199D02*
X78623547Y-60916199D01*
G75*
G02*
X77577669Y-59717287I76517J1122395D01*
G01*
X77617211Y-59137255D01*
G75*
G02*
X78816123Y-58091377I1122395J-76517D01*
G01*
X78816123Y-58091377D01*
G75*
G02*
X79862001Y-59290289I-76517J-1122395D01*
G01*
X79822459Y-59870321D01*
G75*
G02*
X78623547Y-60916199I-1122395J76517D01*
G01*
G37*
D11*
X76200064Y-140493868D03*
D12*
X81280064Y-140493868D03*
X71120064Y-140493868D03*
D13*
X71200064Y-144293868D03*
X76200064Y-146393868D03*
D14*
X81700064Y-140493868D03*
X70700064Y-140493868D03*
X81700064Y-140493868D03*
X70700064Y-140493868D03*
D12*
X81280064Y-140493868D03*
X71120064Y-140493868D03*
D10*
X73700064Y-136493868D03*
D11*
X76200064Y-140493868D03*
G36*
G01*
X71638752Y-138791218D02*
X71638752Y-138791218D01*
G75*
G02*
X71552714Y-137202556I751312J837350D01*
G01*
X72862704Y-135742548D01*
G75*
G02*
X74451366Y-135656510I837350J-751312D01*
G01*
X74451366Y-135656510D01*
G75*
G02*
X74537404Y-137245172I-751312J-837350D01*
G01*
X73227414Y-138705180D01*
G75*
G02*
X71638752Y-138791218I-837350J751312D01*
G01*
G37*
D10*
X78740064Y-135413868D03*
G36*
G01*
X78623547Y-137116263D02*
X78623547Y-137116263D01*
G75*
G02*
X77577669Y-135917351I76517J1122395D01*
G01*
X77617211Y-135337319D01*
G75*
G02*
X78816123Y-134291441I1122395J-76517D01*
G01*
X78816123Y-134291441D01*
G75*
G02*
X79862001Y-135490353I-76517J-1122395D01*
G01*
X79822459Y-136070385D01*
G75*
G02*
X78623547Y-137116263I-1122395J76517D01*
G01*
G37*
D11*
X76200064Y-102393836D03*
D12*
X81280064Y-102393836D03*
X71120064Y-102393836D03*
D13*
X71200064Y-106193836D03*
X76200064Y-108293836D03*
D14*
X81700064Y-102393836D03*
X70700064Y-102393836D03*
X81700064Y-102393836D03*
X70700064Y-102393836D03*
D12*
X81280064Y-102393836D03*
X71120064Y-102393836D03*
D10*
X73700064Y-98393836D03*
D11*
X76200064Y-102393836D03*
G36*
G01*
X71638752Y-100691186D02*
X71638752Y-100691186D01*
G75*
G02*
X71552714Y-99102524I751312J837350D01*
G01*
X72862704Y-97642516D01*
G75*
G02*
X74451366Y-97556478I837350J-751312D01*
G01*
X74451366Y-97556478D01*
G75*
G02*
X74537404Y-99145140I-751312J-837350D01*
G01*
X73227414Y-100605148D01*
G75*
G02*
X71638752Y-100691186I-837350J751312D01*
G01*
G37*
D10*
X78740064Y-97313836D03*
G36*
G01*
X78623547Y-99016231D02*
X78623547Y-99016231D01*
G75*
G02*
X77577669Y-97817319I76517J1122395D01*
G01*
X77617211Y-97237287D01*
G75*
G02*
X78816123Y-96191409I1122395J-76517D01*
G01*
X78816123Y-96191409D01*
G75*
G02*
X79862001Y-97390321I-76517J-1122395D01*
G01*
X79822459Y-97970353D01*
G75*
G02*
X78623547Y-99016231I-1122395J76517D01*
G01*
G37*
D11*
X57150048Y-102393836D03*
D12*
X62230048Y-102393836D03*
X52070048Y-102393836D03*
D13*
X52150048Y-106193836D03*
X57150048Y-108293836D03*
D14*
X62650048Y-102393836D03*
X51650048Y-102393836D03*
X62650048Y-102393836D03*
X51650048Y-102393836D03*
D12*
X62230048Y-102393836D03*
X52070048Y-102393836D03*
D10*
X54650048Y-98393836D03*
D11*
X57150048Y-102393836D03*
G36*
G01*
X52588736Y-100691186D02*
X52588736Y-100691186D01*
G75*
G02*
X52502698Y-99102524I751312J837350D01*
G01*
X53812688Y-97642516D01*
G75*
G02*
X55401350Y-97556478I837350J-751312D01*
G01*
X55401350Y-97556478D01*
G75*
G02*
X55487388Y-99145140I-751312J-837350D01*
G01*
X54177398Y-100605148D01*
G75*
G02*
X52588736Y-100691186I-837350J751312D01*
G01*
G37*
D10*
X59690048Y-97313836D03*
G36*
G01*
X59573531Y-99016231D02*
X59573531Y-99016231D01*
G75*
G02*
X58527653Y-97817319I76517J1122395D01*
G01*
X58567195Y-97237287D01*
G75*
G02*
X59766107Y-96191409I1122395J-76517D01*
G01*
X59766107Y-96191409D01*
G75*
G02*
X60811985Y-97390321I-76517J-1122395D01*
G01*
X60772443Y-97970353D01*
G75*
G02*
X59573531Y-99016231I-1122395J76517D01*
G01*
G37*
D11*
X57150048Y-83343820D03*
D12*
X62230048Y-83343820D03*
X52070048Y-83343820D03*
D13*
X52150048Y-87143820D03*
X57150048Y-89243820D03*
D14*
X62650048Y-83343820D03*
X51650048Y-83343820D03*
X62650048Y-83343820D03*
X51650048Y-83343820D03*
D12*
X62230048Y-83343820D03*
X52070048Y-83343820D03*
D10*
X54650048Y-79343820D03*
D11*
X57150048Y-83343820D03*
G36*
G01*
X52588736Y-81641170D02*
X52588736Y-81641170D01*
G75*
G02*
X52502698Y-80052508I751312J837350D01*
G01*
X53812688Y-78592500D01*
G75*
G02*
X55401350Y-78506462I837350J-751312D01*
G01*
X55401350Y-78506462D01*
G75*
G02*
X55487388Y-80095124I-751312J-837350D01*
G01*
X54177398Y-81555132D01*
G75*
G02*
X52588736Y-81641170I-837350J751312D01*
G01*
G37*
D10*
X59690048Y-78263820D03*
G36*
G01*
X59573531Y-79966215D02*
X59573531Y-79966215D01*
G75*
G02*
X58527653Y-78767303I76517J1122395D01*
G01*
X58567195Y-78187271D01*
G75*
G02*
X59766107Y-77141393I1122395J-76517D01*
G01*
X59766107Y-77141393D01*
G75*
G02*
X60811985Y-78340305I-76517J-1122395D01*
G01*
X60772443Y-78920337D01*
G75*
G02*
X59573531Y-79966215I-1122395J76517D01*
G01*
G37*
D11*
X57150048Y-64293804D03*
D12*
X62230048Y-64293804D03*
X52070048Y-64293804D03*
D13*
X52150048Y-68093804D03*
X57150048Y-70193804D03*
D14*
X62650048Y-64293804D03*
X51650048Y-64293804D03*
X62650048Y-64293804D03*
X51650048Y-64293804D03*
D12*
X62230048Y-64293804D03*
X52070048Y-64293804D03*
D10*
X54650048Y-60293804D03*
D11*
X57150048Y-64293804D03*
G36*
G01*
X52588736Y-62591154D02*
X52588736Y-62591154D01*
G75*
G02*
X52502698Y-61002492I751312J837350D01*
G01*
X53812688Y-59542484D01*
G75*
G02*
X55401350Y-59456446I837350J-751312D01*
G01*
X55401350Y-59456446D01*
G75*
G02*
X55487388Y-61045108I-751312J-837350D01*
G01*
X54177398Y-62505116D01*
G75*
G02*
X52588736Y-62591154I-837350J751312D01*
G01*
G37*
D10*
X59690048Y-59213804D03*
G36*
G01*
X59573531Y-60916199D02*
X59573531Y-60916199D01*
G75*
G02*
X58527653Y-59717287I76517J1122395D01*
G01*
X58567195Y-59137255D01*
G75*
G02*
X59766107Y-58091377I1122395J-76517D01*
G01*
X59766107Y-58091377D01*
G75*
G02*
X60811985Y-59290289I-76517J-1122395D01*
G01*
X60772443Y-59870321D01*
G75*
G02*
X59573531Y-60916199I-1122395J76517D01*
G01*
G37*
D11*
X57150048Y-140493868D03*
D12*
X62230048Y-140493868D03*
X52070048Y-140493868D03*
D13*
X52150048Y-144293868D03*
X57150048Y-146393868D03*
D14*
X62650048Y-140493868D03*
X51650048Y-140493868D03*
X62650048Y-140493868D03*
X51650048Y-140493868D03*
D12*
X62230048Y-140493868D03*
X52070048Y-140493868D03*
D10*
X54650048Y-136493868D03*
D11*
X57150048Y-140493868D03*
G36*
G01*
X52588736Y-138791218D02*
X52588736Y-138791218D01*
G75*
G02*
X52502698Y-137202556I751312J837350D01*
G01*
X53812688Y-135742548D01*
G75*
G02*
X55401350Y-135656510I837350J-751312D01*
G01*
X55401350Y-135656510D01*
G75*
G02*
X55487388Y-137245172I-751312J-837350D01*
G01*
X54177398Y-138705180D01*
G75*
G02*
X52588736Y-138791218I-837350J751312D01*
G01*
G37*
D10*
X59690048Y-135413868D03*
G36*
G01*
X59573531Y-137116263D02*
X59573531Y-137116263D01*
G75*
G02*
X58527653Y-135917351I76517J1122395D01*
G01*
X58567195Y-135337319D01*
G75*
G02*
X59766107Y-134291441I1122395J-76517D01*
G01*
X59766107Y-134291441D01*
G75*
G02*
X60811985Y-135490353I-76517J-1122395D01*
G01*
X60772443Y-136070385D01*
G75*
G02*
X59573531Y-137116263I-1122395J76517D01*
G01*
G37*
D11*
X57150048Y-121443852D03*
D12*
X62230048Y-121443852D03*
X52070048Y-121443852D03*
D13*
X52150048Y-125243852D03*
X57150048Y-127343852D03*
D14*
X62650048Y-121443852D03*
X51650048Y-121443852D03*
X62650048Y-121443852D03*
X51650048Y-121443852D03*
D12*
X62230048Y-121443852D03*
X52070048Y-121443852D03*
D10*
X54650048Y-117443852D03*
D11*
X57150048Y-121443852D03*
G36*
G01*
X52588736Y-119741202D02*
X52588736Y-119741202D01*
G75*
G02*
X52502698Y-118152540I751312J837350D01*
G01*
X53812688Y-116692532D01*
G75*
G02*
X55401350Y-116606494I837350J-751312D01*
G01*
X55401350Y-116606494D01*
G75*
G02*
X55487388Y-118195156I-751312J-837350D01*
G01*
X54177398Y-119655164D01*
G75*
G02*
X52588736Y-119741202I-837350J751312D01*
G01*
G37*
D10*
X59690048Y-116363852D03*
G36*
G01*
X59573531Y-118066247D02*
X59573531Y-118066247D01*
G75*
G02*
X58527653Y-116867335I76517J1122395D01*
G01*
X58567195Y-116287303D01*
G75*
G02*
X59766107Y-115241425I1122395J-76517D01*
G01*
X59766107Y-115241425D01*
G75*
G02*
X60811985Y-116440337I-76517J-1122395D01*
G01*
X60772443Y-117020369D01*
G75*
G02*
X59573531Y-118066247I-1122395J76517D01*
G01*
G37*
D11*
X38100032Y-121443852D03*
D12*
X43180032Y-121443852D03*
X33020032Y-121443852D03*
D13*
X33100032Y-125243852D03*
X38100032Y-127343852D03*
D14*
X43600032Y-121443852D03*
X32600032Y-121443852D03*
X43600032Y-121443852D03*
X32600032Y-121443852D03*
D12*
X43180032Y-121443852D03*
X33020032Y-121443852D03*
D10*
X35600032Y-117443852D03*
D11*
X38100032Y-121443852D03*
G36*
G01*
X33538720Y-119741202D02*
X33538720Y-119741202D01*
G75*
G02*
X33452682Y-118152540I751312J837350D01*
G01*
X34762672Y-116692532D01*
G75*
G02*
X36351334Y-116606494I837350J-751312D01*
G01*
X36351334Y-116606494D01*
G75*
G02*
X36437372Y-118195156I-751312J-837350D01*
G01*
X35127382Y-119655164D01*
G75*
G02*
X33538720Y-119741202I-837350J751312D01*
G01*
G37*
D10*
X40640032Y-116363852D03*
G36*
G01*
X40523515Y-118066247D02*
X40523515Y-118066247D01*
G75*
G02*
X39477637Y-116867335I76517J1122395D01*
G01*
X39517179Y-116287303D01*
G75*
G02*
X40716091Y-115241425I1122395J-76517D01*
G01*
X40716091Y-115241425D01*
G75*
G02*
X41761969Y-116440337I-76517J-1122395D01*
G01*
X41722427Y-117020369D01*
G75*
G02*
X40523515Y-118066247I-1122395J76517D01*
G01*
G37*
D11*
X38100032Y-102393836D03*
D12*
X43180032Y-102393836D03*
X33020032Y-102393836D03*
D13*
X33100032Y-106193836D03*
X38100032Y-108293836D03*
D14*
X43600032Y-102393836D03*
X32600032Y-102393836D03*
X43600032Y-102393836D03*
X32600032Y-102393836D03*
D12*
X43180032Y-102393836D03*
X33020032Y-102393836D03*
D10*
X35600032Y-98393836D03*
D11*
X38100032Y-102393836D03*
G36*
G01*
X33538720Y-100691186D02*
X33538720Y-100691186D01*
G75*
G02*
X33452682Y-99102524I751312J837350D01*
G01*
X34762672Y-97642516D01*
G75*
G02*
X36351334Y-97556478I837350J-751312D01*
G01*
X36351334Y-97556478D01*
G75*
G02*
X36437372Y-99145140I-751312J-837350D01*
G01*
X35127382Y-100605148D01*
G75*
G02*
X33538720Y-100691186I-837350J751312D01*
G01*
G37*
D10*
X40640032Y-97313836D03*
G36*
G01*
X40523515Y-99016231D02*
X40523515Y-99016231D01*
G75*
G02*
X39477637Y-97817319I76517J1122395D01*
G01*
X39517179Y-97237287D01*
G75*
G02*
X40716091Y-96191409I1122395J-76517D01*
G01*
X40716091Y-96191409D01*
G75*
G02*
X41761969Y-97390321I-76517J-1122395D01*
G01*
X41722427Y-97970353D01*
G75*
G02*
X40523515Y-99016231I-1122395J76517D01*
G01*
G37*
D11*
X38100032Y-64293804D03*
D12*
X43180032Y-64293804D03*
X33020032Y-64293804D03*
D13*
X33100032Y-68093804D03*
X38100032Y-70193804D03*
D14*
X43600032Y-64293804D03*
X32600032Y-64293804D03*
X43600032Y-64293804D03*
X32600032Y-64293804D03*
D12*
X43180032Y-64293804D03*
X33020032Y-64293804D03*
D10*
X35600032Y-60293804D03*
D11*
X38100032Y-64293804D03*
G36*
G01*
X33538720Y-62591154D02*
X33538720Y-62591154D01*
G75*
G02*
X33452682Y-61002492I751312J837350D01*
G01*
X34762672Y-59542484D01*
G75*
G02*
X36351334Y-59456446I837350J-751312D01*
G01*
X36351334Y-59456446D01*
G75*
G02*
X36437372Y-61045108I-751312J-837350D01*
G01*
X35127382Y-62505116D01*
G75*
G02*
X33538720Y-62591154I-837350J751312D01*
G01*
G37*
D10*
X40640032Y-59213804D03*
G36*
G01*
X40523515Y-60916199D02*
X40523515Y-60916199D01*
G75*
G02*
X39477637Y-59717287I76517J1122395D01*
G01*
X39517179Y-59137255D01*
G75*
G02*
X40716091Y-58091377I1122395J-76517D01*
G01*
X40716091Y-58091377D01*
G75*
G02*
X41761969Y-59290289I-76517J-1122395D01*
G01*
X41722427Y-59870321D01*
G75*
G02*
X40523515Y-60916199I-1122395J76517D01*
G01*
G37*
D11*
X38100032Y-140493868D03*
D12*
X43180032Y-140493868D03*
X33020032Y-140493868D03*
D13*
X33100032Y-144293868D03*
X38100032Y-146393868D03*
D14*
X43600032Y-140493868D03*
X32600032Y-140493868D03*
X43600032Y-140493868D03*
X32600032Y-140493868D03*
D12*
X43180032Y-140493868D03*
X33020032Y-140493868D03*
D10*
X35600032Y-136493868D03*
D11*
X38100032Y-140493868D03*
G36*
G01*
X33538720Y-138791218D02*
X33538720Y-138791218D01*
G75*
G02*
X33452682Y-137202556I751312J837350D01*
G01*
X34762672Y-135742548D01*
G75*
G02*
X36351334Y-135656510I837350J-751312D01*
G01*
X36351334Y-135656510D01*
G75*
G02*
X36437372Y-137245172I-751312J-837350D01*
G01*
X35127382Y-138705180D01*
G75*
G02*
X33538720Y-138791218I-837350J751312D01*
G01*
G37*
D10*
X40640032Y-135413868D03*
G36*
G01*
X40523515Y-137116263D02*
X40523515Y-137116263D01*
G75*
G02*
X39477637Y-135917351I76517J1122395D01*
G01*
X39517179Y-135337319D01*
G75*
G02*
X40716091Y-134291441I1122395J-76517D01*
G01*
X40716091Y-134291441D01*
G75*
G02*
X41761969Y-135490353I-76517J-1122395D01*
G01*
X41722427Y-136070385D01*
G75*
G02*
X40523515Y-137116263I-1122395J76517D01*
G01*
G37*
D11*
X19050016Y-140493868D03*
D12*
X24130016Y-140493868D03*
X13970016Y-140493868D03*
D13*
X14050016Y-144293868D03*
X19050016Y-146393868D03*
D14*
X24550016Y-140493868D03*
X13550016Y-140493868D03*
X24550016Y-140493868D03*
X13550016Y-140493868D03*
D12*
X24130016Y-140493868D03*
X13970016Y-140493868D03*
D10*
X16550016Y-136493868D03*
D11*
X19050016Y-140493868D03*
G36*
G01*
X14488704Y-138791218D02*
X14488704Y-138791218D01*
G75*
G02*
X14402666Y-137202556I751312J837350D01*
G01*
X15712656Y-135742548D01*
G75*
G02*
X17301318Y-135656510I837350J-751312D01*
G01*
X17301318Y-135656510D01*
G75*
G02*
X17387356Y-137245172I-751312J-837350D01*
G01*
X16077366Y-138705180D01*
G75*
G02*
X14488704Y-138791218I-837350J751312D01*
G01*
G37*
D10*
X21590016Y-135413868D03*
G36*
G01*
X21473499Y-137116263D02*
X21473499Y-137116263D01*
G75*
G02*
X20427621Y-135917351I76517J1122395D01*
G01*
X20467163Y-135337319D01*
G75*
G02*
X21666075Y-134291441I1122395J-76517D01*
G01*
X21666075Y-134291441D01*
G75*
G02*
X22711953Y-135490353I-76517J-1122395D01*
G01*
X22672411Y-136070385D01*
G75*
G02*
X21473499Y-137116263I-1122395J76517D01*
G01*
G37*
D11*
X19050016Y-121443852D03*
D12*
X24130016Y-121443852D03*
X13970016Y-121443852D03*
D13*
X14050016Y-125243852D03*
X19050016Y-127343852D03*
D14*
X24550016Y-121443852D03*
X13550016Y-121443852D03*
X24550016Y-121443852D03*
X13550016Y-121443852D03*
D12*
X24130016Y-121443852D03*
X13970016Y-121443852D03*
D10*
X16550016Y-117443852D03*
D11*
X19050016Y-121443852D03*
G36*
G01*
X14488704Y-119741202D02*
X14488704Y-119741202D01*
G75*
G02*
X14402666Y-118152540I751312J837350D01*
G01*
X15712656Y-116692532D01*
G75*
G02*
X17301318Y-116606494I837350J-751312D01*
G01*
X17301318Y-116606494D01*
G75*
G02*
X17387356Y-118195156I-751312J-837350D01*
G01*
X16077366Y-119655164D01*
G75*
G02*
X14488704Y-119741202I-837350J751312D01*
G01*
G37*
D10*
X21590016Y-116363852D03*
G36*
G01*
X21473499Y-118066247D02*
X21473499Y-118066247D01*
G75*
G02*
X20427621Y-116867335I76517J1122395D01*
G01*
X20467163Y-116287303D01*
G75*
G02*
X21666075Y-115241425I1122395J-76517D01*
G01*
X21666075Y-115241425D01*
G75*
G02*
X22711953Y-116440337I-76517J-1122395D01*
G01*
X22672411Y-117020369D01*
G75*
G02*
X21473499Y-118066247I-1122395J76517D01*
G01*
G37*
D11*
X19050016Y-102393836D03*
D12*
X24130016Y-102393836D03*
X13970016Y-102393836D03*
D13*
X14050016Y-106193836D03*
X19050016Y-108293836D03*
D14*
X24550016Y-102393836D03*
X13550016Y-102393836D03*
X24550016Y-102393836D03*
X13550016Y-102393836D03*
D12*
X24130016Y-102393836D03*
X13970016Y-102393836D03*
D10*
X16550016Y-98393836D03*
D11*
X19050016Y-102393836D03*
G36*
G01*
X14488704Y-100691186D02*
X14488704Y-100691186D01*
G75*
G02*
X14402666Y-99102524I751312J837350D01*
G01*
X15712656Y-97642516D01*
G75*
G02*
X17301318Y-97556478I837350J-751312D01*
G01*
X17301318Y-97556478D01*
G75*
G02*
X17387356Y-99145140I-751312J-837350D01*
G01*
X16077366Y-100605148D01*
G75*
G02*
X14488704Y-100691186I-837350J751312D01*
G01*
G37*
D10*
X21590016Y-97313836D03*
G36*
G01*
X21473499Y-99016231D02*
X21473499Y-99016231D01*
G75*
G02*
X20427621Y-97817319I76517J1122395D01*
G01*
X20467163Y-97237287D01*
G75*
G02*
X21666075Y-96191409I1122395J-76517D01*
G01*
X21666075Y-96191409D01*
G75*
G02*
X22711953Y-97390321I-76517J-1122395D01*
G01*
X22672411Y-97970353D01*
G75*
G02*
X21473499Y-99016231I-1122395J76517D01*
G01*
G37*
D11*
X19050016Y-83343820D03*
D12*
X24130016Y-83343820D03*
X13970016Y-83343820D03*
D13*
X14050016Y-87143820D03*
X19050016Y-89243820D03*
D14*
X24550016Y-83343820D03*
X13550016Y-83343820D03*
X24550016Y-83343820D03*
X13550016Y-83343820D03*
D12*
X24130016Y-83343820D03*
X13970016Y-83343820D03*
D10*
X16550016Y-79343820D03*
D11*
X19050016Y-83343820D03*
G36*
G01*
X14488704Y-81641170D02*
X14488704Y-81641170D01*
G75*
G02*
X14402666Y-80052508I751312J837350D01*
G01*
X15712656Y-78592500D01*
G75*
G02*
X17301318Y-78506462I837350J-751312D01*
G01*
X17301318Y-78506462D01*
G75*
G02*
X17387356Y-80095124I-751312J-837350D01*
G01*
X16077366Y-81555132D01*
G75*
G02*
X14488704Y-81641170I-837350J751312D01*
G01*
G37*
D10*
X21590016Y-78263820D03*
G36*
G01*
X21473499Y-79966215D02*
X21473499Y-79966215D01*
G75*
G02*
X20427621Y-78767303I76517J1122395D01*
G01*
X20467163Y-78187271D01*
G75*
G02*
X21666075Y-77141393I1122395J-76517D01*
G01*
X21666075Y-77141393D01*
G75*
G02*
X22711953Y-78340305I-76517J-1122395D01*
G01*
X22672411Y-78920337D01*
G75*
G02*
X21473499Y-79966215I-1122395J76517D01*
G01*
G37*
D15*
X28100000Y-63610000D03*
D16*
X28900000Y-62060000D03*
D15*
X26500000Y-63610000D03*
D17*
X29700000Y-63610000D03*
D18*
X32200000Y-61650000D03*
D16*
X27300000Y-62060000D03*
D18*
X24200000Y-56950000D03*
X32000000Y-56950000D03*
X24000000Y-61650000D03*
D19*
X32428000Y-56710000D03*
X23778000Y-56710000D03*
D20*
X32428000Y-60090000D03*
X23778000Y-60090000D03*
D21*
X28528000Y-59360000D03*
X31078000Y-59360000D03*
X30228000Y-59360000D03*
X29378000Y-59360000D03*
X25128000Y-59360000D03*
X26828000Y-59360000D03*
X27678000Y-59360000D03*
X25978000Y-59360000D03*
X31078000Y-60710000D03*
X30228000Y-60710000D03*
D22*
X29378000Y-60660000D03*
X28528000Y-60660000D03*
X27678000Y-60660000D03*
X26828000Y-60660000D03*
D21*
X25978000Y-60710000D03*
X25128000Y-60710000D03*
D23*
X154781380Y-106561027D03*
D24*
X162401380Y-106561027D03*
D23*
X162401380Y-108942279D03*
D24*
X154781380Y-108942279D03*
D25*
X140493868Y-113546035D03*
X140493868Y-118626035D03*
D26*
X144661059Y-134540738D03*
D27*
X144661059Y-142160738D03*
D26*
X136326677Y-118467287D03*
D27*
X128706677Y-118467287D03*
D28*
X138112616Y-102393836D03*
D26*
X168473579Y-118467287D03*
D27*
X176093579Y-118467287D03*
D26*
X170854831Y-73818812D03*
D27*
X178474831Y-73818812D03*
X126325425Y-67865682D03*
D26*
X133945425Y-67865682D03*
D29*
X13096886Y-111323531D03*
X291703370Y-111323531D03*
D28*
X128587608Y-59531300D03*
X176212648Y-59531300D03*
X128587608Y-144661059D03*
X176212648Y-144661059D03*
D30*
X147042311Y-127992295D03*
D31*
X145542311Y-127992295D03*
D32*
X155734510Y-126801669D03*
X160734510Y-126801669D03*
X160734510Y-129778234D03*
X155734510Y-129778234D03*
X144065746Y-96559454D03*
X144065746Y-94059454D03*
X144065746Y-88701637D03*
X144065746Y-91201637D03*
D33*
X144065746Y-82748507D03*
D34*
X144065746Y-80208507D03*
X146605746Y-82748507D03*
X146605746Y-80208507D03*
X149145746Y-82748507D03*
X149145746Y-80208507D03*
D35*
X159543884Y-63698491D03*
D36*
X157003884Y-63698491D03*
D13*
X148565746Y-75604751D03*
X144065746Y-75604751D03*
X148565746Y-69104751D03*
X144065746Y-69104751D03*
X144065746Y-100656340D03*
X148565746Y-100656340D03*
X144065746Y-107156340D03*
X148565746Y-107156340D03*
D37*
X148828250Y-89892263D03*
X148828250Y-94772263D03*
D26*
X154781380Y-69056308D03*
D27*
X162401380Y-102076308D03*
X154781380Y-71596308D03*
X162401380Y-99536308D03*
X154781380Y-74136308D03*
X162401380Y-96996308D03*
X154781380Y-76676308D03*
X162401380Y-94456308D03*
X154781380Y-79216308D03*
X162401380Y-91916308D03*
X154781380Y-81756308D03*
X162401380Y-89376308D03*
X154781380Y-84296308D03*
X162401380Y-86836308D03*
X154781380Y-86836308D03*
X162401380Y-84296308D03*
X154781380Y-89376308D03*
X162401380Y-81756308D03*
X154781380Y-91916308D03*
X162401380Y-79216308D03*
X154781380Y-94456308D03*
X162401380Y-76676308D03*
X154781380Y-96996308D03*
X162401380Y-74136308D03*
X154781380Y-99536308D03*
X162401380Y-71596308D03*
X154781380Y-102076308D03*
X162401380Y-69056308D03*
D26*
X154900449Y-121443852D03*
D27*
X162520449Y-121443852D03*
X162520449Y-118467287D03*
D26*
X154900449Y-118467287D03*
X136326677Y-76795377D03*
D27*
X128706677Y-76795377D03*
D26*
X133945425Y-73818812D03*
D27*
X126325425Y-73818812D03*
X128706677Y-70842247D03*
D26*
X136326677Y-70842247D03*
X136326677Y-64889117D03*
D27*
X128706677Y-64889117D03*
D26*
X168473579Y-76795377D03*
D27*
X176093579Y-76795377D03*
X176093579Y-70842247D03*
D26*
X168473579Y-70842247D03*
X170854831Y-67865682D03*
D27*
X178474831Y-67865682D03*
D26*
X136326677Y-82748507D03*
D27*
X128706677Y-82748507D03*
D26*
X133945425Y-85725072D03*
D27*
X126325425Y-85725072D03*
X128706677Y-88701637D03*
D26*
X136326677Y-88701637D03*
D27*
X126325425Y-91678202D03*
D26*
X133945425Y-91678202D03*
X133945425Y-79771942D03*
D27*
X126325425Y-79771942D03*
X176093579Y-82748507D03*
D26*
X168473579Y-82748507D03*
X170854831Y-85725072D03*
D27*
X178474831Y-85725072D03*
D26*
X168473579Y-88701637D03*
D27*
X176093579Y-88701637D03*
D26*
X170854831Y-91678202D03*
D27*
X178474831Y-91678202D03*
X126325425Y-100607897D03*
D26*
X133945425Y-100607897D03*
D27*
X126325425Y-103584462D03*
D26*
X133945425Y-103584462D03*
D27*
X128706677Y-106561027D03*
D26*
X136326677Y-106561027D03*
X136326677Y-94654767D03*
D27*
X128706677Y-94654767D03*
D26*
X133945425Y-97631332D03*
D27*
X126325425Y-97631332D03*
D26*
X168473579Y-100607897D03*
D27*
X176093579Y-100607897D03*
D26*
X170854831Y-103584462D03*
D27*
X178474831Y-103584462D03*
D26*
X168473579Y-106561027D03*
D27*
X176093579Y-106561027D03*
D26*
X168473579Y-94654767D03*
D27*
X176093579Y-94654767D03*
X126325425Y-121443852D03*
D26*
X133945425Y-121443852D03*
D27*
X126325425Y-109537592D03*
D26*
X133945425Y-109537592D03*
X136326677Y-112514157D03*
D27*
X128706677Y-112514157D03*
D26*
X133945425Y-115490722D03*
D27*
X126325425Y-115490722D03*
D26*
X170854831Y-121443852D03*
D27*
X178474831Y-121443852D03*
D26*
X170854831Y-109537592D03*
D27*
X178474831Y-109537592D03*
D26*
X168473579Y-112514157D03*
D27*
X176093579Y-112514157D03*
X150614189Y-142160738D03*
D26*
X150614189Y-134540738D03*
D27*
X128706677Y-124420417D03*
D26*
X136326677Y-124420417D03*
D27*
X126325425Y-127396982D03*
D26*
X133945425Y-127396982D03*
D27*
X128706677Y-130373547D03*
D26*
X136326677Y-130373547D03*
D27*
X154186067Y-142160738D03*
D26*
X154186067Y-134540738D03*
D27*
X176093579Y-124420417D03*
D26*
X168473579Y-124420417D03*
D27*
X178474831Y-127396982D03*
D26*
X170854831Y-127396982D03*
D27*
X176093579Y-130373547D03*
D26*
X168473579Y-130373547D03*
X147637624Y-136921990D03*
D27*
X147637624Y-144541990D03*
D26*
X141684494Y-136921990D03*
D27*
X141684494Y-144541990D03*
D26*
X138707929Y-134540738D03*
D27*
X138707929Y-142160738D03*
D26*
X157162632Y-136921990D03*
D27*
X157162632Y-144541990D03*
D26*
X160139197Y-134540738D03*
D27*
X160139197Y-142160738D03*
D26*
X163115762Y-136921990D03*
D27*
X163115762Y-144541990D03*
D26*
X166092327Y-134540738D03*
D27*
X166092327Y-142160738D03*
D35*
X147796372Y-63698491D03*
D36*
X145256372Y-63698491D03*
D27*
X126325425Y-133350112D03*
D26*
X133945425Y-133350112D03*
X135731364Y-136921990D03*
D27*
X135731364Y-144541990D03*
X176093579Y-64889117D03*
D26*
X168473579Y-64889117D03*
X170854831Y-79771942D03*
D27*
X178474831Y-79771942D03*
X178474831Y-97631332D03*
D26*
X170854831Y-97631332D03*
X170854831Y-115490722D03*
D27*
X178474831Y-115490722D03*
X178474831Y-133350112D03*
D26*
X170854831Y-133350112D03*
X169068892Y-136921990D03*
D27*
X169068892Y-144541990D03*
D38*
X107315088Y-135413868D03*
X100965088Y-137953868D03*
D11*
X104775088Y-140493868D03*
D39*
X92837088Y-147478868D03*
X116713088Y-147478868D03*
D11*
X92837088Y-132238868D03*
X116713088Y-132238868D03*
X211963168Y-132238868D03*
X188087168Y-132238868D03*
D39*
X211963168Y-147478868D03*
X188087168Y-147478868D03*
D11*
X200025168Y-140493868D03*
D38*
X196215168Y-137953868D03*
X202565168Y-135413868D03*
D23*
X162401380Y-113704783D03*
D24*
X154781380Y-113704783D03*
X154781380Y-111323531D03*
D23*
X162401380Y-111323531D03*
X142398876Y-58340674D03*
D24*
X150018876Y-58340674D03*
X162401380Y-58340674D03*
D23*
X154781380Y-58340674D03*
X24765000Y-75009375D03*
D24*
X32385000Y-75009375D03*
X24765000Y-72628125D03*
D23*
X32385000Y-72628125D03*
D40*
X66675000Y-76075000D03*
X66675000Y-74575001D03*
X66675000Y-73074999D03*
X66675000Y-71574999D03*
M02*
