G04 #@! TF.GenerationSoftware,KiCad,Pcbnew,(5.1.10-1-10_14)*
G04 #@! TF.CreationDate,2021-10-16T17:37:56+02:00*
G04 #@! TF.ProjectId,lumberjack,6c756d62-6572-46a6-9163-6b2e6b696361,1.4*
G04 #@! TF.SameCoordinates,Original*
G04 #@! TF.FileFunction,Paste,Bot*
G04 #@! TF.FilePolarity,Positive*
%FSLAX46Y46*%
G04 Gerber Fmt 4.6, Leading zero omitted, Abs format (unit mm)*
G04 Created by KiCad (PCBNEW (5.1.10-1-10_14)) date 2021-10-16 17:37:56*
%MOMM*%
%LPD*%
G01*
G04 APERTURE LIST*
G04 APERTURE END LIST*
G36*
G01*
X50600000Y-70000000D02*
X51850000Y-70000000D01*
G75*
G02*
X52000000Y-70150000I0J-150000D01*
G01*
X52000000Y-70450000D01*
G75*
G02*
X51850000Y-70600000I-150000J0D01*
G01*
X50600000Y-70600000D01*
G75*
G02*
X50450000Y-70450000I0J150000D01*
G01*
X50450000Y-70150000D01*
G75*
G02*
X50600000Y-70000000I150000J0D01*
G01*
G37*
G36*
G01*
X50600000Y-71000000D02*
X51850000Y-71000000D01*
G75*
G02*
X52000000Y-71150000I0J-150000D01*
G01*
X52000000Y-71450000D01*
G75*
G02*
X51850000Y-71600000I-150000J0D01*
G01*
X50600000Y-71600000D01*
G75*
G02*
X50450000Y-71450000I0J150000D01*
G01*
X50450000Y-71150000D01*
G75*
G02*
X50600000Y-71000000I150000J0D01*
G01*
G37*
G36*
G01*
X50600000Y-72000000D02*
X51850000Y-72000000D01*
G75*
G02*
X52000000Y-72150000I0J-150000D01*
G01*
X52000000Y-72450000D01*
G75*
G02*
X51850000Y-72600000I-150000J0D01*
G01*
X50600000Y-72600000D01*
G75*
G02*
X50450000Y-72450000I0J150000D01*
G01*
X50450000Y-72150000D01*
G75*
G02*
X50600000Y-72000000I150000J0D01*
G01*
G37*
G36*
G01*
X50600000Y-73000000D02*
X51850000Y-73000000D01*
G75*
G02*
X52000000Y-73150000I0J-150000D01*
G01*
X52000000Y-73450000D01*
G75*
G02*
X51850000Y-73600000I-150000J0D01*
G01*
X50600000Y-73600000D01*
G75*
G02*
X50450000Y-73450000I0J150000D01*
G01*
X50450000Y-73150000D01*
G75*
G02*
X50600000Y-73000000I150000J0D01*
G01*
G37*
G36*
G01*
X54449999Y-68400000D02*
X55750001Y-68400000D01*
G75*
G02*
X56000000Y-68649999I0J-249999D01*
G01*
X56000000Y-69350001D01*
G75*
G02*
X55750001Y-69600000I-249999J0D01*
G01*
X54449999Y-69600000D01*
G75*
G02*
X54200000Y-69350001I0J249999D01*
G01*
X54200000Y-68649999D01*
G75*
G02*
X54449999Y-68400000I249999J0D01*
G01*
G37*
G36*
G01*
X54449999Y-74000000D02*
X55750001Y-74000000D01*
G75*
G02*
X56000000Y-74249999I0J-249999D01*
G01*
X56000000Y-74950001D01*
G75*
G02*
X55750001Y-75200000I-249999J0D01*
G01*
X54449999Y-75200000D01*
G75*
G02*
X54200000Y-74950001I0J249999D01*
G01*
X54200000Y-74249999D01*
G75*
G02*
X54449999Y-74000000I249999J0D01*
G01*
G37*
M02*
