G04 #@! TF.GenerationSoftware,KiCad,Pcbnew,(5.1.9-0-10_14)*
G04 #@! TF.CreationDate,2021-02-28T21:08:55+01:00*
G04 #@! TF.ProjectId,lumberjack,6c756d62-6572-46a6-9163-6b2e6b696361,1.2*
G04 #@! TF.SameCoordinates,Original*
G04 #@! TF.FileFunction,Soldermask,Bot*
G04 #@! TF.FilePolarity,Negative*
%FSLAX46Y46*%
G04 Gerber Fmt 4.6, Leading zero omitted, Abs format (unit mm)*
G04 Created by KiCad (PCBNEW (5.1.9-0-10_14)) date 2021-02-28 21:08:55*
%MOMM*%
%LPD*%
G01*
G04 APERTURE LIST*
%ADD10C,0.300000*%
%ADD11C,0.010000*%
%ADD12O,0.700000X1.000000*%
%ADD13O,0.900000X2.400000*%
%ADD14O,0.900000X1.700000*%
%ADD15C,1.100000*%
%ADD16R,1.100000X1.100000*%
%ADD17O,0.850000X2.000000*%
%ADD18C,1.701800*%
%ADD19C,3.987800*%
%ADD20C,2.286000*%
%ADD21O,1.400000X1.400000*%
%ADD22C,1.400000*%
%ADD23C,1.710000*%
%ADD24R,1.600000X1.600000*%
%ADD25O,1.600000X1.600000*%
%ADD26C,5.000000*%
%ADD27O,11.600000X5.000000*%
%ADD28R,1.200000X1.200000*%
%ADD29C,1.200000*%
%ADD30C,1.600000*%
%ADD31R,1.700000X1.700000*%
%ADD32O,1.700000X1.700000*%
%ADD33R,1.800000X1.800000*%
%ADD34C,1.800000*%
%ADD35C,2.000000*%
%ADD36C,1.500000*%
%ADD37C,3.048000*%
G04 APERTURE END LIST*
D10*
X291627567Y-147720882D02*
X292341853Y-147720882D01*
X292341853Y-146220882D01*
X290484710Y-146720882D02*
X290484710Y-147720882D01*
X291127567Y-146720882D02*
X291127567Y-147506596D01*
X291056138Y-147649453D01*
X290913281Y-147720882D01*
X290698996Y-147720882D01*
X290556138Y-147649453D01*
X290484710Y-147578025D01*
X289770424Y-147720882D02*
X289770424Y-146720882D01*
X289770424Y-146863739D02*
X289698996Y-146792311D01*
X289556138Y-146720882D01*
X289341853Y-146720882D01*
X289198996Y-146792311D01*
X289127567Y-146935168D01*
X289127567Y-147720882D01*
X289127567Y-146935168D02*
X289056138Y-146792311D01*
X288913281Y-146720882D01*
X288698996Y-146720882D01*
X288556138Y-146792311D01*
X288484710Y-146935168D01*
X288484710Y-147720882D01*
X287770424Y-147720882D02*
X287770424Y-146220882D01*
X287770424Y-146792311D02*
X287627567Y-146720882D01*
X287341853Y-146720882D01*
X287198996Y-146792311D01*
X287127567Y-146863739D01*
X287056138Y-147006596D01*
X287056138Y-147435168D01*
X287127567Y-147578025D01*
X287198996Y-147649453D01*
X287341853Y-147720882D01*
X287627567Y-147720882D01*
X287770424Y-147649453D01*
X285841853Y-147649453D02*
X285984710Y-147720882D01*
X286270424Y-147720882D01*
X286413281Y-147649453D01*
X286484710Y-147506596D01*
X286484710Y-146935168D01*
X286413281Y-146792311D01*
X286270424Y-146720882D01*
X285984710Y-146720882D01*
X285841853Y-146792311D01*
X285770424Y-146935168D01*
X285770424Y-147078025D01*
X286484710Y-147220882D01*
X285127567Y-147720882D02*
X285127567Y-146720882D01*
X285127567Y-147006596D02*
X285056138Y-146863739D01*
X284984710Y-146792311D01*
X284841853Y-146720882D01*
X284698996Y-146720882D01*
X284198996Y-146720882D02*
X284198996Y-148006596D01*
X284270424Y-148149453D01*
X284413281Y-148220882D01*
X284484710Y-148220882D01*
X284198996Y-146220882D02*
X284270424Y-146292311D01*
X284198996Y-146363739D01*
X284127567Y-146292311D01*
X284198996Y-146220882D01*
X284198996Y-146363739D01*
X282841853Y-147720882D02*
X282841853Y-146935168D01*
X282913281Y-146792311D01*
X283056138Y-146720882D01*
X283341853Y-146720882D01*
X283484710Y-146792311D01*
X282841853Y-147649453D02*
X282984710Y-147720882D01*
X283341853Y-147720882D01*
X283484710Y-147649453D01*
X283556138Y-147506596D01*
X283556138Y-147363739D01*
X283484710Y-147220882D01*
X283341853Y-147149453D01*
X282984710Y-147149453D01*
X282841853Y-147078025D01*
X281484710Y-147649453D02*
X281627567Y-147720882D01*
X281913281Y-147720882D01*
X282056138Y-147649453D01*
X282127567Y-147578025D01*
X282198996Y-147435168D01*
X282198996Y-147006596D01*
X282127567Y-146863739D01*
X282056138Y-146792311D01*
X281913281Y-146720882D01*
X281627567Y-146720882D01*
X281484710Y-146792311D01*
X280841853Y-147720882D02*
X280841853Y-146220882D01*
X280698996Y-147149453D02*
X280270424Y-147720882D01*
X280270424Y-146720882D02*
X280841853Y-147292311D01*
X278484710Y-147720882D02*
X278484710Y-146720882D01*
X278484710Y-147006596D02*
X278413281Y-146863739D01*
X278341853Y-146792311D01*
X278198996Y-146720882D01*
X278056138Y-146720882D01*
X276984710Y-147649453D02*
X277127567Y-147720882D01*
X277413281Y-147720882D01*
X277556138Y-147649453D01*
X277627567Y-147506596D01*
X277627567Y-146935168D01*
X277556138Y-146792311D01*
X277413281Y-146720882D01*
X277127567Y-146720882D01*
X276984710Y-146792311D01*
X276913281Y-146935168D01*
X276913281Y-147078025D01*
X277627567Y-147220882D01*
X276413281Y-146720882D02*
X276056138Y-147720882D01*
X275698996Y-146720882D01*
X274341853Y-147720882D02*
X275198996Y-147720882D01*
X274770424Y-147720882D02*
X274770424Y-146220882D01*
X274913281Y-146435168D01*
X275056138Y-146578025D01*
X275198996Y-146649453D01*
X273698996Y-147578025D02*
X273627567Y-147649453D01*
X273698996Y-147720882D01*
X273770424Y-147649453D01*
X273698996Y-147578025D01*
X273698996Y-147720882D01*
X273127567Y-146220882D02*
X272198996Y-146220882D01*
X272698996Y-146792311D01*
X272484710Y-146792311D01*
X272341853Y-146863739D01*
X272270424Y-146935168D01*
X272198996Y-147078025D01*
X272198996Y-147435168D01*
X272270424Y-147578025D01*
X272341853Y-147649453D01*
X272484710Y-147720882D01*
X272913281Y-147720882D01*
X273056138Y-147649453D01*
X273127567Y-147578025D01*
X269770424Y-146720882D02*
X269770424Y-147720882D01*
X270413281Y-146720882D02*
X270413281Y-147506596D01*
X270341853Y-147649453D01*
X270198996Y-147720882D01*
X269984710Y-147720882D01*
X269841853Y-147649453D01*
X269770424Y-147578025D01*
X267984710Y-146149453D02*
X269270424Y-148078025D01*
X267484710Y-146720882D02*
X267484710Y-148220882D01*
X267484710Y-146792311D02*
X267341853Y-146720882D01*
X267056138Y-146720882D01*
X266913281Y-146792311D01*
X266841853Y-146863739D01*
X266770424Y-147006596D01*
X266770424Y-147435168D01*
X266841853Y-147578025D01*
X266913281Y-147649453D01*
X267056138Y-147720882D01*
X267341853Y-147720882D01*
X267484710Y-147649453D01*
X265556138Y-147649453D02*
X265698996Y-147720882D01*
X265984710Y-147720882D01*
X266127567Y-147649453D01*
X266198996Y-147506596D01*
X266198996Y-146935168D01*
X266127567Y-146792311D01*
X265984710Y-146720882D01*
X265698996Y-146720882D01*
X265556138Y-146792311D01*
X265484710Y-146935168D01*
X265484710Y-147078025D01*
X266198996Y-147220882D01*
X264270424Y-147649453D02*
X264413281Y-147720882D01*
X264698996Y-147720882D01*
X264841853Y-147649453D01*
X264913281Y-147506596D01*
X264913281Y-146935168D01*
X264841853Y-146792311D01*
X264698996Y-146720882D01*
X264413281Y-146720882D01*
X264270424Y-146792311D01*
X264198996Y-146935168D01*
X264198996Y-147078025D01*
X264913281Y-147220882D01*
X263556138Y-146720882D02*
X263556138Y-148006596D01*
X263627567Y-148149453D01*
X263770424Y-148220882D01*
X263841853Y-148220882D01*
X263556138Y-146220882D02*
X263627567Y-146292311D01*
X263556138Y-146363739D01*
X263484710Y-146292311D01*
X263556138Y-146220882D01*
X263556138Y-146363739D01*
X262270424Y-147649453D02*
X262413281Y-147720882D01*
X262698996Y-147720882D01*
X262841853Y-147649453D01*
X262913281Y-147506596D01*
X262913281Y-146935168D01*
X262841853Y-146792311D01*
X262698996Y-146720882D01*
X262413281Y-146720882D01*
X262270424Y-146792311D01*
X262198996Y-146935168D01*
X262198996Y-147078025D01*
X262913281Y-147220882D01*
X261556138Y-147720882D02*
X261556138Y-146220882D01*
X260913281Y-147720882D02*
X260913281Y-146935168D01*
X260984710Y-146792311D01*
X261127567Y-146720882D01*
X261341853Y-146720882D01*
X261484710Y-146792311D01*
X261556138Y-146863739D01*
X258770424Y-146220882D02*
X258627567Y-146220882D01*
X258484710Y-146292311D01*
X258413281Y-146363739D01*
X258341853Y-146506596D01*
X258270424Y-146792311D01*
X258270424Y-147149453D01*
X258341853Y-147435168D01*
X258413281Y-147578025D01*
X258484710Y-147649453D01*
X258627567Y-147720882D01*
X258770424Y-147720882D01*
X258913281Y-147649453D01*
X258984710Y-147578025D01*
X259056138Y-147435168D01*
X259127567Y-147149453D01*
X259127567Y-146792311D01*
X259056138Y-146506596D01*
X258984710Y-146363739D01*
X258913281Y-146292311D01*
X258770424Y-146220882D01*
X257698996Y-146363739D02*
X257627567Y-146292311D01*
X257484710Y-146220882D01*
X257127567Y-146220882D01*
X256984710Y-146292311D01*
X256913281Y-146363739D01*
X256841853Y-146506596D01*
X256841853Y-146649453D01*
X256913281Y-146863739D01*
X257770424Y-147720882D01*
X256841853Y-147720882D01*
X255127567Y-146149453D02*
X256413281Y-148078025D01*
X254698996Y-146363739D02*
X254627567Y-146292311D01*
X254484710Y-146220882D01*
X254127567Y-146220882D01*
X253984710Y-146292311D01*
X253913281Y-146363739D01*
X253841853Y-146506596D01*
X253841853Y-146649453D01*
X253913281Y-146863739D01*
X254770424Y-147720882D01*
X253841853Y-147720882D01*
X252913281Y-146220882D02*
X252770424Y-146220882D01*
X252627567Y-146292311D01*
X252556138Y-146363739D01*
X252484710Y-146506596D01*
X252413281Y-146792311D01*
X252413281Y-147149453D01*
X252484710Y-147435168D01*
X252556138Y-147578025D01*
X252627567Y-147649453D01*
X252770424Y-147720882D01*
X252913281Y-147720882D01*
X253056138Y-147649453D01*
X253127567Y-147578025D01*
X253198996Y-147435168D01*
X253270424Y-147149453D01*
X253270424Y-146792311D01*
X253198996Y-146506596D01*
X253127567Y-146363739D01*
X253056138Y-146292311D01*
X252913281Y-146220882D01*
X251841853Y-146363739D02*
X251770424Y-146292311D01*
X251627567Y-146220882D01*
X251270424Y-146220882D01*
X251127567Y-146292311D01*
X251056138Y-146363739D01*
X250984710Y-146506596D01*
X250984710Y-146649453D01*
X251056138Y-146863739D01*
X251913281Y-147720882D01*
X250984710Y-147720882D01*
X249556138Y-147720882D02*
X250413281Y-147720882D01*
X249984710Y-147720882D02*
X249984710Y-146220882D01*
X250127567Y-146435168D01*
X250270424Y-146578025D01*
X250413281Y-146649453D01*
D11*
G36*
X150174264Y-118633816D02*
G01*
X150139032Y-118651222D01*
X150095584Y-118681554D01*
X150063918Y-118714631D01*
X150042230Y-118756165D01*
X150028721Y-118811870D01*
X150021586Y-118887459D01*
X150019024Y-118988644D01*
X150018874Y-119032145D01*
X150019312Y-119127483D01*
X150021128Y-119195619D01*
X150025079Y-119242766D01*
X150031922Y-119275138D01*
X150042413Y-119298948D01*
X150053328Y-119315191D01*
X150123005Y-119384300D01*
X150205058Y-119425869D01*
X150293574Y-119438371D01*
X150382643Y-119420282D01*
X150410861Y-119407490D01*
X150478414Y-119372279D01*
X150478414Y-119924048D01*
X150429112Y-119898553D01*
X150364151Y-119878828D01*
X150284304Y-119873775D01*
X150204572Y-119883104D01*
X150144359Y-119904062D01*
X150094416Y-119943975D01*
X150051743Y-120001089D01*
X150048534Y-120006953D01*
X150035002Y-120034575D01*
X150025119Y-120062416D01*
X150018315Y-120096142D01*
X150014023Y-120141419D01*
X150011673Y-120203910D01*
X150010696Y-120289283D01*
X150010519Y-120385358D01*
X150010519Y-120691874D01*
X150194335Y-120691874D01*
X150194335Y-120126687D01*
X150245749Y-120083425D01*
X150299158Y-120048820D01*
X150349736Y-120042528D01*
X150400594Y-120058720D01*
X150427699Y-120074575D01*
X150447873Y-120097158D01*
X150462221Y-120131288D01*
X150471848Y-120181782D01*
X150477861Y-120253459D01*
X150481364Y-120351136D01*
X150482598Y-120416150D01*
X150486769Y-120683519D01*
X150574499Y-120688570D01*
X150662230Y-120693621D01*
X150662230Y-119034449D01*
X150478414Y-119034449D01*
X150473728Y-119126948D01*
X150457936Y-119191157D01*
X150428441Y-119231107D01*
X150382644Y-119250828D01*
X150336374Y-119254769D01*
X150283996Y-119250240D01*
X150249234Y-119232417D01*
X150227496Y-119208867D01*
X150210384Y-119183537D01*
X150200197Y-119155317D01*
X150195664Y-119115779D01*
X150195515Y-119056490D01*
X150197040Y-119006846D01*
X150200543Y-118932058D01*
X150205757Y-118882959D01*
X150214537Y-118851815D01*
X150228738Y-118830893D01*
X150242140Y-118818800D01*
X150298137Y-118792429D01*
X150364413Y-118788170D01*
X150402468Y-118797254D01*
X150440147Y-118829544D01*
X150465105Y-118892354D01*
X150477202Y-118985242D01*
X150478414Y-119034449D01*
X150662230Y-119034449D01*
X150662230Y-118619769D01*
X150570322Y-118619769D01*
X150515141Y-118621951D01*
X150486672Y-118629699D01*
X150478418Y-118644816D01*
X150478414Y-118645264D01*
X150474584Y-118660068D01*
X150457691Y-118658387D01*
X150424105Y-118642120D01*
X150345846Y-118617235D01*
X150257797Y-118614619D01*
X150174264Y-118633816D01*
G37*
X150174264Y-118633816D02*
X150139032Y-118651222D01*
X150095584Y-118681554D01*
X150063918Y-118714631D01*
X150042230Y-118756165D01*
X150028721Y-118811870D01*
X150021586Y-118887459D01*
X150019024Y-118988644D01*
X150018874Y-119032145D01*
X150019312Y-119127483D01*
X150021128Y-119195619D01*
X150025079Y-119242766D01*
X150031922Y-119275138D01*
X150042413Y-119298948D01*
X150053328Y-119315191D01*
X150123005Y-119384300D01*
X150205058Y-119425869D01*
X150293574Y-119438371D01*
X150382643Y-119420282D01*
X150410861Y-119407490D01*
X150478414Y-119372279D01*
X150478414Y-119924048D01*
X150429112Y-119898553D01*
X150364151Y-119878828D01*
X150284304Y-119873775D01*
X150204572Y-119883104D01*
X150144359Y-119904062D01*
X150094416Y-119943975D01*
X150051743Y-120001089D01*
X150048534Y-120006953D01*
X150035002Y-120034575D01*
X150025119Y-120062416D01*
X150018315Y-120096142D01*
X150014023Y-120141419D01*
X150011673Y-120203910D01*
X150010696Y-120289283D01*
X150010519Y-120385358D01*
X150010519Y-120691874D01*
X150194335Y-120691874D01*
X150194335Y-120126687D01*
X150245749Y-120083425D01*
X150299158Y-120048820D01*
X150349736Y-120042528D01*
X150400594Y-120058720D01*
X150427699Y-120074575D01*
X150447873Y-120097158D01*
X150462221Y-120131288D01*
X150471848Y-120181782D01*
X150477861Y-120253459D01*
X150481364Y-120351136D01*
X150482598Y-120416150D01*
X150486769Y-120683519D01*
X150574499Y-120688570D01*
X150662230Y-120693621D01*
X150662230Y-119034449D01*
X150478414Y-119034449D01*
X150473728Y-119126948D01*
X150457936Y-119191157D01*
X150428441Y-119231107D01*
X150382644Y-119250828D01*
X150336374Y-119254769D01*
X150283996Y-119250240D01*
X150249234Y-119232417D01*
X150227496Y-119208867D01*
X150210384Y-119183537D01*
X150200197Y-119155317D01*
X150195664Y-119115779D01*
X150195515Y-119056490D01*
X150197040Y-119006846D01*
X150200543Y-118932058D01*
X150205757Y-118882959D01*
X150214537Y-118851815D01*
X150228738Y-118830893D01*
X150242140Y-118818800D01*
X150298137Y-118792429D01*
X150364413Y-118788170D01*
X150402468Y-118797254D01*
X150440147Y-118829544D01*
X150465105Y-118892354D01*
X150477202Y-118985242D01*
X150478414Y-119034449D01*
X150662230Y-119034449D01*
X150662230Y-118619769D01*
X150570322Y-118619769D01*
X150515141Y-118621951D01*
X150486672Y-118629699D01*
X150478418Y-118644816D01*
X150478414Y-118645264D01*
X150474584Y-118660068D01*
X150457691Y-118658387D01*
X150424105Y-118642120D01*
X150345846Y-118617235D01*
X150257797Y-118614619D01*
X150174264Y-118633816D01*
G36*
X149477167Y-119879532D02*
G01*
X149398554Y-119900508D01*
X149338708Y-119938528D01*
X149296477Y-119988326D01*
X149283349Y-120009578D01*
X149273656Y-120031840D01*
X149266880Y-120060318D01*
X149262501Y-120100219D01*
X149260000Y-120156749D01*
X149258856Y-120235115D01*
X149258552Y-120340524D01*
X149258546Y-120368490D01*
X149258546Y-120691874D01*
X149338756Y-120691874D01*
X149389918Y-120688291D01*
X149427747Y-120679214D01*
X149437225Y-120673616D01*
X149463136Y-120663954D01*
X149489600Y-120673616D01*
X149533172Y-120685678D01*
X149596464Y-120690533D01*
X149666614Y-120688426D01*
X149730764Y-120679604D01*
X149768217Y-120668285D01*
X149840691Y-120621760D01*
X149885984Y-120557194D01*
X149906346Y-120471348D01*
X149906536Y-120469144D01*
X149904749Y-120431061D01*
X149743151Y-120431061D01*
X149729023Y-120474378D01*
X149706012Y-120498756D01*
X149659820Y-120517193D01*
X149598849Y-120524553D01*
X149536675Y-120520931D01*
X149486873Y-120506422D01*
X149472921Y-120497113D01*
X149448539Y-120454101D01*
X149442361Y-120405205D01*
X149442361Y-120340953D01*
X149534806Y-120340953D01*
X149622629Y-120347714D01*
X149689206Y-120366868D01*
X149730622Y-120396724D01*
X149743151Y-120431061D01*
X149904749Y-120431061D01*
X149902134Y-120375352D01*
X149871200Y-120301195D01*
X149813043Y-120245115D01*
X149805004Y-120240013D01*
X149770461Y-120223403D01*
X149727706Y-120213344D01*
X149667938Y-120208455D01*
X149596934Y-120207331D01*
X149442361Y-120207269D01*
X149442361Y-120142473D01*
X149448918Y-120092198D01*
X149465649Y-120058517D01*
X149467608Y-120056724D01*
X149504841Y-120041990D01*
X149561044Y-120036279D01*
X149623157Y-120039085D01*
X149678114Y-120049904D01*
X149710725Y-120066130D01*
X149728396Y-120079128D01*
X149747055Y-120081610D01*
X149772805Y-120070961D01*
X149811751Y-120044566D01*
X149869994Y-119999813D01*
X149875340Y-119995621D01*
X149872601Y-119980108D01*
X149849748Y-119954308D01*
X149815015Y-119925637D01*
X149776634Y-119901514D01*
X149764576Y-119895818D01*
X149720590Y-119884451D01*
X149656137Y-119876343D01*
X149584127Y-119873091D01*
X149580760Y-119873084D01*
X149477167Y-119879532D01*
G37*
X149477167Y-119879532D02*
X149398554Y-119900508D01*
X149338708Y-119938528D01*
X149296477Y-119988326D01*
X149283349Y-120009578D01*
X149273656Y-120031840D01*
X149266880Y-120060318D01*
X149262501Y-120100219D01*
X149260000Y-120156749D01*
X149258856Y-120235115D01*
X149258552Y-120340524D01*
X149258546Y-120368490D01*
X149258546Y-120691874D01*
X149338756Y-120691874D01*
X149389918Y-120688291D01*
X149427747Y-120679214D01*
X149437225Y-120673616D01*
X149463136Y-120663954D01*
X149489600Y-120673616D01*
X149533172Y-120685678D01*
X149596464Y-120690533D01*
X149666614Y-120688426D01*
X149730764Y-120679604D01*
X149768217Y-120668285D01*
X149840691Y-120621760D01*
X149885984Y-120557194D01*
X149906346Y-120471348D01*
X149906536Y-120469144D01*
X149904749Y-120431061D01*
X149743151Y-120431061D01*
X149729023Y-120474378D01*
X149706012Y-120498756D01*
X149659820Y-120517193D01*
X149598849Y-120524553D01*
X149536675Y-120520931D01*
X149486873Y-120506422D01*
X149472921Y-120497113D01*
X149448539Y-120454101D01*
X149442361Y-120405205D01*
X149442361Y-120340953D01*
X149534806Y-120340953D01*
X149622629Y-120347714D01*
X149689206Y-120366868D01*
X149730622Y-120396724D01*
X149743151Y-120431061D01*
X149904749Y-120431061D01*
X149902134Y-120375352D01*
X149871200Y-120301195D01*
X149813043Y-120245115D01*
X149805004Y-120240013D01*
X149770461Y-120223403D01*
X149727706Y-120213344D01*
X149667938Y-120208455D01*
X149596934Y-120207331D01*
X149442361Y-120207269D01*
X149442361Y-120142473D01*
X149448918Y-120092198D01*
X149465649Y-120058517D01*
X149467608Y-120056724D01*
X149504841Y-120041990D01*
X149561044Y-120036279D01*
X149623157Y-120039085D01*
X149678114Y-120049904D01*
X149710725Y-120066130D01*
X149728396Y-120079128D01*
X149747055Y-120081610D01*
X149772805Y-120070961D01*
X149811751Y-120044566D01*
X149869994Y-119999813D01*
X149875340Y-119995621D01*
X149872601Y-119980108D01*
X149849748Y-119954308D01*
X149815015Y-119925637D01*
X149776634Y-119901514D01*
X149764576Y-119895818D01*
X149720590Y-119884451D01*
X149656137Y-119876343D01*
X149584127Y-119873091D01*
X149580760Y-119873084D01*
X149477167Y-119879532D01*
G36*
X148957743Y-119874834D02*
G01*
X148932736Y-119882330D01*
X148924674Y-119898799D01*
X148924335Y-119906234D01*
X148922888Y-119926942D01*
X148912926Y-119930193D01*
X148886012Y-119915996D01*
X148870026Y-119906296D01*
X148819591Y-119885523D01*
X148759352Y-119875252D01*
X148696190Y-119874462D01*
X148636987Y-119882134D01*
X148588622Y-119897246D01*
X148557978Y-119918780D01*
X148551935Y-119945714D01*
X148554985Y-119953008D01*
X148577218Y-119983285D01*
X148611694Y-120020523D01*
X148617930Y-120026543D01*
X148650791Y-120054223D01*
X148679144Y-120063166D01*
X148718797Y-120056924D01*
X148734682Y-120052777D01*
X148784115Y-120042815D01*
X148818872Y-120047295D01*
X148848224Y-120063094D01*
X148875111Y-120084297D01*
X148894914Y-120110962D01*
X148908676Y-120148175D01*
X148917440Y-120201021D01*
X148922250Y-120274585D01*
X148924150Y-120373953D01*
X148924335Y-120433949D01*
X148924335Y-120691874D01*
X149091440Y-120691874D01*
X149091440Y-119873058D01*
X149007888Y-119873058D01*
X148957743Y-119874834D01*
G37*
X148957743Y-119874834D02*
X148932736Y-119882330D01*
X148924674Y-119898799D01*
X148924335Y-119906234D01*
X148922888Y-119926942D01*
X148912926Y-119930193D01*
X148886012Y-119915996D01*
X148870026Y-119906296D01*
X148819591Y-119885523D01*
X148759352Y-119875252D01*
X148696190Y-119874462D01*
X148636987Y-119882134D01*
X148588622Y-119897246D01*
X148557978Y-119918780D01*
X148551935Y-119945714D01*
X148554985Y-119953008D01*
X148577218Y-119983285D01*
X148611694Y-120020523D01*
X148617930Y-120026543D01*
X148650791Y-120054223D01*
X148679144Y-120063166D01*
X148718797Y-120056924D01*
X148734682Y-120052777D01*
X148784115Y-120042815D01*
X148818872Y-120047295D01*
X148848224Y-120063094D01*
X148875111Y-120084297D01*
X148894914Y-120110962D01*
X148908676Y-120148175D01*
X148917440Y-120201021D01*
X148922250Y-120274585D01*
X148924150Y-120373953D01*
X148924335Y-120433949D01*
X148924335Y-120691874D01*
X149091440Y-120691874D01*
X149091440Y-119873058D01*
X149007888Y-119873058D01*
X148957743Y-119874834D01*
G36*
X147904993Y-120691874D02*
G01*
X147996901Y-120691874D01*
X148050247Y-120690310D01*
X148078031Y-120683833D01*
X148088034Y-120669766D01*
X148088809Y-120660254D01*
X148090496Y-120641180D01*
X148101134Y-120637522D01*
X148129089Y-120649280D01*
X148150829Y-120660254D01*
X148234292Y-120686259D01*
X148325020Y-120687764D01*
X148398782Y-120668369D01*
X148467470Y-120621513D01*
X148519830Y-120552352D01*
X148548502Y-120470775D01*
X148549232Y-120466214D01*
X148553492Y-120416449D01*
X148555610Y-120345007D01*
X148555440Y-120290974D01*
X148372904Y-120290974D01*
X148368675Y-120362789D01*
X148359056Y-120421982D01*
X148346034Y-120455408D01*
X148296768Y-120501088D01*
X148238274Y-120517463D01*
X148177953Y-120504221D01*
X148126407Y-120464721D01*
X148106886Y-120438155D01*
X148095472Y-120406454D01*
X148090126Y-120360180D01*
X148088809Y-120290676D01*
X148091166Y-120221847D01*
X148097391Y-120161374D01*
X148106216Y-120120904D01*
X148107687Y-120117277D01*
X148143277Y-120074150D01*
X148195224Y-120050472D01*
X148253346Y-120046649D01*
X148307464Y-120063086D01*
X148347398Y-120100188D01*
X148351541Y-120107570D01*
X148364508Y-120152587D01*
X148371572Y-120217315D01*
X148372904Y-120290974D01*
X148555440Y-120290974D01*
X148555353Y-120263578D01*
X148554152Y-120219753D01*
X148545979Y-120111336D01*
X148528994Y-120029936D01*
X148500737Y-119969760D01*
X148458752Y-119925014D01*
X148417992Y-119898748D01*
X148361043Y-119880283D01*
X148290213Y-119873950D01*
X148217683Y-119879108D01*
X148155638Y-119895117D01*
X148122856Y-119914268D01*
X148088809Y-119945080D01*
X148088809Y-119555558D01*
X147904993Y-119555558D01*
X147904993Y-120691874D01*
G37*
X147904993Y-120691874D02*
X147996901Y-120691874D01*
X148050247Y-120690310D01*
X148078031Y-120683833D01*
X148088034Y-120669766D01*
X148088809Y-120660254D01*
X148090496Y-120641180D01*
X148101134Y-120637522D01*
X148129089Y-120649280D01*
X148150829Y-120660254D01*
X148234292Y-120686259D01*
X148325020Y-120687764D01*
X148398782Y-120668369D01*
X148467470Y-120621513D01*
X148519830Y-120552352D01*
X148548502Y-120470775D01*
X148549232Y-120466214D01*
X148553492Y-120416449D01*
X148555610Y-120345007D01*
X148555440Y-120290974D01*
X148372904Y-120290974D01*
X148368675Y-120362789D01*
X148359056Y-120421982D01*
X148346034Y-120455408D01*
X148296768Y-120501088D01*
X148238274Y-120517463D01*
X148177953Y-120504221D01*
X148126407Y-120464721D01*
X148106886Y-120438155D01*
X148095472Y-120406454D01*
X148090126Y-120360180D01*
X148088809Y-120290676D01*
X148091166Y-120221847D01*
X148097391Y-120161374D01*
X148106216Y-120120904D01*
X148107687Y-120117277D01*
X148143277Y-120074150D01*
X148195224Y-120050472D01*
X148253346Y-120046649D01*
X148307464Y-120063086D01*
X148347398Y-120100188D01*
X148351541Y-120107570D01*
X148364508Y-120152587D01*
X148371572Y-120217315D01*
X148372904Y-120290974D01*
X148555440Y-120290974D01*
X148555353Y-120263578D01*
X148554152Y-120219753D01*
X148545979Y-120111336D01*
X148528994Y-120029936D01*
X148500737Y-119969760D01*
X148458752Y-119925014D01*
X148417992Y-119898748D01*
X148361043Y-119880283D01*
X148290213Y-119873950D01*
X148217683Y-119879108D01*
X148155638Y-119895117D01*
X148122856Y-119914268D01*
X148088809Y-119945080D01*
X148088809Y-119555558D01*
X147904993Y-119555558D01*
X147904993Y-120691874D01*
G36*
X147263494Y-119876452D02*
G01*
X147197404Y-119881414D01*
X147110998Y-120140427D01*
X147024593Y-120399440D01*
X146997500Y-120307532D01*
X146981196Y-120250732D01*
X146959749Y-120173973D01*
X146936589Y-120089599D01*
X146924344Y-120044341D01*
X146878280Y-119873058D01*
X146688237Y-119873058D01*
X146745042Y-120052697D01*
X146773017Y-120141052D01*
X146806811Y-120247629D01*
X146842104Y-120358802D01*
X146873611Y-120457927D01*
X146945374Y-120683519D01*
X147100338Y-120693601D01*
X147142354Y-120554876D01*
X147168265Y-120468699D01*
X147196541Y-120373695D01*
X147221255Y-120289789D01*
X147222230Y-120286450D01*
X147240689Y-120229596D01*
X147256975Y-120190804D01*
X147268382Y-120176135D01*
X147270726Y-120177831D01*
X147278953Y-120200573D01*
X147294586Y-120249288D01*
X147315720Y-120317850D01*
X147340454Y-120400133D01*
X147353837Y-120445394D01*
X147426313Y-120691874D01*
X147580129Y-120691874D01*
X147703093Y-120303354D01*
X147737636Y-120194370D01*
X147769103Y-120095396D01*
X147796008Y-120011084D01*
X147816865Y-119946082D01*
X147830186Y-119905040D01*
X147834236Y-119893049D01*
X147831030Y-119880771D01*
X147805859Y-119875394D01*
X147753478Y-119875932D01*
X147745279Y-119876338D01*
X147648142Y-119881414D01*
X147584524Y-120115361D01*
X147561140Y-120200681D01*
X147540243Y-120275683D01*
X147523673Y-120333855D01*
X147513270Y-120368685D01*
X147511348Y-120374364D01*
X147503383Y-120367834D01*
X147487320Y-120334002D01*
X147465003Y-120277475D01*
X147438279Y-120202858D01*
X147415687Y-120135455D01*
X147329583Y-119871491D01*
X147263494Y-119876452D01*
G37*
X147263494Y-119876452D02*
X147197404Y-119881414D01*
X147110998Y-120140427D01*
X147024593Y-120399440D01*
X146997500Y-120307532D01*
X146981196Y-120250732D01*
X146959749Y-120173973D01*
X146936589Y-120089599D01*
X146924344Y-120044341D01*
X146878280Y-119873058D01*
X146688237Y-119873058D01*
X146745042Y-120052697D01*
X146773017Y-120141052D01*
X146806811Y-120247629D01*
X146842104Y-120358802D01*
X146873611Y-120457927D01*
X146945374Y-120683519D01*
X147100338Y-120693601D01*
X147142354Y-120554876D01*
X147168265Y-120468699D01*
X147196541Y-120373695D01*
X147221255Y-120289789D01*
X147222230Y-120286450D01*
X147240689Y-120229596D01*
X147256975Y-120190804D01*
X147268382Y-120176135D01*
X147270726Y-120177831D01*
X147278953Y-120200573D01*
X147294586Y-120249288D01*
X147315720Y-120317850D01*
X147340454Y-120400133D01*
X147353837Y-120445394D01*
X147426313Y-120691874D01*
X147580129Y-120691874D01*
X147703093Y-120303354D01*
X147737636Y-120194370D01*
X147769103Y-120095396D01*
X147796008Y-120011084D01*
X147816865Y-119946082D01*
X147830186Y-119905040D01*
X147834236Y-119893049D01*
X147831030Y-119880771D01*
X147805859Y-119875394D01*
X147753478Y-119875932D01*
X147745279Y-119876338D01*
X147648142Y-119881414D01*
X147584524Y-120115361D01*
X147561140Y-120200681D01*
X147540243Y-120275683D01*
X147523673Y-120333855D01*
X147513270Y-120368685D01*
X147511348Y-120374364D01*
X147503383Y-120367834D01*
X147487320Y-120334002D01*
X147465003Y-120277475D01*
X147438279Y-120202858D01*
X147415687Y-120135455D01*
X147329583Y-119871491D01*
X147263494Y-119876452D01*
G36*
X146257632Y-119878021D02*
G01*
X146187197Y-119895128D01*
X146166837Y-119904192D01*
X146127371Y-119927931D01*
X146097083Y-119954669D01*
X146074672Y-119989047D01*
X146058838Y-120035708D01*
X146048281Y-120099294D01*
X146041700Y-120184447D01*
X146037796Y-120295810D01*
X146036314Y-120370197D01*
X146030859Y-120691874D01*
X146124044Y-120691874D01*
X146180577Y-120689504D01*
X146209702Y-120681403D01*
X146217230Y-120667799D01*
X146221204Y-120653089D01*
X146238972Y-120655902D01*
X146263184Y-120667696D01*
X146323796Y-120685775D01*
X146401695Y-120690647D01*
X146483629Y-120682678D01*
X146556343Y-120662237D01*
X146562865Y-120659399D01*
X146629322Y-120612713D01*
X146673133Y-120547812D01*
X146693292Y-120471948D01*
X146691752Y-120444692D01*
X146527279Y-120444692D01*
X146512787Y-120481372D01*
X146469819Y-120507657D01*
X146400495Y-120521765D01*
X146363447Y-120523638D01*
X146301705Y-120518842D01*
X146260664Y-120500206D01*
X146250651Y-120491348D01*
X146223524Y-120443154D01*
X146217230Y-120399440D01*
X146217230Y-120340953D01*
X146298694Y-120340953D01*
X146393390Y-120345780D01*
X146459811Y-120360961D01*
X146501778Y-120387548D01*
X146511175Y-120399400D01*
X146527279Y-120444692D01*
X146691752Y-120444692D01*
X146688795Y-120392374D01*
X146658639Y-120316343D01*
X146617493Y-120264960D01*
X146592572Y-120242745D01*
X146568176Y-120228146D01*
X146536433Y-120219245D01*
X146489472Y-120214123D01*
X146419420Y-120210863D01*
X146391634Y-120209925D01*
X146217230Y-120204227D01*
X146217486Y-120151439D01*
X146224240Y-120095951D01*
X146248660Y-120062400D01*
X146297994Y-120040966D01*
X146299318Y-120040584D01*
X146369264Y-120032156D01*
X146437710Y-120043164D01*
X146488577Y-120069933D01*
X146508987Y-120083151D01*
X146530970Y-120081322D01*
X146564798Y-120062172D01*
X146584663Y-120048656D01*
X146623518Y-120019780D01*
X146647586Y-119998134D01*
X146651448Y-119991937D01*
X146635545Y-119959867D01*
X146588559Y-119921567D01*
X146568151Y-119908645D01*
X146509481Y-119886389D01*
X146430412Y-119873780D01*
X146342583Y-119870948D01*
X146257632Y-119878021D01*
G37*
X146257632Y-119878021D02*
X146187197Y-119895128D01*
X146166837Y-119904192D01*
X146127371Y-119927931D01*
X146097083Y-119954669D01*
X146074672Y-119989047D01*
X146058838Y-120035708D01*
X146048281Y-120099294D01*
X146041700Y-120184447D01*
X146037796Y-120295810D01*
X146036314Y-120370197D01*
X146030859Y-120691874D01*
X146124044Y-120691874D01*
X146180577Y-120689504D01*
X146209702Y-120681403D01*
X146217230Y-120667799D01*
X146221204Y-120653089D01*
X146238972Y-120655902D01*
X146263184Y-120667696D01*
X146323796Y-120685775D01*
X146401695Y-120690647D01*
X146483629Y-120682678D01*
X146556343Y-120662237D01*
X146562865Y-120659399D01*
X146629322Y-120612713D01*
X146673133Y-120547812D01*
X146693292Y-120471948D01*
X146691752Y-120444692D01*
X146527279Y-120444692D01*
X146512787Y-120481372D01*
X146469819Y-120507657D01*
X146400495Y-120521765D01*
X146363447Y-120523638D01*
X146301705Y-120518842D01*
X146260664Y-120500206D01*
X146250651Y-120491348D01*
X146223524Y-120443154D01*
X146217230Y-120399440D01*
X146217230Y-120340953D01*
X146298694Y-120340953D01*
X146393390Y-120345780D01*
X146459811Y-120360961D01*
X146501778Y-120387548D01*
X146511175Y-120399400D01*
X146527279Y-120444692D01*
X146691752Y-120444692D01*
X146688795Y-120392374D01*
X146658639Y-120316343D01*
X146617493Y-120264960D01*
X146592572Y-120242745D01*
X146568176Y-120228146D01*
X146536433Y-120219245D01*
X146489472Y-120214123D01*
X146419420Y-120210863D01*
X146391634Y-120209925D01*
X146217230Y-120204227D01*
X146217486Y-120151439D01*
X146224240Y-120095951D01*
X146248660Y-120062400D01*
X146297994Y-120040966D01*
X146299318Y-120040584D01*
X146369264Y-120032156D01*
X146437710Y-120043164D01*
X146488577Y-120069933D01*
X146508987Y-120083151D01*
X146530970Y-120081322D01*
X146564798Y-120062172D01*
X146584663Y-120048656D01*
X146623518Y-120019780D01*
X146647586Y-119998134D01*
X146651448Y-119991937D01*
X146635545Y-119959867D01*
X146588559Y-119921567D01*
X146568151Y-119908645D01*
X146509481Y-119886389D01*
X146430412Y-119873780D01*
X146342583Y-119870948D01*
X146257632Y-119878021D01*
G36*
X145464457Y-119872795D02*
G01*
X145400216Y-119885460D01*
X145363644Y-119904212D01*
X145325171Y-119935365D01*
X145379907Y-120004475D01*
X145413655Y-120046327D01*
X145436571Y-120066746D01*
X145459345Y-120069865D01*
X145492668Y-120059820D01*
X145508310Y-120054137D01*
X145572082Y-120045752D01*
X145630484Y-120063726D01*
X145673360Y-120104330D01*
X145680325Y-120117277D01*
X145687911Y-120151572D01*
X145693765Y-120214775D01*
X145697613Y-120302408D01*
X145699181Y-120409988D01*
X145699203Y-120425292D01*
X145699203Y-120691874D01*
X145883019Y-120691874D01*
X145883019Y-119873058D01*
X145791111Y-119873058D01*
X145738117Y-119874442D01*
X145710509Y-119880600D01*
X145700300Y-119894542D01*
X145699203Y-119907692D01*
X145699203Y-119942326D01*
X145655174Y-119907692D01*
X145604687Y-119884064D01*
X145536864Y-119872381D01*
X145464457Y-119872795D01*
G37*
X145464457Y-119872795D02*
X145400216Y-119885460D01*
X145363644Y-119904212D01*
X145325171Y-119935365D01*
X145379907Y-120004475D01*
X145413655Y-120046327D01*
X145436571Y-120066746D01*
X145459345Y-120069865D01*
X145492668Y-120059820D01*
X145508310Y-120054137D01*
X145572082Y-120045752D01*
X145630484Y-120063726D01*
X145673360Y-120104330D01*
X145680325Y-120117277D01*
X145687911Y-120151572D01*
X145693765Y-120214775D01*
X145697613Y-120302408D01*
X145699181Y-120409988D01*
X145699203Y-120425292D01*
X145699203Y-120691874D01*
X145883019Y-120691874D01*
X145883019Y-119873058D01*
X145791111Y-119873058D01*
X145738117Y-119874442D01*
X145710509Y-119880600D01*
X145700300Y-119894542D01*
X145699203Y-119907692D01*
X145699203Y-119942326D01*
X145655174Y-119907692D01*
X145604687Y-119884064D01*
X145536864Y-119872381D01*
X145464457Y-119872795D01*
G36*
X144936431Y-119877426D02*
G01*
X144856556Y-119898193D01*
X144789662Y-119941053D01*
X144757273Y-119973071D01*
X144704179Y-120048761D01*
X144673751Y-120136564D01*
X144663297Y-120244498D01*
X144663244Y-120253223D01*
X144663151Y-120340953D01*
X145168090Y-120340953D01*
X145157326Y-120386907D01*
X145137892Y-120428526D01*
X145103879Y-120471892D01*
X145096764Y-120478815D01*
X145035621Y-120516283D01*
X144965895Y-120522637D01*
X144885637Y-120497986D01*
X144872032Y-120491348D01*
X144830305Y-120471167D01*
X144802356Y-120459669D01*
X144797479Y-120458606D01*
X144780456Y-120468931D01*
X144747991Y-120494193D01*
X144731510Y-120507998D01*
X144697360Y-120539709D01*
X144686146Y-120560647D01*
X144693929Y-120579908D01*
X144698089Y-120585175D01*
X144726267Y-120608226D01*
X144772762Y-120636240D01*
X144805190Y-120652594D01*
X144897239Y-120681407D01*
X144999148Y-120690743D01*
X145095661Y-120679680D01*
X145122690Y-120671760D01*
X145206348Y-120626929D01*
X145268358Y-120557946D01*
X145309079Y-120464142D01*
X145328869Y-120344846D01*
X145331042Y-120282466D01*
X145324698Y-120191646D01*
X145164467Y-120191646D01*
X145148969Y-120198360D01*
X145107312Y-120203628D01*
X145046748Y-120206737D01*
X145005717Y-120207269D01*
X144931913Y-120206756D01*
X144885331Y-120204354D01*
X144859776Y-120198770D01*
X144849055Y-120188709D01*
X144846967Y-120174111D01*
X144861293Y-120129144D01*
X144897362Y-120084701D01*
X144944809Y-120050590D01*
X144992275Y-120036636D01*
X145056745Y-120049014D01*
X145112554Y-120084800D01*
X145151250Y-120136381D01*
X145164467Y-120191646D01*
X145324698Y-120191646D01*
X145321803Y-120150214D01*
X145293288Y-120044846D01*
X145244895Y-119965526D01*
X145176020Y-119911419D01*
X145086059Y-119881691D01*
X145037324Y-119875966D01*
X144936431Y-119877426D01*
G37*
X144936431Y-119877426D02*
X144856556Y-119898193D01*
X144789662Y-119941053D01*
X144757273Y-119973071D01*
X144704179Y-120048761D01*
X144673751Y-120136564D01*
X144663297Y-120244498D01*
X144663244Y-120253223D01*
X144663151Y-120340953D01*
X145168090Y-120340953D01*
X145157326Y-120386907D01*
X145137892Y-120428526D01*
X145103879Y-120471892D01*
X145096764Y-120478815D01*
X145035621Y-120516283D01*
X144965895Y-120522637D01*
X144885637Y-120497986D01*
X144872032Y-120491348D01*
X144830305Y-120471167D01*
X144802356Y-120459669D01*
X144797479Y-120458606D01*
X144780456Y-120468931D01*
X144747991Y-120494193D01*
X144731510Y-120507998D01*
X144697360Y-120539709D01*
X144686146Y-120560647D01*
X144693929Y-120579908D01*
X144698089Y-120585175D01*
X144726267Y-120608226D01*
X144772762Y-120636240D01*
X144805190Y-120652594D01*
X144897239Y-120681407D01*
X144999148Y-120690743D01*
X145095661Y-120679680D01*
X145122690Y-120671760D01*
X145206348Y-120626929D01*
X145268358Y-120557946D01*
X145309079Y-120464142D01*
X145328869Y-120344846D01*
X145331042Y-120282466D01*
X145324698Y-120191646D01*
X145164467Y-120191646D01*
X145148969Y-120198360D01*
X145107312Y-120203628D01*
X145046748Y-120206737D01*
X145005717Y-120207269D01*
X144931913Y-120206756D01*
X144885331Y-120204354D01*
X144859776Y-120198770D01*
X144849055Y-120188709D01*
X144846967Y-120174111D01*
X144861293Y-120129144D01*
X144897362Y-120084701D01*
X144944809Y-120050590D01*
X144992275Y-120036636D01*
X145056745Y-120049014D01*
X145112554Y-120084800D01*
X145151250Y-120136381D01*
X145164467Y-120191646D01*
X145324698Y-120191646D01*
X145321803Y-120150214D01*
X145293288Y-120044846D01*
X145244895Y-119965526D01*
X145176020Y-119911419D01*
X145086059Y-119881691D01*
X145037324Y-119875966D01*
X144936431Y-119877426D01*
G36*
X151010840Y-118628452D02*
G01*
X150923419Y-118667102D01*
X150857054Y-118731638D01*
X150811648Y-118822160D01*
X150787106Y-118938766D01*
X150785347Y-118956972D01*
X150783968Y-119085332D01*
X150801840Y-119197844D01*
X150837874Y-119289036D01*
X150857169Y-119318370D01*
X150924379Y-119380454D01*
X151009974Y-119420664D01*
X151105734Y-119437351D01*
X151203437Y-119428865D01*
X151277707Y-119402728D01*
X151341577Y-119358683D01*
X151393778Y-119300935D01*
X151394681Y-119299584D01*
X151415880Y-119263941D01*
X151429657Y-119228100D01*
X151438000Y-119182867D01*
X151442897Y-119119049D01*
X151445055Y-119066716D01*
X151445953Y-119019258D01*
X151278881Y-119019258D01*
X151277248Y-119066502D01*
X151271320Y-119129394D01*
X151260863Y-119169755D01*
X151242005Y-119198470D01*
X151224343Y-119215244D01*
X151161730Y-119250364D01*
X151096216Y-119255058D01*
X151035203Y-119229788D01*
X151004696Y-119201472D01*
X150982713Y-119172937D01*
X150969855Y-119145632D01*
X150964212Y-119110098D01*
X150963873Y-119056872D01*
X150965612Y-119007854D01*
X150969353Y-118937830D01*
X150975283Y-118892412D01*
X150985971Y-118862788D01*
X151003985Y-118840145D01*
X151018261Y-118827203D01*
X151077973Y-118793208D01*
X151142390Y-118791513D01*
X151196405Y-118811649D01*
X151242484Y-118853700D01*
X151269935Y-118922776D01*
X151278881Y-119019258D01*
X151445953Y-119019258D01*
X151447025Y-118962647D01*
X151443660Y-118884816D01*
X151433579Y-118826278D01*
X151415398Y-118780085D01*
X151387734Y-118739290D01*
X151377478Y-118727176D01*
X151313346Y-118666822D01*
X151244558Y-118631568D01*
X151160435Y-118616798D01*
X151119415Y-118615591D01*
X151010840Y-118628452D01*
G37*
X151010840Y-118628452D02*
X150923419Y-118667102D01*
X150857054Y-118731638D01*
X150811648Y-118822160D01*
X150787106Y-118938766D01*
X150785347Y-118956972D01*
X150783968Y-119085332D01*
X150801840Y-119197844D01*
X150837874Y-119289036D01*
X150857169Y-119318370D01*
X150924379Y-119380454D01*
X151009974Y-119420664D01*
X151105734Y-119437351D01*
X151203437Y-119428865D01*
X151277707Y-119402728D01*
X151341577Y-119358683D01*
X151393778Y-119300935D01*
X151394681Y-119299584D01*
X151415880Y-119263941D01*
X151429657Y-119228100D01*
X151438000Y-119182867D01*
X151442897Y-119119049D01*
X151445055Y-119066716D01*
X151445953Y-119019258D01*
X151278881Y-119019258D01*
X151277248Y-119066502D01*
X151271320Y-119129394D01*
X151260863Y-119169755D01*
X151242005Y-119198470D01*
X151224343Y-119215244D01*
X151161730Y-119250364D01*
X151096216Y-119255058D01*
X151035203Y-119229788D01*
X151004696Y-119201472D01*
X150982713Y-119172937D01*
X150969855Y-119145632D01*
X150964212Y-119110098D01*
X150963873Y-119056872D01*
X150965612Y-119007854D01*
X150969353Y-118937830D01*
X150975283Y-118892412D01*
X150985971Y-118862788D01*
X151003985Y-118840145D01*
X151018261Y-118827203D01*
X151077973Y-118793208D01*
X151142390Y-118791513D01*
X151196405Y-118811649D01*
X151242484Y-118853700D01*
X151269935Y-118922776D01*
X151278881Y-119019258D01*
X151445953Y-119019258D01*
X151447025Y-118962647D01*
X151443660Y-118884816D01*
X151433579Y-118826278D01*
X151415398Y-118780085D01*
X151387734Y-118739290D01*
X151377478Y-118727176D01*
X151313346Y-118666822D01*
X151244558Y-118631568D01*
X151160435Y-118616798D01*
X151119415Y-118615591D01*
X151010840Y-118628452D01*
G36*
X149440606Y-118638375D02*
G01*
X149423954Y-118646214D01*
X149366319Y-118688434D01*
X149311819Y-118750048D01*
X149271125Y-118817891D01*
X149259550Y-118849082D01*
X149248990Y-118904797D01*
X149242693Y-118972129D01*
X149241928Y-118999933D01*
X149241835Y-119087664D01*
X149746774Y-119087664D01*
X149736011Y-119133618D01*
X149709591Y-119187968D01*
X149663402Y-119234939D01*
X149608452Y-119265196D01*
X149573435Y-119271479D01*
X149525947Y-119263854D01*
X149469289Y-119244731D01*
X149450042Y-119235932D01*
X149378865Y-119200384D01*
X149318122Y-119246715D01*
X149283072Y-119278051D01*
X149264422Y-119303915D01*
X149263477Y-119311506D01*
X149280139Y-119329904D01*
X149316654Y-119357863D01*
X149349796Y-119379675D01*
X149439231Y-119418885D01*
X149539495Y-119436633D01*
X149638870Y-119432018D01*
X149718085Y-119407899D01*
X149799744Y-119356232D01*
X149857775Y-119288204D01*
X149894078Y-119200191D01*
X149910552Y-119088564D01*
X149912013Y-119037486D01*
X149906167Y-118920439D01*
X149905449Y-118917034D01*
X149738135Y-118917034D01*
X149733527Y-118928010D01*
X149714588Y-118934063D01*
X149675526Y-118936658D01*
X149610547Y-118937258D01*
X149585527Y-118937269D01*
X149509403Y-118936362D01*
X149461128Y-118933068D01*
X149435164Y-118926529D01*
X149425976Y-118915885D01*
X149425651Y-118912467D01*
X149436137Y-118885304D01*
X149462382Y-118847251D01*
X149473665Y-118833927D01*
X149515552Y-118796244D01*
X149559215Y-118781428D01*
X149582739Y-118780190D01*
X149646381Y-118795677D01*
X149699751Y-118837278D01*
X149733605Y-118897701D01*
X149734205Y-118899670D01*
X149738135Y-118917034D01*
X149905449Y-118917034D01*
X149886725Y-118828276D01*
X149851702Y-118754538D01*
X149808868Y-118702196D01*
X149729676Y-118645440D01*
X149636584Y-118615110D01*
X149537569Y-118612369D01*
X149440606Y-118638375D01*
G37*
X149440606Y-118638375D02*
X149423954Y-118646214D01*
X149366319Y-118688434D01*
X149311819Y-118750048D01*
X149271125Y-118817891D01*
X149259550Y-118849082D01*
X149248990Y-118904797D01*
X149242693Y-118972129D01*
X149241928Y-118999933D01*
X149241835Y-119087664D01*
X149746774Y-119087664D01*
X149736011Y-119133618D01*
X149709591Y-119187968D01*
X149663402Y-119234939D01*
X149608452Y-119265196D01*
X149573435Y-119271479D01*
X149525947Y-119263854D01*
X149469289Y-119244731D01*
X149450042Y-119235932D01*
X149378865Y-119200384D01*
X149318122Y-119246715D01*
X149283072Y-119278051D01*
X149264422Y-119303915D01*
X149263477Y-119311506D01*
X149280139Y-119329904D01*
X149316654Y-119357863D01*
X149349796Y-119379675D01*
X149439231Y-119418885D01*
X149539495Y-119436633D01*
X149638870Y-119432018D01*
X149718085Y-119407899D01*
X149799744Y-119356232D01*
X149857775Y-119288204D01*
X149894078Y-119200191D01*
X149910552Y-119088564D01*
X149912013Y-119037486D01*
X149906167Y-118920439D01*
X149905449Y-118917034D01*
X149738135Y-118917034D01*
X149733527Y-118928010D01*
X149714588Y-118934063D01*
X149675526Y-118936658D01*
X149610547Y-118937258D01*
X149585527Y-118937269D01*
X149509403Y-118936362D01*
X149461128Y-118933068D01*
X149435164Y-118926529D01*
X149425976Y-118915885D01*
X149425651Y-118912467D01*
X149436137Y-118885304D01*
X149462382Y-118847251D01*
X149473665Y-118833927D01*
X149515552Y-118796244D01*
X149559215Y-118781428D01*
X149582739Y-118780190D01*
X149646381Y-118795677D01*
X149699751Y-118837278D01*
X149733605Y-118897701D01*
X149734205Y-118899670D01*
X149738135Y-118917034D01*
X149905449Y-118917034D01*
X149886725Y-118828276D01*
X149851702Y-118754538D01*
X149808868Y-118702196D01*
X149729676Y-118645440D01*
X149636584Y-118615110D01*
X149537569Y-118612369D01*
X149440606Y-118638375D01*
G36*
X147618996Y-118616895D02*
G01*
X147555716Y-118628896D01*
X147490067Y-118653996D01*
X147483052Y-118657196D01*
X147433268Y-118683374D01*
X147398790Y-118707701D01*
X147387646Y-118723285D01*
X147398258Y-118748701D01*
X147424036Y-118786201D01*
X147435478Y-118800200D01*
X147482632Y-118855302D01*
X147543423Y-118819434D01*
X147601277Y-118795540D01*
X147668124Y-118782768D01*
X147732230Y-118781961D01*
X147781860Y-118793963D01*
X147793770Y-118801453D01*
X147816452Y-118835798D01*
X147819208Y-118875361D01*
X147802236Y-118906268D01*
X147792197Y-118912261D01*
X147762114Y-118919705D01*
X147709235Y-118928454D01*
X147644049Y-118936815D01*
X147632024Y-118938126D01*
X147527327Y-118956236D01*
X147451392Y-118986999D01*
X147401032Y-119033255D01*
X147373060Y-119097845D01*
X147364346Y-119176735D01*
X147376384Y-119266413D01*
X147415473Y-119336834D01*
X147481769Y-119388125D01*
X147575430Y-119420415D01*
X147679401Y-119433155D01*
X147764186Y-119433002D01*
X147832959Y-119421431D01*
X147879927Y-119405457D01*
X147939274Y-119377623D01*
X147994118Y-119345321D01*
X148013611Y-119331103D01*
X148063743Y-119290183D01*
X147942821Y-119167825D01*
X147874081Y-119213315D01*
X147805136Y-119247481D01*
X147731513Y-119265352D01*
X147660741Y-119267237D01*
X147600350Y-119253449D01*
X147557867Y-119224297D01*
X147544150Y-119199700D01*
X147546207Y-119160252D01*
X147580294Y-119130085D01*
X147646316Y-119109254D01*
X147718650Y-119099627D01*
X147829972Y-119081258D01*
X147912672Y-119046602D01*
X147967859Y-118994645D01*
X147996636Y-118924371D01*
X148000623Y-118841055D01*
X147980931Y-118754029D01*
X147936035Y-118688250D01*
X147865533Y-118643416D01*
X147769023Y-118619227D01*
X147697524Y-118614485D01*
X147618996Y-118616895D01*
G37*
X147618996Y-118616895D02*
X147555716Y-118628896D01*
X147490067Y-118653996D01*
X147483052Y-118657196D01*
X147433268Y-118683374D01*
X147398790Y-118707701D01*
X147387646Y-118723285D01*
X147398258Y-118748701D01*
X147424036Y-118786201D01*
X147435478Y-118800200D01*
X147482632Y-118855302D01*
X147543423Y-118819434D01*
X147601277Y-118795540D01*
X147668124Y-118782768D01*
X147732230Y-118781961D01*
X147781860Y-118793963D01*
X147793770Y-118801453D01*
X147816452Y-118835798D01*
X147819208Y-118875361D01*
X147802236Y-118906268D01*
X147792197Y-118912261D01*
X147762114Y-118919705D01*
X147709235Y-118928454D01*
X147644049Y-118936815D01*
X147632024Y-118938126D01*
X147527327Y-118956236D01*
X147451392Y-118986999D01*
X147401032Y-119033255D01*
X147373060Y-119097845D01*
X147364346Y-119176735D01*
X147376384Y-119266413D01*
X147415473Y-119336834D01*
X147481769Y-119388125D01*
X147575430Y-119420415D01*
X147679401Y-119433155D01*
X147764186Y-119433002D01*
X147832959Y-119421431D01*
X147879927Y-119405457D01*
X147939274Y-119377623D01*
X147994118Y-119345321D01*
X148013611Y-119331103D01*
X148063743Y-119290183D01*
X147942821Y-119167825D01*
X147874081Y-119213315D01*
X147805136Y-119247481D01*
X147731513Y-119265352D01*
X147660741Y-119267237D01*
X147600350Y-119253449D01*
X147557867Y-119224297D01*
X147544150Y-119199700D01*
X147546207Y-119160252D01*
X147580294Y-119130085D01*
X147646316Y-119109254D01*
X147718650Y-119099627D01*
X147829972Y-119081258D01*
X147912672Y-119046602D01*
X147967859Y-118994645D01*
X147996636Y-118924371D01*
X148000623Y-118841055D01*
X147980931Y-118754029D01*
X147936035Y-118688250D01*
X147865533Y-118643416D01*
X147769023Y-118619227D01*
X147697524Y-118614485D01*
X147618996Y-118616895D01*
G36*
X146825955Y-118629658D02*
G01*
X146741432Y-118675688D01*
X146675303Y-118748354D01*
X146644146Y-118807454D01*
X146630769Y-118859653D01*
X146622102Y-118934067D01*
X146618387Y-119019790D01*
X146619870Y-119105917D01*
X146626793Y-119181541D01*
X146634879Y-119221932D01*
X146662159Y-119277188D01*
X146709404Y-119335878D01*
X146766342Y-119387200D01*
X146822700Y-119420353D01*
X146824074Y-119420879D01*
X146894008Y-119435366D01*
X146976887Y-119435725D01*
X147055647Y-119422536D01*
X147086058Y-119411965D01*
X147164385Y-119367549D01*
X147220481Y-119309355D01*
X147257338Y-119232313D01*
X147277944Y-119131349D01*
X147282606Y-119078464D01*
X147282011Y-119012011D01*
X147102888Y-119012011D01*
X147096854Y-119108978D01*
X147079486Y-119182871D01*
X147051884Y-119230084D01*
X147032220Y-119243585D01*
X146981837Y-119252999D01*
X146921951Y-119250212D01*
X146870175Y-119236664D01*
X146856597Y-119229210D01*
X146820775Y-119185799D01*
X146797131Y-119119362D01*
X146787066Y-119038509D01*
X146791982Y-118951850D01*
X146802969Y-118899697D01*
X146834515Y-118839299D01*
X146884313Y-118801545D01*
X146944287Y-118788491D01*
X147006360Y-118802197D01*
X147054042Y-118835720D01*
X147079099Y-118863379D01*
X147093724Y-118890642D01*
X147100695Y-118927538D01*
X147102791Y-118984098D01*
X147102888Y-119012011D01*
X147282011Y-119012011D01*
X147281342Y-118937342D01*
X147258359Y-118821619D01*
X147213652Y-118731289D01*
X147147219Y-118666348D01*
X147059059Y-118626793D01*
X147040129Y-118622206D01*
X146926358Y-118611438D01*
X146825955Y-118629658D01*
G37*
X146825955Y-118629658D02*
X146741432Y-118675688D01*
X146675303Y-118748354D01*
X146644146Y-118807454D01*
X146630769Y-118859653D01*
X146622102Y-118934067D01*
X146618387Y-119019790D01*
X146619870Y-119105917D01*
X146626793Y-119181541D01*
X146634879Y-119221932D01*
X146662159Y-119277188D01*
X146709404Y-119335878D01*
X146766342Y-119387200D01*
X146822700Y-119420353D01*
X146824074Y-119420879D01*
X146894008Y-119435366D01*
X146976887Y-119435725D01*
X147055647Y-119422536D01*
X147086058Y-119411965D01*
X147164385Y-119367549D01*
X147220481Y-119309355D01*
X147257338Y-119232313D01*
X147277944Y-119131349D01*
X147282606Y-119078464D01*
X147282011Y-119012011D01*
X147102888Y-119012011D01*
X147096854Y-119108978D01*
X147079486Y-119182871D01*
X147051884Y-119230084D01*
X147032220Y-119243585D01*
X146981837Y-119252999D01*
X146921951Y-119250212D01*
X146870175Y-119236664D01*
X146856597Y-119229210D01*
X146820775Y-119185799D01*
X146797131Y-119119362D01*
X146787066Y-119038509D01*
X146791982Y-118951850D01*
X146802969Y-118899697D01*
X146834515Y-118839299D01*
X146884313Y-118801545D01*
X146944287Y-118788491D01*
X147006360Y-118802197D01*
X147054042Y-118835720D01*
X147079099Y-118863379D01*
X147093724Y-118890642D01*
X147100695Y-118927538D01*
X147102791Y-118984098D01*
X147102888Y-119012011D01*
X147282011Y-119012011D01*
X147281342Y-118937342D01*
X147258359Y-118821619D01*
X147213652Y-118731289D01*
X147147219Y-118666348D01*
X147059059Y-118626793D01*
X147040129Y-118622206D01*
X146926358Y-118611438D01*
X146825955Y-118629658D01*
G36*
X146317493Y-118879881D02*
G01*
X146315914Y-119002437D01*
X146310143Y-119095527D01*
X146298633Y-119162999D01*
X146279834Y-119208703D01*
X146252198Y-119236487D01*
X146214176Y-119250202D01*
X146167098Y-119253706D01*
X146117792Y-119249780D01*
X146080341Y-119235437D01*
X146053196Y-119206826D01*
X146034809Y-119160099D01*
X146023631Y-119091406D01*
X146018113Y-118996898D01*
X146016703Y-118879881D01*
X146016703Y-118619769D01*
X145832888Y-118619769D01*
X145832888Y-119421874D01*
X145924796Y-119421874D01*
X145980202Y-119419629D01*
X146008733Y-119411744D01*
X146016703Y-119396776D01*
X146021504Y-119383445D01*
X146040610Y-119386265D01*
X146079120Y-119405131D01*
X146167385Y-119434235D01*
X146261001Y-119432173D01*
X146350703Y-119400569D01*
X146393420Y-119375605D01*
X146426003Y-119348574D01*
X146449807Y-119314753D01*
X146466185Y-119269416D01*
X146476493Y-119207837D01*
X146482083Y-119125291D01*
X146484312Y-119017053D01*
X146484598Y-118933352D01*
X146484598Y-118619769D01*
X146317493Y-118619769D01*
X146317493Y-118879881D01*
G37*
X146317493Y-118879881D02*
X146315914Y-119002437D01*
X146310143Y-119095527D01*
X146298633Y-119162999D01*
X146279834Y-119208703D01*
X146252198Y-119236487D01*
X146214176Y-119250202D01*
X146167098Y-119253706D01*
X146117792Y-119249780D01*
X146080341Y-119235437D01*
X146053196Y-119206826D01*
X146034809Y-119160099D01*
X146023631Y-119091406D01*
X146018113Y-118996898D01*
X146016703Y-118879881D01*
X146016703Y-118619769D01*
X145832888Y-118619769D01*
X145832888Y-119421874D01*
X145924796Y-119421874D01*
X145980202Y-119419629D01*
X146008733Y-119411744D01*
X146016703Y-119396776D01*
X146021504Y-119383445D01*
X146040610Y-119386265D01*
X146079120Y-119405131D01*
X146167385Y-119434235D01*
X146261001Y-119432173D01*
X146350703Y-119400569D01*
X146393420Y-119375605D01*
X146426003Y-119348574D01*
X146449807Y-119314753D01*
X146466185Y-119269416D01*
X146476493Y-119207837D01*
X146482083Y-119125291D01*
X146484312Y-119017053D01*
X146484598Y-118933352D01*
X146484598Y-118619769D01*
X146317493Y-118619769D01*
X146317493Y-118879881D01*
G36*
X144691048Y-118626767D02*
G01*
X144594229Y-118667897D01*
X144563734Y-118687919D01*
X144524759Y-118718688D01*
X144500293Y-118742881D01*
X144496046Y-118750761D01*
X144508040Y-118768247D01*
X144538737Y-118797918D01*
X144563312Y-118818627D01*
X144630578Y-118872684D01*
X144683694Y-118827990D01*
X144724740Y-118799137D01*
X144764761Y-118789177D01*
X144810565Y-118791609D01*
X144883300Y-118809693D01*
X144933368Y-118847229D01*
X144963795Y-118907910D01*
X144977607Y-118995429D01*
X144977611Y-118995484D01*
X144976416Y-119093306D01*
X144957852Y-119165078D01*
X144920820Y-119213943D01*
X144895574Y-119230491D01*
X144828527Y-119251097D01*
X144756915Y-119251110D01*
X144694609Y-119231116D01*
X144679861Y-119221348D01*
X144642874Y-119196395D01*
X144613956Y-119192306D01*
X144582768Y-119210878D01*
X144548288Y-119244235D01*
X144493712Y-119300544D01*
X144554306Y-119350490D01*
X144647926Y-119406861D01*
X144753499Y-119434641D01*
X144863826Y-119432630D01*
X144936281Y-119414210D01*
X145020968Y-119368658D01*
X145088697Y-119296998D01*
X145119467Y-119246414D01*
X145144388Y-119173836D01*
X145156858Y-119081917D01*
X145156954Y-118982296D01*
X145144754Y-118886615D01*
X145120334Y-118806517D01*
X145116488Y-118798304D01*
X145059531Y-118717761D01*
X144982415Y-118659119D01*
X144891234Y-118623595D01*
X144792081Y-118612405D01*
X144691048Y-118626767D01*
G37*
X144691048Y-118626767D02*
X144594229Y-118667897D01*
X144563734Y-118687919D01*
X144524759Y-118718688D01*
X144500293Y-118742881D01*
X144496046Y-118750761D01*
X144508040Y-118768247D01*
X144538737Y-118797918D01*
X144563312Y-118818627D01*
X144630578Y-118872684D01*
X144683694Y-118827990D01*
X144724740Y-118799137D01*
X144764761Y-118789177D01*
X144810565Y-118791609D01*
X144883300Y-118809693D01*
X144933368Y-118847229D01*
X144963795Y-118907910D01*
X144977607Y-118995429D01*
X144977611Y-118995484D01*
X144976416Y-119093306D01*
X144957852Y-119165078D01*
X144920820Y-119213943D01*
X144895574Y-119230491D01*
X144828527Y-119251097D01*
X144756915Y-119251110D01*
X144694609Y-119231116D01*
X144679861Y-119221348D01*
X144642874Y-119196395D01*
X144613956Y-119192306D01*
X144582768Y-119210878D01*
X144548288Y-119244235D01*
X144493712Y-119300544D01*
X144554306Y-119350490D01*
X144647926Y-119406861D01*
X144753499Y-119434641D01*
X144863826Y-119432630D01*
X144936281Y-119414210D01*
X145020968Y-119368658D01*
X145088697Y-119296998D01*
X145119467Y-119246414D01*
X145144388Y-119173836D01*
X145156858Y-119081917D01*
X145156954Y-118982296D01*
X145144754Y-118886615D01*
X145120334Y-118806517D01*
X145116488Y-118798304D01*
X145059531Y-118717761D01*
X144982415Y-118659119D01*
X144891234Y-118623595D01*
X144792081Y-118612405D01*
X144691048Y-118626767D01*
G36*
X144078840Y-118616902D02*
G01*
X144036050Y-118627297D01*
X143954015Y-118665361D01*
X143883867Y-118723497D01*
X143835319Y-118793200D01*
X143828649Y-118808850D01*
X143819500Y-118849844D01*
X143813095Y-118910486D01*
X143810914Y-118971778D01*
X143810914Y-119087664D01*
X144053217Y-119087664D01*
X144153153Y-119088041D01*
X144223555Y-119090335D01*
X144268311Y-119096286D01*
X144291309Y-119107633D01*
X144296435Y-119126119D01*
X144287576Y-119153484D01*
X144271707Y-119185503D01*
X144227440Y-119238940D01*
X144165925Y-119265563D01*
X144090739Y-119264695D01*
X144005571Y-119235719D01*
X143931965Y-119199959D01*
X143870890Y-119248252D01*
X143809814Y-119296545D01*
X143867273Y-119349633D01*
X143943983Y-119399793D01*
X144038322Y-119430036D01*
X144139797Y-119438499D01*
X144237913Y-119423322D01*
X144253743Y-119418172D01*
X144339977Y-119373139D01*
X144404123Y-119306000D01*
X144447533Y-119214753D01*
X144471560Y-119097392D01*
X144471840Y-119094877D01*
X144473991Y-118966975D01*
X144465295Y-118921345D01*
X144295519Y-118921345D01*
X144279927Y-118928361D01*
X144237595Y-118933736D01*
X144175190Y-118936805D01*
X144135643Y-118937269D01*
X144061896Y-118936978D01*
X144015784Y-118935131D01*
X143991524Y-118930260D01*
X143983330Y-118920903D01*
X143985418Y-118905593D01*
X143987169Y-118899670D01*
X144017064Y-118844016D01*
X144064082Y-118799163D01*
X144105575Y-118779453D01*
X144160698Y-118780643D01*
X144216556Y-118805223D01*
X144263412Y-118845918D01*
X144291530Y-118895456D01*
X144295519Y-118921345D01*
X144465295Y-118921345D01*
X144452550Y-118854481D01*
X144410013Y-118760075D01*
X144348877Y-118686436D01*
X144271639Y-118636241D01*
X144180794Y-118612170D01*
X144078840Y-118616902D01*
G37*
X144078840Y-118616902D02*
X144036050Y-118627297D01*
X143954015Y-118665361D01*
X143883867Y-118723497D01*
X143835319Y-118793200D01*
X143828649Y-118808850D01*
X143819500Y-118849844D01*
X143813095Y-118910486D01*
X143810914Y-118971778D01*
X143810914Y-119087664D01*
X144053217Y-119087664D01*
X144153153Y-119088041D01*
X144223555Y-119090335D01*
X144268311Y-119096286D01*
X144291309Y-119107633D01*
X144296435Y-119126119D01*
X144287576Y-119153484D01*
X144271707Y-119185503D01*
X144227440Y-119238940D01*
X144165925Y-119265563D01*
X144090739Y-119264695D01*
X144005571Y-119235719D01*
X143931965Y-119199959D01*
X143870890Y-119248252D01*
X143809814Y-119296545D01*
X143867273Y-119349633D01*
X143943983Y-119399793D01*
X144038322Y-119430036D01*
X144139797Y-119438499D01*
X144237913Y-119423322D01*
X144253743Y-119418172D01*
X144339977Y-119373139D01*
X144404123Y-119306000D01*
X144447533Y-119214753D01*
X144471560Y-119097392D01*
X144471840Y-119094877D01*
X144473991Y-118966975D01*
X144465295Y-118921345D01*
X144295519Y-118921345D01*
X144279927Y-118928361D01*
X144237595Y-118933736D01*
X144175190Y-118936805D01*
X144135643Y-118937269D01*
X144061896Y-118936978D01*
X144015784Y-118935131D01*
X143991524Y-118930260D01*
X143983330Y-118920903D01*
X143985418Y-118905593D01*
X143987169Y-118899670D01*
X144017064Y-118844016D01*
X144064082Y-118799163D01*
X144105575Y-118779453D01*
X144160698Y-118780643D01*
X144216556Y-118805223D01*
X144263412Y-118845918D01*
X144291530Y-118895456D01*
X144295519Y-118921345D01*
X144465295Y-118921345D01*
X144452550Y-118854481D01*
X144410013Y-118760075D01*
X144348877Y-118686436D01*
X144271639Y-118636241D01*
X144180794Y-118612170D01*
X144078840Y-118616902D01*
G36*
X148639667Y-118633574D02*
G01*
X148598078Y-118653438D01*
X148557799Y-118682132D01*
X148527114Y-118715157D01*
X148504763Y-118757279D01*
X148489488Y-118813263D01*
X148480032Y-118887876D01*
X148475137Y-118985883D01*
X148473543Y-119112050D01*
X148473518Y-119125262D01*
X148473151Y-119421874D01*
X148656967Y-119421874D01*
X148656967Y-119148429D01*
X148657097Y-119047125D01*
X148658003Y-118973701D01*
X148660451Y-118922619D01*
X148665210Y-118888338D01*
X148673050Y-118865319D01*
X148684739Y-118848021D01*
X148701022Y-118830929D01*
X148757990Y-118794205D01*
X148820179Y-118787390D01*
X148879425Y-118810609D01*
X148900029Y-118827891D01*
X148915154Y-118844139D01*
X148926014Y-118861539D01*
X148933314Y-118885560D01*
X148937761Y-118921670D01*
X148940060Y-118975336D01*
X148940920Y-119052028D01*
X148941046Y-119145391D01*
X148941046Y-119421874D01*
X149124861Y-119421874D01*
X149124861Y-118619769D01*
X149032953Y-118619769D01*
X148977773Y-118621951D01*
X148949304Y-118629699D01*
X148941049Y-118644816D01*
X148941046Y-118645264D01*
X148937216Y-118660068D01*
X148920323Y-118658388D01*
X148886736Y-118642121D01*
X148810561Y-118618188D01*
X148723424Y-118615526D01*
X148639667Y-118633574D01*
G37*
X148639667Y-118633574D02*
X148598078Y-118653438D01*
X148557799Y-118682132D01*
X148527114Y-118715157D01*
X148504763Y-118757279D01*
X148489488Y-118813263D01*
X148480032Y-118887876D01*
X148475137Y-118985883D01*
X148473543Y-119112050D01*
X148473518Y-119125262D01*
X148473151Y-119421874D01*
X148656967Y-119421874D01*
X148656967Y-119148429D01*
X148657097Y-119047125D01*
X148658003Y-118973701D01*
X148660451Y-118922619D01*
X148665210Y-118888338D01*
X148673050Y-118865319D01*
X148684739Y-118848021D01*
X148701022Y-118830929D01*
X148757990Y-118794205D01*
X148820179Y-118787390D01*
X148879425Y-118810609D01*
X148900029Y-118827891D01*
X148915154Y-118844139D01*
X148926014Y-118861539D01*
X148933314Y-118885560D01*
X148937761Y-118921670D01*
X148940060Y-118975336D01*
X148940920Y-119052028D01*
X148941046Y-119145391D01*
X148941046Y-119421874D01*
X149124861Y-119421874D01*
X149124861Y-118619769D01*
X149032953Y-118619769D01*
X148977773Y-118621951D01*
X148949304Y-118629699D01*
X148941049Y-118644816D01*
X148941046Y-118645264D01*
X148937216Y-118660068D01*
X148920323Y-118658388D01*
X148886736Y-118642121D01*
X148810561Y-118618188D01*
X148723424Y-118615526D01*
X148639667Y-118633574D01*
G36*
X145246236Y-118618993D02*
G01*
X145188759Y-118636554D01*
X145151752Y-118658743D01*
X145139697Y-118676290D01*
X145143015Y-118697090D01*
X145164545Y-118729767D01*
X145182750Y-118752910D01*
X145220280Y-118794750D01*
X145248476Y-118812353D01*
X145272513Y-118811204D01*
X145343816Y-118793058D01*
X145396182Y-118793882D01*
X145438706Y-118814446D01*
X145452982Y-118826482D01*
X145498677Y-118868831D01*
X145498677Y-119421874D01*
X145682493Y-119421874D01*
X145682493Y-118619769D01*
X145590585Y-118619769D01*
X145535405Y-118621951D01*
X145506936Y-118629699D01*
X145498681Y-118644816D01*
X145498677Y-118645264D01*
X145494779Y-118661097D01*
X145477150Y-118659032D01*
X145452723Y-118647609D01*
X145402274Y-118626353D01*
X145361308Y-118613564D01*
X145308596Y-118610286D01*
X145246236Y-118618993D01*
G37*
X145246236Y-118618993D02*
X145188759Y-118636554D01*
X145151752Y-118658743D01*
X145139697Y-118676290D01*
X145143015Y-118697090D01*
X145164545Y-118729767D01*
X145182750Y-118752910D01*
X145220280Y-118794750D01*
X145248476Y-118812353D01*
X145272513Y-118811204D01*
X145343816Y-118793058D01*
X145396182Y-118793882D01*
X145438706Y-118814446D01*
X145452982Y-118826482D01*
X145498677Y-118868831D01*
X145498677Y-119421874D01*
X145682493Y-119421874D01*
X145682493Y-118619769D01*
X145590585Y-118619769D01*
X145535405Y-118621951D01*
X145506936Y-118629699D01*
X145498681Y-118644816D01*
X145498677Y-118645264D01*
X145494779Y-118661097D01*
X145477150Y-118659032D01*
X145452723Y-118647609D01*
X145402274Y-118626353D01*
X145361308Y-118613564D01*
X145308596Y-118610286D01*
X145246236Y-118618993D01*
G36*
X147136660Y-113079924D02*
G01*
X147061111Y-113480670D01*
X146503583Y-113710502D01*
X146169159Y-113483096D01*
X146075502Y-113419779D01*
X145990842Y-113363244D01*
X145919129Y-113316075D01*
X145864313Y-113280850D01*
X145830344Y-113260153D01*
X145821094Y-113255690D01*
X145804429Y-113267168D01*
X145768818Y-113298899D01*
X145718253Y-113346831D01*
X145656724Y-113406910D01*
X145588225Y-113475081D01*
X145516745Y-113547293D01*
X145446277Y-113619490D01*
X145380813Y-113687621D01*
X145324344Y-113747631D01*
X145280861Y-113795467D01*
X145254356Y-113827075D01*
X145248019Y-113837653D01*
X145257138Y-113857154D01*
X145282704Y-113899879D01*
X145322027Y-113961646D01*
X145372421Y-114038279D01*
X145431197Y-114125596D01*
X145465256Y-114175400D01*
X145527335Y-114266341D01*
X145582498Y-114348407D01*
X145628070Y-114417511D01*
X145661374Y-114469570D01*
X145679734Y-114500498D01*
X145682493Y-114506998D01*
X145676239Y-114525469D01*
X145659190Y-114568520D01*
X145633921Y-114630097D01*
X145603002Y-114704147D01*
X145569006Y-114784618D01*
X145534506Y-114865455D01*
X145502073Y-114940606D01*
X145474281Y-115004019D01*
X145453701Y-115049641D01*
X145442905Y-115071417D01*
X145442268Y-115072274D01*
X145425317Y-115076432D01*
X145380173Y-115085709D01*
X145311514Y-115099192D01*
X145224022Y-115115969D01*
X145122374Y-115135129D01*
X145063068Y-115146178D01*
X144954452Y-115166858D01*
X144856347Y-115186537D01*
X144773715Y-115204137D01*
X144711520Y-115218581D01*
X144674725Y-115228794D01*
X144667328Y-115232034D01*
X144660084Y-115253965D01*
X144654239Y-115303495D01*
X144649789Y-115374833D01*
X144646731Y-115462187D01*
X144645059Y-115559765D01*
X144644771Y-115661774D01*
X144645863Y-115762423D01*
X144648330Y-115855920D01*
X144652168Y-115936473D01*
X144657374Y-115998290D01*
X144663943Y-116035578D01*
X144667883Y-116043341D01*
X144691436Y-116052646D01*
X144741342Y-116065948D01*
X144811001Y-116081685D01*
X144893811Y-116098294D01*
X144922719Y-116103667D01*
X145062093Y-116129196D01*
X145172188Y-116149756D01*
X145256642Y-116166163D01*
X145319094Y-116179235D01*
X145363180Y-116189789D01*
X145392539Y-116198642D01*
X145410809Y-116206611D01*
X145421626Y-116214513D01*
X145423139Y-116216075D01*
X145438247Y-116241234D01*
X145461295Y-116290198D01*
X145489980Y-116356969D01*
X145522002Y-116435553D01*
X145555059Y-116519955D01*
X145586851Y-116604178D01*
X145615075Y-116682227D01*
X145637431Y-116748107D01*
X145651617Y-116795821D01*
X145655331Y-116819375D01*
X145655022Y-116820200D01*
X145642435Y-116839452D01*
X145613880Y-116881811D01*
X145572357Y-116942869D01*
X145520868Y-117018216D01*
X145462413Y-117103444D01*
X145445766Y-117127663D01*
X145386409Y-117215471D01*
X145334177Y-117295586D01*
X145291916Y-117363410D01*
X145262471Y-117414341D01*
X145248687Y-117443779D01*
X145248019Y-117447396D01*
X145259600Y-117466405D01*
X145291600Y-117504062D01*
X145339906Y-117556321D01*
X145400404Y-117619134D01*
X145468980Y-117688454D01*
X145541520Y-117760233D01*
X145613912Y-117830425D01*
X145682040Y-117894983D01*
X145741792Y-117949858D01*
X145789053Y-117991004D01*
X145819711Y-118014374D01*
X145828192Y-118018190D01*
X145847933Y-118009203D01*
X145888350Y-117984964D01*
X145942861Y-117949557D01*
X145984801Y-117921059D01*
X146060795Y-117868766D01*
X146150790Y-117807193D01*
X146241060Y-117745718D01*
X146289592Y-117712817D01*
X146453862Y-117601707D01*
X146591755Y-117676264D01*
X146654575Y-117708926D01*
X146707995Y-117734314D01*
X146744140Y-117748794D01*
X146753340Y-117750808D01*
X146764403Y-117735932D01*
X146786230Y-117693895D01*
X146817190Y-117628575D01*
X146855654Y-117543848D01*
X146899992Y-117443593D01*
X146948577Y-117331687D01*
X146999778Y-117212007D01*
X147051965Y-117088432D01*
X147103511Y-116964839D01*
X147152784Y-116845105D01*
X147198157Y-116733107D01*
X147237999Y-116632725D01*
X147270682Y-116547834D01*
X147294575Y-116482313D01*
X147308050Y-116440038D01*
X147310218Y-116425520D01*
X147293041Y-116407001D01*
X147255434Y-116376938D01*
X147205258Y-116341580D01*
X147201046Y-116338782D01*
X147071360Y-116234973D01*
X146966790Y-116113863D01*
X146888243Y-115979324D01*
X146836625Y-115835230D01*
X146812842Y-115685453D01*
X146817801Y-115533865D01*
X146852407Y-115384340D01*
X146917567Y-115240748D01*
X146936738Y-115209332D01*
X147036450Y-115082473D01*
X147154247Y-114980603D01*
X147286053Y-114904252D01*
X147427791Y-114853950D01*
X147575382Y-114830227D01*
X147724751Y-114833613D01*
X147871821Y-114864636D01*
X148012513Y-114923828D01*
X148142751Y-115011717D01*
X148183038Y-115047390D01*
X148285569Y-115159054D01*
X148360283Y-115276605D01*
X148411534Y-115408368D01*
X148440078Y-115538855D01*
X148447124Y-115685564D01*
X148423628Y-115833001D01*
X148371975Y-115976182D01*
X148294553Y-116110125D01*
X148193749Y-116229846D01*
X148071948Y-116330362D01*
X148055940Y-116340957D01*
X148005226Y-116375654D01*
X147966674Y-116405718D01*
X147948243Y-116424913D01*
X147947975Y-116425520D01*
X147951932Y-116446284D01*
X147967617Y-116493410D01*
X147993402Y-116563021D01*
X148027655Y-116651241D01*
X148068747Y-116754192D01*
X148115048Y-116867998D01*
X148164928Y-116988783D01*
X148216757Y-117112669D01*
X148268905Y-117235780D01*
X148319742Y-117354239D01*
X148367637Y-117464171D01*
X148410962Y-117561697D01*
X148448086Y-117642941D01*
X148477380Y-117704027D01*
X148497212Y-117741078D01*
X148505198Y-117750808D01*
X148529603Y-117743231D01*
X148575266Y-117722908D01*
X148634314Y-117693473D01*
X148666784Y-117676264D01*
X148804677Y-117601707D01*
X148968947Y-117712817D01*
X149052803Y-117769738D01*
X149144611Y-117832378D01*
X149230644Y-117891359D01*
X149273737Y-117921059D01*
X149334347Y-117961758D01*
X149385669Y-117994011D01*
X149421009Y-118013732D01*
X149432487Y-118017902D01*
X149449194Y-118006655D01*
X149486170Y-117975259D01*
X149539829Y-117926972D01*
X149606586Y-117865056D01*
X149682858Y-117792769D01*
X149731097Y-117746356D01*
X149815491Y-117663435D01*
X149888427Y-117589268D01*
X149946955Y-117527028D01*
X149988127Y-117479889D01*
X150008996Y-117451021D01*
X150010998Y-117445163D01*
X150001707Y-117422880D01*
X149976033Y-117377825D01*
X149936824Y-117314559D01*
X149886927Y-117237643D01*
X149829191Y-117151640D01*
X149812773Y-117127663D01*
X149752947Y-117040518D01*
X149699274Y-116962058D01*
X149654754Y-116896693D01*
X149622389Y-116848832D01*
X149605179Y-116822883D01*
X149603517Y-116820200D01*
X149606003Y-116799520D01*
X149619201Y-116754052D01*
X149640810Y-116689792D01*
X149668528Y-116612735D01*
X149700054Y-116528877D01*
X149733087Y-116444214D01*
X149765325Y-116364740D01*
X149794467Y-116296452D01*
X149818212Y-116245345D01*
X149834259Y-116217415D01*
X149835399Y-116216075D01*
X149845212Y-116208093D01*
X149861785Y-116200199D01*
X149888756Y-116191577D01*
X149929763Y-116181410D01*
X149988444Y-116168879D01*
X150068437Y-116153169D01*
X150173379Y-116133461D01*
X150306909Y-116108940D01*
X150335820Y-116103667D01*
X150421506Y-116087112D01*
X150496206Y-116070917D01*
X150553318Y-116056644D01*
X150586241Y-116045856D01*
X150590655Y-116043341D01*
X150597930Y-116021044D01*
X150603843Y-115971217D01*
X150608390Y-115899652D01*
X150611569Y-115812141D01*
X150613373Y-115714476D01*
X150613801Y-115612449D01*
X150612847Y-115511851D01*
X150610508Y-115418475D01*
X150606780Y-115338113D01*
X150601658Y-115276557D01*
X150595140Y-115239598D01*
X150591210Y-115232034D01*
X150569332Y-115224404D01*
X150519515Y-115211990D01*
X150446721Y-115195870D01*
X150355913Y-115177121D01*
X150252055Y-115156819D01*
X150195470Y-115146178D01*
X150088110Y-115126108D01*
X149992370Y-115107928D01*
X149912930Y-115092547D01*
X149854470Y-115080879D01*
X149821669Y-115073836D01*
X149816270Y-115072274D01*
X149807146Y-115054670D01*
X149787859Y-115012266D01*
X149760979Y-114951120D01*
X149729078Y-114877291D01*
X149694726Y-114796837D01*
X149660495Y-114715816D01*
X149628955Y-114640285D01*
X149602678Y-114576303D01*
X149584235Y-114529928D01*
X149576195Y-114507217D01*
X149576046Y-114506224D01*
X149585159Y-114488309D01*
X149610710Y-114447081D01*
X149650012Y-114386639D01*
X149700381Y-114311079D01*
X149759130Y-114224500D01*
X149793282Y-114174769D01*
X149855514Y-114083584D01*
X149910788Y-114000797D01*
X149956406Y-113930597D01*
X149989672Y-113877172D01*
X150007888Y-113844709D01*
X150010519Y-113837431D01*
X149999210Y-113820493D01*
X149967943Y-113784326D01*
X149920714Y-113732983D01*
X149861516Y-113670515D01*
X149794343Y-113600974D01*
X149723190Y-113528413D01*
X149652050Y-113456883D01*
X149584917Y-113390435D01*
X149525785Y-113333122D01*
X149478649Y-113288995D01*
X149447501Y-113262107D01*
X149437081Y-113255690D01*
X149420115Y-113264713D01*
X149379535Y-113290063D01*
X149319287Y-113329158D01*
X149243317Y-113379419D01*
X149155570Y-113438265D01*
X149089380Y-113483096D01*
X148754956Y-113710502D01*
X148476191Y-113595586D01*
X148197427Y-113480670D01*
X148121878Y-113079924D01*
X148046330Y-112679177D01*
X147212209Y-112679177D01*
X147136660Y-113079924D01*
G37*
X147136660Y-113079924D02*
X147061111Y-113480670D01*
X146503583Y-113710502D01*
X146169159Y-113483096D01*
X146075502Y-113419779D01*
X145990842Y-113363244D01*
X145919129Y-113316075D01*
X145864313Y-113280850D01*
X145830344Y-113260153D01*
X145821094Y-113255690D01*
X145804429Y-113267168D01*
X145768818Y-113298899D01*
X145718253Y-113346831D01*
X145656724Y-113406910D01*
X145588225Y-113475081D01*
X145516745Y-113547293D01*
X145446277Y-113619490D01*
X145380813Y-113687621D01*
X145324344Y-113747631D01*
X145280861Y-113795467D01*
X145254356Y-113827075D01*
X145248019Y-113837653D01*
X145257138Y-113857154D01*
X145282704Y-113899879D01*
X145322027Y-113961646D01*
X145372421Y-114038279D01*
X145431197Y-114125596D01*
X145465256Y-114175400D01*
X145527335Y-114266341D01*
X145582498Y-114348407D01*
X145628070Y-114417511D01*
X145661374Y-114469570D01*
X145679734Y-114500498D01*
X145682493Y-114506998D01*
X145676239Y-114525469D01*
X145659190Y-114568520D01*
X145633921Y-114630097D01*
X145603002Y-114704147D01*
X145569006Y-114784618D01*
X145534506Y-114865455D01*
X145502073Y-114940606D01*
X145474281Y-115004019D01*
X145453701Y-115049641D01*
X145442905Y-115071417D01*
X145442268Y-115072274D01*
X145425317Y-115076432D01*
X145380173Y-115085709D01*
X145311514Y-115099192D01*
X145224022Y-115115969D01*
X145122374Y-115135129D01*
X145063068Y-115146178D01*
X144954452Y-115166858D01*
X144856347Y-115186537D01*
X144773715Y-115204137D01*
X144711520Y-115218581D01*
X144674725Y-115228794D01*
X144667328Y-115232034D01*
X144660084Y-115253965D01*
X144654239Y-115303495D01*
X144649789Y-115374833D01*
X144646731Y-115462187D01*
X144645059Y-115559765D01*
X144644771Y-115661774D01*
X144645863Y-115762423D01*
X144648330Y-115855920D01*
X144652168Y-115936473D01*
X144657374Y-115998290D01*
X144663943Y-116035578D01*
X144667883Y-116043341D01*
X144691436Y-116052646D01*
X144741342Y-116065948D01*
X144811001Y-116081685D01*
X144893811Y-116098294D01*
X144922719Y-116103667D01*
X145062093Y-116129196D01*
X145172188Y-116149756D01*
X145256642Y-116166163D01*
X145319094Y-116179235D01*
X145363180Y-116189789D01*
X145392539Y-116198642D01*
X145410809Y-116206611D01*
X145421626Y-116214513D01*
X145423139Y-116216075D01*
X145438247Y-116241234D01*
X145461295Y-116290198D01*
X145489980Y-116356969D01*
X145522002Y-116435553D01*
X145555059Y-116519955D01*
X145586851Y-116604178D01*
X145615075Y-116682227D01*
X145637431Y-116748107D01*
X145651617Y-116795821D01*
X145655331Y-116819375D01*
X145655022Y-116820200D01*
X145642435Y-116839452D01*
X145613880Y-116881811D01*
X145572357Y-116942869D01*
X145520868Y-117018216D01*
X145462413Y-117103444D01*
X145445766Y-117127663D01*
X145386409Y-117215471D01*
X145334177Y-117295586D01*
X145291916Y-117363410D01*
X145262471Y-117414341D01*
X145248687Y-117443779D01*
X145248019Y-117447396D01*
X145259600Y-117466405D01*
X145291600Y-117504062D01*
X145339906Y-117556321D01*
X145400404Y-117619134D01*
X145468980Y-117688454D01*
X145541520Y-117760233D01*
X145613912Y-117830425D01*
X145682040Y-117894983D01*
X145741792Y-117949858D01*
X145789053Y-117991004D01*
X145819711Y-118014374D01*
X145828192Y-118018190D01*
X145847933Y-118009203D01*
X145888350Y-117984964D01*
X145942861Y-117949557D01*
X145984801Y-117921059D01*
X146060795Y-117868766D01*
X146150790Y-117807193D01*
X146241060Y-117745718D01*
X146289592Y-117712817D01*
X146453862Y-117601707D01*
X146591755Y-117676264D01*
X146654575Y-117708926D01*
X146707995Y-117734314D01*
X146744140Y-117748794D01*
X146753340Y-117750808D01*
X146764403Y-117735932D01*
X146786230Y-117693895D01*
X146817190Y-117628575D01*
X146855654Y-117543848D01*
X146899992Y-117443593D01*
X146948577Y-117331687D01*
X146999778Y-117212007D01*
X147051965Y-117088432D01*
X147103511Y-116964839D01*
X147152784Y-116845105D01*
X147198157Y-116733107D01*
X147237999Y-116632725D01*
X147270682Y-116547834D01*
X147294575Y-116482313D01*
X147308050Y-116440038D01*
X147310218Y-116425520D01*
X147293041Y-116407001D01*
X147255434Y-116376938D01*
X147205258Y-116341580D01*
X147201046Y-116338782D01*
X147071360Y-116234973D01*
X146966790Y-116113863D01*
X146888243Y-115979324D01*
X146836625Y-115835230D01*
X146812842Y-115685453D01*
X146817801Y-115533865D01*
X146852407Y-115384340D01*
X146917567Y-115240748D01*
X146936738Y-115209332D01*
X147036450Y-115082473D01*
X147154247Y-114980603D01*
X147286053Y-114904252D01*
X147427791Y-114853950D01*
X147575382Y-114830227D01*
X147724751Y-114833613D01*
X147871821Y-114864636D01*
X148012513Y-114923828D01*
X148142751Y-115011717D01*
X148183038Y-115047390D01*
X148285569Y-115159054D01*
X148360283Y-115276605D01*
X148411534Y-115408368D01*
X148440078Y-115538855D01*
X148447124Y-115685564D01*
X148423628Y-115833001D01*
X148371975Y-115976182D01*
X148294553Y-116110125D01*
X148193749Y-116229846D01*
X148071948Y-116330362D01*
X148055940Y-116340957D01*
X148005226Y-116375654D01*
X147966674Y-116405718D01*
X147948243Y-116424913D01*
X147947975Y-116425520D01*
X147951932Y-116446284D01*
X147967617Y-116493410D01*
X147993402Y-116563021D01*
X148027655Y-116651241D01*
X148068747Y-116754192D01*
X148115048Y-116867998D01*
X148164928Y-116988783D01*
X148216757Y-117112669D01*
X148268905Y-117235780D01*
X148319742Y-117354239D01*
X148367637Y-117464171D01*
X148410962Y-117561697D01*
X148448086Y-117642941D01*
X148477380Y-117704027D01*
X148497212Y-117741078D01*
X148505198Y-117750808D01*
X148529603Y-117743231D01*
X148575266Y-117722908D01*
X148634314Y-117693473D01*
X148666784Y-117676264D01*
X148804677Y-117601707D01*
X148968947Y-117712817D01*
X149052803Y-117769738D01*
X149144611Y-117832378D01*
X149230644Y-117891359D01*
X149273737Y-117921059D01*
X149334347Y-117961758D01*
X149385669Y-117994011D01*
X149421009Y-118013732D01*
X149432487Y-118017902D01*
X149449194Y-118006655D01*
X149486170Y-117975259D01*
X149539829Y-117926972D01*
X149606586Y-117865056D01*
X149682858Y-117792769D01*
X149731097Y-117746356D01*
X149815491Y-117663435D01*
X149888427Y-117589268D01*
X149946955Y-117527028D01*
X149988127Y-117479889D01*
X150008996Y-117451021D01*
X150010998Y-117445163D01*
X150001707Y-117422880D01*
X149976033Y-117377825D01*
X149936824Y-117314559D01*
X149886927Y-117237643D01*
X149829191Y-117151640D01*
X149812773Y-117127663D01*
X149752947Y-117040518D01*
X149699274Y-116962058D01*
X149654754Y-116896693D01*
X149622389Y-116848832D01*
X149605179Y-116822883D01*
X149603517Y-116820200D01*
X149606003Y-116799520D01*
X149619201Y-116754052D01*
X149640810Y-116689792D01*
X149668528Y-116612735D01*
X149700054Y-116528877D01*
X149733087Y-116444214D01*
X149765325Y-116364740D01*
X149794467Y-116296452D01*
X149818212Y-116245345D01*
X149834259Y-116217415D01*
X149835399Y-116216075D01*
X149845212Y-116208093D01*
X149861785Y-116200199D01*
X149888756Y-116191577D01*
X149929763Y-116181410D01*
X149988444Y-116168879D01*
X150068437Y-116153169D01*
X150173379Y-116133461D01*
X150306909Y-116108940D01*
X150335820Y-116103667D01*
X150421506Y-116087112D01*
X150496206Y-116070917D01*
X150553318Y-116056644D01*
X150586241Y-116045856D01*
X150590655Y-116043341D01*
X150597930Y-116021044D01*
X150603843Y-115971217D01*
X150608390Y-115899652D01*
X150611569Y-115812141D01*
X150613373Y-115714476D01*
X150613801Y-115612449D01*
X150612847Y-115511851D01*
X150610508Y-115418475D01*
X150606780Y-115338113D01*
X150601658Y-115276557D01*
X150595140Y-115239598D01*
X150591210Y-115232034D01*
X150569332Y-115224404D01*
X150519515Y-115211990D01*
X150446721Y-115195870D01*
X150355913Y-115177121D01*
X150252055Y-115156819D01*
X150195470Y-115146178D01*
X150088110Y-115126108D01*
X149992370Y-115107928D01*
X149912930Y-115092547D01*
X149854470Y-115080879D01*
X149821669Y-115073836D01*
X149816270Y-115072274D01*
X149807146Y-115054670D01*
X149787859Y-115012266D01*
X149760979Y-114951120D01*
X149729078Y-114877291D01*
X149694726Y-114796837D01*
X149660495Y-114715816D01*
X149628955Y-114640285D01*
X149602678Y-114576303D01*
X149584235Y-114529928D01*
X149576195Y-114507217D01*
X149576046Y-114506224D01*
X149585159Y-114488309D01*
X149610710Y-114447081D01*
X149650012Y-114386639D01*
X149700381Y-114311079D01*
X149759130Y-114224500D01*
X149793282Y-114174769D01*
X149855514Y-114083584D01*
X149910788Y-114000797D01*
X149956406Y-113930597D01*
X149989672Y-113877172D01*
X150007888Y-113844709D01*
X150010519Y-113837431D01*
X149999210Y-113820493D01*
X149967943Y-113784326D01*
X149920714Y-113732983D01*
X149861516Y-113670515D01*
X149794343Y-113600974D01*
X149723190Y-113528413D01*
X149652050Y-113456883D01*
X149584917Y-113390435D01*
X149525785Y-113333122D01*
X149478649Y-113288995D01*
X149447501Y-113262107D01*
X149437081Y-113255690D01*
X149420115Y-113264713D01*
X149379535Y-113290063D01*
X149319287Y-113329158D01*
X149243317Y-113379419D01*
X149155570Y-113438265D01*
X149089380Y-113483096D01*
X148754956Y-113710502D01*
X148476191Y-113595586D01*
X148197427Y-113480670D01*
X148121878Y-113079924D01*
X148046330Y-112679177D01*
X147212209Y-112679177D01*
X147136660Y-113079924D01*
D12*
X25136968Y-60145127D03*
X25986968Y-60145127D03*
X26836968Y-60145127D03*
X27686968Y-60145127D03*
X28536968Y-60145127D03*
X29386968Y-60145127D03*
X30236968Y-60145127D03*
X31086968Y-60145127D03*
X25986968Y-58795127D03*
X27686968Y-58795127D03*
X26836968Y-58795127D03*
X25136968Y-58795127D03*
X29386968Y-58795127D03*
X30236968Y-58795127D03*
X31086968Y-58795127D03*
X28536968Y-58795127D03*
D13*
X23786968Y-59315127D03*
X32436968Y-59315127D03*
D14*
X23786968Y-55935127D03*
X32436968Y-55935127D03*
D15*
X27308968Y-61339127D03*
X26508968Y-63089127D03*
X28108968Y-63089127D03*
X28908968Y-61339127D03*
D16*
X29708968Y-63089127D03*
D17*
X24208968Y-56639127D03*
X32008968Y-56639127D03*
D18*
X43180032Y-64293804D03*
X33020032Y-64293804D03*
D19*
X38100032Y-64293804D03*
D20*
X34290032Y-61753804D03*
X40640032Y-59213804D03*
D21*
X154781380Y-106561027D03*
D22*
X162401380Y-106561027D03*
D21*
X162401380Y-108942279D03*
D22*
X154781380Y-108942279D03*
D23*
X140493868Y-113546035D03*
X140493868Y-118626035D03*
D24*
X141684494Y-136921990D03*
D25*
X141684494Y-144541990D03*
D24*
X136326677Y-118467287D03*
D25*
X128706677Y-118467287D03*
D18*
X119380096Y-102393836D03*
X109220096Y-102393836D03*
D19*
X114300096Y-102393836D03*
D20*
X110490096Y-99853836D03*
X116840096Y-97313836D03*
D26*
X138112616Y-102393836D03*
D18*
X290830240Y-83343820D03*
X280670240Y-83343820D03*
D19*
X285750240Y-83343820D03*
D20*
X281940240Y-80803820D03*
X288290240Y-78263820D03*
D24*
X168473579Y-118467287D03*
D25*
X176093579Y-118467287D03*
D24*
X170854831Y-67865682D03*
D25*
X178474831Y-67865682D03*
X126325425Y-73818812D03*
D24*
X133945425Y-73818812D03*
D18*
X233680192Y-121443852D03*
X223520192Y-121443852D03*
D19*
X228600192Y-121443852D03*
D20*
X224790192Y-118903852D03*
X231140192Y-116363852D03*
D18*
X252730208Y-83343820D03*
X242570208Y-83343820D03*
D19*
X247650208Y-83343820D03*
D20*
X243840208Y-80803820D03*
X250190208Y-78263820D03*
D18*
X252730208Y-64293804D03*
X242570208Y-64293804D03*
D19*
X247650208Y-64293804D03*
D20*
X243840208Y-61753804D03*
X250190208Y-59213804D03*
D18*
X271780224Y-83343820D03*
X261620224Y-83343820D03*
D19*
X266700224Y-83343820D03*
D20*
X262890224Y-80803820D03*
X269240224Y-78263820D03*
D18*
X252730208Y-102393836D03*
X242570208Y-102393836D03*
D19*
X247650208Y-102393836D03*
D20*
X243840208Y-99853836D03*
X250190208Y-97313836D03*
D18*
X290830240Y-102393836D03*
X280670240Y-102393836D03*
D19*
X285750240Y-102393836D03*
D20*
X281940240Y-99853836D03*
X288290240Y-97313836D03*
D18*
X271780224Y-102393836D03*
X261620224Y-102393836D03*
D19*
X266700224Y-102393836D03*
D20*
X262890224Y-99853836D03*
X269240224Y-97313836D03*
D18*
X290830240Y-121443852D03*
X280670240Y-121443852D03*
D19*
X285750240Y-121443852D03*
D20*
X281940240Y-118903852D03*
X288290240Y-116363852D03*
D18*
X271780224Y-121443852D03*
X261620224Y-121443852D03*
D19*
X266700224Y-121443852D03*
D20*
X262890224Y-118903852D03*
X269240224Y-116363852D03*
D18*
X233680192Y-102393836D03*
X223520192Y-102393836D03*
D19*
X228600192Y-102393836D03*
D20*
X224790192Y-99853836D03*
X231140192Y-97313836D03*
D18*
X214630176Y-102393836D03*
X204470176Y-102393836D03*
D19*
X209550176Y-102393836D03*
D20*
X205740176Y-99853836D03*
X212090176Y-97313836D03*
D18*
X290830240Y-140493868D03*
X280670240Y-140493868D03*
D19*
X285750240Y-140493868D03*
D20*
X281940240Y-137953868D03*
X288290240Y-135413868D03*
D18*
X252730208Y-121443852D03*
X242570208Y-121443852D03*
D19*
X247650208Y-121443852D03*
D20*
X243840208Y-118903852D03*
X250190208Y-116363852D03*
D18*
X214630176Y-121443852D03*
X204470176Y-121443852D03*
D19*
X209550176Y-121443852D03*
D20*
X205740176Y-118903852D03*
X212090176Y-116363852D03*
D18*
X271780224Y-140493868D03*
X261620224Y-140493868D03*
D19*
X266700224Y-140493868D03*
D20*
X262890224Y-137953868D03*
X269240224Y-135413868D03*
D18*
X252730208Y-140493868D03*
X242570208Y-140493868D03*
D19*
X247650208Y-140493868D03*
D20*
X243840208Y-137953868D03*
X250190208Y-135413868D03*
D18*
X233680192Y-140493868D03*
X223520192Y-140493868D03*
D19*
X228600192Y-140493868D03*
D20*
X224790192Y-137953868D03*
X231140192Y-135413868D03*
X212090176Y-135413868D03*
X205740176Y-137953868D03*
D19*
X209550176Y-140493868D03*
D18*
X204470176Y-140493868D03*
X214630176Y-140493868D03*
X119380096Y-64293804D03*
X109220096Y-64293804D03*
D19*
X114300096Y-64293804D03*
D20*
X110490096Y-61753804D03*
X116840096Y-59213804D03*
D18*
X119380096Y-83343820D03*
X109220096Y-83343820D03*
D19*
X114300096Y-83343820D03*
D20*
X110490096Y-80803820D03*
X116840096Y-78263820D03*
D18*
X81280064Y-83343820D03*
X71120064Y-83343820D03*
D19*
X76200064Y-83343820D03*
D20*
X72390064Y-80803820D03*
X78740064Y-78263820D03*
D18*
X100330080Y-140493868D03*
X90170080Y-140493868D03*
D19*
X95250080Y-140493868D03*
D20*
X91440080Y-137953868D03*
X97790080Y-135413868D03*
D18*
X62230048Y-140493868D03*
X52070048Y-140493868D03*
D19*
X57150048Y-140493868D03*
D20*
X53340048Y-137953868D03*
X59690048Y-135413868D03*
D18*
X24130016Y-83343820D03*
X13970016Y-83343820D03*
D19*
X19050016Y-83343820D03*
D20*
X15240016Y-80803820D03*
X21590016Y-78263820D03*
D27*
X13096886Y-111323531D03*
X291703370Y-111323531D03*
D26*
X128587608Y-59531300D03*
X176212648Y-59531300D03*
X128587608Y-144661059D03*
X176212648Y-144661059D03*
D18*
X24129968Y-64293750D03*
X13969968Y-64293750D03*
D19*
X19049968Y-64293750D03*
D20*
X15239968Y-61753750D03*
X21589968Y-59213750D03*
D18*
X62230048Y-64293804D03*
X52070048Y-64293804D03*
D19*
X57150048Y-64293804D03*
D20*
X53340048Y-61753804D03*
X59690048Y-59213804D03*
D18*
X81280064Y-64293804D03*
X71120064Y-64293804D03*
D19*
X76200064Y-64293804D03*
D20*
X72390064Y-61753804D03*
X78740064Y-59213804D03*
D18*
X100330080Y-64293804D03*
X90170080Y-64293804D03*
D19*
X95250080Y-64293804D03*
D20*
X91440080Y-61753804D03*
X97790080Y-59213804D03*
D18*
X290830240Y-64293804D03*
X280670240Y-64293804D03*
D19*
X285750240Y-64293804D03*
D20*
X281940240Y-61753804D03*
X288290240Y-59213804D03*
D18*
X271780224Y-64293804D03*
X261620224Y-64293804D03*
D19*
X266700224Y-64293804D03*
D20*
X262890224Y-61753804D03*
X269240224Y-59213804D03*
D18*
X233680192Y-64293804D03*
X223520192Y-64293804D03*
D19*
X228600192Y-64293804D03*
D20*
X224790192Y-61753804D03*
X231140192Y-59213804D03*
D18*
X33020032Y-83343820D03*
X43180032Y-83343820D03*
D19*
X38100032Y-83343820D03*
D20*
X41910032Y-85883820D03*
X35560032Y-88423820D03*
D18*
X62230048Y-83343820D03*
X52070048Y-83343820D03*
D19*
X57150048Y-83343820D03*
D20*
X53340048Y-80803820D03*
X59690048Y-78263820D03*
D18*
X233680192Y-83343820D03*
X223520192Y-83343820D03*
D19*
X228600192Y-83343820D03*
D20*
X224790192Y-80803820D03*
X231140192Y-78263820D03*
D18*
X24130016Y-102393836D03*
X13970016Y-102393836D03*
D19*
X19050016Y-102393836D03*
D20*
X15240016Y-99853836D03*
X21590016Y-97313836D03*
D18*
X43180032Y-102393836D03*
X33020032Y-102393836D03*
D19*
X38100032Y-102393836D03*
D20*
X34290032Y-99853836D03*
X40640032Y-97313836D03*
D18*
X62230048Y-102393836D03*
X52070048Y-102393836D03*
D19*
X57150048Y-102393836D03*
D20*
X53340048Y-99853836D03*
X59690048Y-97313836D03*
D18*
X100330080Y-83343820D03*
X90170080Y-83343820D03*
D19*
X95250080Y-83343820D03*
D20*
X91440080Y-80803820D03*
X97790080Y-78263820D03*
D18*
X214630176Y-83343820D03*
X204470176Y-83343820D03*
D19*
X209550176Y-83343820D03*
D20*
X205740176Y-80803820D03*
X212090176Y-78263820D03*
D18*
X24130016Y-121443852D03*
X13970016Y-121443852D03*
D19*
X19050016Y-121443852D03*
D20*
X15240016Y-118903852D03*
X21590016Y-116363852D03*
D18*
X43180032Y-121443852D03*
X33020032Y-121443852D03*
D19*
X38100032Y-121443852D03*
D20*
X34290032Y-118903852D03*
X40640032Y-116363852D03*
D18*
X81280064Y-102393836D03*
X71120064Y-102393836D03*
D19*
X76200064Y-102393836D03*
D20*
X72390064Y-99853836D03*
X78740064Y-97313836D03*
D18*
X100330080Y-102393836D03*
X90170080Y-102393836D03*
D19*
X95250080Y-102393836D03*
D20*
X91440080Y-99853836D03*
X97790080Y-97313836D03*
D18*
X24130016Y-140493868D03*
X13970016Y-140493868D03*
D19*
X19050016Y-140493868D03*
D20*
X15240016Y-137953868D03*
X21590016Y-135413868D03*
D18*
X62230048Y-121443852D03*
X52070048Y-121443852D03*
D19*
X57150048Y-121443852D03*
D20*
X53340048Y-118903852D03*
X59690048Y-116363852D03*
D18*
X81280064Y-121443852D03*
X71120064Y-121443852D03*
D19*
X76200064Y-121443852D03*
D20*
X72390064Y-118903852D03*
X78740064Y-116363852D03*
D18*
X100330080Y-121443852D03*
X90170080Y-121443852D03*
D19*
X95250080Y-121443852D03*
D20*
X91440080Y-118903852D03*
X97790080Y-116363852D03*
D18*
X43180032Y-140493868D03*
X33020032Y-140493868D03*
D19*
X38100032Y-140493868D03*
D20*
X34290032Y-137953868D03*
X40640032Y-135413868D03*
D18*
X81280064Y-140493868D03*
X71120064Y-140493868D03*
D19*
X76200064Y-140493868D03*
D20*
X72390064Y-137953868D03*
X78740064Y-135413868D03*
D28*
X147042311Y-127992295D03*
D29*
X145542311Y-127992295D03*
D30*
X155734510Y-126801669D03*
X160734510Y-126801669D03*
X160734510Y-129778234D03*
X155734510Y-129778234D03*
X144065746Y-96559454D03*
X144065746Y-94059454D03*
X144065746Y-88701637D03*
X144065746Y-91201637D03*
D31*
X144065746Y-82748507D03*
D32*
X144065746Y-80208507D03*
X146605746Y-82748507D03*
X146605746Y-80208507D03*
X149145746Y-82748507D03*
X149145746Y-80208507D03*
D33*
X159543884Y-63698491D03*
D34*
X157003884Y-63698491D03*
D35*
X148565746Y-75604751D03*
X144065746Y-75604751D03*
X148565746Y-69104751D03*
X144065746Y-69104751D03*
X144065746Y-100656340D03*
X148565746Y-100656340D03*
X144065746Y-107156340D03*
X148565746Y-107156340D03*
D36*
X148828250Y-89892263D03*
X148828250Y-94772263D03*
D24*
X154781380Y-69056308D03*
D25*
X162401380Y-102076308D03*
X154781380Y-71596308D03*
X162401380Y-99536308D03*
X154781380Y-74136308D03*
X162401380Y-96996308D03*
X154781380Y-76676308D03*
X162401380Y-94456308D03*
X154781380Y-79216308D03*
X162401380Y-91916308D03*
X154781380Y-81756308D03*
X162401380Y-89376308D03*
X154781380Y-84296308D03*
X162401380Y-86836308D03*
X154781380Y-86836308D03*
X162401380Y-84296308D03*
X154781380Y-89376308D03*
X162401380Y-81756308D03*
X154781380Y-91916308D03*
X162401380Y-79216308D03*
X154781380Y-94456308D03*
X162401380Y-76676308D03*
X154781380Y-96996308D03*
X162401380Y-74136308D03*
X154781380Y-99536308D03*
X162401380Y-71596308D03*
X154781380Y-102076308D03*
X162401380Y-69056308D03*
D24*
X154900449Y-121443852D03*
D25*
X162520449Y-121443852D03*
X162520449Y-118467287D03*
D24*
X154900449Y-118467287D03*
X136326677Y-64889117D03*
D25*
X128706677Y-64889117D03*
D24*
X133945425Y-67865682D03*
D25*
X126325425Y-67865682D03*
X128706677Y-70842247D03*
D24*
X136326677Y-70842247D03*
X136326677Y-76795377D03*
D25*
X128706677Y-76795377D03*
D24*
X168473579Y-64889117D03*
D25*
X176093579Y-64889117D03*
X176093579Y-70842247D03*
D24*
X168473579Y-70842247D03*
X170854831Y-73818812D03*
D25*
X178474831Y-73818812D03*
D24*
X136326677Y-82748507D03*
D25*
X128706677Y-82748507D03*
D24*
X133945425Y-85725072D03*
D25*
X126325425Y-85725072D03*
X128706677Y-88701637D03*
D24*
X136326677Y-88701637D03*
D25*
X126325425Y-91678202D03*
D24*
X133945425Y-91678202D03*
X133945425Y-79771942D03*
D25*
X126325425Y-79771942D03*
X176093579Y-82748507D03*
D24*
X168473579Y-82748507D03*
X170854831Y-85725072D03*
D25*
X178474831Y-85725072D03*
D24*
X168473579Y-88701637D03*
D25*
X176093579Y-88701637D03*
D24*
X170854831Y-91678202D03*
D25*
X178474831Y-91678202D03*
X126325425Y-100607897D03*
D24*
X133945425Y-100607897D03*
D25*
X126325425Y-103584462D03*
D24*
X133945425Y-103584462D03*
D25*
X128706677Y-106561027D03*
D24*
X136326677Y-106561027D03*
X136326677Y-94654767D03*
D25*
X128706677Y-94654767D03*
D24*
X133945425Y-97631332D03*
D25*
X126325425Y-97631332D03*
D24*
X168473579Y-100607897D03*
D25*
X176093579Y-100607897D03*
D24*
X170854831Y-103584462D03*
D25*
X178474831Y-103584462D03*
D24*
X168473579Y-106561027D03*
D25*
X176093579Y-106561027D03*
D24*
X168473579Y-94654767D03*
D25*
X176093579Y-94654767D03*
X126325425Y-121443852D03*
D24*
X133945425Y-121443852D03*
D25*
X126325425Y-109537592D03*
D24*
X133945425Y-109537592D03*
X136326677Y-112514157D03*
D25*
X128706677Y-112514157D03*
D24*
X133945425Y-115490722D03*
D25*
X126325425Y-115490722D03*
D24*
X170854831Y-121443852D03*
D25*
X178474831Y-121443852D03*
D24*
X170854831Y-109537592D03*
D25*
X178474831Y-109537592D03*
D24*
X168473579Y-112514157D03*
D25*
X176093579Y-112514157D03*
X135731364Y-144541990D03*
D24*
X135731364Y-136921990D03*
D25*
X128706677Y-124420417D03*
D24*
X136326677Y-124420417D03*
D25*
X126325425Y-127396982D03*
D24*
X133945425Y-127396982D03*
D25*
X128706677Y-130373547D03*
D24*
X136326677Y-130373547D03*
D25*
X169068892Y-144541990D03*
D24*
X169068892Y-136921990D03*
D25*
X176093579Y-124420417D03*
D24*
X168473579Y-124420417D03*
D25*
X178474831Y-127396982D03*
D24*
X170854831Y-127396982D03*
D25*
X176093579Y-130373547D03*
D24*
X168473579Y-130373547D03*
X138707929Y-134540738D03*
D25*
X138707929Y-142160738D03*
D24*
X144661059Y-134540738D03*
D25*
X144661059Y-142160738D03*
D24*
X147637624Y-136921990D03*
D25*
X147637624Y-144541990D03*
D24*
X166092327Y-134540738D03*
D25*
X166092327Y-142160738D03*
D24*
X163115762Y-136921990D03*
D25*
X163115762Y-144541990D03*
D24*
X160139197Y-134540738D03*
D25*
X160139197Y-142160738D03*
D24*
X157162632Y-136921990D03*
D25*
X157162632Y-144541990D03*
D33*
X147796372Y-63698491D03*
D34*
X145256372Y-63698491D03*
D25*
X126325425Y-133350112D03*
D24*
X133945425Y-133350112D03*
X150614189Y-134540738D03*
D25*
X150614189Y-142160738D03*
X176093579Y-76795377D03*
D24*
X168473579Y-76795377D03*
X170854831Y-79771942D03*
D25*
X178474831Y-79771942D03*
X178474831Y-97631332D03*
D24*
X170854831Y-97631332D03*
X170854831Y-115490722D03*
D25*
X178474831Y-115490722D03*
X178474831Y-133350112D03*
D24*
X170854831Y-133350112D03*
X154186067Y-134540738D03*
D25*
X154186067Y-142160738D03*
D18*
X119380096Y-121443852D03*
X109220096Y-121443852D03*
D19*
X114300096Y-121443852D03*
D20*
X110490096Y-118903852D03*
X116840096Y-116363852D03*
X116840096Y-135413868D03*
X110490096Y-137953868D03*
D19*
X114300096Y-140493868D03*
D18*
X109220096Y-140493868D03*
X119380096Y-140493868D03*
X214630176Y-64293804D03*
X204470176Y-64293804D03*
D19*
X209550176Y-64293804D03*
D20*
X205740176Y-61753804D03*
X212090176Y-59213804D03*
X193040160Y-59213804D03*
X186690160Y-61753804D03*
D19*
X190500160Y-64293804D03*
D18*
X185420160Y-64293804D03*
X195580160Y-64293804D03*
X195580160Y-83343820D03*
X185420160Y-83343820D03*
D19*
X190500160Y-83343820D03*
D20*
X186690160Y-80803820D03*
X193040160Y-78263820D03*
D18*
X195580160Y-102393836D03*
X185420160Y-102393836D03*
D19*
X190500160Y-102393836D03*
D20*
X186690160Y-99853836D03*
X193040160Y-97313836D03*
X193040160Y-116363852D03*
X186690160Y-118903852D03*
D19*
X190500160Y-121443852D03*
D18*
X185420160Y-121443852D03*
X195580160Y-121443852D03*
D20*
X193040160Y-135413868D03*
X186690160Y-137953868D03*
D19*
X190500160Y-140493868D03*
D18*
X185420160Y-140493868D03*
X195580160Y-140493868D03*
D20*
X107315088Y-135413868D03*
X100965088Y-137953868D03*
D19*
X104775088Y-140493868D03*
D37*
X92837088Y-147478868D03*
X116713088Y-147478868D03*
D19*
X92837088Y-132238868D03*
X116713088Y-132238868D03*
X211963168Y-132238868D03*
X188087168Y-132238868D03*
D37*
X211963168Y-147478868D03*
X188087168Y-147478868D03*
D19*
X200025168Y-140493868D03*
D20*
X196215168Y-137953868D03*
X202565168Y-135413868D03*
D21*
X162401380Y-113704783D03*
D22*
X154781380Y-113704783D03*
X154781380Y-111323531D03*
D21*
X162401380Y-111323531D03*
X142398876Y-58340674D03*
D22*
X150018876Y-58340674D03*
X162401380Y-58340674D03*
D21*
X154781380Y-58340674D03*
G36*
G01*
X25354711Y-72018812D02*
X26604711Y-72018812D01*
G75*
G02*
X26754711Y-72168812I0J-150000D01*
G01*
X26754711Y-72468812D01*
G75*
G02*
X26604711Y-72618812I-150000J0D01*
G01*
X25354711Y-72618812D01*
G75*
G02*
X25204711Y-72468812I0J150000D01*
G01*
X25204711Y-72168812D01*
G75*
G02*
X25354711Y-72018812I150000J0D01*
G01*
G37*
G36*
G01*
X25354711Y-73018812D02*
X26604711Y-73018812D01*
G75*
G02*
X26754711Y-73168812I0J-150000D01*
G01*
X26754711Y-73468812D01*
G75*
G02*
X26604711Y-73618812I-150000J0D01*
G01*
X25354711Y-73618812D01*
G75*
G02*
X25204711Y-73468812I0J150000D01*
G01*
X25204711Y-73168812D01*
G75*
G02*
X25354711Y-73018812I150000J0D01*
G01*
G37*
G36*
G01*
X25354711Y-74018812D02*
X26604711Y-74018812D01*
G75*
G02*
X26754711Y-74168812I0J-150000D01*
G01*
X26754711Y-74468812D01*
G75*
G02*
X26604711Y-74618812I-150000J0D01*
G01*
X25354711Y-74618812D01*
G75*
G02*
X25204711Y-74468812I0J150000D01*
G01*
X25204711Y-74168812D01*
G75*
G02*
X25354711Y-74018812I150000J0D01*
G01*
G37*
G36*
G01*
X25354711Y-75018812D02*
X26604711Y-75018812D01*
G75*
G02*
X26754711Y-75168812I0J-150000D01*
G01*
X26754711Y-75468812D01*
G75*
G02*
X26604711Y-75618812I-150000J0D01*
G01*
X25354711Y-75618812D01*
G75*
G02*
X25204711Y-75468812I0J150000D01*
G01*
X25204711Y-75168812D01*
G75*
G02*
X25354711Y-75018812I150000J0D01*
G01*
G37*
G36*
G01*
X29204710Y-70418812D02*
X30504712Y-70418812D01*
G75*
G02*
X30754711Y-70668811I0J-249999D01*
G01*
X30754711Y-71368813D01*
G75*
G02*
X30504712Y-71618812I-249999J0D01*
G01*
X29204710Y-71618812D01*
G75*
G02*
X28954711Y-71368813I0J249999D01*
G01*
X28954711Y-70668811D01*
G75*
G02*
X29204710Y-70418812I249999J0D01*
G01*
G37*
G36*
G01*
X29204710Y-76018812D02*
X30504712Y-76018812D01*
G75*
G02*
X30754711Y-76268811I0J-249999D01*
G01*
X30754711Y-76968813D01*
G75*
G02*
X30504712Y-77218812I-249999J0D01*
G01*
X29204710Y-77218812D01*
G75*
G02*
X28954711Y-76968813I0J249999D01*
G01*
X28954711Y-76268811D01*
G75*
G02*
X29204710Y-76018812I249999J0D01*
G01*
G37*
X48815666Y-60245682D03*
D22*
X48815666Y-67865682D03*
X46434414Y-67865682D03*
D21*
X46434414Y-60245682D03*
M02*
