%TF.GenerationSoftware,KiCad,Pcbnew,(5.1.10-1-10_14)*%
%TF.CreationDate,2021-09-18T15:35:40+02:00*%
%TF.ProjectId,brutal60-split,62727574-616c-4363-902d-73706c69742e,rev?*%
%TF.SameCoordinates,Original*%
%TF.FileFunction,Profile,NP*%
%FSLAX46Y46*%
G04 Gerber Fmt 4.6, Leading zero omitted, Abs format (unit mm)*
G04 Created by KiCad (PCBNEW (5.1.10-1-10_14)) date 2021-09-18 15:35:40*
%MOMM*%
%LPD*%
G01*
G04 APERTURE LIST*
%TA.AperFunction,Profile*%
%ADD10C,0.200000*%
%TD*%
%TA.AperFunction,Profile*%
%ADD11C,0.100000*%
%TD*%
G04 APERTURE END LIST*
D10*
X103602207Y-39800004D02*
X103602207Y-135050129D01*
X31417717Y-135050129D02*
X-8733457Y-135050128D01*
X-10733457Y-133050129D02*
X-10733457Y-41800004D01*
X-10733457Y-41800004D02*
G75*
G02*
X-8733457Y-39800004I2000000J0D01*
G01*
X37965927Y-37642052D02*
G75*
G03*
X37965927Y-37642052I-1099999J0D01*
G01*
X38065928Y-137142052D02*
G75*
G03*
X38065928Y-137142052I-1100000J0D01*
G01*
X-8733456Y-135050128D02*
G75*
G02*
X-10733457Y-133050129I-1J2000000D01*
G01*
X31417716Y-135050128D02*
G75*
G02*
X33417717Y-137050129I0J-2000001D01*
G01*
X33417717Y-137150129D02*
X33417717Y-137050129D01*
X40417717Y-137150129D02*
G75*
G02*
X33417717Y-137150129I-3500000J0D01*
G01*
X40417717Y-137050129D02*
X40417717Y-137150129D01*
X40417717Y-137050129D02*
G75*
G02*
X42417717Y-135050129I2000000J0D01*
G01*
X103602207Y-135050129D02*
X42417717Y-135050129D01*
X42395401Y-39800004D02*
X103602207Y-39800004D01*
X42395401Y-39800003D02*
G75*
G02*
X40417717Y-37800128I22315J1999875D01*
G01*
X40417717Y-37700129D02*
X40417717Y-37800128D01*
X33417717Y-37700129D02*
G75*
G02*
X40417717Y-37700129I3500000J0D01*
G01*
X33417717Y-37800129D02*
X33417717Y-37700129D01*
X33417717Y-37800127D02*
G75*
G02*
X31440032Y-39800004I-2000001J-1D01*
G01*
X-8733457Y-39800004D02*
X31440032Y-39800004D01*
D11*
X5953125Y-42148125D02*
X-8334375Y-42148125D01*
X-8334375Y-42148125D02*
X-8334375Y-56435625D01*
X44053125Y-61198125D02*
X29765625Y-61198125D01*
X10715625Y-75485625D02*
X25003125Y-75485625D01*
X82153125Y-42148125D02*
X82153125Y-56435625D01*
X82153125Y-56435625D02*
X67865625Y-56435625D01*
X-8334375Y-113585625D02*
X5953125Y-113585625D01*
X5953125Y-99298125D02*
X-8334375Y-99298125D01*
X48815625Y-56435625D02*
X48815625Y-42148125D01*
X48815625Y-42148125D02*
X63103125Y-42148125D01*
X44053125Y-42148125D02*
X29765625Y-42148125D01*
X29765625Y-42148125D02*
X29765625Y-56435625D01*
X29765625Y-56435625D02*
X44053125Y-56435625D01*
X44053125Y-56435625D02*
X44053125Y-42148125D01*
X25003125Y-42148125D02*
X10715625Y-42148125D01*
X10715625Y-42148125D02*
X10715625Y-56435625D01*
X67865625Y-56435625D02*
X67865625Y-42148125D01*
X67865625Y-42148125D02*
X82153125Y-42148125D01*
X-8334375Y-56435625D02*
X5953125Y-56435625D01*
X-8334375Y-75485625D02*
X5953125Y-75485625D01*
X10715625Y-56435625D02*
X25003125Y-56435625D01*
X25003125Y-56435625D02*
X25003125Y-42148125D01*
X5953125Y-56435625D02*
X5953125Y-42148125D01*
X101203125Y-132635625D02*
X101203125Y-118348125D01*
X70246761Y-118348233D02*
X67865509Y-118348233D01*
X75009265Y-117157607D02*
X75009265Y-118348233D01*
X98821785Y-117157607D02*
X98821785Y-118348233D01*
X70246761Y-118348233D02*
X70246761Y-117157607D01*
X101203125Y-118348125D02*
X98821785Y-118348233D01*
X94059281Y-118348233D02*
X94059281Y-117157607D01*
X101203125Y-61198125D02*
X86915625Y-61198125D01*
X82153125Y-61198125D02*
X82153125Y-75485625D01*
X86915625Y-75485625D02*
X101203125Y-75485625D01*
X48815625Y-61198125D02*
X63103125Y-61198125D01*
X86915625Y-80248125D02*
X86915625Y-94535625D01*
X29765625Y-61198125D02*
X29765625Y-75485625D01*
X101203125Y-75485625D02*
X101203125Y-61198125D01*
X-8334375Y-61198125D02*
X-8334375Y-75485625D01*
X-8334375Y-94535713D02*
X5953125Y-94535713D01*
X29765625Y-94535625D02*
X44053125Y-94535625D01*
X25003125Y-94535625D02*
X25003125Y-80248125D01*
X101203125Y-42148125D02*
X86915625Y-42148125D01*
X10715625Y-80248125D02*
X10715625Y-94535625D01*
X5953125Y-94535625D02*
X5953125Y-80248125D01*
X5953125Y-75485625D02*
X5953125Y-61198125D01*
X67865625Y-99298125D02*
X82153125Y-99298125D01*
X29765625Y-132635625D02*
X44053125Y-132635625D01*
X10715625Y-113585625D02*
X25003125Y-113585625D01*
X82153125Y-99298125D02*
X82153125Y-113585625D01*
X101203125Y-113585625D02*
X101203125Y-99298125D01*
X63103125Y-99298125D02*
X63103125Y-113585625D01*
X29765625Y-80248125D02*
X29765625Y-94535625D01*
X29765625Y-99298125D02*
X29765625Y-113585625D01*
X82153125Y-94535625D02*
X67865625Y-94535625D01*
X86915625Y-99298125D02*
X86915625Y-113585625D01*
X101203125Y-94535625D02*
X101203125Y-80248125D01*
X29765625Y-113585625D02*
X44053125Y-113585625D01*
X94059281Y-118348233D02*
X75009265Y-118348233D01*
X63103125Y-113585625D02*
X48815625Y-113585625D01*
X10715625Y-118348125D02*
X10715625Y-132635625D01*
X44053125Y-113585625D02*
X44053125Y-99298125D01*
X44053125Y-132635625D02*
X44053125Y-118348125D01*
X25003125Y-113585625D02*
X25003125Y-99298125D01*
X48815625Y-132635625D02*
X48815625Y-118348125D01*
X67865625Y-113585625D02*
X67865625Y-99298125D01*
X63103125Y-132635625D02*
X48815625Y-132635625D01*
X82153125Y-113585625D02*
X67865625Y-113585625D01*
X10715625Y-132635625D02*
X25003125Y-132635625D01*
X48815625Y-99298125D02*
X63103125Y-99298125D01*
X25003125Y-132635625D02*
X25003125Y-118348125D01*
X48815625Y-113585625D02*
X48815625Y-99298125D01*
X48815625Y-94535625D02*
X48815625Y-80248125D01*
X63103125Y-80248125D02*
X63103125Y-94535625D01*
X48815625Y-80248125D02*
X63103125Y-80248125D01*
X25003125Y-99298125D02*
X10715625Y-99298125D01*
X63103125Y-56435625D02*
X48815625Y-56435625D01*
X101203125Y-99298125D02*
X86915625Y-99298125D01*
X44053125Y-99298125D02*
X29765625Y-99298125D01*
X82153125Y-80248125D02*
X82153125Y-94535625D01*
X25003125Y-80248125D02*
X10715625Y-80248125D01*
X63103125Y-42148125D02*
X63103125Y-56435625D01*
X67865625Y-132635625D02*
X67865625Y-118348125D01*
X86915625Y-42148125D02*
X86915625Y-56435625D01*
X86915625Y-56435625D02*
X101203125Y-56435625D01*
X67865625Y-132635625D02*
X101203125Y-132635625D01*
X86915625Y-61198125D02*
X86915625Y-75485625D01*
X67865625Y-61198125D02*
X82153125Y-61198125D01*
X63103125Y-75485625D02*
X48815625Y-75485625D01*
X5953125Y-132635625D02*
X5953125Y-118348125D01*
X63103125Y-118348125D02*
X63103125Y-132635625D01*
X94059281Y-117157607D02*
X98821785Y-117157607D01*
X86915625Y-113585625D02*
X101203125Y-113585625D01*
X10715625Y-99298125D02*
X10715625Y-113585625D01*
X29765625Y-118348125D02*
X29765625Y-132635625D01*
X25003125Y-118348125D02*
X10715625Y-118348125D01*
X44053125Y-118348125D02*
X29765625Y-118348125D01*
X70246761Y-117157607D02*
X75009265Y-117157607D01*
X-8334375Y-118348125D02*
X-8334375Y-132635625D01*
X5953125Y-118348125D02*
X-8334375Y-118348125D01*
X-8334375Y-132635625D02*
X5953125Y-132635625D01*
X5953125Y-61198125D02*
X-8334375Y-61198125D01*
X-8334375Y-80248125D02*
X-8334375Y-94535625D01*
X5953125Y-80248125D02*
X-8334375Y-80248125D01*
X101203125Y-56435625D02*
X101203125Y-42148125D01*
X63103125Y-61198125D02*
X63103125Y-75485625D01*
X67865625Y-80248125D02*
X82153125Y-80248125D01*
X44053125Y-80248125D02*
X29765625Y-80248125D01*
X48815625Y-75485625D02*
X48815625Y-61198125D01*
X67865625Y-94535625D02*
X67865625Y-80248125D01*
X101203125Y-80248125D02*
X86915625Y-80248125D01*
X44053125Y-94535625D02*
X44053125Y-80248125D01*
X86915625Y-94535625D02*
X101203125Y-94535625D01*
X63103125Y-94535625D02*
X48815625Y-94535625D01*
X67865625Y-75485625D02*
X67865625Y-61198125D01*
X25003125Y-61198125D02*
X10715625Y-61198125D01*
X10715625Y-61198125D02*
X10715625Y-75485625D01*
X5953125Y-113585625D02*
X5953125Y-99298125D01*
X-8334375Y-99298125D02*
X-8334375Y-113585625D01*
X10715625Y-94535625D02*
X25003125Y-94535625D01*
X44053125Y-75485625D02*
X44053125Y-61198125D01*
X29765625Y-75485625D02*
X44053125Y-75485625D01*
X25003125Y-75485625D02*
X25003125Y-61198125D01*
X82153125Y-75485625D02*
X67865625Y-75485625D01*
X48815625Y-118348125D02*
X63103125Y-118348125D01*
M02*
