%TF.GenerationSoftware,KiCad,Pcbnew,(5.1.10-1-10_14)*%
%TF.CreationDate,2021-08-21T09:34:51+02:00*%
%TF.ProjectId,brutal60-full,62727574-616c-4363-902d-66756c6c2e6b,rev?*%
%TF.SameCoordinates,Original*%
%TF.FileFunction,Profile,NP*%
%FSLAX46Y46*%
G04 Gerber Fmt 4.6, Leading zero omitted, Abs format (unit mm)*
G04 Created by KiCad (PCBNEW (5.1.10-1-10_14)) date 2021-08-21 09:34:51*
%MOMM*%
%LPD*%
G01*
G04 APERTURE LIST*
%TA.AperFunction,Profile*%
%ADD10C,0.200000*%
%TD*%
%TA.AperFunction,Profile*%
%ADD11C,0.100000*%
%TD*%
G04 APERTURE END LIST*
D10*
X232895401Y-39800004D02*
X273042717Y-39800004D01*
X275042717Y-133050127D02*
G75*
G02*
X273042717Y-135050129I-2000001J-1D01*
G01*
X31417717Y-135050129D02*
X-8733457Y-135050128D01*
X-10733457Y-133050129D02*
X-10733457Y-41800004D01*
X-10733457Y-41800004D02*
G75*
G02*
X-8733457Y-39800004I2000000J0D01*
G01*
X37965927Y-37642052D02*
G75*
G03*
X37965927Y-37642052I-1099999J0D01*
G01*
X133365928Y-137142052D02*
G75*
G03*
X133365928Y-137142052I-1100000J0D01*
G01*
X228465928Y-37842051D02*
G75*
G03*
X228465928Y-37842051I-1100000J0D01*
G01*
X228565928Y-137142052D02*
G75*
G03*
X228565928Y-137142052I-1100000J0D01*
G01*
X133369234Y-37560863D02*
G75*
G03*
X133369234Y-37560863I-1100000J0D01*
G01*
X38065928Y-137142052D02*
G75*
G03*
X38065928Y-137142052I-1100000J0D01*
G01*
X-8733456Y-135050128D02*
G75*
G02*
X-10733457Y-133050129I-1J2000000D01*
G01*
X31417716Y-135050128D02*
G75*
G02*
X33417717Y-137050129I0J-2000001D01*
G01*
X33417717Y-137150129D02*
X33417717Y-137050129D01*
X40417717Y-137150129D02*
G75*
G02*
X33417717Y-137150129I-3500000J0D01*
G01*
X40417717Y-137050129D02*
X40417717Y-137150129D01*
X40417717Y-137050129D02*
G75*
G02*
X42417717Y-135050129I2000000J0D01*
G01*
X126667717Y-135050129D02*
X42417717Y-135050129D01*
X126667718Y-135050128D02*
G75*
G02*
X128667717Y-137050129I-1J-2000000D01*
G01*
X128667717Y-137150128D02*
X128667717Y-137050129D01*
X135667717Y-137150128D02*
G75*
G02*
X128667717Y-137150128I-3500000J0D01*
G01*
X135667717Y-137050129D02*
X135667717Y-137150129D01*
X135667717Y-137050129D02*
G75*
G02*
X137667717Y-135050129I2000000J0D01*
G01*
X221917717Y-135050129D02*
X137667717Y-135050129D01*
X221917718Y-135050128D02*
G75*
G02*
X223917717Y-137050129I-1J-2000000D01*
G01*
X223917717Y-137150128D02*
X223917717Y-137050129D01*
X230917717Y-137150128D02*
G75*
G02*
X223917717Y-137150128I-3500000J0D01*
G01*
X230917716Y-137050129D02*
X230917717Y-137150129D01*
X230917716Y-137050127D02*
G75*
G02*
X232917717Y-135050128I2000000J-1D01*
G01*
X273042717Y-135050129D02*
X232917717Y-135050128D01*
X275042717Y-41800004D02*
X275042717Y-133050129D01*
X273042716Y-39800003D02*
G75*
G02*
X275042717Y-41800004I0J-2000001D01*
G01*
X232895401Y-39800003D02*
G75*
G02*
X230917717Y-37800128I22315J1999875D01*
G01*
X230917717Y-37700128D02*
X230917717Y-37800128D01*
X223917717Y-37700128D02*
G75*
G02*
X230917717Y-37700128I3500000J0D01*
G01*
X223917717Y-37800129D02*
X223917717Y-37700129D01*
X223917716Y-37800129D02*
G75*
G02*
X221940032Y-39800004I-1999999J0D01*
G01*
X137645401Y-39800004D02*
X221940032Y-39800004D01*
X137645401Y-39800003D02*
G75*
G02*
X135667717Y-37800128I22315J1999875D01*
G01*
X135667717Y-37700129D02*
X135667717Y-37800128D01*
X128667717Y-37700129D02*
G75*
G02*
X135667717Y-37700129I3500000J0D01*
G01*
X128667717Y-37800129D02*
X128667717Y-37700129D01*
X128667717Y-37800128D02*
G75*
G02*
X126690032Y-39800004I-2000000J0D01*
G01*
X42395401Y-39800004D02*
X126690032Y-39800004D01*
X42395401Y-39800003D02*
G75*
G02*
X40417717Y-37800128I22315J1999875D01*
G01*
X40417717Y-37700129D02*
X40417717Y-37800128D01*
X33417717Y-37700129D02*
G75*
G02*
X40417717Y-37700129I3500000J0D01*
G01*
X33417717Y-37800129D02*
X33417717Y-37700129D01*
X33417717Y-37800127D02*
G75*
G02*
X31440032Y-39800004I-2000001J-1D01*
G01*
X-8733457Y-39800004D02*
X31440032Y-39800004D01*
D11*
X157095058Y-44530039D02*
G75*
G03*
X157095058Y-44530039I-1123235J0D01*
G01*
X109470058Y-44530039D02*
G75*
G03*
X109470058Y-44530039I-1123235J0D01*
G01*
X109470058Y-129660084D02*
G75*
G03*
X109470058Y-129660084I-1123235J0D01*
G01*
X157095110Y-129659607D02*
G75*
G03*
X157095110Y-129659607I-1123235J0D01*
G01*
X155971875Y-48577500D02*
X155971927Y-125729996D01*
X108346927Y-125729996D02*
X108346875Y-48577500D01*
X108346927Y-125729996D02*
G75*
G02*
X112395052Y-129778121I0J-4048125D01*
G01*
X151923802Y-129778121D02*
G75*
G02*
X155971927Y-125729996I4048125J0D01*
G01*
X112395052Y-129778121D02*
X151923802Y-129778121D01*
X151923750Y-44529375D02*
X112395000Y-44529375D01*
X155971875Y-48577500D02*
G75*
G02*
X151923750Y-44529375I0J4048125D01*
G01*
X112395000Y-44529375D02*
G75*
G02*
X108346875Y-48577500I-4048125J0D01*
G01*
X5953125Y-42148125D02*
X-8334375Y-42148125D01*
X-8334375Y-42148125D02*
X-8334375Y-56435625D01*
X44053125Y-61198125D02*
X29765625Y-61198125D01*
X10715625Y-75485625D02*
X25003125Y-75485625D01*
X82153125Y-42148125D02*
X82153125Y-56435625D01*
X82153125Y-56435625D02*
X67865625Y-56435625D01*
X-8334375Y-113585625D02*
X5953125Y-113585625D01*
X5953125Y-99298125D02*
X-8334375Y-99298125D01*
X48815625Y-56435625D02*
X48815625Y-42148125D01*
X48815625Y-42148125D02*
X63103125Y-42148125D01*
X44053125Y-42148125D02*
X29765625Y-42148125D01*
X29765625Y-42148125D02*
X29765625Y-56435625D01*
X29765625Y-56435625D02*
X44053125Y-56435625D01*
X44053125Y-56435625D02*
X44053125Y-42148125D01*
X25003125Y-42148125D02*
X10715625Y-42148125D01*
X10715625Y-42148125D02*
X10715625Y-56435625D01*
X67865625Y-56435625D02*
X67865625Y-42148125D01*
X67865625Y-42148125D02*
X82153125Y-42148125D01*
X-8334375Y-56435625D02*
X5953125Y-56435625D01*
X-8334375Y-75485625D02*
X5953125Y-75485625D01*
X10715625Y-56435625D02*
X25003125Y-56435625D01*
X25003125Y-56435625D02*
X25003125Y-42148125D01*
X5953125Y-56435625D02*
X5953125Y-42148125D01*
X101203125Y-132635625D02*
X101203125Y-118348125D01*
X70246761Y-118348233D02*
X67865509Y-118348233D01*
X75009265Y-117157607D02*
X75009265Y-118348233D01*
X98821785Y-117157607D02*
X98821785Y-118348233D01*
X70246761Y-118348233D02*
X70246761Y-117157607D01*
X101203125Y-118348125D02*
X98821785Y-118348233D01*
X94059281Y-118348233D02*
X94059281Y-117157607D01*
X101203125Y-61198125D02*
X86915625Y-61198125D01*
X82153125Y-61198125D02*
X82153125Y-75485625D01*
X86915625Y-75485625D02*
X101203125Y-75485625D01*
X48815625Y-61198125D02*
X63103125Y-61198125D01*
X86915625Y-80248125D02*
X86915625Y-94535625D01*
X29765625Y-61198125D02*
X29765625Y-75485625D01*
X101203125Y-75485625D02*
X101203125Y-61198125D01*
X-8334375Y-61198125D02*
X-8334375Y-75485625D01*
X-8334375Y-94535713D02*
X5953125Y-94535713D01*
X29765625Y-94535625D02*
X44053125Y-94535625D01*
X25003125Y-94535625D02*
X25003125Y-80248125D01*
X101203125Y-42148125D02*
X86915625Y-42148125D01*
X10715625Y-80248125D02*
X10715625Y-94535625D01*
X5953125Y-94535625D02*
X5953125Y-80248125D01*
X5953125Y-75485625D02*
X5953125Y-61198125D01*
X67865625Y-99298125D02*
X82153125Y-99298125D01*
X29765625Y-132635625D02*
X44053125Y-132635625D01*
X10715625Y-113585625D02*
X25003125Y-113585625D01*
X82153125Y-99298125D02*
X82153125Y-113585625D01*
X101203125Y-113585625D02*
X101203125Y-99298125D01*
X63103125Y-99298125D02*
X63103125Y-113585625D01*
X29765625Y-80248125D02*
X29765625Y-94535625D01*
X29765625Y-99298125D02*
X29765625Y-113585625D01*
X82153125Y-94535625D02*
X67865625Y-94535625D01*
X86915625Y-99298125D02*
X86915625Y-113585625D01*
X101203125Y-94535625D02*
X101203125Y-80248125D01*
X29765625Y-113585625D02*
X44053125Y-113585625D01*
X94059281Y-118348233D02*
X75009265Y-118348233D01*
X63103125Y-113585625D02*
X48815625Y-113585625D01*
X10715625Y-118348125D02*
X10715625Y-132635625D01*
X44053125Y-113585625D02*
X44053125Y-99298125D01*
X44053125Y-132635625D02*
X44053125Y-118348125D01*
X25003125Y-113585625D02*
X25003125Y-99298125D01*
X48815625Y-132635625D02*
X48815625Y-118348125D01*
X67865625Y-113585625D02*
X67865625Y-99298125D01*
X63103125Y-132635625D02*
X48815625Y-132635625D01*
X82153125Y-113585625D02*
X67865625Y-113585625D01*
X10715625Y-132635625D02*
X25003125Y-132635625D01*
X48815625Y-99298125D02*
X63103125Y-99298125D01*
X25003125Y-132635625D02*
X25003125Y-118348125D01*
X48815625Y-113585625D02*
X48815625Y-99298125D01*
X48815625Y-94535625D02*
X48815625Y-80248125D01*
X63103125Y-80248125D02*
X63103125Y-94535625D01*
X48815625Y-80248125D02*
X63103125Y-80248125D01*
X25003125Y-99298125D02*
X10715625Y-99298125D01*
X63103125Y-56435625D02*
X48815625Y-56435625D01*
X101203125Y-99298125D02*
X86915625Y-99298125D01*
X44053125Y-99298125D02*
X29765625Y-99298125D01*
X82153125Y-80248125D02*
X82153125Y-94535625D01*
X25003125Y-80248125D02*
X10715625Y-80248125D01*
X63103125Y-42148125D02*
X63103125Y-56435625D01*
X67865625Y-132635625D02*
X67865625Y-118348125D01*
X86915625Y-42148125D02*
X86915625Y-56435625D01*
X86915625Y-56435625D02*
X101203125Y-56435625D01*
X67865625Y-132635625D02*
X101203125Y-132635625D01*
X86915625Y-61198125D02*
X86915625Y-75485625D01*
X67865625Y-61198125D02*
X82153125Y-61198125D01*
X63103125Y-75485625D02*
X48815625Y-75485625D01*
X5953125Y-132635625D02*
X5953125Y-118348125D01*
X63103125Y-118348125D02*
X63103125Y-132635625D01*
X94059281Y-117157607D02*
X98821785Y-117157607D01*
X86915625Y-113585625D02*
X101203125Y-113585625D01*
X10715625Y-99298125D02*
X10715625Y-113585625D01*
X29765625Y-118348125D02*
X29765625Y-132635625D01*
X25003125Y-118348125D02*
X10715625Y-118348125D01*
X44053125Y-118348125D02*
X29765625Y-118348125D01*
X70246761Y-117157607D02*
X75009265Y-117157607D01*
X-8334375Y-118348125D02*
X-8334375Y-132635625D01*
X5953125Y-118348125D02*
X-8334375Y-118348125D01*
X-8334375Y-132635625D02*
X5953125Y-132635625D01*
X5953125Y-61198125D02*
X-8334375Y-61198125D01*
X-8334375Y-80248125D02*
X-8334375Y-94535625D01*
X5953125Y-80248125D02*
X-8334375Y-80248125D01*
X101203125Y-56435625D02*
X101203125Y-42148125D01*
X63103125Y-61198125D02*
X63103125Y-75485625D01*
X67865625Y-80248125D02*
X82153125Y-80248125D01*
X44053125Y-80248125D02*
X29765625Y-80248125D01*
X48815625Y-75485625D02*
X48815625Y-61198125D01*
X67865625Y-94535625D02*
X67865625Y-80248125D01*
X101203125Y-80248125D02*
X86915625Y-80248125D01*
X44053125Y-94535625D02*
X44053125Y-80248125D01*
X86915625Y-94535625D02*
X101203125Y-94535625D01*
X63103125Y-94535625D02*
X48815625Y-94535625D01*
X67865625Y-75485625D02*
X67865625Y-61198125D01*
X25003125Y-61198125D02*
X10715625Y-61198125D01*
X10715625Y-61198125D02*
X10715625Y-75485625D01*
X5953125Y-113585625D02*
X5953125Y-99298125D01*
X-8334375Y-99298125D02*
X-8334375Y-113585625D01*
X10715625Y-94535625D02*
X25003125Y-94535625D01*
X44053125Y-75485625D02*
X44053125Y-61198125D01*
X29765625Y-75485625D02*
X44053125Y-75485625D01*
X25003125Y-75485625D02*
X25003125Y-61198125D01*
X82153125Y-75485625D02*
X67865625Y-75485625D01*
X48815625Y-118348125D02*
X63103125Y-118348125D01*
X163115625Y-132635625D02*
X163115625Y-118348125D01*
X196453125Y-132635625D02*
X196453125Y-118348125D01*
X194071989Y-118348233D02*
X194071989Y-117157607D01*
X165496965Y-117157607D02*
X165496965Y-118348233D01*
X189309485Y-117157607D02*
X189309485Y-118348233D01*
X194071989Y-118348233D02*
X196453241Y-118348233D01*
X170259469Y-117157607D02*
X165496965Y-117157607D01*
X163115625Y-118348125D02*
X165496965Y-118348233D01*
X196453125Y-132635625D02*
X163115625Y-132635625D01*
X201215625Y-118348125D02*
X201215625Y-132635625D01*
X234553125Y-132635625D02*
X220265625Y-132635625D01*
X170259469Y-118348233D02*
X170259469Y-117157607D01*
X194071989Y-117157607D02*
X189309485Y-117157607D01*
X239315625Y-118348125D02*
X253603125Y-118348125D01*
X234553125Y-118348125D02*
X234553125Y-132635625D01*
X215503125Y-118348125D02*
X201215625Y-118348125D01*
X220265625Y-118348125D02*
X234553125Y-118348125D01*
X258365625Y-132635625D02*
X258365625Y-118348125D01*
X239315625Y-132635625D02*
X239315625Y-118348125D01*
X253603125Y-132635625D02*
X239315625Y-132635625D01*
X201215625Y-132635625D02*
X215503125Y-132635625D01*
X215503125Y-132635625D02*
X215503125Y-118348125D01*
X220265625Y-132635625D02*
X220265625Y-118348125D01*
X253603125Y-118348125D02*
X253603125Y-132635625D01*
X170259469Y-118348233D02*
X189309485Y-118348233D01*
X163115625Y-94535625D02*
X163115625Y-80248125D01*
X182165625Y-94535625D02*
X196453125Y-94535625D01*
X234553125Y-80248125D02*
X234553125Y-94535625D01*
X163115625Y-113585625D02*
X163115625Y-99298125D01*
X253603125Y-99298125D02*
X253603125Y-113585625D01*
X177403125Y-113585625D02*
X163115625Y-113585625D01*
X163115625Y-99298125D02*
X177403125Y-99298125D01*
X215503125Y-113585625D02*
X215503125Y-99298125D01*
X215503125Y-99298125D02*
X201215625Y-99298125D01*
X182165625Y-113585625D02*
X196453125Y-113585625D01*
X196453125Y-113585625D02*
X196453125Y-99298125D01*
X239315625Y-113585625D02*
X239315625Y-99298125D01*
X220265625Y-113585625D02*
X220265625Y-99298125D01*
X201215625Y-113585625D02*
X215503125Y-113585625D01*
X234553125Y-113585625D02*
X220265625Y-113585625D01*
X177403125Y-99298125D02*
X177403125Y-113585625D01*
X234553125Y-99298125D02*
X234553125Y-113585625D01*
X201215625Y-99298125D02*
X201215625Y-113585625D01*
X182165625Y-99298125D02*
X182165625Y-113585625D01*
X220265625Y-99298125D02*
X234553125Y-99298125D01*
X239315625Y-99298125D02*
X253603125Y-99298125D01*
X253603125Y-113585625D02*
X239315625Y-113585625D01*
X196453125Y-99298125D02*
X182165625Y-99298125D01*
X258365625Y-113585625D02*
X258365625Y-99298125D01*
X177403125Y-94535625D02*
X163115625Y-94535625D01*
X220265625Y-94535625D02*
X220265625Y-80248125D01*
X163115625Y-80248125D02*
X177403125Y-80248125D01*
X239315625Y-80248125D02*
X253603125Y-80248125D01*
X182165625Y-80248125D02*
X182165625Y-94535625D01*
X215503125Y-80248125D02*
X201215625Y-80248125D01*
X201215625Y-80248125D02*
X201215625Y-94535625D01*
X215503125Y-94535625D02*
X215503125Y-80248125D01*
X196453125Y-94535625D02*
X196453125Y-80248125D01*
X201215625Y-94535625D02*
X215503125Y-94535625D01*
X258365625Y-94535625D02*
X258365625Y-80248125D01*
X253603125Y-80248125D02*
X253603125Y-94535625D01*
X177403125Y-75485625D02*
X163115625Y-75485625D01*
X163115625Y-61198125D02*
X177403125Y-61198125D01*
X220265625Y-75485625D02*
X220265625Y-61198125D01*
X253603125Y-61198125D02*
X253603125Y-75485625D01*
X258365625Y-75485625D02*
X258365625Y-61198125D01*
X182165625Y-61198125D02*
X182165625Y-75485625D01*
X258365625Y-56435625D02*
X258365625Y-42148125D01*
X239315625Y-56435625D02*
X239315625Y-42148125D01*
X253603125Y-56435625D02*
X239315625Y-56435625D01*
X253603125Y-42148125D02*
X253603125Y-56435625D01*
X239315625Y-42148125D02*
X253603125Y-42148125D01*
X220265625Y-56435625D02*
X220265625Y-42148125D01*
X234553125Y-56435625D02*
X220265625Y-56435625D01*
X234553125Y-42148125D02*
X234553125Y-56435625D01*
X220265625Y-42148125D02*
X234553125Y-42148125D01*
X215503125Y-42148125D02*
X201215625Y-42148125D01*
X215503125Y-56435625D02*
X215503125Y-42148125D01*
X201215625Y-56435625D02*
X215503125Y-56435625D01*
X201215625Y-42148125D02*
X201215625Y-56435625D01*
X196453125Y-42148125D02*
X182165625Y-42148125D01*
X196453125Y-56435625D02*
X196453125Y-42148125D01*
X182165625Y-56435625D02*
X196453125Y-56435625D01*
X182165625Y-42148125D02*
X182165625Y-56435625D01*
X163115625Y-56435625D02*
X163115625Y-42148125D01*
X177403125Y-56435625D02*
X163115625Y-56435625D01*
X177403125Y-42148125D02*
X177403125Y-56435625D01*
X163115625Y-42148125D02*
X177403125Y-42148125D01*
X239315625Y-94535625D02*
X239315625Y-80248125D01*
X234553125Y-94535625D02*
X220265625Y-94535625D01*
X253603125Y-94535625D02*
X239315625Y-94535625D01*
X220265625Y-80248125D02*
X234553125Y-80248125D01*
X196453125Y-80248125D02*
X182165625Y-80248125D01*
X177403125Y-80248125D02*
X177403125Y-94535625D01*
X182165625Y-75485625D02*
X196453125Y-75485625D01*
X215503125Y-75485625D02*
X215503125Y-61198125D01*
X201215625Y-61198125D02*
X201215625Y-75485625D01*
X201215625Y-75485625D02*
X215503125Y-75485625D01*
X163115625Y-75485625D02*
X163115625Y-61198125D01*
X234553125Y-61198125D02*
X234553125Y-75485625D01*
X215503125Y-61198125D02*
X201215625Y-61198125D01*
X239315625Y-61198125D02*
X253603125Y-61198125D01*
X196453125Y-75485625D02*
X196453125Y-61198125D01*
X196453125Y-61198125D02*
X182165625Y-61198125D01*
X177403125Y-61198125D02*
X177403125Y-75485625D01*
X253603125Y-75485625D02*
X239315625Y-75485625D01*
X220265625Y-61198125D02*
X234553125Y-61198125D01*
X239315625Y-75485625D02*
X239315625Y-61198125D01*
X234553125Y-75485625D02*
X220265625Y-75485625D01*
X258365625Y-80248125D02*
X272653125Y-80248125D01*
X272653125Y-80248125D02*
X272653125Y-94535625D01*
X272653125Y-94535713D02*
X258365625Y-94535713D01*
X272653125Y-61198125D02*
X272653125Y-75485625D01*
X272653125Y-75485625D02*
X258365625Y-75485625D01*
X272653125Y-56435625D02*
X258365625Y-56435625D01*
X272653125Y-42148125D02*
X272653125Y-56435625D01*
X258365625Y-42148125D02*
X272653125Y-42148125D01*
X258365625Y-61198125D02*
X272653125Y-61198125D01*
X272653125Y-132635625D02*
X258365625Y-132635625D01*
X258365625Y-118348125D02*
X272653125Y-118348125D01*
X272653125Y-118348125D02*
X272653125Y-132635625D01*
X258365625Y-99298125D02*
X272653125Y-99298125D01*
X272653125Y-113585625D02*
X258365625Y-113585625D01*
X272653125Y-99298125D02*
X272653125Y-113585625D01*
M02*
