%TF.GenerationSoftware,KiCad,Pcbnew,(5.1.10-1-10_14)*%
%TF.CreationDate,2021-09-18T15:35:40+02:00*%
%TF.ProjectId,brutal60-split,62727574-616c-4363-902d-73706c69742e,rev?*%
%TF.SameCoordinates,Original*%
%TF.FileFunction,Copper,L1,Top*%
%TF.FilePolarity,Positive*%
%FSLAX46Y46*%
G04 Gerber Fmt 4.6, Leading zero omitted, Abs format (unit mm)*
G04 Created by KiCad (PCBNEW (5.1.10-1-10_14)) date 2021-09-18 15:35:40*
%MOMM*%
%LPD*%
G01*
G04 APERTURE LIST*
%TA.AperFunction,ViaPad*%
%ADD10C,0.600000*%
%TD*%
%TA.AperFunction,NonConductor*%
%ADD11C,0.254000*%
%TD*%
%TA.AperFunction,NonConductor*%
%ADD12C,0.100000*%
%TD*%
G04 APERTURE END LIST*
D10*
%TO.N,*%
X8334375Y-58816875D03*
%TD*%
D11*
X37435165Y-34987567D02*
X37952185Y-35139735D01*
X38429797Y-35389424D01*
X38849821Y-35727132D01*
X39196249Y-36139989D01*
X39455887Y-36612269D01*
X39618849Y-37125988D01*
X39682663Y-37694906D01*
X39682717Y-37702678D01*
X39682717Y-37836233D01*
X39686170Y-37871288D01*
X39722561Y-38250594D01*
X39735218Y-38315227D01*
X39746834Y-38380041D01*
X39749690Y-38389897D01*
X39860947Y-38764038D01*
X39886091Y-38825773D01*
X39910339Y-38887772D01*
X39915055Y-38896886D01*
X40096864Y-39242291D01*
X40133499Y-39297935D01*
X40169350Y-39354078D01*
X40175747Y-39362103D01*
X40421183Y-39665616D01*
X40467958Y-39713113D01*
X40514001Y-39761193D01*
X40521834Y-39767822D01*
X40821547Y-40017882D01*
X40876635Y-40055375D01*
X40931162Y-40093611D01*
X40940134Y-40098593D01*
X41282711Y-40285677D01*
X41344018Y-40311750D01*
X41404948Y-40338673D01*
X41414717Y-40341817D01*
X41787106Y-40458797D01*
X41852351Y-40472474D01*
X41917307Y-40487040D01*
X41927501Y-40488227D01*
X42247505Y-40523213D01*
X42251316Y-40524369D01*
X42359296Y-40535004D01*
X102867207Y-40535004D01*
X102867208Y-134315129D01*
X42381612Y-134315129D01*
X42349523Y-134318290D01*
X42337138Y-134318203D01*
X42326925Y-134319204D01*
X41938732Y-134360005D01*
X41873412Y-134373414D01*
X41808040Y-134385884D01*
X41798216Y-134388849D01*
X41425341Y-134504273D01*
X41363922Y-134530091D01*
X41302164Y-134555043D01*
X41293103Y-134559861D01*
X40949748Y-134745512D01*
X40894485Y-134782787D01*
X40838776Y-134819242D01*
X40830823Y-134825728D01*
X40530068Y-135074535D01*
X40483091Y-135121841D01*
X40435534Y-135168412D01*
X40428992Y-135176319D01*
X40182291Y-135478804D01*
X40145412Y-135534312D01*
X40107790Y-135589257D01*
X40102909Y-135598284D01*
X39919659Y-135942926D01*
X39894263Y-136004542D01*
X39868030Y-136065747D01*
X39864995Y-136075550D01*
X39752177Y-136449222D01*
X39739229Y-136514614D01*
X39725388Y-136579730D01*
X39724315Y-136589936D01*
X39686225Y-136978405D01*
X39682717Y-137014025D01*
X39682717Y-137114183D01*
X39626601Y-137686501D01*
X39470829Y-138202442D01*
X39217808Y-138678307D01*
X38877176Y-139095963D01*
X38461917Y-139439495D01*
X37987832Y-139695831D01*
X37472990Y-139855201D01*
X36936993Y-139911537D01*
X36400269Y-139862691D01*
X35883249Y-139710523D01*
X35405634Y-139460832D01*
X34985610Y-139123124D01*
X34639185Y-138710269D01*
X34379547Y-138237990D01*
X34216585Y-137724270D01*
X34152771Y-137155352D01*
X34152717Y-137147580D01*
X34152717Y-137014025D01*
X34149556Y-136981935D01*
X34149643Y-136969550D01*
X34148730Y-136960230D01*
X35119860Y-136960230D01*
X35119860Y-137323874D01*
X35190804Y-137680530D01*
X35329964Y-138016493D01*
X35531994Y-138318852D01*
X35789128Y-138575986D01*
X36091487Y-138778016D01*
X36427450Y-138917176D01*
X36784106Y-138988120D01*
X37147750Y-138988120D01*
X37504406Y-138917176D01*
X37840369Y-138778016D01*
X38142728Y-138575986D01*
X38399862Y-138318852D01*
X38601892Y-138016493D01*
X38741052Y-137680530D01*
X38811996Y-137323874D01*
X38811996Y-136960230D01*
X38741052Y-136603574D01*
X38601892Y-136267611D01*
X38399862Y-135965252D01*
X38142728Y-135708118D01*
X37840369Y-135506088D01*
X37504406Y-135366928D01*
X37147750Y-135295984D01*
X36784106Y-135295984D01*
X36427450Y-135366928D01*
X36091487Y-135506088D01*
X35789128Y-135708118D01*
X35531994Y-135965252D01*
X35329964Y-136267611D01*
X35190804Y-136603574D01*
X35119860Y-136960230D01*
X34148730Y-136960230D01*
X34148642Y-136959337D01*
X34107841Y-136571144D01*
X34094445Y-136505886D01*
X34081963Y-136440452D01*
X34078997Y-136430628D01*
X33963573Y-136057752D01*
X33937740Y-135996297D01*
X33912802Y-135934574D01*
X33907985Y-135925513D01*
X33722334Y-135582159D01*
X33685054Y-135526889D01*
X33648605Y-135471189D01*
X33642119Y-135463236D01*
X33393312Y-135162480D01*
X33346006Y-135115503D01*
X33299434Y-135067945D01*
X33291527Y-135061403D01*
X32989042Y-134814702D01*
X32933500Y-134777800D01*
X32878588Y-134740201D01*
X32869561Y-134735319D01*
X32524919Y-134552070D01*
X32463287Y-134526667D01*
X32402098Y-134500441D01*
X32392299Y-134497407D01*
X32392293Y-134497405D01*
X32018623Y-134384588D01*
X31953231Y-134371640D01*
X31888115Y-134357799D01*
X31877909Y-134356726D01*
X31489440Y-134318636D01*
X31489419Y-134318636D01*
X31453822Y-134315130D01*
X-8697512Y-134315128D01*
X-8978478Y-134287580D01*
X-9214164Y-134216421D01*
X-9431546Y-134100838D01*
X-9622337Y-133945232D01*
X-9779268Y-133755537D01*
X-9896363Y-133538972D01*
X-9969166Y-133303785D01*
X-9998457Y-133025101D01*
X-9998457Y-118348125D01*
X-9022689Y-118348125D01*
X-9019375Y-118381772D01*
X-9019374Y-132601968D01*
X-9022689Y-132635625D01*
X-9009463Y-132769908D01*
X-8970294Y-132899031D01*
X-8906687Y-133018032D01*
X-8821086Y-133122336D01*
X-8716782Y-133207937D01*
X-8597781Y-133271544D01*
X-8468658Y-133310713D01*
X-8368022Y-133320625D01*
X-8334375Y-133323939D01*
X-8300728Y-133320625D01*
X5919478Y-133320625D01*
X5953125Y-133323939D01*
X5986772Y-133320625D01*
X6087408Y-133310713D01*
X6216531Y-133271544D01*
X6335532Y-133207937D01*
X6439836Y-133122336D01*
X6525437Y-133018032D01*
X6589044Y-132899031D01*
X6628213Y-132769908D01*
X6641439Y-132635625D01*
X6638125Y-132601978D01*
X6638125Y-118381772D01*
X6641439Y-118348125D01*
X10027311Y-118348125D01*
X10030625Y-118381772D01*
X10030626Y-132601968D01*
X10027311Y-132635625D01*
X10040537Y-132769908D01*
X10079706Y-132899031D01*
X10143313Y-133018032D01*
X10228914Y-133122336D01*
X10333218Y-133207937D01*
X10452219Y-133271544D01*
X10581342Y-133310713D01*
X10681978Y-133320625D01*
X10715625Y-133323939D01*
X10749272Y-133320625D01*
X24969478Y-133320625D01*
X25003125Y-133323939D01*
X25036772Y-133320625D01*
X25137408Y-133310713D01*
X25266531Y-133271544D01*
X25385532Y-133207937D01*
X25489836Y-133122336D01*
X25575437Y-133018032D01*
X25639044Y-132899031D01*
X25678213Y-132769908D01*
X25691439Y-132635625D01*
X25688125Y-132601978D01*
X25688125Y-118381772D01*
X25691439Y-118348125D01*
X29077311Y-118348125D01*
X29080625Y-118381772D01*
X29080626Y-132601968D01*
X29077311Y-132635625D01*
X29090537Y-132769908D01*
X29129706Y-132899031D01*
X29193313Y-133018032D01*
X29278914Y-133122336D01*
X29383218Y-133207937D01*
X29502219Y-133271544D01*
X29631342Y-133310713D01*
X29731978Y-133320625D01*
X29765625Y-133323939D01*
X29799272Y-133320625D01*
X44019478Y-133320625D01*
X44053125Y-133323939D01*
X44086772Y-133320625D01*
X44187408Y-133310713D01*
X44316531Y-133271544D01*
X44435532Y-133207937D01*
X44539836Y-133122336D01*
X44625437Y-133018032D01*
X44689044Y-132899031D01*
X44728213Y-132769908D01*
X44741439Y-132635625D01*
X44738125Y-132601978D01*
X44738125Y-118381772D01*
X44741439Y-118348125D01*
X48127311Y-118348125D01*
X48130626Y-118381782D01*
X48130625Y-132601978D01*
X48127311Y-132635625D01*
X48140537Y-132769908D01*
X48179706Y-132899031D01*
X48243313Y-133018032D01*
X48328914Y-133122336D01*
X48416497Y-133194214D01*
X48433218Y-133207937D01*
X48552219Y-133271544D01*
X48681342Y-133310713D01*
X48815625Y-133323939D01*
X48849272Y-133320625D01*
X63069478Y-133320625D01*
X63103125Y-133323939D01*
X63237408Y-133310713D01*
X63366531Y-133271544D01*
X63485532Y-133207937D01*
X63589836Y-133122336D01*
X63675437Y-133018032D01*
X63739044Y-132899031D01*
X63778213Y-132769908D01*
X63788125Y-132669272D01*
X63788125Y-132669271D01*
X63791439Y-132635625D01*
X63788125Y-132601978D01*
X63788125Y-118381772D01*
X63791428Y-118348233D01*
X67177195Y-118348233D01*
X67180626Y-118383068D01*
X67180625Y-132601978D01*
X67177311Y-132635625D01*
X67190537Y-132769908D01*
X67229706Y-132899031D01*
X67293313Y-133018032D01*
X67378914Y-133122336D01*
X67466497Y-133194214D01*
X67483218Y-133207937D01*
X67602219Y-133271544D01*
X67731342Y-133310713D01*
X67865625Y-133323939D01*
X67899272Y-133320625D01*
X101169478Y-133320625D01*
X101203125Y-133323939D01*
X101236772Y-133320625D01*
X101337408Y-133310713D01*
X101466531Y-133271544D01*
X101585532Y-133207937D01*
X101689836Y-133122336D01*
X101775437Y-133018032D01*
X101839044Y-132899031D01*
X101878213Y-132769908D01*
X101891439Y-132635625D01*
X101888125Y-132601978D01*
X101888125Y-118381749D01*
X101891438Y-118348094D01*
X101887002Y-118303080D01*
X101878213Y-118213842D01*
X101878207Y-118213822D01*
X101878206Y-118213812D01*
X101863531Y-118165440D01*
X101839044Y-118084719D01*
X101839036Y-118084704D01*
X101839032Y-118084691D01*
X101814216Y-118038268D01*
X101775437Y-117965718D01*
X101775424Y-117965702D01*
X101775419Y-117965693D01*
X101746541Y-117930509D01*
X101689836Y-117861414D01*
X101689821Y-117861402D01*
X101689813Y-117861392D01*
X101646142Y-117825555D01*
X101585532Y-117775813D01*
X101585517Y-117775805D01*
X101585506Y-117775796D01*
X101536944Y-117749842D01*
X101466531Y-117712206D01*
X101466512Y-117712200D01*
X101466502Y-117712195D01*
X101415767Y-117696807D01*
X101337408Y-117673037D01*
X101337391Y-117673035D01*
X101337377Y-117673031D01*
X101279098Y-117667294D01*
X101203125Y-117659811D01*
X101169458Y-117663127D01*
X99506785Y-117663202D01*
X99506785Y-117191254D01*
X99510099Y-117157607D01*
X99496873Y-117023324D01*
X99457704Y-116894201D01*
X99394097Y-116775200D01*
X99308496Y-116670896D01*
X99204192Y-116585295D01*
X99085191Y-116521688D01*
X98956068Y-116482519D01*
X98855432Y-116472607D01*
X98821785Y-116469293D01*
X98788138Y-116472607D01*
X94092928Y-116472607D01*
X94059281Y-116469293D01*
X94025634Y-116472607D01*
X93924998Y-116482519D01*
X93795875Y-116521688D01*
X93676874Y-116585295D01*
X93572570Y-116670896D01*
X93486969Y-116775200D01*
X93423362Y-116894201D01*
X93384193Y-117023324D01*
X93370967Y-117157607D01*
X93374282Y-117191264D01*
X93374282Y-117663233D01*
X75694265Y-117663233D01*
X75694265Y-117191254D01*
X75697579Y-117157607D01*
X75684353Y-117023324D01*
X75645184Y-116894201D01*
X75581577Y-116775200D01*
X75495976Y-116670896D01*
X75391672Y-116585295D01*
X75272671Y-116521688D01*
X75143548Y-116482519D01*
X75042912Y-116472607D01*
X75009265Y-116469293D01*
X74975618Y-116472607D01*
X70280408Y-116472607D01*
X70246761Y-116469293D01*
X70213114Y-116472607D01*
X70112478Y-116482519D01*
X69983355Y-116521688D01*
X69864354Y-116585295D01*
X69760050Y-116670896D01*
X69674449Y-116775200D01*
X69610842Y-116894201D01*
X69571673Y-117023324D01*
X69558447Y-117157607D01*
X69561762Y-117191264D01*
X69561762Y-117663233D01*
X67900368Y-117663233D01*
X67865625Y-117659811D01*
X67731343Y-117673037D01*
X67602220Y-117712206D01*
X67483219Y-117775813D01*
X67378915Y-117861414D01*
X67378885Y-117861451D01*
X67378798Y-117861522D01*
X67293197Y-117965826D01*
X67229590Y-118084827D01*
X67190421Y-118213950D01*
X67177195Y-118348233D01*
X63791428Y-118348233D01*
X63791439Y-118348125D01*
X63778213Y-118213842D01*
X63739044Y-118084719D01*
X63675437Y-117965718D01*
X63589836Y-117861414D01*
X63485532Y-117775813D01*
X63366531Y-117712206D01*
X63237408Y-117673037D01*
X63136772Y-117663125D01*
X63103125Y-117659811D01*
X63069478Y-117663125D01*
X48849272Y-117663125D01*
X48815625Y-117659811D01*
X48781978Y-117663125D01*
X48681342Y-117673037D01*
X48552219Y-117712206D01*
X48433218Y-117775813D01*
X48328914Y-117861414D01*
X48243313Y-117965718D01*
X48179706Y-118084719D01*
X48140537Y-118213842D01*
X48127311Y-118348125D01*
X44741439Y-118348125D01*
X44728213Y-118213842D01*
X44689044Y-118084719D01*
X44625437Y-117965718D01*
X44539836Y-117861414D01*
X44435532Y-117775813D01*
X44316531Y-117712206D01*
X44187408Y-117673037D01*
X44086772Y-117663125D01*
X44053125Y-117659811D01*
X44019478Y-117663125D01*
X29799272Y-117663125D01*
X29765625Y-117659811D01*
X29731978Y-117663125D01*
X29631342Y-117673037D01*
X29502219Y-117712206D01*
X29383218Y-117775813D01*
X29278914Y-117861414D01*
X29193313Y-117965718D01*
X29129706Y-118084719D01*
X29090537Y-118213842D01*
X29077311Y-118348125D01*
X25691439Y-118348125D01*
X25678213Y-118213842D01*
X25639044Y-118084719D01*
X25575437Y-117965718D01*
X25489836Y-117861414D01*
X25385532Y-117775813D01*
X25266531Y-117712206D01*
X25137408Y-117673037D01*
X25036772Y-117663125D01*
X25003125Y-117659811D01*
X24969478Y-117663125D01*
X10749272Y-117663125D01*
X10715625Y-117659811D01*
X10681978Y-117663125D01*
X10581342Y-117673037D01*
X10452219Y-117712206D01*
X10333218Y-117775813D01*
X10228914Y-117861414D01*
X10143313Y-117965718D01*
X10079706Y-118084719D01*
X10040537Y-118213842D01*
X10027311Y-118348125D01*
X6641439Y-118348125D01*
X6628213Y-118213842D01*
X6589044Y-118084719D01*
X6525437Y-117965718D01*
X6439836Y-117861414D01*
X6335532Y-117775813D01*
X6216531Y-117712206D01*
X6087408Y-117673037D01*
X5986772Y-117663125D01*
X5953125Y-117659811D01*
X5919478Y-117663125D01*
X-8300728Y-117663125D01*
X-8334375Y-117659811D01*
X-8368022Y-117663125D01*
X-8468658Y-117673037D01*
X-8597781Y-117712206D01*
X-8716782Y-117775813D01*
X-8821086Y-117861414D01*
X-8906687Y-117965718D01*
X-8970294Y-118084719D01*
X-9009463Y-118213842D01*
X-9022689Y-118348125D01*
X-9998457Y-118348125D01*
X-9998457Y-99298125D01*
X-9022689Y-99298125D01*
X-9019375Y-99331772D01*
X-9019374Y-113551968D01*
X-9022689Y-113585625D01*
X-9009463Y-113719908D01*
X-8970294Y-113849031D01*
X-8906687Y-113968032D01*
X-8821086Y-114072336D01*
X-8716782Y-114157937D01*
X-8597781Y-114221544D01*
X-8468658Y-114260713D01*
X-8368022Y-114270625D01*
X-8334375Y-114273939D01*
X-8300728Y-114270625D01*
X5919478Y-114270625D01*
X5953125Y-114273939D01*
X5986772Y-114270625D01*
X6087408Y-114260713D01*
X6216531Y-114221544D01*
X6335532Y-114157937D01*
X6439836Y-114072336D01*
X6525437Y-113968032D01*
X6589044Y-113849031D01*
X6628213Y-113719908D01*
X6641439Y-113585625D01*
X6638125Y-113551978D01*
X6638125Y-99331772D01*
X6641439Y-99298125D01*
X10027311Y-99298125D01*
X10030625Y-99331772D01*
X10030626Y-113551968D01*
X10027311Y-113585625D01*
X10040537Y-113719908D01*
X10079706Y-113849031D01*
X10143313Y-113968032D01*
X10228914Y-114072336D01*
X10333218Y-114157937D01*
X10452219Y-114221544D01*
X10581342Y-114260713D01*
X10681978Y-114270625D01*
X10715625Y-114273939D01*
X10749272Y-114270625D01*
X24969478Y-114270625D01*
X25003125Y-114273939D01*
X25036772Y-114270625D01*
X25137408Y-114260713D01*
X25266531Y-114221544D01*
X25385532Y-114157937D01*
X25489836Y-114072336D01*
X25575437Y-113968032D01*
X25639044Y-113849031D01*
X25678213Y-113719908D01*
X25691439Y-113585625D01*
X25688125Y-113551978D01*
X25688125Y-99331772D01*
X25691439Y-99298125D01*
X29077311Y-99298125D01*
X29080625Y-99331772D01*
X29080626Y-113551968D01*
X29077311Y-113585625D01*
X29090537Y-113719908D01*
X29129706Y-113849031D01*
X29193313Y-113968032D01*
X29278914Y-114072336D01*
X29383218Y-114157937D01*
X29502219Y-114221544D01*
X29631342Y-114260713D01*
X29731978Y-114270625D01*
X29765625Y-114273939D01*
X29799272Y-114270625D01*
X44019478Y-114270625D01*
X44053125Y-114273939D01*
X44086772Y-114270625D01*
X44187408Y-114260713D01*
X44316531Y-114221544D01*
X44435532Y-114157937D01*
X44539836Y-114072336D01*
X44625437Y-113968032D01*
X44689044Y-113849031D01*
X44728213Y-113719908D01*
X44741439Y-113585625D01*
X44738125Y-113551978D01*
X44738125Y-99331772D01*
X44741439Y-99298125D01*
X48127311Y-99298125D01*
X48130626Y-99331782D01*
X48130625Y-113551978D01*
X48127311Y-113585625D01*
X48140537Y-113719908D01*
X48179706Y-113849031D01*
X48243313Y-113968032D01*
X48328914Y-114072336D01*
X48433218Y-114157937D01*
X48552219Y-114221544D01*
X48681342Y-114260713D01*
X48815625Y-114273939D01*
X48849272Y-114270625D01*
X63069478Y-114270625D01*
X63103125Y-114273939D01*
X63237408Y-114260713D01*
X63366531Y-114221544D01*
X63485532Y-114157937D01*
X63589836Y-114072336D01*
X63675437Y-113968032D01*
X63739044Y-113849031D01*
X63778213Y-113719908D01*
X63788125Y-113619272D01*
X63788125Y-113619271D01*
X63791439Y-113585625D01*
X63788125Y-113551978D01*
X63788125Y-99331772D01*
X63791439Y-99298125D01*
X67177311Y-99298125D01*
X67180626Y-99331782D01*
X67180625Y-113551978D01*
X67177311Y-113585625D01*
X67190537Y-113719908D01*
X67229706Y-113849031D01*
X67293313Y-113968032D01*
X67378914Y-114072336D01*
X67483218Y-114157937D01*
X67602219Y-114221544D01*
X67731342Y-114260713D01*
X67865625Y-114273939D01*
X67899272Y-114270625D01*
X82119478Y-114270625D01*
X82153125Y-114273939D01*
X82287408Y-114260713D01*
X82416531Y-114221544D01*
X82535532Y-114157937D01*
X82639836Y-114072336D01*
X82725437Y-113968032D01*
X82789044Y-113849031D01*
X82828213Y-113719908D01*
X82838125Y-113619272D01*
X82838125Y-113619271D01*
X82841439Y-113585625D01*
X82838125Y-113551978D01*
X82838125Y-99331772D01*
X82841439Y-99298125D01*
X86227311Y-99298125D01*
X86230625Y-99331772D01*
X86230626Y-113551968D01*
X86227311Y-113585625D01*
X86240537Y-113719908D01*
X86279706Y-113849031D01*
X86343313Y-113968032D01*
X86428914Y-114072336D01*
X86533218Y-114157937D01*
X86652219Y-114221544D01*
X86781342Y-114260713D01*
X86881978Y-114270625D01*
X86915625Y-114273939D01*
X86949272Y-114270625D01*
X101169478Y-114270625D01*
X101203125Y-114273939D01*
X101236772Y-114270625D01*
X101337408Y-114260713D01*
X101466531Y-114221544D01*
X101585532Y-114157937D01*
X101689836Y-114072336D01*
X101775437Y-113968032D01*
X101839044Y-113849031D01*
X101878213Y-113719908D01*
X101891439Y-113585625D01*
X101888125Y-113551978D01*
X101888125Y-99331772D01*
X101891439Y-99298125D01*
X101878213Y-99163842D01*
X101839044Y-99034719D01*
X101775437Y-98915718D01*
X101689836Y-98811414D01*
X101585532Y-98725813D01*
X101466531Y-98662206D01*
X101337408Y-98623037D01*
X101236772Y-98613125D01*
X101203125Y-98609811D01*
X101169478Y-98613125D01*
X86949272Y-98613125D01*
X86915625Y-98609811D01*
X86881978Y-98613125D01*
X86781342Y-98623037D01*
X86652219Y-98662206D01*
X86533218Y-98725813D01*
X86428914Y-98811414D01*
X86343313Y-98915718D01*
X86279706Y-99034719D01*
X86240537Y-99163842D01*
X86227311Y-99298125D01*
X82841439Y-99298125D01*
X82828213Y-99163842D01*
X82789044Y-99034719D01*
X82725437Y-98915718D01*
X82639836Y-98811414D01*
X82535532Y-98725813D01*
X82416531Y-98662206D01*
X82287408Y-98623037D01*
X82186772Y-98613125D01*
X82153125Y-98609811D01*
X82119478Y-98613125D01*
X67899272Y-98613125D01*
X67865625Y-98609811D01*
X67831978Y-98613125D01*
X67731342Y-98623037D01*
X67602219Y-98662206D01*
X67483218Y-98725813D01*
X67378914Y-98811414D01*
X67293313Y-98915718D01*
X67229706Y-99034719D01*
X67190537Y-99163842D01*
X67177311Y-99298125D01*
X63791439Y-99298125D01*
X63778213Y-99163842D01*
X63739044Y-99034719D01*
X63675437Y-98915718D01*
X63589836Y-98811414D01*
X63485532Y-98725813D01*
X63366531Y-98662206D01*
X63237408Y-98623037D01*
X63136772Y-98613125D01*
X63103125Y-98609811D01*
X63069478Y-98613125D01*
X48849272Y-98613125D01*
X48815625Y-98609811D01*
X48781978Y-98613125D01*
X48681342Y-98623037D01*
X48552219Y-98662206D01*
X48433218Y-98725813D01*
X48328914Y-98811414D01*
X48243313Y-98915718D01*
X48179706Y-99034719D01*
X48140537Y-99163842D01*
X48127311Y-99298125D01*
X44741439Y-99298125D01*
X44728213Y-99163842D01*
X44689044Y-99034719D01*
X44625437Y-98915718D01*
X44539836Y-98811414D01*
X44435532Y-98725813D01*
X44316531Y-98662206D01*
X44187408Y-98623037D01*
X44086772Y-98613125D01*
X44053125Y-98609811D01*
X44019478Y-98613125D01*
X29799272Y-98613125D01*
X29765625Y-98609811D01*
X29731978Y-98613125D01*
X29631342Y-98623037D01*
X29502219Y-98662206D01*
X29383218Y-98725813D01*
X29278914Y-98811414D01*
X29193313Y-98915718D01*
X29129706Y-99034719D01*
X29090537Y-99163842D01*
X29077311Y-99298125D01*
X25691439Y-99298125D01*
X25678213Y-99163842D01*
X25639044Y-99034719D01*
X25575437Y-98915718D01*
X25489836Y-98811414D01*
X25385532Y-98725813D01*
X25266531Y-98662206D01*
X25137408Y-98623037D01*
X25036772Y-98613125D01*
X25003125Y-98609811D01*
X24969478Y-98613125D01*
X10749272Y-98613125D01*
X10715625Y-98609811D01*
X10681978Y-98613125D01*
X10581342Y-98623037D01*
X10452219Y-98662206D01*
X10333218Y-98725813D01*
X10228914Y-98811414D01*
X10143313Y-98915718D01*
X10079706Y-99034719D01*
X10040537Y-99163842D01*
X10027311Y-99298125D01*
X6641439Y-99298125D01*
X6628213Y-99163842D01*
X6589044Y-99034719D01*
X6525437Y-98915718D01*
X6439836Y-98811414D01*
X6335532Y-98725813D01*
X6216531Y-98662206D01*
X6087408Y-98623037D01*
X5986772Y-98613125D01*
X5953125Y-98609811D01*
X5919478Y-98613125D01*
X-8300728Y-98613125D01*
X-8334375Y-98609811D01*
X-8368022Y-98613125D01*
X-8468658Y-98623037D01*
X-8597781Y-98662206D01*
X-8716782Y-98725813D01*
X-8821086Y-98811414D01*
X-8906687Y-98915718D01*
X-8970294Y-99034719D01*
X-9009463Y-99163842D01*
X-9022689Y-99298125D01*
X-9998457Y-99298125D01*
X-9998457Y-80248125D01*
X-9022689Y-80248125D01*
X-9019375Y-80281772D01*
X-9019374Y-94502056D01*
X-9022689Y-94535713D01*
X-9009463Y-94669996D01*
X-8970294Y-94799119D01*
X-8906687Y-94918120D01*
X-8821086Y-95022424D01*
X-8716782Y-95108025D01*
X-8597781Y-95171632D01*
X-8468658Y-95210801D01*
X-8368022Y-95220713D01*
X-8367128Y-95220713D01*
X-8334375Y-95223939D01*
X-8301622Y-95220713D01*
X5920372Y-95220713D01*
X5953125Y-95223939D01*
X5985878Y-95220713D01*
X5986772Y-95220713D01*
X6087408Y-95210801D01*
X6216531Y-95171632D01*
X6335532Y-95108025D01*
X6439836Y-95022424D01*
X6525437Y-94918120D01*
X6589044Y-94799119D01*
X6628213Y-94669996D01*
X6641439Y-94535713D01*
X6638125Y-94502066D01*
X6638125Y-80281772D01*
X6641439Y-80248125D01*
X10027311Y-80248125D01*
X10030625Y-80281772D01*
X10030626Y-94501968D01*
X10027311Y-94535625D01*
X10040537Y-94669908D01*
X10079706Y-94799031D01*
X10143313Y-94918032D01*
X10228914Y-95022336D01*
X10333218Y-95107937D01*
X10452219Y-95171544D01*
X10581342Y-95210713D01*
X10681978Y-95220625D01*
X10715625Y-95223939D01*
X10749272Y-95220625D01*
X24969478Y-95220625D01*
X25003125Y-95223939D01*
X25036772Y-95220625D01*
X25137408Y-95210713D01*
X25266531Y-95171544D01*
X25385532Y-95107937D01*
X25489836Y-95022336D01*
X25575437Y-94918032D01*
X25639044Y-94799031D01*
X25678213Y-94669908D01*
X25691439Y-94535625D01*
X25688125Y-94501978D01*
X25688125Y-80281772D01*
X25691439Y-80248125D01*
X29077311Y-80248125D01*
X29080625Y-80281772D01*
X29080626Y-94501968D01*
X29077311Y-94535625D01*
X29090537Y-94669908D01*
X29129706Y-94799031D01*
X29193313Y-94918032D01*
X29278914Y-95022336D01*
X29383218Y-95107937D01*
X29502219Y-95171544D01*
X29631342Y-95210713D01*
X29731978Y-95220625D01*
X29765625Y-95223939D01*
X29799272Y-95220625D01*
X44019478Y-95220625D01*
X44053125Y-95223939D01*
X44086772Y-95220625D01*
X44187408Y-95210713D01*
X44316531Y-95171544D01*
X44435532Y-95107937D01*
X44539836Y-95022336D01*
X44625437Y-94918032D01*
X44689044Y-94799031D01*
X44728213Y-94669908D01*
X44741439Y-94535625D01*
X44738125Y-94501978D01*
X44738125Y-80281772D01*
X44741439Y-80248125D01*
X48127311Y-80248125D01*
X48130626Y-80281782D01*
X48130625Y-94501978D01*
X48127311Y-94535625D01*
X48140537Y-94669908D01*
X48179706Y-94799031D01*
X48243313Y-94918032D01*
X48328914Y-95022336D01*
X48433218Y-95107937D01*
X48552219Y-95171544D01*
X48681342Y-95210713D01*
X48815625Y-95223939D01*
X48849272Y-95220625D01*
X63069478Y-95220625D01*
X63103125Y-95223939D01*
X63237408Y-95210713D01*
X63366531Y-95171544D01*
X63485532Y-95107937D01*
X63589836Y-95022336D01*
X63675437Y-94918032D01*
X63739044Y-94799031D01*
X63778213Y-94669908D01*
X63788125Y-94569272D01*
X63788125Y-94569271D01*
X63791439Y-94535625D01*
X63788125Y-94501978D01*
X63788125Y-80281772D01*
X63791439Y-80248125D01*
X67177311Y-80248125D01*
X67180626Y-80281782D01*
X67180625Y-94501978D01*
X67177311Y-94535625D01*
X67190537Y-94669908D01*
X67229706Y-94799031D01*
X67293313Y-94918032D01*
X67378914Y-95022336D01*
X67483218Y-95107937D01*
X67602219Y-95171544D01*
X67731342Y-95210713D01*
X67865625Y-95223939D01*
X67899272Y-95220625D01*
X82119478Y-95220625D01*
X82153125Y-95223939D01*
X82287408Y-95210713D01*
X82416531Y-95171544D01*
X82535532Y-95107937D01*
X82639836Y-95022336D01*
X82725437Y-94918032D01*
X82789044Y-94799031D01*
X82828213Y-94669908D01*
X82838125Y-94569272D01*
X82838125Y-94569271D01*
X82841439Y-94535625D01*
X82838125Y-94501978D01*
X82838125Y-80281772D01*
X82841439Y-80248125D01*
X86227311Y-80248125D01*
X86230625Y-80281772D01*
X86230626Y-94501968D01*
X86227311Y-94535625D01*
X86240537Y-94669908D01*
X86279706Y-94799031D01*
X86343313Y-94918032D01*
X86428914Y-95022336D01*
X86533218Y-95107937D01*
X86652219Y-95171544D01*
X86781342Y-95210713D01*
X86881978Y-95220625D01*
X86915625Y-95223939D01*
X86949272Y-95220625D01*
X101169478Y-95220625D01*
X101203125Y-95223939D01*
X101236772Y-95220625D01*
X101337408Y-95210713D01*
X101466531Y-95171544D01*
X101585532Y-95107937D01*
X101689836Y-95022336D01*
X101775437Y-94918032D01*
X101839044Y-94799031D01*
X101878213Y-94669908D01*
X101891439Y-94535625D01*
X101888125Y-94501978D01*
X101888125Y-80281772D01*
X101891439Y-80248125D01*
X101878213Y-80113842D01*
X101839044Y-79984719D01*
X101775437Y-79865718D01*
X101689836Y-79761414D01*
X101585532Y-79675813D01*
X101466531Y-79612206D01*
X101337408Y-79573037D01*
X101236772Y-79563125D01*
X101203125Y-79559811D01*
X101169478Y-79563125D01*
X86949272Y-79563125D01*
X86915625Y-79559811D01*
X86881978Y-79563125D01*
X86781342Y-79573037D01*
X86652219Y-79612206D01*
X86533218Y-79675813D01*
X86428914Y-79761414D01*
X86343313Y-79865718D01*
X86279706Y-79984719D01*
X86240537Y-80113842D01*
X86227311Y-80248125D01*
X82841439Y-80248125D01*
X82828213Y-80113842D01*
X82789044Y-79984719D01*
X82725437Y-79865718D01*
X82639836Y-79761414D01*
X82535532Y-79675813D01*
X82416531Y-79612206D01*
X82287408Y-79573037D01*
X82186772Y-79563125D01*
X82153125Y-79559811D01*
X82119478Y-79563125D01*
X67899272Y-79563125D01*
X67865625Y-79559811D01*
X67831978Y-79563125D01*
X67731342Y-79573037D01*
X67602219Y-79612206D01*
X67483218Y-79675813D01*
X67378914Y-79761414D01*
X67293313Y-79865718D01*
X67229706Y-79984719D01*
X67190537Y-80113842D01*
X67177311Y-80248125D01*
X63791439Y-80248125D01*
X63778213Y-80113842D01*
X63739044Y-79984719D01*
X63675437Y-79865718D01*
X63589836Y-79761414D01*
X63485532Y-79675813D01*
X63366531Y-79612206D01*
X63237408Y-79573037D01*
X63136772Y-79563125D01*
X63103125Y-79559811D01*
X63069478Y-79563125D01*
X48849272Y-79563125D01*
X48815625Y-79559811D01*
X48781978Y-79563125D01*
X48681342Y-79573037D01*
X48552219Y-79612206D01*
X48433218Y-79675813D01*
X48328914Y-79761414D01*
X48243313Y-79865718D01*
X48179706Y-79984719D01*
X48140537Y-80113842D01*
X48127311Y-80248125D01*
X44741439Y-80248125D01*
X44728213Y-80113842D01*
X44689044Y-79984719D01*
X44625437Y-79865718D01*
X44539836Y-79761414D01*
X44435532Y-79675813D01*
X44316531Y-79612206D01*
X44187408Y-79573037D01*
X44086772Y-79563125D01*
X44053125Y-79559811D01*
X44019478Y-79563125D01*
X29799272Y-79563125D01*
X29765625Y-79559811D01*
X29731978Y-79563125D01*
X29631342Y-79573037D01*
X29502219Y-79612206D01*
X29383218Y-79675813D01*
X29278914Y-79761414D01*
X29193313Y-79865718D01*
X29129706Y-79984719D01*
X29090537Y-80113842D01*
X29077311Y-80248125D01*
X25691439Y-80248125D01*
X25678213Y-80113842D01*
X25639044Y-79984719D01*
X25575437Y-79865718D01*
X25489836Y-79761414D01*
X25385532Y-79675813D01*
X25266531Y-79612206D01*
X25137408Y-79573037D01*
X25036772Y-79563125D01*
X25003125Y-79559811D01*
X24969478Y-79563125D01*
X10749272Y-79563125D01*
X10715625Y-79559811D01*
X10681978Y-79563125D01*
X10581342Y-79573037D01*
X10452219Y-79612206D01*
X10333218Y-79675813D01*
X10228914Y-79761414D01*
X10143313Y-79865718D01*
X10079706Y-79984719D01*
X10040537Y-80113842D01*
X10027311Y-80248125D01*
X6641439Y-80248125D01*
X6628213Y-80113842D01*
X6589044Y-79984719D01*
X6525437Y-79865718D01*
X6439836Y-79761414D01*
X6335532Y-79675813D01*
X6216531Y-79612206D01*
X6087408Y-79573037D01*
X5986772Y-79563125D01*
X5953125Y-79559811D01*
X5919478Y-79563125D01*
X-8300728Y-79563125D01*
X-8334375Y-79559811D01*
X-8368022Y-79563125D01*
X-8468658Y-79573037D01*
X-8597781Y-79612206D01*
X-8716782Y-79675813D01*
X-8821086Y-79761414D01*
X-8906687Y-79865718D01*
X-8970294Y-79984719D01*
X-9009463Y-80113842D01*
X-9022689Y-80248125D01*
X-9998457Y-80248125D01*
X-9998457Y-61198125D01*
X-9022689Y-61198125D01*
X-9019375Y-61231772D01*
X-9019374Y-75451968D01*
X-9022689Y-75485625D01*
X-9009463Y-75619908D01*
X-8970294Y-75749031D01*
X-8906687Y-75868032D01*
X-8821086Y-75972336D01*
X-8716782Y-76057937D01*
X-8597781Y-76121544D01*
X-8468658Y-76160713D01*
X-8368022Y-76170625D01*
X-8334375Y-76173939D01*
X-8300728Y-76170625D01*
X5919478Y-76170625D01*
X5953125Y-76173939D01*
X5986772Y-76170625D01*
X6087408Y-76160713D01*
X6216531Y-76121544D01*
X6335532Y-76057937D01*
X6439836Y-75972336D01*
X6525437Y-75868032D01*
X6589044Y-75749031D01*
X6628213Y-75619908D01*
X6641439Y-75485625D01*
X6638125Y-75451978D01*
X6638125Y-61231772D01*
X6641439Y-61198125D01*
X10027311Y-61198125D01*
X10030625Y-61231772D01*
X10030626Y-75451968D01*
X10027311Y-75485625D01*
X10040537Y-75619908D01*
X10079706Y-75749031D01*
X10143313Y-75868032D01*
X10228914Y-75972336D01*
X10333218Y-76057937D01*
X10452219Y-76121544D01*
X10581342Y-76160713D01*
X10681978Y-76170625D01*
X10715625Y-76173939D01*
X10749272Y-76170625D01*
X24969478Y-76170625D01*
X25003125Y-76173939D01*
X25036772Y-76170625D01*
X25137408Y-76160713D01*
X25266531Y-76121544D01*
X25385532Y-76057937D01*
X25489836Y-75972336D01*
X25575437Y-75868032D01*
X25639044Y-75749031D01*
X25678213Y-75619908D01*
X25691439Y-75485625D01*
X25688125Y-75451978D01*
X25688125Y-61231772D01*
X25691439Y-61198125D01*
X29077311Y-61198125D01*
X29080625Y-61231772D01*
X29080626Y-75451968D01*
X29077311Y-75485625D01*
X29090537Y-75619908D01*
X29129706Y-75749031D01*
X29193313Y-75868032D01*
X29278914Y-75972336D01*
X29383218Y-76057937D01*
X29502219Y-76121544D01*
X29631342Y-76160713D01*
X29731978Y-76170625D01*
X29765625Y-76173939D01*
X29799272Y-76170625D01*
X44019478Y-76170625D01*
X44053125Y-76173939D01*
X44086772Y-76170625D01*
X44187408Y-76160713D01*
X44316531Y-76121544D01*
X44435532Y-76057937D01*
X44539836Y-75972336D01*
X44625437Y-75868032D01*
X44689044Y-75749031D01*
X44728213Y-75619908D01*
X44741439Y-75485625D01*
X44738125Y-75451978D01*
X44738125Y-61231772D01*
X44741439Y-61198125D01*
X48127311Y-61198125D01*
X48130626Y-61231782D01*
X48130625Y-75451978D01*
X48127311Y-75485625D01*
X48140537Y-75619908D01*
X48179706Y-75749031D01*
X48243313Y-75868032D01*
X48328914Y-75972336D01*
X48433218Y-76057937D01*
X48552219Y-76121544D01*
X48681342Y-76160713D01*
X48815625Y-76173939D01*
X48849272Y-76170625D01*
X63069478Y-76170625D01*
X63103125Y-76173939D01*
X63237408Y-76160713D01*
X63366531Y-76121544D01*
X63485532Y-76057937D01*
X63589836Y-75972336D01*
X63675437Y-75868032D01*
X63739044Y-75749031D01*
X63778213Y-75619908D01*
X63788125Y-75519272D01*
X63788125Y-75519271D01*
X63791439Y-75485625D01*
X63788125Y-75451978D01*
X63788125Y-61231772D01*
X63791439Y-61198125D01*
X67177311Y-61198125D01*
X67180626Y-61231782D01*
X67180625Y-75451978D01*
X67177311Y-75485625D01*
X67190537Y-75619908D01*
X67229706Y-75749031D01*
X67293313Y-75868032D01*
X67378914Y-75972336D01*
X67483218Y-76057937D01*
X67602219Y-76121544D01*
X67731342Y-76160713D01*
X67865625Y-76173939D01*
X67899272Y-76170625D01*
X82119478Y-76170625D01*
X82153125Y-76173939D01*
X82287408Y-76160713D01*
X82416531Y-76121544D01*
X82535532Y-76057937D01*
X82639836Y-75972336D01*
X82725437Y-75868032D01*
X82789044Y-75749031D01*
X82828213Y-75619908D01*
X82838125Y-75519272D01*
X82838125Y-75519271D01*
X82841439Y-75485625D01*
X82838125Y-75451978D01*
X82838125Y-61231772D01*
X82841439Y-61198125D01*
X86227311Y-61198125D01*
X86230625Y-61231772D01*
X86230626Y-75451968D01*
X86227311Y-75485625D01*
X86240537Y-75619908D01*
X86279706Y-75749031D01*
X86343313Y-75868032D01*
X86428914Y-75972336D01*
X86533218Y-76057937D01*
X86652219Y-76121544D01*
X86781342Y-76160713D01*
X86881978Y-76170625D01*
X86915625Y-76173939D01*
X86949272Y-76170625D01*
X101169478Y-76170625D01*
X101203125Y-76173939D01*
X101236772Y-76170625D01*
X101337408Y-76160713D01*
X101466531Y-76121544D01*
X101585532Y-76057937D01*
X101689836Y-75972336D01*
X101775437Y-75868032D01*
X101839044Y-75749031D01*
X101878213Y-75619908D01*
X101891439Y-75485625D01*
X101888125Y-75451978D01*
X101888125Y-61231772D01*
X101891439Y-61198125D01*
X101878213Y-61063842D01*
X101839044Y-60934719D01*
X101775437Y-60815718D01*
X101689836Y-60711414D01*
X101585532Y-60625813D01*
X101466531Y-60562206D01*
X101337408Y-60523037D01*
X101236772Y-60513125D01*
X101203125Y-60509811D01*
X101169478Y-60513125D01*
X86949272Y-60513125D01*
X86915625Y-60509811D01*
X86881978Y-60513125D01*
X86781342Y-60523037D01*
X86652219Y-60562206D01*
X86533218Y-60625813D01*
X86428914Y-60711414D01*
X86343313Y-60815718D01*
X86279706Y-60934719D01*
X86240537Y-61063842D01*
X86227311Y-61198125D01*
X82841439Y-61198125D01*
X82828213Y-61063842D01*
X82789044Y-60934719D01*
X82725437Y-60815718D01*
X82639836Y-60711414D01*
X82535532Y-60625813D01*
X82416531Y-60562206D01*
X82287408Y-60523037D01*
X82186772Y-60513125D01*
X82153125Y-60509811D01*
X82119478Y-60513125D01*
X67899272Y-60513125D01*
X67865625Y-60509811D01*
X67831978Y-60513125D01*
X67731342Y-60523037D01*
X67602219Y-60562206D01*
X67483218Y-60625813D01*
X67378914Y-60711414D01*
X67293313Y-60815718D01*
X67229706Y-60934719D01*
X67190537Y-61063842D01*
X67177311Y-61198125D01*
X63791439Y-61198125D01*
X63778213Y-61063842D01*
X63739044Y-60934719D01*
X63675437Y-60815718D01*
X63589836Y-60711414D01*
X63485532Y-60625813D01*
X63366531Y-60562206D01*
X63237408Y-60523037D01*
X63136772Y-60513125D01*
X63103125Y-60509811D01*
X63069478Y-60513125D01*
X48849272Y-60513125D01*
X48815625Y-60509811D01*
X48781978Y-60513125D01*
X48681342Y-60523037D01*
X48552219Y-60562206D01*
X48433218Y-60625813D01*
X48328914Y-60711414D01*
X48243313Y-60815718D01*
X48179706Y-60934719D01*
X48140537Y-61063842D01*
X48127311Y-61198125D01*
X44741439Y-61198125D01*
X44728213Y-61063842D01*
X44689044Y-60934719D01*
X44625437Y-60815718D01*
X44539836Y-60711414D01*
X44435532Y-60625813D01*
X44316531Y-60562206D01*
X44187408Y-60523037D01*
X44086772Y-60513125D01*
X44053125Y-60509811D01*
X44019478Y-60513125D01*
X29799272Y-60513125D01*
X29765625Y-60509811D01*
X29731978Y-60513125D01*
X29631342Y-60523037D01*
X29502219Y-60562206D01*
X29383218Y-60625813D01*
X29278914Y-60711414D01*
X29193313Y-60815718D01*
X29129706Y-60934719D01*
X29090537Y-61063842D01*
X29077311Y-61198125D01*
X25691439Y-61198125D01*
X25678213Y-61063842D01*
X25639044Y-60934719D01*
X25575437Y-60815718D01*
X25489836Y-60711414D01*
X25385532Y-60625813D01*
X25266531Y-60562206D01*
X25137408Y-60523037D01*
X25036772Y-60513125D01*
X25003125Y-60509811D01*
X24969478Y-60513125D01*
X10749272Y-60513125D01*
X10715625Y-60509811D01*
X10681978Y-60513125D01*
X10581342Y-60523037D01*
X10452219Y-60562206D01*
X10333218Y-60625813D01*
X10228914Y-60711414D01*
X10143313Y-60815718D01*
X10079706Y-60934719D01*
X10040537Y-61063842D01*
X10027311Y-61198125D01*
X6641439Y-61198125D01*
X6628213Y-61063842D01*
X6589044Y-60934719D01*
X6525437Y-60815718D01*
X6439836Y-60711414D01*
X6335532Y-60625813D01*
X6216531Y-60562206D01*
X6087408Y-60523037D01*
X5986772Y-60513125D01*
X5953125Y-60509811D01*
X5919478Y-60513125D01*
X-8300728Y-60513125D01*
X-8334375Y-60509811D01*
X-8368022Y-60513125D01*
X-8468658Y-60523037D01*
X-8597781Y-60562206D01*
X-8716782Y-60625813D01*
X-8821086Y-60711414D01*
X-8906687Y-60815718D01*
X-8970294Y-60934719D01*
X-9009463Y-61063842D01*
X-9022689Y-61198125D01*
X-9998457Y-61198125D01*
X-9998457Y-58724786D01*
X7399375Y-58724786D01*
X7399375Y-58908964D01*
X7435307Y-59089604D01*
X7505789Y-59259764D01*
X7608113Y-59412903D01*
X7738347Y-59543137D01*
X7891486Y-59645461D01*
X8061646Y-59715943D01*
X8242286Y-59751875D01*
X8426464Y-59751875D01*
X8607104Y-59715943D01*
X8777264Y-59645461D01*
X8930403Y-59543137D01*
X9060637Y-59412903D01*
X9162961Y-59259764D01*
X9233443Y-59089604D01*
X9269375Y-58908964D01*
X9269375Y-58724786D01*
X9233443Y-58544146D01*
X9162961Y-58373986D01*
X9060637Y-58220847D01*
X8930403Y-58090613D01*
X8777264Y-57988289D01*
X8607104Y-57917807D01*
X8426464Y-57881875D01*
X8242286Y-57881875D01*
X8061646Y-57917807D01*
X7891486Y-57988289D01*
X7738347Y-58090613D01*
X7608113Y-58220847D01*
X7505789Y-58373986D01*
X7435307Y-58544146D01*
X7399375Y-58724786D01*
X-9998457Y-58724786D01*
X-9998457Y-42148125D01*
X-9022689Y-42148125D01*
X-9019375Y-42181772D01*
X-9019374Y-56401968D01*
X-9022689Y-56435625D01*
X-9009463Y-56569908D01*
X-8970294Y-56699031D01*
X-8906687Y-56818032D01*
X-8821086Y-56922336D01*
X-8716782Y-57007937D01*
X-8597781Y-57071544D01*
X-8468658Y-57110713D01*
X-8368022Y-57120625D01*
X-8334375Y-57123939D01*
X-8300728Y-57120625D01*
X5919478Y-57120625D01*
X5953125Y-57123939D01*
X5986772Y-57120625D01*
X6087408Y-57110713D01*
X6216531Y-57071544D01*
X6335532Y-57007937D01*
X6439836Y-56922336D01*
X6525437Y-56818032D01*
X6589044Y-56699031D01*
X6628213Y-56569908D01*
X6641439Y-56435625D01*
X6638125Y-56401978D01*
X6638125Y-42181772D01*
X6641439Y-42148125D01*
X10027311Y-42148125D01*
X10030625Y-42181772D01*
X10030626Y-56401968D01*
X10027311Y-56435625D01*
X10040537Y-56569908D01*
X10079706Y-56699031D01*
X10143313Y-56818032D01*
X10228914Y-56922336D01*
X10333218Y-57007937D01*
X10452219Y-57071544D01*
X10581342Y-57110713D01*
X10681978Y-57120625D01*
X10715625Y-57123939D01*
X10749272Y-57120625D01*
X24969478Y-57120625D01*
X25003125Y-57123939D01*
X25036772Y-57120625D01*
X25137408Y-57110713D01*
X25266531Y-57071544D01*
X25385532Y-57007937D01*
X25489836Y-56922336D01*
X25575437Y-56818032D01*
X25639044Y-56699031D01*
X25678213Y-56569908D01*
X25691439Y-56435625D01*
X25688125Y-56401978D01*
X25688125Y-42181772D01*
X25691439Y-42148125D01*
X29077311Y-42148125D01*
X29080625Y-42181772D01*
X29080626Y-56401968D01*
X29077311Y-56435625D01*
X29090537Y-56569908D01*
X29129706Y-56699031D01*
X29193313Y-56818032D01*
X29278914Y-56922336D01*
X29383218Y-57007937D01*
X29502219Y-57071544D01*
X29631342Y-57110713D01*
X29731978Y-57120625D01*
X29765625Y-57123939D01*
X29799272Y-57120625D01*
X44019478Y-57120625D01*
X44053125Y-57123939D01*
X44086772Y-57120625D01*
X44187408Y-57110713D01*
X44316531Y-57071544D01*
X44435532Y-57007937D01*
X44539836Y-56922336D01*
X44625437Y-56818032D01*
X44689044Y-56699031D01*
X44728213Y-56569908D01*
X44741439Y-56435625D01*
X44738125Y-56401978D01*
X44738125Y-42181772D01*
X44741439Y-42148125D01*
X48127311Y-42148125D01*
X48130626Y-42181782D01*
X48130625Y-56401978D01*
X48127311Y-56435625D01*
X48140537Y-56569908D01*
X48179706Y-56699031D01*
X48243313Y-56818032D01*
X48328914Y-56922336D01*
X48433218Y-57007937D01*
X48552219Y-57071544D01*
X48681342Y-57110713D01*
X48815625Y-57123939D01*
X48849272Y-57120625D01*
X63069478Y-57120625D01*
X63103125Y-57123939D01*
X63237408Y-57110713D01*
X63366531Y-57071544D01*
X63485532Y-57007937D01*
X63589836Y-56922336D01*
X63675437Y-56818032D01*
X63739044Y-56699031D01*
X63778213Y-56569908D01*
X63788125Y-56469272D01*
X63788125Y-56469271D01*
X63791439Y-56435625D01*
X63788125Y-56401978D01*
X63788125Y-42181772D01*
X63791439Y-42148125D01*
X67177311Y-42148125D01*
X67180626Y-42181782D01*
X67180625Y-56401978D01*
X67177311Y-56435625D01*
X67190537Y-56569908D01*
X67229706Y-56699031D01*
X67293313Y-56818032D01*
X67378914Y-56922336D01*
X67483218Y-57007937D01*
X67602219Y-57071544D01*
X67731342Y-57110713D01*
X67865625Y-57123939D01*
X67899272Y-57120625D01*
X82119478Y-57120625D01*
X82153125Y-57123939D01*
X82287408Y-57110713D01*
X82416531Y-57071544D01*
X82535532Y-57007937D01*
X82639836Y-56922336D01*
X82725437Y-56818032D01*
X82789044Y-56699031D01*
X82828213Y-56569908D01*
X82838125Y-56469272D01*
X82838125Y-56469271D01*
X82841439Y-56435625D01*
X82838125Y-56401978D01*
X82838125Y-42181772D01*
X82841439Y-42148125D01*
X86227311Y-42148125D01*
X86230625Y-42181772D01*
X86230626Y-56401968D01*
X86227311Y-56435625D01*
X86240537Y-56569908D01*
X86279706Y-56699031D01*
X86343313Y-56818032D01*
X86428914Y-56922336D01*
X86533218Y-57007937D01*
X86652219Y-57071544D01*
X86781342Y-57110713D01*
X86881978Y-57120625D01*
X86915625Y-57123939D01*
X86949272Y-57120625D01*
X101169478Y-57120625D01*
X101203125Y-57123939D01*
X101236772Y-57120625D01*
X101337408Y-57110713D01*
X101466531Y-57071544D01*
X101585532Y-57007937D01*
X101689836Y-56922336D01*
X101775437Y-56818032D01*
X101839044Y-56699031D01*
X101878213Y-56569908D01*
X101891439Y-56435625D01*
X101888125Y-56401978D01*
X101888125Y-42181772D01*
X101891439Y-42148125D01*
X101878213Y-42013842D01*
X101839044Y-41884719D01*
X101775437Y-41765718D01*
X101689836Y-41661414D01*
X101585532Y-41575813D01*
X101466531Y-41512206D01*
X101337408Y-41473037D01*
X101236772Y-41463125D01*
X101203125Y-41459811D01*
X101169478Y-41463125D01*
X86949272Y-41463125D01*
X86915625Y-41459811D01*
X86881978Y-41463125D01*
X86781342Y-41473037D01*
X86652219Y-41512206D01*
X86533218Y-41575813D01*
X86428914Y-41661414D01*
X86343313Y-41765718D01*
X86279706Y-41884719D01*
X86240537Y-42013842D01*
X86227311Y-42148125D01*
X82841439Y-42148125D01*
X82828213Y-42013842D01*
X82789044Y-41884719D01*
X82725437Y-41765718D01*
X82639836Y-41661414D01*
X82535532Y-41575813D01*
X82416531Y-41512206D01*
X82287408Y-41473037D01*
X82186772Y-41463125D01*
X82153125Y-41459811D01*
X82119478Y-41463125D01*
X67899272Y-41463125D01*
X67865625Y-41459811D01*
X67831978Y-41463125D01*
X67731342Y-41473037D01*
X67602219Y-41512206D01*
X67483218Y-41575813D01*
X67378914Y-41661414D01*
X67293313Y-41765718D01*
X67229706Y-41884719D01*
X67190537Y-42013842D01*
X67177311Y-42148125D01*
X63791439Y-42148125D01*
X63778213Y-42013842D01*
X63739044Y-41884719D01*
X63675437Y-41765718D01*
X63589836Y-41661414D01*
X63485532Y-41575813D01*
X63366531Y-41512206D01*
X63237408Y-41473037D01*
X63136772Y-41463125D01*
X63103125Y-41459811D01*
X63069478Y-41463125D01*
X48849272Y-41463125D01*
X48815625Y-41459811D01*
X48781978Y-41463125D01*
X48681342Y-41473037D01*
X48552219Y-41512206D01*
X48433218Y-41575813D01*
X48328914Y-41661414D01*
X48243313Y-41765718D01*
X48179706Y-41884719D01*
X48140537Y-42013842D01*
X48127311Y-42148125D01*
X44741439Y-42148125D01*
X44728213Y-42013842D01*
X44689044Y-41884719D01*
X44625437Y-41765718D01*
X44539836Y-41661414D01*
X44435532Y-41575813D01*
X44316531Y-41512206D01*
X44187408Y-41473037D01*
X44086772Y-41463125D01*
X44053125Y-41459811D01*
X44019478Y-41463125D01*
X29799272Y-41463125D01*
X29765625Y-41459811D01*
X29731978Y-41463125D01*
X29631342Y-41473037D01*
X29502219Y-41512206D01*
X29383218Y-41575813D01*
X29278914Y-41661414D01*
X29193313Y-41765718D01*
X29129706Y-41884719D01*
X29090537Y-42013842D01*
X29077311Y-42148125D01*
X25691439Y-42148125D01*
X25678213Y-42013842D01*
X25639044Y-41884719D01*
X25575437Y-41765718D01*
X25489836Y-41661414D01*
X25385532Y-41575813D01*
X25266531Y-41512206D01*
X25137408Y-41473037D01*
X25036772Y-41463125D01*
X25003125Y-41459811D01*
X24969478Y-41463125D01*
X10749272Y-41463125D01*
X10715625Y-41459811D01*
X10681978Y-41463125D01*
X10581342Y-41473037D01*
X10452219Y-41512206D01*
X10333218Y-41575813D01*
X10228914Y-41661414D01*
X10143313Y-41765718D01*
X10079706Y-41884719D01*
X10040537Y-42013842D01*
X10027311Y-42148125D01*
X6641439Y-42148125D01*
X6628213Y-42013842D01*
X6589044Y-41884719D01*
X6525437Y-41765718D01*
X6439836Y-41661414D01*
X6335532Y-41575813D01*
X6216531Y-41512206D01*
X6087408Y-41473037D01*
X5986772Y-41463125D01*
X5953125Y-41459811D01*
X5919478Y-41463125D01*
X-8300728Y-41463125D01*
X-8334375Y-41459811D01*
X-8368022Y-41463125D01*
X-8468658Y-41473037D01*
X-8597781Y-41512206D01*
X-8716782Y-41575813D01*
X-8821086Y-41661414D01*
X-8906687Y-41765718D01*
X-8970294Y-41884719D01*
X-9009463Y-42013842D01*
X-9022689Y-42148125D01*
X-9998457Y-42148125D01*
X-9998457Y-41835951D01*
X-9970908Y-41554983D01*
X-9899749Y-41319292D01*
X-9784166Y-41101915D01*
X-9628562Y-40911125D01*
X-9438864Y-40754193D01*
X-9222300Y-40637098D01*
X-8987113Y-40564295D01*
X-8708429Y-40535004D01*
X31476137Y-40535004D01*
X31584117Y-40524369D01*
X31587178Y-40523441D01*
X31898228Y-40490091D01*
X31962743Y-40476707D01*
X32027394Y-40464374D01*
X32037218Y-40461409D01*
X32410093Y-40345985D01*
X32471523Y-40320162D01*
X32533272Y-40295214D01*
X32542333Y-40290396D01*
X32885687Y-40104744D01*
X32940931Y-40067482D01*
X32996657Y-40031016D01*
X33004610Y-40024530D01*
X33305366Y-39775723D01*
X33352343Y-39728417D01*
X33399901Y-39681845D01*
X33406443Y-39673938D01*
X33653144Y-39371453D01*
X33690036Y-39315927D01*
X33727646Y-39260998D01*
X33732527Y-39251971D01*
X33915776Y-38907328D01*
X33941171Y-38845715D01*
X33967404Y-38784509D01*
X33970439Y-38774706D01*
X34083257Y-38401034D01*
X34096200Y-38335667D01*
X34110046Y-38270526D01*
X34111119Y-38260320D01*
X34149209Y-37871851D01*
X34152717Y-37836234D01*
X34152717Y-37736076D01*
X34179763Y-37460230D01*
X35019861Y-37460230D01*
X35019861Y-37823874D01*
X35090805Y-38180530D01*
X35229965Y-38516492D01*
X35431994Y-38818851D01*
X35689129Y-39075986D01*
X35991488Y-39278015D01*
X36327450Y-39417175D01*
X36684106Y-39488119D01*
X37047750Y-39488119D01*
X37404406Y-39417175D01*
X37740368Y-39278015D01*
X38042727Y-39075986D01*
X38299862Y-38818851D01*
X38501891Y-38516492D01*
X38641051Y-38180530D01*
X38711995Y-37823874D01*
X38711995Y-37460230D01*
X38641051Y-37103574D01*
X38501891Y-36767612D01*
X38299862Y-36465253D01*
X38042727Y-36208118D01*
X37740368Y-36006089D01*
X37404406Y-35866929D01*
X37047750Y-35795985D01*
X36684106Y-35795985D01*
X36327450Y-35866929D01*
X35991488Y-36006089D01*
X35689129Y-36208118D01*
X35431994Y-36465253D01*
X35229965Y-36767612D01*
X35090805Y-37103574D01*
X35019861Y-37460230D01*
X34179763Y-37460230D01*
X34208833Y-37163757D01*
X34364607Y-36647810D01*
X34617625Y-36171954D01*
X34958258Y-35754296D01*
X35373518Y-35410763D01*
X35847602Y-35154427D01*
X36362444Y-34995057D01*
X36898441Y-34938721D01*
X37435165Y-34987567D01*
%TA.AperFunction,NonConductor*%
D12*
G36*
X37435165Y-34987567D02*
G01*
X37952185Y-35139735D01*
X38429797Y-35389424D01*
X38849821Y-35727132D01*
X39196249Y-36139989D01*
X39455887Y-36612269D01*
X39618849Y-37125988D01*
X39682663Y-37694906D01*
X39682717Y-37702678D01*
X39682717Y-37836233D01*
X39686170Y-37871288D01*
X39722561Y-38250594D01*
X39735218Y-38315227D01*
X39746834Y-38380041D01*
X39749690Y-38389897D01*
X39860947Y-38764038D01*
X39886091Y-38825773D01*
X39910339Y-38887772D01*
X39915055Y-38896886D01*
X40096864Y-39242291D01*
X40133499Y-39297935D01*
X40169350Y-39354078D01*
X40175747Y-39362103D01*
X40421183Y-39665616D01*
X40467958Y-39713113D01*
X40514001Y-39761193D01*
X40521834Y-39767822D01*
X40821547Y-40017882D01*
X40876635Y-40055375D01*
X40931162Y-40093611D01*
X40940134Y-40098593D01*
X41282711Y-40285677D01*
X41344018Y-40311750D01*
X41404948Y-40338673D01*
X41414717Y-40341817D01*
X41787106Y-40458797D01*
X41852351Y-40472474D01*
X41917307Y-40487040D01*
X41927501Y-40488227D01*
X42247505Y-40523213D01*
X42251316Y-40524369D01*
X42359296Y-40535004D01*
X102867207Y-40535004D01*
X102867208Y-134315129D01*
X42381612Y-134315129D01*
X42349523Y-134318290D01*
X42337138Y-134318203D01*
X42326925Y-134319204D01*
X41938732Y-134360005D01*
X41873412Y-134373414D01*
X41808040Y-134385884D01*
X41798216Y-134388849D01*
X41425341Y-134504273D01*
X41363922Y-134530091D01*
X41302164Y-134555043D01*
X41293103Y-134559861D01*
X40949748Y-134745512D01*
X40894485Y-134782787D01*
X40838776Y-134819242D01*
X40830823Y-134825728D01*
X40530068Y-135074535D01*
X40483091Y-135121841D01*
X40435534Y-135168412D01*
X40428992Y-135176319D01*
X40182291Y-135478804D01*
X40145412Y-135534312D01*
X40107790Y-135589257D01*
X40102909Y-135598284D01*
X39919659Y-135942926D01*
X39894263Y-136004542D01*
X39868030Y-136065747D01*
X39864995Y-136075550D01*
X39752177Y-136449222D01*
X39739229Y-136514614D01*
X39725388Y-136579730D01*
X39724315Y-136589936D01*
X39686225Y-136978405D01*
X39682717Y-137014025D01*
X39682717Y-137114183D01*
X39626601Y-137686501D01*
X39470829Y-138202442D01*
X39217808Y-138678307D01*
X38877176Y-139095963D01*
X38461917Y-139439495D01*
X37987832Y-139695831D01*
X37472990Y-139855201D01*
X36936993Y-139911537D01*
X36400269Y-139862691D01*
X35883249Y-139710523D01*
X35405634Y-139460832D01*
X34985610Y-139123124D01*
X34639185Y-138710269D01*
X34379547Y-138237990D01*
X34216585Y-137724270D01*
X34152771Y-137155352D01*
X34152717Y-137147580D01*
X34152717Y-137014025D01*
X34149556Y-136981935D01*
X34149643Y-136969550D01*
X34148730Y-136960230D01*
X35119860Y-136960230D01*
X35119860Y-137323874D01*
X35190804Y-137680530D01*
X35329964Y-138016493D01*
X35531994Y-138318852D01*
X35789128Y-138575986D01*
X36091487Y-138778016D01*
X36427450Y-138917176D01*
X36784106Y-138988120D01*
X37147750Y-138988120D01*
X37504406Y-138917176D01*
X37840369Y-138778016D01*
X38142728Y-138575986D01*
X38399862Y-138318852D01*
X38601892Y-138016493D01*
X38741052Y-137680530D01*
X38811996Y-137323874D01*
X38811996Y-136960230D01*
X38741052Y-136603574D01*
X38601892Y-136267611D01*
X38399862Y-135965252D01*
X38142728Y-135708118D01*
X37840369Y-135506088D01*
X37504406Y-135366928D01*
X37147750Y-135295984D01*
X36784106Y-135295984D01*
X36427450Y-135366928D01*
X36091487Y-135506088D01*
X35789128Y-135708118D01*
X35531994Y-135965252D01*
X35329964Y-136267611D01*
X35190804Y-136603574D01*
X35119860Y-136960230D01*
X34148730Y-136960230D01*
X34148642Y-136959337D01*
X34107841Y-136571144D01*
X34094445Y-136505886D01*
X34081963Y-136440452D01*
X34078997Y-136430628D01*
X33963573Y-136057752D01*
X33937740Y-135996297D01*
X33912802Y-135934574D01*
X33907985Y-135925513D01*
X33722334Y-135582159D01*
X33685054Y-135526889D01*
X33648605Y-135471189D01*
X33642119Y-135463236D01*
X33393312Y-135162480D01*
X33346006Y-135115503D01*
X33299434Y-135067945D01*
X33291527Y-135061403D01*
X32989042Y-134814702D01*
X32933500Y-134777800D01*
X32878588Y-134740201D01*
X32869561Y-134735319D01*
X32524919Y-134552070D01*
X32463287Y-134526667D01*
X32402098Y-134500441D01*
X32392299Y-134497407D01*
X32392293Y-134497405D01*
X32018623Y-134384588D01*
X31953231Y-134371640D01*
X31888115Y-134357799D01*
X31877909Y-134356726D01*
X31489440Y-134318636D01*
X31489419Y-134318636D01*
X31453822Y-134315130D01*
X-8697512Y-134315128D01*
X-8978478Y-134287580D01*
X-9214164Y-134216421D01*
X-9431546Y-134100838D01*
X-9622337Y-133945232D01*
X-9779268Y-133755537D01*
X-9896363Y-133538972D01*
X-9969166Y-133303785D01*
X-9998457Y-133025101D01*
X-9998457Y-118348125D01*
X-9022689Y-118348125D01*
X-9019375Y-118381772D01*
X-9019374Y-132601968D01*
X-9022689Y-132635625D01*
X-9009463Y-132769908D01*
X-8970294Y-132899031D01*
X-8906687Y-133018032D01*
X-8821086Y-133122336D01*
X-8716782Y-133207937D01*
X-8597781Y-133271544D01*
X-8468658Y-133310713D01*
X-8368022Y-133320625D01*
X-8334375Y-133323939D01*
X-8300728Y-133320625D01*
X5919478Y-133320625D01*
X5953125Y-133323939D01*
X5986772Y-133320625D01*
X6087408Y-133310713D01*
X6216531Y-133271544D01*
X6335532Y-133207937D01*
X6439836Y-133122336D01*
X6525437Y-133018032D01*
X6589044Y-132899031D01*
X6628213Y-132769908D01*
X6641439Y-132635625D01*
X6638125Y-132601978D01*
X6638125Y-118381772D01*
X6641439Y-118348125D01*
X10027311Y-118348125D01*
X10030625Y-118381772D01*
X10030626Y-132601968D01*
X10027311Y-132635625D01*
X10040537Y-132769908D01*
X10079706Y-132899031D01*
X10143313Y-133018032D01*
X10228914Y-133122336D01*
X10333218Y-133207937D01*
X10452219Y-133271544D01*
X10581342Y-133310713D01*
X10681978Y-133320625D01*
X10715625Y-133323939D01*
X10749272Y-133320625D01*
X24969478Y-133320625D01*
X25003125Y-133323939D01*
X25036772Y-133320625D01*
X25137408Y-133310713D01*
X25266531Y-133271544D01*
X25385532Y-133207937D01*
X25489836Y-133122336D01*
X25575437Y-133018032D01*
X25639044Y-132899031D01*
X25678213Y-132769908D01*
X25691439Y-132635625D01*
X25688125Y-132601978D01*
X25688125Y-118381772D01*
X25691439Y-118348125D01*
X29077311Y-118348125D01*
X29080625Y-118381772D01*
X29080626Y-132601968D01*
X29077311Y-132635625D01*
X29090537Y-132769908D01*
X29129706Y-132899031D01*
X29193313Y-133018032D01*
X29278914Y-133122336D01*
X29383218Y-133207937D01*
X29502219Y-133271544D01*
X29631342Y-133310713D01*
X29731978Y-133320625D01*
X29765625Y-133323939D01*
X29799272Y-133320625D01*
X44019478Y-133320625D01*
X44053125Y-133323939D01*
X44086772Y-133320625D01*
X44187408Y-133310713D01*
X44316531Y-133271544D01*
X44435532Y-133207937D01*
X44539836Y-133122336D01*
X44625437Y-133018032D01*
X44689044Y-132899031D01*
X44728213Y-132769908D01*
X44741439Y-132635625D01*
X44738125Y-132601978D01*
X44738125Y-118381772D01*
X44741439Y-118348125D01*
X48127311Y-118348125D01*
X48130626Y-118381782D01*
X48130625Y-132601978D01*
X48127311Y-132635625D01*
X48140537Y-132769908D01*
X48179706Y-132899031D01*
X48243313Y-133018032D01*
X48328914Y-133122336D01*
X48416497Y-133194214D01*
X48433218Y-133207937D01*
X48552219Y-133271544D01*
X48681342Y-133310713D01*
X48815625Y-133323939D01*
X48849272Y-133320625D01*
X63069478Y-133320625D01*
X63103125Y-133323939D01*
X63237408Y-133310713D01*
X63366531Y-133271544D01*
X63485532Y-133207937D01*
X63589836Y-133122336D01*
X63675437Y-133018032D01*
X63739044Y-132899031D01*
X63778213Y-132769908D01*
X63788125Y-132669272D01*
X63788125Y-132669271D01*
X63791439Y-132635625D01*
X63788125Y-132601978D01*
X63788125Y-118381772D01*
X63791428Y-118348233D01*
X67177195Y-118348233D01*
X67180626Y-118383068D01*
X67180625Y-132601978D01*
X67177311Y-132635625D01*
X67190537Y-132769908D01*
X67229706Y-132899031D01*
X67293313Y-133018032D01*
X67378914Y-133122336D01*
X67466497Y-133194214D01*
X67483218Y-133207937D01*
X67602219Y-133271544D01*
X67731342Y-133310713D01*
X67865625Y-133323939D01*
X67899272Y-133320625D01*
X101169478Y-133320625D01*
X101203125Y-133323939D01*
X101236772Y-133320625D01*
X101337408Y-133310713D01*
X101466531Y-133271544D01*
X101585532Y-133207937D01*
X101689836Y-133122336D01*
X101775437Y-133018032D01*
X101839044Y-132899031D01*
X101878213Y-132769908D01*
X101891439Y-132635625D01*
X101888125Y-132601978D01*
X101888125Y-118381749D01*
X101891438Y-118348094D01*
X101887002Y-118303080D01*
X101878213Y-118213842D01*
X101878207Y-118213822D01*
X101878206Y-118213812D01*
X101863531Y-118165440D01*
X101839044Y-118084719D01*
X101839036Y-118084704D01*
X101839032Y-118084691D01*
X101814216Y-118038268D01*
X101775437Y-117965718D01*
X101775424Y-117965702D01*
X101775419Y-117965693D01*
X101746541Y-117930509D01*
X101689836Y-117861414D01*
X101689821Y-117861402D01*
X101689813Y-117861392D01*
X101646142Y-117825555D01*
X101585532Y-117775813D01*
X101585517Y-117775805D01*
X101585506Y-117775796D01*
X101536944Y-117749842D01*
X101466531Y-117712206D01*
X101466512Y-117712200D01*
X101466502Y-117712195D01*
X101415767Y-117696807D01*
X101337408Y-117673037D01*
X101337391Y-117673035D01*
X101337377Y-117673031D01*
X101279098Y-117667294D01*
X101203125Y-117659811D01*
X101169458Y-117663127D01*
X99506785Y-117663202D01*
X99506785Y-117191254D01*
X99510099Y-117157607D01*
X99496873Y-117023324D01*
X99457704Y-116894201D01*
X99394097Y-116775200D01*
X99308496Y-116670896D01*
X99204192Y-116585295D01*
X99085191Y-116521688D01*
X98956068Y-116482519D01*
X98855432Y-116472607D01*
X98821785Y-116469293D01*
X98788138Y-116472607D01*
X94092928Y-116472607D01*
X94059281Y-116469293D01*
X94025634Y-116472607D01*
X93924998Y-116482519D01*
X93795875Y-116521688D01*
X93676874Y-116585295D01*
X93572570Y-116670896D01*
X93486969Y-116775200D01*
X93423362Y-116894201D01*
X93384193Y-117023324D01*
X93370967Y-117157607D01*
X93374282Y-117191264D01*
X93374282Y-117663233D01*
X75694265Y-117663233D01*
X75694265Y-117191254D01*
X75697579Y-117157607D01*
X75684353Y-117023324D01*
X75645184Y-116894201D01*
X75581577Y-116775200D01*
X75495976Y-116670896D01*
X75391672Y-116585295D01*
X75272671Y-116521688D01*
X75143548Y-116482519D01*
X75042912Y-116472607D01*
X75009265Y-116469293D01*
X74975618Y-116472607D01*
X70280408Y-116472607D01*
X70246761Y-116469293D01*
X70213114Y-116472607D01*
X70112478Y-116482519D01*
X69983355Y-116521688D01*
X69864354Y-116585295D01*
X69760050Y-116670896D01*
X69674449Y-116775200D01*
X69610842Y-116894201D01*
X69571673Y-117023324D01*
X69558447Y-117157607D01*
X69561762Y-117191264D01*
X69561762Y-117663233D01*
X67900368Y-117663233D01*
X67865625Y-117659811D01*
X67731343Y-117673037D01*
X67602220Y-117712206D01*
X67483219Y-117775813D01*
X67378915Y-117861414D01*
X67378885Y-117861451D01*
X67378798Y-117861522D01*
X67293197Y-117965826D01*
X67229590Y-118084827D01*
X67190421Y-118213950D01*
X67177195Y-118348233D01*
X63791428Y-118348233D01*
X63791439Y-118348125D01*
X63778213Y-118213842D01*
X63739044Y-118084719D01*
X63675437Y-117965718D01*
X63589836Y-117861414D01*
X63485532Y-117775813D01*
X63366531Y-117712206D01*
X63237408Y-117673037D01*
X63136772Y-117663125D01*
X63103125Y-117659811D01*
X63069478Y-117663125D01*
X48849272Y-117663125D01*
X48815625Y-117659811D01*
X48781978Y-117663125D01*
X48681342Y-117673037D01*
X48552219Y-117712206D01*
X48433218Y-117775813D01*
X48328914Y-117861414D01*
X48243313Y-117965718D01*
X48179706Y-118084719D01*
X48140537Y-118213842D01*
X48127311Y-118348125D01*
X44741439Y-118348125D01*
X44728213Y-118213842D01*
X44689044Y-118084719D01*
X44625437Y-117965718D01*
X44539836Y-117861414D01*
X44435532Y-117775813D01*
X44316531Y-117712206D01*
X44187408Y-117673037D01*
X44086772Y-117663125D01*
X44053125Y-117659811D01*
X44019478Y-117663125D01*
X29799272Y-117663125D01*
X29765625Y-117659811D01*
X29731978Y-117663125D01*
X29631342Y-117673037D01*
X29502219Y-117712206D01*
X29383218Y-117775813D01*
X29278914Y-117861414D01*
X29193313Y-117965718D01*
X29129706Y-118084719D01*
X29090537Y-118213842D01*
X29077311Y-118348125D01*
X25691439Y-118348125D01*
X25678213Y-118213842D01*
X25639044Y-118084719D01*
X25575437Y-117965718D01*
X25489836Y-117861414D01*
X25385532Y-117775813D01*
X25266531Y-117712206D01*
X25137408Y-117673037D01*
X25036772Y-117663125D01*
X25003125Y-117659811D01*
X24969478Y-117663125D01*
X10749272Y-117663125D01*
X10715625Y-117659811D01*
X10681978Y-117663125D01*
X10581342Y-117673037D01*
X10452219Y-117712206D01*
X10333218Y-117775813D01*
X10228914Y-117861414D01*
X10143313Y-117965718D01*
X10079706Y-118084719D01*
X10040537Y-118213842D01*
X10027311Y-118348125D01*
X6641439Y-118348125D01*
X6628213Y-118213842D01*
X6589044Y-118084719D01*
X6525437Y-117965718D01*
X6439836Y-117861414D01*
X6335532Y-117775813D01*
X6216531Y-117712206D01*
X6087408Y-117673037D01*
X5986772Y-117663125D01*
X5953125Y-117659811D01*
X5919478Y-117663125D01*
X-8300728Y-117663125D01*
X-8334375Y-117659811D01*
X-8368022Y-117663125D01*
X-8468658Y-117673037D01*
X-8597781Y-117712206D01*
X-8716782Y-117775813D01*
X-8821086Y-117861414D01*
X-8906687Y-117965718D01*
X-8970294Y-118084719D01*
X-9009463Y-118213842D01*
X-9022689Y-118348125D01*
X-9998457Y-118348125D01*
X-9998457Y-99298125D01*
X-9022689Y-99298125D01*
X-9019375Y-99331772D01*
X-9019374Y-113551968D01*
X-9022689Y-113585625D01*
X-9009463Y-113719908D01*
X-8970294Y-113849031D01*
X-8906687Y-113968032D01*
X-8821086Y-114072336D01*
X-8716782Y-114157937D01*
X-8597781Y-114221544D01*
X-8468658Y-114260713D01*
X-8368022Y-114270625D01*
X-8334375Y-114273939D01*
X-8300728Y-114270625D01*
X5919478Y-114270625D01*
X5953125Y-114273939D01*
X5986772Y-114270625D01*
X6087408Y-114260713D01*
X6216531Y-114221544D01*
X6335532Y-114157937D01*
X6439836Y-114072336D01*
X6525437Y-113968032D01*
X6589044Y-113849031D01*
X6628213Y-113719908D01*
X6641439Y-113585625D01*
X6638125Y-113551978D01*
X6638125Y-99331772D01*
X6641439Y-99298125D01*
X10027311Y-99298125D01*
X10030625Y-99331772D01*
X10030626Y-113551968D01*
X10027311Y-113585625D01*
X10040537Y-113719908D01*
X10079706Y-113849031D01*
X10143313Y-113968032D01*
X10228914Y-114072336D01*
X10333218Y-114157937D01*
X10452219Y-114221544D01*
X10581342Y-114260713D01*
X10681978Y-114270625D01*
X10715625Y-114273939D01*
X10749272Y-114270625D01*
X24969478Y-114270625D01*
X25003125Y-114273939D01*
X25036772Y-114270625D01*
X25137408Y-114260713D01*
X25266531Y-114221544D01*
X25385532Y-114157937D01*
X25489836Y-114072336D01*
X25575437Y-113968032D01*
X25639044Y-113849031D01*
X25678213Y-113719908D01*
X25691439Y-113585625D01*
X25688125Y-113551978D01*
X25688125Y-99331772D01*
X25691439Y-99298125D01*
X29077311Y-99298125D01*
X29080625Y-99331772D01*
X29080626Y-113551968D01*
X29077311Y-113585625D01*
X29090537Y-113719908D01*
X29129706Y-113849031D01*
X29193313Y-113968032D01*
X29278914Y-114072336D01*
X29383218Y-114157937D01*
X29502219Y-114221544D01*
X29631342Y-114260713D01*
X29731978Y-114270625D01*
X29765625Y-114273939D01*
X29799272Y-114270625D01*
X44019478Y-114270625D01*
X44053125Y-114273939D01*
X44086772Y-114270625D01*
X44187408Y-114260713D01*
X44316531Y-114221544D01*
X44435532Y-114157937D01*
X44539836Y-114072336D01*
X44625437Y-113968032D01*
X44689044Y-113849031D01*
X44728213Y-113719908D01*
X44741439Y-113585625D01*
X44738125Y-113551978D01*
X44738125Y-99331772D01*
X44741439Y-99298125D01*
X48127311Y-99298125D01*
X48130626Y-99331782D01*
X48130625Y-113551978D01*
X48127311Y-113585625D01*
X48140537Y-113719908D01*
X48179706Y-113849031D01*
X48243313Y-113968032D01*
X48328914Y-114072336D01*
X48433218Y-114157937D01*
X48552219Y-114221544D01*
X48681342Y-114260713D01*
X48815625Y-114273939D01*
X48849272Y-114270625D01*
X63069478Y-114270625D01*
X63103125Y-114273939D01*
X63237408Y-114260713D01*
X63366531Y-114221544D01*
X63485532Y-114157937D01*
X63589836Y-114072336D01*
X63675437Y-113968032D01*
X63739044Y-113849031D01*
X63778213Y-113719908D01*
X63788125Y-113619272D01*
X63788125Y-113619271D01*
X63791439Y-113585625D01*
X63788125Y-113551978D01*
X63788125Y-99331772D01*
X63791439Y-99298125D01*
X67177311Y-99298125D01*
X67180626Y-99331782D01*
X67180625Y-113551978D01*
X67177311Y-113585625D01*
X67190537Y-113719908D01*
X67229706Y-113849031D01*
X67293313Y-113968032D01*
X67378914Y-114072336D01*
X67483218Y-114157937D01*
X67602219Y-114221544D01*
X67731342Y-114260713D01*
X67865625Y-114273939D01*
X67899272Y-114270625D01*
X82119478Y-114270625D01*
X82153125Y-114273939D01*
X82287408Y-114260713D01*
X82416531Y-114221544D01*
X82535532Y-114157937D01*
X82639836Y-114072336D01*
X82725437Y-113968032D01*
X82789044Y-113849031D01*
X82828213Y-113719908D01*
X82838125Y-113619272D01*
X82838125Y-113619271D01*
X82841439Y-113585625D01*
X82838125Y-113551978D01*
X82838125Y-99331772D01*
X82841439Y-99298125D01*
X86227311Y-99298125D01*
X86230625Y-99331772D01*
X86230626Y-113551968D01*
X86227311Y-113585625D01*
X86240537Y-113719908D01*
X86279706Y-113849031D01*
X86343313Y-113968032D01*
X86428914Y-114072336D01*
X86533218Y-114157937D01*
X86652219Y-114221544D01*
X86781342Y-114260713D01*
X86881978Y-114270625D01*
X86915625Y-114273939D01*
X86949272Y-114270625D01*
X101169478Y-114270625D01*
X101203125Y-114273939D01*
X101236772Y-114270625D01*
X101337408Y-114260713D01*
X101466531Y-114221544D01*
X101585532Y-114157937D01*
X101689836Y-114072336D01*
X101775437Y-113968032D01*
X101839044Y-113849031D01*
X101878213Y-113719908D01*
X101891439Y-113585625D01*
X101888125Y-113551978D01*
X101888125Y-99331772D01*
X101891439Y-99298125D01*
X101878213Y-99163842D01*
X101839044Y-99034719D01*
X101775437Y-98915718D01*
X101689836Y-98811414D01*
X101585532Y-98725813D01*
X101466531Y-98662206D01*
X101337408Y-98623037D01*
X101236772Y-98613125D01*
X101203125Y-98609811D01*
X101169478Y-98613125D01*
X86949272Y-98613125D01*
X86915625Y-98609811D01*
X86881978Y-98613125D01*
X86781342Y-98623037D01*
X86652219Y-98662206D01*
X86533218Y-98725813D01*
X86428914Y-98811414D01*
X86343313Y-98915718D01*
X86279706Y-99034719D01*
X86240537Y-99163842D01*
X86227311Y-99298125D01*
X82841439Y-99298125D01*
X82828213Y-99163842D01*
X82789044Y-99034719D01*
X82725437Y-98915718D01*
X82639836Y-98811414D01*
X82535532Y-98725813D01*
X82416531Y-98662206D01*
X82287408Y-98623037D01*
X82186772Y-98613125D01*
X82153125Y-98609811D01*
X82119478Y-98613125D01*
X67899272Y-98613125D01*
X67865625Y-98609811D01*
X67831978Y-98613125D01*
X67731342Y-98623037D01*
X67602219Y-98662206D01*
X67483218Y-98725813D01*
X67378914Y-98811414D01*
X67293313Y-98915718D01*
X67229706Y-99034719D01*
X67190537Y-99163842D01*
X67177311Y-99298125D01*
X63791439Y-99298125D01*
X63778213Y-99163842D01*
X63739044Y-99034719D01*
X63675437Y-98915718D01*
X63589836Y-98811414D01*
X63485532Y-98725813D01*
X63366531Y-98662206D01*
X63237408Y-98623037D01*
X63136772Y-98613125D01*
X63103125Y-98609811D01*
X63069478Y-98613125D01*
X48849272Y-98613125D01*
X48815625Y-98609811D01*
X48781978Y-98613125D01*
X48681342Y-98623037D01*
X48552219Y-98662206D01*
X48433218Y-98725813D01*
X48328914Y-98811414D01*
X48243313Y-98915718D01*
X48179706Y-99034719D01*
X48140537Y-99163842D01*
X48127311Y-99298125D01*
X44741439Y-99298125D01*
X44728213Y-99163842D01*
X44689044Y-99034719D01*
X44625437Y-98915718D01*
X44539836Y-98811414D01*
X44435532Y-98725813D01*
X44316531Y-98662206D01*
X44187408Y-98623037D01*
X44086772Y-98613125D01*
X44053125Y-98609811D01*
X44019478Y-98613125D01*
X29799272Y-98613125D01*
X29765625Y-98609811D01*
X29731978Y-98613125D01*
X29631342Y-98623037D01*
X29502219Y-98662206D01*
X29383218Y-98725813D01*
X29278914Y-98811414D01*
X29193313Y-98915718D01*
X29129706Y-99034719D01*
X29090537Y-99163842D01*
X29077311Y-99298125D01*
X25691439Y-99298125D01*
X25678213Y-99163842D01*
X25639044Y-99034719D01*
X25575437Y-98915718D01*
X25489836Y-98811414D01*
X25385532Y-98725813D01*
X25266531Y-98662206D01*
X25137408Y-98623037D01*
X25036772Y-98613125D01*
X25003125Y-98609811D01*
X24969478Y-98613125D01*
X10749272Y-98613125D01*
X10715625Y-98609811D01*
X10681978Y-98613125D01*
X10581342Y-98623037D01*
X10452219Y-98662206D01*
X10333218Y-98725813D01*
X10228914Y-98811414D01*
X10143313Y-98915718D01*
X10079706Y-99034719D01*
X10040537Y-99163842D01*
X10027311Y-99298125D01*
X6641439Y-99298125D01*
X6628213Y-99163842D01*
X6589044Y-99034719D01*
X6525437Y-98915718D01*
X6439836Y-98811414D01*
X6335532Y-98725813D01*
X6216531Y-98662206D01*
X6087408Y-98623037D01*
X5986772Y-98613125D01*
X5953125Y-98609811D01*
X5919478Y-98613125D01*
X-8300728Y-98613125D01*
X-8334375Y-98609811D01*
X-8368022Y-98613125D01*
X-8468658Y-98623037D01*
X-8597781Y-98662206D01*
X-8716782Y-98725813D01*
X-8821086Y-98811414D01*
X-8906687Y-98915718D01*
X-8970294Y-99034719D01*
X-9009463Y-99163842D01*
X-9022689Y-99298125D01*
X-9998457Y-99298125D01*
X-9998457Y-80248125D01*
X-9022689Y-80248125D01*
X-9019375Y-80281772D01*
X-9019374Y-94502056D01*
X-9022689Y-94535713D01*
X-9009463Y-94669996D01*
X-8970294Y-94799119D01*
X-8906687Y-94918120D01*
X-8821086Y-95022424D01*
X-8716782Y-95108025D01*
X-8597781Y-95171632D01*
X-8468658Y-95210801D01*
X-8368022Y-95220713D01*
X-8367128Y-95220713D01*
X-8334375Y-95223939D01*
X-8301622Y-95220713D01*
X5920372Y-95220713D01*
X5953125Y-95223939D01*
X5985878Y-95220713D01*
X5986772Y-95220713D01*
X6087408Y-95210801D01*
X6216531Y-95171632D01*
X6335532Y-95108025D01*
X6439836Y-95022424D01*
X6525437Y-94918120D01*
X6589044Y-94799119D01*
X6628213Y-94669996D01*
X6641439Y-94535713D01*
X6638125Y-94502066D01*
X6638125Y-80281772D01*
X6641439Y-80248125D01*
X10027311Y-80248125D01*
X10030625Y-80281772D01*
X10030626Y-94501968D01*
X10027311Y-94535625D01*
X10040537Y-94669908D01*
X10079706Y-94799031D01*
X10143313Y-94918032D01*
X10228914Y-95022336D01*
X10333218Y-95107937D01*
X10452219Y-95171544D01*
X10581342Y-95210713D01*
X10681978Y-95220625D01*
X10715625Y-95223939D01*
X10749272Y-95220625D01*
X24969478Y-95220625D01*
X25003125Y-95223939D01*
X25036772Y-95220625D01*
X25137408Y-95210713D01*
X25266531Y-95171544D01*
X25385532Y-95107937D01*
X25489836Y-95022336D01*
X25575437Y-94918032D01*
X25639044Y-94799031D01*
X25678213Y-94669908D01*
X25691439Y-94535625D01*
X25688125Y-94501978D01*
X25688125Y-80281772D01*
X25691439Y-80248125D01*
X29077311Y-80248125D01*
X29080625Y-80281772D01*
X29080626Y-94501968D01*
X29077311Y-94535625D01*
X29090537Y-94669908D01*
X29129706Y-94799031D01*
X29193313Y-94918032D01*
X29278914Y-95022336D01*
X29383218Y-95107937D01*
X29502219Y-95171544D01*
X29631342Y-95210713D01*
X29731978Y-95220625D01*
X29765625Y-95223939D01*
X29799272Y-95220625D01*
X44019478Y-95220625D01*
X44053125Y-95223939D01*
X44086772Y-95220625D01*
X44187408Y-95210713D01*
X44316531Y-95171544D01*
X44435532Y-95107937D01*
X44539836Y-95022336D01*
X44625437Y-94918032D01*
X44689044Y-94799031D01*
X44728213Y-94669908D01*
X44741439Y-94535625D01*
X44738125Y-94501978D01*
X44738125Y-80281772D01*
X44741439Y-80248125D01*
X48127311Y-80248125D01*
X48130626Y-80281782D01*
X48130625Y-94501978D01*
X48127311Y-94535625D01*
X48140537Y-94669908D01*
X48179706Y-94799031D01*
X48243313Y-94918032D01*
X48328914Y-95022336D01*
X48433218Y-95107937D01*
X48552219Y-95171544D01*
X48681342Y-95210713D01*
X48815625Y-95223939D01*
X48849272Y-95220625D01*
X63069478Y-95220625D01*
X63103125Y-95223939D01*
X63237408Y-95210713D01*
X63366531Y-95171544D01*
X63485532Y-95107937D01*
X63589836Y-95022336D01*
X63675437Y-94918032D01*
X63739044Y-94799031D01*
X63778213Y-94669908D01*
X63788125Y-94569272D01*
X63788125Y-94569271D01*
X63791439Y-94535625D01*
X63788125Y-94501978D01*
X63788125Y-80281772D01*
X63791439Y-80248125D01*
X67177311Y-80248125D01*
X67180626Y-80281782D01*
X67180625Y-94501978D01*
X67177311Y-94535625D01*
X67190537Y-94669908D01*
X67229706Y-94799031D01*
X67293313Y-94918032D01*
X67378914Y-95022336D01*
X67483218Y-95107937D01*
X67602219Y-95171544D01*
X67731342Y-95210713D01*
X67865625Y-95223939D01*
X67899272Y-95220625D01*
X82119478Y-95220625D01*
X82153125Y-95223939D01*
X82287408Y-95210713D01*
X82416531Y-95171544D01*
X82535532Y-95107937D01*
X82639836Y-95022336D01*
X82725437Y-94918032D01*
X82789044Y-94799031D01*
X82828213Y-94669908D01*
X82838125Y-94569272D01*
X82838125Y-94569271D01*
X82841439Y-94535625D01*
X82838125Y-94501978D01*
X82838125Y-80281772D01*
X82841439Y-80248125D01*
X86227311Y-80248125D01*
X86230625Y-80281772D01*
X86230626Y-94501968D01*
X86227311Y-94535625D01*
X86240537Y-94669908D01*
X86279706Y-94799031D01*
X86343313Y-94918032D01*
X86428914Y-95022336D01*
X86533218Y-95107937D01*
X86652219Y-95171544D01*
X86781342Y-95210713D01*
X86881978Y-95220625D01*
X86915625Y-95223939D01*
X86949272Y-95220625D01*
X101169478Y-95220625D01*
X101203125Y-95223939D01*
X101236772Y-95220625D01*
X101337408Y-95210713D01*
X101466531Y-95171544D01*
X101585532Y-95107937D01*
X101689836Y-95022336D01*
X101775437Y-94918032D01*
X101839044Y-94799031D01*
X101878213Y-94669908D01*
X101891439Y-94535625D01*
X101888125Y-94501978D01*
X101888125Y-80281772D01*
X101891439Y-80248125D01*
X101878213Y-80113842D01*
X101839044Y-79984719D01*
X101775437Y-79865718D01*
X101689836Y-79761414D01*
X101585532Y-79675813D01*
X101466531Y-79612206D01*
X101337408Y-79573037D01*
X101236772Y-79563125D01*
X101203125Y-79559811D01*
X101169478Y-79563125D01*
X86949272Y-79563125D01*
X86915625Y-79559811D01*
X86881978Y-79563125D01*
X86781342Y-79573037D01*
X86652219Y-79612206D01*
X86533218Y-79675813D01*
X86428914Y-79761414D01*
X86343313Y-79865718D01*
X86279706Y-79984719D01*
X86240537Y-80113842D01*
X86227311Y-80248125D01*
X82841439Y-80248125D01*
X82828213Y-80113842D01*
X82789044Y-79984719D01*
X82725437Y-79865718D01*
X82639836Y-79761414D01*
X82535532Y-79675813D01*
X82416531Y-79612206D01*
X82287408Y-79573037D01*
X82186772Y-79563125D01*
X82153125Y-79559811D01*
X82119478Y-79563125D01*
X67899272Y-79563125D01*
X67865625Y-79559811D01*
X67831978Y-79563125D01*
X67731342Y-79573037D01*
X67602219Y-79612206D01*
X67483218Y-79675813D01*
X67378914Y-79761414D01*
X67293313Y-79865718D01*
X67229706Y-79984719D01*
X67190537Y-80113842D01*
X67177311Y-80248125D01*
X63791439Y-80248125D01*
X63778213Y-80113842D01*
X63739044Y-79984719D01*
X63675437Y-79865718D01*
X63589836Y-79761414D01*
X63485532Y-79675813D01*
X63366531Y-79612206D01*
X63237408Y-79573037D01*
X63136772Y-79563125D01*
X63103125Y-79559811D01*
X63069478Y-79563125D01*
X48849272Y-79563125D01*
X48815625Y-79559811D01*
X48781978Y-79563125D01*
X48681342Y-79573037D01*
X48552219Y-79612206D01*
X48433218Y-79675813D01*
X48328914Y-79761414D01*
X48243313Y-79865718D01*
X48179706Y-79984719D01*
X48140537Y-80113842D01*
X48127311Y-80248125D01*
X44741439Y-80248125D01*
X44728213Y-80113842D01*
X44689044Y-79984719D01*
X44625437Y-79865718D01*
X44539836Y-79761414D01*
X44435532Y-79675813D01*
X44316531Y-79612206D01*
X44187408Y-79573037D01*
X44086772Y-79563125D01*
X44053125Y-79559811D01*
X44019478Y-79563125D01*
X29799272Y-79563125D01*
X29765625Y-79559811D01*
X29731978Y-79563125D01*
X29631342Y-79573037D01*
X29502219Y-79612206D01*
X29383218Y-79675813D01*
X29278914Y-79761414D01*
X29193313Y-79865718D01*
X29129706Y-79984719D01*
X29090537Y-80113842D01*
X29077311Y-80248125D01*
X25691439Y-80248125D01*
X25678213Y-80113842D01*
X25639044Y-79984719D01*
X25575437Y-79865718D01*
X25489836Y-79761414D01*
X25385532Y-79675813D01*
X25266531Y-79612206D01*
X25137408Y-79573037D01*
X25036772Y-79563125D01*
X25003125Y-79559811D01*
X24969478Y-79563125D01*
X10749272Y-79563125D01*
X10715625Y-79559811D01*
X10681978Y-79563125D01*
X10581342Y-79573037D01*
X10452219Y-79612206D01*
X10333218Y-79675813D01*
X10228914Y-79761414D01*
X10143313Y-79865718D01*
X10079706Y-79984719D01*
X10040537Y-80113842D01*
X10027311Y-80248125D01*
X6641439Y-80248125D01*
X6628213Y-80113842D01*
X6589044Y-79984719D01*
X6525437Y-79865718D01*
X6439836Y-79761414D01*
X6335532Y-79675813D01*
X6216531Y-79612206D01*
X6087408Y-79573037D01*
X5986772Y-79563125D01*
X5953125Y-79559811D01*
X5919478Y-79563125D01*
X-8300728Y-79563125D01*
X-8334375Y-79559811D01*
X-8368022Y-79563125D01*
X-8468658Y-79573037D01*
X-8597781Y-79612206D01*
X-8716782Y-79675813D01*
X-8821086Y-79761414D01*
X-8906687Y-79865718D01*
X-8970294Y-79984719D01*
X-9009463Y-80113842D01*
X-9022689Y-80248125D01*
X-9998457Y-80248125D01*
X-9998457Y-61198125D01*
X-9022689Y-61198125D01*
X-9019375Y-61231772D01*
X-9019374Y-75451968D01*
X-9022689Y-75485625D01*
X-9009463Y-75619908D01*
X-8970294Y-75749031D01*
X-8906687Y-75868032D01*
X-8821086Y-75972336D01*
X-8716782Y-76057937D01*
X-8597781Y-76121544D01*
X-8468658Y-76160713D01*
X-8368022Y-76170625D01*
X-8334375Y-76173939D01*
X-8300728Y-76170625D01*
X5919478Y-76170625D01*
X5953125Y-76173939D01*
X5986772Y-76170625D01*
X6087408Y-76160713D01*
X6216531Y-76121544D01*
X6335532Y-76057937D01*
X6439836Y-75972336D01*
X6525437Y-75868032D01*
X6589044Y-75749031D01*
X6628213Y-75619908D01*
X6641439Y-75485625D01*
X6638125Y-75451978D01*
X6638125Y-61231772D01*
X6641439Y-61198125D01*
X10027311Y-61198125D01*
X10030625Y-61231772D01*
X10030626Y-75451968D01*
X10027311Y-75485625D01*
X10040537Y-75619908D01*
X10079706Y-75749031D01*
X10143313Y-75868032D01*
X10228914Y-75972336D01*
X10333218Y-76057937D01*
X10452219Y-76121544D01*
X10581342Y-76160713D01*
X10681978Y-76170625D01*
X10715625Y-76173939D01*
X10749272Y-76170625D01*
X24969478Y-76170625D01*
X25003125Y-76173939D01*
X25036772Y-76170625D01*
X25137408Y-76160713D01*
X25266531Y-76121544D01*
X25385532Y-76057937D01*
X25489836Y-75972336D01*
X25575437Y-75868032D01*
X25639044Y-75749031D01*
X25678213Y-75619908D01*
X25691439Y-75485625D01*
X25688125Y-75451978D01*
X25688125Y-61231772D01*
X25691439Y-61198125D01*
X29077311Y-61198125D01*
X29080625Y-61231772D01*
X29080626Y-75451968D01*
X29077311Y-75485625D01*
X29090537Y-75619908D01*
X29129706Y-75749031D01*
X29193313Y-75868032D01*
X29278914Y-75972336D01*
X29383218Y-76057937D01*
X29502219Y-76121544D01*
X29631342Y-76160713D01*
X29731978Y-76170625D01*
X29765625Y-76173939D01*
X29799272Y-76170625D01*
X44019478Y-76170625D01*
X44053125Y-76173939D01*
X44086772Y-76170625D01*
X44187408Y-76160713D01*
X44316531Y-76121544D01*
X44435532Y-76057937D01*
X44539836Y-75972336D01*
X44625437Y-75868032D01*
X44689044Y-75749031D01*
X44728213Y-75619908D01*
X44741439Y-75485625D01*
X44738125Y-75451978D01*
X44738125Y-61231772D01*
X44741439Y-61198125D01*
X48127311Y-61198125D01*
X48130626Y-61231782D01*
X48130625Y-75451978D01*
X48127311Y-75485625D01*
X48140537Y-75619908D01*
X48179706Y-75749031D01*
X48243313Y-75868032D01*
X48328914Y-75972336D01*
X48433218Y-76057937D01*
X48552219Y-76121544D01*
X48681342Y-76160713D01*
X48815625Y-76173939D01*
X48849272Y-76170625D01*
X63069478Y-76170625D01*
X63103125Y-76173939D01*
X63237408Y-76160713D01*
X63366531Y-76121544D01*
X63485532Y-76057937D01*
X63589836Y-75972336D01*
X63675437Y-75868032D01*
X63739044Y-75749031D01*
X63778213Y-75619908D01*
X63788125Y-75519272D01*
X63788125Y-75519271D01*
X63791439Y-75485625D01*
X63788125Y-75451978D01*
X63788125Y-61231772D01*
X63791439Y-61198125D01*
X67177311Y-61198125D01*
X67180626Y-61231782D01*
X67180625Y-75451978D01*
X67177311Y-75485625D01*
X67190537Y-75619908D01*
X67229706Y-75749031D01*
X67293313Y-75868032D01*
X67378914Y-75972336D01*
X67483218Y-76057937D01*
X67602219Y-76121544D01*
X67731342Y-76160713D01*
X67865625Y-76173939D01*
X67899272Y-76170625D01*
X82119478Y-76170625D01*
X82153125Y-76173939D01*
X82287408Y-76160713D01*
X82416531Y-76121544D01*
X82535532Y-76057937D01*
X82639836Y-75972336D01*
X82725437Y-75868032D01*
X82789044Y-75749031D01*
X82828213Y-75619908D01*
X82838125Y-75519272D01*
X82838125Y-75519271D01*
X82841439Y-75485625D01*
X82838125Y-75451978D01*
X82838125Y-61231772D01*
X82841439Y-61198125D01*
X86227311Y-61198125D01*
X86230625Y-61231772D01*
X86230626Y-75451968D01*
X86227311Y-75485625D01*
X86240537Y-75619908D01*
X86279706Y-75749031D01*
X86343313Y-75868032D01*
X86428914Y-75972336D01*
X86533218Y-76057937D01*
X86652219Y-76121544D01*
X86781342Y-76160713D01*
X86881978Y-76170625D01*
X86915625Y-76173939D01*
X86949272Y-76170625D01*
X101169478Y-76170625D01*
X101203125Y-76173939D01*
X101236772Y-76170625D01*
X101337408Y-76160713D01*
X101466531Y-76121544D01*
X101585532Y-76057937D01*
X101689836Y-75972336D01*
X101775437Y-75868032D01*
X101839044Y-75749031D01*
X101878213Y-75619908D01*
X101891439Y-75485625D01*
X101888125Y-75451978D01*
X101888125Y-61231772D01*
X101891439Y-61198125D01*
X101878213Y-61063842D01*
X101839044Y-60934719D01*
X101775437Y-60815718D01*
X101689836Y-60711414D01*
X101585532Y-60625813D01*
X101466531Y-60562206D01*
X101337408Y-60523037D01*
X101236772Y-60513125D01*
X101203125Y-60509811D01*
X101169478Y-60513125D01*
X86949272Y-60513125D01*
X86915625Y-60509811D01*
X86881978Y-60513125D01*
X86781342Y-60523037D01*
X86652219Y-60562206D01*
X86533218Y-60625813D01*
X86428914Y-60711414D01*
X86343313Y-60815718D01*
X86279706Y-60934719D01*
X86240537Y-61063842D01*
X86227311Y-61198125D01*
X82841439Y-61198125D01*
X82828213Y-61063842D01*
X82789044Y-60934719D01*
X82725437Y-60815718D01*
X82639836Y-60711414D01*
X82535532Y-60625813D01*
X82416531Y-60562206D01*
X82287408Y-60523037D01*
X82186772Y-60513125D01*
X82153125Y-60509811D01*
X82119478Y-60513125D01*
X67899272Y-60513125D01*
X67865625Y-60509811D01*
X67831978Y-60513125D01*
X67731342Y-60523037D01*
X67602219Y-60562206D01*
X67483218Y-60625813D01*
X67378914Y-60711414D01*
X67293313Y-60815718D01*
X67229706Y-60934719D01*
X67190537Y-61063842D01*
X67177311Y-61198125D01*
X63791439Y-61198125D01*
X63778213Y-61063842D01*
X63739044Y-60934719D01*
X63675437Y-60815718D01*
X63589836Y-60711414D01*
X63485532Y-60625813D01*
X63366531Y-60562206D01*
X63237408Y-60523037D01*
X63136772Y-60513125D01*
X63103125Y-60509811D01*
X63069478Y-60513125D01*
X48849272Y-60513125D01*
X48815625Y-60509811D01*
X48781978Y-60513125D01*
X48681342Y-60523037D01*
X48552219Y-60562206D01*
X48433218Y-60625813D01*
X48328914Y-60711414D01*
X48243313Y-60815718D01*
X48179706Y-60934719D01*
X48140537Y-61063842D01*
X48127311Y-61198125D01*
X44741439Y-61198125D01*
X44728213Y-61063842D01*
X44689044Y-60934719D01*
X44625437Y-60815718D01*
X44539836Y-60711414D01*
X44435532Y-60625813D01*
X44316531Y-60562206D01*
X44187408Y-60523037D01*
X44086772Y-60513125D01*
X44053125Y-60509811D01*
X44019478Y-60513125D01*
X29799272Y-60513125D01*
X29765625Y-60509811D01*
X29731978Y-60513125D01*
X29631342Y-60523037D01*
X29502219Y-60562206D01*
X29383218Y-60625813D01*
X29278914Y-60711414D01*
X29193313Y-60815718D01*
X29129706Y-60934719D01*
X29090537Y-61063842D01*
X29077311Y-61198125D01*
X25691439Y-61198125D01*
X25678213Y-61063842D01*
X25639044Y-60934719D01*
X25575437Y-60815718D01*
X25489836Y-60711414D01*
X25385532Y-60625813D01*
X25266531Y-60562206D01*
X25137408Y-60523037D01*
X25036772Y-60513125D01*
X25003125Y-60509811D01*
X24969478Y-60513125D01*
X10749272Y-60513125D01*
X10715625Y-60509811D01*
X10681978Y-60513125D01*
X10581342Y-60523037D01*
X10452219Y-60562206D01*
X10333218Y-60625813D01*
X10228914Y-60711414D01*
X10143313Y-60815718D01*
X10079706Y-60934719D01*
X10040537Y-61063842D01*
X10027311Y-61198125D01*
X6641439Y-61198125D01*
X6628213Y-61063842D01*
X6589044Y-60934719D01*
X6525437Y-60815718D01*
X6439836Y-60711414D01*
X6335532Y-60625813D01*
X6216531Y-60562206D01*
X6087408Y-60523037D01*
X5986772Y-60513125D01*
X5953125Y-60509811D01*
X5919478Y-60513125D01*
X-8300728Y-60513125D01*
X-8334375Y-60509811D01*
X-8368022Y-60513125D01*
X-8468658Y-60523037D01*
X-8597781Y-60562206D01*
X-8716782Y-60625813D01*
X-8821086Y-60711414D01*
X-8906687Y-60815718D01*
X-8970294Y-60934719D01*
X-9009463Y-61063842D01*
X-9022689Y-61198125D01*
X-9998457Y-61198125D01*
X-9998457Y-58724786D01*
X7399375Y-58724786D01*
X7399375Y-58908964D01*
X7435307Y-59089604D01*
X7505789Y-59259764D01*
X7608113Y-59412903D01*
X7738347Y-59543137D01*
X7891486Y-59645461D01*
X8061646Y-59715943D01*
X8242286Y-59751875D01*
X8426464Y-59751875D01*
X8607104Y-59715943D01*
X8777264Y-59645461D01*
X8930403Y-59543137D01*
X9060637Y-59412903D01*
X9162961Y-59259764D01*
X9233443Y-59089604D01*
X9269375Y-58908964D01*
X9269375Y-58724786D01*
X9233443Y-58544146D01*
X9162961Y-58373986D01*
X9060637Y-58220847D01*
X8930403Y-58090613D01*
X8777264Y-57988289D01*
X8607104Y-57917807D01*
X8426464Y-57881875D01*
X8242286Y-57881875D01*
X8061646Y-57917807D01*
X7891486Y-57988289D01*
X7738347Y-58090613D01*
X7608113Y-58220847D01*
X7505789Y-58373986D01*
X7435307Y-58544146D01*
X7399375Y-58724786D01*
X-9998457Y-58724786D01*
X-9998457Y-42148125D01*
X-9022689Y-42148125D01*
X-9019375Y-42181772D01*
X-9019374Y-56401968D01*
X-9022689Y-56435625D01*
X-9009463Y-56569908D01*
X-8970294Y-56699031D01*
X-8906687Y-56818032D01*
X-8821086Y-56922336D01*
X-8716782Y-57007937D01*
X-8597781Y-57071544D01*
X-8468658Y-57110713D01*
X-8368022Y-57120625D01*
X-8334375Y-57123939D01*
X-8300728Y-57120625D01*
X5919478Y-57120625D01*
X5953125Y-57123939D01*
X5986772Y-57120625D01*
X6087408Y-57110713D01*
X6216531Y-57071544D01*
X6335532Y-57007937D01*
X6439836Y-56922336D01*
X6525437Y-56818032D01*
X6589044Y-56699031D01*
X6628213Y-56569908D01*
X6641439Y-56435625D01*
X6638125Y-56401978D01*
X6638125Y-42181772D01*
X6641439Y-42148125D01*
X10027311Y-42148125D01*
X10030625Y-42181772D01*
X10030626Y-56401968D01*
X10027311Y-56435625D01*
X10040537Y-56569908D01*
X10079706Y-56699031D01*
X10143313Y-56818032D01*
X10228914Y-56922336D01*
X10333218Y-57007937D01*
X10452219Y-57071544D01*
X10581342Y-57110713D01*
X10681978Y-57120625D01*
X10715625Y-57123939D01*
X10749272Y-57120625D01*
X24969478Y-57120625D01*
X25003125Y-57123939D01*
X25036772Y-57120625D01*
X25137408Y-57110713D01*
X25266531Y-57071544D01*
X25385532Y-57007937D01*
X25489836Y-56922336D01*
X25575437Y-56818032D01*
X25639044Y-56699031D01*
X25678213Y-56569908D01*
X25691439Y-56435625D01*
X25688125Y-56401978D01*
X25688125Y-42181772D01*
X25691439Y-42148125D01*
X29077311Y-42148125D01*
X29080625Y-42181772D01*
X29080626Y-56401968D01*
X29077311Y-56435625D01*
X29090537Y-56569908D01*
X29129706Y-56699031D01*
X29193313Y-56818032D01*
X29278914Y-56922336D01*
X29383218Y-57007937D01*
X29502219Y-57071544D01*
X29631342Y-57110713D01*
X29731978Y-57120625D01*
X29765625Y-57123939D01*
X29799272Y-57120625D01*
X44019478Y-57120625D01*
X44053125Y-57123939D01*
X44086772Y-57120625D01*
X44187408Y-57110713D01*
X44316531Y-57071544D01*
X44435532Y-57007937D01*
X44539836Y-56922336D01*
X44625437Y-56818032D01*
X44689044Y-56699031D01*
X44728213Y-56569908D01*
X44741439Y-56435625D01*
X44738125Y-56401978D01*
X44738125Y-42181772D01*
X44741439Y-42148125D01*
X48127311Y-42148125D01*
X48130626Y-42181782D01*
X48130625Y-56401978D01*
X48127311Y-56435625D01*
X48140537Y-56569908D01*
X48179706Y-56699031D01*
X48243313Y-56818032D01*
X48328914Y-56922336D01*
X48433218Y-57007937D01*
X48552219Y-57071544D01*
X48681342Y-57110713D01*
X48815625Y-57123939D01*
X48849272Y-57120625D01*
X63069478Y-57120625D01*
X63103125Y-57123939D01*
X63237408Y-57110713D01*
X63366531Y-57071544D01*
X63485532Y-57007937D01*
X63589836Y-56922336D01*
X63675437Y-56818032D01*
X63739044Y-56699031D01*
X63778213Y-56569908D01*
X63788125Y-56469272D01*
X63788125Y-56469271D01*
X63791439Y-56435625D01*
X63788125Y-56401978D01*
X63788125Y-42181772D01*
X63791439Y-42148125D01*
X67177311Y-42148125D01*
X67180626Y-42181782D01*
X67180625Y-56401978D01*
X67177311Y-56435625D01*
X67190537Y-56569908D01*
X67229706Y-56699031D01*
X67293313Y-56818032D01*
X67378914Y-56922336D01*
X67483218Y-57007937D01*
X67602219Y-57071544D01*
X67731342Y-57110713D01*
X67865625Y-57123939D01*
X67899272Y-57120625D01*
X82119478Y-57120625D01*
X82153125Y-57123939D01*
X82287408Y-57110713D01*
X82416531Y-57071544D01*
X82535532Y-57007937D01*
X82639836Y-56922336D01*
X82725437Y-56818032D01*
X82789044Y-56699031D01*
X82828213Y-56569908D01*
X82838125Y-56469272D01*
X82838125Y-56469271D01*
X82841439Y-56435625D01*
X82838125Y-56401978D01*
X82838125Y-42181772D01*
X82841439Y-42148125D01*
X86227311Y-42148125D01*
X86230625Y-42181772D01*
X86230626Y-56401968D01*
X86227311Y-56435625D01*
X86240537Y-56569908D01*
X86279706Y-56699031D01*
X86343313Y-56818032D01*
X86428914Y-56922336D01*
X86533218Y-57007937D01*
X86652219Y-57071544D01*
X86781342Y-57110713D01*
X86881978Y-57120625D01*
X86915625Y-57123939D01*
X86949272Y-57120625D01*
X101169478Y-57120625D01*
X101203125Y-57123939D01*
X101236772Y-57120625D01*
X101337408Y-57110713D01*
X101466531Y-57071544D01*
X101585532Y-57007937D01*
X101689836Y-56922336D01*
X101775437Y-56818032D01*
X101839044Y-56699031D01*
X101878213Y-56569908D01*
X101891439Y-56435625D01*
X101888125Y-56401978D01*
X101888125Y-42181772D01*
X101891439Y-42148125D01*
X101878213Y-42013842D01*
X101839044Y-41884719D01*
X101775437Y-41765718D01*
X101689836Y-41661414D01*
X101585532Y-41575813D01*
X101466531Y-41512206D01*
X101337408Y-41473037D01*
X101236772Y-41463125D01*
X101203125Y-41459811D01*
X101169478Y-41463125D01*
X86949272Y-41463125D01*
X86915625Y-41459811D01*
X86881978Y-41463125D01*
X86781342Y-41473037D01*
X86652219Y-41512206D01*
X86533218Y-41575813D01*
X86428914Y-41661414D01*
X86343313Y-41765718D01*
X86279706Y-41884719D01*
X86240537Y-42013842D01*
X86227311Y-42148125D01*
X82841439Y-42148125D01*
X82828213Y-42013842D01*
X82789044Y-41884719D01*
X82725437Y-41765718D01*
X82639836Y-41661414D01*
X82535532Y-41575813D01*
X82416531Y-41512206D01*
X82287408Y-41473037D01*
X82186772Y-41463125D01*
X82153125Y-41459811D01*
X82119478Y-41463125D01*
X67899272Y-41463125D01*
X67865625Y-41459811D01*
X67831978Y-41463125D01*
X67731342Y-41473037D01*
X67602219Y-41512206D01*
X67483218Y-41575813D01*
X67378914Y-41661414D01*
X67293313Y-41765718D01*
X67229706Y-41884719D01*
X67190537Y-42013842D01*
X67177311Y-42148125D01*
X63791439Y-42148125D01*
X63778213Y-42013842D01*
X63739044Y-41884719D01*
X63675437Y-41765718D01*
X63589836Y-41661414D01*
X63485532Y-41575813D01*
X63366531Y-41512206D01*
X63237408Y-41473037D01*
X63136772Y-41463125D01*
X63103125Y-41459811D01*
X63069478Y-41463125D01*
X48849272Y-41463125D01*
X48815625Y-41459811D01*
X48781978Y-41463125D01*
X48681342Y-41473037D01*
X48552219Y-41512206D01*
X48433218Y-41575813D01*
X48328914Y-41661414D01*
X48243313Y-41765718D01*
X48179706Y-41884719D01*
X48140537Y-42013842D01*
X48127311Y-42148125D01*
X44741439Y-42148125D01*
X44728213Y-42013842D01*
X44689044Y-41884719D01*
X44625437Y-41765718D01*
X44539836Y-41661414D01*
X44435532Y-41575813D01*
X44316531Y-41512206D01*
X44187408Y-41473037D01*
X44086772Y-41463125D01*
X44053125Y-41459811D01*
X44019478Y-41463125D01*
X29799272Y-41463125D01*
X29765625Y-41459811D01*
X29731978Y-41463125D01*
X29631342Y-41473037D01*
X29502219Y-41512206D01*
X29383218Y-41575813D01*
X29278914Y-41661414D01*
X29193313Y-41765718D01*
X29129706Y-41884719D01*
X29090537Y-42013842D01*
X29077311Y-42148125D01*
X25691439Y-42148125D01*
X25678213Y-42013842D01*
X25639044Y-41884719D01*
X25575437Y-41765718D01*
X25489836Y-41661414D01*
X25385532Y-41575813D01*
X25266531Y-41512206D01*
X25137408Y-41473037D01*
X25036772Y-41463125D01*
X25003125Y-41459811D01*
X24969478Y-41463125D01*
X10749272Y-41463125D01*
X10715625Y-41459811D01*
X10681978Y-41463125D01*
X10581342Y-41473037D01*
X10452219Y-41512206D01*
X10333218Y-41575813D01*
X10228914Y-41661414D01*
X10143313Y-41765718D01*
X10079706Y-41884719D01*
X10040537Y-42013842D01*
X10027311Y-42148125D01*
X6641439Y-42148125D01*
X6628213Y-42013842D01*
X6589044Y-41884719D01*
X6525437Y-41765718D01*
X6439836Y-41661414D01*
X6335532Y-41575813D01*
X6216531Y-41512206D01*
X6087408Y-41473037D01*
X5986772Y-41463125D01*
X5953125Y-41459811D01*
X5919478Y-41463125D01*
X-8300728Y-41463125D01*
X-8334375Y-41459811D01*
X-8368022Y-41463125D01*
X-8468658Y-41473037D01*
X-8597781Y-41512206D01*
X-8716782Y-41575813D01*
X-8821086Y-41661414D01*
X-8906687Y-41765718D01*
X-8970294Y-41884719D01*
X-9009463Y-42013842D01*
X-9022689Y-42148125D01*
X-9998457Y-42148125D01*
X-9998457Y-41835951D01*
X-9970908Y-41554983D01*
X-9899749Y-41319292D01*
X-9784166Y-41101915D01*
X-9628562Y-40911125D01*
X-9438864Y-40754193D01*
X-9222300Y-40637098D01*
X-8987113Y-40564295D01*
X-8708429Y-40535004D01*
X31476137Y-40535004D01*
X31584117Y-40524369D01*
X31587178Y-40523441D01*
X31898228Y-40490091D01*
X31962743Y-40476707D01*
X32027394Y-40464374D01*
X32037218Y-40461409D01*
X32410093Y-40345985D01*
X32471523Y-40320162D01*
X32533272Y-40295214D01*
X32542333Y-40290396D01*
X32885687Y-40104744D01*
X32940931Y-40067482D01*
X32996657Y-40031016D01*
X33004610Y-40024530D01*
X33305366Y-39775723D01*
X33352343Y-39728417D01*
X33399901Y-39681845D01*
X33406443Y-39673938D01*
X33653144Y-39371453D01*
X33690036Y-39315927D01*
X33727646Y-39260998D01*
X33732527Y-39251971D01*
X33915776Y-38907328D01*
X33941171Y-38845715D01*
X33967404Y-38784509D01*
X33970439Y-38774706D01*
X34083257Y-38401034D01*
X34096200Y-38335667D01*
X34110046Y-38270526D01*
X34111119Y-38260320D01*
X34149209Y-37871851D01*
X34152717Y-37836234D01*
X34152717Y-37736076D01*
X34179763Y-37460230D01*
X35019861Y-37460230D01*
X35019861Y-37823874D01*
X35090805Y-38180530D01*
X35229965Y-38516492D01*
X35431994Y-38818851D01*
X35689129Y-39075986D01*
X35991488Y-39278015D01*
X36327450Y-39417175D01*
X36684106Y-39488119D01*
X37047750Y-39488119D01*
X37404406Y-39417175D01*
X37740368Y-39278015D01*
X38042727Y-39075986D01*
X38299862Y-38818851D01*
X38501891Y-38516492D01*
X38641051Y-38180530D01*
X38711995Y-37823874D01*
X38711995Y-37460230D01*
X38641051Y-37103574D01*
X38501891Y-36767612D01*
X38299862Y-36465253D01*
X38042727Y-36208118D01*
X37740368Y-36006089D01*
X37404406Y-35866929D01*
X37047750Y-35795985D01*
X36684106Y-35795985D01*
X36327450Y-35866929D01*
X35991488Y-36006089D01*
X35689129Y-36208118D01*
X35431994Y-36465253D01*
X35229965Y-36767612D01*
X35090805Y-37103574D01*
X35019861Y-37460230D01*
X34179763Y-37460230D01*
X34208833Y-37163757D01*
X34364607Y-36647810D01*
X34617625Y-36171954D01*
X34958258Y-35754296D01*
X35373518Y-35410763D01*
X35847602Y-35154427D01*
X36362444Y-34995057D01*
X36898441Y-34938721D01*
X37435165Y-34987567D01*
G37*
%TD.AperFunction*%
M02*
