%TF.GenerationSoftware,KiCad,Pcbnew,(5.1.10-1-10_14)*%
%TF.CreationDate,2021-09-18T15:35:40+02:00*%
%TF.ProjectId,brutal60-split,62727574-616c-4363-902d-73706c69742e,rev?*%
%TF.SameCoordinates,Original*%
%TF.FileFunction,Soldermask,Bot*%
%TF.FilePolarity,Negative*%
%FSLAX46Y46*%
G04 Gerber Fmt 4.6, Leading zero omitted, Abs format (unit mm)*
G04 Created by KiCad (PCBNEW (5.1.10-1-10_14)) date 2021-09-18 15:35:40*
%MOMM*%
%LPD*%
G01*
G04 APERTURE LIST*
%ADD10C,0.100000*%
G04 APERTURE END LIST*
D10*
G36*
X102393750Y-76676250D02*
G01*
X101203125Y-75485625D01*
X101203125Y-61198125D01*
X102393750Y-60007500D01*
X102393750Y-76676250D01*
G37*
X102393750Y-76676250D02*
X101203125Y-75485625D01*
X101203125Y-61198125D01*
X102393750Y-60007500D01*
X102393750Y-76676250D01*
G36*
X45243750Y-76676250D02*
G01*
X44053125Y-75485625D01*
X44053125Y-61198125D01*
X45243750Y-60007500D01*
X45243750Y-76676250D01*
G37*
X45243750Y-76676250D02*
X44053125Y-75485625D01*
X44053125Y-61198125D01*
X45243750Y-60007500D01*
X45243750Y-76676250D01*
G36*
X102393750Y-76676250D02*
G01*
X85725000Y-76676250D01*
X86915625Y-75485625D01*
X101203125Y-75485625D01*
X102393750Y-76676250D01*
G37*
X102393750Y-76676250D02*
X85725000Y-76676250D01*
X86915625Y-75485625D01*
X101203125Y-75485625D01*
X102393750Y-76676250D01*
G36*
X29765625Y-61198125D02*
G01*
X29765625Y-75485625D01*
X28575000Y-76676250D01*
X28575000Y-60007500D01*
X29765625Y-61198125D01*
G37*
X29765625Y-61198125D02*
X29765625Y-75485625D01*
X28575000Y-76676250D01*
X28575000Y-60007500D01*
X29765625Y-61198125D01*
G36*
X44053125Y-61198125D02*
G01*
X29765625Y-61198125D01*
X28575000Y-60007500D01*
X45243750Y-60007500D01*
X44053125Y-61198125D01*
G37*
X44053125Y-61198125D02*
X29765625Y-61198125D01*
X28575000Y-60007500D01*
X45243750Y-60007500D01*
X44053125Y-61198125D01*
G36*
X45243750Y-76676250D02*
G01*
X28575000Y-76676250D01*
X29765625Y-75485625D01*
X44053125Y-75485625D01*
X45243750Y-76676250D01*
G37*
X45243750Y-76676250D02*
X28575000Y-76676250D01*
X29765625Y-75485625D01*
X44053125Y-75485625D01*
X45243750Y-76676250D01*
G36*
X64293750Y-76676250D02*
G01*
X63103125Y-75485625D01*
X63103125Y-61198125D01*
X64293750Y-60007500D01*
X64293750Y-76676250D01*
G37*
X64293750Y-76676250D02*
X63103125Y-75485625D01*
X63103125Y-61198125D01*
X64293750Y-60007500D01*
X64293750Y-76676250D01*
G36*
X7143750Y-76676250D02*
G01*
X5953125Y-75485625D01*
X5953125Y-61198125D01*
X7143750Y-60007500D01*
X7143750Y-76676250D01*
G37*
X7143750Y-76676250D02*
X5953125Y-75485625D01*
X5953125Y-61198125D01*
X7143750Y-60007500D01*
X7143750Y-76676250D01*
G36*
X-8334375Y-61198125D02*
G01*
X-8334375Y-75485625D01*
X-9525000Y-76676250D01*
X-9525000Y-60007500D01*
X-8334375Y-61198125D01*
G37*
X-8334375Y-61198125D02*
X-8334375Y-75485625D01*
X-9525000Y-76676250D01*
X-9525000Y-60007500D01*
X-8334375Y-61198125D01*
G36*
X82153125Y-61198125D02*
G01*
X67865625Y-61198125D01*
X66675000Y-60007500D01*
X83343750Y-60007500D01*
X82153125Y-61198125D01*
G37*
X82153125Y-61198125D02*
X67865625Y-61198125D01*
X66675000Y-60007500D01*
X83343750Y-60007500D01*
X82153125Y-61198125D01*
G36*
X25003125Y-61198125D02*
G01*
X10715625Y-61198125D01*
X9525000Y-60007500D01*
X26193750Y-60007500D01*
X25003125Y-61198125D01*
G37*
X25003125Y-61198125D02*
X10715625Y-61198125D01*
X9525000Y-60007500D01*
X26193750Y-60007500D01*
X25003125Y-61198125D01*
G36*
X7143750Y-76676250D02*
G01*
X-9525000Y-76676250D01*
X-8334375Y-75485625D01*
X5953125Y-75485625D01*
X7143750Y-76676250D01*
G37*
X7143750Y-76676250D02*
X-9525000Y-76676250D01*
X-8334375Y-75485625D01*
X5953125Y-75485625D01*
X7143750Y-76676250D01*
G36*
X101203125Y-42148125D02*
G01*
X86915625Y-42148125D01*
X85725000Y-40957500D01*
X102393750Y-40957500D01*
X101203125Y-42148125D01*
G37*
X101203125Y-42148125D02*
X86915625Y-42148125D01*
X85725000Y-40957500D01*
X102393750Y-40957500D01*
X101203125Y-42148125D01*
G36*
X83343750Y-76676250D02*
G01*
X66675000Y-76676250D01*
X67865625Y-75485625D01*
X82153125Y-75485625D01*
X83343750Y-76676250D01*
G37*
X83343750Y-76676250D02*
X66675000Y-76676250D01*
X67865625Y-75485625D01*
X82153125Y-75485625D01*
X83343750Y-76676250D01*
G36*
X83343750Y-76676250D02*
G01*
X82153125Y-75485625D01*
X82153125Y-61198125D01*
X83343750Y-60007500D01*
X83343750Y-76676250D01*
G37*
X83343750Y-76676250D02*
X82153125Y-75485625D01*
X82153125Y-61198125D01*
X83343750Y-60007500D01*
X83343750Y-76676250D01*
G36*
X67865625Y-61198125D02*
G01*
X67865625Y-75485625D01*
X66675000Y-76676250D01*
X66675000Y-60007500D01*
X67865625Y-61198125D01*
G37*
X67865625Y-61198125D02*
X67865625Y-75485625D01*
X66675000Y-76676250D01*
X66675000Y-60007500D01*
X67865625Y-61198125D01*
G36*
X5953125Y-61198125D02*
G01*
X-8334375Y-61198125D01*
X-9525000Y-60007500D01*
X7143750Y-60007500D01*
X5953125Y-61198125D01*
G37*
X5953125Y-61198125D02*
X-8334375Y-61198125D01*
X-9525000Y-60007500D01*
X7143750Y-60007500D01*
X5953125Y-61198125D01*
G36*
X102393750Y-57626250D02*
G01*
X85725000Y-57626250D01*
X86915625Y-56435625D01*
X101203125Y-56435625D01*
X102393750Y-57626250D01*
G37*
X102393750Y-57626250D02*
X85725000Y-57626250D01*
X86915625Y-56435625D01*
X101203125Y-56435625D01*
X102393750Y-57626250D01*
G36*
X102393750Y-57626250D02*
G01*
X101203125Y-56435625D01*
X101203125Y-42148125D01*
X102393750Y-40957500D01*
X102393750Y-57626250D01*
G37*
X102393750Y-57626250D02*
X101203125Y-56435625D01*
X101203125Y-42148125D01*
X102393750Y-40957500D01*
X102393750Y-57626250D01*
G36*
X86915625Y-42148125D02*
G01*
X86915625Y-56435625D01*
X85725000Y-57626250D01*
X85725000Y-40957500D01*
X86915625Y-42148125D01*
G37*
X86915625Y-42148125D02*
X86915625Y-56435625D01*
X85725000Y-57626250D01*
X85725000Y-40957500D01*
X86915625Y-42148125D01*
G36*
X82153125Y-42148125D02*
G01*
X67865625Y-42148125D01*
X66675000Y-40957500D01*
X83343750Y-40957500D01*
X82153125Y-42148125D01*
G37*
X82153125Y-42148125D02*
X67865625Y-42148125D01*
X66675000Y-40957500D01*
X83343750Y-40957500D01*
X82153125Y-42148125D01*
G36*
X83343750Y-57626250D02*
G01*
X66675000Y-57626250D01*
X67865625Y-56435625D01*
X82153125Y-56435625D01*
X83343750Y-57626250D01*
G37*
X83343750Y-57626250D02*
X66675000Y-57626250D01*
X67865625Y-56435625D01*
X82153125Y-56435625D01*
X83343750Y-57626250D01*
G36*
X83343750Y-57626250D02*
G01*
X82153125Y-56435625D01*
X82153125Y-42148125D01*
X83343750Y-40957500D01*
X83343750Y-57626250D01*
G37*
X83343750Y-57626250D02*
X82153125Y-56435625D01*
X82153125Y-42148125D01*
X83343750Y-40957500D01*
X83343750Y-57626250D01*
G36*
X67865625Y-42148125D02*
G01*
X67865625Y-56435625D01*
X66675000Y-57626250D01*
X66675000Y-40957500D01*
X67865625Y-42148125D01*
G37*
X67865625Y-42148125D02*
X67865625Y-56435625D01*
X66675000Y-57626250D01*
X66675000Y-40957500D01*
X67865625Y-42148125D01*
G36*
X63103125Y-42148125D02*
G01*
X48815625Y-42148125D01*
X47625000Y-40957500D01*
X64293750Y-40957500D01*
X63103125Y-42148125D01*
G37*
X63103125Y-42148125D02*
X48815625Y-42148125D01*
X47625000Y-40957500D01*
X64293750Y-40957500D01*
X63103125Y-42148125D01*
G36*
X64293750Y-57626250D02*
G01*
X47625000Y-57626250D01*
X48815625Y-56435625D01*
X63103125Y-56435625D01*
X64293750Y-57626250D01*
G37*
X64293750Y-57626250D02*
X47625000Y-57626250D01*
X48815625Y-56435625D01*
X63103125Y-56435625D01*
X64293750Y-57626250D01*
G36*
X64293750Y-57626250D02*
G01*
X63103125Y-56435625D01*
X63103125Y-42148125D01*
X64293750Y-40957500D01*
X64293750Y-57626250D01*
G37*
X64293750Y-57626250D02*
X63103125Y-56435625D01*
X63103125Y-42148125D01*
X64293750Y-40957500D01*
X64293750Y-57626250D01*
G36*
X48815625Y-42148125D02*
G01*
X48815625Y-56435625D01*
X47625000Y-57626250D01*
X47625000Y-40957500D01*
X48815625Y-42148125D01*
G37*
X48815625Y-42148125D02*
X48815625Y-56435625D01*
X47625000Y-57626250D01*
X47625000Y-40957500D01*
X48815625Y-42148125D01*
G36*
X44053125Y-42148125D02*
G01*
X29765625Y-42148125D01*
X28575000Y-40957500D01*
X45243750Y-40957500D01*
X44053125Y-42148125D01*
G37*
X44053125Y-42148125D02*
X29765625Y-42148125D01*
X28575000Y-40957500D01*
X45243750Y-40957500D01*
X44053125Y-42148125D01*
G36*
X45243750Y-57626250D02*
G01*
X28575000Y-57626250D01*
X29765625Y-56435625D01*
X44053125Y-56435625D01*
X45243750Y-57626250D01*
G37*
X45243750Y-57626250D02*
X28575000Y-57626250D01*
X29765625Y-56435625D01*
X44053125Y-56435625D01*
X45243750Y-57626250D01*
G36*
X45243750Y-57626250D02*
G01*
X44053125Y-56435625D01*
X44053125Y-42148125D01*
X45243750Y-40957500D01*
X45243750Y-57626250D01*
G37*
X45243750Y-57626250D02*
X44053125Y-56435625D01*
X44053125Y-42148125D01*
X45243750Y-40957500D01*
X45243750Y-57626250D01*
G36*
X29765625Y-42148125D02*
G01*
X29765625Y-56435625D01*
X28575000Y-57626250D01*
X28575000Y-40957500D01*
X29765625Y-42148125D01*
G37*
X29765625Y-42148125D02*
X29765625Y-56435625D01*
X28575000Y-57626250D01*
X28575000Y-40957500D01*
X29765625Y-42148125D01*
G36*
X25003125Y-42148125D02*
G01*
X10715625Y-42148125D01*
X9525000Y-40957500D01*
X26193750Y-40957500D01*
X25003125Y-42148125D01*
G37*
X25003125Y-42148125D02*
X10715625Y-42148125D01*
X9525000Y-40957500D01*
X26193750Y-40957500D01*
X25003125Y-42148125D01*
G36*
X26193750Y-57626250D02*
G01*
X9525000Y-57626250D01*
X10715625Y-56435625D01*
X25003125Y-56435625D01*
X26193750Y-57626250D01*
G37*
X26193750Y-57626250D02*
X9525000Y-57626250D01*
X10715625Y-56435625D01*
X25003125Y-56435625D01*
X26193750Y-57626250D01*
G36*
X26193750Y-57626250D02*
G01*
X25003125Y-56435625D01*
X25003125Y-42148125D01*
X26193750Y-40957500D01*
X26193750Y-57626250D01*
G37*
X26193750Y-57626250D02*
X25003125Y-56435625D01*
X25003125Y-42148125D01*
X26193750Y-40957500D01*
X26193750Y-57626250D01*
G36*
X10715625Y-42148125D02*
G01*
X10715625Y-56435625D01*
X9525000Y-57626250D01*
X9525000Y-40957500D01*
X10715625Y-42148125D01*
G37*
X10715625Y-42148125D02*
X10715625Y-56435625D01*
X9525000Y-57626250D01*
X9525000Y-40957500D01*
X10715625Y-42148125D01*
G36*
X7143750Y-57626250D02*
G01*
X-9525000Y-57626250D01*
X-8334375Y-56435625D01*
X5953125Y-56435625D01*
X7143750Y-57626250D01*
G37*
X7143750Y-57626250D02*
X-9525000Y-57626250D01*
X-8334375Y-56435625D01*
X5953125Y-56435625D01*
X7143750Y-57626250D01*
G36*
X5953125Y-42148125D02*
G01*
X-8334375Y-42148125D01*
X-9525000Y-40957500D01*
X7143750Y-40957500D01*
X5953125Y-42148125D01*
G37*
X5953125Y-42148125D02*
X-8334375Y-42148125D01*
X-9525000Y-40957500D01*
X7143750Y-40957500D01*
X5953125Y-42148125D01*
G36*
X-8334375Y-42148125D02*
G01*
X-8334375Y-56435625D01*
X-9525000Y-57626250D01*
X-9525000Y-40957500D01*
X-8334375Y-42148125D01*
G37*
X-8334375Y-42148125D02*
X-8334375Y-56435625D01*
X-9525000Y-57626250D01*
X-9525000Y-40957500D01*
X-8334375Y-42148125D01*
G36*
X7143750Y-57626250D02*
G01*
X5953125Y-56435625D01*
X5953125Y-42148125D01*
X7143750Y-40957500D01*
X7143750Y-57626250D01*
G37*
X7143750Y-57626250D02*
X5953125Y-56435625D01*
X5953125Y-42148125D01*
X7143750Y-40957500D01*
X7143750Y-57626250D01*
G36*
X26193750Y-76676250D02*
G01*
X9525000Y-76676250D01*
X10715625Y-75485625D01*
X25003125Y-75485625D01*
X26193750Y-76676250D01*
G37*
X26193750Y-76676250D02*
X9525000Y-76676250D01*
X10715625Y-75485625D01*
X25003125Y-75485625D01*
X26193750Y-76676250D01*
G36*
X101203125Y-61198125D02*
G01*
X86915625Y-61198125D01*
X85725000Y-60007500D01*
X102393750Y-60007500D01*
X101203125Y-61198125D01*
G37*
X101203125Y-61198125D02*
X86915625Y-61198125D01*
X85725000Y-60007500D01*
X102393750Y-60007500D01*
X101203125Y-61198125D01*
G36*
X63103125Y-118348125D02*
G01*
X48815625Y-118348125D01*
X47625000Y-117157500D01*
X64293750Y-117157500D01*
X63103125Y-118348125D01*
G37*
X63103125Y-118348125D02*
X48815625Y-118348125D01*
X47625000Y-117157500D01*
X64293750Y-117157500D01*
X63103125Y-118348125D01*
G36*
X48815625Y-118348125D02*
G01*
X48815625Y-132635625D01*
X47625000Y-133826250D01*
X47625000Y-117157500D01*
X48815625Y-118348125D01*
G37*
X48815625Y-118348125D02*
X48815625Y-132635625D01*
X47625000Y-133826250D01*
X47625000Y-117157500D01*
X48815625Y-118348125D01*
G36*
X26193750Y-133826250D02*
G01*
X25003125Y-132635625D01*
X25003125Y-118348125D01*
X26193750Y-117157500D01*
X26193750Y-133826250D01*
G37*
X26193750Y-133826250D02*
X25003125Y-132635625D01*
X25003125Y-118348125D01*
X26193750Y-117157500D01*
X26193750Y-133826250D01*
G36*
X64293750Y-133826250D02*
G01*
X63103125Y-132635625D01*
X63103125Y-118348125D01*
X64293750Y-117157500D01*
X64293750Y-133826250D01*
G37*
X64293750Y-133826250D02*
X63103125Y-132635625D01*
X63103125Y-118348125D01*
X64293750Y-117157500D01*
X64293750Y-133826250D01*
G36*
X26193750Y-133826250D02*
G01*
X9525000Y-133826250D01*
X10715625Y-132635625D01*
X25003125Y-132635625D01*
X26193750Y-133826250D01*
G37*
X26193750Y-133826250D02*
X9525000Y-133826250D01*
X10715625Y-132635625D01*
X25003125Y-132635625D01*
X26193750Y-133826250D01*
G36*
X25003125Y-118348125D02*
G01*
X10715625Y-118348125D01*
X9525000Y-117157500D01*
X26193750Y-117157500D01*
X25003125Y-118348125D01*
G37*
X25003125Y-118348125D02*
X10715625Y-118348125D01*
X9525000Y-117157500D01*
X26193750Y-117157500D01*
X25003125Y-118348125D01*
G36*
X7143750Y-133826250D02*
G01*
X5953125Y-132635625D01*
X5953125Y-118348125D01*
X7143750Y-117157500D01*
X7143750Y-133826250D01*
G37*
X7143750Y-133826250D02*
X5953125Y-132635625D01*
X5953125Y-118348125D01*
X7143750Y-117157500D01*
X7143750Y-133826250D01*
G36*
X-8334375Y-118348125D02*
G01*
X-8334375Y-132635625D01*
X-9525000Y-133826250D01*
X-9525000Y-117157500D01*
X-8334375Y-118348125D01*
G37*
X-8334375Y-118348125D02*
X-8334375Y-132635625D01*
X-9525000Y-133826250D01*
X-9525000Y-117157500D01*
X-8334375Y-118348125D01*
G36*
X29765625Y-118348125D02*
G01*
X29765625Y-132635625D01*
X28575000Y-133826250D01*
X28575000Y-117157500D01*
X29765625Y-118348125D01*
G37*
X29765625Y-118348125D02*
X29765625Y-132635625D01*
X28575000Y-133826250D01*
X28575000Y-117157500D01*
X29765625Y-118348125D01*
G36*
X44053125Y-118348125D02*
G01*
X29765625Y-118348125D01*
X28575000Y-117157500D01*
X45243750Y-117157500D01*
X44053125Y-118348125D01*
G37*
X44053125Y-118348125D02*
X29765625Y-118348125D01*
X28575000Y-117157500D01*
X45243750Y-117157500D01*
X44053125Y-118348125D01*
G36*
X45243750Y-133826250D02*
G01*
X28575000Y-133826250D01*
X29765625Y-132635625D01*
X44053125Y-132635625D01*
X45243750Y-133826250D01*
G37*
X45243750Y-133826250D02*
X28575000Y-133826250D01*
X29765625Y-132635625D01*
X44053125Y-132635625D01*
X45243750Y-133826250D01*
G36*
X102393750Y-133826250D02*
G01*
X101203125Y-132635625D01*
X101203125Y-118348125D01*
X102393750Y-117157500D01*
X102393750Y-133826250D01*
G37*
X102393750Y-133826250D02*
X101203125Y-132635625D01*
X101203125Y-118348125D01*
X102393750Y-117157500D01*
X102393750Y-133826250D01*
G36*
X45243750Y-133826250D02*
G01*
X44053125Y-132635625D01*
X44053125Y-118348125D01*
X45243750Y-117157500D01*
X45243750Y-133826250D01*
G37*
X45243750Y-133826250D02*
X44053125Y-132635625D01*
X44053125Y-118348125D01*
X45243750Y-117157500D01*
X45243750Y-133826250D01*
G36*
X67865625Y-118348125D02*
G01*
X67865625Y-132635625D01*
X66675000Y-133826250D01*
X66675000Y-117157500D01*
X67865625Y-118348125D01*
G37*
X67865625Y-118348125D02*
X67865625Y-132635625D01*
X66675000Y-133826250D01*
X66675000Y-117157500D01*
X67865625Y-118348125D01*
G36*
X5953125Y-118348125D02*
G01*
X-8334375Y-118348125D01*
X-9525000Y-117157500D01*
X7143750Y-117157500D01*
X5953125Y-118348125D01*
G37*
X5953125Y-118348125D02*
X-8334375Y-118348125D01*
X-9525000Y-117157500D01*
X7143750Y-117157500D01*
X5953125Y-118348125D01*
G36*
X7143750Y-133826250D02*
G01*
X-9525000Y-133826250D01*
X-8334375Y-132635625D01*
X5953125Y-132635625D01*
X7143750Y-133826250D01*
G37*
X7143750Y-133826250D02*
X-9525000Y-133826250D01*
X-8334375Y-132635625D01*
X5953125Y-132635625D01*
X7143750Y-133826250D01*
G36*
X64293750Y-114776250D02*
G01*
X47625000Y-114776250D01*
X48815625Y-113585625D01*
X63103125Y-113585625D01*
X64293750Y-114776250D01*
G37*
X64293750Y-114776250D02*
X47625000Y-114776250D01*
X48815625Y-113585625D01*
X63103125Y-113585625D01*
X64293750Y-114776250D01*
G36*
X10715625Y-99298125D02*
G01*
X10715625Y-113585625D01*
X9525000Y-114776250D01*
X9525000Y-98107500D01*
X10715625Y-99298125D01*
G37*
X10715625Y-99298125D02*
X10715625Y-113585625D01*
X9525000Y-114776250D01*
X9525000Y-98107500D01*
X10715625Y-99298125D01*
G36*
X63103125Y-99298125D02*
G01*
X48815625Y-99298125D01*
X47625000Y-98107500D01*
X64293750Y-98107500D01*
X63103125Y-99298125D01*
G37*
X63103125Y-99298125D02*
X48815625Y-99298125D01*
X47625000Y-98107500D01*
X64293750Y-98107500D01*
X63103125Y-99298125D01*
G36*
X48815625Y-99298125D02*
G01*
X48815625Y-113585625D01*
X47625000Y-114776250D01*
X47625000Y-98107500D01*
X48815625Y-99298125D01*
G37*
X48815625Y-99298125D02*
X48815625Y-113585625D01*
X47625000Y-114776250D01*
X47625000Y-98107500D01*
X48815625Y-99298125D01*
G36*
X26193750Y-114776250D02*
G01*
X25003125Y-113585625D01*
X25003125Y-99298125D01*
X26193750Y-98107500D01*
X26193750Y-114776250D01*
G37*
X26193750Y-114776250D02*
X25003125Y-113585625D01*
X25003125Y-99298125D01*
X26193750Y-98107500D01*
X26193750Y-114776250D01*
G36*
X86915625Y-99298125D02*
G01*
X86915625Y-113585625D01*
X85725000Y-114776250D01*
X85725000Y-98107500D01*
X86915625Y-99298125D01*
G37*
X86915625Y-99298125D02*
X86915625Y-113585625D01*
X85725000Y-114776250D01*
X85725000Y-98107500D01*
X86915625Y-99298125D01*
G36*
X64293750Y-114776250D02*
G01*
X63103125Y-113585625D01*
X63103125Y-99298125D01*
X64293750Y-98107500D01*
X64293750Y-114776250D01*
G37*
X64293750Y-114776250D02*
X63103125Y-113585625D01*
X63103125Y-99298125D01*
X64293750Y-98107500D01*
X64293750Y-114776250D01*
G36*
X26193750Y-114776250D02*
G01*
X9525000Y-114776250D01*
X10715625Y-113585625D01*
X25003125Y-113585625D01*
X26193750Y-114776250D01*
G37*
X26193750Y-114776250D02*
X9525000Y-114776250D01*
X10715625Y-113585625D01*
X25003125Y-113585625D01*
X26193750Y-114776250D01*
G36*
X101203125Y-99298125D02*
G01*
X86915625Y-99298125D01*
X85725000Y-98107500D01*
X102393750Y-98107500D01*
X101203125Y-99298125D01*
G37*
X101203125Y-99298125D02*
X86915625Y-99298125D01*
X85725000Y-98107500D01*
X102393750Y-98107500D01*
X101203125Y-99298125D01*
G36*
X25003125Y-99298125D02*
G01*
X10715625Y-99298125D01*
X9525000Y-98107500D01*
X26193750Y-98107500D01*
X25003125Y-99298125D01*
G37*
X25003125Y-99298125D02*
X10715625Y-99298125D01*
X9525000Y-98107500D01*
X26193750Y-98107500D01*
X25003125Y-99298125D01*
G36*
X7143750Y-114776250D02*
G01*
X5953125Y-113585625D01*
X5953125Y-99298125D01*
X7143750Y-98107500D01*
X7143750Y-114776250D01*
G37*
X7143750Y-114776250D02*
X5953125Y-113585625D01*
X5953125Y-99298125D01*
X7143750Y-98107500D01*
X7143750Y-114776250D01*
G36*
X-8334375Y-99298125D02*
G01*
X-8334375Y-113585625D01*
X-9525000Y-114776250D01*
X-9525000Y-98107500D01*
X-8334375Y-99298125D01*
G37*
X-8334375Y-99298125D02*
X-8334375Y-113585625D01*
X-9525000Y-114776250D01*
X-9525000Y-98107500D01*
X-8334375Y-99298125D01*
G36*
X82153125Y-99298125D02*
G01*
X67865625Y-99298125D01*
X66675000Y-98107500D01*
X83343750Y-98107500D01*
X82153125Y-99298125D01*
G37*
X82153125Y-99298125D02*
X67865625Y-99298125D01*
X66675000Y-98107500D01*
X83343750Y-98107500D01*
X82153125Y-99298125D01*
G36*
X102393750Y-114776250D02*
G01*
X85725000Y-114776250D01*
X86915625Y-113585625D01*
X101203125Y-113585625D01*
X102393750Y-114776250D01*
G37*
X102393750Y-114776250D02*
X85725000Y-114776250D01*
X86915625Y-113585625D01*
X101203125Y-113585625D01*
X102393750Y-114776250D01*
G36*
X29765625Y-99298125D02*
G01*
X29765625Y-113585625D01*
X28575000Y-114776250D01*
X28575000Y-98107500D01*
X29765625Y-99298125D01*
G37*
X29765625Y-99298125D02*
X29765625Y-113585625D01*
X28575000Y-114776250D01*
X28575000Y-98107500D01*
X29765625Y-99298125D01*
G36*
X44053125Y-99298125D02*
G01*
X29765625Y-99298125D01*
X28575000Y-98107500D01*
X45243750Y-98107500D01*
X44053125Y-99298125D01*
G37*
X44053125Y-99298125D02*
X29765625Y-99298125D01*
X28575000Y-98107500D01*
X45243750Y-98107500D01*
X44053125Y-99298125D01*
G36*
X45243750Y-114776250D02*
G01*
X28575000Y-114776250D01*
X29765625Y-113585625D01*
X44053125Y-113585625D01*
X45243750Y-114776250D01*
G37*
X45243750Y-114776250D02*
X28575000Y-114776250D01*
X29765625Y-113585625D01*
X44053125Y-113585625D01*
X45243750Y-114776250D01*
G36*
X102393750Y-114776250D02*
G01*
X101203125Y-113585625D01*
X101203125Y-99298125D01*
X102393750Y-98107500D01*
X102393750Y-114776250D01*
G37*
X102393750Y-114776250D02*
X101203125Y-113585625D01*
X101203125Y-99298125D01*
X102393750Y-98107500D01*
X102393750Y-114776250D01*
G36*
X45243750Y-114776250D02*
G01*
X44053125Y-113585625D01*
X44053125Y-99298125D01*
X45243750Y-98107500D01*
X45243750Y-114776250D01*
G37*
X45243750Y-114776250D02*
X44053125Y-113585625D01*
X44053125Y-99298125D01*
X45243750Y-98107500D01*
X45243750Y-114776250D01*
G36*
X83343750Y-114776250D02*
G01*
X66675000Y-114776250D01*
X67865625Y-113585625D01*
X82153125Y-113585625D01*
X83343750Y-114776250D01*
G37*
X83343750Y-114776250D02*
X66675000Y-114776250D01*
X67865625Y-113585625D01*
X82153125Y-113585625D01*
X83343750Y-114776250D01*
G36*
X83343750Y-114776250D02*
G01*
X82153125Y-113585625D01*
X82153125Y-99298125D01*
X83343750Y-98107500D01*
X83343750Y-114776250D01*
G37*
X83343750Y-114776250D02*
X82153125Y-113585625D01*
X82153125Y-99298125D01*
X83343750Y-98107500D01*
X83343750Y-114776250D01*
G36*
X67865625Y-99298125D02*
G01*
X67865625Y-113585625D01*
X66675000Y-114776250D01*
X66675000Y-98107500D01*
X67865625Y-99298125D01*
G37*
X67865625Y-99298125D02*
X67865625Y-113585625D01*
X66675000Y-114776250D01*
X66675000Y-98107500D01*
X67865625Y-99298125D01*
G36*
X5953125Y-99298125D02*
G01*
X-8334375Y-99298125D01*
X-9525000Y-98107500D01*
X7143750Y-98107500D01*
X5953125Y-99298125D01*
G37*
X5953125Y-99298125D02*
X-8334375Y-99298125D01*
X-9525000Y-98107500D01*
X7143750Y-98107500D01*
X5953125Y-99298125D01*
G36*
X7143750Y-114776250D02*
G01*
X-9525000Y-114776250D01*
X-8334375Y-113585625D01*
X5953125Y-113585625D01*
X7143750Y-114776250D01*
G37*
X7143750Y-114776250D02*
X-9525000Y-114776250D01*
X-8334375Y-113585625D01*
X5953125Y-113585625D01*
X7143750Y-114776250D01*
G36*
X64293750Y-95726250D02*
G01*
X47625000Y-95726250D01*
X48815625Y-94535625D01*
X63103125Y-94535625D01*
X64293750Y-95726250D01*
G37*
X64293750Y-95726250D02*
X47625000Y-95726250D01*
X48815625Y-94535625D01*
X63103125Y-94535625D01*
X64293750Y-95726250D01*
G36*
X10715625Y-80248125D02*
G01*
X10715625Y-94535625D01*
X9525000Y-95726250D01*
X9525000Y-79057500D01*
X10715625Y-80248125D01*
G37*
X10715625Y-80248125D02*
X10715625Y-94535625D01*
X9525000Y-95726250D01*
X9525000Y-79057500D01*
X10715625Y-80248125D01*
G36*
X63103125Y-80248125D02*
G01*
X48815625Y-80248125D01*
X47625000Y-79057500D01*
X64293750Y-79057500D01*
X63103125Y-80248125D01*
G37*
X63103125Y-80248125D02*
X48815625Y-80248125D01*
X47625000Y-79057500D01*
X64293750Y-79057500D01*
X63103125Y-80248125D01*
G36*
X48815625Y-80248125D02*
G01*
X48815625Y-94535625D01*
X47625000Y-95726250D01*
X47625000Y-79057500D01*
X48815625Y-80248125D01*
G37*
X48815625Y-80248125D02*
X48815625Y-94535625D01*
X47625000Y-95726250D01*
X47625000Y-79057500D01*
X48815625Y-80248125D01*
G36*
X26193750Y-95726250D02*
G01*
X25003125Y-94535625D01*
X25003125Y-80248125D01*
X26193750Y-79057500D01*
X26193750Y-95726250D01*
G37*
X26193750Y-95726250D02*
X25003125Y-94535625D01*
X25003125Y-80248125D01*
X26193750Y-79057500D01*
X26193750Y-95726250D01*
G36*
X86915625Y-80248125D02*
G01*
X86915625Y-94535625D01*
X85725000Y-95726250D01*
X85725000Y-79057500D01*
X86915625Y-80248125D01*
G37*
X86915625Y-80248125D02*
X86915625Y-94535625D01*
X85725000Y-95726250D01*
X85725000Y-79057500D01*
X86915625Y-80248125D01*
G36*
X64293750Y-95726250D02*
G01*
X63103125Y-94535625D01*
X63103125Y-80248125D01*
X64293750Y-79057500D01*
X64293750Y-95726250D01*
G37*
X64293750Y-95726250D02*
X63103125Y-94535625D01*
X63103125Y-80248125D01*
X64293750Y-79057500D01*
X64293750Y-95726250D01*
G36*
X26193750Y-95726250D02*
G01*
X9525000Y-95726250D01*
X10715625Y-94535625D01*
X25003125Y-94535625D01*
X26193750Y-95726250D01*
G37*
X26193750Y-95726250D02*
X9525000Y-95726250D01*
X10715625Y-94535625D01*
X25003125Y-94535625D01*
X26193750Y-95726250D01*
G36*
X101203125Y-80248125D02*
G01*
X86915625Y-80248125D01*
X85725000Y-79057500D01*
X102393750Y-79057500D01*
X101203125Y-80248125D01*
G37*
X101203125Y-80248125D02*
X86915625Y-80248125D01*
X85725000Y-79057500D01*
X102393750Y-79057500D01*
X101203125Y-80248125D01*
G36*
X25003125Y-80248125D02*
G01*
X10715625Y-80248125D01*
X9525000Y-79057500D01*
X26193750Y-79057500D01*
X25003125Y-80248125D01*
G37*
X25003125Y-80248125D02*
X10715625Y-80248125D01*
X9525000Y-79057500D01*
X26193750Y-79057500D01*
X25003125Y-80248125D01*
G36*
X7143750Y-95726250D02*
G01*
X5953125Y-94535625D01*
X5953125Y-80248125D01*
X7143750Y-79057500D01*
X7143750Y-95726250D01*
G37*
X7143750Y-95726250D02*
X5953125Y-94535625D01*
X5953125Y-80248125D01*
X7143750Y-79057500D01*
X7143750Y-95726250D01*
G36*
X-8334375Y-80248125D02*
G01*
X-8334375Y-94535625D01*
X-9525000Y-95726250D01*
X-9525000Y-79057500D01*
X-8334375Y-80248125D01*
G37*
X-8334375Y-80248125D02*
X-8334375Y-94535625D01*
X-9525000Y-95726250D01*
X-9525000Y-79057500D01*
X-8334375Y-80248125D01*
G36*
X82153125Y-80248125D02*
G01*
X67865625Y-80248125D01*
X66675000Y-79057500D01*
X83343750Y-79057500D01*
X82153125Y-80248125D01*
G37*
X82153125Y-80248125D02*
X67865625Y-80248125D01*
X66675000Y-79057500D01*
X83343750Y-79057500D01*
X82153125Y-80248125D01*
G36*
X102393750Y-95726250D02*
G01*
X85725000Y-95726250D01*
X86915625Y-94535625D01*
X101203125Y-94535625D01*
X102393750Y-95726250D01*
G37*
X102393750Y-95726250D02*
X85725000Y-95726250D01*
X86915625Y-94535625D01*
X101203125Y-94535625D01*
X102393750Y-95726250D01*
G36*
X29765625Y-80248125D02*
G01*
X29765625Y-94535625D01*
X28575000Y-95726250D01*
X28575000Y-79057500D01*
X29765625Y-80248125D01*
G37*
X29765625Y-80248125D02*
X29765625Y-94535625D01*
X28575000Y-95726250D01*
X28575000Y-79057500D01*
X29765625Y-80248125D01*
G36*
X44053125Y-80248125D02*
G01*
X29765625Y-80248125D01*
X28575000Y-79057500D01*
X45243750Y-79057500D01*
X44053125Y-80248125D01*
G37*
X44053125Y-80248125D02*
X29765625Y-80248125D01*
X28575000Y-79057500D01*
X45243750Y-79057500D01*
X44053125Y-80248125D01*
G36*
X45243750Y-95726250D02*
G01*
X28575000Y-95726250D01*
X29765625Y-94535625D01*
X44053125Y-94535625D01*
X45243750Y-95726250D01*
G37*
X45243750Y-95726250D02*
X28575000Y-95726250D01*
X29765625Y-94535625D01*
X44053125Y-94535625D01*
X45243750Y-95726250D01*
G36*
X102393750Y-95726250D02*
G01*
X101203125Y-94535625D01*
X101203125Y-80248125D01*
X102393750Y-79057500D01*
X102393750Y-95726250D01*
G37*
X102393750Y-95726250D02*
X101203125Y-94535625D01*
X101203125Y-80248125D01*
X102393750Y-79057500D01*
X102393750Y-95726250D01*
G36*
X45243750Y-95726250D02*
G01*
X44053125Y-94535625D01*
X44053125Y-80248125D01*
X45243750Y-79057500D01*
X45243750Y-95726250D01*
G37*
X45243750Y-95726250D02*
X44053125Y-94535625D01*
X44053125Y-80248125D01*
X45243750Y-79057500D01*
X45243750Y-95726250D01*
G36*
X83343750Y-95726250D02*
G01*
X66675000Y-95726250D01*
X67865625Y-94535625D01*
X82153125Y-94535625D01*
X83343750Y-95726250D01*
G37*
X83343750Y-95726250D02*
X66675000Y-95726250D01*
X67865625Y-94535625D01*
X82153125Y-94535625D01*
X83343750Y-95726250D01*
G36*
X83343750Y-95726250D02*
G01*
X82153125Y-94535625D01*
X82153125Y-80248125D01*
X83343750Y-79057500D01*
X83343750Y-95726250D01*
G37*
X83343750Y-95726250D02*
X82153125Y-94535625D01*
X82153125Y-80248125D01*
X83343750Y-79057500D01*
X83343750Y-95726250D01*
G36*
X67865625Y-80248125D02*
G01*
X67865625Y-94535625D01*
X66675000Y-95726250D01*
X66675000Y-79057500D01*
X67865625Y-80248125D01*
G37*
X67865625Y-80248125D02*
X67865625Y-94535625D01*
X66675000Y-95726250D01*
X66675000Y-79057500D01*
X67865625Y-80248125D01*
G36*
X5953125Y-80248125D02*
G01*
X-8334375Y-80248125D01*
X-9525000Y-79057500D01*
X7143750Y-79057500D01*
X5953125Y-80248125D01*
G37*
X5953125Y-80248125D02*
X-8334375Y-80248125D01*
X-9525000Y-79057500D01*
X7143750Y-79057500D01*
X5953125Y-80248125D01*
G36*
X7143750Y-95726250D02*
G01*
X-9525000Y-95726250D01*
X-8334375Y-94535625D01*
X5953125Y-94535625D01*
X7143750Y-95726250D01*
G37*
X7143750Y-95726250D02*
X-9525000Y-95726250D01*
X-8334375Y-94535625D01*
X5953125Y-94535625D01*
X7143750Y-95726250D01*
G36*
X64293750Y-76676250D02*
G01*
X47625000Y-76676250D01*
X48815625Y-75485625D01*
X63103125Y-75485625D01*
X64293750Y-76676250D01*
G37*
X64293750Y-76676250D02*
X47625000Y-76676250D01*
X48815625Y-75485625D01*
X63103125Y-75485625D01*
X64293750Y-76676250D01*
G36*
X10715625Y-61198125D02*
G01*
X10715625Y-75485625D01*
X9525000Y-76676250D01*
X9525000Y-60007500D01*
X10715625Y-61198125D01*
G37*
X10715625Y-61198125D02*
X10715625Y-75485625D01*
X9525000Y-76676250D01*
X9525000Y-60007500D01*
X10715625Y-61198125D01*
G36*
X63103125Y-61198125D02*
G01*
X48815625Y-61198125D01*
X47625000Y-60007500D01*
X64293750Y-60007500D01*
X63103125Y-61198125D01*
G37*
X63103125Y-61198125D02*
X48815625Y-61198125D01*
X47625000Y-60007500D01*
X64293750Y-60007500D01*
X63103125Y-61198125D01*
G36*
X48815625Y-61198125D02*
G01*
X48815625Y-75485625D01*
X47625000Y-76676250D01*
X47625000Y-60007500D01*
X48815625Y-61198125D01*
G37*
X48815625Y-61198125D02*
X48815625Y-75485625D01*
X47625000Y-76676250D01*
X47625000Y-60007500D01*
X48815625Y-61198125D01*
G36*
X26193750Y-76676250D02*
G01*
X25003125Y-75485625D01*
X25003125Y-61198125D01*
X26193750Y-60007500D01*
X26193750Y-76676250D01*
G37*
X26193750Y-76676250D02*
X25003125Y-75485625D01*
X25003125Y-61198125D01*
X26193750Y-60007500D01*
X26193750Y-76676250D01*
G36*
X86915625Y-61198125D02*
G01*
X86915625Y-75485625D01*
X85725000Y-76676250D01*
X85725000Y-60007500D01*
X86915625Y-61198125D01*
G37*
X86915625Y-61198125D02*
X86915625Y-75485625D01*
X85725000Y-76676250D01*
X85725000Y-60007500D01*
X86915625Y-61198125D01*
G36*
X64293750Y-133826250D02*
G01*
X47625000Y-133826250D01*
X48815625Y-132635625D01*
X63103125Y-132635625D01*
X64293750Y-133826250D01*
G37*
X64293750Y-133826250D02*
X47625000Y-133826250D01*
X48815625Y-132635625D01*
X63103125Y-132635625D01*
X64293750Y-133826250D01*
G36*
X10715625Y-118348125D02*
G01*
X10715625Y-132635625D01*
X9525000Y-133826250D01*
X9525000Y-117157500D01*
X10715625Y-118348125D01*
G37*
X10715625Y-118348125D02*
X10715625Y-132635625D01*
X9525000Y-133826250D01*
X9525000Y-117157500D01*
X10715625Y-118348125D01*
G36*
X101203125Y-118348125D02*
G01*
X67865625Y-118348125D01*
X66675000Y-117157500D01*
X102393750Y-117157500D01*
X101203125Y-118348125D01*
G37*
X101203125Y-118348125D02*
X67865625Y-118348125D01*
X66675000Y-117157500D01*
X102393750Y-117157500D01*
X101203125Y-118348125D01*
G36*
X102393634Y-133826358D02*
G01*
X66674884Y-133826358D01*
X67865509Y-132635733D01*
X101203009Y-132635733D01*
X102393634Y-133826358D01*
G37*
X102393634Y-133826358D02*
X66674884Y-133826358D01*
X67865509Y-132635733D01*
X101203009Y-132635733D01*
X102393634Y-133826358D01*
M02*
