G04 #@! TF.GenerationSoftware,KiCad,Pcbnew,6.0.10-86aedd382b~118~ubuntu22.10.1*
G04 #@! TF.CreationDate,2023-02-23T17:17:37+01:00*
G04 #@! TF.ProjectId,lumberjack-split,6c756d62-6572-46a6-9163-6b2d73706c69,rev?*
G04 #@! TF.SameCoordinates,Original*
G04 #@! TF.FileFunction,Soldermask,Top*
G04 #@! TF.FilePolarity,Negative*
%FSLAX46Y46*%
G04 Gerber Fmt 4.6, Leading zero omitted, Abs format (unit mm)*
G04 Created by KiCad (PCBNEW 6.0.10-86aedd382b~118~ubuntu22.10.1) date 2023-02-23 17:17:37*
%MOMM*%
%LPD*%
G01*
G04 APERTURE LIST*
%ADD10C,0.100000*%
G04 APERTURE END LIST*
D10*
X161449524Y-51911436D02*
X176689524Y-51911436D01*
X176689524Y-51911436D02*
X176689524Y-67151436D01*
X176689524Y-67151436D02*
X161449524Y-67151436D01*
X161449524Y-67151436D02*
X161449524Y-51911436D01*
G36*
X161449524Y-51911436D02*
G01*
X176689524Y-51911436D01*
X176689524Y-67151436D01*
X161449524Y-67151436D01*
X161449524Y-51911436D01*
G37*
X123349300Y-90011564D02*
X138589300Y-90011564D01*
X138589300Y-90011564D02*
X138589300Y-105251564D01*
X138589300Y-105251564D02*
X123349300Y-105251564D01*
X123349300Y-105251564D02*
X123349300Y-90011564D01*
G36*
X123349300Y-90011564D02*
G01*
X138589300Y-90011564D01*
X138589300Y-105251564D01*
X123349300Y-105251564D01*
X123349300Y-90011564D01*
G37*
X199549684Y-90011564D02*
X214789684Y-90011564D01*
X214789684Y-90011564D02*
X214789684Y-105251564D01*
X214789684Y-105251564D02*
X199549684Y-105251564D01*
X199549684Y-105251564D02*
X199549684Y-90011564D01*
G36*
X199549684Y-90011564D02*
G01*
X214789684Y-90011564D01*
X214789684Y-105251564D01*
X199549684Y-105251564D01*
X199549684Y-90011564D01*
G37*
X161449524Y-109061644D02*
X176689524Y-109061644D01*
X176689524Y-109061644D02*
X176689524Y-124301644D01*
X176689524Y-124301644D02*
X161449524Y-124301644D01*
X161449524Y-124301644D02*
X161449524Y-109061644D01*
G36*
X161449524Y-109061644D02*
G01*
X176689524Y-109061644D01*
X176689524Y-124301644D01*
X161449524Y-124301644D01*
X161449524Y-109061644D01*
G37*
X199549684Y-109061644D02*
X214789684Y-109061644D01*
X214789684Y-109061644D02*
X214789684Y-124301644D01*
X214789684Y-124301644D02*
X199549684Y-124301644D01*
X199549684Y-124301644D02*
X199549684Y-109061644D01*
G36*
X199549684Y-109061644D02*
G01*
X214789684Y-109061644D01*
X214789684Y-124301644D01*
X199549684Y-124301644D01*
X199549684Y-109061644D01*
G37*
X199549748Y-128111724D02*
X214789748Y-128111724D01*
X214789748Y-128111724D02*
X214789748Y-143351724D01*
X214789748Y-143351724D02*
X199549748Y-143351724D01*
X199549748Y-143351724D02*
X199549748Y-128111724D01*
G36*
X199549748Y-128111724D02*
G01*
X214789748Y-128111724D01*
X214789748Y-143351724D01*
X199549748Y-143351724D01*
X199549748Y-128111724D01*
G37*
X104299188Y-51911468D02*
X119539188Y-51911468D01*
X119539188Y-51911468D02*
X119539188Y-67151468D01*
X119539188Y-67151468D02*
X104299188Y-67151468D01*
X104299188Y-67151468D02*
X104299188Y-51911468D01*
G36*
X104299188Y-51911468D02*
G01*
X119539188Y-51911468D01*
X119539188Y-67151468D01*
X104299188Y-67151468D01*
X104299188Y-51911468D01*
G37*
X199549684Y-70961484D02*
X214789684Y-70961484D01*
X214789684Y-70961484D02*
X214789684Y-86201484D01*
X214789684Y-86201484D02*
X199549684Y-86201484D01*
X199549684Y-86201484D02*
X199549684Y-70961484D01*
G36*
X199549684Y-70961484D02*
G01*
X214789684Y-70961484D01*
X214789684Y-86201484D01*
X199549684Y-86201484D01*
X199549684Y-70961484D01*
G37*
X104299188Y-109061676D02*
X119539188Y-109061676D01*
X119539188Y-109061676D02*
X119539188Y-124301676D01*
X119539188Y-124301676D02*
X104299188Y-124301676D01*
X104299188Y-124301676D02*
X104299188Y-109061676D01*
G36*
X104299188Y-109061676D02*
G01*
X119539188Y-109061676D01*
X119539188Y-124301676D01*
X104299188Y-124301676D01*
X104299188Y-109061676D01*
G37*
X142399412Y-128111756D02*
X157639412Y-128111756D01*
X157639412Y-128111756D02*
X157639412Y-143351756D01*
X157639412Y-143351756D02*
X142399412Y-143351756D01*
X142399412Y-143351756D02*
X142399412Y-128111756D01*
G36*
X142399412Y-128111756D02*
G01*
X157639412Y-128111756D01*
X157639412Y-143351756D01*
X142399412Y-143351756D01*
X142399412Y-128111756D01*
G37*
X104299188Y-128111852D02*
X138589268Y-128111852D01*
X138589268Y-128111852D02*
X138589268Y-143351852D01*
X138589268Y-143351852D02*
X104299188Y-143351852D01*
X104299188Y-143351852D02*
X104299188Y-128111852D01*
G36*
X104299188Y-128111852D02*
G01*
X138589268Y-128111852D01*
X138589268Y-143351852D01*
X104299188Y-143351852D01*
X104299188Y-128111852D01*
G37*
X142399412Y-90011596D02*
X157639412Y-90011596D01*
X157639412Y-90011596D02*
X157639412Y-105251596D01*
X157639412Y-105251596D02*
X142399412Y-105251596D01*
X142399412Y-105251596D02*
X142399412Y-90011596D01*
G36*
X142399412Y-90011596D02*
G01*
X157639412Y-90011596D01*
X157639412Y-105251596D01*
X142399412Y-105251596D01*
X142399412Y-90011596D01*
G37*
X161449524Y-70961484D02*
X176689524Y-70961484D01*
X176689524Y-70961484D02*
X176689524Y-86201484D01*
X176689524Y-86201484D02*
X161449524Y-86201484D01*
X161449524Y-86201484D02*
X161449524Y-70961484D01*
G36*
X161449524Y-70961484D02*
G01*
X176689524Y-70961484D01*
X176689524Y-86201484D01*
X161449524Y-86201484D01*
X161449524Y-70961484D01*
G37*
X142399412Y-109061676D02*
X157639412Y-109061676D01*
X157639412Y-109061676D02*
X157639412Y-124301676D01*
X157639412Y-124301676D02*
X142399412Y-124301676D01*
X142399412Y-124301676D02*
X142399412Y-109061676D01*
G36*
X142399412Y-109061676D02*
G01*
X157639412Y-109061676D01*
X157639412Y-124301676D01*
X142399412Y-124301676D01*
X142399412Y-109061676D01*
G37*
X180499636Y-128111756D02*
X195739636Y-128111756D01*
X195739636Y-128111756D02*
X195739636Y-143351756D01*
X195739636Y-143351756D02*
X180499636Y-143351756D01*
X180499636Y-143351756D02*
X180499636Y-128111756D01*
G36*
X180499636Y-128111756D02*
G01*
X195739636Y-128111756D01*
X195739636Y-143351756D01*
X180499636Y-143351756D01*
X180499636Y-128111756D01*
G37*
X104299188Y-90011596D02*
X119539188Y-90011596D01*
X119539188Y-90011596D02*
X119539188Y-105251596D01*
X119539188Y-105251596D02*
X104299188Y-105251596D01*
X104299188Y-105251596D02*
X104299188Y-90011596D01*
G36*
X104299188Y-90011596D02*
G01*
X119539188Y-90011596D01*
X119539188Y-105251596D01*
X104299188Y-105251596D01*
X104299188Y-90011596D01*
G37*
X180499572Y-51911468D02*
X195739572Y-51911468D01*
X195739572Y-51911468D02*
X195739572Y-67151468D01*
X195739572Y-67151468D02*
X180499572Y-67151468D01*
X180499572Y-67151468D02*
X180499572Y-51911468D01*
G36*
X180499572Y-51911468D02*
G01*
X195739572Y-51911468D01*
X195739572Y-67151468D01*
X180499572Y-67151468D01*
X180499572Y-51911468D01*
G37*
X142399412Y-70961516D02*
X157639412Y-70961516D01*
X157639412Y-70961516D02*
X157639412Y-86201516D01*
X157639412Y-86201516D02*
X142399412Y-86201516D01*
X142399412Y-86201516D02*
X142399412Y-70961516D01*
G36*
X142399412Y-70961516D02*
G01*
X157639412Y-70961516D01*
X157639412Y-86201516D01*
X142399412Y-86201516D01*
X142399412Y-70961516D01*
G37*
X123349300Y-109061644D02*
X138589300Y-109061644D01*
X138589300Y-109061644D02*
X138589300Y-124301644D01*
X138589300Y-124301644D02*
X123349300Y-124301644D01*
X123349300Y-124301644D02*
X123349300Y-109061644D01*
G36*
X123349300Y-109061644D02*
G01*
X138589300Y-109061644D01*
X138589300Y-124301644D01*
X123349300Y-124301644D01*
X123349300Y-109061644D01*
G37*
X142399412Y-51911468D02*
X157639412Y-51911468D01*
X157639412Y-51911468D02*
X157639412Y-67151468D01*
X157639412Y-67151468D02*
X142399412Y-67151468D01*
X142399412Y-67151468D02*
X142399412Y-51911468D01*
G36*
X142399412Y-51911468D02*
G01*
X157639412Y-51911468D01*
X157639412Y-67151468D01*
X142399412Y-67151468D01*
X142399412Y-51911468D01*
G37*
X180499572Y-70961516D02*
X195739572Y-70961516D01*
X195739572Y-70961516D02*
X195739572Y-86201516D01*
X195739572Y-86201516D02*
X180499572Y-86201516D01*
X180499572Y-86201516D02*
X180499572Y-70961516D01*
G36*
X180499572Y-70961516D02*
G01*
X195739572Y-70961516D01*
X195739572Y-86201516D01*
X180499572Y-86201516D01*
X180499572Y-70961516D01*
G37*
X180499572Y-90011596D02*
X195739572Y-90011596D01*
X195739572Y-90011596D02*
X195739572Y-105251596D01*
X195739572Y-105251596D02*
X180499572Y-105251596D01*
X180499572Y-105251596D02*
X180499572Y-90011596D01*
G36*
X180499572Y-90011596D02*
G01*
X195739572Y-90011596D01*
X195739572Y-105251596D01*
X180499572Y-105251596D01*
X180499572Y-90011596D01*
G37*
X123349300Y-51911436D02*
X138589300Y-51911436D01*
X138589300Y-51911436D02*
X138589300Y-67151436D01*
X138589300Y-67151436D02*
X123349300Y-67151436D01*
X123349300Y-67151436D02*
X123349300Y-51911436D01*
G36*
X123349300Y-51911436D02*
G01*
X138589300Y-51911436D01*
X138589300Y-67151436D01*
X123349300Y-67151436D01*
X123349300Y-51911436D01*
G37*
X161449524Y-90011564D02*
X176689524Y-90011564D01*
X176689524Y-90011564D02*
X176689524Y-105251564D01*
X176689524Y-105251564D02*
X161449524Y-105251564D01*
X161449524Y-105251564D02*
X161449524Y-90011564D01*
G36*
X161449524Y-90011564D02*
G01*
X176689524Y-90011564D01*
X176689524Y-105251564D01*
X161449524Y-105251564D01*
X161449524Y-90011564D01*
G37*
X180499572Y-109061676D02*
X195739572Y-109061676D01*
X195739572Y-109061676D02*
X195739572Y-124301676D01*
X195739572Y-124301676D02*
X180499572Y-124301676D01*
X180499572Y-124301676D02*
X180499572Y-109061676D01*
G36*
X180499572Y-109061676D02*
G01*
X195739572Y-109061676D01*
X195739572Y-124301676D01*
X180499572Y-124301676D01*
X180499572Y-109061676D01*
G37*
X161449524Y-128111724D02*
X176689524Y-128111724D01*
X176689524Y-128111724D02*
X176689524Y-143351724D01*
X176689524Y-143351724D02*
X161449524Y-143351724D01*
X161449524Y-143351724D02*
X161449524Y-128111724D01*
G36*
X161449524Y-128111724D02*
G01*
X176689524Y-128111724D01*
X176689524Y-143351724D01*
X161449524Y-143351724D01*
X161449524Y-128111724D01*
G37*
X104299188Y-70961516D02*
X119539188Y-70961516D01*
X119539188Y-70961516D02*
X119539188Y-86201516D01*
X119539188Y-86201516D02*
X104299188Y-86201516D01*
X104299188Y-86201516D02*
X104299188Y-70961516D01*
G36*
X104299188Y-70961516D02*
G01*
X119539188Y-70961516D01*
X119539188Y-86201516D01*
X104299188Y-86201516D01*
X104299188Y-70961516D01*
G37*
X123349300Y-70961484D02*
X138589300Y-70961484D01*
X138589300Y-70961484D02*
X138589300Y-86201484D01*
X138589300Y-86201484D02*
X123349300Y-86201484D01*
X123349300Y-86201484D02*
X123349300Y-70961484D01*
G36*
X123349300Y-70961484D02*
G01*
X138589300Y-70961484D01*
X138589300Y-86201484D01*
X123349300Y-86201484D01*
X123349300Y-70961484D01*
G37*
X199549684Y-51911436D02*
X214789684Y-51911436D01*
X214789684Y-51911436D02*
X214789684Y-67151436D01*
X214789684Y-67151436D02*
X199549684Y-67151436D01*
X199549684Y-67151436D02*
X199549684Y-51911436D01*
G36*
X199549684Y-51911436D02*
G01*
X214789684Y-51911436D01*
X214789684Y-67151436D01*
X199549684Y-67151436D01*
X199549684Y-51911436D01*
G37*
M02*
