%TF.GenerationSoftware,KiCad,Pcbnew,(6.0.0-0)*%
%TF.CreationDate,2022-01-29T12:08:40+01:00*%
%TF.ProjectId,lumberjack-full,6c756d62-6572-46a6-9163-6b2d66756c6c,rev?*%
%TF.SameCoordinates,Original*%
%TF.FileFunction,Profile,NP*%
%FSLAX46Y46*%
G04 Gerber Fmt 4.6, Leading zero omitted, Abs format (unit mm)*
G04 Created by KiCad (PCBNEW (6.0.0-0)) date 2022-01-29 12:08:40*
%MOMM*%
%LPD*%
G01*
G04 APERTURE LIST*
%TA.AperFunction,Profile*%
%ADD10C,0.100000*%
%TD*%
G04 APERTURE END LIST*
D10*
X101203125Y-132635625D02*
X101203125Y-118348125D01*
X105965625Y-132635625D02*
X158353790Y-132635832D01*
X163115625Y-42148125D02*
X163115625Y-56435625D01*
X158353790Y-42148332D02*
X158353790Y-132635832D01*
X105965625Y-42148125D02*
X105965625Y-132635625D01*
X101203125Y-42148125D02*
X101203125Y-56435625D01*
X158353790Y-42148332D02*
X105965625Y-42148125D01*
X5953125Y-42148125D02*
X-8334375Y-42148125D01*
X-8334375Y-42148125D02*
X-8334375Y-56435625D01*
X44053125Y-61198125D02*
X29765625Y-61198125D01*
X10715625Y-75485625D02*
X25003125Y-75485625D01*
X82153125Y-42148125D02*
X82153125Y-56435625D01*
X82153125Y-56435625D02*
X67865625Y-56435625D01*
X-8334375Y-113585625D02*
X5953125Y-113585625D01*
X5953125Y-99298125D02*
X-4167364Y-99298125D01*
X48815625Y-56435625D02*
X48815625Y-42148125D01*
X48815625Y-42148125D02*
X63103125Y-42148125D01*
X44053125Y-42148125D02*
X29765625Y-42148125D01*
X29765625Y-42148125D02*
X29765625Y-56435625D01*
X29765625Y-56435625D02*
X44053125Y-56435625D01*
X44053125Y-56435625D02*
X44053125Y-42148125D01*
X25003125Y-42148125D02*
X10715625Y-42148125D01*
X10715625Y-42148125D02*
X10715625Y-56435625D01*
X67865625Y-56435625D02*
X67865625Y-42148125D01*
X67865625Y-42148125D02*
X82153125Y-42148125D01*
X-8334375Y-56435625D02*
X5953125Y-56435625D01*
X-8334375Y-75485625D02*
X5953125Y-75485625D01*
X10715625Y-56435625D02*
X25003125Y-56435625D01*
X25003125Y-56435625D02*
X25003125Y-42148125D01*
X5953125Y-56435625D02*
X5953125Y-42148125D01*
X70246761Y-118348233D02*
X67865509Y-118348233D01*
X75009265Y-117157607D02*
X75009265Y-118348233D01*
X98821785Y-117157607D02*
X98821785Y-118348233D01*
X70246761Y-118348233D02*
X70246761Y-117157607D01*
X101203125Y-118348125D02*
X98821785Y-118348233D01*
X94059281Y-118348233D02*
X94059281Y-117157607D01*
X-8929868Y-39766917D02*
G75*
G03*
X-10715807Y-41552856I0J-1785939D01*
G01*
X101203125Y-61198125D02*
X86915625Y-61198125D01*
X82153125Y-61198125D02*
X82153125Y-75485625D01*
X86915625Y-75485625D02*
X101203125Y-75485625D01*
X-4167364Y-94535713D02*
X-4167364Y-99298125D01*
X-8334375Y-99298125D02*
X-10715807Y-99298217D01*
X48815625Y-61198125D02*
X63103125Y-61198125D01*
X86915625Y-80248125D02*
X86915625Y-94535625D01*
X29765625Y-61198125D02*
X29765625Y-75485625D01*
X101203125Y-75485625D02*
X101203125Y-61198125D01*
X-8334375Y-61198125D02*
X-8334375Y-75485625D01*
X-4167364Y-94535713D02*
X5953125Y-94535713D01*
X29765625Y-94535625D02*
X44053125Y-94535625D01*
X25003125Y-94535625D02*
X25003125Y-80248125D01*
X101203125Y-42148125D02*
X86915625Y-42148125D01*
X10715625Y-80248125D02*
X10715625Y-94535625D01*
X5953125Y-94535713D02*
X5953125Y-80248125D01*
X5953125Y-75485625D02*
X5953125Y-61198125D01*
X67865625Y-99298125D02*
X82153125Y-99298125D01*
X29765625Y-132635625D02*
X44053125Y-132635625D01*
X10715625Y-113585625D02*
X25003125Y-113585625D01*
X82153125Y-99298125D02*
X82153125Y-113585625D01*
X101203125Y-113585625D02*
X101203125Y-99298125D01*
X63103125Y-99298125D02*
X63103125Y-113585625D01*
X29765625Y-80248125D02*
X29765625Y-94535625D01*
X29765625Y-99298125D02*
X29765625Y-113585625D01*
X82153125Y-94535625D02*
X67865625Y-94535625D01*
X86915625Y-99298125D02*
X86915625Y-113585625D01*
X101203125Y-94535625D02*
X101203125Y-80248125D01*
X29765625Y-113585625D02*
X44053125Y-113585625D01*
X94059281Y-118348233D02*
X75009265Y-118348233D01*
X63103125Y-113585625D02*
X48815625Y-113585625D01*
X10715625Y-118348125D02*
X10715625Y-132635625D01*
X44053125Y-113585625D02*
X44053125Y-99298125D01*
X44053125Y-132635625D02*
X44053125Y-118348125D01*
X25003125Y-113585625D02*
X25003125Y-99298125D01*
X48815625Y-132635625D02*
X48815625Y-118348125D01*
X67865625Y-113585625D02*
X67865625Y-99298125D01*
X63103125Y-132635625D02*
X48815625Y-132635625D01*
X82153125Y-113585625D02*
X67865625Y-113585625D01*
X10715625Y-132635625D02*
X25003125Y-132635625D01*
X48815625Y-99298125D02*
X63103125Y-99298125D01*
X25003125Y-132635625D02*
X25003125Y-118348125D01*
X48815625Y-113585625D02*
X48815625Y-99298125D01*
X48815625Y-94535625D02*
X48815625Y-80248125D01*
X63103125Y-80248125D02*
X63103125Y-94535625D01*
X48815625Y-80248125D02*
X63103125Y-80248125D01*
X25003125Y-99298125D02*
X10715625Y-99298125D01*
X63103125Y-56435625D02*
X48815625Y-56435625D01*
X101203125Y-99298125D02*
X86915625Y-99298125D01*
X44053125Y-99298125D02*
X29765625Y-99298125D01*
X82153125Y-80248125D02*
X82153125Y-94535625D01*
X25003125Y-80248125D02*
X10715625Y-80248125D01*
X63103125Y-42148125D02*
X63103125Y-56435625D01*
X67865625Y-132635625D02*
X67865625Y-118348125D01*
X86915625Y-42148125D02*
X86915625Y-56435625D01*
X86915625Y-56435625D02*
X101203125Y-56435625D01*
X67865625Y-132635625D02*
X101203125Y-132635625D01*
X86915625Y-61198125D02*
X86915625Y-75485625D01*
X67865625Y-61198125D02*
X82153125Y-61198125D01*
X63103125Y-75485625D02*
X48815625Y-75485625D01*
X5953125Y-132635625D02*
X5953125Y-118348125D01*
X63103125Y-118348125D02*
X63103125Y-132635625D01*
X94059281Y-117157607D02*
X98821785Y-117157607D01*
X-8334375Y-94535625D02*
X-10715807Y-94535713D01*
X86915625Y-113585625D02*
X101203125Y-113585625D01*
X10715625Y-99298125D02*
X10715625Y-113585625D01*
X29765625Y-118348125D02*
X29765625Y-132635625D01*
X25003125Y-118348125D02*
X10715625Y-118348125D01*
X44053125Y-118348125D02*
X29765625Y-118348125D01*
X70246761Y-117157607D02*
X75009265Y-117157607D01*
X-8334375Y-118348125D02*
X-8334375Y-132635625D01*
X5953125Y-118348125D02*
X-8334375Y-118348125D01*
X-8334375Y-132635625D02*
X5953125Y-132635625D01*
X5953125Y-61198125D02*
X-8334375Y-61198125D01*
X-8334375Y-80248125D02*
X-8334375Y-94535625D01*
X5953125Y-80248125D02*
X-8334375Y-80248125D01*
X-10715807Y-133231058D02*
G75*
G03*
X-8929868Y-135016997I1785939J0D01*
G01*
X-10715807Y-41552856D02*
X-10715807Y-94535713D01*
X63103125Y-61198125D02*
X63103125Y-75485625D01*
X67865625Y-80248125D02*
X82153125Y-80248125D01*
X44053125Y-80248125D02*
X29765625Y-80248125D01*
X48815625Y-75485625D02*
X48815625Y-61198125D01*
X67865625Y-94535625D02*
X67865625Y-80248125D01*
X101203125Y-80248125D02*
X86915625Y-80248125D01*
X44053125Y-94535625D02*
X44053125Y-80248125D01*
X86915625Y-94535625D02*
X101203125Y-94535625D01*
X63103125Y-94535625D02*
X48815625Y-94535625D01*
X67865625Y-75485625D02*
X67865625Y-61198125D01*
X25003125Y-61198125D02*
X10715625Y-61198125D01*
X10715625Y-61198125D02*
X10715625Y-75485625D01*
X5953125Y-113585625D02*
X5953125Y-99298125D01*
X-10715807Y-99298217D02*
X-10715807Y-133231058D01*
X-8334375Y-99298125D02*
X-8334375Y-113585625D01*
X10715625Y-94535625D02*
X25003125Y-94535625D01*
X44053125Y-75485625D02*
X44053125Y-61198125D01*
X29765625Y-75485625D02*
X44053125Y-75485625D01*
X25003125Y-75485625D02*
X25003125Y-61198125D01*
X82153125Y-75485625D02*
X67865625Y-75485625D01*
X48815625Y-118348125D02*
X63103125Y-118348125D01*
X272653125Y-94535625D02*
X275034557Y-94535713D01*
X272653125Y-99298125D02*
X275034557Y-99298217D01*
X268486114Y-94535713D02*
X268486114Y-99298125D01*
X-8929868Y-135016997D02*
X273248618Y-135016997D01*
X273248618Y-39766917D02*
X-8929868Y-39766917D01*
X163115625Y-132635625D02*
X163115625Y-118348125D01*
X196453125Y-132635625D02*
X196453125Y-118348125D01*
X194071989Y-118348233D02*
X194071989Y-117157607D01*
X165496965Y-117157607D02*
X165496965Y-118348233D01*
X189309485Y-117157607D02*
X189309485Y-118348233D01*
X194071989Y-118348233D02*
X196453241Y-118348233D01*
X170259469Y-117157607D02*
X165496965Y-117157607D01*
X163115625Y-118348125D02*
X165496965Y-118348233D01*
X196453125Y-132635625D02*
X163115625Y-132635625D01*
X201215625Y-118348125D02*
X201215625Y-132635625D01*
X234553125Y-132635625D02*
X220265625Y-132635625D01*
X170259469Y-118348233D02*
X170259469Y-117157607D01*
X194071989Y-117157607D02*
X189309485Y-117157607D01*
X239315625Y-118348125D02*
X253603125Y-118348125D01*
X234553125Y-118348125D02*
X234553125Y-132635625D01*
X215503125Y-118348125D02*
X201215625Y-118348125D01*
X220265625Y-118348125D02*
X234553125Y-118348125D01*
X258365625Y-132635625D02*
X258365625Y-118348125D01*
X239315625Y-132635625D02*
X239315625Y-118348125D01*
X253603125Y-132635625D02*
X239315625Y-132635625D01*
X201215625Y-132635625D02*
X215503125Y-132635625D01*
X215503125Y-132635625D02*
X215503125Y-118348125D01*
X220265625Y-132635625D02*
X220265625Y-118348125D01*
X253603125Y-118348125D02*
X253603125Y-132635625D01*
X170259469Y-118348233D02*
X189309485Y-118348233D01*
X163115625Y-94535625D02*
X163115625Y-80248125D01*
X182165625Y-94535625D02*
X196453125Y-94535625D01*
X234553125Y-80248125D02*
X234553125Y-94535625D01*
X163115625Y-113585625D02*
X163115625Y-99298125D01*
X253603125Y-99298125D02*
X253603125Y-113585625D01*
X177403125Y-113585625D02*
X163115625Y-113585625D01*
X163115625Y-99298125D02*
X177403125Y-99298125D01*
X215503125Y-113585625D02*
X215503125Y-99298125D01*
X215503125Y-99298125D02*
X201215625Y-99298125D01*
X182165625Y-113585625D02*
X196453125Y-113585625D01*
X196453125Y-113585625D02*
X196453125Y-99298125D01*
X239315625Y-113585625D02*
X239315625Y-99298125D01*
X220265625Y-113585625D02*
X220265625Y-99298125D01*
X201215625Y-113585625D02*
X215503125Y-113585625D01*
X234553125Y-113585625D02*
X220265625Y-113585625D01*
X177403125Y-99298125D02*
X177403125Y-113585625D01*
X234553125Y-99298125D02*
X234553125Y-113585625D01*
X201215625Y-99298125D02*
X201215625Y-113585625D01*
X182165625Y-99298125D02*
X182165625Y-113585625D01*
X220265625Y-99298125D02*
X234553125Y-99298125D01*
X239315625Y-99298125D02*
X253603125Y-99298125D01*
X253603125Y-113585625D02*
X239315625Y-113585625D01*
X196453125Y-99298125D02*
X182165625Y-99298125D01*
X258365625Y-113585625D02*
X258365625Y-99298125D01*
X177403125Y-94535625D02*
X163115625Y-94535625D01*
X220265625Y-94535625D02*
X220265625Y-80248125D01*
X163115625Y-80248125D02*
X177403125Y-80248125D01*
X239315625Y-80248125D02*
X253603125Y-80248125D01*
X182165625Y-80248125D02*
X182165625Y-94535625D01*
X215503125Y-80248125D02*
X201215625Y-80248125D01*
X201215625Y-80248125D02*
X201215625Y-94535625D01*
X215503125Y-94535625D02*
X215503125Y-80248125D01*
X196453125Y-94535625D02*
X196453125Y-80248125D01*
X201215625Y-94535625D02*
X215503125Y-94535625D01*
X258365625Y-94535625D02*
X258365625Y-80248125D01*
X253603125Y-80248125D02*
X253603125Y-94535625D01*
X177403125Y-75485625D02*
X163115625Y-75485625D01*
X163115625Y-61198125D02*
X177403125Y-61198125D01*
X220265625Y-75485625D02*
X220265625Y-61198125D01*
X253603125Y-61198125D02*
X253603125Y-75485625D01*
X258365625Y-75485625D02*
X258365625Y-61198125D01*
X182165625Y-61198125D02*
X182165625Y-75485625D01*
X258365625Y-56435625D02*
X258365625Y-42148125D01*
X239315625Y-56435625D02*
X239315625Y-42148125D01*
X253603125Y-56435625D02*
X239315625Y-56435625D01*
X253603125Y-42148125D02*
X253603125Y-56435625D01*
X239315625Y-42148125D02*
X253603125Y-42148125D01*
X220265625Y-56435625D02*
X220265625Y-42148125D01*
X234553125Y-56435625D02*
X220265625Y-56435625D01*
X234553125Y-42148125D02*
X234553125Y-56435625D01*
X220265625Y-42148125D02*
X234553125Y-42148125D01*
X215503125Y-42148125D02*
X201215625Y-42148125D01*
X215503125Y-56435625D02*
X215503125Y-42148125D01*
X201215625Y-56435625D02*
X215503125Y-56435625D01*
X201215625Y-42148125D02*
X201215625Y-56435625D01*
X196453125Y-42148125D02*
X182165625Y-42148125D01*
X196453125Y-56435625D02*
X196453125Y-42148125D01*
X182165625Y-56435625D02*
X196453125Y-56435625D01*
X182165625Y-42148125D02*
X182165625Y-56435625D01*
X177403125Y-56435625D02*
X163115625Y-56435625D01*
X177403125Y-42148125D02*
X177403125Y-56435625D01*
X163115625Y-42148125D02*
X177403125Y-42148125D01*
X239315625Y-94535625D02*
X239315625Y-80248125D01*
X234553125Y-94535625D02*
X220265625Y-94535625D01*
X253603125Y-94535625D02*
X239315625Y-94535625D01*
X220265625Y-80248125D02*
X234553125Y-80248125D01*
X196453125Y-80248125D02*
X182165625Y-80248125D01*
X177403125Y-80248125D02*
X177403125Y-94535625D01*
X182165625Y-75485625D02*
X196453125Y-75485625D01*
X215503125Y-75485625D02*
X215503125Y-61198125D01*
X201215625Y-61198125D02*
X201215625Y-75485625D01*
X201215625Y-75485625D02*
X215503125Y-75485625D01*
X163115625Y-75485625D02*
X163115625Y-61198125D01*
X234553125Y-61198125D02*
X234553125Y-75485625D01*
X215503125Y-61198125D02*
X201215625Y-61198125D01*
X239315625Y-61198125D02*
X253603125Y-61198125D01*
X196453125Y-75485625D02*
X196453125Y-61198125D01*
X196453125Y-61198125D02*
X182165625Y-61198125D01*
X177403125Y-61198125D02*
X177403125Y-75485625D01*
X253603125Y-75485625D02*
X239315625Y-75485625D01*
X220265625Y-61198125D02*
X234553125Y-61198125D01*
X239315625Y-75485625D02*
X239315625Y-61198125D01*
X234553125Y-75485625D02*
X220265625Y-75485625D01*
X258365625Y-80248125D02*
X272653125Y-80248125D01*
X272653125Y-80248125D02*
X272653125Y-94535625D01*
X268486114Y-94535713D02*
X258365625Y-94535713D01*
X272653125Y-61198125D02*
X272653125Y-75485625D01*
X272653125Y-75485625D02*
X258365625Y-75485625D01*
X272653125Y-56435625D02*
X258365625Y-56435625D01*
X272653125Y-42148125D02*
X272653125Y-56435625D01*
X258365625Y-42148125D02*
X272653125Y-42148125D01*
X258365625Y-61198125D02*
X272653125Y-61198125D01*
X272653125Y-132635625D02*
X258365625Y-132635625D01*
X258365625Y-118348125D02*
X272653125Y-118348125D01*
X272653125Y-118348125D02*
X272653125Y-132635625D01*
X258365625Y-99298125D02*
X268486114Y-99298125D01*
X272653125Y-113585625D02*
X258365625Y-113585625D01*
X272653125Y-99298125D02*
X272653125Y-113585625D01*
X275034557Y-99298217D02*
X275034557Y-133231058D01*
X275034557Y-41552856D02*
X275034557Y-94535713D01*
X273248618Y-135016997D02*
G75*
G03*
X275034557Y-133231058I0J1785939D01*
G01*
X275034557Y-41552856D02*
G75*
G03*
X273248618Y-39766917I-1785939J0D01*
G01*
M02*
