%TF.GenerationSoftware,KiCad,Pcbnew,(6.0.5-0)*%
%TF.CreationDate,2022-06-06T14:32:42+02:00*%
%TF.ProjectId,lumberjack-full,6c756d62-6572-46a6-9163-6b2d66756c6c,rev?*%
%TF.SameCoordinates,Original*%
%TF.FileFunction,Soldermask,Top*%
%TF.FilePolarity,Negative*%
%FSLAX46Y46*%
G04 Gerber Fmt 4.6, Leading zero omitted, Abs format (unit mm)*
G04 Created by KiCad (PCBNEW (6.0.5-0)) date 2022-06-06 14:32:42*
%MOMM*%
%LPD*%
G01*
G04 APERTURE LIST*
%ADD10C,0.100000*%
G04 APERTURE END LIST*
D10*
X162640090Y-79772178D02*
X177880090Y-79772178D01*
X177880090Y-79772178D02*
X177880090Y-95012178D01*
X177880090Y-95012178D02*
X162640090Y-95012178D01*
X162640090Y-95012178D02*
X162640090Y-79772178D01*
G36*
X162640090Y-79772178D02*
G01*
X177880090Y-79772178D01*
X177880090Y-95012178D01*
X162640090Y-95012178D01*
X162640090Y-79772178D01*
G37*
X67389722Y-79772210D02*
X82629722Y-79772210D01*
X82629722Y-79772210D02*
X82629722Y-95012210D01*
X82629722Y-95012210D02*
X67389722Y-95012210D01*
X67389722Y-95012210D02*
X67389722Y-79772210D01*
G36*
X67389722Y-79772210D02*
G01*
X82629722Y-79772210D01*
X82629722Y-95012210D01*
X67389722Y-95012210D01*
X67389722Y-79772210D01*
G37*
X200740314Y-98822258D02*
X215980314Y-98822258D01*
X215980314Y-98822258D02*
X215980314Y-114062258D01*
X215980314Y-114062258D02*
X200740314Y-114062258D01*
X200740314Y-114062258D02*
X200740314Y-98822258D01*
G36*
X200740314Y-98822258D02*
G01*
X215980314Y-98822258D01*
X215980314Y-114062258D01*
X200740314Y-114062258D01*
X200740314Y-98822258D01*
G37*
X181690202Y-79772146D02*
X196930202Y-79772146D01*
X196930202Y-79772146D02*
X196930202Y-95012146D01*
X196930202Y-95012146D02*
X181690202Y-95012146D01*
X181690202Y-95012146D02*
X181690202Y-79772146D01*
G36*
X181690202Y-79772146D02*
G01*
X196930202Y-79772146D01*
X196930202Y-95012146D01*
X181690202Y-95012146D01*
X181690202Y-79772146D01*
G37*
X10239450Y-117872338D02*
X25479450Y-117872338D01*
X25479450Y-117872338D02*
X25479450Y-133112338D01*
X25479450Y-133112338D02*
X10239450Y-133112338D01*
X10239450Y-133112338D02*
X10239450Y-117872338D01*
G36*
X10239450Y-117872338D02*
G01*
X25479450Y-117872338D01*
X25479450Y-133112338D01*
X10239450Y-133112338D01*
X10239450Y-117872338D01*
G37*
X-8810662Y-98822290D02*
X6429338Y-98822290D01*
X6429338Y-98822290D02*
X6429338Y-114062290D01*
X6429338Y-114062290D02*
X-8810662Y-114062290D01*
X-8810662Y-114062290D02*
X-8810662Y-98822290D01*
G36*
X-8810662Y-98822290D02*
G01*
X6429338Y-98822290D01*
X6429338Y-114062290D01*
X-8810662Y-114062290D01*
X-8810662Y-98822290D01*
G37*
X-8810662Y-117872370D02*
X6429338Y-117872370D01*
X6429338Y-117872370D02*
X6429338Y-133112370D01*
X6429338Y-133112370D02*
X-8810662Y-133112370D01*
X-8810662Y-133112370D02*
X-8810662Y-117872370D01*
G36*
X-8810662Y-117872370D02*
G01*
X6429338Y-117872370D01*
X6429338Y-133112370D01*
X-8810662Y-133112370D01*
X-8810662Y-117872370D01*
G37*
X162640090Y-117872338D02*
X196930170Y-117872338D01*
X196930170Y-117872338D02*
X196930170Y-133112338D01*
X196930170Y-133112338D02*
X162640090Y-133112338D01*
X162640090Y-133112338D02*
X162640090Y-117872338D01*
G36*
X162640090Y-117872338D02*
G01*
X196930170Y-117872338D01*
X196930170Y-133112338D01*
X162640090Y-133112338D01*
X162640090Y-117872338D01*
G37*
X238840474Y-41672050D02*
X254080474Y-41672050D01*
X254080474Y-41672050D02*
X254080474Y-56912050D01*
X254080474Y-56912050D02*
X238840474Y-56912050D01*
X238840474Y-56912050D02*
X238840474Y-41672050D01*
G36*
X238840474Y-41672050D02*
G01*
X254080474Y-41672050D01*
X254080474Y-56912050D01*
X238840474Y-56912050D01*
X238840474Y-41672050D01*
G37*
X181690202Y-41672018D02*
X196930202Y-41672018D01*
X196930202Y-41672018D02*
X196930202Y-56912018D01*
X196930202Y-56912018D02*
X181690202Y-56912018D01*
X181690202Y-56912018D02*
X181690202Y-41672018D01*
G36*
X181690202Y-41672018D02*
G01*
X196930202Y-41672018D01*
X196930202Y-56912018D01*
X181690202Y-56912018D01*
X181690202Y-41672018D01*
G37*
X257890586Y-98822226D02*
X273130586Y-98822226D01*
X273130586Y-98822226D02*
X273130586Y-114062226D01*
X273130586Y-114062226D02*
X257890586Y-114062226D01*
X257890586Y-114062226D02*
X257890586Y-98822226D01*
G36*
X257890586Y-98822226D02*
G01*
X273130586Y-98822226D01*
X273130586Y-114062226D01*
X257890586Y-114062226D01*
X257890586Y-98822226D01*
G37*
X67389722Y-98822290D02*
X82629722Y-98822290D01*
X82629722Y-98822290D02*
X82629722Y-114062290D01*
X82629722Y-114062290D02*
X67389722Y-114062290D01*
X67389722Y-114062290D02*
X67389722Y-98822290D01*
G36*
X67389722Y-98822290D02*
G01*
X82629722Y-98822290D01*
X82629722Y-114062290D01*
X67389722Y-114062290D01*
X67389722Y-98822290D01*
G37*
X162640090Y-98822258D02*
X177880090Y-98822258D01*
X177880090Y-98822258D02*
X177880090Y-114062258D01*
X177880090Y-114062258D02*
X162640090Y-114062258D01*
X162640090Y-114062258D02*
X162640090Y-98822258D01*
G36*
X162640090Y-98822258D02*
G01*
X177880090Y-98822258D01*
X177880090Y-114062258D01*
X162640090Y-114062258D01*
X162640090Y-98822258D01*
G37*
X-8810662Y-60722130D02*
X6429338Y-60722130D01*
X6429338Y-60722130D02*
X6429338Y-75962130D01*
X6429338Y-75962130D02*
X-8810662Y-75962130D01*
X-8810662Y-75962130D02*
X-8810662Y-60722130D01*
G36*
X-8810662Y-60722130D02*
G01*
X6429338Y-60722130D01*
X6429338Y-75962130D01*
X-8810662Y-75962130D01*
X-8810662Y-60722130D01*
G37*
X238840474Y-98822258D02*
X254080474Y-98822258D01*
X254080474Y-98822258D02*
X254080474Y-114062258D01*
X254080474Y-114062258D02*
X238840474Y-114062258D01*
X238840474Y-114062258D02*
X238840474Y-98822258D01*
G36*
X238840474Y-98822258D02*
G01*
X254080474Y-98822258D01*
X254080474Y-114062258D01*
X238840474Y-114062258D01*
X238840474Y-98822258D01*
G37*
X200740314Y-60722098D02*
X215980314Y-60722098D01*
X215980314Y-60722098D02*
X215980314Y-75962098D01*
X215980314Y-75962098D02*
X200740314Y-75962098D01*
X200740314Y-75962098D02*
X200740314Y-60722098D01*
G36*
X200740314Y-60722098D02*
G01*
X215980314Y-60722098D01*
X215980314Y-75962098D01*
X200740314Y-75962098D01*
X200740314Y-60722098D01*
G37*
X162640090Y-41672050D02*
X177880090Y-41672050D01*
X177880090Y-41672050D02*
X177880090Y-56912050D01*
X177880090Y-56912050D02*
X162640090Y-56912050D01*
X162640090Y-56912050D02*
X162640090Y-41672050D01*
G36*
X162640090Y-41672050D02*
G01*
X177880090Y-41672050D01*
X177880090Y-56912050D01*
X162640090Y-56912050D01*
X162640090Y-41672050D01*
G37*
X48339674Y-98822258D02*
X63579674Y-98822258D01*
X63579674Y-98822258D02*
X63579674Y-114062258D01*
X63579674Y-114062258D02*
X48339674Y-114062258D01*
X48339674Y-114062258D02*
X48339674Y-98822258D01*
G36*
X48339674Y-98822258D02*
G01*
X63579674Y-98822258D01*
X63579674Y-114062258D01*
X48339674Y-114062258D01*
X48339674Y-98822258D01*
G37*
X48339674Y-117872338D02*
X63579674Y-117872338D01*
X63579674Y-117872338D02*
X63579674Y-133112338D01*
X63579674Y-133112338D02*
X48339674Y-133112338D01*
X48339674Y-133112338D02*
X48339674Y-117872338D01*
G36*
X48339674Y-117872338D02*
G01*
X63579674Y-117872338D01*
X63579674Y-133112338D01*
X48339674Y-133112338D01*
X48339674Y-117872338D01*
G37*
X257890586Y-60722066D02*
X273130586Y-60722066D01*
X273130586Y-60722066D02*
X273130586Y-75962066D01*
X273130586Y-75962066D02*
X257890586Y-75962066D01*
X257890586Y-75962066D02*
X257890586Y-60722066D01*
G36*
X257890586Y-60722066D02*
G01*
X273130586Y-60722066D01*
X273130586Y-75962066D01*
X257890586Y-75962066D01*
X257890586Y-60722066D01*
G37*
X181690202Y-60722066D02*
X196930202Y-60722066D01*
X196930202Y-60722066D02*
X196930202Y-75962066D01*
X196930202Y-75962066D02*
X181690202Y-75962066D01*
X181690202Y-75962066D02*
X181690202Y-60722066D01*
G36*
X181690202Y-60722066D02*
G01*
X196930202Y-60722066D01*
X196930202Y-75962066D01*
X181690202Y-75962066D01*
X181690202Y-60722066D01*
G37*
X29289562Y-41672082D02*
X44529562Y-41672082D01*
X44529562Y-41672082D02*
X44529562Y-56912082D01*
X44529562Y-56912082D02*
X29289562Y-56912082D01*
X29289562Y-56912082D02*
X29289562Y-41672082D01*
G36*
X29289562Y-41672082D02*
G01*
X44529562Y-41672082D01*
X44529562Y-56912082D01*
X29289562Y-56912082D01*
X29289562Y-41672082D01*
G37*
X48339674Y-41672050D02*
X63579674Y-41672050D01*
X63579674Y-41672050D02*
X63579674Y-56912050D01*
X63579674Y-56912050D02*
X48339674Y-56912050D01*
X48339674Y-56912050D02*
X48339674Y-41672050D01*
G36*
X48339674Y-41672050D02*
G01*
X63579674Y-41672050D01*
X63579674Y-56912050D01*
X48339674Y-56912050D01*
X48339674Y-41672050D01*
G37*
X219790426Y-98822226D02*
X235030426Y-98822226D01*
X235030426Y-98822226D02*
X235030426Y-114062226D01*
X235030426Y-114062226D02*
X219790426Y-114062226D01*
X219790426Y-114062226D02*
X219790426Y-98822226D01*
G36*
X219790426Y-98822226D02*
G01*
X235030426Y-98822226D01*
X235030426Y-114062226D01*
X219790426Y-114062226D01*
X219790426Y-98822226D01*
G37*
X238840474Y-60722098D02*
X254080474Y-60722098D01*
X254080474Y-60722098D02*
X254080474Y-75962098D01*
X254080474Y-75962098D02*
X238840474Y-75962098D01*
X238840474Y-75962098D02*
X238840474Y-60722098D01*
G36*
X238840474Y-60722098D02*
G01*
X254080474Y-60722098D01*
X254080474Y-75962098D01*
X238840474Y-75962098D01*
X238840474Y-60722098D01*
G37*
X-8810662Y-41672082D02*
X6429338Y-41672082D01*
X6429338Y-41672082D02*
X6429338Y-56912082D01*
X6429338Y-56912082D02*
X-8810662Y-56912082D01*
X-8810662Y-56912082D02*
X-8810662Y-41672082D01*
G36*
X-8810662Y-41672082D02*
G01*
X6429338Y-41672082D01*
X6429338Y-56912082D01*
X-8810662Y-56912082D01*
X-8810662Y-41672082D01*
G37*
X29289562Y-98822290D02*
X44529562Y-98822290D01*
X44529562Y-98822290D02*
X44529562Y-114062290D01*
X44529562Y-114062290D02*
X29289562Y-114062290D01*
X29289562Y-114062290D02*
X29289562Y-98822290D01*
G36*
X29289562Y-98822290D02*
G01*
X44529562Y-98822290D01*
X44529562Y-114062290D01*
X29289562Y-114062290D01*
X29289562Y-98822290D01*
G37*
X67389722Y-117872370D02*
X101679802Y-117872370D01*
X101679802Y-117872370D02*
X101679802Y-133112370D01*
X101679802Y-133112370D02*
X67389722Y-133112370D01*
X67389722Y-133112370D02*
X67389722Y-117872370D01*
G36*
X67389722Y-117872370D02*
G01*
X101679802Y-117872370D01*
X101679802Y-133112370D01*
X67389722Y-133112370D01*
X67389722Y-117872370D01*
G37*
X257890586Y-41672018D02*
X273130586Y-41672018D01*
X273130586Y-41672018D02*
X273130586Y-56912018D01*
X273130586Y-56912018D02*
X257890586Y-56912018D01*
X257890586Y-56912018D02*
X257890586Y-41672018D01*
G36*
X257890586Y-41672018D02*
G01*
X273130586Y-41672018D01*
X273130586Y-56912018D01*
X257890586Y-56912018D01*
X257890586Y-41672018D01*
G37*
X219790426Y-41672018D02*
X235030426Y-41672018D01*
X235030426Y-41672018D02*
X235030426Y-56912018D01*
X235030426Y-56912018D02*
X219790426Y-56912018D01*
X219790426Y-56912018D02*
X219790426Y-41672018D01*
G36*
X219790426Y-41672018D02*
G01*
X235030426Y-41672018D01*
X235030426Y-56912018D01*
X219790426Y-56912018D01*
X219790426Y-41672018D01*
G37*
X219790426Y-79772146D02*
X235030426Y-79772146D01*
X235030426Y-79772146D02*
X235030426Y-95012146D01*
X235030426Y-95012146D02*
X219790426Y-95012146D01*
X219790426Y-95012146D02*
X219790426Y-79772146D01*
G36*
X219790426Y-79772146D02*
G01*
X235030426Y-79772146D01*
X235030426Y-95012146D01*
X219790426Y-95012146D01*
X219790426Y-79772146D01*
G37*
X86439834Y-98822258D02*
X101679834Y-98822258D01*
X101679834Y-98822258D02*
X101679834Y-114062258D01*
X101679834Y-114062258D02*
X86439834Y-114062258D01*
X86439834Y-114062258D02*
X86439834Y-98822258D01*
G36*
X86439834Y-98822258D02*
G01*
X101679834Y-98822258D01*
X101679834Y-114062258D01*
X86439834Y-114062258D01*
X86439834Y-98822258D01*
G37*
X29289562Y-117872370D02*
X44529562Y-117872370D01*
X44529562Y-117872370D02*
X44529562Y-133112370D01*
X44529562Y-133112370D02*
X29289562Y-133112370D01*
X29289562Y-133112370D02*
X29289562Y-117872370D01*
G36*
X29289562Y-117872370D02*
G01*
X44529562Y-117872370D01*
X44529562Y-133112370D01*
X29289562Y-133112370D01*
X29289562Y-117872370D01*
G37*
X238840474Y-79772178D02*
X254080474Y-79772178D01*
X254080474Y-79772178D02*
X254080474Y-95012178D01*
X254080474Y-95012178D02*
X238840474Y-95012178D01*
X238840474Y-95012178D02*
X238840474Y-79772178D01*
G36*
X238840474Y-79772178D02*
G01*
X254080474Y-79772178D01*
X254080474Y-95012178D01*
X238840474Y-95012178D01*
X238840474Y-79772178D01*
G37*
X200740314Y-41672050D02*
X215980314Y-41672050D01*
X215980314Y-41672050D02*
X215980314Y-56912050D01*
X215980314Y-56912050D02*
X200740314Y-56912050D01*
X200740314Y-56912050D02*
X200740314Y-41672050D01*
G36*
X200740314Y-41672050D02*
G01*
X215980314Y-41672050D01*
X215980314Y-56912050D01*
X200740314Y-56912050D01*
X200740314Y-41672050D01*
G37*
X200740314Y-79772178D02*
X215980314Y-79772178D01*
X215980314Y-79772178D02*
X215980314Y-95012178D01*
X215980314Y-95012178D02*
X200740314Y-95012178D01*
X200740314Y-95012178D02*
X200740314Y-79772178D01*
G36*
X200740314Y-79772178D02*
G01*
X215980314Y-79772178D01*
X215980314Y-95012178D01*
X200740314Y-95012178D01*
X200740314Y-79772178D01*
G37*
X200740314Y-117872338D02*
X215980314Y-117872338D01*
X215980314Y-117872338D02*
X215980314Y-133112338D01*
X215980314Y-133112338D02*
X200740314Y-133112338D01*
X200740314Y-133112338D02*
X200740314Y-117872338D01*
G36*
X200740314Y-117872338D02*
G01*
X215980314Y-117872338D01*
X215980314Y-133112338D01*
X200740314Y-133112338D01*
X200740314Y-117872338D01*
G37*
X67389722Y-41672082D02*
X82629722Y-41672082D01*
X82629722Y-41672082D02*
X82629722Y-56912082D01*
X82629722Y-56912082D02*
X67389722Y-56912082D01*
X67389722Y-56912082D02*
X67389722Y-41672082D01*
G36*
X67389722Y-41672082D02*
G01*
X82629722Y-41672082D01*
X82629722Y-56912082D01*
X67389722Y-56912082D01*
X67389722Y-41672082D01*
G37*
X29289562Y-79772210D02*
X44529562Y-79772210D01*
X44529562Y-79772210D02*
X44529562Y-95012210D01*
X44529562Y-95012210D02*
X29289562Y-95012210D01*
X29289562Y-95012210D02*
X29289562Y-79772210D01*
G36*
X29289562Y-79772210D02*
G01*
X44529562Y-79772210D01*
X44529562Y-95012210D01*
X29289562Y-95012210D01*
X29289562Y-79772210D01*
G37*
X67389722Y-60722130D02*
X82629722Y-60722130D01*
X82629722Y-60722130D02*
X82629722Y-75962130D01*
X82629722Y-75962130D02*
X67389722Y-75962130D01*
X67389722Y-75962130D02*
X67389722Y-60722130D01*
G36*
X67389722Y-60722130D02*
G01*
X82629722Y-60722130D01*
X82629722Y-75962130D01*
X67389722Y-75962130D01*
X67389722Y-60722130D01*
G37*
X86439834Y-79772178D02*
X101679834Y-79772178D01*
X101679834Y-79772178D02*
X101679834Y-95012178D01*
X101679834Y-95012178D02*
X86439834Y-95012178D01*
X86439834Y-95012178D02*
X86439834Y-79772178D01*
G36*
X86439834Y-79772178D02*
G01*
X101679834Y-79772178D01*
X101679834Y-95012178D01*
X86439834Y-95012178D01*
X86439834Y-79772178D01*
G37*
X10239450Y-41672050D02*
X25479450Y-41672050D01*
X25479450Y-41672050D02*
X25479450Y-56912050D01*
X25479450Y-56912050D02*
X10239450Y-56912050D01*
X10239450Y-56912050D02*
X10239450Y-41672050D01*
G36*
X10239450Y-41672050D02*
G01*
X25479450Y-41672050D01*
X25479450Y-56912050D01*
X10239450Y-56912050D01*
X10239450Y-41672050D01*
G37*
X48339674Y-79772178D02*
X63579674Y-79772178D01*
X63579674Y-79772178D02*
X63579674Y-95012178D01*
X63579674Y-95012178D02*
X48339674Y-95012178D01*
X48339674Y-95012178D02*
X48339674Y-79772178D01*
G36*
X48339674Y-79772178D02*
G01*
X63579674Y-79772178D01*
X63579674Y-95012178D01*
X48339674Y-95012178D01*
X48339674Y-79772178D01*
G37*
X181690202Y-98822226D02*
X196930202Y-98822226D01*
X196930202Y-98822226D02*
X196930202Y-114062226D01*
X196930202Y-114062226D02*
X181690202Y-114062226D01*
X181690202Y-114062226D02*
X181690202Y-98822226D01*
G36*
X181690202Y-98822226D02*
G01*
X196930202Y-98822226D01*
X196930202Y-114062226D01*
X181690202Y-114062226D01*
X181690202Y-98822226D01*
G37*
X86439834Y-60722098D02*
X101679834Y-60722098D01*
X101679834Y-60722098D02*
X101679834Y-75962098D01*
X101679834Y-75962098D02*
X86439834Y-75962098D01*
X86439834Y-75962098D02*
X86439834Y-60722098D01*
G36*
X86439834Y-60722098D02*
G01*
X101679834Y-60722098D01*
X101679834Y-75962098D01*
X86439834Y-75962098D01*
X86439834Y-60722098D01*
G37*
X10239450Y-98822258D02*
X25479450Y-98822258D01*
X25479450Y-98822258D02*
X25479450Y-114062258D01*
X25479450Y-114062258D02*
X10239450Y-114062258D01*
X10239450Y-114062258D02*
X10239450Y-98822258D01*
G36*
X10239450Y-98822258D02*
G01*
X25479450Y-98822258D01*
X25479450Y-114062258D01*
X10239450Y-114062258D01*
X10239450Y-98822258D01*
G37*
X29289562Y-60722130D02*
X44529562Y-60722130D01*
X44529562Y-60722130D02*
X44529562Y-75962130D01*
X44529562Y-75962130D02*
X29289562Y-75962130D01*
X29289562Y-75962130D02*
X29289562Y-60722130D01*
G36*
X29289562Y-60722130D02*
G01*
X44529562Y-60722130D01*
X44529562Y-75962130D01*
X29289562Y-75962130D01*
X29289562Y-60722130D01*
G37*
X219790426Y-60722066D02*
X235030426Y-60722066D01*
X235030426Y-60722066D02*
X235030426Y-75962066D01*
X235030426Y-75962066D02*
X219790426Y-75962066D01*
X219790426Y-75962066D02*
X219790426Y-60722066D01*
G36*
X219790426Y-60722066D02*
G01*
X235030426Y-60722066D01*
X235030426Y-75962066D01*
X219790426Y-75962066D01*
X219790426Y-60722066D01*
G37*
X10239450Y-79772178D02*
X25479450Y-79772178D01*
X25479450Y-79772178D02*
X25479450Y-95012178D01*
X25479450Y-95012178D02*
X10239450Y-95012178D01*
X10239450Y-95012178D02*
X10239450Y-79772178D01*
G36*
X10239450Y-79772178D02*
G01*
X25479450Y-79772178D01*
X25479450Y-95012178D01*
X10239450Y-95012178D01*
X10239450Y-79772178D01*
G37*
X86439834Y-41672050D02*
X101679834Y-41672050D01*
X101679834Y-41672050D02*
X101679834Y-56912050D01*
X101679834Y-56912050D02*
X86439834Y-56912050D01*
X86439834Y-56912050D02*
X86439834Y-41672050D01*
G36*
X86439834Y-41672050D02*
G01*
X101679834Y-41672050D01*
X101679834Y-56912050D01*
X86439834Y-56912050D01*
X86439834Y-41672050D01*
G37*
X162640090Y-60722098D02*
X177880090Y-60722098D01*
X177880090Y-60722098D02*
X177880090Y-75962098D01*
X177880090Y-75962098D02*
X162640090Y-75962098D01*
X162640090Y-75962098D02*
X162640090Y-60722098D01*
G36*
X162640090Y-60722098D02*
G01*
X177880090Y-60722098D01*
X177880090Y-75962098D01*
X162640090Y-75962098D01*
X162640090Y-60722098D01*
G37*
X-8810662Y-79772210D02*
X6429338Y-79772210D01*
X6429338Y-79772210D02*
X6429338Y-95012210D01*
X6429338Y-95012210D02*
X-8810662Y-95012210D01*
X-8810662Y-95012210D02*
X-8810662Y-79772210D01*
G36*
X-8810662Y-79772210D02*
G01*
X6429338Y-79772210D01*
X6429338Y-95012210D01*
X-8810662Y-95012210D01*
X-8810662Y-79772210D01*
G37*
X219790426Y-117872306D02*
X235030426Y-117872306D01*
X235030426Y-117872306D02*
X235030426Y-133112306D01*
X235030426Y-133112306D02*
X219790426Y-133112306D01*
X219790426Y-133112306D02*
X219790426Y-117872306D01*
G36*
X219790426Y-117872306D02*
G01*
X235030426Y-117872306D01*
X235030426Y-133112306D01*
X219790426Y-133112306D01*
X219790426Y-117872306D01*
G37*
X257890586Y-79772146D02*
X273130586Y-79772146D01*
X273130586Y-79772146D02*
X273130586Y-95012146D01*
X273130586Y-95012146D02*
X257890586Y-95012146D01*
X257890586Y-95012146D02*
X257890586Y-79772146D01*
G36*
X257890586Y-79772146D02*
G01*
X273130586Y-79772146D01*
X273130586Y-95012146D01*
X257890586Y-95012146D01*
X257890586Y-79772146D01*
G37*
X238840474Y-117872338D02*
X254080474Y-117872338D01*
X254080474Y-117872338D02*
X254080474Y-133112338D01*
X254080474Y-133112338D02*
X238840474Y-133112338D01*
X238840474Y-133112338D02*
X238840474Y-117872338D01*
G36*
X238840474Y-117872338D02*
G01*
X254080474Y-117872338D01*
X254080474Y-133112338D01*
X238840474Y-133112338D01*
X238840474Y-117872338D01*
G37*
X10239450Y-60722098D02*
X25479450Y-60722098D01*
X25479450Y-60722098D02*
X25479450Y-75962098D01*
X25479450Y-75962098D02*
X10239450Y-75962098D01*
X10239450Y-75962098D02*
X10239450Y-60722098D01*
G36*
X10239450Y-60722098D02*
G01*
X25479450Y-60722098D01*
X25479450Y-75962098D01*
X10239450Y-75962098D01*
X10239450Y-60722098D01*
G37*
X48339674Y-60722098D02*
X63579674Y-60722098D01*
X63579674Y-60722098D02*
X63579674Y-75962098D01*
X63579674Y-75962098D02*
X48339674Y-75962098D01*
X48339674Y-75962098D02*
X48339674Y-60722098D01*
G36*
X48339674Y-60722098D02*
G01*
X63579674Y-60722098D01*
X63579674Y-75962098D01*
X48339674Y-75962098D01*
X48339674Y-60722098D01*
G37*
X257890586Y-117872306D02*
X273130586Y-117872306D01*
X273130586Y-117872306D02*
X273130586Y-133112306D01*
X273130586Y-133112306D02*
X257890586Y-133112306D01*
X257890586Y-133112306D02*
X257890586Y-117872306D01*
G36*
X257890586Y-117872306D02*
G01*
X273130586Y-117872306D01*
X273130586Y-133112306D01*
X257890586Y-133112306D01*
X257890586Y-117872306D01*
G37*
M02*
