G04 #@! TF.GenerationSoftware,KiCad,Pcbnew,(6.0.0-0)*
G04 #@! TF.CreationDate,2022-01-06T10:30:17+01:00*
G04 #@! TF.ProjectId,lumberjack-split,6c756d62-6572-46a6-9163-6b2d73706c69,rev?*
G04 #@! TF.SameCoordinates,Original*
G04 #@! TF.FileFunction,Copper,L1,Top*
G04 #@! TF.FilePolarity,Positive*
%FSLAX46Y46*%
G04 Gerber Fmt 4.6, Leading zero omitted, Abs format (unit mm)*
G04 Created by KiCad (PCBNEW (6.0.0-0)) date 2022-01-06 10:30:17*
%MOMM*%
%LPD*%
G01*
G04 APERTURE LIST*
G04 #@! TA.AperFunction,ViaPad*
%ADD10C,0.600000*%
G04 #@! TD*
G04 APERTURE END LIST*
D10*
X121500000Y-69100000D03*
G04 #@! TA.AperFunction,NonConductor*
G36*
X214900197Y-50057183D02*
G01*
X214907993Y-50060412D01*
X214910142Y-50059522D01*
X214910144Y-50059522D01*
X214913921Y-50057957D01*
X214919233Y-50057096D01*
X215154206Y-50073901D01*
X215155857Y-50074138D01*
X215396250Y-50126433D01*
X215397853Y-50126904D01*
X215628346Y-50212873D01*
X215629861Y-50213565D01*
X215845779Y-50331465D01*
X215847184Y-50332368D01*
X216044124Y-50479796D01*
X216045385Y-50480889D01*
X216219335Y-50654839D01*
X216220428Y-50656100D01*
X216367856Y-50853040D01*
X216368759Y-50854445D01*
X216486659Y-51070363D01*
X216487352Y-51071881D01*
X216573320Y-51302372D01*
X216573791Y-51303974D01*
X216626086Y-51544367D01*
X216626323Y-51546019D01*
X216643128Y-51780990D01*
X216642267Y-51786303D01*
X216640702Y-51790080D01*
X216640702Y-51790082D01*
X216639812Y-51792231D01*
X216640703Y-51794382D01*
X216643041Y-51800027D01*
X216643932Y-51804504D01*
X216643932Y-104713388D01*
X216640505Y-104721661D01*
X216632232Y-104725088D01*
X214374379Y-104725088D01*
X214366106Y-104721661D01*
X214362679Y-104713388D01*
X214362530Y-92857732D01*
X214362500Y-90499773D01*
X214363391Y-90495295D01*
X214365729Y-90489651D01*
X214366620Y-90487500D01*
X214350769Y-90449231D01*
X214348618Y-90448340D01*
X214322450Y-90437501D01*
X214322449Y-90437501D01*
X214322447Y-90437500D01*
X214322446Y-90437500D01*
X214312499Y-90433380D01*
X214310348Y-90434271D01*
X214304703Y-90436609D01*
X214300226Y-90437500D01*
X200037273Y-90437500D01*
X200032796Y-90436609D01*
X200027151Y-90434271D01*
X200025000Y-90433380D01*
X200015053Y-90437500D01*
X199986731Y-90449231D01*
X199970880Y-90487500D01*
X199971771Y-90489651D01*
X199974109Y-90495296D01*
X199975000Y-90499773D01*
X199975000Y-104762815D01*
X199974109Y-104767292D01*
X199970880Y-104775088D01*
X199986731Y-104813357D01*
X200015053Y-104825088D01*
X200015197Y-104825088D01*
X200015458Y-104825167D01*
X200025000Y-104829120D01*
X200027151Y-104828229D01*
X200032583Y-104825979D01*
X200037060Y-104825088D01*
X210083789Y-104825088D01*
X210092062Y-104828515D01*
X210095489Y-104836788D01*
X210095489Y-109475800D01*
X210092062Y-109484073D01*
X210083789Y-109487500D01*
X200037273Y-109487500D01*
X200032796Y-109486609D01*
X200027151Y-109484271D01*
X200025000Y-109483380D01*
X200015053Y-109487500D01*
X199986731Y-109499231D01*
X199970880Y-109537500D01*
X199971771Y-109539651D01*
X199974109Y-109545296D01*
X199975000Y-109549773D01*
X199975000Y-123812727D01*
X199974109Y-123817204D01*
X199970880Y-123825000D01*
X199975000Y-123834946D01*
X199975000Y-123834947D01*
X199986731Y-123863269D01*
X200025000Y-123879120D01*
X200027151Y-123878229D01*
X200032796Y-123875891D01*
X200037273Y-123875000D01*
X214300226Y-123875000D01*
X214304703Y-123875891D01*
X214312499Y-123879120D01*
X214322446Y-123875000D01*
X214322447Y-123875000D01*
X214322449Y-123874999D01*
X214322450Y-123874999D01*
X214348618Y-123864160D01*
X214350769Y-123863269D01*
X214366620Y-123825000D01*
X214363391Y-123817204D01*
X214362500Y-123812727D01*
X214362501Y-123775000D01*
X214362679Y-109599292D01*
X214366106Y-109591019D01*
X214374379Y-109587592D01*
X216632232Y-109587592D01*
X216640505Y-109591019D01*
X216643932Y-109599292D01*
X216643932Y-143458160D01*
X216643041Y-143462637D01*
X216639812Y-143470433D01*
X216640702Y-143472582D01*
X216640702Y-143472584D01*
X216642267Y-143476361D01*
X216643128Y-143481674D01*
X216626323Y-143716645D01*
X216626086Y-143718297D01*
X216573791Y-143958690D01*
X216573320Y-143960292D01*
X216487352Y-144190783D01*
X216486659Y-144192301D01*
X216368759Y-144408219D01*
X216367856Y-144409624D01*
X216220428Y-144606564D01*
X216219335Y-144607825D01*
X216045385Y-144781775D01*
X216044124Y-144782868D01*
X215847184Y-144930296D01*
X215845779Y-144931199D01*
X215629861Y-145049099D01*
X215628346Y-145049791D01*
X215590748Y-145063814D01*
X215397852Y-145135760D01*
X215396250Y-145136231D01*
X215155857Y-145188526D01*
X215154206Y-145188763D01*
X214919233Y-145205568D01*
X214913921Y-145204707D01*
X214910144Y-145203142D01*
X214910142Y-145203142D01*
X214907993Y-145202252D01*
X214905842Y-145203143D01*
X214900197Y-145205481D01*
X214895720Y-145206372D01*
X102455536Y-145206372D01*
X102447263Y-145202945D01*
X102443836Y-145194672D01*
X102443836Y-142875000D01*
X104720880Y-142875000D01*
X104725000Y-142884947D01*
X104736731Y-142913269D01*
X104775000Y-142929120D01*
X104777151Y-142928229D01*
X104782796Y-142925891D01*
X104787273Y-142925000D01*
X138100227Y-142925000D01*
X138104704Y-142925891D01*
X138112500Y-142929120D01*
X138114651Y-142928229D01*
X138148618Y-142914160D01*
X138150769Y-142913269D01*
X138162500Y-142884947D01*
X138166620Y-142875000D01*
X142820880Y-142875000D01*
X142825000Y-142884947D01*
X142836731Y-142913269D01*
X142875000Y-142929120D01*
X142877151Y-142928229D01*
X142882796Y-142925891D01*
X142887273Y-142925000D01*
X157150227Y-142925000D01*
X157154704Y-142925891D01*
X157162500Y-142929120D01*
X157164651Y-142928229D01*
X157198618Y-142914160D01*
X157200769Y-142913269D01*
X157212500Y-142884947D01*
X157216620Y-142875000D01*
X161870880Y-142875000D01*
X161875000Y-142884947D01*
X161886731Y-142913269D01*
X161925000Y-142929120D01*
X161927151Y-142928229D01*
X161932796Y-142925891D01*
X161937273Y-142925000D01*
X176200227Y-142925000D01*
X176204704Y-142925891D01*
X176212500Y-142929120D01*
X176214651Y-142928229D01*
X176248618Y-142914160D01*
X176250769Y-142913269D01*
X176262500Y-142884947D01*
X176266620Y-142875000D01*
X180920880Y-142875000D01*
X180925000Y-142884947D01*
X180936731Y-142913269D01*
X180975000Y-142929120D01*
X180977151Y-142928229D01*
X180982796Y-142925891D01*
X180987273Y-142925000D01*
X195250227Y-142925000D01*
X195254704Y-142925891D01*
X195262500Y-142929120D01*
X195264651Y-142928229D01*
X195298618Y-142914160D01*
X195300769Y-142913269D01*
X195312500Y-142884947D01*
X195316620Y-142875000D01*
X199970880Y-142875000D01*
X199975000Y-142884947D01*
X199986731Y-142913269D01*
X200025000Y-142929120D01*
X200027151Y-142928229D01*
X200032796Y-142925891D01*
X200037273Y-142925000D01*
X214300227Y-142925000D01*
X214304704Y-142925891D01*
X214312500Y-142929120D01*
X214314651Y-142928229D01*
X214348618Y-142914160D01*
X214350769Y-142913269D01*
X214362500Y-142884947D01*
X214366620Y-142875000D01*
X214363391Y-142867204D01*
X214362500Y-142862727D01*
X214362500Y-128599773D01*
X214363391Y-128595296D01*
X214365729Y-128589651D01*
X214366620Y-128587500D01*
X214350769Y-128549231D01*
X214322447Y-128537500D01*
X214312500Y-128533380D01*
X214310349Y-128534271D01*
X214304704Y-128536609D01*
X214300227Y-128537500D01*
X200037273Y-128537500D01*
X200032796Y-128536609D01*
X200027151Y-128534271D01*
X200025000Y-128533380D01*
X200015053Y-128537500D01*
X199986731Y-128549231D01*
X199970880Y-128587500D01*
X199971771Y-128589651D01*
X199974109Y-128595296D01*
X199975000Y-128599773D01*
X199975000Y-142862727D01*
X199974109Y-142867204D01*
X199970880Y-142875000D01*
X195316620Y-142875000D01*
X195313391Y-142867204D01*
X195312500Y-142862727D01*
X195312500Y-128599773D01*
X195313391Y-128595296D01*
X195315729Y-128589651D01*
X195316620Y-128587500D01*
X195300769Y-128549231D01*
X195272447Y-128537500D01*
X195262500Y-128533380D01*
X195260349Y-128534271D01*
X195254704Y-128536609D01*
X195250227Y-128537500D01*
X180987273Y-128537500D01*
X180982796Y-128536609D01*
X180977151Y-128534271D01*
X180975000Y-128533380D01*
X180965053Y-128537500D01*
X180936731Y-128549231D01*
X180920880Y-128587500D01*
X180921771Y-128589651D01*
X180924109Y-128595296D01*
X180925000Y-128599773D01*
X180925000Y-142862727D01*
X180924109Y-142867204D01*
X180920880Y-142875000D01*
X176266620Y-142875000D01*
X176263391Y-142867204D01*
X176262500Y-142862727D01*
X176262500Y-128599773D01*
X176263391Y-128595296D01*
X176265729Y-128589651D01*
X176266620Y-128587500D01*
X176250769Y-128549231D01*
X176222447Y-128537500D01*
X176212500Y-128533380D01*
X176210349Y-128534271D01*
X176204704Y-128536609D01*
X176200227Y-128537500D01*
X161937273Y-128537500D01*
X161932796Y-128536609D01*
X161927151Y-128534271D01*
X161925000Y-128533380D01*
X161915053Y-128537500D01*
X161886731Y-128549231D01*
X161870880Y-128587500D01*
X161871771Y-128589651D01*
X161874109Y-128595296D01*
X161875000Y-128599773D01*
X161875000Y-142862727D01*
X161874109Y-142867204D01*
X161870880Y-142875000D01*
X157216620Y-142875000D01*
X157213391Y-142867204D01*
X157212500Y-142862727D01*
X157212500Y-128599773D01*
X157213391Y-128595296D01*
X157215729Y-128589651D01*
X157216620Y-128587500D01*
X157200769Y-128549231D01*
X157172447Y-128537500D01*
X157162500Y-128533380D01*
X157160349Y-128534271D01*
X157154704Y-128536609D01*
X157150227Y-128537500D01*
X142887273Y-128537500D01*
X142882796Y-128536609D01*
X142877151Y-128534271D01*
X142875000Y-128533380D01*
X142865053Y-128537500D01*
X142836731Y-128549231D01*
X142820880Y-128587500D01*
X142821771Y-128589651D01*
X142824109Y-128595296D01*
X142825000Y-128599773D01*
X142825000Y-142862727D01*
X142824109Y-142867204D01*
X142820880Y-142875000D01*
X138166620Y-142875000D01*
X138163391Y-142867204D01*
X138162500Y-142862727D01*
X138162616Y-128599881D01*
X138163507Y-128595404D01*
X138165845Y-128589759D01*
X138166736Y-128587608D01*
X138150885Y-128549339D01*
X138122563Y-128537608D01*
X138112616Y-128533488D01*
X138110465Y-128534379D01*
X138104820Y-128536717D01*
X138100343Y-128537608D01*
X135793064Y-128537608D01*
X135784791Y-128534181D01*
X135781364Y-128525908D01*
X135781364Y-127409255D01*
X135782255Y-127404778D01*
X135784593Y-127399133D01*
X135785484Y-127396982D01*
X135769633Y-127358713D01*
X135741311Y-127346982D01*
X135731364Y-127342862D01*
X135729213Y-127343753D01*
X135723568Y-127346091D01*
X135719091Y-127346982D01*
X130981133Y-127346982D01*
X130976656Y-127346091D01*
X130971011Y-127343753D01*
X130968860Y-127342862D01*
X130958913Y-127346982D01*
X130930591Y-127358713D01*
X130914740Y-127396982D01*
X130915631Y-127399133D01*
X130917969Y-127404778D01*
X130918860Y-127409255D01*
X130918860Y-128525908D01*
X130915433Y-128534181D01*
X130907160Y-128537608D01*
X111980544Y-128537608D01*
X111972271Y-128534181D01*
X111968844Y-128525908D01*
X111968844Y-127409255D01*
X111969735Y-127404778D01*
X111972073Y-127399133D01*
X111972964Y-127396982D01*
X111957113Y-127358713D01*
X111928791Y-127346982D01*
X111918844Y-127342862D01*
X111916693Y-127343753D01*
X111911048Y-127346091D01*
X111906571Y-127346982D01*
X107168613Y-127346982D01*
X107164136Y-127346091D01*
X107158491Y-127343753D01*
X107156340Y-127342862D01*
X107146393Y-127346982D01*
X107118071Y-127358713D01*
X107102220Y-127396982D01*
X107103111Y-127399133D01*
X107105449Y-127404778D01*
X107106340Y-127409255D01*
X107106340Y-128525904D01*
X107102913Y-128534177D01*
X107094639Y-128537604D01*
X104787274Y-128537501D01*
X104782798Y-128536610D01*
X104777151Y-128534271D01*
X104775000Y-128533380D01*
X104753682Y-128542210D01*
X104738880Y-128548340D01*
X104736733Y-128549229D01*
X104736731Y-128549231D01*
X104727173Y-128572306D01*
X104720880Y-128587498D01*
X104721770Y-128589647D01*
X104721770Y-128589648D01*
X104724110Y-128595297D01*
X104725000Y-128599774D01*
X104725000Y-142862727D01*
X104724109Y-142867204D01*
X104720880Y-142875000D01*
X102443836Y-142875000D01*
X102443836Y-123825000D01*
X104720880Y-123825000D01*
X104725000Y-123834946D01*
X104725000Y-123834947D01*
X104736731Y-123863269D01*
X104775000Y-123879120D01*
X104777151Y-123878229D01*
X104782796Y-123875891D01*
X104787273Y-123875000D01*
X119050227Y-123875000D01*
X119054704Y-123875891D01*
X119062500Y-123879120D01*
X119064651Y-123878229D01*
X119098618Y-123864160D01*
X119100769Y-123863269D01*
X119112500Y-123834947D01*
X119112500Y-123834946D01*
X119116620Y-123825000D01*
X123770880Y-123825000D01*
X123775000Y-123834946D01*
X123775000Y-123834947D01*
X123786731Y-123863269D01*
X123825000Y-123879120D01*
X123827151Y-123878229D01*
X123832796Y-123875891D01*
X123837273Y-123875000D01*
X138100227Y-123875000D01*
X138104704Y-123875891D01*
X138112500Y-123879120D01*
X138114651Y-123878229D01*
X138148618Y-123864160D01*
X138150769Y-123863269D01*
X138162500Y-123834947D01*
X138162500Y-123834946D01*
X138166620Y-123825000D01*
X142820880Y-123825000D01*
X142825000Y-123834946D01*
X142825000Y-123834947D01*
X142836731Y-123863269D01*
X142875000Y-123879120D01*
X142877151Y-123878229D01*
X142882796Y-123875891D01*
X142887273Y-123875000D01*
X157150227Y-123875000D01*
X157154704Y-123875891D01*
X157162500Y-123879120D01*
X157164651Y-123878229D01*
X157198618Y-123864160D01*
X157200769Y-123863269D01*
X157212500Y-123834947D01*
X157212500Y-123834946D01*
X157216620Y-123825000D01*
X161870880Y-123825000D01*
X161875000Y-123834946D01*
X161875000Y-123834947D01*
X161886731Y-123863269D01*
X161925000Y-123879120D01*
X161927151Y-123878229D01*
X161932796Y-123875891D01*
X161937273Y-123875000D01*
X176200227Y-123875000D01*
X176204704Y-123875891D01*
X176212500Y-123879120D01*
X176214651Y-123878229D01*
X176248618Y-123864160D01*
X176250769Y-123863269D01*
X176262500Y-123834947D01*
X176262500Y-123834946D01*
X176266620Y-123825000D01*
X180920880Y-123825000D01*
X180925000Y-123834946D01*
X180925000Y-123834947D01*
X180936731Y-123863269D01*
X180975000Y-123879120D01*
X180977151Y-123878229D01*
X180982796Y-123875891D01*
X180987273Y-123875000D01*
X195250227Y-123875000D01*
X195254704Y-123875891D01*
X195262500Y-123879120D01*
X195264651Y-123878229D01*
X195298618Y-123864160D01*
X195300769Y-123863269D01*
X195312500Y-123834947D01*
X195312500Y-123834946D01*
X195316620Y-123825000D01*
X195313391Y-123817204D01*
X195312500Y-123812727D01*
X195312500Y-109549773D01*
X195313391Y-109545296D01*
X195315729Y-109539651D01*
X195316620Y-109537500D01*
X195300769Y-109499231D01*
X195272447Y-109487500D01*
X195262500Y-109483380D01*
X195260349Y-109484271D01*
X195254704Y-109486609D01*
X195250227Y-109487500D01*
X180987273Y-109487500D01*
X180982796Y-109486609D01*
X180977151Y-109484271D01*
X180975000Y-109483380D01*
X180965053Y-109487500D01*
X180936731Y-109499231D01*
X180920880Y-109537500D01*
X180921771Y-109539651D01*
X180924109Y-109545296D01*
X180925000Y-109549773D01*
X180925000Y-123812727D01*
X180924109Y-123817204D01*
X180920880Y-123825000D01*
X176266620Y-123825000D01*
X176263391Y-123817204D01*
X176262500Y-123812727D01*
X176262500Y-109549773D01*
X176263391Y-109545296D01*
X176265729Y-109539651D01*
X176266620Y-109537500D01*
X176250769Y-109499231D01*
X176222447Y-109487500D01*
X176212500Y-109483380D01*
X176210349Y-109484271D01*
X176204704Y-109486609D01*
X176200227Y-109487500D01*
X161937273Y-109487500D01*
X161932796Y-109486609D01*
X161927151Y-109484271D01*
X161925000Y-109483380D01*
X161915053Y-109487500D01*
X161886731Y-109499231D01*
X161870880Y-109537500D01*
X161871771Y-109539651D01*
X161874109Y-109545296D01*
X161875000Y-109549773D01*
X161875000Y-123812727D01*
X161874109Y-123817204D01*
X161870880Y-123825000D01*
X157216620Y-123825000D01*
X157213391Y-123817204D01*
X157212500Y-123812727D01*
X157212500Y-109549773D01*
X157213391Y-109545296D01*
X157215729Y-109539651D01*
X157216620Y-109537500D01*
X157200769Y-109499231D01*
X157172447Y-109487500D01*
X157162500Y-109483380D01*
X157160349Y-109484271D01*
X157154704Y-109486609D01*
X157150227Y-109487500D01*
X142887273Y-109487500D01*
X142882796Y-109486609D01*
X142877151Y-109484271D01*
X142875000Y-109483380D01*
X142865053Y-109487500D01*
X142836731Y-109499231D01*
X142820880Y-109537500D01*
X142821771Y-109539651D01*
X142824109Y-109545296D01*
X142825000Y-109549773D01*
X142825000Y-123812727D01*
X142824109Y-123817204D01*
X142820880Y-123825000D01*
X138166620Y-123825000D01*
X138163391Y-123817204D01*
X138162500Y-123812727D01*
X138162500Y-109549773D01*
X138163391Y-109545296D01*
X138165729Y-109539651D01*
X138166620Y-109537500D01*
X138150769Y-109499231D01*
X138122447Y-109487500D01*
X138112500Y-109483380D01*
X138110349Y-109484271D01*
X138104704Y-109486609D01*
X138100227Y-109487500D01*
X123837273Y-109487500D01*
X123832796Y-109486609D01*
X123827151Y-109484271D01*
X123825000Y-109483380D01*
X123815053Y-109487500D01*
X123786731Y-109499231D01*
X123770880Y-109537500D01*
X123771771Y-109539651D01*
X123774109Y-109545296D01*
X123775000Y-109549773D01*
X123775000Y-123812727D01*
X123774109Y-123817204D01*
X123770880Y-123825000D01*
X119116620Y-123825000D01*
X119113391Y-123817204D01*
X119112500Y-123812727D01*
X119112500Y-109549773D01*
X119113391Y-109545296D01*
X119115729Y-109539651D01*
X119116620Y-109537500D01*
X119100769Y-109499231D01*
X119072447Y-109487500D01*
X119062500Y-109483380D01*
X119060349Y-109484271D01*
X119054704Y-109486609D01*
X119050227Y-109487500D01*
X104787273Y-109487500D01*
X104782796Y-109486609D01*
X104777151Y-109484271D01*
X104775000Y-109483380D01*
X104765053Y-109487500D01*
X104736731Y-109499231D01*
X104720880Y-109537500D01*
X104721771Y-109539651D01*
X104724109Y-109545296D01*
X104725000Y-109549773D01*
X104725000Y-123812727D01*
X104724109Y-123817204D01*
X104720880Y-123825000D01*
X102443836Y-123825000D01*
X102443836Y-104775000D01*
X104720880Y-104775000D01*
X104725000Y-104784947D01*
X104736731Y-104813269D01*
X104738882Y-104814160D01*
X104755866Y-104821195D01*
X104775000Y-104829120D01*
X104777151Y-104828229D01*
X104782796Y-104825891D01*
X104787273Y-104825000D01*
X119050227Y-104825000D01*
X119054704Y-104825891D01*
X119057526Y-104827060D01*
X119062500Y-104829120D01*
X119064651Y-104828229D01*
X119098618Y-104814160D01*
X119100769Y-104813269D01*
X119112500Y-104784947D01*
X119116620Y-104775000D01*
X123770880Y-104775000D01*
X123775000Y-104784947D01*
X123786731Y-104813269D01*
X123788882Y-104814160D01*
X123805866Y-104821195D01*
X123825000Y-104829120D01*
X123827151Y-104828229D01*
X123832796Y-104825891D01*
X123837273Y-104825000D01*
X138100227Y-104825000D01*
X138104704Y-104825891D01*
X138107526Y-104827060D01*
X138112500Y-104829120D01*
X138114651Y-104828229D01*
X138148618Y-104814160D01*
X138150769Y-104813269D01*
X138162500Y-104784947D01*
X138166620Y-104775000D01*
X142820880Y-104775000D01*
X142825000Y-104784947D01*
X142836731Y-104813269D01*
X142838882Y-104814160D01*
X142855866Y-104821195D01*
X142875000Y-104829120D01*
X142877151Y-104828229D01*
X142882796Y-104825891D01*
X142887273Y-104825000D01*
X157150227Y-104825000D01*
X157154704Y-104825891D01*
X157157526Y-104827060D01*
X157162500Y-104829120D01*
X157164651Y-104828229D01*
X157198618Y-104814160D01*
X157200769Y-104813269D01*
X157212500Y-104784947D01*
X157216620Y-104775000D01*
X161870880Y-104775000D01*
X161875000Y-104784947D01*
X161886731Y-104813269D01*
X161888882Y-104814160D01*
X161905866Y-104821195D01*
X161925000Y-104829120D01*
X161927151Y-104828229D01*
X161932796Y-104825891D01*
X161937273Y-104825000D01*
X176200227Y-104825000D01*
X176204704Y-104825891D01*
X176207526Y-104827060D01*
X176212500Y-104829120D01*
X176214651Y-104828229D01*
X176248618Y-104814160D01*
X176250769Y-104813269D01*
X176262500Y-104784947D01*
X176266620Y-104775000D01*
X180920880Y-104775000D01*
X180925000Y-104784947D01*
X180936731Y-104813269D01*
X180938882Y-104814160D01*
X180955866Y-104821195D01*
X180975000Y-104829120D01*
X180977151Y-104828229D01*
X180982796Y-104825891D01*
X180987273Y-104825000D01*
X195250227Y-104825000D01*
X195254704Y-104825891D01*
X195257526Y-104827060D01*
X195262500Y-104829120D01*
X195264651Y-104828229D01*
X195298618Y-104814160D01*
X195300769Y-104813269D01*
X195312500Y-104784947D01*
X195316620Y-104775000D01*
X195313391Y-104767204D01*
X195312500Y-104762727D01*
X195312500Y-90499773D01*
X195313391Y-90495296D01*
X195315729Y-90489651D01*
X195316620Y-90487500D01*
X195300769Y-90449231D01*
X195272447Y-90437500D01*
X195262500Y-90433380D01*
X195260349Y-90434271D01*
X195254704Y-90436609D01*
X195250227Y-90437500D01*
X180987273Y-90437500D01*
X180982796Y-90436609D01*
X180977151Y-90434271D01*
X180975000Y-90433380D01*
X180965053Y-90437500D01*
X180936731Y-90449231D01*
X180920880Y-90487500D01*
X180921771Y-90489651D01*
X180924109Y-90495296D01*
X180925000Y-90499773D01*
X180925000Y-104762727D01*
X180924109Y-104767204D01*
X180920880Y-104775000D01*
X176266620Y-104775000D01*
X176263391Y-104767204D01*
X176262500Y-104762727D01*
X176262500Y-90499773D01*
X176263391Y-90495296D01*
X176265729Y-90489651D01*
X176266620Y-90487500D01*
X176250769Y-90449231D01*
X176222447Y-90437500D01*
X176212500Y-90433380D01*
X176210349Y-90434271D01*
X176204704Y-90436609D01*
X176200227Y-90437500D01*
X161937273Y-90437500D01*
X161932796Y-90436609D01*
X161927151Y-90434271D01*
X161925000Y-90433380D01*
X161915053Y-90437500D01*
X161886731Y-90449231D01*
X161870880Y-90487500D01*
X161871771Y-90489651D01*
X161874109Y-90495296D01*
X161875000Y-90499773D01*
X161875000Y-104762727D01*
X161874109Y-104767204D01*
X161870880Y-104775000D01*
X157216620Y-104775000D01*
X157213391Y-104767204D01*
X157212500Y-104762727D01*
X157212500Y-90499773D01*
X157213391Y-90495296D01*
X157215729Y-90489651D01*
X157216620Y-90487500D01*
X157200769Y-90449231D01*
X157172447Y-90437500D01*
X157162500Y-90433380D01*
X157160349Y-90434271D01*
X157154704Y-90436609D01*
X157150227Y-90437500D01*
X142887273Y-90437500D01*
X142882796Y-90436609D01*
X142877151Y-90434271D01*
X142875000Y-90433380D01*
X142865053Y-90437500D01*
X142836731Y-90449231D01*
X142820880Y-90487500D01*
X142821771Y-90489651D01*
X142824109Y-90495296D01*
X142825000Y-90499773D01*
X142825000Y-104762727D01*
X142824109Y-104767204D01*
X142820880Y-104775000D01*
X138166620Y-104775000D01*
X138163391Y-104767204D01*
X138162500Y-104762727D01*
X138162500Y-90499773D01*
X138163391Y-90495296D01*
X138165729Y-90489651D01*
X138166620Y-90487500D01*
X138150769Y-90449231D01*
X138122447Y-90437500D01*
X138112500Y-90433380D01*
X138110349Y-90434271D01*
X138104704Y-90436609D01*
X138100227Y-90437500D01*
X123837273Y-90437500D01*
X123832796Y-90436609D01*
X123827151Y-90434271D01*
X123825000Y-90433380D01*
X123815053Y-90437500D01*
X123786731Y-90449231D01*
X123770880Y-90487500D01*
X123771771Y-90489651D01*
X123774109Y-90495296D01*
X123775000Y-90499773D01*
X123775000Y-104762727D01*
X123774109Y-104767204D01*
X123770880Y-104775000D01*
X119116620Y-104775000D01*
X119113391Y-104767204D01*
X119112500Y-104762727D01*
X119112500Y-90499773D01*
X119113391Y-90495296D01*
X119115729Y-90489651D01*
X119116620Y-90487500D01*
X119100769Y-90449231D01*
X119072447Y-90437500D01*
X119062500Y-90433380D01*
X119060349Y-90434271D01*
X119054704Y-90436609D01*
X119050227Y-90437500D01*
X104787273Y-90437500D01*
X104782796Y-90436609D01*
X104777151Y-90434271D01*
X104775000Y-90433380D01*
X104765053Y-90437500D01*
X104736731Y-90449231D01*
X104720880Y-90487500D01*
X104721771Y-90489651D01*
X104724109Y-90495296D01*
X104725000Y-90499773D01*
X104725000Y-104762727D01*
X104724109Y-104767204D01*
X104720880Y-104775000D01*
X102443836Y-104775000D01*
X102443836Y-85725000D01*
X104720880Y-85725000D01*
X104725000Y-85734947D01*
X104736731Y-85763269D01*
X104775000Y-85779120D01*
X104777151Y-85778229D01*
X104782796Y-85775891D01*
X104787273Y-85775000D01*
X119050227Y-85775000D01*
X119054704Y-85775891D01*
X119062500Y-85779120D01*
X119064651Y-85778229D01*
X119098618Y-85764160D01*
X119100769Y-85763269D01*
X119112500Y-85734947D01*
X119116620Y-85725000D01*
X123770880Y-85725000D01*
X123775000Y-85734947D01*
X123786731Y-85763269D01*
X123825000Y-85779120D01*
X123827151Y-85778229D01*
X123832796Y-85775891D01*
X123837273Y-85775000D01*
X138100227Y-85775000D01*
X138104704Y-85775891D01*
X138112500Y-85779120D01*
X138114651Y-85778229D01*
X138148618Y-85764160D01*
X138150769Y-85763269D01*
X138162500Y-85734947D01*
X138166620Y-85725000D01*
X142820880Y-85725000D01*
X142825000Y-85734947D01*
X142836731Y-85763269D01*
X142875000Y-85779120D01*
X142877151Y-85778229D01*
X142882796Y-85775891D01*
X142887273Y-85775000D01*
X157150227Y-85775000D01*
X157154704Y-85775891D01*
X157162500Y-85779120D01*
X157164651Y-85778229D01*
X157198618Y-85764160D01*
X157200769Y-85763269D01*
X157212500Y-85734947D01*
X157216620Y-85725000D01*
X161870880Y-85725000D01*
X161875000Y-85734947D01*
X161886731Y-85763269D01*
X161925000Y-85779120D01*
X161927151Y-85778229D01*
X161932796Y-85775891D01*
X161937273Y-85775000D01*
X176200227Y-85775000D01*
X176204704Y-85775891D01*
X176212500Y-85779120D01*
X176214651Y-85778229D01*
X176248618Y-85764160D01*
X176250769Y-85763269D01*
X176262500Y-85734947D01*
X176266620Y-85725000D01*
X180920880Y-85725000D01*
X180925000Y-85734947D01*
X180936731Y-85763269D01*
X180975000Y-85779120D01*
X180977151Y-85778229D01*
X180982796Y-85775891D01*
X180987273Y-85775000D01*
X195250227Y-85775000D01*
X195254704Y-85775891D01*
X195262500Y-85779120D01*
X195264651Y-85778229D01*
X195298618Y-85764160D01*
X195300769Y-85763269D01*
X195312500Y-85734947D01*
X195316620Y-85725000D01*
X199970880Y-85725000D01*
X199975000Y-85734947D01*
X199986731Y-85763269D01*
X200025000Y-85779120D01*
X200027151Y-85778229D01*
X200032796Y-85775891D01*
X200037273Y-85775000D01*
X214300227Y-85775000D01*
X214304704Y-85775891D01*
X214312500Y-85779120D01*
X214314651Y-85778229D01*
X214348618Y-85764160D01*
X214350769Y-85763269D01*
X214362500Y-85734947D01*
X214366620Y-85725000D01*
X214363391Y-85717204D01*
X214362500Y-85712727D01*
X214362500Y-71449773D01*
X214363391Y-71445296D01*
X214365729Y-71439651D01*
X214366620Y-71437500D01*
X214350769Y-71399231D01*
X214322447Y-71387500D01*
X214312500Y-71383380D01*
X214310349Y-71384271D01*
X214304704Y-71386609D01*
X214300227Y-71387500D01*
X200037273Y-71387500D01*
X200032796Y-71386609D01*
X200027151Y-71384271D01*
X200025000Y-71383380D01*
X200015053Y-71387500D01*
X199986731Y-71399231D01*
X199970880Y-71437500D01*
X199971771Y-71439651D01*
X199974109Y-71445296D01*
X199975000Y-71449773D01*
X199975000Y-85712727D01*
X199974109Y-85717204D01*
X199970880Y-85725000D01*
X195316620Y-85725000D01*
X195313391Y-85717204D01*
X195312500Y-85712727D01*
X195312500Y-71449773D01*
X195313391Y-71445296D01*
X195315729Y-71439651D01*
X195316620Y-71437500D01*
X195300769Y-71399231D01*
X195272447Y-71387500D01*
X195262500Y-71383380D01*
X195260349Y-71384271D01*
X195254704Y-71386609D01*
X195250227Y-71387500D01*
X180987273Y-71387500D01*
X180982796Y-71386609D01*
X180977151Y-71384271D01*
X180975000Y-71383380D01*
X180965053Y-71387500D01*
X180936731Y-71399231D01*
X180920880Y-71437500D01*
X180921771Y-71439651D01*
X180924109Y-71445296D01*
X180925000Y-71449773D01*
X180925000Y-85712727D01*
X180924109Y-85717204D01*
X180920880Y-85725000D01*
X176266620Y-85725000D01*
X176263391Y-85717204D01*
X176262500Y-85712727D01*
X176262500Y-71449773D01*
X176263391Y-71445296D01*
X176265729Y-71439651D01*
X176266620Y-71437500D01*
X176250769Y-71399231D01*
X176222447Y-71387500D01*
X176212500Y-71383380D01*
X176210349Y-71384271D01*
X176204704Y-71386609D01*
X176200227Y-71387500D01*
X161937273Y-71387500D01*
X161932796Y-71386609D01*
X161927151Y-71384271D01*
X161925000Y-71383380D01*
X161915053Y-71387500D01*
X161886731Y-71399231D01*
X161870880Y-71437500D01*
X161871771Y-71439651D01*
X161874109Y-71445296D01*
X161875000Y-71449773D01*
X161875000Y-85712727D01*
X161874109Y-85717204D01*
X161870880Y-85725000D01*
X157216620Y-85725000D01*
X157213391Y-85717204D01*
X157212500Y-85712727D01*
X157212500Y-71449773D01*
X157213391Y-71445296D01*
X157215729Y-71439651D01*
X157216620Y-71437500D01*
X157200769Y-71399231D01*
X157172447Y-71387500D01*
X157162500Y-71383380D01*
X157160349Y-71384271D01*
X157154704Y-71386609D01*
X157150227Y-71387500D01*
X142887273Y-71387500D01*
X142882796Y-71386609D01*
X142877151Y-71384271D01*
X142875000Y-71383380D01*
X142865053Y-71387500D01*
X142836731Y-71399231D01*
X142820880Y-71437500D01*
X142821771Y-71439651D01*
X142824109Y-71445296D01*
X142825000Y-71449773D01*
X142825000Y-85712727D01*
X142824109Y-85717204D01*
X142820880Y-85725000D01*
X138166620Y-85725000D01*
X138163391Y-85717204D01*
X138162500Y-85712727D01*
X138162500Y-71449773D01*
X138163391Y-71445296D01*
X138165729Y-71439651D01*
X138166620Y-71437500D01*
X138150769Y-71399231D01*
X138122447Y-71387500D01*
X138112500Y-71383380D01*
X138110349Y-71384271D01*
X138104704Y-71386609D01*
X138100227Y-71387500D01*
X123837273Y-71387500D01*
X123832796Y-71386609D01*
X123827151Y-71384271D01*
X123825000Y-71383380D01*
X123815053Y-71387500D01*
X123786731Y-71399231D01*
X123770880Y-71437500D01*
X123771771Y-71439651D01*
X123774109Y-71445296D01*
X123775000Y-71449773D01*
X123775000Y-85712727D01*
X123774109Y-85717204D01*
X123770880Y-85725000D01*
X119116620Y-85725000D01*
X119113391Y-85717204D01*
X119112500Y-85712727D01*
X119112500Y-71449773D01*
X119113391Y-71445296D01*
X119115729Y-71439651D01*
X119116620Y-71437500D01*
X119100769Y-71399231D01*
X119072447Y-71387500D01*
X119062500Y-71383380D01*
X119060349Y-71384271D01*
X119054704Y-71386609D01*
X119050227Y-71387500D01*
X104787273Y-71387500D01*
X104782796Y-71386609D01*
X104777151Y-71384271D01*
X104775000Y-71383380D01*
X104765053Y-71387500D01*
X104736731Y-71399231D01*
X104720880Y-71437500D01*
X104721771Y-71439651D01*
X104724109Y-71445296D01*
X104725000Y-71449773D01*
X104725000Y-85712727D01*
X104724109Y-85717204D01*
X104720880Y-85725000D01*
X102443836Y-85725000D01*
X102443836Y-69093823D01*
X120994391Y-69093823D01*
X121012980Y-69235979D01*
X121070720Y-69367203D01*
X121162970Y-69476948D01*
X121163663Y-69477410D01*
X121163665Y-69477411D01*
X121181793Y-69489478D01*
X121282313Y-69556390D01*
X121419157Y-69599142D01*
X121500378Y-69600631D01*
X121561668Y-69601755D01*
X121561670Y-69601755D01*
X121562499Y-69601770D01*
X121700817Y-69564060D01*
X121822991Y-69489045D01*
X121833522Y-69477411D01*
X121847444Y-69462029D01*
X121919200Y-69382754D01*
X121981710Y-69253733D01*
X121984569Y-69236743D01*
X122005422Y-69112794D01*
X122005496Y-69112354D01*
X122005647Y-69100000D01*
X122004763Y-69093823D01*
X121985441Y-68958907D01*
X121985323Y-68958082D01*
X121984978Y-68957323D01*
X121926330Y-68828332D01*
X121926328Y-68828330D01*
X121925984Y-68827572D01*
X121832400Y-68718963D01*
X121712095Y-68640985D01*
X121643417Y-68620446D01*
X121575539Y-68600146D01*
X121575537Y-68600146D01*
X121574739Y-68599907D01*
X121500565Y-68599454D01*
X121432208Y-68599036D01*
X121432207Y-68599036D01*
X121431376Y-68599031D01*
X121345516Y-68623570D01*
X121294326Y-68638200D01*
X121294325Y-68638201D01*
X121293529Y-68638428D01*
X121172280Y-68714930D01*
X121077377Y-68822388D01*
X121016447Y-68952163D01*
X120994391Y-69093823D01*
X102443836Y-69093823D01*
X102443836Y-66675000D01*
X104720880Y-66675000D01*
X104725000Y-66684947D01*
X104736731Y-66713269D01*
X104775000Y-66729120D01*
X104777151Y-66728229D01*
X104782796Y-66725891D01*
X104787273Y-66725000D01*
X119050227Y-66725000D01*
X119054704Y-66725891D01*
X119062500Y-66729120D01*
X119064651Y-66728229D01*
X119098618Y-66714160D01*
X119100769Y-66713269D01*
X119112500Y-66684947D01*
X119116620Y-66675000D01*
X123770880Y-66675000D01*
X123775000Y-66684947D01*
X123786731Y-66713269D01*
X123825000Y-66729120D01*
X123827151Y-66728229D01*
X123832796Y-66725891D01*
X123837273Y-66725000D01*
X138100227Y-66725000D01*
X138104704Y-66725891D01*
X138112500Y-66729120D01*
X138114651Y-66728229D01*
X138148618Y-66714160D01*
X138150769Y-66713269D01*
X138162500Y-66684947D01*
X138166620Y-66675000D01*
X142820880Y-66675000D01*
X142825000Y-66684947D01*
X142836731Y-66713269D01*
X142875000Y-66729120D01*
X142877151Y-66728229D01*
X142882796Y-66725891D01*
X142887273Y-66725000D01*
X157150227Y-66725000D01*
X157154704Y-66725891D01*
X157162500Y-66729120D01*
X157164651Y-66728229D01*
X157198618Y-66714160D01*
X157200769Y-66713269D01*
X157212500Y-66684947D01*
X157216620Y-66675000D01*
X161870880Y-66675000D01*
X161875000Y-66684947D01*
X161886731Y-66713269D01*
X161925000Y-66729120D01*
X161927151Y-66728229D01*
X161932796Y-66725891D01*
X161937273Y-66725000D01*
X176200227Y-66725000D01*
X176204704Y-66725891D01*
X176212500Y-66729120D01*
X176214651Y-66728229D01*
X176248618Y-66714160D01*
X176250769Y-66713269D01*
X176262500Y-66684947D01*
X176266620Y-66675000D01*
X180920880Y-66675000D01*
X180925000Y-66684947D01*
X180936731Y-66713269D01*
X180975000Y-66729120D01*
X180977151Y-66728229D01*
X180982796Y-66725891D01*
X180987273Y-66725000D01*
X195250227Y-66725000D01*
X195254704Y-66725891D01*
X195262500Y-66729120D01*
X195264651Y-66728229D01*
X195298618Y-66714160D01*
X195300769Y-66713269D01*
X195312500Y-66684947D01*
X195316620Y-66675000D01*
X199970880Y-66675000D01*
X199975000Y-66684947D01*
X199986731Y-66713269D01*
X200025000Y-66729120D01*
X200027151Y-66728229D01*
X200032796Y-66725891D01*
X200037273Y-66725000D01*
X214300227Y-66725000D01*
X214304704Y-66725891D01*
X214312500Y-66729120D01*
X214314651Y-66728229D01*
X214348618Y-66714160D01*
X214350769Y-66713269D01*
X214362500Y-66684947D01*
X214366620Y-66675000D01*
X214363391Y-66667204D01*
X214362500Y-66662727D01*
X214362500Y-52399773D01*
X214363391Y-52395296D01*
X214365729Y-52389651D01*
X214366620Y-52387500D01*
X214350769Y-52349231D01*
X214322447Y-52337500D01*
X214312500Y-52333380D01*
X214310349Y-52334271D01*
X214304704Y-52336609D01*
X214300227Y-52337500D01*
X200037273Y-52337500D01*
X200032796Y-52336609D01*
X200027151Y-52334271D01*
X200025000Y-52333380D01*
X200015053Y-52337500D01*
X199986731Y-52349231D01*
X199970880Y-52387500D01*
X199971771Y-52389651D01*
X199974109Y-52395296D01*
X199975000Y-52399773D01*
X199975000Y-66662727D01*
X199974109Y-66667204D01*
X199970880Y-66675000D01*
X195316620Y-66675000D01*
X195313391Y-66667204D01*
X195312500Y-66662727D01*
X195312500Y-52399773D01*
X195313391Y-52395296D01*
X195315729Y-52389651D01*
X195316620Y-52387500D01*
X195300769Y-52349231D01*
X195272447Y-52337500D01*
X195262500Y-52333380D01*
X195260349Y-52334271D01*
X195254704Y-52336609D01*
X195250227Y-52337500D01*
X180987273Y-52337500D01*
X180982796Y-52336609D01*
X180977151Y-52334271D01*
X180975000Y-52333380D01*
X180965053Y-52337500D01*
X180936731Y-52349231D01*
X180920880Y-52387500D01*
X180921771Y-52389651D01*
X180924109Y-52395296D01*
X180925000Y-52399773D01*
X180925000Y-66662727D01*
X180924109Y-66667204D01*
X180920880Y-66675000D01*
X176266620Y-66675000D01*
X176263391Y-66667204D01*
X176262500Y-66662727D01*
X176262500Y-52399773D01*
X176263391Y-52395296D01*
X176265729Y-52389651D01*
X176266620Y-52387500D01*
X176250769Y-52349231D01*
X176222447Y-52337500D01*
X176212500Y-52333380D01*
X176210349Y-52334271D01*
X176204704Y-52336609D01*
X176200227Y-52337500D01*
X161937273Y-52337500D01*
X161932796Y-52336609D01*
X161927151Y-52334271D01*
X161925000Y-52333380D01*
X161915053Y-52337500D01*
X161886731Y-52349231D01*
X161870880Y-52387500D01*
X161871771Y-52389651D01*
X161874109Y-52395296D01*
X161875000Y-52399773D01*
X161875000Y-66662727D01*
X161874109Y-66667204D01*
X161870880Y-66675000D01*
X157216620Y-66675000D01*
X157213391Y-66667204D01*
X157212500Y-66662727D01*
X157212500Y-52399773D01*
X157213391Y-52395296D01*
X157215729Y-52389651D01*
X157216620Y-52387500D01*
X157200769Y-52349231D01*
X157172447Y-52337500D01*
X157162500Y-52333380D01*
X157160349Y-52334271D01*
X157154704Y-52336609D01*
X157150227Y-52337500D01*
X142887273Y-52337500D01*
X142882796Y-52336609D01*
X142877151Y-52334271D01*
X142875000Y-52333380D01*
X142865053Y-52337500D01*
X142836731Y-52349231D01*
X142820880Y-52387500D01*
X142821771Y-52389651D01*
X142824109Y-52395296D01*
X142825000Y-52399773D01*
X142825000Y-66662727D01*
X142824109Y-66667204D01*
X142820880Y-66675000D01*
X138166620Y-66675000D01*
X138163391Y-66667204D01*
X138162500Y-66662727D01*
X138162500Y-52399773D01*
X138163391Y-52395296D01*
X138165729Y-52389651D01*
X138166620Y-52387500D01*
X138150769Y-52349231D01*
X138122447Y-52337500D01*
X138112500Y-52333380D01*
X138110349Y-52334271D01*
X138104704Y-52336609D01*
X138100227Y-52337500D01*
X123837273Y-52337500D01*
X123832796Y-52336609D01*
X123827151Y-52334271D01*
X123825000Y-52333380D01*
X123815053Y-52337500D01*
X123786731Y-52349231D01*
X123770880Y-52387500D01*
X123771771Y-52389651D01*
X123774109Y-52395296D01*
X123775000Y-52399773D01*
X123775000Y-66662727D01*
X123774109Y-66667204D01*
X123770880Y-66675000D01*
X119116620Y-66675000D01*
X119113391Y-66667204D01*
X119112500Y-66662727D01*
X119112500Y-52399773D01*
X119113391Y-52395296D01*
X119115729Y-52389651D01*
X119116620Y-52387500D01*
X119100769Y-52349231D01*
X119072447Y-52337500D01*
X119062500Y-52333380D01*
X119060349Y-52334271D01*
X119054704Y-52336609D01*
X119050227Y-52337500D01*
X104787273Y-52337500D01*
X104782796Y-52336609D01*
X104777151Y-52334271D01*
X104775000Y-52333380D01*
X104765053Y-52337500D01*
X104736731Y-52349231D01*
X104720880Y-52387500D01*
X104721771Y-52389651D01*
X104724109Y-52395296D01*
X104725000Y-52399773D01*
X104725000Y-66662727D01*
X104724109Y-66667204D01*
X104720880Y-66675000D01*
X102443836Y-66675000D01*
X102443836Y-50067992D01*
X102447263Y-50059719D01*
X102455536Y-50056292D01*
X214895720Y-50056292D01*
X214900197Y-50057183D01*
G37*
G04 #@! TD.AperFunction*
M02*
