G04 #@! TF.GenerationSoftware,KiCad,Pcbnew,(6.0.0-0)*
G04 #@! TF.CreationDate,2022-01-15T15:54:00+01:00*
G04 #@! TF.ProjectId,lumberjack-alps,6c756d62-6572-46a6-9163-6b2d616c7073,rev?*
G04 #@! TF.SameCoordinates,Original*
G04 #@! TF.FileFunction,Profile,NP*
%FSLAX46Y46*%
G04 Gerber Fmt 4.6, Leading zero omitted, Abs format (unit mm)*
G04 Created by KiCad (PCBNEW (6.0.0-0)) date 2022-01-15 15:54:00*
%MOMM*%
%LPD*%
G01*
G04 APERTURE LIST*
G04 #@! TA.AperFunction,Profile*
%ADD10C,0.100000*%
G04 #@! TD*
G04 APERTURE END LIST*
D10*
X209908069Y-104061062D02*
X209908069Y-110252338D01*
X195977698Y-129302418D02*
X195977698Y-142161222D01*
X180380445Y-142161222D02*
X180380445Y-129302418D01*
X180380445Y-129302418D02*
X195977698Y-129302418D01*
X176927618Y-129302418D02*
X176927618Y-142161222D01*
X104180125Y-129302418D02*
X119777378Y-129302418D01*
X215027778Y-129302418D02*
X215027778Y-142161222D01*
X119777378Y-129302418D02*
X119777378Y-142161222D01*
X119777378Y-142161222D02*
X104180125Y-142161222D01*
X215027778Y-142161222D02*
X199430525Y-142161222D01*
X104180125Y-142161222D02*
X104180125Y-129302418D01*
X161330365Y-142161222D02*
X161330365Y-129302418D01*
X161330365Y-129302418D02*
X176927618Y-129302418D01*
X195977698Y-142161222D02*
X180380445Y-142161222D01*
X176927618Y-142161222D02*
X161330365Y-142161222D01*
X142280285Y-142161222D02*
X142280285Y-129302418D01*
X142280285Y-129302418D02*
X157877538Y-129302418D01*
X157877538Y-142161222D02*
X142280285Y-142161222D01*
X157877538Y-129302418D02*
X157877538Y-142161222D01*
X138827458Y-129302418D02*
X138827458Y-142161222D01*
X138827458Y-142161222D02*
X123230205Y-142161222D01*
X123230205Y-129302418D02*
X138827458Y-129302418D01*
X123230205Y-142161222D02*
X123230205Y-129302418D01*
X199430525Y-142161222D02*
X199430525Y-129302418D01*
X199430525Y-129302418D02*
X215027778Y-129302418D01*
X195977698Y-110252338D02*
X195977698Y-123111142D01*
X180380445Y-123111142D02*
X180380445Y-110252338D01*
X180380445Y-110252338D02*
X195977698Y-110252338D01*
X176927618Y-110252338D02*
X176927618Y-123111142D01*
X104180125Y-110252338D02*
X119777378Y-110252338D01*
X215027778Y-109537592D02*
X215027778Y-123111142D01*
X119777378Y-110252338D02*
X119777378Y-123111142D01*
X119777378Y-123111142D02*
X104180125Y-123111142D01*
X215027778Y-123111142D02*
X199430525Y-123111142D01*
X104180125Y-123111142D02*
X104180125Y-110252338D01*
X161330365Y-123111142D02*
X161330365Y-110252338D01*
X161330365Y-110252338D02*
X176927618Y-110252338D01*
X195977698Y-123111142D02*
X180380445Y-123111142D01*
X176927618Y-123111142D02*
X161330365Y-123111142D01*
X142280285Y-123111142D02*
X142280285Y-110252338D01*
X142280285Y-110252338D02*
X157877538Y-110252338D01*
X157877538Y-123111142D02*
X142280285Y-123111142D01*
X157877538Y-110252338D02*
X157877538Y-123111142D01*
X138827458Y-110252338D02*
X138827458Y-123111142D01*
X138827458Y-123111142D02*
X123230205Y-123111142D01*
X123230205Y-110252338D02*
X138827458Y-110252338D01*
X123230205Y-123111142D02*
X123230205Y-110252338D01*
X199430525Y-123111142D02*
X199430525Y-110252338D01*
X199430525Y-110252338D02*
X209908069Y-110252338D01*
X195977698Y-91202258D02*
X195977698Y-104061062D01*
X180380445Y-104061062D02*
X180380445Y-91202258D01*
X180380445Y-91202258D02*
X195977698Y-91202258D01*
X176927618Y-91202258D02*
X176927618Y-104061062D01*
X104180125Y-91202258D02*
X119777378Y-91202258D01*
X215027778Y-91202258D02*
X215027778Y-104775088D01*
X119777378Y-91202258D02*
X119777378Y-104061062D01*
X119777378Y-104061062D02*
X104180125Y-104061062D01*
X209908069Y-104061062D02*
X199430525Y-104061062D01*
X104180125Y-104061062D02*
X104180125Y-91202258D01*
X161330365Y-104061062D02*
X161330365Y-91202258D01*
X161330365Y-91202258D02*
X176927618Y-91202258D01*
X195977698Y-104061062D02*
X180380445Y-104061062D01*
X176927618Y-104061062D02*
X161330365Y-104061062D01*
X142280285Y-104061062D02*
X142280285Y-91202258D01*
X142280285Y-91202258D02*
X157877538Y-91202258D01*
X157877538Y-104061062D02*
X142280285Y-104061062D01*
X157877538Y-91202258D02*
X157877538Y-104061062D01*
X138827458Y-91202258D02*
X138827458Y-104061062D01*
X138827458Y-104061062D02*
X123230205Y-104061062D01*
X123230205Y-91202258D02*
X138827458Y-91202258D01*
X123230205Y-104061062D02*
X123230205Y-91202258D01*
X199430525Y-104061062D02*
X199430525Y-91202258D01*
X199430525Y-91202258D02*
X215027778Y-91202258D01*
X195977698Y-72152178D02*
X195977698Y-85010982D01*
X180380445Y-85010982D02*
X180380445Y-72152178D01*
X180380445Y-72152178D02*
X195977698Y-72152178D01*
X176927618Y-72152178D02*
X176927618Y-85010982D01*
X104180125Y-72152178D02*
X119777378Y-72152178D01*
X215027778Y-72152178D02*
X215027778Y-85010982D01*
X119777378Y-72152178D02*
X119777378Y-85010982D01*
X119777378Y-85010982D02*
X104180125Y-85010982D01*
X215027778Y-85010982D02*
X199430525Y-85010982D01*
X104180125Y-85010982D02*
X104180125Y-72152178D01*
X161330365Y-85010982D02*
X161330365Y-72152178D01*
X161330365Y-72152178D02*
X176927618Y-72152178D01*
X195977698Y-85010982D02*
X180380445Y-85010982D01*
X176927618Y-85010982D02*
X161330365Y-85010982D01*
X142280285Y-85010982D02*
X142280285Y-72152178D01*
X142280285Y-72152178D02*
X157877538Y-72152178D01*
X157877538Y-85010982D02*
X142280285Y-85010982D01*
X157877538Y-72152178D02*
X157877538Y-85010982D01*
X138827458Y-72152178D02*
X138827458Y-85010982D01*
X138827458Y-85010982D02*
X123230205Y-85010982D01*
X123230205Y-72152178D02*
X138827458Y-72152178D01*
X123230205Y-85010982D02*
X123230205Y-72152178D01*
X199430525Y-85010982D02*
X199430525Y-72152178D01*
X199430525Y-72152178D02*
X215027778Y-72152178D01*
X199430525Y-53102098D02*
X215027778Y-53102098D01*
X215027778Y-53102098D02*
X215027778Y-65960902D01*
X215027778Y-65960902D02*
X199430525Y-65960902D01*
X199430525Y-65960902D02*
X199430525Y-53102098D01*
X180380445Y-53102098D02*
X195977698Y-53102098D01*
X195977698Y-53102098D02*
X195977698Y-65960902D01*
X195977698Y-65960902D02*
X180380445Y-65960902D01*
X180380445Y-65960902D02*
X180380445Y-53102098D01*
X161330365Y-53102098D02*
X176927618Y-53102098D01*
X176927618Y-53102098D02*
X176927618Y-65960902D01*
X176927618Y-65960902D02*
X161330365Y-65960902D01*
X161330365Y-65960902D02*
X161330365Y-53102098D01*
X142280285Y-53102098D02*
X157877538Y-53102098D01*
X157877538Y-53102098D02*
X157877538Y-65960902D01*
X157877538Y-65960902D02*
X142280285Y-65960902D01*
X142280285Y-65960902D02*
X142280285Y-53102098D01*
X123230205Y-53102098D02*
X138827458Y-53102098D01*
X138827458Y-53102098D02*
X138827458Y-65960902D01*
X138827458Y-65960902D02*
X123230205Y-65960902D01*
X123230205Y-65960902D02*
X123230205Y-53102098D01*
X216693932Y-109537592D02*
X216693932Y-143470433D01*
X104180125Y-65960902D02*
X104180125Y-53102098D01*
X102393836Y-145256372D02*
X214907993Y-145256372D01*
X104180125Y-53102098D02*
X119777378Y-53102098D01*
X215027778Y-104775088D02*
X216693932Y-104775088D01*
X102393836Y-50006292D02*
X102393836Y-145256372D01*
X214907993Y-50006292D02*
X102393836Y-50006292D01*
X215027778Y-109537592D02*
X216693932Y-109537592D01*
X119777378Y-65960902D02*
X104180125Y-65960902D01*
X216693932Y-51792231D02*
G75*
G03*
X214907993Y-50006292I-1785938J1D01*
G01*
X214907993Y-145256372D02*
G75*
G03*
X216693932Y-143470433I1J1785938D01*
G01*
X119777378Y-53102098D02*
X119777378Y-65960902D01*
X216693932Y-51792231D02*
X216693932Y-104775088D01*
M02*
