G04 #@! TF.GenerationSoftware,KiCad,Pcbnew,(6.0.5-0)*
G04 #@! TF.CreationDate,2022-06-06T14:33:39+02:00*
G04 #@! TF.ProjectId,lumberjack-split,6c756d62-6572-46a6-9163-6b2d73706c69,rev?*
G04 #@! TF.SameCoordinates,Original*
G04 #@! TF.FileFunction,Copper,L1,Top*
G04 #@! TF.FilePolarity,Positive*
%FSLAX46Y46*%
G04 Gerber Fmt 4.6, Leading zero omitted, Abs format (unit mm)*
G04 Created by KiCad (PCBNEW (6.0.5-0)) date 2022-06-06 14:33:39*
%MOMM*%
%LPD*%
G01*
G04 APERTURE LIST*
G04 #@! TA.AperFunction,NonConductor*
%ADD10C,0.200000*%
G04 #@! TD*
G04 #@! TA.AperFunction,ViaPad*
%ADD11C,0.600000*%
G04 #@! TD*
G04 APERTURE END LIST*
D10*
X214789652Y-143292320D02*
X104299188Y-143292320D01*
X104299188Y-143292320D02*
X104299188Y-51911468D01*
X104299188Y-51911468D02*
X214789652Y-51911468D01*
X214789652Y-51911468D02*
X214789652Y-143292320D01*
G36*
X214789652Y-143292320D02*
G01*
X104299188Y-143292320D01*
X104299188Y-51911468D01*
X214789652Y-51911468D01*
X214789652Y-143292320D01*
G37*
D11*
X121500000Y-69100000D03*
G04 #@! TA.AperFunction,NonConductor*
G36*
X214878013Y-50516292D02*
G01*
X214892846Y-50518602D01*
X214892850Y-50518602D01*
X214901719Y-50519983D01*
X214915784Y-50518144D01*
X214941998Y-50517468D01*
X215097944Y-50529741D01*
X215117470Y-50532834D01*
X215293105Y-50575000D01*
X215311895Y-50581105D01*
X215478782Y-50650232D01*
X215496392Y-50659206D01*
X215650387Y-50753575D01*
X215666383Y-50765196D01*
X215803732Y-50882504D01*
X215817707Y-50896479D01*
X215935019Y-51033836D01*
X215946632Y-51049822D01*
X216041004Y-51203826D01*
X216049977Y-51221437D01*
X216117714Y-51384973D01*
X216119097Y-51388312D01*
X216125206Y-51407115D01*
X216167369Y-51582745D01*
X216170462Y-51602272D01*
X216171245Y-51612223D01*
X216182189Y-51751309D01*
X216181551Y-51768098D01*
X216181733Y-51768100D01*
X216181623Y-51777073D01*
X216180241Y-51785946D01*
X216181405Y-51794849D01*
X216184369Y-51817518D01*
X216185432Y-51833853D01*
X216185432Y-104021818D01*
X216165430Y-104089939D01*
X216111774Y-104136432D01*
X216059432Y-104147818D01*
X215524152Y-104147818D01*
X215456031Y-104127816D01*
X215409538Y-104074160D01*
X215398152Y-104021818D01*
X215398152Y-51959611D01*
X215399230Y-51943165D01*
X215402325Y-51919656D01*
X215403403Y-51911468D01*
X215382490Y-51752618D01*
X215321176Y-51604593D01*
X215252559Y-51515170D01*
X215228668Y-51484034D01*
X215228665Y-51484031D01*
X215223639Y-51477481D01*
X215131938Y-51407115D01*
X215103078Y-51384970D01*
X215096528Y-51379944D01*
X215088902Y-51376785D01*
X215088900Y-51376784D01*
X214956132Y-51321790D01*
X214956129Y-51321789D01*
X214948502Y-51318630D01*
X214789652Y-51297717D01*
X214781464Y-51298795D01*
X214757955Y-51301890D01*
X214741509Y-51302968D01*
X104347331Y-51302968D01*
X104330885Y-51301890D01*
X104307376Y-51298795D01*
X104299188Y-51297717D01*
X104259303Y-51302968D01*
X104140338Y-51318630D01*
X103992313Y-51379944D01*
X103928757Y-51428713D01*
X103871754Y-51472452D01*
X103871752Y-51472454D01*
X103865201Y-51477481D01*
X103860175Y-51484031D01*
X103860174Y-51484032D01*
X103836281Y-51515170D01*
X103767664Y-51604592D01*
X103706350Y-51752618D01*
X103685437Y-51911468D01*
X103686515Y-51919656D01*
X103689610Y-51943165D01*
X103690688Y-51959611D01*
X103690688Y-143244177D01*
X103689610Y-143260623D01*
X103685437Y-143292320D01*
X103686515Y-143300508D01*
X103690688Y-143332205D01*
X103704080Y-143433924D01*
X103706350Y-143451170D01*
X103767664Y-143599195D01*
X103814605Y-143660369D01*
X103860172Y-143719754D01*
X103860174Y-143719756D01*
X103865201Y-143726307D01*
X103992312Y-143823844D01*
X103999938Y-143827003D01*
X103999940Y-143827004D01*
X104132708Y-143881998D01*
X104132711Y-143881999D01*
X104140338Y-143885158D01*
X104299188Y-143906071D01*
X104307376Y-143904993D01*
X104330885Y-143901898D01*
X104347331Y-143900820D01*
X214741509Y-143900820D01*
X214757955Y-143901898D01*
X214789652Y-143906071D01*
X214797840Y-143904993D01*
X214829537Y-143900820D01*
X214940314Y-143886236D01*
X214948502Y-143885158D01*
X215096527Y-143823844D01*
X215160083Y-143775075D01*
X215217086Y-143731336D01*
X215217089Y-143731333D01*
X215223639Y-143726307D01*
X215228668Y-143719754D01*
X215316150Y-143605746D01*
X215321176Y-143599196D01*
X215360427Y-143504436D01*
X215379330Y-143458800D01*
X215379331Y-143458797D01*
X215382490Y-143451170D01*
X215384761Y-143433924D01*
X215402325Y-143300508D01*
X215403403Y-143292320D01*
X215399230Y-143260623D01*
X215398152Y-143244177D01*
X215398152Y-110291523D01*
X215418154Y-110223402D01*
X215471810Y-110176909D01*
X215524152Y-110165523D01*
X216059432Y-110165523D01*
X216127553Y-110185525D01*
X216174046Y-110239181D01*
X216185432Y-110291523D01*
X216185432Y-143421065D01*
X216183931Y-143440452D01*
X216180241Y-143464148D01*
X216181405Y-143473052D01*
X216181405Y-143473053D01*
X216182080Y-143478216D01*
X216182754Y-143504436D01*
X216170479Y-143660369D01*
X216167386Y-143679897D01*
X216125219Y-143855524D01*
X216119109Y-143874328D01*
X216049987Y-144041196D01*
X216041011Y-144058812D01*
X215946637Y-144212813D01*
X215935015Y-144228809D01*
X215817712Y-144366150D01*
X215803732Y-144380130D01*
X215666384Y-144497434D01*
X215650388Y-144509055D01*
X215496388Y-144603424D01*
X215478771Y-144612400D01*
X215311904Y-144681517D01*
X215293100Y-144687627D01*
X215117469Y-144729792D01*
X215097944Y-144732884D01*
X215060981Y-144735793D01*
X214948837Y-144744618D01*
X214932117Y-144743983D01*
X214932115Y-144744173D01*
X214923145Y-144744063D01*
X214914271Y-144742681D01*
X214905368Y-144743845D01*
X214905361Y-144743845D01*
X214882701Y-144746808D01*
X214866365Y-144747872D01*
X103028336Y-144747872D01*
X102960215Y-144727870D01*
X102913722Y-144674214D01*
X102902336Y-144621872D01*
X102902336Y-50640792D01*
X102922338Y-50572671D01*
X102975994Y-50526178D01*
X103028336Y-50514792D01*
X214858628Y-50514792D01*
X214878013Y-50516292D01*
G37*
G04 #@! TD.AperFunction*
M02*
