G04 #@! TF.GenerationSoftware,KiCad,Pcbnew,(6.0.0-0)*
G04 #@! TF.CreationDate,2022-01-06T10:30:18+01:00*
G04 #@! TF.ProjectId,lumberjack-split,6c756d62-6572-46a6-9163-6b2d73706c69,rev?*
G04 #@! TF.SameCoordinates,Original*
G04 #@! TF.FileFunction,Soldermask,Top*
G04 #@! TF.FilePolarity,Negative*
%FSLAX46Y46*%
G04 Gerber Fmt 4.6, Leading zero omitted, Abs format (unit mm)*
G04 Created by KiCad (PCBNEW (6.0.0-0)) date 2022-01-06 10:30:18*
%MOMM*%
%LPD*%
G01*
G04 APERTURE LIST*
%ADD10C,2.500000*%
G04 APERTURE END LIST*
D10*
X142875600Y-109537960D02*
X157163160Y-109537960D01*
X157163160Y-109537960D02*
X157163160Y-123824915D01*
X157163160Y-123824915D02*
X142875600Y-123824915D01*
X142875600Y-123824915D02*
X142875600Y-109537960D01*
G36*
X142875600Y-109537960D02*
G01*
X157163160Y-109537960D01*
X157163160Y-123824915D01*
X142875600Y-123824915D01*
X142875600Y-109537960D01*
G37*
X200025840Y-71438405D02*
X214313400Y-71438405D01*
X214313400Y-71438405D02*
X214313400Y-85725360D01*
X214313400Y-85725360D02*
X200025840Y-85725360D01*
X200025840Y-85725360D02*
X200025840Y-71438405D01*
G36*
X200025840Y-71438405D02*
G01*
X214313400Y-71438405D01*
X214313400Y-85725360D01*
X200025840Y-85725360D01*
X200025840Y-71438405D01*
G37*
X180975760Y-90488183D02*
X195263320Y-90488183D01*
X195263320Y-90488183D02*
X195263320Y-104775138D01*
X195263320Y-104775138D02*
X180975760Y-104775138D01*
X180975760Y-104775138D02*
X180975760Y-90488183D01*
G36*
X180975760Y-90488183D02*
G01*
X195263320Y-90488183D01*
X195263320Y-104775138D01*
X180975760Y-104775138D01*
X180975760Y-90488183D01*
G37*
X200025840Y-52388022D02*
X214313400Y-52388022D01*
X214313400Y-52388022D02*
X214313400Y-66674977D01*
X214313400Y-66674977D02*
X200025840Y-66674977D01*
X200025840Y-66674977D02*
X200025840Y-52388022D01*
G36*
X200025840Y-52388022D02*
G01*
X214313400Y-52388022D01*
X214313400Y-66674977D01*
X200025840Y-66674977D01*
X200025840Y-52388022D01*
G37*
X142875600Y-52387417D02*
X157163160Y-52387417D01*
X157163160Y-52387417D02*
X157163160Y-66674372D01*
X157163160Y-66674372D02*
X142875600Y-66674372D01*
X142875600Y-66674372D02*
X142875600Y-52387417D01*
G36*
X142875600Y-52387417D02*
G01*
X157163160Y-52387417D01*
X157163160Y-66674372D01*
X142875600Y-66674372D01*
X142875600Y-52387417D01*
G37*
X161925680Y-109538262D02*
X176213240Y-109538262D01*
X176213240Y-109538262D02*
X176213240Y-123825217D01*
X176213240Y-123825217D02*
X161925680Y-123825217D01*
X161925680Y-123825217D02*
X161925680Y-109538262D01*
G36*
X161925680Y-109538262D02*
G01*
X176213240Y-109538262D01*
X176213240Y-123825217D01*
X161925680Y-123825217D01*
X161925680Y-109538262D01*
G37*
X142875600Y-128588040D02*
X157163160Y-128588040D01*
X157163160Y-128588040D02*
X157163160Y-142874995D01*
X157163160Y-142874995D02*
X142875600Y-142874995D01*
X142875600Y-142874995D02*
X142875600Y-128588040D01*
G36*
X142875600Y-128588040D02*
G01*
X157163160Y-128588040D01*
X157163160Y-142874995D01*
X142875600Y-142874995D01*
X142875600Y-128588040D01*
G37*
X104775440Y-90488183D02*
X119063000Y-90488183D01*
X119063000Y-90488183D02*
X119063000Y-104775138D01*
X119063000Y-104775138D02*
X104775440Y-104775138D01*
X104775440Y-104775138D02*
X104775440Y-90488183D01*
G36*
X104775440Y-90488183D02*
G01*
X119063000Y-90488183D01*
X119063000Y-104775138D01*
X104775440Y-104775138D01*
X104775440Y-90488183D01*
G37*
X161925680Y-128588342D02*
X176213240Y-128588342D01*
X176213240Y-128588342D02*
X176213240Y-142875297D01*
X176213240Y-142875297D02*
X161925680Y-142875297D01*
X161925680Y-142875297D02*
X161925680Y-128588342D01*
G36*
X161925680Y-128588342D02*
G01*
X176213240Y-128588342D01*
X176213240Y-142875297D01*
X161925680Y-142875297D01*
X161925680Y-128588342D01*
G37*
X161925680Y-52387719D02*
X176213240Y-52387719D01*
X176213240Y-52387719D02*
X176213240Y-66674674D01*
X176213240Y-66674674D02*
X161925680Y-66674674D01*
X161925680Y-66674674D02*
X161925680Y-52387719D01*
G36*
X161925680Y-52387719D02*
G01*
X176213240Y-52387719D01*
X176213240Y-66674674D01*
X161925680Y-66674674D01*
X161925680Y-52387719D01*
G37*
X104775440Y-109538263D02*
X119063000Y-109538263D01*
X119063000Y-109538263D02*
X119063000Y-123825218D01*
X119063000Y-123825218D02*
X104775440Y-123825218D01*
X104775440Y-123825218D02*
X104775440Y-109538263D01*
G36*
X104775440Y-109538263D02*
G01*
X119063000Y-109538263D01*
X119063000Y-123825218D01*
X104775440Y-123825218D01*
X104775440Y-109538263D01*
G37*
X200025840Y-90488485D02*
X214313400Y-90488485D01*
X214313400Y-90488485D02*
X214313400Y-104775440D01*
X214313400Y-104775440D02*
X200025840Y-104775440D01*
X200025840Y-104775440D02*
X200025840Y-90488485D01*
G36*
X200025840Y-90488485D02*
G01*
X214313400Y-90488485D01*
X214313400Y-104775440D01*
X200025840Y-104775440D01*
X200025840Y-90488485D01*
G37*
X210265258Y-104775440D02*
X214313400Y-104775440D01*
X214313400Y-104775440D02*
X214313400Y-109537960D01*
X214313400Y-109537960D02*
X210265258Y-109537960D01*
X210265258Y-109537960D02*
X210265258Y-104775440D01*
G36*
X210265258Y-104775440D02*
G01*
X214313400Y-104775440D01*
X214313400Y-109537960D01*
X210265258Y-109537960D01*
X210265258Y-104775440D01*
G37*
X200025840Y-109538565D02*
X214313400Y-109538565D01*
X214313400Y-109538565D02*
X214313400Y-123825520D01*
X214313400Y-123825520D02*
X200025840Y-123825520D01*
X200025840Y-123825520D02*
X200025840Y-109538565D01*
G36*
X200025840Y-109538565D02*
G01*
X214313400Y-109538565D01*
X214313400Y-123825520D01*
X200025840Y-123825520D01*
X200025840Y-109538565D01*
G37*
X123825520Y-52388022D02*
X138113080Y-52388022D01*
X138113080Y-52388022D02*
X138113080Y-66674977D01*
X138113080Y-66674977D02*
X123825520Y-66674977D01*
X123825520Y-66674977D02*
X123825520Y-52388022D01*
G36*
X123825520Y-52388022D02*
G01*
X138113080Y-52388022D01*
X138113080Y-66674977D01*
X123825520Y-66674977D01*
X123825520Y-52388022D01*
G37*
X180975760Y-109538263D02*
X195263320Y-109538263D01*
X195263320Y-109538263D02*
X195263320Y-123825218D01*
X195263320Y-123825218D02*
X180975760Y-123825218D01*
X180975760Y-123825218D02*
X180975760Y-109538263D01*
G36*
X180975760Y-109538263D02*
G01*
X195263320Y-109538263D01*
X195263320Y-123825218D01*
X180975760Y-123825218D01*
X180975760Y-109538263D01*
G37*
X104775440Y-71438103D02*
X119063000Y-71438103D01*
X119063000Y-71438103D02*
X119063000Y-85725058D01*
X119063000Y-85725058D02*
X104775440Y-85725058D01*
X104775440Y-85725058D02*
X104775440Y-71438103D01*
G36*
X104775440Y-71438103D02*
G01*
X119063000Y-71438103D01*
X119063000Y-85725058D01*
X104775440Y-85725058D01*
X104775440Y-71438103D01*
G37*
X142875600Y-71437800D02*
X157163160Y-71437800D01*
X157163160Y-71437800D02*
X157163160Y-85724755D01*
X157163160Y-85724755D02*
X142875600Y-85724755D01*
X142875600Y-85724755D02*
X142875600Y-71437800D01*
G36*
X142875600Y-71437800D02*
G01*
X157163160Y-71437800D01*
X157163160Y-85724755D01*
X142875600Y-85724755D01*
X142875600Y-71437800D01*
G37*
X123825520Y-109538565D02*
X138113080Y-109538565D01*
X138113080Y-109538565D02*
X138113080Y-123825520D01*
X138113080Y-123825520D02*
X123825520Y-123825520D01*
X123825520Y-123825520D02*
X123825520Y-109538565D01*
G36*
X123825520Y-109538565D02*
G01*
X138113080Y-109538565D01*
X138113080Y-123825520D01*
X123825520Y-123825520D01*
X123825520Y-109538565D01*
G37*
X180975760Y-52387720D02*
X195263320Y-52387720D01*
X195263320Y-52387720D02*
X195263320Y-66674675D01*
X195263320Y-66674675D02*
X180975760Y-66674675D01*
X180975760Y-66674675D02*
X180975760Y-52387720D01*
G36*
X180975760Y-52387720D02*
G01*
X195263320Y-52387720D01*
X195263320Y-66674675D01*
X180975760Y-66674675D01*
X180975760Y-52387720D01*
G37*
X123825520Y-71438405D02*
X138113080Y-71438405D01*
X138113080Y-71438405D02*
X138113080Y-85725360D01*
X138113080Y-85725360D02*
X123825520Y-85725360D01*
X123825520Y-85725360D02*
X123825520Y-71438405D01*
G36*
X123825520Y-71438405D02*
G01*
X138113080Y-71438405D01*
X138113080Y-85725360D01*
X123825520Y-85725360D01*
X123825520Y-71438405D01*
G37*
X180975760Y-128588343D02*
X195263320Y-128588343D01*
X195263320Y-128588343D02*
X195263320Y-142875298D01*
X195263320Y-142875298D02*
X180975760Y-142875298D01*
X180975760Y-142875298D02*
X180975760Y-128588343D01*
G36*
X180975760Y-128588343D02*
G01*
X195263320Y-128588343D01*
X195263320Y-142875298D01*
X180975760Y-142875298D01*
X180975760Y-128588343D01*
G37*
X104775440Y-52387720D02*
X119063000Y-52387720D01*
X119063000Y-52387720D02*
X119063000Y-66674675D01*
X119063000Y-66674675D02*
X104775440Y-66674675D01*
X104775440Y-66674675D02*
X104775440Y-52387720D01*
G36*
X104775440Y-52387720D02*
G01*
X119063000Y-52387720D01*
X119063000Y-66674675D01*
X104775440Y-66674675D01*
X104775440Y-52387720D01*
G37*
X180975760Y-71438103D02*
X195263320Y-71438103D01*
X195263320Y-71438103D02*
X195263320Y-85725058D01*
X195263320Y-85725058D02*
X180975760Y-85725058D01*
X180975760Y-85725058D02*
X180975760Y-71438103D01*
G36*
X180975760Y-71438103D02*
G01*
X195263320Y-71438103D01*
X195263320Y-85725058D01*
X180975760Y-85725058D01*
X180975760Y-71438103D01*
G37*
X123825520Y-90488485D02*
X138113080Y-90488485D01*
X138113080Y-90488485D02*
X138113080Y-104775440D01*
X138113080Y-104775440D02*
X123825520Y-104775440D01*
X123825520Y-104775440D02*
X123825520Y-90488485D01*
G36*
X123825520Y-90488485D02*
G01*
X138113080Y-90488485D01*
X138113080Y-104775440D01*
X123825520Y-104775440D01*
X123825520Y-90488485D01*
G37*
X104775440Y-128588040D02*
X138113080Y-128588040D01*
X138113080Y-128588040D02*
X138113080Y-142874995D01*
X138113080Y-142874995D02*
X104775440Y-142874995D01*
X104775440Y-142874995D02*
X104775440Y-128588040D01*
G36*
X104775440Y-128588040D02*
G01*
X138113080Y-128588040D01*
X138113080Y-142874995D01*
X104775440Y-142874995D01*
X104775440Y-128588040D01*
G37*
X161925680Y-90488182D02*
X176213240Y-90488182D01*
X176213240Y-90488182D02*
X176213240Y-104775137D01*
X176213240Y-104775137D02*
X161925680Y-104775137D01*
X161925680Y-104775137D02*
X161925680Y-90488182D01*
G36*
X161925680Y-90488182D02*
G01*
X176213240Y-90488182D01*
X176213240Y-104775137D01*
X161925680Y-104775137D01*
X161925680Y-90488182D01*
G37*
X130969300Y-127397410D02*
X135731820Y-127397410D01*
X135731820Y-127397410D02*
X135731820Y-128588040D01*
X135731820Y-128588040D02*
X130969300Y-128588040D01*
X130969300Y-128588040D02*
X130969300Y-127397410D01*
G36*
X130969300Y-127397410D02*
G01*
X135731820Y-127397410D01*
X135731820Y-128588040D01*
X130969300Y-128588040D01*
X130969300Y-127397410D01*
G37*
X107156700Y-127397410D02*
X111919220Y-127397410D01*
X111919220Y-127397410D02*
X111919220Y-128588040D01*
X111919220Y-128588040D02*
X107156700Y-128588040D01*
X107156700Y-128588040D02*
X107156700Y-127397410D01*
G36*
X107156700Y-127397410D02*
G01*
X111919220Y-127397410D01*
X111919220Y-128588040D01*
X107156700Y-128588040D01*
X107156700Y-127397410D01*
G37*
X142875600Y-90487880D02*
X157163160Y-90487880D01*
X157163160Y-90487880D02*
X157163160Y-104774835D01*
X157163160Y-104774835D02*
X142875600Y-104774835D01*
X142875600Y-104774835D02*
X142875600Y-90487880D01*
G36*
X142875600Y-90487880D02*
G01*
X157163160Y-90487880D01*
X157163160Y-104774835D01*
X142875600Y-104774835D01*
X142875600Y-90487880D01*
G37*
X200025840Y-128588645D02*
X214313400Y-128588645D01*
X214313400Y-128588645D02*
X214313400Y-142875600D01*
X214313400Y-142875600D02*
X200025840Y-142875600D01*
X200025840Y-142875600D02*
X200025840Y-128588645D01*
G36*
X200025840Y-128588645D02*
G01*
X214313400Y-128588645D01*
X214313400Y-142875600D01*
X200025840Y-142875600D01*
X200025840Y-128588645D01*
G37*
X161925680Y-71438102D02*
X176213240Y-71438102D01*
X176213240Y-71438102D02*
X176213240Y-85725057D01*
X176213240Y-85725057D02*
X161925680Y-85725057D01*
X161925680Y-85725057D02*
X161925680Y-71438102D01*
G36*
X161925680Y-71438102D02*
G01*
X176213240Y-71438102D01*
X176213240Y-85725057D01*
X161925680Y-85725057D01*
X161925680Y-71438102D01*
G37*
M02*
